<?xml version="1.0" encoding="utf-8"?>
<!-- Generator: Adobe Illustrator 24.0.2, SVG Export Plug-In . SVG Version: 6.00 Build 0)  -->
<svg version="1.1" id="Capa_1" xmlns="http://www.w3.org/2000/svg" xmlns:xlink="http://www.w3.org/1999/xlink" x="0px" y="0px"
	 viewBox="0 0 103.8 81.2" style="enable-background:new 0 0 103.8 81.2;" xml:space="preserve">
<title>corporativo</title>
<g>
	<g>
		<path d="M15.9,77.8c0-1.5-0.2-2.9,0-4.3c0.3-2.1,2.1-3.5,4.2-3.6c0.5,0,0.9,0,1.4,0c20.5,0,41,0,61.5,0c3,0,4.9,1.9,5,4.9
			c0,1,0,2,0,3.1C63.9,77.8,39.9,77.8,15.9,77.8z"/>
		<path d="M56.5,15.6c0,3.3,0,6.6,0,9.9c0,1.5,0.6,2.1,2.1,2.1c2.3,0,4.5,0,6.8,0c1.5,0,2.1,0.6,2.1,2.1c0,1.1,0,2.2,0,3.3
			c0,1.4-0.7,2-2,2c-1.3,0-2.7,0-4,0c-1.3,0-1.7,0.5-1.7,1.7c0,0.3,0,0.7,0,1c-0.1,0.8-0.6,1.3-1.4,1.3c-4.3,0-8.6,0-12.9,0
			c-0.8,0-1.3-0.5-1.4-1.3c0-0.3,0-0.5,0-0.8c0-1.5-0.4-1.9-1.9-1.9c-1.3,0-2.5,0-3.8,0c-1.4,0-2-0.7-2-2c0-1.1,0-2.2,0-3.4
			c0-1.4,0.7-2,2.1-2c2.3,0,4.5,0,6.8,0c1.5,0,2.1-0.6,2.1-2.1c0-6.5,0-13.1,0-19.6c0-1.9,0.6-2.5,2.6-2.5c1.5,0,3,0,4.5,0
			c1.4,0,2.2,0.7,2.2,2.2C56.5,8.9,56.5,12.3,56.5,15.6z"/>
		<path d="M32.7,66.2c0.1-1.7,0-3.4,0.3-5.1c0.3-1.8,2-2.9,3.9-2.9c2.6,0,5.1,0,7.7,0c0.3,0,0.7,0,1.1,0c0-1.5,0-3,0-4.5
			c-1.7,0-3.5,0-5.2,0c-1.5,0-3,0-4.4,0c-0.9,0-1.2-0.4-1.2-1.2c0-2.8-0.1-2.4,2.3-2.4c5.8,0,11.5,0,17.3,0c4.3,0,8.7,0,13,0
			c1.4,0,1.5,0.1,1.5,1.5c0,2.2,0,2.1-2.1,2.1c-3,0-5.9,0-9,0c0,1.5,0,2.9,0,4.4c0.3,0,0.6,0,1,0c2.6,0,5.3,0,7.9,0
			c2.6,0,4.3,1.7,4.3,4.3c0,1.2,0,2.4,0,3.7C58.2,66.2,45.6,66.2,32.7,66.2z M53.8,53.8c-1.4,0-2.7,0-4.1,0c0,1.5,0,2.9,0,4.4
			c1.4,0,2.7,0,4.1,0C53.8,56.7,53.8,55.3,53.8,53.8z"/>
		<path d="M42.2,17.8c0,1.3,0,2.4,0,3.6c-0.4,0-0.7,0-1,0c-3.7,0-7.5,0-11.2,0c-2.3,0-3.1,0.8-3.1,3.1c0,13.6,0,27.1,0,40.7
			c0,0.4,0,0.7,0,1.2c-1.2,0-2.4,0-3.6,0c0-0.3,0-0.7,0-1c0-13.7,0-27.3,0-41c0-4,3-6.7,6.6-6.5c3.8,0.1,7.6,0,11.4,0
			C41.5,17.8,41.8,17.8,42.2,17.8z"/>
		<path d="M61.8,21.3c0-1.2,0-2.3,0-3.6c0.3,0,0.6,0,0.9,0c3.8,0,7.6,0,11.4,0c3.8,0,6.4,2.5,6.4,6.3c0,13.8,0,27.5,0,41.3
			c0,0.3,0,0.6,0,0.9c-1.2,0-2.3,0-3.6,0c0-0.4,0-0.7,0-1.1c0-13.6,0-27.2,0-40.8c0-2.1-0.9-3-3-3C69.9,21.3,65.9,21.3,61.8,21.3z"
			/>
		<path d="M60.6,6.2c1.5,0,2.9,0,4.3,0c0.5,0,0.8-0.1,1.2-0.6c1.2-1.6,3.5-1.8,4.9-0.5c1.4,1.3,1.5,3.5,0.2,4.8
			c-1.3,1.5-3.5,1.5-5,0.1c-0.3-0.3-0.8-0.5-1.2-0.5c-1.5-0.1-2.9,0-4.5,0C60.6,8.5,60.6,7.4,60.6,6.2z"/>
		<path d="M43.1,6.2c0,1.2,0,2.2,0,3.4c-1.2,0-2.4,0-3.6,0c-0.8,0-1.5,0.1-2.1,0.7c-1.3,1.3-3.5,1.1-4.7-0.3
			c-1.2-1.4-1.1-3.5,0.3-4.8c1.4-1.3,3.6-1.2,4.8,0.3c0.5,0.6,0.9,0.7,1.6,0.7C40.6,6.2,41.8,6.2,43.1,6.2z"/>
	</g>
</g>
</svg>
