<?xml version="1.0" encoding="utf-8"?>
<!-- Generator: Adobe Illustrator 24.0.2, SVG Export Plug-In . SVG Version: 6.00 Build 0)  -->
<svg version="1.1" id="Capa_1" xmlns="http://www.w3.org/2000/svg" xmlns:xlink="http://www.w3.org/1999/xlink" x="0px" y="0px"
	 viewBox="0 0 103.8 81.2" style="enable-background:new 0 0 103.8 81.2;" xml:space="preserve">
<title>corporativo</title>
<g id="ICONO_28_">
	<path d="M71.7,46.6h11.3c0.3,0,0.5-0.1,0.6-0.3c0.2-0.2,0.3-0.4,0.3-0.7V28.5c0-0.5-0.4-0.9-0.9-0.9H71.7c-0.5,0-0.9,0.4-0.9,0.9
		v17.2C70.8,46.1,71.2,46.6,71.7,46.6z M72.6,44.7V29.4h9.5v15.3H72.6z"/>
	<path d="M86.9,27.6c0-1.8-1.3-3.1-3.1-3.1c-0.8,0-1.5,0-2.3,0c-1.4,0-2.8,0-4.3,0c-2.1,0-4.2,0-6.2,0c-1.8,0-3.1,1.3-3.2,3.1
		c0,0.5,0,1.1,0,1.6c0,0.3,0,0.5,0,0.8v4.4H63v-3.4c0-0.2,0-0.3,0-0.5c0-0.6,0.1-1.2-0.1-1.7c-0.1-0.2-0.2-0.4-0.3-0.5
		c-0.1-0.1-0.1-0.1-0.2-0.2l-3.5-5H68c0.6,0,1.2,0,1.9,0c1.3,0,2.6,0.1,3.8,0l0-0.3c0,0,0,0,0,0l0.1,0.3c0.3,0,0.5-0.1,0.6-0.3
		c0.2-0.2,0.3-0.4,0.3-0.7v-3.9c0-0.5-0.4-0.9-0.9-0.9h-2.1v-6.5c0-0.5-0.4-0.9-0.9-0.9h-2.4l-4-6.4h6.5c0.6,0,0.9-0.5,0.9-0.9
		c0-0.2-0.1-0.5-0.2-0.6c-0.2-0.2-0.4-0.3-0.7-0.3H30.1c-0.6,0-0.9,0.5-0.9,0.9c0,0.5,0.3,0.9,0.9,0.9h6.5l-4,6.4h-2.4
		c-0.5,0-0.9,0.4-0.9,0.9v6.5c-0.8,0-1.4,0-2.1,0.1l0,0.3c0,0,0,0,0,0l-0.1-0.3c-0.5,0-0.9,0.4-0.9,0.9V22c0,0.5,0.4,0.9,0.9,0.9
		h14.7L38.5,28c0,0.1-0.1,0.1-0.1,0.2c-0.2,0.2-0.3,0.4-0.4,0.7c-0.1,0.2,0,0.4,0,0.6l0,24.6h-6.7c-0.7,0-1.4,0-2.1,0
		c-1.4,0-2.8,0-4.2,0l0,0.3h0c0,0,0,0,0,0L24.9,54c-0.5,0-0.9,0.4-0.9,0.9v7c-1.2,0-2.4,0.1-3.5,0.9c-1.6,1.1-2.4,2.8-2.4,4.8v8.5
		c0,0.5,0.4,0.9,0.9,0.9h8.6v1.6h-2.3c-0.6,0-0.9,0.5-0.9,0.9c0,0.5,0.3,0.9,0.9,0.9h6.5c0.6,0,0.9-0.5,0.9-0.9
		c0-0.5-0.3-0.9-0.9-0.9h-2.3V77h8.6c0.3,0,0.5-0.1,0.6-0.3c0.2-0.2,0.3-0.4,0.3-0.7v-2.8h23v2.8c0,0.5,0.4,0.9,0.9,0.9h10.5v1.6H71
		c-0.6,0-0.9,0.5-0.9,0.9s0.3,0.9,0.9,0.9h6.5c0.6,0,0.9-0.5,0.9-0.9c0-0.5-0.3-0.9-0.9-0.9h-2.3V77h6.7c0.3,0,0.5-0.1,0.6-0.3
		c0.2-0.2,0.3-0.4,0.3-0.7v-7.8c0-1.3-0.1-2.9-1.1-4.2C80.5,62.7,78.9,62,77,62h-0.2v-7c0-0.5-0.4-0.9-0.9-0.9H63V39.8h4.9v9
		c0,1.8,0.8,3,2.2,3.4c0.7,0.2,1.5,0.2,2.3,0.1c0.3,0,0.5,0,0.8,0h10.7c0,0,0.1,0,0.1,0c1.7-0.1,2.9-1.5,2.9-3.4V35.1
		c0-0.8,0-1.7,0-2.5C86.9,30.9,87,29.2,86.9,27.6z M69.7,28.3c0-0.5,0-1,0.1-1.3c0.3-0.6,0.9-0.8,1.7-0.8c0.1,0,0.3,0,0.4,0
		c0.2,0,0.3,0,0.4,0h9.8c0.2,0,0.4,0,0.6,0c0.7,0,1.7-0.1,2.1,0.4c0.4,0.4,0.4,1,0.4,1.6c0,0.1,0,0.3,0,0.4v14.2c0,0.7,0,1.4,0,2.2
		c0,1.4,0,2.9,0,4.3c0,0.7-0.5,1.2-1.2,1.2H71.8c-1.2,0-2.1-0.1-2.1-1.2c-0.1-1.3,0-2.7,0-4c0-0.7,0-1.4,0-2V28.8
		C69.7,28.7,69.7,28.5,69.7,28.3z M49.5,16.5V3.4h1.8v13.1H49.5z M28.1,21.1V19h16.5l-1.4,2.1H29.1c-0.2,0-0.4,0-0.6,0
		C28.4,21.1,28.3,21.1,28.1,21.1z M36.1,9.8h-1.4l4-6.4H44l-2.4,6.4h-2.2c-0.5,0-0.9,0.4-0.9,0.9v6.5H37v-6.5
		C37,10.2,36.6,9.8,36.1,9.8z M44.4,11.6v5.6h-4v-5.6H44.4z M47.7,16.5c-0.3,0-0.6,0-0.9,0c-0.3,0-0.5,0.1-0.6,0.3v-6.1
		c0-0.5-0.4-0.9-0.9-0.9h-1.7L46,3.4h1.7V16.5z M61.2,34.2c0,0.8,0,1.6,0,2.4V54h-2.7V31.6c0-0.9-1-1.1-1.5-0.7
		c-0.2,0.2-0.3,0.4-0.3,0.7V54h-2.9V26c0-1.2-1.8-1.2-1.8,0v28h-2.9V26c0-1.2-1.8-1.2-1.8,0v28h-2.9V31.6c0-1.2-1.8-1.2-1.8,0V54
		h-2.9V29.8c0,0,0-0.1,0-0.1c0-0.1,0-0.2,0-0.2c0,0,0-0.1,0.1-0.1c0,0,0-0.1,0.1-0.1l7.5-10.9h6.2l7.1,10.2c0.1,0.1,0.1,0.2,0.2,0.3
		c0.1,0.2,0.2,0.4,0.4,0.6C61.1,31,61.1,32.7,61.2,34.2z M65.7,17.2v-5.6h4.1v5.6H65.7z M64.8,9.8c-0.5,0-0.9,0.4-0.9,0.9v6.5h-1.6
		v-6.5c0-0.5-0.4-0.9-0.9-0.9h-2.2l-2.4-6.4h5.3l4,6.4H64.8z M56.5,17.2v-5.6h4.1v5.6H56.5z M55.6,9.8c-0.5,0-0.9,0.4-0.9,0.9v6.2
		c-0.2-0.2-0.4-0.3-0.7-0.3c-0.2,0-0.5,0-0.7,0c0,0-0.1,0-0.1,0V3.4H55l2.4,6.4H55.6z M56.2,19h15.6c0.2,0,0.4,0,0.6,0
		c0.1,0,0.3,0,0.4,0v2.1H57.6L56.2,19z M31.2,17.2v-5.6h4.1v5.6H33C32.4,17.2,31.8,17.2,31.2,17.2z M38.1,64.6h24.6
		c-0.5,0.9-0.8,1.9-0.8,3.1v3.8h-23v-3.2C38.9,67.1,38.8,65.8,38.1,64.6z M64.3,65.5c0.2-0.4,0.5-0.7,0.9-0.9
		c0.7-0.5,1.6-0.7,2.6-0.7h8.8c1.1,0,2,0.1,2.8,0.6c1,0.7,1.5,1.8,1.5,3.5v7.2H63.7l0-6.8C63.7,67.3,63.7,66.3,64.3,65.5z M37,67.9
		v7.2H19.9l0-6.8c0-1,0-2,0.5-2.9c0.7-1.1,1.9-1.7,3.5-1.7h8.5c1.1,0,2.1,0,3,0.6c0.1,0,0.1,0.1,0.1,0.1C36.6,65.2,37,66.3,37,67.9z
		 M36.2,62.7c-0.9-0.5-1.9-0.8-3.1-0.8h-3.4c0.7-1.4,2.1-2.4,3.8-2.4c0.4,0,0.7,0,1.1,0l30.3,0l0.7,0c0.5,0,1,0,1.5,0
		c1.7,0,3.2,1,3.8,2.4h-2.7c-1.3,0-2.6,0.1-3.8,0.8H36.2z M66.4,57.7l-31,0l-0.6,0c-0.4,0-0.8,0-1.3,0c-2.6,0-5,1.8-5.7,4.3h-2v-6.1
		h48c0.2,0,0.4,0,0.6,0c0.2,0,0.4,0,0.5,0V62h-2c-0.7-2.2-2.6-3.9-4.9-4.2C67.5,57.7,66.9,57.7,66.4,57.7z M67.9,36.1V38h-4.6v-1.9
		H67.9z"/>
	<circle cx="48.2" cy="21.4" r="1.8"/>
	<circle cx="52.9" cy="21.4" r="1.8"/>
	<circle cx="43.6" cy="27.6" r="1.8"/>
	<circle cx="57.4" cy="27.6" r="1.8"/>
	<path d="M71.7,49.5c0.6,0,1-0.5,1-1s-0.5-1-1-1c-0.6,0-1,0.5-1,1S71.2,49.5,71.7,49.5z"/>
	<path d="M75.5,47.5c-0.6,0-1,0.5-1,1s0.5,1,1,1c0.6,0,1-0.5,1-1S76,47.5,75.5,47.5z"/>
	<path d="M79.2,47.5c-0.6,0-1,0.5-1,1s0.5,1,1,1c0.6,0,1-0.5,1-1S79.7,47.5,79.2,47.5z"/>
	<path d="M82.9,47.5c-0.6,0-1,0.5-1,1s0.5,1,1,1c0.6,0,1-0.5,1-1S83.5,47.5,82.9,47.5z"/>
</g>
</svg>
