<?xml version="1.0" encoding="utf-8"?>
<!-- Generator: Adobe Illustrator 24.0.2, SVG Export Plug-In . SVG Version: 6.00 Build 0)  -->
<svg version="1.1" id="Capa_1" xmlns="http://www.w3.org/2000/svg" xmlns:xlink="http://www.w3.org/1999/xlink" x="0px" y="0px"
	 viewBox="0 0 103.8 81.2" style="enable-background:new 0 0 103.8 81.2;" xml:space="preserve">
<g>
	<g>
		<path d="M95.5,54.1C95.5,54,95.5,54,95.5,54.1c-0.1-5-3.7-9.5-8.5-10.4c0,0-0.1,0-0.1,0c0,0-0.1,0-0.1,0
			c-3.4-0.6-7.2-0.2-10.6-0.2c-14.7,0-29.5,0-44.2,0c-4,0-8-0.1-12,0c-0.1,0-0.3,0-0.4,0c-3.2,0-6.3,1.4-8.4,3.9
			c-2.8,3.4-3.2,8.4-1,12.3c1.9,3.3,5.5,5.2,9.2,5.3c2.4,0.2,4.8,0,7,0c6.9,0,13.8,0,20.7,0c12.4,0,24.7,0,37.1,0c0.2,0,0.5,0,0.7,0
			c0.3,0,0.7,0,1-0.1c0.3,0,0.6-0.1,1-0.1c2.7-0.5,4.9-2,6.5-4c1.2-1.6,2.1-3.5,2.3-5.7c0-0.2,0-0.5,0-0.7c0-0.1,0-0.1,0-0.2
			C95.5,54.1,95.5,54.1,95.5,54.1C95.5,54.1,95.5,54.1,95.5,54.1z M19.9,61.7c-1.8-0.1-3.5-0.5-5-1.7c-4-3.4-3.3-9.8,1.2-12.3
			c0.9-0.5,1.9-0.8,3.1-0.9c0.1,0,0.2,0,0.3,0c4.2,0,7.4,3.4,7.5,7.5C26.8,58.1,23.8,61.4,19.9,61.7z M75.4,59.6
			c0.4,0.8,1,1.4,1.6,2.1c-7.1,0-14.1,0-21.2,0c-9.6,0-19.1,0-28.7,0c1.8-1.9,2.9-4.5,3.1-7.3c0-0.1,0-0.2,0-0.2c0-0.1,0-0.2,0-0.3
			c-0.1-2.8-1.2-5.3-3.1-7.2c13.5,0,27.1,0,40.6,0c3.1,0,6.2,0,9.3,0c-0.2,0.2-0.4,0.4-0.6,0.7C73.6,50.8,73.1,55.8,75.4,59.6z
			 M92.1,55c-0.3,2.5-1.8,4.6-3.9,5.7c0,0,0,0,0,0c0,0,0,0-0.1,0c-1.1,0.6-2.3,0.9-3.5,0.9c0,0,0,0,0,0c-4.1,0-7.5-3.4-7.5-7.5
			c0-4.1,3.4-7.5,7.5-7.5c0.1,0,0.2,0,0.3,0c0.1,0,0.2,0,0.3,0c0,0,0.1,0,0.1,0c0.1,0,0.2,0,0.3,0c0.1,0,0.2,0,0.3,0
			c0.1,0,0.1,0,0.2,0c0.1,0,0.1,0,0.2,0c0.1,0,0.2,0,0.3,0.1c0,0,0.1,0,0.1,0c0.1,0,0.3,0.1,0.4,0.1c0,0,0,0,0,0
			c0.3,0.1,0.6,0.2,0.8,0.4c0,0,0,0,0,0c0.1,0.1,0.3,0.1,0.4,0.2c0,0,0,0,0,0C91,49.2,92.4,52.1,92.1,55z"/>
		<path d="M102,46.1c-2.7-5.6-8.3-9.5-14.4-10.3V21c0-2,0.1-4.1,0-6.1c-0.2-4-3.3-6.4-7.1-6.4h-19c-3,0-5.9,0.2-7.7,3.2
			c-1.2,2-0.9,4.6-0.9,6.9v17h-1.9V21c0-2,0.1-4.1,0-6.1c-0.2-4-3.3-6.4-7.1-6.4h-19c-3,0-5.9,0.2-7.7,3.2c-1.2,2-0.9,4.6-0.9,6.9
			v17.2C5.9,37.2-1.7,47.1,0.3,57.7C1.5,63.8,5.9,69,11.6,71.3c2.7,1.1,5.5,1.3,8.4,1.3h65.3c6.4-0.1,12.3-3.3,15.7-8.7
			C104.4,58.6,104.7,51.7,102,46.1z M56.1,15.3c0-2.6,1.9-3.5,4.1-3.5h18.4c2.3,0,5.4-0.2,5.7,2.9c0.2,1.7,0,3.6,0,5.3v15.6
			c-0.6,0-1.2,0-1.8,0H56.1V22.5C56.1,20.1,56.1,17.7,56.1,15.3z M19.5,15.3c0-2.6,1.9-3.5,4.1-3.5H42c2.3,0,5.4-0.2,5.7,2.9
			c0.2,1.7,0,3.6,0,5.3v15.6H34.3c-4.9,0-9.9,0-14.8,0V22.5C19.5,20.1,19.5,17.7,19.5,15.3z M93.6,66.9c-2.5,1.6-5.3,2.4-8.3,2.5
			H25.6c-5.2,0-10.6,0.6-15.2-2.3c-5-3.1-7.7-8.9-7-14.7c0.7-5.9,5-11.1,10.8-12.8c0.8-0.2,1.6-0.4,2.4-0.5
			c3.7-0.5,7.7-0.1,11.3-0.1h55.5c1.3,0,2.6,0,4,0.2c0.7,0.1,1.3,0.2,2,0.4c5.8,1.6,10.2,6.5,11.1,12.5
			C101.3,57.7,98.6,63.8,93.6,66.9z"/>
		<path d="M23.8,27.9c2.8,0,5.6,0,8.4,0c0.5,0,0.9-0.2,1.1-0.5c0.3-0.3,0.5-0.7,0.5-1.2c0-3.4,0-6.7,0-10.1c0-0.9-0.7-1.6-1.6-1.6
			c-2.8,0-5.6,0-8.4,0c-0.9,0-1.6,0.8-1.6,1.6c0,3.4,0,6.7,0,10.1C22.2,27.2,22.9,27.9,23.8,27.9z M25.4,17.8c1.7,0,3.4,0,5.2,0
			c0,2.3,0,4.6,0,6.8c-1.7,0-3.4,0-5.2,0C25.4,22.4,25.4,20.1,25.4,17.8z"/>
		<path d="M60.4,27.9c2.8,0,5.6,0,8.4,0c0.5,0,0.9-0.2,1.1-0.5c0.3-0.3,0.5-0.7,0.5-1.2c0-3.4,0-6.7,0-10.1c0-0.9-0.8-1.6-1.6-1.6
			c-2.8,0-5.6,0-8.4,0c-0.9,0-1.6,0.8-1.6,1.6c0,3.4,0,6.7,0,10.1C58.8,27.2,59.5,27.9,60.4,27.9z M62.1,17.8c1.7,0,3.4,0,5.2,0
			c0,2.3,0,4.6,0,6.8c-1.7,0-3.4,0-5.2,0C62.1,22.4,62.1,20.1,62.1,17.8z"/>
	</g>
</g>
</svg>
