<?xml version="1.0" encoding="utf-8"?>
<!-- Generator: Adobe Illustrator 24.0.2, SVG Export Plug-In . SVG Version: 6.00 Build 0)  -->
<svg version="1.1" id="Capa_1" xmlns="http://www.w3.org/2000/svg" xmlns:xlink="http://www.w3.org/1999/xlink" x="0px" y="0px"
	 viewBox="0 0 103.8 81.2" style="enable-background:new 0 0 103.8 81.2;" xml:space="preserve">
<g>
	<path d="M46.6,21.9h-8.8c-2,0-3.7,1.7-3.7,3.7v30.1c0,2,1.7,3.7,3.7,3.7h8.8c0.5,0,1-0.4,1-1v-5.4c0-0.5-0.4-1-1-1h-5.2V29.2h5.2
		c0.5,0,1-0.4,1-1v-5.4C47.6,22.3,47.1,21.9,46.6,21.9z"/>
	<path d="M66.1,21.9h-8.8c-0.5,0-1,0.4-1,1v5.4c0,0.5,0.4,1,1,1h5.2V52h-5.2c-0.5,0-1,0.4-1,1v5.4c0,0.5,0.4,1,1,1h8.6
		c0.1,0,0.1,0,0.2,0c1.9,0,3.8-1.7,3.7-3.7V25.6C69.7,23.6,68.1,21.9,66.1,21.9z"/>
	<path d="M51.9,0.3c-22.7,0-41.1,18.1-41.1,40.3s18.4,40.3,41.1,40.3S93,62.8,93,40.6S74.6,0.3,51.9,0.3z M51.9,77
		c-20.5,0-37.2-16.3-37.2-36.4S31.4,4.2,51.9,4.2s37.2,16.3,37.2,36.4S72.4,77,51.9,77z"/>
</g>
</svg>
