<?xml version="1.0" encoding="utf-8"?>
<!-- Generator: Adobe Illustrator 24.0.2, SVG Export Plug-In . SVG Version: 6.00 Build 0)  -->
<svg version="1.1" id="Capa_1" xmlns="http://www.w3.org/2000/svg" xmlns:xlink="http://www.w3.org/1999/xlink" x="0px" y="0px"
	 viewBox="0 0 103.8 81.2" style="enable-background:new 0 0 103.8 81.2;" xml:space="preserve">
<title>corporativo</title>
<g>
	<path d="M51.9,0c22.6,0.2,40.6,18,40.6,40.6c0,22.6-18,40.6-40.6,40.6c-22.7,0-40.6-18-40.6-40.6C11.3,18,29.4,0.2,51.9,0z
		 M13.4,40.6c-0.2,21.2,17.1,38.3,37.9,38.5c21.6,0.3,38.8-17.2,39-38.1C90.6,19.6,73.2,2.3,52.1,2.2C30.7,2,13.3,19.5,13.4,40.6z"
		/>
	<path d="M28,34.8c0-0.8,0-1.5,0-2.3c0-2,1.4-3.5,3.4-3.6c1.8-0.1,3.6-0.1,5.4-0.1c0.7,0,0.9-0.2,0.9-0.9c0-1,0-1.9,0-2.9
		c0.1-1.7,1.5-3.3,3.2-3.3c4.1,0,8.3-0.1,12.4,0c1.9,0,3.2,1.6,3.3,3.8c0,0.9,0,1.7,0,2.6c0,0.5,0.2,0.7,0.7,0.7c1.3,0,2.5,0,3.8,0
		c0.8,0,1.6,0.1,2.4,0.2c1.3,0.2,2.6,1.7,2.7,3.1c0.1,1.1,0,2.1,0,3.2c0,0.5-0.2,0.6-0.6,0.6c-2.8-0.2-5.3,0.6-7.7,2.1
		c-0.2,0.2-0.6,0.2-0.9,0.2c-9.4,0-18.8,0-28.2,0c-0.6,0-0.8-0.2-0.8-0.7C28,36.5,28,35.7,28,34.8z M47.1,28.7c1,0,2.1,0,3.1,0
		c2,0,1.6,0.3,1.7-1.7c0-0.7-0.2-0.9-0.9-0.9c-2.4,0-4.8,0-7.2,0c-1.9,0-1.7-0.3-1.7,1.7c0,0.7,0.3,0.9,0.9,0.9
		C44.4,28.7,45.8,28.7,47.1,28.7z"/>
	<path d="M65.1,59.7C59.5,60,54.3,55.1,54.4,49c0.1-5.9,4.9-10.8,11.1-10.6C70.9,38.6,75.7,43,75.8,49C75.8,55.3,70.5,60,65.1,59.7z
		 M63.8,46.6c0,0.9,0,1.9,0,2.8c0,0.6,0.2,0.9,0.8,0.9c1.5,0,3.1,0,4.6,0c0.7,0,0.9-0.6,0.8-1.5c-0.1-0.6-0.2-1.1-1-1.1
		c-0.6,0-1.2,0-1.8,0c-0.6,0-0.8-0.2-0.8-0.8c0-1,0-2,0-3c0-0.7-0.3-1.1-1-1c-0.3,0-0.5,0-0.8,0c-0.6,0-0.8,0.3-0.8,0.8
		C63.8,44.8,63.8,45.7,63.8,46.6z"/>
	<path d="M53,55c-0.3,0-0.6,0-0.8,0c-6.7,0-13.4,0-20.1,0c-2.7,0-4.2-2-4.1-4.1c0.1-3.1,0-6.2,0-9.3c0-0.6,0.2-0.8,0.8-0.8
		c4.2,0,8.3,0,12.5,0c0.6,0,0.9,0.2,0.8,0.8c0,0.8,0,1.6,0,2.4c0,1.1,0.5,1.6,1.6,1.6c2.5,0,4.9,0,7.4,0c1,0,1,0,0.8,1
		c-0.5,2.7-0.2,5.3,0.9,7.9C53,54.6,53,54.7,53,55z"/>
</g>
</svg>
