<?xml version="1.0" encoding="utf-8"?>
<!-- Generator: Adobe Illustrator 24.0.2, SVG Export Plug-In . SVG Version: 6.00 Build 0)  -->
<svg version="1.1" id="Capa_1" xmlns="http://www.w3.org/2000/svg" xmlns:xlink="http://www.w3.org/1999/xlink" x="0px" y="0px"
	 viewBox="0 0 116 103.7" style="enable-background:new 0 0 116 103.7;" xml:space="preserve">
<g>
	<path d="M33.7,17.5c1,0,2,0,3.1,0c1.6,2.8,3.2,5.7,4.8,8.5c2.8,5,5.7,10,8.5,15c0.7,1.2,1.3,2.3,2,3.5c0.3,0.6,0.9,0.9,1.6,0.9
		c1.4,0,2.8,0,4.2,0c0,0,0.1,0,0.1,0c0,0,0.1,0,0.1,0c1.4,0,2.8,0,4.2,0c0.6,0,1.3-0.4,1.6-0.9c1.8-3.1,3.6-6.3,5.4-9.4
		c2.8-5,5.7-10,8.5-15c0.5-0.9,1-1.7,1.4-2.6c0.2,0,0.3,0,0.5,0c0.9,0,1.7,0,2.6,0c1,0,1.8-0.8,1.8-1.8c0-4.3,0-8.7,0-13
		c0-2.4-3.7-2.4-3.7,0c0,3.7,0,7.4,0,11.2c-5.3,0-10.7,0-16,0c-0.9,0-1.7,0-2.6,0c-2.4,0-2.4,3.7,0,3.7c4.4,0,8.8,0,13.1,0
		c-1.3,2.2-2.5,4.4-3.8,6.7c-2.8,5-5.7,10-8.5,15c-0.5,0.9-1,1.7-1.4,2.6c-1,0-2.1,0-3.1,0c0,0-0.1,0-0.1,0c0,0-0.1,0-0.1,0
		c-1,0-2.1,0-3.1,0c-1.6-2.8-3.2-5.7-4.8-8.5c-2.8-5-5.7-10-8.5-15c-0.1-0.2-0.3-0.5-0.4-0.7c1.7,0,3.4,0,5.1,0c2.4,0,2.4-3.7,0-3.7
		c-3.5,0-7.1,0-10.6,0c0-3.7,0-7.4,0-11.2c0-2.4-3.7-2.4-3.7,0c0,4.3,0,8.7,0,13C31.9,16.7,32.7,17.5,33.7,17.5z"/>
	<circle cx="58" cy="84.9" r="4.6"/>
	<path d="M29.9,80c5.1,1.3,10.2,2.6,15.3,3.9c0.7,0.2,1.5,0.4,2.2,0.6c2.3,0.6,3.3-3,1-3.6c-5.1-1.3-10.2-2.6-15.3-3.9
		c-0.7-0.2-1.5-0.4-2.2-0.6C28.5,75.9,27.6,79.4,29.9,80z"/>
	<path d="M36.9,61.6c3.6,4.4,7.3,8.8,10.9,13.2c0.8,1,1.7,2,2.5,3.1c0.6,0.8,2,0.7,2.6,0c0.8-0.8,0.6-1.8,0-2.6
		c-2.3-2.8-4.6-5.5-6.9-8.3c-3.6-4.4-7.3-8.8-10.9-13.2c-0.8-1-1.7-2-2.5-3.1c-0.6-0.8-2-0.7-2.6,0c-0.8,0.8-0.6,1.8,0,2.6
		C32.3,56.1,34.6,58.8,36.9,61.6z"/>
	<path d="M59.8,71.8c0-5.2,0-10.4,0-15.6c0-0.8,0-1.5,0-2.3c0-2.4-3.7-2.4-3.7,0c0,5.2,0,10.4,0,15.6c0,0.8,0,1.5,0,2.3
		C56.1,74.2,59.8,74.2,59.8,71.8z"/>
	<path d="M68,78.7c-2,1.2-0.2,4.4,1.9,3.2c5-3.1,10-6.1,15.1-9.2c0.7-0.4,1.4-0.9,2.1-1.3c2-1.2,0.2-4.4-1.9-3.2
		c-5,3.1-10,6.1-15.1,9.2C69.5,77.8,68.8,78.3,68,78.7z"/>
	<path d="M66,77.5c1.9-3.1,3.8-6.1,5.6-9.2c3-4.9,6-9.8,8.9-14.6c0.7-1.1,1.4-2.3,2.1-3.4c1.2-2-1.9-3.9-3.2-1.9
		c-1.9,3.1-3.8,6.1-5.6,9.2c-3,4.9-6,9.8-8.9,14.6c-0.7,1.1-1.4,2.3-2.1,3.4C61.5,77.6,64.7,79.5,66,77.5z"/>
	<path d="M114.3,83.1c-7.7,0-15.4,0-23.1,0c-1.1,0-2.2,0-3.2,0c-1,0-1.8,0.8-1.8,1.8c0,4.6,0,9.3,0,13.9c-8.1,0-16.3,0-24.4,0
		c-1.2,0-2.4,0-3.6,0c0,0,0,0,0,0c0,0,0,0,0,0c-8.7,0-17.5,0-26.2,0c-0.6,0-1.2,0-1.8,0c0-4.6,0-9.3,0-13.9c0-1-0.8-1.8-1.8-1.8
		c-7.7,0-15.4,0-23.1,0c-1.1,0-2.2,0-3.2,0c-2.4,0-2.4,3.7,0,3.7c7.7,0,15.4,0,23.1,0c0.5,0,0.9,0,1.4,0c0,4.6,0,9.3,0,13.9
		c0,1,0.8,1.8,1.8,1.8c8.7,0,17.5,0,26.2,0c1.2,0,2.4,0,3.6,0c0,0,0,0,0,0c0,0,0,0,0,0c8.7,0,17.5,0,26.2,0c1.2,0,2.4,0,3.6,0
		c1,0,1.8-0.8,1.8-1.8c0-4.6,0-9.3,0-13.9c7.1,0,14.2,0,21.3,0c1.1,0,2.2,0,3.2,0C116.7,86.8,116.7,83.1,114.3,83.1z"/>
</g>
</svg>
