<?xml version="1.0" encoding="utf-8"?>
<!-- Generator: Adobe Illustrator 24.0.2, SVG Export Plug-In . SVG Version: 6.00 Build 0)  -->
<svg version="1.1" id="Capa_1" xmlns="http://www.w3.org/2000/svg" xmlns:xlink="http://www.w3.org/1999/xlink" x="0px" y="0px"
	 viewBox="0 0 150 118" style="enable-background:new 0 0 150 118;" xml:space="preserve">
<g>
	<path d="M134,59c-0.4,32.9-26.2,59-59.1,59c-33,0-59-26.2-59-59.1C16,26,42.3,0,75,0C107.8,0,133.6,26.1,134,59z M74.9,114.9
		c30.8,0.3,55.7-25,56-55.3c0.3-31.2-25-56.4-55.5-56.6C44.2,2.8,19.2,28.2,19,58.6C18.8,89.7,44.2,115.2,74.9,114.9z"/>
	<g>
		<path d="M72.9,56.8c0.1,0.3,0.1,0.4,0.2,0.4c4.6,1.9,5.1,5.8,4.6,10.1c-0.2,1.8,0,3.6,0,5.4c0,1.9-0.7,3.4-2.7,3.4
			c-2,0-2.7-1.5-2.7-3.4c0-2.4-0.1-4.7,0-7.1c0.1-1.8-0.5-2.9-2.1-3.7c-1.7-0.9-3.3-2.1-4.9-3.2c-2.2-1.6-2.3-3.3-0.3-5
			c3.1-2.7,6.2-5.3,9.3-8c1.4-1.2,2.8-1.2,4.2-0.1c0.8,0.7,1.7,1.3,2.5,2c2.1,2.1,4.5,3.3,7.7,2.9c1.8-0.2,3.4,0.6,3.4,2.6
			c0,2.2-1.5,2.8-3.5,2.9c-3.4,0.1-6.7,0.2-9.2-2.7c-0.3-0.4-1.6-0.5-2-0.2C75.7,54.2,74.3,55.5,72.9,56.8z"/>
		<path d="M57.7,59.1c6.3,0,11.4,5.1,11.4,11.3c0,6.2-5.1,11.4-11.3,11.5c-6.2,0-11.3-5.1-11.3-11.4C46.4,64.2,51.4,59.1,57.7,59.1z
			 M57.7,76.3c3.3,0,5.9-2.5,5.9-5.8c0-3.2-2.7-5.9-5.9-5.9c-3.2,0-5.9,2.7-5.9,5.9C51.8,73.8,54.4,76.3,57.7,76.3z"/>
		<path d="M103.6,70.8C103.4,77,98.3,82,92.2,81.9c-6.3-0.1-11.4-5.4-11.3-11.7c0.2-6.4,5.4-11.2,11.9-11.1
			C98.9,59.3,103.7,64.5,103.6,70.8z M92.2,76.3c3.4,0,5.9-2.5,6-5.8c0-3.2-2.6-5.9-5.8-6c-3.2,0-6,2.7-6,5.9
			C86.3,73.7,88.9,76.3,92.2,76.3z"/>
		<path d="M86.3,40.6c-0.2,2.3-2,3.9-4.3,3.8c-2.3-0.1-4-2.1-3.8-4.5c0.2-2.2,2.1-3.9,4.3-3.8C84.7,36.2,86.4,38.2,86.3,40.6z"/>
	</g>
</g>
</svg>
