<?xml version="1.0" encoding="utf-8"?>
<!-- Generator: Adobe Illustrator 24.0.2, SVG Export Plug-In . SVG Version: 6.00 Build 0)  -->
<svg version="1.1" id="Capa_1" xmlns="http://www.w3.org/2000/svg" xmlns:xlink="http://www.w3.org/1999/xlink" x="0px" y="0px"
	 viewBox="0 0 103.8 81.2" style="enable-background:new 0 0 103.8 81.2;" xml:space="preserve">
<title>corporativo</title>
<g>
	<g>
		<path d="M91.1,31.4c-0.2-2.1-0.5-4.3-0.7-6.4c-0.5-4.4-0.9-8.9-1.5-13.4c-0.5-3.9-3.8-7.4-7.5-7.9c-5-0.7-10.2-1.2-15.1-1.7
			c-2.1-0.2-4.2-0.4-6.2-0.7l0,0c-2.7-0.1-5.2,1-7.5,3.3l-11,11c-8.6,8.6-17.1,17.2-25.7,25.8c-4.2,4.2-4.2,9.9,0,14.1
			c7.7,7.7,14.6,14.6,21.1,21.1c2.2,2.2,4.8,3.3,7.3,3.3c2.5,0,4.9-1.1,7.1-3.3c6.6-6.6,13.2-13.1,19.7-19.7
			c5.6-5.6,11.2-11.3,16.9-16.9C90.4,37.6,91.5,34.7,91.1,31.4z M85.7,33c-0.1,0.2-0.2,0.4-0.2,0.6c-0.3,0.7-0.7,1.6-1.3,2.3
			C71.6,48.6,59,61.2,47.2,72.9c-1.9,1.9-4.2,1.9-6,0.1C34,66,26.7,58.7,19.5,51.3c-1.9-1.9-1.8-4.2,0.4-6.3
			c6.7-6.8,13.5-13.5,20.3-20.3l5.1-5.1c1.2-1.2,2.3-2.3,3.5-3.5c2.5-2.4,5-5,7.5-7.5c1.2-1.3,2.5-1.9,4.1-1.9c0.3,0,0.5,0,0.8,0
			c3.1,0.4,6.3,0.7,9.4,1c3.1,0.3,6.3,0.7,9.4,1c2.1,0.2,3.5,1.5,3.7,3.3c0.6,4.7,1.1,9.5,1.6,14.5L85.7,33z"/>
		<path d="M73.7,14.9c-1.1,0-2.1,0.4-2.8,1.1c-0.8,0.8-1.3,1.8-1.3,2.9c0,2.2,1.7,4.1,4,4.2c0,0,0.1,0,0.1,0c1,0,2-0.4,2.8-1.2
			c0.8-0.8,1.2-1.8,1.3-2.8C77.7,16.8,75.9,14.9,73.7,14.9z"/>
	</g>
</g>
</svg>
