<?xml version="1.0" encoding="utf-8"?>
<!-- Generator: Adobe Illustrator 24.0.2, SVG Export Plug-In . SVG Version: 6.00 Build 0)  -->
<svg version="1.1" id="Capa_1" xmlns="http://www.w3.org/2000/svg" xmlns:xlink="http://www.w3.org/1999/xlink" x="0px" y="0px"
	 viewBox="0 0 103.8 81.2" style="enable-background:new 0 0 103.8 81.2;" xml:space="preserve">
<path d="M89.2,18.3c-0.1,0-0.2,0-0.3,0c-8.3,0-16.5,0-24.8,0c-3.2,0-5.1,1.9-5.1,5c0,2.3,0,4.6,0,6.9c0,0.2-0.2,0.4-0.4,0.4h-15
	c-0.2,0-0.4-0.2-0.4-0.4v-0.5c0-1.6,0-3.3,0-4.9c0-1.3-0.6-1.9-1.9-1.9c-0.3,0-0.5,0-0.8,0c-0.2,0-0.4-0.2-0.4-0.4v-2.4
	c0-0.6,0-1.3,0-1.9c0-1.1-0.6-1.7-1.7-1.7c-0.3,0-0.6,0-1,0c-0.2,0-0.4-0.2-0.4-0.4v-2.6c0-0.5,0-1,0-1.5c0-1.1-0.6-1.7-1.7-1.7
	c-0.3,0-0.6,0-1,0c-0.2,0-0.4-0.2-0.4-0.4V9.5c0-2.1,0-4.2,0-6.3c0-0.9-0.2-1.6-1-2C32.9,1,32.9,1,32.8,1h-10c-0.1,0-0.1,0-0.2,0.1
	c-0.8,0.5-1,1.1-1,2c0,2.2,0,4.5,0,6.8c0,0.2-0.2,0.4-0.4,0.4c-0.3,0-0.7,0-1,0c-1.1,0-1.7,0.6-1.7,1.7c0,1.3,0,2.7,0,4.1
	c0,0.2-0.2,0.4-0.4,0.4c-0.3,0-0.5,0-0.8,0c-1.4,0-1.9,0.5-1.9,1.9c0,1.4,0,2.7,0,4.2c0,0.2-0.2,0.4-0.4,0.4c-1,0-2.1-0.1-2.7,1
	c0,0.1,0,0.1,0,0.2v45.6c0,0.1,0,0.1,0.1,0.2c0.5,0.8,1.1,1,2,1c2.4,0,4.7,0,7.1,0H22c0.2,0,0.4,0.2,0.4,0.4v3.1c0,1.2,0,2.4,0,3.6
	v0c0,1.1,0.9,2,2,2h8.3c1.1,0,2.1-0.9,2.1-2.1v0c0-2.2,0-4.4,0-6.7c0-0.2,0.2-0.4,0.4-0.4h0.5c12.6,0,25.3,0,37.9,0
	c1.7,0,2.2-0.4,2.2-2.2V59c0-0.2,0.2-0.4,0.4-0.4h0.5c4.3,0,8.6,0,12.9,0h0c1.1,0,1.9-0.9,1.9-2V20.6C91.5,19.3,90.5,18.3,89.2,18.3
	z M62.2,26.7c0-0.3,0.4-0.5,0.6-0.3c1.8,1.2,3.5,2.4,5.3,3.6c0.3,0.2,0.2,0.7-0.2,0.7h-5.3c-0.2,0-0.4-0.2-0.4-0.4V26.7z M24.8,4.6
	c0-0.2,0.2-0.4,0.4-0.4h5.3c0.2,0,0.4,0.2,0.4,0.4v5.3c0,0.2-0.2,0.4-0.4,0.4h-5.3c-0.2,0-0.4-0.2-0.4-0.4V4.6z M21.7,13.8
	c0-0.2,0.2-0.4,0.4-0.4h11.5c0.2,0,0.4,0.2,0.4,0.4V16c0,0.2-0.2,0.4-0.4,0.4H22.1c-0.2,0-0.4-0.2-0.4-0.4V13.8z M18.6,20
	c0-0.2,0.2-0.4,0.4-0.4h17.7c0.2,0,0.4,0.2,0.4,0.4v2.5c0,0.2-0.2,0.4-0.4,0.4H18.9c-0.2,0-0.4-0.2-0.4-0.4V20z M15.5,26.5
	c0-0.2,0.2-0.4,0.4-0.4h23.9c0.2,0,0.4,0.2,0.4,0.4v3.8c0,0.2-0.2,0.4-0.4,0.4H15.9c-0.2,0-0.4-0.2-0.4-0.4V26.5z M31.6,76.7
	c0,0.2-0.2,0.4-0.4,0.4h-5.3c-0.2,0-0.4-0.2-0.4-0.4v-5.3c0-0.2,0.2-0.4,0.4-0.4h5.3c0.2,0,0.4,0.2,0.4,0.4V76.7z M72.6,67.4
	c0,0.2-0.2,0.4-0.4,0.4H15.9c-0.2,0-0.4-0.2-0.4-0.4v-2.6h0V34.3c0-0.2,0.2-0.4,0.4-0.4h56.4c0.2,0,0.4,0.2,0.4,0.4V67.4z M88.4,55
	c0,0.2-0.2,0.4-0.4,0.4H76.2c-0.2,0-0.4-0.2-0.4-0.4v-2.2c0-0.2,0.2-0.4,0.4-0.4H88c0.2,0,0.4,0.2,0.4,0.4V55z M88.4,24.1
	C88.4,24.2,88.4,24.2,88.4,24.1l0,7.8v16.9c0,0.2-0.2,0.4-0.4,0.4H76.1c-0.2,0-0.4-0.2-0.4-0.4v-0.4c0-5.3,0-10.5,0-15.8
	c0-0.9-0.3-1.5-1-1.9c-0.5-0.3-1-0.6-1.5-1l-8.8-6l0,0c-0.6-0.4-1.2-0.8-1.8-1.2c-0.2-0.1-0.2-0.4-0.1-0.6c0.3-0.4,0.8-0.5,1.4-0.5
	c3,0,6,0,9,0H88c0.2,0,0.4,0.2,0.4,0.4V24.1z"/>
</svg>
