<?xml version="1.0" encoding="utf-8"?>
<!-- Generator: Adobe Illustrator 24.0.2, SVG Export Plug-In . SVG Version: 6.00 Build 0)  -->
<svg version="1.1" id="Capa_1" xmlns="http://www.w3.org/2000/svg" xmlns:xlink="http://www.w3.org/1999/xlink" x="0px" y="0px"
	 viewBox="0 0 150 118" style="enable-background:new 0 0 150 118;" xml:space="preserve">
<g>
	<path d="M75,0c32.8,0.4,59,26.2,59,59.1c0,33-26.2,59-59,59c-32.9,0-58.9-26.1-59-59C16,26.2,42.1,0.3,75,0z M130.9,59.1
		c0.2-30.7-24.9-55.6-55.2-56C44.3,2.7,19.3,28.2,19,58.5c-0.3,31.2,25.1,56.4,55.7,56.5C105.7,115.2,131.2,89.8,130.9,59.1z"/>
	<path d="M71.3,86.8c-0.8,0-1.4,0-2.1,0c-8,0-15.9,0-23.9,0.1c-0.9,0-1.5-0.5-1.6-1.4c-0.1-1.2-0.1-2.5,0-3.7c0-1,0.7-1.6,2-1.6
		c1.1,0.1,1.4-0.3,1.4-1.4c0-13.1,0-26.3,0-39.4c0-1-0.3-1.5-1.4-1.4c-1.6,0.1-2-0.4-2-2.1c0-0.9,0-1.9,0-2.8c0-1.2,0.5-1.6,1.6-1.7
		c0.3,0,0.7,0,1,0c19,0,38,0,57.1,0c0.4,0,0.7,0,1.1,0c1,0,1.6,0.5,1.6,1.6c0,1,0,2.1,0,3.1c0,1.4-0.4,1.8-1.8,1.8
		c-1.6,0.1-1.7,0.1-1.7,1.7c0,12.9,0,25.8,0,38.7c0,1.6,0,1.6,1.6,1.7c1.3,0.1,1.8,0.7,1.8,1.9c0,1,0,2.1,0,3.1
		c0,1.1-0.6,1.7-1.7,1.7c-8.2,0-16.5-0.1-24.7,0c-0.9,0-1.1-0.2-1.1-1c0-2.3,0-4.7,0-7c0-1.7-0.6-2.3-2.4-2.4c-1,0-1.9,0-2.9,0
		c-1.3,0-2,0.7-2.1,2.1c0,2.3,0,4.6,0,6.9C71.3,85.8,71.3,86.2,71.3,86.8z M75,73.3C75,73.3,75,73.3,75,73.3c3,0,6.1,0,9.1,0
		c1.4,0,1.7-0.3,1.4-1.7c-0.3-1.3-0.6-2.6-1.2-3.8C82,64,78.6,62.3,74,62.5c-4.5,0.2-9.3,4.5-9.6,9c-0.1,1.6,0,1.8,1.7,1.8
		C69.1,73.3,72,73.3,75,73.3z M61.1,41.5c-0.6,0-1.1,0-1.7,0c-1.4,0-2,0.5-2.1,1.9c-0.1,1.2-0.1,2.5,0,3.7c0.1,1.1,0.7,1.7,1.8,1.7
		c1.2,0,2.4,0,3.7,0c1.2,0,1.9-0.7,1.9-1.9c0-0.9,0-1.8,0-2.7c0-2.3-0.4-2.7-2.7-2.7C61.8,41.5,61.4,41.5,61.1,41.5z M88.9,48.8
		c0.6,0,1.3,0,1.9,0c1.1-0.1,1.8-0.7,1.9-1.8c0.1-1.3,0.1-2.5,0-3.8c-0.1-1.1-0.7-1.7-1.8-1.7c-1.3,0-2.6,0-3.9,0
		c-0.9,0-1.5,0.5-1.6,1.4c-0.1,0.8-0.1,1.6-0.1,2.3C85.3,48.7,85.4,48.8,88.9,48.8z M64.8,55.7c0-0.6,0-1.2,0-1.8
		c-0.1-1.3-0.7-1.9-2-1.9c-1.2,0-2.4,0-3.6,0c-1.2,0-1.8,0.5-1.9,1.7c-0.1,1.2-0.1,2.5,0,3.7c0.1,1.2,0.7,1.8,1.8,1.9
		c0.7,0.1,1.3,0,2,0C64.6,59.3,64.8,59.1,64.8,55.7z M89,52c-0.6,0-1.3,0-1.9,0c-1.1,0-1.7,0.6-1.8,1.6c-0.1,1.3-0.1,2.7,0,4
		c0.1,1,0.7,1.6,1.7,1.6c1.3,0.1,2.7,0.1,4,0c1.1-0.1,1.7-0.8,1.7-1.9c0-1.2,0.1-2.4,0-3.6c-0.1-1.2-0.7-1.8-1.9-1.8
		C90.2,52,89.6,52,89,52z M71.3,45.1c0,0.6,0,1.2,0,1.8c0,1.2,0.6,1.9,1.8,1.9c1.3,0,2.5,0,3.8,0c1,0,1.7-0.7,1.7-1.7
		c0-1.3,0.1-2.7,0-4c0-1-0.6-1.6-1.6-1.6c-0.7,0-1.4,0-2.1,0C71.3,41.5,71.3,41.5,71.3,45.1z M75.1,52c-0.6,0-1.3,0-1.9,0
		c-1.3,0-1.8,0.6-1.8,1.9c0,1.2,0,2.4,0,3.6c0,1.1,0.6,1.8,1.7,1.8c1.3,0.1,2.6,0.1,3.9,0c1.2-0.1,1.7-0.7,1.7-1.9
		c0-1.2,0-2.4,0-3.6c0-1.2-0.6-1.7-1.8-1.8C76.3,52,75.7,52,75.1,52z"/>
</g>
</svg>
