<?xml version="1.0" encoding="utf-8"?>
<!-- Generator: Adobe Illustrator 24.0.2, SVG Export Plug-In . SVG Version: 6.00 Build 0)  -->
<svg version="1.1" id="Capa_1" xmlns="http://www.w3.org/2000/svg" xmlns:xlink="http://www.w3.org/1999/xlink" x="0px" y="0px"
	 viewBox="0 0 605.4 65.4" style="enable-background:new 0 0 605.4 65.4;" xml:space="preserve">
<style type="text/css">
	.st0{fill:#FFFFFF;}
	.st1{fill:#E02428;}
</style>
<title>corporativo</title>
<rect x="164.2" class="st0" width="441.2" height="65.4"/>
<g>
	<path class="st0" d="M46.4,45h5.1l-0.7,20.4H-0.1v-4.9h2.6c0.5,0,0.9-0.1,1.3-0.2c0.4-0.1,0.7-0.4,1-0.8c0.3-0.4,0.5-1,0.7-1.8
		c0.2-0.8,0.2-1.8,0.2-3.1V10.8c0-1.3-0.1-2.4-0.2-3.1C5.4,6.9,5.1,6.3,4.8,5.9c-0.3-0.4-0.6-0.7-1-0.8C3.5,5,3,4.9,2.6,4.9h-2.6
		V0.1h28.9v4.8H25c-0.6,0-1.2,0.1-1.8,0.2c-0.6,0.1-1.1,0.4-1.5,0.8c-0.4,0.4-0.7,1-1,1.7c-0.3,0.7-0.4,1.7-0.4,2.9v49.4h17
		c2.1,0,3.8-0.7,5-2c1.2-1.3,2.1-3.3,2.6-5.9L46.4,45z"/>
	<path class="st0" d="M57.1,0.1h31.6v4.9h-3.8c-0.7,0-1.3,0.1-1.9,0.2c-0.6,0.1-1.1,0.4-1.5,0.8c-0.4,0.4-0.7,1-1,1.8
		c-0.2,0.8-0.4,1.8-0.4,3.1v43.7c0,1.3,0.1,2.3,0.4,3.1c0.2,0.8,0.6,1.4,1,1.8c0.4,0.4,0.9,0.7,1.5,0.8c0.6,0.1,1.2,0.2,1.9,0.2h3.8
		v4.9H57.1v-4.9h3.8c0.7,0,1.3-0.1,1.9-0.2c0.6-0.1,1.1-0.4,1.5-0.8c0.4-0.4,0.8-1,1-1.8c0.2-0.8,0.4-1.8,0.4-3.1V10.9
		c0-1.3-0.1-2.4-0.4-3.1C65,7,64.7,6.4,64.3,6c-0.4-0.4-0.9-0.7-1.5-0.8c-0.6-0.1-1.2-0.2-1.9-0.2h-3.8V0.1z"/>
	<path class="st0" d="M140.3,46.3c0,2.9-0.6,5.7-1.8,8.1c-1.2,2.4-2.8,4.6-5,6.3c-2.2,1.8-4.8,3.1-7.9,4.1c-0.7,0.2-1.4,0.4-2.1,0.6
		h-17.4c-0.4-0.1-0.7-0.2-1.1-0.3c-2.7-0.8-4.9-1.8-6.6-3c-1.7-1.2-2.8-2.6-3.5-4.1c-0.7-1.5-1.1-3-1.1-4.5c0-1.6,0.3-2.9,0.9-4
		c0.6-1.1,1.3-1.9,2.3-2.6c1-0.7,2.1-1.2,3.3-1.5c1.2-0.3,2.5-0.5,3.9-0.5c0,2.6,0.3,4.9,0.9,6.9c0.6,2,1.5,3.6,2.6,5
		c1.1,1.3,2.4,2.3,4,3c1.5,0.7,3.2,1,5,1c1.8,0,3.4-0.3,4.8-0.8c1.4-0.5,2.6-1.2,3.6-2.1c1-0.9,1.7-2,2.3-3.2
		c0.5-1.2,0.8-2.5,0.8-3.9c0-1.5-0.3-2.9-0.9-4.1c-0.6-1.2-1.6-2.3-2.8-3.3c-1.3-1-2.8-2-4.8-3c-1.9-0.9-4.2-1.9-6.7-3
		c-3.2-1.3-5.9-2.6-8.1-4c-2.2-1.4-3.9-2.9-5.3-4.5c-1.4-1.6-2.3-3.3-2.9-5.2c-0.6-1.9-0.9-3.9-0.9-6.2c0-2.8,0.6-5.3,1.7-7.6
		c1.1-2.3,2.7-4.2,4.7-5.8c2-1.6,4.4-2.8,7.1-3.7c0.4-0.1,0.8-0.2,1.3-0.4h16.9c2.2,0.5,4.1,1.3,5.5,2.1c1.6,1,2.8,2.1,3.6,3.4
		c0.8,1.3,1.1,2.7,1.1,4.2c0,1.1-0.2,2.1-0.7,3c-0.5,0.9-1.1,1.7-2.1,2.4c-0.9,0.7-2.1,1.2-3.5,1.6c-1.4,0.4-3.1,0.6-4.9,0.6
		c0-1.3-0.2-2.7-0.5-4.1c-0.4-1.5-0.9-2.8-1.7-4.1c-0.8-1.3-1.8-2.3-3-3.2c-1.2-0.8-2.7-1.3-4.5-1.3c-1.2,0-2.4,0.2-3.5,0.5
		c-1.1,0.4-2.1,0.9-2.9,1.6c-0.8,0.7-1.5,1.6-1.9,2.7c-0.5,1.1-0.7,2.3-0.7,3.6c0,1.3,0.2,2.5,0.6,3.6c0.4,1.1,1.2,2.3,2.3,3.3
		c1.1,1.1,2.7,2.2,4.6,3.3c2,1.1,4.5,2.3,7.6,3.5c3.1,1.3,5.8,2.6,8,3.9c2.2,1.3,4,2.8,5.4,4.3c1.4,1.5,2.4,3.2,3.1,5.1
		C140,42,140.3,44,140.3,46.3z"/>
	<path class="st1" d="M208.8,5.7c1.9,0,3.4,0.5,4.6,1.6c1.2,1.1,1.9,2.8,2.2,5.2l0.4,4.4h6.4l-0.4-16.9h-50.7v4.8h3.8
		c0.7,0,1.3,0.1,1.8,0.2c0.6,0.1,1.1,0.4,1.5,0.8c0.4,0.4,0.8,0.9,1,1.7c0.2,0.7,0.4,1.7,0.4,2.9v44.6c0,1.2-0.1,2.2-0.4,2.9
		c-0.2,0.7-0.6,1.3-1,1.7c-0.4,0.4-0.9,0.6-1.5,0.7c-0.6,0.1-1.2,0.2-1.8,0.2h-3.8v4.9h33.4v-4.9H199c-0.7,0-1.3-0.1-1.9-0.2
		c-0.6-0.1-1.1-0.4-1.5-0.8c-0.4-0.4-0.8-1-1-1.8c-0.3-0.8-0.4-1.8-0.4-3.1V36.1h21.7v-5.4h-21.7v-25H208.8z"/>
	<path class="st1" d="M284.3,60.2c-0.7-0.2-1.3-0.6-1.9-1.1c-0.6-0.5-1.1-1.2-1.6-2c-0.5-0.8-1-1.9-1.4-3.2L260.3,0.1h-12.6
		l-19.8,53.8c-0.5,1.4-1.1,2.5-1.6,3.4c-0.5,0.9-1.1,1.5-1.7,2c-0.6,0.5-1.2,0.8-1.9,1c-0.7,0.2-1.4,0.3-2.2,0.3h-1.1v4.9h23.8v-4.9
		h-3.8c-0.5,0-1.1-0.1-1.5-0.2c-0.5-0.1-0.9-0.4-1.3-0.6c-0.4-0.3-0.7-0.6-0.9-1.1c-0.2-0.4-0.4-1-0.4-1.6c0-0.7,0.1-1.6,0.4-2.6
		c0.3-1,0.5-1.9,0.7-2.6l2.6-7.9h22.3l3.2,9.2c0.2,0.5,0.4,1.1,0.5,1.8c0.2,0.7,0.3,1.4,0.3,2.1c0,0.6-0.1,1.2-0.4,1.6
		c-0.2,0.4-0.5,0.8-0.9,1.1c-0.4,0.3-0.8,0.5-1.3,0.6c-0.5,0.1-0.9,0.2-1.4,0.2h-3.6v4.9h30.2v-4.9h-1.7
		C285.7,60.5,285,60.4,284.3,60.2z M241,38.3l5.4-15.5c0.4-1.1,0.7-2.2,1.1-3.4c0.4-1.2,0.8-2.3,1.2-3.5c0.4-1.2,0.8-2.3,1.1-3.4
		c0.4-1.1,0.7-2.1,0.9-3c0.2,1.1,0.5,2.2,0.8,3.4c0.3,1.2,0.6,2.4,1,3.6c0.3,1.2,0.7,2.4,1,3.5c0.3,1.1,0.7,2.2,1,3.3l4.8,15H241z"
		/>
	<path class="st1" d="M333.1,35.1c-1.4-1.5-3.2-3-5.4-4.3c-2.2-1.3-4.9-2.7-8-3.9c-3.1-1.3-5.6-2.4-7.6-3.5c-2-1.1-3.5-2.2-4.6-3.3
		c-1.1-1.1-1.9-2.2-2.3-3.3c-0.4-1.1-0.6-2.3-0.6-3.6c0-1.4,0.2-2.6,0.7-3.6c0.5-1.1,1.1-1.9,1.9-2.7c0.8-0.7,1.8-1.3,2.9-1.6
		c1.1-0.4,2.3-0.5,3.5-0.5c1.8,0,3.3,0.4,4.5,1.3c1.2,0.8,2.2,1.9,3,3.2c0.8,1.3,1.3,2.6,1.7,4.1c0.3,1.5,0.5,2.9,0.5,4.1
		c1.9,0,3.5-0.2,4.9-0.6c1.4-0.4,2.6-0.9,3.5-1.6c0.9-0.7,1.6-1.5,2.1-2.4c0.5-0.9,0.7-1.9,0.7-3c0-1.5-0.4-2.9-1.2-4.2
		s-2-2.4-3.6-3.4c-1.6-1-3.6-1.7-6.1-2.3c-2.4-0.6-5.3-0.8-8.7-0.8c-3.2,0-6.2,0.4-8.9,1.3c-2.7,0.9-5.1,2.1-7.1,3.7
		c-2,1.6-3.6,3.5-4.7,5.8c-1.1,2.3-1.7,4.8-1.7,7.6c0,2.2,0.3,4.3,0.9,6.2c0.6,1.9,1.5,3.6,2.9,5.2c1.3,1.6,3.1,3.1,5.3,4.5
		c2.2,1.4,4.9,2.7,8.1,4c2.6,1.1,4.8,2.1,6.7,3c1.9,0.9,3.5,1.9,4.8,3c1.3,1,2.2,2.1,2.8,3.4c0.6,1.2,0.9,2.6,0.9,4.1
		c0,1.4-0.3,2.7-0.8,3.9c-0.5,1.2-1.3,2.3-2.2,3.2c-1,0.9-2.2,1.6-3.6,2.1c-1.4,0.5-3,0.8-4.8,0.8c-1.8,0-3.5-0.3-5-1
		c-1.5-0.7-2.9-1.7-4-3c-1.1-1.3-2-3-2.6-5c-0.6-2-0.9-4.3-0.9-6.9c-1.3,0-2.6,0.1-3.9,0.4c-1.2,0.3-2.3,0.8-3.3,1.5
		c-1,0.7-1.7,1.6-2.3,2.6c-0.6,1.1-0.9,2.4-0.9,4c0,1.5,0.3,3,1.1,4.5c0.7,1.5,1.9,2.9,3.5,4.1c1.7,1.2,3.9,2.2,6.6,3
		c2.7,0.8,6.2,1.2,10.3,1.2c3.8,0,7.2-0.5,10.3-1.5c3.1-1,5.7-2.4,7.8-4.1c2.2-1.8,3.8-3.9,5-6.3c1.2-2.5,1.7-5.2,1.7-8.1
		c0-2.2-0.3-4.3-1-6.1C335.5,38.4,334.5,36.7,333.1,35.1z"/>
	<path class="st1" d="M382.5,4.9h3.9c0.7,0,1.3,0.1,1.8,0.2c0.6,0.1,1.1,0.4,1.5,0.8c0.4,0.4,0.8,1,1,1.8c0.2,0.8,0.4,1.8,0.4,3.1
		v17.7h-23.9V10.9c0-1.3,0.1-2.4,0.4-3.1c0.3-0.8,0.6-1.4,1-1.8c0.4-0.4,0.9-0.7,1.5-0.8c0.6-0.1,1.2-0.2,1.8-0.2h3.9V0.1h-31.6v4.9
		h3.8c0.6,0,1.2,0.1,1.8,0.2c0.6,0.1,1.1,0.4,1.5,0.8c0.4,0.4,0.8,0.9,1,1.7c0.3,0.7,0.4,1.7,0.4,2.9v44.1c0,1.3-0.1,2.4-0.4,3.1
		c-0.2,0.8-0.6,1.4-1,1.8c-0.4,0.4-0.9,0.7-1.5,0.8c-0.6,0.1-1.2,0.2-1.8,0.2h-3.8v4.9h31.6v-4.9h-3.9c-0.7,0-1.3-0.1-1.8-0.2
		c-0.6-0.1-1.1-0.4-1.5-0.8c-0.4-0.4-0.8-1-1-1.8c-0.3-0.8-0.4-1.8-0.4-3.1V34.1h23.9v20.5c0,1.3-0.1,2.4-0.4,3.1
		c-0.2,0.8-0.6,1.4-1,1.8c-0.4,0.4-0.9,0.7-1.5,0.8c-0.6,0.1-1.2,0.2-1.8,0.2h-3.9v4.9h31.6v-4.9h-3.8c-0.6,0-1.2-0.1-1.8-0.2
		c-0.6-0.1-1-0.4-1.5-0.7c-0.4-0.4-0.8-0.9-1-1.7c-0.3-0.7-0.4-1.7-0.4-2.9V10.9c0-1.3,0.1-2.4,0.4-3.1c0.2-0.8,0.6-1.4,1-1.8
		c0.4-0.4,0.9-0.7,1.5-0.8c0.6-0.1,1.2-0.2,1.8-0.2h3.8V0.1h-31.6V4.9z"/>
	<path class="st1" d="M419.2,4.9h3.8c0.7,0,1.3,0.1,1.9,0.2c0.6,0.1,1.1,0.4,1.5,0.8c0.4,0.4,0.7,1,1,1.8c0.2,0.8,0.4,1.8,0.4,3.1
		v43.7c0,1.3-0.1,2.4-0.4,3.1c-0.2,0.8-0.6,1.4-1,1.8c-0.4,0.4-0.9,0.7-1.5,0.8c-0.6,0.1-1.2,0.2-1.9,0.2h-3.8v4.9h31.6v-4.9H447
		c-0.7,0-1.3-0.1-1.9-0.2s-1.1-0.4-1.5-0.8c-0.4-0.4-0.7-1-1-1.8c-0.2-0.8-0.4-1.8-0.4-3.1V10.9c0-1.3,0.1-2.4,0.4-3.1
		c0.2-0.8,0.6-1.4,1-1.8c0.4-0.4,0.9-0.7,1.5-0.8c0.6-0.1,1.2-0.2,1.9-0.2h3.8V0.1h-31.6V4.9z"/>
	<path class="st1" d="M512.4,8.2c-2.6-2.9-5.8-5.2-9.7-6.8c-3.8-1.6-8.2-2.4-13.2-2.4c-5.2,0-9.8,0.8-13.7,2.4
		c-3.9,1.6-7.1,3.9-9.7,6.8c-2.6,2.9-4.5,6.4-5.8,10.6c-1.3,4.1-1.9,8.7-1.9,13.8c0,5.1,0.6,9.7,1.9,13.8c1.3,4.2,3.2,7.7,5.8,10.7
		c2.6,3,5.8,5.2,9.7,6.8c3.9,1.6,8.4,2.4,13.7,2.4c5,0,9.4-0.8,13.2-2.4c3.8-1.6,7.1-3.9,9.7-6.8c2.6-2.9,4.6-6.5,6-10.6
		c1.4-4.1,2-8.7,2-13.8c0-5.1-0.7-9.7-2-13.8C517,14.7,515,11.2,512.4,8.2z M504.2,44.4c-0.6,3.4-1.4,6.3-2.7,8.7
		c-1.2,2.4-2.8,4.2-4.8,5.4c-2,1.3-4.4,1.9-7.3,1.9c-2.8,0-5.2-0.6-7.2-1.9c-2-1.3-3.6-3.1-4.9-5.4c-1.3-2.4-2.2-5.3-2.7-8.7
		c-0.6-3.4-0.8-7.3-0.8-11.7c0-4.4,0.3-8.3,0.8-11.7c0.6-3.4,1.5-6.3,2.7-8.7c1.3-2.4,2.9-4.2,4.9-5.4c2-1.2,4.4-1.9,7.3-1.9
		c2.8,0,5.2,0.6,7.2,1.9c2,1.2,3.6,3,4.8,5.4c1.2,2.4,2.1,5.3,2.7,8.7c0.6,3.4,0.8,7.3,0.8,11.7C505,37,504.7,40.9,504.2,44.4z"/>
	<path class="st1" d="M572.1,4.9h3.8c0.6,0,1.2,0.1,1.8,0.2c0.6,0.1,1.1,0.4,1.5,0.8c0.4,0.4,0.8,0.9,1,1.7c0.3,0.7,0.4,1.7,0.4,2.9
		v35.3L548.3,0.1H528v4.8h3.8c0.6,0,1.2,0.1,1.8,0.2c0.6,0.1,1.1,0.4,1.5,0.8c0.4,0.4,0.8,0.9,1,1.7c0.3,0.7,0.4,1.7,0.4,2.9v44.1
		c0,1.3-0.1,2.4-0.4,3.1c-0.2,0.8-0.6,1.4-1,1.8c-0.4,0.4-0.9,0.7-1.5,0.8s-1.2,0.2-1.8,0.2H528v4.9h23.9v-4.9H548
		c-0.6,0-1.2-0.1-1.8-0.2c-0.6-0.1-1.1-0.4-1.5-0.8c-0.4-0.4-0.8-1-1-1.8c-0.3-0.8-0.4-1.8-0.4-3.1V15l35.7,50.4h8.4V10.8
		c0-1.3,0.1-2.4,0.4-3.1c0.2-0.8,0.6-1.4,1-1.8c0.4-0.4,0.9-0.7,1.5-0.8c0.6-0.1,1.2-0.2,1.8-0.2h3.8V0.1h-23.9V4.9z"/>
</g>
</svg>
