<?xml version="1.0" encoding="utf-8"?>
<!-- Generator: Adobe Illustrator 24.0.2, SVG Export Plug-In . SVG Version: 6.00 Build 0)  -->
<svg version="1.1" id="Capa_1" xmlns="http://www.w3.org/2000/svg" xmlns:xlink="http://www.w3.org/1999/xlink" x="0px" y="0px"
	 viewBox="0 0 150 118" style="enable-background:new 0 0 150 118;" xml:space="preserve">
<style type="text/css">
	.st0{fill:#E02428;}
</style>
<g>
	<g>
		<path class="st0" d="M130.1,63c-2.2-8.6-9.6-14-16.1-15.9c-11.4-3.2-25.1,3-32.7,15.9c-0.1-1.7-0.1-4.2,0.9-7
			c1.7-4.9,4.7-5.8,7.7-10.5c3.9-6,3.8-12.4,3.8-14.3c0-1.7-0.3-7.4-3.7-13.1c-2.3-3.8-4.1-4.5-10.4-12c-2-2.3-3.5-4.2-4.5-5.5
			c-1,1.3-2.5,3.2-4.5,5.5c-6.4,7.5-8.2,8.1-10.4,12c-3.4,5.8-3.7,11.5-3.7,13.1c0,1.9-0.1,8.3,3.8,14.3c3,4.6,6,5.5,7.7,10.5
			c1,2.8,1,5.4,0.9,7C61,50,47.4,43.8,36,47.1c-6.6,1.9-14,7.3-16.1,15.9c-2.4,9.7,2.6,20.4,10.1,24.1c4,2,8.3,1.8,8.6,1.8
			c4.4-0.2,7.6-2,9-3c-3.8-3.4-4.7-8.8-2.4-12.6c2.5-4.1,7.8-4.7,11.2-3.9c7.7,2,8.9,12.4,9,13.5c0.1,0.4,1,9.4-3.5,11.7
			c-2,1-4.3,0.2-4.5,0.2c-2.9-1-3.8-4-4-4.3c-0.9,0.8-3.2,3.1-3.4,6.4c-0.3,5.2,4.5,9.5,8.6,10.4c5.8,1.3,13.3-3.3,16.1-12.1
			L73.2,19c0-1,0.8-1.8,1.8-1.8c1,0,1.8,0.8,1.8,1.8l-1.6,76.2c2.9,8.8,10.3,13.4,16.1,12.1c4.1-0.9,8.9-5.3,8.6-10.4
			c-0.2-3.3-2.5-5.6-3.4-6.4c-0.1,0.4-1.1,3.3-4,4.3c-0.2,0.1-2.5,0.9-4.5-0.2c-4.5-2.2-3.5-11.2-3.5-11.7c0.1-1.1,1.4-11.5,9-13.5
			c3.4-0.9,8.7-0.2,11.2,3.9c2.3,3.8,1.4,9.1-2.4,12.6c1.4,0.9,4.6,2.7,9,3c0.3,0,4.7,0.2,8.6-1.8C127.6,83.4,132.6,72.7,130.1,63z"
			/>
		<path class="st0" d="M75.6,22.1c0.2-0.2,0.3-0.5,0.3-0.7l0.1-1.6l0-0.2c0-0.3-0.1-0.6-0.3-0.9c-0.4-0.5-1-0.5-1.4,0
			c-0.2,0.3-0.3,0.6-0.3,1l0,0.1l0.1,1.6l0,0.2c0,0.2,0.1,0.4,0.2,0.6C74.7,22.6,75.3,22.6,75.6,22.1z"/>
		<polygon class="st0" points="68.3,109.7 75,117.5 81.7,109.7 75,101.9 		"/>
	</g>
</g>
</svg>
