<?xml version="1.0" encoding="utf-8"?>
<!-- Generator: Adobe Illustrator 24.0.2, SVG Export Plug-In . SVG Version: 6.00 Build 0)  -->
<svg version="1.1" id="Capa_1" xmlns="http://www.w3.org/2000/svg" xmlns:xlink="http://www.w3.org/1999/xlink" x="0px" y="0px"
	 viewBox="0 0 103.8 81.2" style="enable-background:new 0 0 103.8 81.2;" xml:space="preserve">
<title>corporativo</title>
<g id="ICONO_24_">
	<g>
		<path d="M92,34.9c0-4.8,0-9.5,0-14.3c-0.3,0-0.6,0-0.9,0c-1.5,0-3.1,0-4.6,0c-0.4,0-0.6-0.1-0.8-0.6c-1.3-3.7-3.8-6.2-7.5-7.5
			c-0.4-0.1-0.5-0.3-0.5-0.7c0-1.6,0-3.3,0-4.9c0-0.5-0.1-0.7-0.7-0.7c-1.5,0-3,0-4.5,0c-0.5,0-0.6,0.2-0.6,0.7c0,1.5,0,3,0,4.5
			c0,0.5-0.1,0.6-0.6,0.6c-1.5,0-2.9,0-4.4,0c-0.5,0-0.7-0.2-0.7-0.7c0-3.3,0-6.7,0-10c0-0.2,0-0.5,0-0.7c-1.9,0-3.8,0-5.7,0
			c0,3.8,0,7.6,0,11.4c-0.2,0-0.3,0-0.4,0c-7.3,0-14.6,0-21.9,0c-0.4,0-0.6-0.1-0.6-0.6c0-1.5,0-3,0-4.5c0-0.5-0.2-0.6-0.6-0.6
			c-1.5,0-3,0-4.5,0c-0.5,0-0.6,0.2-0.6,0.6c0,1.4,0,2.9,0,4.3c0,0.2,0,0.5,0,0.8c-0.4,0-0.8,0-1.1,0c-2.5,0-4.9,0-7.4,0
			c-1,0-2.1,0.2-3,0.5c-3.7,1.4-5.9,4.6-5.6,8.5c0.2,2.9,0.6,5.7,1,8.6c0.7,4.5,1.5,9,2.2,13.4c0.1,0.4,0.3,0.5,0.6,0.5
			c1.4,0,2.7,0,4.1,0c0.2,0,0.4,0,0.7,0.1c0,0.9,0,1.8,0,2.8c1.9,0,3.8,0,5.7,0c0-0.9,0-1.8,0-2.8c0.3,0,0.4-0.1,0.6-0.1
			c1.9,0,3.7,0,5.6,0c1.6,0,1.6,0,2.1-1.5c0.1-0.3,0.2-0.6,0.3-0.9c0.8-1.9,1.7-3.7,3.3-5.1c0.8-0.7,1.7-1.1,2.9-1.1
			c1.7,0,3.4,0,5,0c2,0,3.1,1.1,3.1,3.1c0,3.6,0,7.2,0,10.8c0,2.1-1.1,3.3-3.2,3.3c-4.7,0-9.5,0-14.2,0c-4.7,0-9.3,0-14,0
			c-5.1,0-8.8,3.8-8.8,8.9c0,2.7,0,5.4,0,8.1c0,4.8,3.2,8.4,8,8.8c0.5,0.1,0.7,0.3,0.6,0.7c0,0.7,0,1.4,0,2.1c3.9,0,7.7,0,11.5,0
			c0-0.9,0-1.8,0-2.7c11.5,0,22.9,0,34.4,0c0,1,0,1.9,0,2.7c3.9,0,7.6,0,11.4,0c0-0.7,0-1.4,0-2.1c0-0.5,0.1-0.7,0.7-0.7
			c1.6-0.1,3.1-0.6,4.4-1.6c2.4-1.8,3.6-4.2,3.6-7.1c0-10.3,0-20.6,0-30.9c0-1.1,0-2.2,0-3.4C88.3,34.9,90.2,34.9,92,34.9z
			 M77.2,72.1c-10.2,0-20.4,0-30.6,0c-8.7,0-17.3,0-26,0c-2,0-3.1-1.2-3.2-3.2c0-2.7,0-5.3,0-8c0-2,1.1-3.2,3.2-3.2
			c9.3,0,18.7,0,28,0c5.2,0,9-3.7,9-9c0-3.7,0-7.4,0-11.1c0-4.8-3.9-8.6-8.7-8.6c-1.6,0-3.2,0.1-4.8,0c-3.6-0.2-6.3,1.3-8.5,4
			c-1,1.3-1.8,2.7-2.7,4.1c-0.1,0.2-0.4,0.5-0.6,0.5c-3.2,0-6.4,0-9.7,0c-0.3-1.6-0.5-3-0.7-4.5c-0.5-3.7-1-7.3-1.5-11
			c-0.1-0.5-0.1-1-0.1-1.5c0-1.8,1.1-3,2.9-3c0.7,0,1.4,0,2.1,0c0.6,0,0.8,0.1,0.8,0.7c0,3.3,0,6.6,0,9.9c0,0.9,0,0.9,0.9,0.9
			c1.4,0,2.8,0,4.2,0c0.5,0,0.7-0.2,0.7-0.7c0-3.3,0-6.6,0-9.9c0-0.7,0.1-0.9,0.9-0.9c7.4,0,14.8,0,22.1,0c6.5,0,13,0,19.6,0
			c3.8,0,6.2,2.4,6.2,6.2c0,15,0,30,0,45C80.6,71,79.5,72.1,77.2,72.1z"/>
		<path d="M69.2,43.5c-4.6-0.1-8.6,3.8-8.6,8.3c-0.1,4.9,3.6,8.8,8.5,8.9c4.7,0.1,8.6-3.7,8.7-8.4C77.8,47.4,74,43.5,69.2,43.5z
			 M69.2,54.9c-1.6,0-2.9-1.3-2.9-2.9c0-1.5,1.3-2.9,2.8-2.9c1.6,0,2.9,1.3,2.9,2.9C72,53.7,70.7,54.9,69.2,54.9z"/>
		<path d="M69.1,34.9c3.2,0,5.8-2.6,5.8-5.8c0-3.1-2.6-5.8-5.7-5.7c-3.2,0-5.7,2.6-5.7,5.8C63.4,32.3,66,34.9,69.1,34.9z"/>
	</g>
</g>
</svg>
