<?xml version="1.0" encoding="utf-8"?>
<!-- Generator: Adobe Illustrator 16.0.0, SVG Export Plug-In . SVG Version: 6.00 Build 0)  -->
<!DOCTYPE svg PUBLIC "-//W3C//DTD SVG 1.1//EN" "http://www.w3.org/Graphics/SVG/1.1/DTD/svg11.dtd">
<svg version="1.1" id="Capa_1" xmlns="http://www.w3.org/2000/svg" xmlns:xlink="http://www.w3.org/1999/xlink" x="0px" y="0px"
	 width="518px" height="522px" viewBox="48.5 130.5 518 522" enable-background="new 48.5 130.5 518 522" xml:space="preserve">
<g>
	<path d="M411.089,479.074c-1.446-18.141-3.013-36.31-4.551-54.447c-2.151-25.487-4.427-51.004-6.485-76.491
		c-1.076-13.343-4.951-25.732-12.605-36.738c-12.42-17.893-29.514-28.254-51.066-31.297c-4.826-0.677-4.765-0.615-5.103-5.258
		c-0.646-7.932-4.611-13.834-11.374-17.893c-5.842-3.504-12.268-3.874-18.755-3.105c-10.975,1.353-19.46,10.084-20.382,20.66
		c-0.399,4.488-0.801,5.011-5.288,5.502c-37.384,4.12-58.168,35.509-62.779,63.424c-2.89,17.616-3.443,35.632-5.042,53.463
		c-1.753,19.798-3.535,39.567-5.287,59.335c-0.738,8.363-1.661,16.725-2.06,25.088c-0.431,9.561,3.381,17.461,10.823,24.688
		c0.337-2.123,0.583-3.385,0.706-4.674c2.644-26.963,7.716-53.494,14.264-79.749c2.674-10.761,7.256-20.659,14.327-29.268
		c10.208-12.39,22.905-19.276,39.414-18.938c19.368,0.398,38.707,0.123,58.074,0.092c8.671,0,16.604,2.459,23.705,7.316
		c12.881,8.793,21.027,21,24.809,36.125c3.198,12.82,4.735,25.947,6.181,39.074c1.722,15.588,3.166,31.174,4.766,46.73
		c0.091,1.047-0.247,2.492,1.199,2.859c1.137,0.307,1.843-0.707,2.551-1.414C408.199,497.305,411.889,489.064,411.089,479.074
		 M322.547,344.693c-0.061,2.305-1.322,3.689-3.658,3.689c-9.192,0.062-18.355,0.031-27.546,0c-2.337,0-3.566-1.414-3.689-3.658
		c-0.124-2.368-0.062-4.704-0.031-7.071c0-2.737,1.383-4.12,4.151-4.12h26.655c2.767,0,4.15,1.353,4.15,4.12
		C322.578,340.02,322.608,342.356,322.547,344.693 M382.59,362.125c-4.336,1.107-8.363-1.476-9.716-6.241
		c-0.214-0.676-0.368-1.383-0.552-2.061c-2.769-10.052-7.38-19.06-14.913-26.439c-6.147-5.995-13.372-9.1-22.073-9.039
		c-18.754,0.124-37.476,0.185-56.199,0c-11.252-0.124-19.983,4.396-26.716,13.159c-5.196,6.732-8.608,14.357-10.853,22.535
		c-0.737,2.674-1.998,4.95-4.458,6.364c-2.612,1.476-5.317,1.476-7.87-0.092c-2.674-1.629-3.966-4.088-3.688-7.255
		c1.783-20.414,22.227-44.087,41.872-48.544c3.198-0.708,6.456-1.046,9.747-1.015c10.021,0.031,20.074,0,30.098,0
		c9.223,0,18.415,0.215,27.638-0.063c14.695-0.399,26.686,5.228,36.492,15.865c8.578,9.315,14.081,20.322,17.155,32.527
		C389.722,356.529,386.985,360.957,382.59,362.125"/>
	<path d="M340.871,465.67c0.244,2.367-0.616,2.676-2.676,2.676c-10.729-0.094-21.489-0.063-32.22-0.063
		c-10.76,0-21.489-0.063-32.219,0.063c-2.182,0.031-2.767-0.432-2.521-2.707c0.831-8.055,1.476-16.109,2.029-24.165
		c0.153-2.306,0.86-3.228,3.289-3.228c19.646,0.061,39.292,0.061,58.936,0c2.184,0,3.043,0.737,3.197,2.98
		C339.304,449.406,340.04,457.553,340.871,465.67"/>
	<path d="M383.941,508.402c-2.089-23.855-4.488-47.652-8.516-71.295c-1.967-11.404-5.594-22.012-12.696-31.234
		c-6.271-8.178-14.573-12.451-24.841-12.513c-20.383-0.092-40.766-0.092-61.12,0.031c-10.022,0.031-18.261,4.027-24.502,11.96
		c-5.595,7.101-9.285,15.154-11.436,23.917c-4.828,19.892-8.701,39.997-11.406,60.319c-0.891,6.764-1.415,13.619-2.152,20.443
		c-0.247,2.246,0.616,3.258,2.89,3.168c1.23-0.063,2.459,0,3.689,0c23.951,0.031,47.899,0.031,71.848,0.031
		c24.566-0.031,49.129,0,73.694-0.031C384.188,513.199,384.344,513.076,383.941,508.402 M338.505,483.408h-0.616
		c-10.669,0-21.307,0-31.943,0.029c-10.453,0-20.906,0-31.358-0.029c-11.622-0.031-17.893-7.164-16.817-18.691
		c1.077-11.223,1.845-22.444,2.675-33.695c0.4-5.442,2.52-7.625,7.87-7.625c25.086-0.031,50.174-0.031,75.26,0
		c5.38,0,7.502,2.152,7.933,7.594c0.922,11.529,1.845,23.059,2.859,34.588C355.32,476.061,348.987,483.225,338.505,483.408"/>
	<path d="M161.66,461.762c0.759-13.793,3.295-27.379,10.675-39.66c3.647-6.07,8.372-11.102,14.557-14.659
		c0.882-0.507,1.792-1.032,2.757-1.315c3.232-0.948,5.281,0.66,4.995,4.01c-0.837,9.788-1.772,19.568-2.65,29.354
		c-1.141,12.74-2.289,25.482-3.378,38.227c-0.252,2.959-0.381,5.959,0.36,8.865c0.598,2.346-0.558,2.822-2.517,2.996
		c-12.809,1.143-21.075-4.93-23.705-17.484C162.059,468.775,161.801,465.41,161.66,461.762"/>
	<path d="M450.34,461.068c-0.291,6.287-0.679,11.598-2.872,16.572c-4.913,11.145-13.279,12.594-22.867,11.814
		c-1.146-0.092-1.988-0.566-1.753-1.947c1.616-9.457-0.44-18.77-1.191-28.121c-1.311-16.322-2.891-32.621-4.324-48.932
		c-0.353-4.01,2.321-5.762,6.11-3.896c4.844,2.383,8.902,5.816,12.286,10.016c7.827,9.714,11.441,21.15,13.365,33.229
		C449.736,453.838,450.002,457.934,450.34,461.068"/>
	<path d="M305.848,147.026c136.93,1.282,246.415,109.07,246.426,246.628c0.011,137.412-108.978,246.373-246.356,246.32
		C168.398,639.92,59.611,530.76,59.726,393.491C59.841,256.019,169.194,148.466,305.848,147.026 M72.509,393.478
		C71.5,521.889,176.604,625.816,302.829,627.387c130.978,1.629,235.74-104.672,236.874-231.296
		c1.165-130.125-104.459-235.26-232.162-236.004C177.435,159.328,71.603,265.401,72.509,393.478"/>
</g>
</svg>
