<?xml version="1.0" encoding="utf-8"?>
<!-- Generator: Adobe Illustrator 24.0.2, SVG Export Plug-In . SVG Version: 6.00 Build 0)  -->
<svg version="1.1" id="Capa_1" xmlns="http://www.w3.org/2000/svg" xmlns:xlink="http://www.w3.org/1999/xlink" x="0px" y="0px"
	 viewBox="0 0 150 118" style="enable-background:new 0 0 150 118;" xml:space="preserve">
<g>
	<path d="M75,0c32.8,0.4,59,26.2,58.9,59.1C133.9,92,107.8,118,75,118c-32.9,0-59-26.1-59-59C16.1,26.1,42.3,0.3,75,0z M74.9,114.9
		c30.7,0.2,55.6-24.9,56-55.1c0.4-31.3-25-56.5-55.5-56.7C44.3,2.9,19.2,28.3,19.1,58.7C18.9,89.7,44.2,115.2,74.9,114.9z"/>
	<path d="M75.1,86.8c-4.7,0-9.4,0-14.1,0c-1.8,0-3.2-1.5-3.2-3.4c0-6.2,0-12.5,0-18.7c0-2.8,0-5.5,0-8.3c0-2.1-1.4-2.9-3.3-2
		c-1.8,0.9-3.7,1.8-5.5,2.7c-1.1,0.5-1.8,0.2-2.4-0.8c-2-3.9-3.9-7.8-5.9-11.8c-0.7-1.5-0.5-2.2,1-2.9c6.5-3.2,12.9-6.4,19.4-9.6
		c0.8-0.4,1.3-0.3,1.9,0.3c2.6,2.6,5.9,3.8,9.4,4.1c3.5,0.3,7,0.3,10.3-1.3c1.5-0.8,2.9-1.8,4.2-2.8c0.6-0.5,1-0.6,1.7-0.3
		c5.7,2.8,11.3,5.6,17,8.4c0.9,0.4,1.8,0.8,2.7,1.3c1.2,0.6,1.5,1.4,0.9,2.7c-2,4-4,8-6,12c-0.6,1.1-1.3,1.3-2.5,0.8
		c-1.8-0.9-3.6-1.8-5.4-2.7c-1.9-0.9-3.2-0.1-3.2,2c0,8.9,0,17.8,0,26.7c0,2.5-1.2,3.7-3.7,3.7C84.1,86.7,79.6,86.7,75.1,86.8
		C75.1,86.8,75.1,86.8,75.1,86.8z"/>
</g>
</svg>
