<?xml version="1.0" encoding="utf-8"?>
<!-- Generator: Adobe Illustrator 24.0.2, SVG Export Plug-In . SVG Version: 6.00 Build 0)  -->
<svg version="1.1" id="Capa_1" xmlns="http://www.w3.org/2000/svg" xmlns:xlink="http://www.w3.org/1999/xlink" x="0px" y="0px"
	 viewBox="0 0 103.8 81.2" style="enable-background:new 0 0 103.8 81.2;" xml:space="preserve">
<g>
	<path d="M46.3,34.2c0.3,0.5,1,0.7,1.5,0.4c7.5-4.3,14.9-8.6,22.4-12.9c0.3-0.2,0.5-0.4,0.5-0.7c0.1-0.2,0-0.5-0.1-0.7
		C67,14,63.4,7.9,59.9,1.7c-0.3-0.5-1-0.7-1.5-0.4C50.9,5.7,43.5,10,36,14.3c-0.5,0.3-0.7,1-0.4,1.5C39.2,21.9,42.7,28,46.3,34.2z
		 M68.1,20.3c-6.8,4-13.7,7.9-20.5,11.9c-3.2-5.5-6.4-11.1-9.6-16.6c6.8-4,13.7-7.9,20.5-11.9C61.7,9.3,64.9,14.8,68.1,20.3z"/>
	<path d="M95.1,31.6c-3.2-5.5-6.3-11-9.5-16.5c-0.3-0.5-1-0.7-1.5-0.4C73.6,20.8,63,26.9,52.4,33.1c-1.5,0.9-3.1,1.8-4.6,2.7
		c-0.5,0.3-0.7,1-0.4,1.5c3.2,5.5,6.3,11,9.5,16.5c0.3,0.5,1,0.7,1.5,0.4C69,47.9,79.6,41.8,90.1,35.7c1.5-0.9,3.1-1.8,4.6-2.7
		c0.3-0.2,0.5-0.4,0.5-0.7C95.3,32.1,95.3,31.8,95.1,31.6z M62,49.5c-1.2,0.7-2.5,1.4-3.7,2.1c-2.8-4.9-5.6-9.7-8.4-14.6
		c10.3-5.9,20.5-11.9,30.8-17.8c1.2-0.7,2.5-1.4,3.7-2.1c2.8,4.9,5.6,9.7,8.4,14.6C82.5,37.7,72.2,43.6,62,49.5z"/>
	<path d="M91.4,37.9c-9.6,5.4-19.1,10.9-28.7,16.3c-1.4,0.8-2.7,1.5-4.1,2.3h0c-0.3-0.1-0.5-0.2-0.8-0.3c-1.4-0.5-2.8-0.8-4.3-0.8h0
		c-4.4-7.9-8.7-15.8-13.1-23.7c-1.1-1.9-2.2-3.9-3.2-5.8c-1-1.8-1.7-3.9-3.6-4.8c-4-2-8.2-3.8-12.2-5.7c-0.3-0.9-1-1.7-2.3-2
		c-1.1-0.3-2.5-0.1-3.7-0.1c-1.2,0-2.5-0.1-3.7,0c-3.6,0.3-4.6,5.6-0.8,6.5c2.2,0.6,4.9,0.1,7.1,0.1c0.1,0,0.2,0,0.2,0
		c0.1,0,0.3,0,0.4-0.1c0,0,0,0,0,0c0.4-0.1,0.8-0.2,1.1-0.5c3.5,1.6,7,3.2,10.5,4.9c1.2,0.6,1.5,0.8,2.2,1.9
		c0.5,0.9,1.1,1.9,1.6,2.8c1.1,2,2.2,3.9,3.3,5.9c3.9,7.1,7.8,14.3,11.8,21.4c-1.9,0.7-3.7,1.9-5,3.6c-7.2,8.6,0.5,21.9,11.6,20
		c5.8-1,9.9-6.1,10.1-11.8c0-0.1,0-0.2,0-0.3c0-0.1,0-0.2,0-0.2c0,0,0,0,0,0c-0.1-3.1-1.3-6-3.4-8.2c9-5.1,18-10.2,27-15.4
		c1.4-0.8,2.8-1.6,4.1-2.4C96,40.2,93.8,36.5,91.4,37.9z M62.7,67.7c-0.1,5-4,9.1-9.1,9.1c-5,0-9.1-4.1-9.1-9.1
		c0-4.1,2.8-7.6,6.5-8.7c0.8-0.2,1.6-0.4,2.5-0.4h0c1.8,0,3.4,0.5,4.8,1.4c0,0,0,0,0,0c0.1,0.1,0.3,0.2,0.4,0.3
		C61.1,62,62.6,64.7,62.7,67.7z"/>
	<path d="M53.6,62c-3.1,0-5.7,2.6-5.7,5.7c0,3,2.5,5.6,5.5,5.7c3.1,0.1,5.5-2.2,5.9-5.2c0-0.2,0-0.3,0-0.5c0-0.2,0-0.3,0-0.5
		C58.9,64.3,56.6,62,53.6,62z M51.1,67.7c0-3.2,4.9-3.2,5,0C55.9,70.9,51.1,71,51.1,67.7z"/>
</g>
</svg>
