<?xml version="1.0" encoding="utf-8"?>
<!-- Generator: Adobe Illustrator 24.0.2, SVG Export Plug-In . SVG Version: 6.00 Build 0)  -->
<svg version="1.1" id="Capa_1" xmlns="http://www.w3.org/2000/svg" xmlns:xlink="http://www.w3.org/1999/xlink" x="0px" y="0px"
	 viewBox="0 0 116 87.8" style="enable-background:new 0 0 116 87.8;" xml:space="preserve">
<g>
	<path d="M115.2,14.1c-0.3-8-6.9-14.1-14.8-14.1c-7.2,0-14.5,0-21.7,0H16.5C10.9,0,5.6,2.3,2.7,7.3c-1.6,2.9-2,5.9-2,9.1V27
		c0,1.8,1.5,3.3,3.3,3.3h6.8c0,15.7,0,31.3,0,47c0,1.9,0,3.8,0,5.7c-1.9,0-3.8,0-5.6,0c-3.1,0-3.1,4.9,0,4.9c5.9,0,11.9,0,17.8,0
		c3.1,0,3.1-4.9,0-4.9c-1.9,0-3.8,0-5.6,0c0-15.8,0-31.5,0-47.3c0-1.8,0-3.6,0-5.4h10.1v45c0,1.5,1.3,2.8,2.8,2.8h21.8h2.9
		c0.1,0,0.1,0,0.2,0c2,0,3.9-0.2,5.8-0.6c7.1-1.3,13.8-4.8,18.8-10.2c5.1-5.5,8.2-12.6,8.9-20.1c0.1-1,0.1-2,0.1-3c0-3.7,0-7.3,0-11
		c0-1,0-1.9,0-2.9h10.1c0,15.7,0,31.3,0,47c0,1.9,0,3.8,0,5.7c-1.9,0-3.8,0-5.6,0c-3.1,0-3.1,4.9,0,4.9c5.9,0,11.9,0,17.8,0
		c3.1,0,3.1-4.9,0-4.9c-1.9,0-3.8,0-5.6,0c0-15.8,0-31.5,0-47.3c0-1.8,0-3.6,0-5.4h6.7c1,0,1.8-0.4,2.3-0.9c0.6-0.5,1-1.3,1-2.3
		C115.2,22.8,115.3,18.4,115.2,14.1z M78.4,59.8c-3.1,4.7-7.6,8.3-12.7,10.5c1.7-3.5,2.8-7.3,3.2-11.4c4.5-0.4,8.6-2,12.3-4.4
		C80.4,56.4,79.5,58.1,78.4,59.8z M83,43c0,0.8,0,1.5-0.1,2.3c-4,5.3-10.2,8.2-16.8,8.2c-1.5,0-2.8,1.3-2.8,2.8
		c0,5.8-1.8,11.4-5.3,16c-1.1,0.1-2.2,0.2-3.3,0.2H32.9V30.3v-6.5v-6.3H83v6.3v6.5V43z M108.7,23.8H88.6c0-2.1,0-4.2,0-6.3h3.7
		c3.1,0,3.1-4.9,0-4.9h-3.7H83H32.9h-5.5h-3.7c-3.1,0-3.1,4.9,0,4.9h3.7v6.3H7.3c0-3.1,0-6.1,0-9.2c0.1-4.9,4-8.1,8.7-8.1
		c7.3,0,14.7,0,22.1,0h60.8c3.3,0,6.6,0.5,8.6,3.7c1.3,2.1,1.3,4.2,1.3,6.6V23.8z"/>
	<circle cx="102.6" cy="15" r="2.8"/>
</g>
</svg>
