<?xml version="1.0" encoding="utf-8"?>
<!-- Generator: Adobe Illustrator 24.0.2, SVG Export Plug-In . SVG Version: 6.00 Build 0)  -->
<svg version="1.1" id="Capa_1" xmlns="http://www.w3.org/2000/svg" xmlns:xlink="http://www.w3.org/1999/xlink" x="0px" y="0px"
	 viewBox="0 0 144 94" style="enable-background:new 0 0 144 94;" xml:space="preserve">
<style type="text/css">
	.st0{fill:#FFFFFF;}
	.st1{fill:#E1251B;}
	.st2{fill:none;stroke:#FFFFFF;stroke-width:0.2096;stroke-linecap:round;stroke-linejoin:round;}
	.st3{fill:#76BC21;}
	.st4{fill:#4C9C2E;}
</style>
<g>
	<path class="st0" d="M9.9,22.8c-4.1,0.6-5,2.2-4.5,6.4l7.2,54.2c0.6,4.1,2.3,5.4,6.4,4.8l114.4-16.1c4.1-0.6,5.5-2.5,5.4-6.7
		l-1-54.9c-0.1-4.2-1.7-5.4-5.8-4.8L9.9,22.8z"/>
	<path class="st1" d="M20.3,86.5c-4.1,0.6-5.8-0.6-6.4-4.8L7.2,30.6c-0.6-4.1,0.3-5.8,4.5-6.4L130.4,7.6c4.1-0.6,5.7,0.6,5.8,4.8
		l0.9,51.7c0.1,4.2-1.3,6.1-5.4,6.7L20.3,86.5z"/>
	<path class="st0" d="M21.3,46.5c0.4,0,0.7,0.1,1.5,0.1c1.2,0,3.8,0,3.8-2.9c0-2.2-1.2-3.1-3.7-3.1h-0.6c-1,0-1.1,0.5-1.1,1.1V46.5z
		 M21.3,53.2c0,0.6-0.5,1.1-1.1,1.1H19c-0.6,0-1.1-0.5-1.1-1.1V39.7c0-0.6,0.5-1.1,1.1-1.1c0,0,2.7-0.1,4.6-0.1
		c1.7,0,3.8,0.1,5.2,1.4c0.9,0.8,1.5,2.1,1.5,3.5c0,1.9-1,3.2-2.1,3.9c-1.7,1.2-4.2,1.2-5.2,1.2h-0.7c-0.6,0-1,0.4-1,1V53.2z"/>
	<path class="st0" d="M35,45.9c1.8,0,2.4,0.1,3.3-0.1c1.6-0.3,2.3-1.4,2.3-2.8c0-1.6-0.8-2.6-3.5-2.6h-0.9c-0.9,0-1.1,0.5-1.1,1.1
		V45.9z M35,53.2c0,0.6-0.5,1.1-1.1,1.1h-1.3c-0.6,0-1.1-0.5-1.1-1.1V39.7c0-0.6,0.5-1.1,1.1-1.1c0,0,4.2-0.1,4.7-0.1
		c2.7,0,4.1,0.2,5.4,1.2c1.1,1,1.4,2.1,1.4,3.1c0,1.8-1.1,3.5-3.7,4.2c1.4,3.1,2.9,5,3.9,5.5c0.7,0.4,1.5,0.3,1.8,0.4
		c0.2,0-0.1,1.2-0.3,1.3c-0.4,0.2-1.1,0.3-1.8,0.3c-3.3,0-4.8-2.4-6.9-6.9c-0.7,0.1-1,0.1-1,0.1c-0.6,0-1.1,0.5-1.1,1V53.2z"/>
	<path class="st0" d="M49.1,46.2c0,3.9,2.6,6.1,5.4,6.1c1.9,0,5-1.2,5-5.7c0-3.9-2.6-6.2-5.4-6.2C50.8,40.5,49.1,43.2,49.1,46.2
		 M60.6,40.2c1,0.8,2.7,2.7,2.7,6.1c0,5.6-4.6,8.3-9.3,8.3c-6.3,0-8.7-4.3-8.7-8c0-2.8,1.2-4.7,3-6.2c2.2-1.7,4.4-2.1,6.6-2.1
		C55.5,38.3,58.5,38.4,60.6,40.2"/>
	<path class="st0" d="M65.9,38.4c-0.7,0-1.3,0.6-1.3,1.3l-0.1,13.5c0,0.3,0.1,0.7,0.4,0.9c0.2,0.2,0.6,0.4,0.9,0.4h0.8
		c0.3,0,0.7-0.1,0.9-0.4c0.2-0.2,0.4-0.6,0.4-0.9L67.7,45c0-0.1,0-0.2,0-0.4c0-0.3,0-0.7,0-0.8c0,0,0,0-0.1,0c0,0-0.1,0-0.1,0
		c0,0,0,0,0.1,0.1l9.1,10c0.4,0.5,1.3,0.7,1.9,0.6c0.6-0.2,1.2-0.8,1.2-1.5l0-13.3c0-0.3-0.1-0.7-0.4-0.9c-0.3-0.2-0.6-0.4-0.9-0.4
		h-0.8c-0.3,0-0.7,0.1-0.9,0.4c-0.2,0.2-0.4,0.6-0.4,0.9l0.2,7.7c0,0.1,0,0.2,0,0.4c0,0.3,0,0.9,0,1c0,0,0.1-0.1,0.1,0c0,0,0,0,0,0
		l-8.6-9.4l-0.1-0.1c-0.4-0.4-0.7-0.8-1.9-0.8H65.9z"/>
	<path class="st0" d="M104.4,40.3c-2.5,0-4.5,2-4.5,5.5c0,4.3,2.6,6.7,5.7,6.7c1.7,0,2.8-0.7,3.2-0.9c0.5-0.3,0.7-0.4,1-0.4
		c0.4,0,0.8,0.3,0.8,0.7c0,1-2.1,2.8-5.9,2.8c-6,0-8.7-4-8.7-8.2c0-4.4,3.1-8,8.6-8c3.9,0,6.2,1.9,6.2,3.2c0,0.8-0.7,1.3-1.6,1.3
		c-0.7,0-1.1-0.3-1.4-0.7C107.1,41.4,106.3,40.3,104.4,40.3"/>
	<path class="st2" d="M104.4,40.3c-2.5,0-4.5,2-4.5,5.5c0,4.3,2.6,6.7,5.7,6.7c1.7,0,2.8-0.7,3.2-0.9c0.5-0.3,0.7-0.4,1-0.4
		c0.4,0,0.8,0.3,0.8,0.7c0,1-2.1,2.8-5.9,2.8c-6,0-8.7-4-8.7-8.2c0-4.4,3.1-8,8.6-8c3.9,0,6.2,1.9,6.2,3.2c0,0.8-0.7,1.3-1.6,1.3
		c-0.7,0-1.1-0.3-1.4-0.7C107.1,41.4,106.3,40.3,104.4,40.3z"/>
	<path class="st0" d="M121,47.6h-2.3c-0.6,0-0.7-0.5-0.4-1l1.3-3.6c0.2-0.6,0.4-0.6,0.6,0l1.5,3.6C122.1,47.3,121.6,47.6,121,47.6
		 M114.7,52.8c-0.8,1.8-4,5.7-10.3,5.7c-6.6,0-10.1-5.7-10.1-5.7c-0.2-0.2-0.2-0.5,0-0.7c0.2-0.2,0.5-0.2,0.7,0
		c1.2,1.4,3.8,5.4,9.4,5.4c5.7,0,8.8-4.1,9.5-5.3c0.2-0.2,0.5-0.3,0.7-0.1C114.8,52.2,114.8,52.5,114.7,52.8 M89.7,47.6h-2.3
		c-0.6,0-0.7-0.5-0.4-1l1.3-3.6c0.2-0.6,0.4-0.6,0.6,0l1.5,3.6C90.7,47.3,90.3,47.6,89.7,47.6 M128,53.2l-6.1-13.8
		c-0.2-0.6-0.9-1-1.5-1H120c-0.6,0-1.3,0.5-1.6,1l-5,11.2c-1.3,2.9-4,5.6-9,5.7c-5.5,0-8.2-4.2-9-5.6l-4.9-11.2
		c-0.2-0.6-0.9-1-1.5-1h-0.4c-0.6,0-1.3,0.5-1.6,1l-6.2,13.9c-0.3,0.5,0,1,0.6,1h1.3c0.6,0,1.2-0.2,1.5-1l1.1-2.7
		c0.2-0.6,0.9-1,1.5-1h3.6c0.6,0,1.3,0.5,1.5,1c0,0,3.3,8.7,12.3,8.8c9.6,0.1,12.4-8.8,12.4-8.8c0.2-0.6,0.9-1,1.5-1h3.6
		c0.6,0,1.3,0.5,1.5,1l1,2.7c0.3,0.8,0.9,1,1.5,1h1.6C127.9,54.2,128.3,53.8,128,53.2"/>
	<path class="st3" d="M112.7,40.5c-1.8-2.2-3-8.2,0.4-11.7c4-4.1,11.7-4.3,13.1-10.5c0.1,1.6,0.2,2.9-0.4,4.4
		c-1.3,5.5-8.8,15.5-6.4,5.6C112.3,32.3,112.7,40.5,112.7,40.5"/>
	<path class="st4" d="M124.6,23.4c1.9-2.4,1.7-5.2,1.7-5.2c0.9,3.2,0.8,10.2-3.3,15.3c-4.3,5.3-8,4.2-9.1,10.8
		c-1.4-5.2-0.2-9.8,3.3-14.3C119.3,27.4,122.1,26.6,124.6,23.4"/>
	<path class="st3" d="M124.4,29.3c0,0-0.8,3.2-3.6,5.7c-2.7,2.5-3.7,2.6-3.7,2.6s1.6-1.2,3.5-3.2C123.1,31.9,124.4,29.3,124.4,29.3"
		/>
</g>
</svg>
