<?xml version="1.0" encoding="utf-8"?>
<!-- Generator: Adobe Illustrator 24.0.2, SVG Export Plug-In . SVG Version: 6.00 Build 0)  -->
<svg version="1.1" id="Capa_1" xmlns="http://www.w3.org/2000/svg" xmlns:xlink="http://www.w3.org/1999/xlink" x="0px" y="0px"
	 viewBox="0 0 103.8 81.2" style="enable-background:new 0 0 103.8 81.2;" xml:space="preserve">
<g>
	<path d="M47.1,23.5c0,2.2,1,4.2,2.7,5.7c1,0.9,1.5,2,1.5,3.3c0,1.1-0.4,2.1-1.2,2.7c-0.5,0.5-0.8,1-0.8,1.6c0,0.6,0.2,1.1,0.7,1.6
		c0.4,0.4,0.9,0.6,1.5,0.6c0.6,0,1.1-0.3,1.6-0.7l0.1-0.1c0.2-0.2,0.4-0.4,0.6-0.6c2.7-3.2,2.5-8.1-0.5-11.1L53,26.5
		c-0.4-0.4-0.8-0.8-1-1.2c-1-1.6-0.6-3.4,0.8-4.8c1.8-1.7,2.8-3.7,2.8-6.1c0-2.4-0.9-4.4-2.6-6c-0.5-0.5-1.1-0.8-1.7-0.7
		c-0.4,0-1,0.1-1.5,0.7c-0.6,0.7-0.9,1.9,0.2,3.1c1.9,2.1,1.8,4-0.2,6C48,19.1,47.1,21.3,47.1,23.5z"/>
	<path d="M45.2,31.2c0-2.2-0.9-4.1-2.5-5.7c-1.2-1.1-2.3-0.9-3.1-0.3c-0.6,0.5-0.8,1.1-0.8,1.5c0,0.8,0.5,1.5,0.8,1.9
		c1.7,1.8,1.6,4-0.2,5.7c-1.8,1.8-2.8,3.9-2.8,6.1c0,2.3,1,4.4,2.9,6.2c0.8,0.8,1.3,1.8,1.3,2.8c0,1-0.4,2-1.2,2.8
		c-0.3,0.3-0.9,1-0.9,1.8c0,0.5,0.3,1,0.7,1.5c0.4,0.4,0.9,0.6,1.4,0.6c0.9,0,1.6-0.6,1.8-0.9c1.6-1.5,2.4-3.5,2.4-5.7
		c0-2.2-0.9-4.4-2.6-6c-1.1-1-1.6-2.1-1.6-3.1c0-1,0.5-2.1,1.6-3.1C44.4,35.6,45.2,33.6,45.2,31.2z"/>
	<path d="M62.9,40.3c0-1,0.5-2.1,1.5-3c1.7-1.6,2.6-3.7,2.6-6c0-2.2-0.8-4.2-2.4-5.8c-1.1-1.1-2.3-1.2-3.2-0.3
		c-0.4,0.4-0.7,0.9-0.7,1.5c0,0.8,0.5,1.4,0.8,1.8c0.8,0.9,1.3,1.9,1.2,2.9c0,1-0.5,2-1.4,2.8c-1.8,1.6-2.7,3.8-2.7,6
		c0,2.3,1,4.4,2.7,6.1c0.9,0.9,1.4,1.9,1.5,2.9c0,1-0.4,2-1.2,2.9c-1.5,1.6-0.6,2.8-0.2,3.2c0.4,0.4,0.9,0.6,1.5,0.6
		c0.6,0,1.2-0.3,1.8-0.9c0.2-0.2,0.3-0.3,0.5-0.5c2.8-3.3,2.5-8.2-0.7-11.2C63.4,42.5,62.9,41.4,62.9,40.3z"/>
	<path d="M53,61c-1-0.9-1.5-2.1-1.5-3.3c0-1.2,0.5-2.2,1.5-3.1c1.7-1.4,2.5-3.4,2.6-5.9c0-2.3-0.8-4.3-2.5-5.9
		c-1.2-1.2-2.5-0.9-3.2-0.2c-0.7,0.7-1.1,2,0.1,3.3c1.7,1.8,1.7,4-0.1,5.7c-1.8,1.7-2.8,3.9-2.8,6.1c0,2.2,1,4.4,2.8,6.1
		c0.8,0.8,1.3,1.8,1.3,2.8c0,1-0.4,2-1.2,2.8c-0.3,0.3-0.9,1-0.9,1.9c0,0.5,0.3,1,0.7,1.4c0.4,0.4,0.9,0.6,1.4,0.6
		c1,0,1.7-0.7,1.9-1c1.6-1.6,2.4-3.8,2.3-6C55.5,64.4,54.6,62.4,53,61z"/>
	<path d="M65.4,3.7C49.8-2.1,31.9,3,21.4,15.8C11.2,28.3,9.8,46.5,17.9,60.4c8.3,14.2,25,21.8,41.1,18.8
		c18.7-3.4,31.7-19.9,32.1-38.6C90.8,24.2,81,9.5,65.4,3.7z M51.9,76.8c-19.7,0-36.2-16.5-36.2-36.2c0-19.7,16.5-36.2,36.2-36.2
		c20.1,0,35.8,16.5,36.2,36.2C87.6,60.3,71.9,76.8,51.9,76.8z"/>
</g>
</svg>
