<?xml version="1.0" encoding="utf-8"?>
<!-- Generator: Adobe Illustrator 24.0.2, SVG Export Plug-In . SVG Version: 6.00 Build 0)  -->
<svg version="1.1" id="Capa_1" xmlns="http://www.w3.org/2000/svg" xmlns:xlink="http://www.w3.org/1999/xlink" x="0px" y="0px"
	 viewBox="0 0 150 118" style="enable-background:new 0 0 150 118;" xml:space="preserve">
<g>
	<path d="M75.1,0C107.8,0.4,134,26.2,134,59c0,32.9-26.1,59-59,59C42.1,118,16,91.8,16,59C16.1,26.1,42.3,0.3,75.1,0z M74.9,114.9
		c30.8,0.2,55.6-24.9,56-55.1c0.4-31.3-25-56.5-55.5-56.7C44.3,2.9,19.3,28.2,19.1,58.6C18.8,89.7,44.2,115.1,74.9,114.9z"/>
	<path d="M62.9,31.4c5.5,0,10.9,0.1,16.4,0c3.6-0.1,6.1,1.8,6.1,6.1c0,1.1,0,2.2,0,3.3c0,0.7,0.3,0.9,0.9,0.9c1.4,0,2.8,0.2,4.2,0.2
		c1.4,0,2.5,0.6,3.5,1.5c3.6,3.5,7.1,7.1,10.6,10.6c1,1,1.5,2.2,1.5,3.6c0,3.5,0,6.9,0,10.4c0,1,0.1,1.5,1.3,1.7
		c2,0.2,2.2,0.5,2.2,2.6c0,0.8,0,1.6,0,2.3c-0.1,1.2-0.6,1.7-1.9,1.7c-1.3,0-2.6,0-3.9,0c-0.8,0-1.3,0.3-1.3,1.1
		c-0.1,4.4-4,8.6-8.5,9.2c-4.9,0.7-9.2-1.6-11.2-6.1c-0.4-1-0.6-2.1-0.7-3.1c-0.1-0.8-0.4-1.1-1.2-1.1c-4.1,0-8.1,0-12.2,0
		c-0.9,0-1.1,0.4-1.1,1.2c-0.4,4.2-3.5,7.9-7.2,8.9c-4.7,1.2-9-0.2-11.5-4c-0.8-1.3-1.3-2.9-1.7-4.4c-0.4-1.5-0.2-1.5-1.8-1.6
		c-3.3-0.1-5.4-2.2-5.4-5.4c0-11.4,0-22.8,0-34.1c0-3.3,2.1-5.4,5.4-5.4C51.5,31.4,57.2,31.4,62.9,31.4z M66.4,55.8c2,0,3.8,0,5.5,0
		c1.1,0,1.5-0.5,1.5-1.5c0-1.4,0-2.8,0-4.2c0-1.3-0.3-1.6-1.7-1.6c-1.7,0-3.5,0-5.4,0c0-2,0-3.9,0-5.8c0-0.8-0.4-1.1-1.2-1.1
		c-1.5,0-3,0-4.6,0c-1.2,0-1.5,0.3-1.5,1.5c0,1.3-0.1,2.7,0,4c0.1,1-0.2,1.5-1.4,1.4c-1.3-0.1-2.7,0-4,0c-1.3,0-1.6,0.3-1.6,1.6
		c0,1.4,0,2.8,0,4.2c0,1.2,0.3,1.5,1.5,1.5c1.3,0,2.7,0.1,4,0c1.2-0.1,1.5,0.4,1.4,1.5c-0.1,1.4,0,2.8,0,4.1c0,0.9,0.4,1.4,1.4,1.4
		c1.6,0,3.1,0,4.7,0c0.8,0,1.3-0.3,1.2-1.2C66.4,59.7,66.4,57.8,66.4,55.8z M93.4,59.3c2.3,0,4.5,0,6.8,0c0.4,0,1-0.2,1.1-0.5
		c0.1-0.4,0-0.9-0.2-1.3c-0.1-0.3-0.5-0.5-0.8-0.8c-2.5-2.5-5-5-7.5-7.5c-2.6-2.6-2.6-2.6-6.3-2.5c-0.8,0-1.1,0.3-1.1,1.1
		c0,3.5,0,6.9,0,10.4c0,0.9,0.3,1.2,1.2,1.2C88.8,59.3,91.1,59.3,93.4,59.3z M92.5,71.2c-2.7-0.4-5.5,2.2-5.5,5.3
		c0,3,2.4,5.2,5.4,5.4c2.8,0.2,5.5-2.7,5.5-5.4C97.9,73.7,95.2,70.9,92.5,71.2z M57.6,71.2c-2.8-0.4-5.5,2.4-5.5,5.3
		c0.1,3,2.4,5.2,5.4,5.4c2.7,0.1,5.5-2.4,5.5-5.4C63,73.7,60.3,70.8,57.6,71.2z"/>
</g>
</svg>
