<?xml version="1.0" encoding="utf-8"?>
<!-- Generator: Adobe Illustrator 24.0.2, SVG Export Plug-In . SVG Version: 6.00 Build 0)  -->
<svg version="1.1" id="Capa_1" xmlns="http://www.w3.org/2000/svg" xmlns:xlink="http://www.w3.org/1999/xlink" x="0px" y="0px"
	 viewBox="0 0 150 118" style="enable-background:new 0 0 150 118;" xml:space="preserve">
<g>
	<path d="M75,0.9c32.3,0.4,58,25.8,58,58.2c0,32.4-25.7,57.9-58,57.9c-32.4,0-58-25.7-58-58C17,26.6,42.8,1.3,75,0.9z M75,114
		c30.2,0.2,54.7-24.5,55-54.3C130.4,28.9,105.4,4.2,75.5,4C44.8,3.8,20.1,28.7,20,58.7C19.8,89.2,44.7,114.3,75,114z"/>
	<path d="M75.3,59.7c-0.4-0.2-0.7-0.3-1.1-0.5c-0.7-0.5-1.4-0.9-2.1-1.4c-1.4-1.1-1.8-2.9-0.8-4.1c1-1.3,2.8-1.6,4.2-0.5
		c2.6,1.8,5.2,3.7,7.7,5.6c1.7,1.2,3.4,2.5,5.2,3.7c1.1,0.8,1.6,1.7,1.6,3c0,5,0,10.1,0,15.1c0,1.8-1,3-2.7,3.4
		c-3.1,0.7-6.3,1.4-9.4,2.1c-0.7,0.2-1.5,0.2-2.3,0.2c-3.9,0-7.9,0-11.8,0.1c-1.4,0-2.5-1-2.8-2.5c-0.2-1.2,0.6-2.6,1.9-3
		c0.5-0.1,1-0.2,1.5-0.2c1.8,0,3.5,0,5.3,0c0.4,0,0.7-0.4,1.1-0.5c-0.4-0.2-0.7-0.5-1.1-0.5c-4.2,0-8.3,0-12.5,0
		c-2.1,0-3.4-1.9-2.8-3.9c0.4-1.1,1.5-1.9,3-1.9c4,0,8,0,12,0c0.5,0,0.9-0.3,1.4-0.4c-0.5-0.2-0.9-0.5-1.4-0.5
		c-5.1-0.1-10.2,0-15.3-0.1c-1.7,0-2.8-1.1-2.9-2.6c-0.1-1.6,0.7-2.6,2.4-3c0.5-0.1,1-0.2,1.5-0.2c4.7,0,9.4,0,14,0
		c0.3,0,0.6,0.1,0.9,0c0.2-0.1,0.4-0.3,0.6-0.4c-0.2-0.1-0.4-0.3-0.6-0.4c-0.3-0.1-0.6,0-0.9,0c-3.7,0-7.3,0.1-11,0
		c-1,0-2.1-0.3-3-0.8c-1-0.6-1.2-1.9-0.9-3c0.4-1.1,1.3-1.8,2.6-1.8c5.5,0,11,0,16.5,0c0.5,0,1-0.1,1.4-0.1
		C75.1,60.1,75.2,59.9,75.3,59.7z"/>
	<path d="M92.7,46.8c0-0.5,0.1-1,0.1-1.4c0-0.8-0.1-1.7-0.1-2.5c0-1.7,1.2-2.8,2.9-2.8c1.6,0,2.8,1.1,2.9,2.7c0.1,1.5,0.2,3,0.2,4.5
		c0.1,3.8,0.2,7.7,0.3,11.5c0,1.4-0.4,2.5-1.6,3.4c-1.9,1.5-3.8,3-5.8,4.6c0-0.5,0-0.7-0.1-1c-0.1-1.8-0.8-3.2-2.4-4.3
		c-4.2-3-8.3-6.1-12.5-9.1c-1.3-1-2.8-1.7-4.5-0.8c-0.2,0.1-0.8-0.1-1-0.3c-1.7-2.1-3.4-4.3-5.1-6.5c-0.9-1.2-0.6-3.2,0.6-4.1
		c1.2-0.9,3-0.7,4,0.6c2.5,3.2,5,6.4,7.5,9.6c0.3,0.4,0.8,0.7,1.2,1c0.1-0.1,0.2-0.2,0.3-0.3c-0.2-0.4-0.4-0.8-0.6-1.1
		c-2.9-3.8-5.9-7.6-8.8-11.4c-0.5-0.6-0.9-1.3-1.1-2.1c-0.3-1.5,0.4-2.6,1.6-3.1c1.1-0.5,2.5-0.1,3.4,0.9c1.3,1.6,2.5,3.2,3.7,4.8
		c1.9,2.5,3.9,5,5.8,7.4c0.2,0.3,0.7,0.4,1.1,0.6c-0.1-0.4-0.1-0.9-0.4-1.3c-2.4-3.2-5-6.3-7.4-9.5c-1.1-1.5-1-3.1,0.2-4.1
		c1.3-1.1,3.1-1,4.3,0.5c2.7,3.4,5.3,6.8,8,10.2c1,1.2,1.9,2.5,2.9,3.7C92.4,46.9,92.6,46.9,92.7,46.8z"/>
	<path d="M71.9,59c-2.2,0.7-3.7-0.2-4.8-2c-0.6-1-1.5-1.8-2.2-2.8c-1-1.4-0.8-3,0.5-4c1.2-1,2.9-0.8,4,0.4c0.3,0.4,0.7,0.8,0.9,1.2
		c0.1,0.3,0.2,0.7,0.1,1c-1.4,2.5-1.1,4.2,1.2,6C71.8,58.9,71.8,59,71.9,59z"/>
</g>
</svg>
