<?xml version="1.0" encoding="utf-8"?>
<!-- Generator: Adobe Illustrator 24.0.2, SVG Export Plug-In . SVG Version: 6.00 Build 0)  -->
<svg version="1.1" id="Capa_1" xmlns="http://www.w3.org/2000/svg" xmlns:xlink="http://www.w3.org/1999/xlink" x="0px" y="0px"
	 viewBox="0 0 116 63.6" style="enable-background:new 0 0 116 63.6;" xml:space="preserve">
<g>
	<path d="M113.4,30.9c-0.9-3.3-1.9-6.3-1.7-9.7c0.3-5.3,3.5-12-0.6-16.6c-2-2.3-5.1-3.1-8.1-3.2c-5.1-0.1-10.2,0-15.3,0
		c-9.9,0-19.7,0-29.6,0c-9.9,0-19.7,0-29.6,0c-5.1,0-10.2-0.2-15.3,0c-3,0.1-6,0.9-8.1,3.2C0.9,9.1,4.1,15.8,4.4,21.1
		c0.2,3.5-0.9,6.5-1.7,9.7c-1,3.7-1.4,7.5-1.4,11.3c0,1.4,1.2,2.6,2.6,2.6c1.5,0,2.9,0,4.4,0v17.6h99.6V44.7c1.5,0,2.9,0,4.4,0
		c1.4,0,2.5-1.2,2.6-2.6C114.8,38.4,114.3,34.5,113.4,30.9z M58.5,39.6c-0.2,0-0.4,0-0.5,0c-0.2,0-0.3,0-0.5,0c-17,0-34,0-51,0
		c0.1-2.5,0.5-5,1.1-7.4c0.8-3,1.8-5.7,1.9-8.8c0.2-3.1-0.4-6.1-1-9.1C8.2,12.4,7.4,9.7,8.7,8c1.9-2.5,6.7-1.6,9.5-1.6
		c4.4,0,8.9,0,13.3,0c8.9,0,17.7,0,26.6,0c8.9,0,17.7,0,26.6,0c4.4,0,8.9,0,13.3,0c2.7,0,7.5-0.9,9.5,1.6c1.3,1.7,0.5,4.4,0.2,6.3
		c-0.6,3-1.1,6-1,9.1c0.1,3.1,1.1,5.9,1.9,8.8c0.6,2.4,1,4.9,1.1,7.4C92.5,39.6,75.5,39.6,58.5,39.6z"/>
	<circle cx="18.6" cy="32.1" r="3.3"/>
	<path d="M38.3,28.8c-1.8,0-3.3,1.5-3.3,3.3c0,1.8,1.5,3.3,3.3,3.3s3.3-1.5,3.3-3.3C41.6,30.2,40.2,28.8,38.3,28.8z"/>
	<path d="M58,28.8c-1.8,0-3.3,1.5-3.3,3.3c0,1.8,1.5,3.3,3.3,3.3c1.8,0,3.3-1.5,3.3-3.3C61.3,30.2,59.8,28.8,58,28.8z"/>
	<circle cx="77.7" cy="32.1" r="3.3"/>
	<circle cx="97.4" cy="32.1" r="3.3"/>
</g>
</svg>
