<?xml version="1.0" encoding="utf-8"?>
<!-- Generator: Adobe Illustrator 24.0.2, SVG Export Plug-In . SVG Version: 6.00 Build 0)  -->
<svg version="1.1" id="Capa_1" xmlns="http://www.w3.org/2000/svg" xmlns:xlink="http://www.w3.org/1999/xlink" x="0px" y="0px"
	 viewBox="0 0 169.2 150" style="enable-background:new 0 0 169.2 150;" xml:space="preserve">
<style type="text/css">
	.st0{fill-rule:evenodd;clip-rule:evenodd;fill:#E30613;}
	.st1{fill-rule:evenodd;clip-rule:evenodd;fill:#FDC300;}
</style>
<g>
	<polygon class="st0" points="84.7,6.4 5.5,143.6 163.7,143.6 84.7,6.4 	"/>
	<path class="st0" d="M151.3,108.4c0-3.2,2.3-5.7,5.6-5.7c3.1,0,5.6,2.5,5.6,5.7c0,3.3-2.5,5.9-5.6,5.9
		C153.7,114.3,151.3,111.7,151.3,108.4L151.3,108.4z M150.1,108.4c0,4,3.1,6.9,6.8,6.9c3.7,0,6.8-2.9,6.8-6.9c0-3.8-3.1-6.7-6.8-6.7
		C153.2,101.7,150.1,104.6,150.1,108.4L150.1,108.4z M154.2,112.4l1.2,0v-3.3h1.3l2.2,3.3l1.2,0l-2.2-3.5c1.2-0.1,2.1-0.8,2.1-2.2
		c0-1.5-0.9-2.2-2.8-2.2h-3.1V112.4L154.2,112.4z M155.5,105.5l1.7,0c0.9,0,1.8,0.1,1.8,1.2c0,1.2-1,1.3-2.1,1.3h-1.3V105.5
		L155.5,105.5z"/>
	<path class="st1" d="M120.9,115.6c-3.4-0.1-6.1,1.5-6.3,3.3c-0.1,2,2.6,3.7,6,3.8c3.3,0.1,6.1-1.3,6.3-3.3
		C127,117.4,124.3,115.8,120.9,115.6L120.9,115.6z M136,129.5c-0.8,0.1-2.6,0.2-4.1-0.3c-1-0.3-4-1.2-4.9-1.2
		c-1.1,0-4.8,1.7-9.5,1.7c-5.1,0-6.4-2.5-7.9-2.5c-0.8,0-4.7,2.5-7.9,2.5c-7.3,0-7.9-12.6-13.3-12.6c-1.5,0-2.1,0.4-2.6,1.7v-0.1
		l-1.7,9.3c-0.1,0.7-0.9,1.3-1.7,1.3h-5.4c-0.7,0-1.2-0.7-1.1-1.3l13-70.9c0.1-0.7,0.9-1.3,1.6-1.3l5.4,0c0.8,0,1.3,0.7,1.1,1.3
		c0,0-8.9,49.5-9.2,50.4c-0.6,2.8,7.3,3.2,10.4-4c0.8-1.5,1.6-1.6,2.2-1.6c0.6,0,3.8,0,4.6,0c1.2,0,1.1,1.6,1,2.1
		c-1.7,6.5-8.6,9.9-8.6,10.7c0,0.9,4,5.8,4.9,7.3c0.9,1.3,4.2,0.6,4.2-1.5c0-7.6,5.1-9.4,8.4-10.3c4-0.9,11.1,1.1,11.1,1.1
		c0.8,0.3,1.6,0,1.7-0.7c0,0,0.2-1.6,0.3-2.1c0.1-0.7-0.6-2.1-4.2-1.9c-3.7,0.2-3.9,0.3-7.1,0.7c-1.1,0.1-2.1-0.1-2.1-0.1
		c-0.9,0-1.5-0.6-1.3-1.2l0.7-2.9c0-0.7,0.8-1.2,1.7-1.2h12.1c0,0,2.9-0.2,4.5,0.4c4.4,1.7,3.9,5.6,3.6,7.8
		c-0.2,2.3-1.6,11.9-1.6,12.4c-0.1,1,0.6,2.7,3.3,1.7c0.3-0.1,0.8,0.3,0.8,0.7l-0.7,3.5C137.4,128.9,136.9,129.4,136,129.5
		L136,129.5z M70.1,92.9c-0.7,0-1.2-0.7-1.1-1.5l0.9-4.7c0.1-0.7,0.9-1.3,1.6-1.3h5.4c0.8,0,1.3,0.7,1.1,1.3l-0.8,4.7
		c-0.1,0.8-0.9,1.5-1.7,1.5L70.1,92.9L70.1,92.9z M75,103l-4.5,24.8c-0.2,0.7-0.9,1.3-1.7,1.3h-5.4c-0.8,0-1.2-0.7-1.1-1.3l4.5-24.8
		c0.2-0.8,0.9-1.3,1.7-1.3h5.4C74.6,101.7,75.1,102.2,75,103L75,103z M39,128.8L39,128.8c-0.4-0.1-0.8-0.1-1,0
		c-0.1,0.1-0.4,0.3-0.8,0.6l-0.1,0c-0.3,0.2-1,0.4-1.9,0.3c-0.7-0.1-2-0.2-2.8-0.3c-0.8-0.1-1.1-0.7-1.1-1.1c0.1-1,0.6-6,0.8-7
		c0.1-1.3,1.1-2.1,3.8-0.9c16.1,6.9,15.3-6.7,15.6-8.2L56,66c1.2-7.9,9.4-9.4,10.7-9.4c2.3,0,3.9,0.3,4.4,0.1
		c0.4-0.2,0.9-1.3,2.9-1.1c2.6,0.4,3.9,0,3.9,1.7l-1,5.9c-0.1,0.2-0.3,1.8-3.3,0.9c-9-2.6-9.7,3.9-9.8,4.5c0,0.1-4.7,48.2-4.7,48.2
		C56.5,132.6,42.8,129.7,39,128.8L39,128.8z"/>
</g>
</svg>
