<?xml version="1.0" encoding="utf-8"?>
<!-- Generator: Adobe Illustrator 24.0.2, SVG Export Plug-In . SVG Version: 6.00 Build 0)  -->
<svg version="1.1" id="Capa_1" xmlns="http://www.w3.org/2000/svg" xmlns:xlink="http://www.w3.org/1999/xlink" x="0px" y="0px"
	 viewBox="0 0 116 114.9" style="enable-background:new 0 0 116 114.9;" xml:space="preserve">
<g>
	<path d="M26.1,1.1c-14,0-25.4,11.4-25.4,25.4s11.4,25.4,25.4,25.4s25.4-11.4,25.4-25.4S40.1,1.1,26.1,1.1z M26.5,35.4
		c3,0,5.1-1.7,5.7-4.9h5.4c-1.1,5.6-4.8,9.6-11.2,9.6c-6.9,0-11.8-4.6-11.8-13.6c0-9,5.2-13.7,11.9-13.7c7.7,0,10.9,5.3,11.2,9.2
		h-5.4c-0.4-1.5-1.3-4.5-5.7-4.5c-2.6,0-6.4,1.7-6.4,9C20.1,31.3,21.9,35.4,26.5,35.4z"/>
	<path d="M89.9,51.9c14,0,25.4-11.4,25.4-25.4S103.9,1.1,89.9,1.1S64.6,12.5,64.6,26.5S75.9,51.9,89.9,51.9z M77.4,13.6h7.9L90,34
		H90l4.6-20.4h7.8v25.9h-5V17.8h-0.1l-4.8,21.6h-5.3l-4.7-21.6h-0.1v21.6h-5V13.6z"/>
	<path d="M26.1,63.3c-14,0-25.4,11.4-25.4,25.4S12.1,114,26.1,114s25.4-11.4,25.4-25.4S40.1,63.3,26.1,63.3z M28.9,91.9v9.7h-5.4
		v-9.8l-8.9-16.1H21l5.4,11.2l5.1-11.2h6.1L28.9,91.9z"/>
	<path d="M89.9,63.3c-14,0-25.4,11.4-25.4,25.4S75.9,114,89.9,114s25.4-11.4,25.4-25.4S103.9,63.3,89.9,63.3z M94.4,101.6l-8-11.4
		l-2.5,2.6v8.8h-5.4V75.7h5.4v10.5l9.9-10.5h7L90.2,86.3l11.2,15.3H94.4z"/>
</g>
</svg>
