<?xml version="1.0" encoding="utf-8"?>
<!-- Generator: Adobe Illustrator 16.0.3, SVG Export Plug-In . SVG Version: 6.00 Build 0)  -->
<!DOCTYPE svg PUBLIC "-//W3C//DTD SVG 1.1//EN" "http://www.w3.org/Graphics/SVG/1.1/DTD/svg11.dtd">
<svg version="1.1" id="Capa_3" xmlns="http://www.w3.org/2000/svg" xmlns:xlink="http://www.w3.org/1999/xlink" x="0px" y="0px"
	 width="800px" height="800px" viewBox="0 0 800 800" enable-background="new 0 0 800 800" xml:space="preserve">
<path d="M527.006,21.783c131.524,0.023,243.928,84.319,267.99,201.41c11.272,54.807,3.269,107.902-21.663,158.458
	c-35.884,72.731-91.824,130.134-165.647,172.608c-45.933,26.455-96.662,35.05-150.622,31.043
	c-36.87-2.748-72.945-8.967-108.816-16.537c-25.276-5.334-46.799-0.233-64.902,16.515c-33.203,30.699-66.586,61.235-99.202,92.471
	c-22.837,21.848-44.527,44.697-66.688,67.105c-9.217,9.316-18.792,9.643-28.647,0.698c-27.625-25.133-55.224-50.288-82.76-75.514
	c-9.714-8.897-9.038-17.493,1.149-26.134c50.438-42.695,100.85-85.391,151.019-128.348c9.651-8.233,18.165-17.563,27.179-26.413
	c15.816-15.479,19.557-33.564,14.986-53.992c-5.617-25.051-10.761-50.242-15.37-75.467c-13.658-74.943,5.414-141.839,59.527-200.14
	c48.063-51.779,103.964-93.927,173.933-118.978C453.845,27.921,490.101,21.783,527.006,21.783 M765.482,270.372
	c0-2.376,0.141-4.764-0.025-7.116c-0.219-3.668-0.614-7.302-0.958-10.971c-6.319-65.335-38.016-118.383-95.896-156.886
	c-72.624-48.32-152.357-54.108-235.425-26.239c-64.902,21.755-116.347,60.921-160.453,108.519
	c-28.838,31.119-49.799,65.848-55.837,107.017c-0.703,4.705,0.293,7.931,4.084,11.378c92.91,84.551,185.69,169.196,278.42,253.922
	c3.091,2.807,5.949,4.192,10.481,3.633c29.923-3.762,57.854-12.706,83.118-27.706c62.794-37.279,111.215-86.473,144.457-147.79
	C755.818,344.255,765.1,308.222,765.482,270.372 M453.641,554.952c-79.938-72.899-158.69-144.722-238.77-217.755
	c5.629,27.252,10.876,53.666,16.595,79.998c3.409,15.711,6.689,31.397,4.264,47.435c-2.834,18.61-12.715,34.392-26.974,47.389
	c-36.599,33.39-73.582,66.436-110.845,99.231c-18.179,15.979-37.302,31.072-55.646,46.305
	c20.271,18.448,40.327,36.709,60.574,55.134c1.557-1.537,3.472-3.447,5.387-5.357c29.246-29.046,57.982-58.604,87.981-87.044
	c23.897-22.663,48.842-44.488,74.322-65.667c16.826-13.999,37.71-20.648,60.727-18.844c14.042,1.083,27.969,3.622,41.885,5.87
	C399.758,545.909,426.335,550.428,453.641,554.952"/>
<path d="M694.479,751.796c-52.875-0.023-96.074-39.364-96.112-87.579c-0.052-48.285,43.786-88.278,96.585-88.068
	c53.042,0.209,96.241,39.993,96.075,88.511C790.86,712.805,747.61,751.819,694.479,751.796 M694.772,720.771
	c33.741-0.023,61.658-25.412,62.003-56.391c0.333-31.096-27.65-56.624-62.104-56.601c-34.251,0-61.607,24.783-61.901,56.064
	C632.489,694.869,660.713,720.794,694.772,720.771"/>
</svg>
