<?xml version="1.0" encoding="utf-8"?>
<!-- Generator: Adobe Illustrator 16.0.3, SVG Export Plug-In . SVG Version: 6.00 Build 0)  -->
<!DOCTYPE svg PUBLIC "-//W3C//DTD SVG 1.1//EN" "http://www.w3.org/Graphics/SVG/1.1/DTD/svg11.dtd">
<svg version="1.1" id="Capa_2" xmlns="http://www.w3.org/2000/svg" xmlns:xlink="http://www.w3.org/1999/xlink" x="0px" y="0px"
	 width="800px" height="800px" viewBox="0 0 800 800" enable-background="new 0 0 800 800" xml:space="preserve">
<path d="M788.134,260.54c-16.295-15.138-43.642-17.065-63.755-4.322c-9.176,5.806-17.995,11.976-26.958,17.989
	c-24.418,16.375-48.854,32.724-73.935,49.528c-1.569-2.604-2.864-4.634-4.046-6.729c-9.32-16.401-18.528-32.867-27.994-49.242
	c-15.664-27.114-38.885-48.942-70.729-64.588c-18.916-9.281-37.897-18.523-57.121-27.4c-36.571-16.87-75.957-22.089-117.382-16.909
	c-46.376,5.779-92.624,12.184-138.984,17.989c-15.389,1.927-29.354,5.662-40.762,14.605c-4.595,3.605-9.807,6.664-14.79,9.932
	c-30.341,19.889-60.601,39.831-91.038,59.603c-15.129,9.814-22.574,26.528-16.991,41.705c12.363,33.544,58.999,37.423,80.795,20.319
	c27.573-21.634,57.186-41.575,86.135-62.089c2.848-2.018,6.78-3.593,10.518-4.218c23.382-3.905,46.862-7.498,70.309-11.181
	c16.958-2.668,33.933-5.35,52.413-8.252c-2.508,3.449-4.046,5.675-5.696,7.836c-27.169,35.874-54.387,71.735-81.54,107.622
	c-33.593,44.4-20.972,94.058,31.522,124.153c31.133,17.872,62.331,35.652,93.497,53.498c19.708,11.272,39.386,22.571,59.305,34.013
	c-1.618,2.968-2.961,5.52-4.369,8.031c-21.246,37.807-42.589,75.581-63.674,113.46c-12.557,22.492-1.02,48.344,25.438,57.897
	c27.525,9.971,59.354,0.286,71.716-22.545c26.199-48.344,52.252-96.739,77.641-145.344c16.165-30.96,3.997-65.324-29.079-85.799
	c-9.725-6.026-19.611-11.846-29.402-17.781c-24.175-14.656-48.35-29.326-72.914-44.217c29.774-36.069,59.193-71.683,89.016-107.791
	c2.492,2.499,4.175,4.087,5.745,5.753c19.741,20.957,39.321,42.031,59.257,62.896c20.971,21.907,59.015,26.463,85.632,9.047
	c43.06-28.142,85.407-57,127.513-86.092C802.552,298.705,803.991,275.249,788.134,260.54"/>
<path d="M250.354,480.756c-0.874,1.822-1.554,2.863-1.861,3.97c-10.065,37.071-20.211,74.117-30.017,111.247
	c-1.505,5.648-4.434,9.189-11.214,11.949c-57.979,23.638-115.715,47.641-173.5,71.591c-26.004,10.778-36.085,33.583-23.738,53.368
	c12.249,19.63,42.104,27.882,67.396,18.094c64.873-25.044,129.712-50.192,194.358-75.627c25.017-9.866,42.833-25.721,50.195-47.354
	c10.211-30.042,18.674-60.456,27.541-90.784c0.551-1.836-0.89-5.22-2.783-6.223C315.064,514.261,283.154,497.781,250.354,480.756"/>
<path d="M553.047,176.348c53.643-0.143,98.093-36.095,97.851-79.193c-0.227-43.45-44.16-78.425-98.449-78.399
	c-54.305,0.039-97.494,34.989-97.461,78.881C455.019,141.073,499.114,176.492,553.047,176.348"/>
</svg>
