<?xml version="1.0" encoding="utf-8"?>
<!-- Generator: Adobe Illustrator 16.0.3, SVG Export Plug-In . SVG Version: 6.00 Build 0)  -->
<!DOCTYPE svg PUBLIC "-//W3C//DTD SVG 1.1//EN" "http://www.w3.org/Graphics/SVG/1.1/DTD/svg11.dtd">
<svg version="1.1" id="Capa_3" xmlns="http://www.w3.org/2000/svg" xmlns:xlink="http://www.w3.org/1999/xlink" x="0px" y="0px"
	 width="800px" height="800px" viewBox="0 0 800 800" enable-background="new 0 0 800 800" xml:space="preserve">
<path d="M510.794,712.642c-2.953,4.298-6.273,8.515-8.786,12.875c-3.246,5.655-9.483,8.082-20.269,7.918
	c-21.259-0.268-42.537-0.082-65.116-0.082c0,4.833-0.11,8.967,0.018,13.121c0.166,5.368-4.641,8.433-13.812,8.968
	c-8.401,0.473-14.326-3.414-14.582-9.152c-0.166-3.97-0.019-7.96-0.019-12.916h-55.982c-23.754,0-23.736-0.021-32.302-12.382
	c-2.073-2.961-4.347-5.902-8.383-8.576c-0.77,4.319-1.412,8.638-2.348,12.937c-1.21,5.532-6.732,8.576-16.857,7.692
	c-9.667-0.823-12.675-4.833-11.904-9.79c2.165-14.13,4.971-28.238,6.566-42.389c0.477-4.216-0.88-8.864-3.668-12.834
	c-28.504-40.805-54.203-82.062-70.344-125.088c-23.735-63.341-31.274-127.14-21.296-191.658
	C190.182,231.842,261.976,123.455,385.44,25.7c12.454-9.852,21.57-9.769,34.228,0.206c105.177,82.906,173.063,174.5,202.778,274.857
	c16.783,56.703,19.627,113.766,9.392,170.984c-11.354,63.588-38.557,125.104-82.946,183.945
	c-12.491,16.577-11.188,32.537-7.942,49.237c1.192,6.17,2.422,12.34,3.21,18.531c0.643,4.997-2.567,8.885-12.308,9.625
	c-9.557,0.761-15.06-2.118-16.436-7.261c-1.118-4.318-1.467-8.699-2.164-13.06C512.445,712.724,511.619,712.683,510.794,712.642
	 M403.251,40.981c-1.779,0.638-2.623,0.792-3.008,1.101c-40.923,32.753-75.719,67.439-104.646,103.966
	c-1.449,1.851-1.431,4.278-0.972,6.345c5.595,24.814,13.28,49.546,16.747,74.463c5.943,43.067,12.161,86.237,13.06,129.397
	c1.064,49.186-0.146,98.547-6.695,147.558c-6.383,47.834-20.837,95.322-31.366,142.977c-0.88,3.969-0.183,8.433,2.238,12.155
	c11.446,17.667,23.938,35.107,35.604,52.754c2.714,4.113,6.181,5.718,14.454,5.677c42.335-0.288,84.67-0.247,126.986-0.042
	c7.833,0.042,11.96-1.049,14.803-5.388c12.29-18.675,25.387-37.186,37.805-55.819c1.541-2.324,1.706-5.162,1.045-7.63
	c-6.181-23.426-13.592-46.77-18.911-70.257c-12.602-55.443-19.26-111.129-20.323-167.061c-1.578-84.149,5.979-167.929,28.89-251.194
	c1.174-4.257,3.394-9.296,0.642-12.885C480.933,109.767,445.091,74.649,403.251,40.981 M263.81,620.46
	c21.608-72.848,31.861-146.062,32.522-219.752c0.642-73.661-5.705-147.013-25.185-219.933
	C174.077,326.923,171.583,473.504,263.81,620.46 M534.511,179.51c-36.905,64.272-31.421,379.064,7.687,441.732
	C633.213,473.145,630.572,326.656,534.511,179.51"/>
</svg>
