<?xml version="1.0" encoding="utf-8"?>
<!-- Generator: Adobe Illustrator 16.0.3, SVG Export Plug-In . SVG Version: 6.00 Build 0)  -->
<!DOCTYPE svg PUBLIC "-//W3C//DTD SVG 1.1//EN" "http://www.w3.org/Graphics/SVG/1.1/DTD/svg11.dtd">
<svg version="1.1" id="Capa_2" xmlns="http://www.w3.org/2000/svg" xmlns:xlink="http://www.w3.org/1999/xlink" x="0px" y="0px"
	 width="800px" height="800px" viewBox="0 0 800 800" enable-background="new 0 0 800 800" xml:space="preserve">
<path d="M318.608,555.309c-34.621-31.173-68.564-61.729-103.137-92.853c2.083-2.17,4.385-4.602,6.747-6.979
	c129.557-130.96,259.019-262.008,388.817-392.794c29.51-29.75,67.049-39.554,109.484-29.183
	c42.857,10.502,68.492,37.274,76.414,76.217c7.232,35.551-4.566,66.729-34.768,90.938
	C616.874,317.167,471.29,433.383,325.804,549.703C323.442,551.579,321.031,553.411,318.608,555.309"/>
<path d="M599.989,667.763c-51.801-2.813-106.021-51.319-109.703-98.801c42.494,1.286,79.49-10.949,109.605-38.13
	c30.09-27.165,43.73-60.502,42.471-98.747c52.283,3.119,106.432,51.701,109.703,98.627c-42.471-0.992-79.299,11.357-109.703,38.337
	C611.933,596.072,598.97,629.246,599.989,667.763"/>
<path d="M178.815,704.73c-0.92,15.639-8.116,28.639-25.1,35.901c-17.541,7.48-34.427,5.758-50.2-4.384
	c-2.023-1.287-3.853-2.879-5.621-4.45c-26.578-23.904-53.18-47.764-79.685-71.734c-14.1-12.78-18.401-28.135-12.235-45.169
	c10.151-28.005,50.563-37.471,74.767-16.815c29.388,25.081,57.625,51.276,86.032,77.296
	C175.229,683.096,178.403,693.237,178.815,704.73"/>
<path d="M97.919,581.524c18.328-18.648,37.117-37.797,56.499-57.497c16.148,14.569,31.957,28.882,47.85,43.168
	c15.76,14.154,31.568,28.31,47.97,42.988c-21.683,17.295-43.04,34.33-63.888,50.949C156.841,634.567,127.792,608.395,97.919,581.524
	"/>
<path d="M753.228,553.629c10.248,53.458-66.65,123.534-127.752,116.489C617.479,605.821,679.817,547.348,753.228,553.629"/>
<path d="M616.646,429.883c4.518,65.43-51.17,121.129-128.783,115.981C485.126,485.641,545.04,429.522,616.646,429.883"/>
<path d="M171.28,506.557c8.674-8.474,18.002-17.591,26.917-26.292l100.593,90.551c-9.485,7.896-19.576,16.314-29.17,24.274
	C236.779,565.516,204.23,536.208,171.28,506.557"/>
</svg>
