<?xml version="1.0" encoding="utf-8"?>
<!-- Generator: Adobe Illustrator 16.0.3, SVG Export Plug-In . SVG Version: 6.00 Build 0)  -->
<!DOCTYPE svg PUBLIC "-//W3C//DTD SVG 1.1//EN" "http://www.w3.org/Graphics/SVG/1.1/DTD/svg11.dtd">
<svg version="1.1" id="Capa_3" xmlns="http://www.w3.org/2000/svg" xmlns:xlink="http://www.w3.org/1999/xlink" x="0px" y="0px"
	 width="800px" height="800px" viewBox="0 0 800 800" enable-background="new 0 0 800 800" xml:space="preserve">
<path d="M707.315,427.968c50.153-54.31,77.874-117.008,79.435-194.811c-0.86-7.654-1.665-21.012-4.029-34.142
	c-10.099-56.107-39.136-101.861-89.185-134.81c-56.594-37.264-120.352-47.629-187.115-34.749
	c-118.779,22.899-200.218,89.317-247.855,192.414c-10.902,23.614-15.002,48.919-20.069,74.05
	c-12.729,63.036-26.509,125.898-40.194,188.761c-1.036,4.771,0.28,7.296,3.902,10.159c31.169,24.621,62.301,49.276,93.213,74.186
	c4.101,3.296,7.851,4.163,12.883,3.188c69.814-13.423,139.675-26.691,209.479-40.143
	C593.673,517.479,656.883,482.578,707.315,427.968 M735.152,287.215c-11.531,11.774-24.018,22.758-35.942,33.827
	c-14.77-13.725-29.26-27.212-43.388-40.353c14.269-13.282,28.746-26.748,43.526-40.517c12.3,11.362,25.426,22.92,37.538,35.345
	C738.798,277.469,737.599,284.7,735.152,287.215 M574.28,204.024c-14.071-13.064-28.538-26.53-42.771-39.779
	c13.908-12.945,28.234-26.259,42-39.042c14.071,13.162,28.596,26.747,42.617,39.877L574.28,204.024z M635.812,183.75
	c13.663,12.707,28.095,26.097,42.524,39.486c-13.371,12.436-27.675,25.74-41.486,38.619c-14.025-13.139-28.374-26.605-42.305-39.67
	C608.021,209.63,622.313,196.327,635.812,183.75 M553.979,222.607c-13.664,12.729-28.081,26.162-42.479,39.596
	c-13.93-12.946-28.245-26.27-42.002-39.053c14.143-13.195,28.562-26.65,42.423-39.596
	C525.604,196.272,540.047,209.673,553.979,222.607 M492.702,280.559c-14.27,13.086-28.807,26.433-42.957,39.411
	c-13.99-13.032-28.432-26.487-42.512-39.606c13.978-12.978,28.43-26.411,42.478-39.455
	C463.79,253.909,478.316,267.288,492.702,280.559 M387.664,262.452c-14.232-13.292-28.674-26.791-42.676-39.877
	c14.083-13.097,28.536-26.552,42.722-39.768c13.956,13.14,28.329,26.682,42.363,39.876
	C416.084,235.792,401.666,249.301,387.664,262.452 M388.329,299.424c13.243,12.337,27.71,25.814,41.732,38.89
	c-14,13.184-28.374,26.726-42.35,39.91c-14.15-13.173-28.489-26.487-42.186-39.226C359.478,326.095,374.107,312.575,388.329,299.424
	 M450.328,357.071c13.547,12.598,27.836,25.901,41.442,38.554c-13.966,13.021-28.362,26.443-42.188,39.313
	c-13.231-12.372-27.628-25.804-41.44-38.717C421.418,383.904,435.885,370.493,450.328,357.071 M470.664,338.194
	c13.277-12.359,27.837-25.945,42.186-39.324c13.467,12.544,27.804,25.88,41.989,39.086c-14.325,12.967-28.968,26.183-42.966,38.869
	C498.746,364.529,484.396,351.075,470.664,338.194 M531.347,280.385c14.07-13.087,28.571-26.574,42.722-39.747
	c14.118,13.129,28.618,26.617,42.77,39.779c-14.068,13.098-28.558,26.585-42.724,39.747
	C560.069,307.1,545.556,293.623,531.347,280.385 M636.64,299.532c13.614,12.652,28.024,26.074,41.964,39.053
	c-13.721,12.826-27.988,26.162-42.256,39.508c-14.059-13.086-28.361-26.389-42.059-39.129
	C608.359,325.878,622.754,312.466,636.64,299.532 M743.936,246.688c-9.586-9.345-17.402-16.968-25.078-24.471
	c6.58-6.212,13.709-12.912,22.422-21.109C742.175,216.46,743.002,230.685,743.936,246.688 M701.633,122.873
	c13.09,13.813,23.142,30.521,30.131,48.843c0.43,1.204-0.488,3.426-1.573,4.445c-10.155,9.714-20.476,19.256-30.889,28.97
	c-14.861-13.889-29.153-27.245-42.851-40.04C671.162,151.333,686.221,137.271,701.633,122.873 M624.887,76.501
	c0.805-0.727,2.762-1.117,3.808-0.748c19.64,6.591,37.541,15.949,52.95,28.406c-15.327,14.322-30.271,28.275-44.563,41.633
	c-13.837-12.902-28.257-26.346-43.306-40.354C603.419,96.439,614.089,86.411,624.887,76.501 M573.509,65.366
	c7.573,0.326,15.097,1.313,21.455,1.919c-6.919,6.429-14.196,13.173-20.604,19.125c-6.593-6.147-14.839-13.824-22.678-21.142
	C557.984,65.269,565.765,65.008,573.509,65.366 M484.943,90.574c6.336-5.736,12.416-11.71,18.799-17.413
	c5.683-5.073,11.205-4.922,16.632,0.13c11.836,10.961,23.656,21.977,35.547,33.025c-14.965,13.942-29.314,27.321-43.21,40.266
	c-14.291-13.368-28.734-26.844-44.342-41.449C473.298,100.819,479.191,95.767,484.943,90.574 M492.002,164.667
	c-13.838,12.881-28.163,26.206-41.824,38.913c-13.779-12.783-28.224-26.217-42.596-39.563
	c13.639-12.707,27.977-26.053,41.896-39.009C463.56,138.148,478.001,151.614,492.002,164.667 M400.641,117.591
	c6.406-4.564,13.195-8.716,19.964-12.88c5.426-3.35,5.521-3.22,10.343,1.811c-14.643,13.618-28.979,26.942-43.085,40.061
	c-3.424-3.166-7.046-6.493-11.518-10.625C384.125,130.027,392.207,123.609,400.641,117.591 M322.813,195.882
	c11.181-14.051,22.153-28.21,33.905-43.227c4.974,4.901,8.375,8.262,11.683,11.514c-14.443,13.174-29.025,26.466-44.109,40.257
	C320.785,202.896,319.26,200.338,322.813,195.882 M289.058,273.099c11.764-11.308,23.865-22.323,35.478-33.111
	c14.839,13.823,29.304,27.3,43.328,40.365c-13.859,12.967-28.28,26.454-43.63,40.798c-5.148-4.922-10.867-10.451-16.668-15.927
	c-5.858-5.541-11.822-11.016-17.716-16.523C284.841,284.028,284.166,277.794,289.058,273.099 M280.194,316.489
	c0.641-0.021,1.305-0.043,1.958-0.065c7.873,7.361,15.735,14.735,23.026,21.564c-6.802,6.354-14.117,13.163-22.188,20.719
	C282.058,344.679,281.126,330.594,280.194,316.489 M292.413,389.597c-0.513-1.29,0.093-3.675,1.141-4.673
	c10.309-9.813,20.802-19.472,30.808-28.764c14.805,13.781,29.258,27.225,43.177,40.181c-14.513,13.519-29.561,27.572-44.913,41.882
	C309.371,424.129,299.412,407.648,292.413,389.597 M394.898,484.649c-19.509-6.322-37.144-15.655-52.378-27.896l44.68-41.58
	c13.766,12.815,28.303,26.378,43.234,40.278c-9.62,8.922-20.045,18.671-30.643,28.244
	C398.752,484.628,396.284,485.092,394.898,484.649 M427.383,493.604c8.432-7.785,15.514-14.313,21.815-20.112
	c7.374,6.798,15.501,14.301,24.54,22.626C458.341,495.284,443.316,494.472,427.383,493.604 M520.235,487.674
	c-5.241,4.736-11.917,4.379-16.959-0.271c-11.694-10.798-23.388-21.608-34.522-31.897c14.907-13.911,29.352-27.398,43.329-40.441
	c13.638,12.717,28.093,26.183,43.164,40.202C543.972,465.74,532.231,476.842,520.235,487.674 M531.546,396.091
	c13.905-12.805,28.453-26.227,42.522-39.184c13.955,12.967,28.442,26.411,42.433,39.4c-13.849,12.933-28.28,26.411-42.291,39.507
	C560.337,422.894,545.882,409.438,531.546,396.091 M598.016,460.47c-2.165-2.448-3.61-4.075-4.657-5.245
	c14.838-13.803,29.247-27.215,43.619-40.583c3.272,2.949,6.85,6.147,11.587,10.408C631.921,436.705,615.5,448.219,598.016,460.47
	 M656.276,397.11c14.141-13.206,28.583-26.671,43.468-40.571c0.698,0.553,2.398,1.941,5.358,4.326
	c-12.672,15.688-25.182,31.182-37.865,46.902C662.565,403.235,659.118,399.885,656.276,397.11"/>
<path d="M5.573,677.361c27.977,26.041,54.476,50.675,80.507,74.918c61.347-57.008,123.054-114.319,185.111-171.999
	c-28.327-22.507-57.119-45.401-85.643-68.082C125.063,567.704,65.103,622.738,5.573,677.361"/>
<path d="M750.526,551.788c-40.394-29.931-101.495-26.199-133.676-0.152c43.969,56.271,43.944,112.302-0.151,168.42
	c32.904,27.604,99.747,27.625,133.757-0.413c-21.698-24.176-33.288-52.148-33.345-83.699
	C717.053,604.22,728.782,576.096,750.526,551.788"/>
<path d="M597.132,568.484c-36.201,36.842-35.268,99.052,0.419,134.918C636.71,662.052,629.813,599.081,597.132,568.484"/>
<path d="M768.778,568.614c-37.375,38.36-33.369,102.175,0.583,134.507C808.415,663.742,801.892,598.214,768.778,568.614"/>
</svg>
