<?xml version="1.0" encoding="utf-8"?>
<!-- Generator: Adobe Illustrator 16.0.3, SVG Export Plug-In . SVG Version: 6.00 Build 0)  -->
<!DOCTYPE svg PUBLIC "-//W3C//DTD SVG 1.1//EN" "http://www.w3.org/Graphics/SVG/1.1/DTD/svg11.dtd">
<svg version="1.1" id="Capa_2" xmlns="http://www.w3.org/2000/svg" xmlns:xlink="http://www.w3.org/1999/xlink" x="0px" y="0px"
	 width="800px" height="800px" viewBox="0 0 800 800" enable-background="new 0 0 800 800" xml:space="preserve">
<path d="M611.853,123.176c-1.508,14.164-3.841,28.265-4.258,42.478c-0.356,11.729,2.017,23.544,2.261,35.334
	c0.133,6.907,0.021,15.038-2.729,20.571c-6.031,12.14-14.018,22.782-20.821,34.373c-4.014,6.856-6.938,14.701-10.971,21.533
	c-7.09,12.053-16.237,14.913-27.239,7.706c-6.54-4.272-13.089-10.591-19.985-11.391c-6.255-0.75-14.872,2.673-18.906,8.168
	c-2.943,4.022-0.407,14.401,0.143,21.895c0.988,13.364,4.788,27.228,2.975,39.93c-2.863,19.946-4.614,37.583,7.109,54.769
	c9.179,13.439,1.294,21.807-13.242,28.415c9.474,3.409,15.097,5.42,23.919,8.594c-5.868-24.831,8.679-29.202,19.659-39.531
	c12.876-12.103,25.13-27.878,32.607-45.313c13.049-30.425,21.972-63.486,33.197-95.136c3.565-10.042,3.188-26.416,18.009-23.168
	c16.717,3.647,30.356,23.231,28.513,40.467c-0.825,7.731-2.72,15.3-4.125,22.881c16.939,11.953,16.44,11.553,5.725,31.05
	c-4.778,8.73-8.404,19.122-10.269,29.389c-4.828,26.616-17.164,45.701-35.326,60.463c-5.521,4.472-11.46,10.53-14.067,17.611
	c-5.929,16.063-0.785,22.557,13.456,21.995c23.745-0.938,47.571,0.361,71.274-1.3c7.264-0.512,15.035-6.282,21.117-12.002
	c6.569-6.146,11.327-15.164,17.093-22.695c7.16-9.354,16.195-17.723,4.573-31.737c-1.497-1.798,0.621-12.415,3.28-14.338
	c12.274-8.793,25.027-16.937,38.229-23.431c8.801-4.322,16.319,0.262,20.689,11.428c5.928,15.163,3.738,29.976-6.337,39.218
	c-5.235,4.81-10.635,9.343-15.84,13.877c5.593,6.919,9.605,11.89,13.619,16.848c-4.92,4.984-9.892,9.893-14.739,15.014
	c-8.853,9.317-17.521,18.909-26.476,28.077c-8.077,8.256-15.818,17.361-24.772,23.918c-23.246,16.975-47.5,31.938-70.389,49.56
	c-5.776,4.447-8.098,15.775-11.766,24.132c-0.896,2.042-0.774,4.714-1.191,7.087c-8.883,50.56-12.193,51.884-53.265,43.641
	c-26.72-5.37-54.193-8.368-81.207-7.394c-38.871,1.423-71.448-10.292-94.652-50.566c-3.433-5.958-6.031-12.627-9.015-18.959
	c-2.354,1.686-4.717,3.359-7.069,5.033c7.181,17.823,13.436,35.415-4.493,50.503c14.037,0.899,28.054,1.799,44.76,2.872
	c-22.349,26.055-49.414,36.071-76.735,52.084c14.903,4.695,22.034,13.613,19.854,31.249c-3.138,25.454-18.296,11.142-33.769,11.716
	c13.588,18.71,24.02,33.073,36.152,49.785h-77.03c-85.75,0-171.479,0-257.228,0c-7.742,0-16.258,2.197-19.14-10.816
	c-0.235-0.999-1.253-1.849-2.007-2.599C2.498,717.902,2.6,717.953,10.046,689.4c16.411-62.899,42.396-115.95,94.266-144.465
	c14.801-8.143,19.599-39.08,11.531-60.102c-11.001-28.664-7.253-38.606,13.13-57.915c29.327-27.753,58.358-56.455,84.956-87.979
	c33.625-39.881,68.381-77.225,108.801-106.552c14.363-10.417,26.444-25.442,40.267-37.095c6.041-5.108,13.763-9.642,20.873-10.017
	c29.113-1.561,48.192-20.545,53.397-56.042c3.056-20.845,5.337-41.841,8.23-62.712c3.667-26.191,17.194-42.866,37.955-43.527
	c27.869-0.875,56.361,0.137,83.65,6.444c29.704,6.87,47.103,34.71,54.742,69.632c1.549,7.044-5.592,16.936-8.719,25.517
	C612.697,124.125,612.27,123.663,611.853,123.176 M364.84,242.243c5.002,5.133,7.233,8.093,9.942,10.117
	c19.212,14.463,32.556,34.947,41.826,59.876c12.61,33.96,11.153,42.491-10.41,68.72c-3.79,4.621-8.842,14.738-7.376,17.436
	c3.301,6.045,9.942,10.679,15.973,12.853c8.628,3.122,17.929,3.521,28.359,5.358c-4.625,11.378-8.23,19.921-11.603,28.613
	c-3.402,8.743-7.019,17.411-9.748,26.467c-8.781,29.302-0.713,41.279,24.773,37.282c1.477-0.237,2.923-0.612,4.38-1.037
	c12.896-3.709,20.699,1.962,24.366,18.023c3.769,16.512,9.045,17.811,19.364,5.944c5.888-6.743,11.572-13.751,17.338-20.646
	c1.212,0.861,2.414,1.712,3.636,2.562c-2.047,12.877-4.727,25.666-5.888,38.668c-0.764,8.405-1.854,20.271,1.884,24.786
	c3.902,4.722,13.681,4.446,20.384,2.948c14.913-3.298,29.552-8.587,44.25-13.309c12.754-4.097,22.156-13.188,20.882-30.476
	c-3.249-44.227-14.393-85.668-32.158-128.009c-5.002,10.854-8.199,19.658-12.784,27.228c-4.89,8.057-10.431,20.06-16.848,21.309
	c-16.441,3.159-21.117,17.511-27.138,32.023c-1.558,3.772-4.155,6.92-8.771,14.351c0-15.425,0.724-25.69-0.214-35.732
	c-0.743-7.907-1.771-19.56-5.847-22.195c-4.299-2.785-12.824,1.986-18.662,5.546c-10.166,6.244-19.7,14.089-29.499,21.258
	c-1.468-2.36-2.935-4.722-4.4-7.069c8.546-9.93,16.521-20.721,25.751-29.576c22.186-21.296,25.588-33.873,14.882-65.71
	c-4.533-13.476-10.176-26.403-15.33-39.567c0.978-1.162,1.945-2.349,2.914-3.51c7.109,10.316,14.229,20.608,23.887,34.597
	c0.753-47.562-8.221-84.119-37.456-108.912C428.384,229.428,398.945,227.08,364.84,242.243 M242.338,685.029
	c-2.822,4.521-5.174,8.193-7.436,11.939c-10.513,17.287-19.792,21.708-35.836,13.864c-17.836-8.742-35.103-19.284-52.593-29.101
	c-9.32-5.222-10.023-12.566-2.862-20.983c22.696-26.679,47.235-49.785,78.466-59.627c2.984-0.95,5.837-2.448,10.105-4.271
	c-34.644-31.257-72.069-40.474-112.193-36.776c-3.229,0.299-6.968,1.96-9.362,4.521c-33.065,35.752-57.176,78.393-66.497,132.148
	c-1.895,10.991-0.896,18.735,10.39,20.409c50.016,7.318,99.929,15.588,149.965,22.757
	C238.02,744.706,249.876,727.595,242.338,685.029 M311.912,264.537c-4.075,2.535-5.857,3.485-7.498,4.671
	c-49.384,36.357-89.926,85.193-127.311,138.051c-4.93,6.981-6.01,19.722-6.05,29.8c-0.041,11.703-1.671,15.863-11.715,12.328
	c-3.82-1.324-8.546,1.198-12.865,1.974c1.334,5.396,1.314,12.715,4.258,15.925c14.271,15.562,27.636,34.959,44.525,43.79
	c28.338,14.837,58.99,23.206,88.948,33.035c5.644,1.849,12.56-2.148,21.372-3.946c-64.256-65.76-69.798-149.83-15.626-196.217
	c4.136,9.417,8.261,18.81,13.609,30.963C306.513,335.83,309.121,301.395,311.912,264.537 M571.596,256.968
	c6.091-20.746,10.502-40.58,17.734-58.752c5.164-12.977,5.398-21.795-3.158-32.187c-10.645-12.927-9.188-18.56,2.729-28.065
	c4.563-3.647,10.604-11.828,9.861-16.474c-1.09-6.745-7.701-12.14-10.859-16.537c-10.686,10.604-18.009,18.572-25.904,25.554
	c-18.061,15.962-20.118,34.535-5.226,54.182c8.271,10.891,11.776,20.746,3.443,35.184
	C553.361,231.763,559.076,249.336,571.596,256.968 M341.024,275.528c-21.035,25.805-21.819,48.661-7.211,67.508
	c2.383-13.115,4.971-27.403,7.579-41.679c1.548,0.325,3.116,0.675,4.665,1c23.613,59.04,16.482,129.258,42.967,185.825
	c-7.854-52.233-14.648-106.015-24.61-158.885C360.97,310.987,349.724,294.862,341.024,275.528 M454.298,153.951
	c-7.273,9.942-14.22,19.41-20.413,27.878c16.716,18.547,31.782,35.247,47.388,52.545
	C484.022,206.658,471.778,182.965,454.298,153.951 M633.223,466.624c-12.273,1.562-26.229-1.125-29.03,4.509
	c-8.607,17.312,5.327,28.939,13.548,45.126C622.854,499.86,627.151,486.071,633.223,466.624"/>
</svg>
