<?xml version="1.0" encoding="utf-8"?>
<!-- Generator: Adobe Illustrator 16.0.3, SVG Export Plug-In . SVG Version: 6.00 Build 0)  -->
<!DOCTYPE svg PUBLIC "-//W3C//DTD SVG 1.1//EN" "http://www.w3.org/Graphics/SVG/1.1/DTD/svg11.dtd">
<svg version="1.1" id="Capa_1" xmlns="http://www.w3.org/2000/svg" xmlns:xlink="http://www.w3.org/1999/xlink" x="0px" y="0px" width="800px" height="800px" viewBox="0 0 800 800" enable-background="new 0 0 800 800" xml:space="preserve">
	<path d="M121.894,692.866c73.32,20.404,168.914-67.159,168.594-157.558c-0.181-52.188-32.367-114.031-84.398-127.842
		C133.624,388.261,46.14,468.357,40.68,553.624C37.03,610.432,69.269,678.217,121.894,692.866"/>
	<path d="M504.836,131.276c31.238,0,56.563-25.246,56.563-56.387c0-31.143-25.324-56.389-56.563-56.389
		c-31.236,0-56.561,25.246-56.561,56.389C448.275,106.03,473.6,131.276,504.836,131.276"/>
	<path d="M484.52,467.127c-3.645,56.807,28.605,124.569,81.221,139.218c73.328,20.429,168.912-67.161,168.609-157.533
		c-0.195-52.211-32.365-114.037-84.41-127.837C577.477,301.753,489.992,381.867,484.52,467.127"/>
	<path d="M801.785,514.786c-2.908,1.719-7.475,4.41-13.168,7.615c-10,5.618-11.898,6.314-15.707,9.31
		c-5.527,4.317-9.021,8.681-11.898,12.28c-4.863,6.06-4.295,6.848-9.359,13.558c-3.631,4.828-7.545,10.027-13.996,15.229
		c-6.17,4.991-12.246,8.032-15.717,9.726c-5.193,2.577-5.984,2.369-11.035,5.108c-3.891,2.088-5.523,3.32-12.738,8.032
		c-8.057,5.27-7.195,4.48-11.9,7.614c-8.127,5.434-8.531,6.313-17.836,12.72c-6.73,4.622-10.199,6.99-14.867,9.31
		c-2.098,1.046-6.883,3.392-12.729,5.086c-6.426,1.832-11.162,2.042-25.496,2.088c-18.359,0.07-18.885-0.231-27.594,0
		c-8.824,0.279-14.973,0.465-23.355,1.719c-5.879,0.882-13.773,2.09-23.354,5.502c-3.402,1.206-9.244,4.062-20.818,9.75
		c-13.191,6.453-14.635,7.358-20.807,10.145c-9.23,4.154-13.844,6.244-18.684,7.614c-2.797,0.813-11.609,3.133-36.096,1.277
		c-4.154-0.325-6.961-0.604-31.002-3.807c-26.6-3.528-28.782-3.924-34.395-3.809c-3.091,0.047-15.288,0.395-30.579,4.668
		c-3.733,1.02-14.717,4.247-28.03,11.42c-14.606,7.869-13.938,10.726-32.705,21.59c-10.071,5.851-17.883,9.426-22.505,11.421
		c-7.743,3.366-13.64,5.921-20.806,7.617c-7.312,1.763-14.093,2.182-34.41,0.44c-12.254-1.047-20.147-2.091-40.331-4.668
		c-30.271-3.852-33.624-4.225-38.224-4.666c-11.613-1.068-23.25-2.112-38.654-2.089c-10.869,0-21.9,0.047-36.517,2.089
		c-18.978,2.693-32.595,7.149-36.53,8.473c-8.26,2.811-15.031,5.735-19.944,8.056v19.06c11.637-6.407,29.41-14.511,52.23-18.642
		c14.012-2.529,24.682-2.414,45.435-2.111c40.692,0.603,63.535,0.952,90.453,8.031c6.486,1.718,18.053,5.085,33.979,5.085
		c13.46,0,23.799-2.415,27.601-3.367c13.01-3.342,21.557-8.17,38.654-17.782c11.503-6.498,12.638-7.961,30.58-18.224
		c14.833-8.472,18.78-10.168,20.806-11.004c15.077-6.22,27.779-7.661,31.854-8.032c2.876-0.277,9.181-0.742,35.244,2.531
		c28.543,3.599,28.879,5.13,41.615,5.501c9.455,0.256,22.32,0.535,37.793-3.807c10.258-2.878,17.885-6.732,30.586-13.116
		c15.123-7.638,18.396-10.958,29.727-14.394c7.939-2.437,14.607-3.32,21.654-4.247c4.121-0.535,11.152-1.347,27.174-1.694
		c26.475-0.581,25.824,1.184,36.512-0.42c6.135-0.905,16.93-2.599,28.896-8.89c2.131-1.115,7.113-4.574,16.986-11.423
		c10.279-7.173,14.775-10.422,23.764-16.528c11.387-7.707,14.613-9.564,18.699-11.443c8.254-3.739,9.082-2.53,15.287-5.503
		c10.932-5.176,17.521-13.302,22.504-19.453c6.916-8.498,6.301-10.818,14.879-20.756c3.098-3.597,6.031-6.963,10.596-10.584
		c7.045-5.549,13.947-8.544,18.699-10.145C802.053,527.485,801.926,521.125,801.785,514.786"/>
	<path d="M260.612,305.548c0.239,1.138,0.454,2.147,0.634,2.948c11.049,48.275,16.567,72.417,17.406,74.971
		c3.144,9.728,11.014,42.826,26.726,109.058c2.3,9.726,11.829,49.956,29.212,101.005c7.452,21.845,10.811,29.529,13.051,29.135
		c4.022-0.72,1.764-27.046-3.108-99.149c-3.4-50.214-8.011-100.334-10.566-150.575c-0.809-15.948-2.992-31.805-4.349-47.729
		c-1.839-21.461-2.98-36.157-7.312-49.389c3.195-2.298,6.404-4.701,9.646-7.208c-0.18,3.018,0.047,6.047,0.774,8.903
		c1.363,5.292,4.628,10.992,17.395,20.429c10.054,7.417,26.493,17.539,50.349,24.178l22.996,6.199
		c-1.42,3.18-3.553,7.916-6.207,13.626c-8.109,17.434-13.32,27.324-21.761,44.003c-7.725,15.246-17.703,35.258-27.971,60.724
		c-6.555,16.249-7.794,21.289-6.211,22.31c2.468,1.601,10.46-7.405,30.452-28.508c26.679-28.184,30.476-31.177,47.23-50.185
		c18.348-20.812,23.459-28.171,27.986-37.816c4.684-9.983,10.152-22.02,7.453-36.551c-2.189-11.829-8.709-19.524-14.916-26.639
		c-13.051-14.985-27.336-21.381-51.588-32.222c-5.564-2.496-18.488-8.068-36.052-11.771c-4.354-0.928-7.905-1.486-10.921-1.856
		c1.752-1.66,3.505-3.297,5.246-5.026c16.631-16.587,30.784-33.649,41.809-49.784c6.836,8.915,12.609,14.823,14.832,17.005
		c4.402,4.341,17.383,16.75,37.293,28.497c7.148,4.236,17.695,9.831,31.086,14.868c16.254,6.117,28.734,8.369,44.125,11.167
		c22.088,3.993,39.701,5.142,49.109,5.56c23.52,1.068,47.176-0.128,47.225-1.846c0.043-1.172-10.828-1.579-29.227-5.583
		c-1.977-0.44-16.146-3.551-31.061-8.671c-26.324-9.031-44.963-20.835-55.93-27.892c-17.268-11.073-28.225-18.096-39.773-31.596
		c-9.246-10.771-16.322-22.68-18.666-26.638c-10.58-17.991-9.627-22.564-18.637-32.849c-1.178-1.347-2.654-3.006-4.311-4.724
		c-0.113-6.43-1.816-11.724-5.471-15.345c-18.174-18.131-75.58,9.739-128.216,62.214c-52.649,52.477-80.58,109.713-62.412,127.831
		C242.92,305.536,250.786,306.964,260.612,305.548"/>
</svg>
