<?xml version="1.0" encoding="utf-8"?>
<!-- Generator: Adobe Illustrator 16.0.3, SVG Export Plug-In . SVG Version: 6.00 Build 0)  -->
<!DOCTYPE svg PUBLIC "-//W3C//DTD SVG 1.1//EN" "http://www.w3.org/Graphics/SVG/1.1/DTD/svg11.dtd">
<svg version="1.1" id="Capa_3" xmlns="http://www.w3.org/2000/svg" xmlns:xlink="http://www.w3.org/1999/xlink" x="0px" y="0px"
	 width="800px" height="800px" viewBox="0 0 800 800" enable-background="new 0 0 800 800" xml:space="preserve">
<path d="M326.164,23.855c30.697,2.374,63.819,12.08,95.422,26.578c11.962,5.472,23.517,8.102,36.87,8.012
	c93.95-0.646,173.152,67.999,185.465,159.732c1.042,7.812,5.845,12.76,13.502,14.944c78.534,22.477,125.078,73.67,139.191,152.589
	c13.933,77.837-34.57,163.076-108.743,193.493c-68.452,28.059-136.766,56.497-205.536,83.754
	c-15.235,6.063-32.182,7.936-48.312,11.791c-3.59,0.869-7.352,1.561-10.624,3.165c-47.689,23.244-95.411,46.401-142.885,70.07
	c-14.318,7.132-28.183,6.619-40.257-2.43c-13.186-9.873-26.053-20.794-36.52-33.297c-13.616-16.27-24.489-34.746-36.984-51.951
	c-4.248-5.862-9.118-11.745-14.94-15.979c-47.326-34.278-87.765-74.975-119.561-123.711c-9.765-14.966-17.943-30.724-21.081-48.563
	c-2.265-12.849,0.453-23.859,10.195-33.375c36.111-35.292,71.782-71.052,108.131-106.122c6.786-6.53,9.051-13.505,10.184-22.164
	c8.654-65.536,21.964-129.923,51.755-189.865c14.205-28.605,32.159-54.492,58.755-73.636
	C271.521,31.544,295.489,24.179,326.164,23.855 M388.454,69.41c-12.902-3.599-25.532-7.131-38.173-10.653
	C309.4,47.447,275.599,59.014,247.96,89.804c-22.497,25.05-36.113,54.893-47.122,86.05c-16.946,47.94-24.218,97.875-32.827,147.664
	c-5.29,30.578,4.168,54.392,21.874,77.783c24.297,32.082,52.095,60.666,83.767,85.649c19.131,15.088,38.875,29.363,62.458,37.142
	c3.829,1.281,8.654,1.728,12.46,0.636c17.489-4.981,33.529-13.128,47.304-24.907c55.89-47.772,112.253-95.032,167.169-143.897
	c48.753-43.393,63.071-98.119,44.382-159.621c-21.908-72.066-94.788-116.918-170.342-106.165
	c-39.714,5.661-73.494,22.855-98.278,55.116c-11.678,15.211-23.866,30.065-35.942,44.976c-6.897,8.491-15.778,9.917-23.164,4
	c-7.181-5.728-7.668-14.13-1.133-22.488c6.06-7.767,12.664-15.177,18.373-23.179c23.754-33.241,51.539-61.735,90.937-77.08
	C388,71.427,388,71.038,388.454,69.41 M349.068,572.115c15.927,25.452,32.158,50.057,55.742,68.89
	c2.684,2.161,6.559,3.812,9.98,3.99c20.445,1.068,40.053-2.697,58.97-10.521c38.128-15.779,76.37-31.246,114.543-46.914
	c31.966-13.104,64.77-24.628,95.693-39.844c96.623-47.616,112.946-180.561,31.638-250.586
	c-20.366-17.54-43.509-29.576-70.535-35.192c-0.522,2.329-1.03,4.056-1.292,5.828c-6.434,43.193-25.204,80.212-58.382,109.375
	c-46.782,41.12-94.029,81.727-141.207,122.401c-17.988,15.49-34.572,33.196-56.909,42.681
	C371.836,548.809,360.917,559.925,349.068,572.115 M321.169,553.043c-81.433-41.911-142.963-103.268-185.895-184.037
	c-30.572,30.177-61.055,60.13-91.209,90.397c-2.095,2.095-3.375,7.221-2.242,9.739c6.377,14.196,12.143,28.974,20.786,41.833
	c33.155,49.283,75.746,89.466,126.538,120.892c10.059,6.24,21.953,9.628,33.178,13.885c2.118,0.803,5.856,0.468,7.464-0.913
	c5.359-4.569,10.082-9.852,15.315-15.134c-13.627-11.1-26.507-21.552-39.307-32.071c-10.92-8.981-11.599-16.403-2.65-27.034
	c6.706-7.979,13.457-15.874,20.14-23.853c9.357-11.189,16.73-11.835,27.967-2.519c14.386,11.907,28.806,23.764,43.01,35.487
	C303.6,570.488,312.458,561.662,321.169,553.043 M381.114,664.875c-19.019-23.357-37.868-46.492-55.901-68.601
	c-8.348,8.046-17.648,17.005-27.503,26.521c9.063-1.982,15.089,1.873,19.291,9.271c2.356,4.168,5.041,8.113,7.601,12.169
	c7.736,12.28,15.484,24.561,23.369,37.063C360.214,675.238,371.655,669.577,381.114,664.875 M213.57,675.483
	c12.301,17.161,24.558,32.45,41.231,43.594c2.81,1.872,7.318,3.677,10.104,2.764c6.479-2.14,12.393-5.951,18.94-9.316
	c-10.172-16.114-20.05-31.76-30.301-48.028C242.953,677.288,229.349,677.913,213.57,675.483 M268.021,597.011
	c-9.583-7.69-18.475-14.844-27.832-22.332c-1.981,2.295-3.806,4.457-6.048,7.064c9.333,7.511,18.214,14.643,27.39,21.998
	C263.546,601.646,265.359,599.752,268.021,597.011 M308.233,693.09c2.877-1.761,5.086-3.142,7.805-4.813
	c-6.343-10.052-12.506-19.769-18.849-29.82c-2.934,1.782-5.143,3.12-7.828,4.77C295.614,673.12,301.674,682.704,308.233,693.09"/>
</svg>
