<?xml version="1.0" encoding="utf-8"?>
<!-- Generator: Adobe Illustrator 16.0.3, SVG Export Plug-In . SVG Version: 6.00 Build 0)  -->
<!DOCTYPE svg PUBLIC "-//W3C//DTD SVG 1.1//EN" "http://www.w3.org/Graphics/SVG/1.1/DTD/svg11.dtd">
<svg version="1.1" id="Capa_3" xmlns="http://www.w3.org/2000/svg" xmlns:xlink="http://www.w3.org/1999/xlink" x="0px" y="0px"
	 width="800px" height="800px" viewBox="0 0 800 800" enable-background="new 0 0 800 800" xml:space="preserve">
<path d="M297.319,20.608c15.39,2.435,31.127,4.059,46.121,7.48c64.409,14.684,126.368,33.816,182.562,62.177
	c41.027,20.715,68.165,49.045,76.516,86.551c4.82,21.64,4.09,43.383-0.979,64.879c-12.106,51.491-33.281,100.896-68.289,146.046
	c-44.732,57.677-109.203,97.392-195.572,115.024c-11.598,2.384-23.617,3.669-35.525,4.983c-2.131,0.226-4.758-1.859-7.088-2.939
	c-0.372-0.174-0.582-0.697-0.681-1.078c-4.325-15.588-17.782-23.131-37.162-28.73c-45.786-13.203-90.642-28.247-135.734-42.798
	c-5.948-1.9-10.954-2.239-16.704-0.021c-5.478,2.117-11.524,3.392-17.025,5.446c-4.883,1.829-7.943,1.408-11.425-2.096
	c-30.583-30.878-48.81-65.548-56.108-103.598C9.357,275.41,24.326,222.244,56.357,171.175c19.95-31.813,41.424-62.855,70.99-90.291
	c25.663-23.829,55.526-43.609,94.806-53.546c11.821-3.011,24.312-4.532,36.505-6.73H297.319z"/>
<path d="M719.913,465.796c-7.832-2.939-15.416-5.478-22.578-8.591c-5.81-2.559-11.089-2.703-17.446-1.06
	c-52.96,13.647-105.994,27.097-159.079,40.466c-5.229,1.315-8.909,3.165-10.917,7.162c-1.611,3.216-3.978,6.196-6.034,9.279
	c-7.535,11.292-3.719,10.244-19.393,7.101c-21.351-4.296-42.144-10.194-64.993-15.825c3.161-1.89,3.865-2.466,4.734-2.795
	c82.997-29.86,140.629-78.053,176.959-141.278c20.732-36.119,37.646-73.265,46.802-112.188c6.767-28.854,8.502-57.718-1.275-86.396
	c-12.193-35.779-40.433-63.062-80.804-82.718c-24.237-11.806-50.581-21.116-76.009-31.515c-2.775-1.12-5.724-1.983-8.698-4.572
	c13.756-1.942,27.435-4.265,41.274-5.744c39.467-4.264,77.559-1.387,113.047,13.615c30.224,12.783,53.604,31.187,72.292,52.806
	c42.823,49.59,73.641,103.372,86.268,161.85c14.77,68.404-3.136,132-59.898,187.908c-2.926,2.898-6.16,5.631-9.295,8.405
	C723.48,462.938,721.995,464.1,719.913,465.796"/>
<path d="M100.718,454.842c11.326-5.313,21.413-6.104,34.04-1.901c37.459,12.536,75.401,24.281,113.752,35.133
	c13.779,3.903,17.608,11.59,21.945,20.376c-8.215,0.606-16.009,0.739-23.556,1.849c-23.456,3.443-40.606,13.996-54.025,28.464
	c-16.345,17.606-24.994,37.768-30.569,58.4c-5.837,21.62-8.34,43.713-13.433,65.435c-3.085,13.276-6.741,26.696-12.949,39.295
	c-10.223,20.735-32.192,29.716-60.271,24.188c-16.295-3.185-32.502-8.569-46.803-15.33C5.826,699.877,0.113,682.613,9.977,663.46
	c7.571-14.775,18.773-27.847,32.775-39.499c27.658-22.955,49.962-48.623,68.846-76.142
	C134.027,515.138,133.778,484.097,100.718,454.842"/>
<path d="M696.443,480.305c-20.806,16.327-31.052,36.016-28.214,58.59c1.375,10.919,5.29,21.976,10.582,32.23
	c14.931,28.854,35.39,55.446,60.581,79.964c15.266,14.879,27.409,31.032,31.945,49.877c2.948,12.146-1.439,22.976-13.371,31.012
	c-22.02,14.776-48.563,21.517-77.78,19.935c-19.752-1.048-32.365-10.666-39.491-24.414c-8.661-16.708-11.189-34.238-10.866-51.974
	c0.568-29.841-4.711-59.085-15.056-87.815c-7.052-19.544-18.984-37.033-40.595-49.913c-12.936-7.728-27.707-12.073-44.46-13.328
	c3.656-9.464,8.959-15.772,22.663-18.958c37.596-8.734,74.719-18.66,111.584-29.038C676.37,472.988,686.481,472.495,696.443,480.305
	"/>
</svg>
