<?xml version="1.0" encoding="utf-8"?>
<!-- Generator: Adobe Illustrator 16.0.3, SVG Export Plug-In . SVG Version: 6.00 Build 0)  -->
<!DOCTYPE svg PUBLIC "-//W3C//DTD SVG 1.1//EN" "http://www.w3.org/Graphics/SVG/1.1/DTD/svg11.dtd">
<svg version="1.1" id="Capa_2" xmlns="http://www.w3.org/2000/svg" xmlns:xlink="http://www.w3.org/1999/xlink" x="0px" y="0px"
	 width="800px" height="800px" viewBox="0 0 800 800" enable-background="new 0 0 800 800" xml:space="preserve">
<path d="M471.346,719.37c-24.881-21.131-49.77-42.214-74.632-63.369c-75.269-64.006-150.519-128.067-225.797-192.049
	c-5.399-4.573-9.931-9.478-9.006-19.149c1.322-13.795,11.409-19.555,21.062-11.459c20.987,17.585,41.809,35.562,62.741,53.281
	c82.017,69.46,164.063,138.853,246.063,208.361c18.51,15.678,38.59,24.702,60.623,24.775c32.121,0.122,64.277,0.881,96.35-0.881
	c27.729-1.54,53.773-13.671,78.939-30.033c-2.303-0.122-4.596-0.367-6.898-0.367c-53.836-0.024-107.682-0.22-161.521,0.073
	c-21.607,0.122-40.559-8.34-57.922-25.509c-130.771-129.217-261.717-258.122-392.608-387.1c-9.745-9.599-15.615-8.206-22.291,5.283
	C81.373,291.5,76.259,301.7,71.268,312.021c-5.668,11.728-4.911,18.93,3.716,26.72c21.839,19.726,43.853,39.096,65.885,58.43
	c4.918,4.329,8.053,9.356,7.369,17.622c-1.045,12.584-10.198,19.628-18.158,12.841c-24.483-20.899-49.085-41.64-72.866-63.908
	c-17.001-15.897-19.831-43.608-8.635-66.905c5.816-12.106,12.02-23.919,17.409-36.356c4.854-11.189,11.28-19.297,21.626-23.309
	c-3.458-20.667,5.981-35.659,13.507-51.52c22.107-46.58,44.26-93.111,66.412-139.654c15.2-31.93,44.684-36.662,62.787-7.68
	c18.094,28.958,34.69,59.75,50.269,91.203c16.93,34.204,39.682,55.617,69.435,64.947c9.143,2.85,14.173,11.691,12.492,21.474
	c-1.572,9.062-9.357,14.687-17.891,12.571c-28.033-7.019-51.767-24.458-70.738-52.596c-5.687-8.426-10.292-18.124-15.283-27.344
	c-14.451-26.72-28.801-53.539-43.315-80.197c-1.96-3.607-4.494-6.75-7.027-9.697c-5.446-6.372-13.147-5.748-17.262,1.944
	c-5.066,9.526-10.3,19.15-13.915,29.643c-1.839,5.319-0.693,12.767-0.184,19.15c3.245,40.991,7.257,81.921,9.837,122.998
	c1.331,21.229-2.968,40.233-19.472,58.882c2.006,2.03,3.92,4.023,5.871,5.956c115.644,113.497,231.308,226.98,346.915,340.568
	c11.51,11.3,24.279,16.729,38.508,16.729c66.514,0,133.018-0.122,199.521,0.195c5.576,0.024,8.063-2.567,9.736-9.098
	c4.834-18.931-0.906-36.051-14.83-43.07c-39.83-20.104-79.66-40.258-119.52-60.233c-46.191-23.174-92.438-46.127-138.584-69.424
	c-2.67-1.357-5.389-4.561-6.859-7.875c-35.004-78.815-69.795-157.801-104.798-236.641c-3.606-8.157-2.794-15.079,0.722-22.55
	c12.952-27.613,42.272-39.34,67.29-26.341c14.053,7.313,25.322,19.407,33.313,36.552c1.904,4.073,4.141,7.924,5.611,12.266
	c3.734,11.018,8.902,17.523,19.057,15.591c5.527-1.052,10.141,3.583,11.787,11.006c2.162,9.722-1.109,16.79-7.795,21.596
	c1.545,3.363,3.199,6.261,4.309,9.465c4.17,12.131,9.91,19.615,21.229,17.035c5.557-1.259,9.781,3.596,11.547,11.165
	c1.803,7.741,0.223,14.125-4.336,19.285c-1.164,1.333-2.625,2.226-4.697,3.938c4.559,10.064,8.924,20.006,13.619,29.679
	c0.768,1.578,2.949,2.421,4.576,2.69c2.904,0.44,5.863,0.073,8.811,0.196c6.223,0.293,11.039,3.509,12.752,11.996
	c1.801,8.988-0.703,15.922-7.195,20.997c-0.553,0.429-1.107,0.856-2.199,1.737c11.854,25.582,23.215,51.373,35.605,76.308
	c6.453,12.976,16.531,20.961,27.588,26.439c42.041,20.789,83.721,42.996,126.232,61.957c27.902,12.425,41.559,56.694,29.586,92.279
	c-6.381,19.003-15.949,33.801-29.227,44.709c-28.41,23.308-59.477,37.396-92.215,44.66c-14.184,3.13-28.764,4.378-43.158,4.427
	c-157.453,0.294-314.899,0.171-472.353,0.146c-2.94,0-5.89,0.122-8.811-0.244c-7.082-0.93-11.168-6.653-11.465-15.702
	c-0.314-9.588,3.485-16.068,10.698-17.609c2.875-0.637,5.843-0.514,8.783-0.514c103.385-0.024,206.77-0.024,310.146-0.024h7.969
	C471.123,720.813,471.234,720.08,471.346,719.37 M407.41,222.481c32.434,73.178,64.713,146.098,97.182,218.873
	c1.313,2.947,4.152,5.344,6.693,6.604c18.992,9.392,38.094,18.441,57.176,27.575c1.932,0.905,3.92,1.664,7.23,3.07
	c-11.623-24.177-22.291-46.665-33.322-68.849c-1.146-2.324-4.344-3.828-6.676-3.999c-7.432-0.599-14.92,0.024-22.355-0.636
	c-6.721-0.624-10.512-6.579-10.789-15.396c-0.295-9.563,3.033-15.775,9.848-17.462c3.707-0.905,7.545-0.893,12.277-1.394
	c-4.281-9.025-7.951-17.536-12.26-25.424c-1.404-2.581-4.4-4.843-6.795-5.063c-7.193-0.685-14.471,0.085-21.691-0.391
	c-7.609-0.501-12.602-8.206-12.186-17.842c0.416-9.624,5.225-15.604,12.861-15.897c3.014-0.11,6.037-0.012,9.457-0.012
	c-10.014-27.013-10.014-27.013-30.955-27.013c-2.486,0-4.973,0.073-7.459-0.012c-8.164-0.27-12.807-6.237-12.889-16.448
	c-0.092-10.272,4.457-16.778,12.361-17.365c3.449-0.257,6.916-0.061,10.705-0.061C455.238,209.005,423.684,200.065,407.41,222.481
	 M153.683,141.11c-1.507,2.653-2.2,3.729-2.774,4.916c-11.613,24.213-23.244,48.438-34.782,72.713
	c-4.215,8.866-4.049,16.228,2.145,23.211c7.517,8.486,15.838,15.787,24.058,23.125c4.151,3.706,8.284,2.042,11.529-2.789
	c5.316-7.937,8.081-17.071,7.211-27.918c-1.211-15.151-2.172-30.34-3.375-45.503C156.484,173.541,155.125,158.218,153.683,141.11"/>
<path d="M155.763,636.019c34.801,0,69.601-0.024,104.402,0c2.487,0,4.983,0,7.442,0.27c6.269,0.758,9.838,5.552,10.799,13.573
	c0.989,8.243-2.312,16.191-7.979,18.687c-2.718,1.173-5.76,1.491-8.663,1.491c-71.182,0.073-142.374,0.073-213.565,0
	c-2.69,0-5.464-0.27-8.016-1.222c-6.417-2.397-8.774-8.781-8.543-17.097c0.231-8.341,4.124-14.186,10.234-15.262
	c2.673-0.489,5.41-0.44,8.118-0.44C85.246,635.994,120.5,636.019,155.763,636.019"/>
<path d="M80.771,551.951c19.888,0,39.774-0.062,59.662,0.024c9.718,0.036,14.433,5.308,14.6,15.928
	c0.175,11.178-5.308,17.978-14.97,18.002c-39.553,0.098-79.106,0.073-118.667,0c-9.93,0-15.496-6.457-15.395-17.39
	c0.093-10.621,5.381-16.516,15.099-16.54C40.988,551.902,60.865,551.951,80.771,551.951"/>
<path d="M82.048,753.66c-4.744,0-9.523,0.514-14.221-0.146c-6.787-0.93-10.392-6.701-10.604-15.628
	c-0.231-9.637,3.106-16.51,9.976-17.121c10.115-0.93,20.341-0.905,30.456-0.122c6.842,0.538,10.604,7.704,10.438,16.852
	c-0.167,9.122-4.114,15.261-11.132,16.117c-4.928,0.611-9.939,0.122-14.903,0.122C82.048,753.709,82.048,753.685,82.048,753.66"/>
</svg>
