<?xml version="1.0" encoding="utf-8"?>
<!-- Generator: Adobe Illustrator 16.0.3, SVG Export Plug-In . SVG Version: 6.00 Build 0)  -->
<!DOCTYPE svg PUBLIC "-//W3C//DTD SVG 1.1//EN" "http://www.w3.org/Graphics/SVG/1.1/DTD/svg11.dtd">
<svg version="1.1" id="Capa_3" xmlns="http://www.w3.org/2000/svg" xmlns:xlink="http://www.w3.org/1999/xlink" x="0px" y="0px" width="800px" height="800px" viewBox="0 0 800 800" enable-background="new 0 0 800 800" xml:space="preserve">
	<path d="M650.716,168.071c31.206-8.137,49.35-34.98,50.109-66.661c0.574-23.903-10.072-44.556-29.378-57.742
		c-8.198-5.595-18.11-8.187-27.263-12.145h-18.718c-4.565,1.477-9.245,2.667-13.684,4.503c-28.768,11.995-47.67,41.679-41.897,75.555
		C577.222,154.588,613.67,177.697,650.716,168.071"/>
	<path d="M119.503,701.364c25.422,1.639,49.39-2.629,72.162-14.189c35.085-17.838,62.106-45.474,82.688-80.826
		c20.875-35.849,30.826-74.99,31.706-117.03c0.178-31.892-5.731-62.257-20.426-89.98c-25.1-47.397-63.376-71.387-113.945-71.56
		c-18.5-0.062-36.196,5.532-53.104,13.545c-36.19,17.167-64.32,44.333-85.396,80.318C1.775,475.278-8.797,532.587,6.282,594.662
		C20.097,651.476,64.681,697.843,119.503,701.364"/>
	<path d="M682.232,334.774c-35.725-3.585-68.161,8.459-96.825,30.204c-58.502,44.358-87.166,106.553-90.282,181.91
		c0.736,9.937,1.185,18.525,2.059,27.11c2.609,25.701,10.13,49.939,23.146,71.448c32.746,54.158,87.523,74.376,144.322,57.11
		c37.104-11.288,67.16-34.684,90.857-67.48c34.494-47.756,51.028-101.3,45.188-162.167c-3.841-39.918-17.787-74.551-44.819-102.66
		C735.272,348.815,710.264,337.589,682.232,334.774"/>
	<path d="M299.47,357.25c13.683,60.596,27.584,121.179,42.221,181.526c7.795,32.095,17.132,63.775,26.141,95.53
		c3.438,12.058,7.922,23.792,11.935,35.676c0.604-0.199,1.202-0.372,1.806-0.57c0.506-7.046,1.621-14.092,1.385-21.088
		c-1.069-31.854-2.495-63.684-3.834-95.521c-0.391-9.092-0.896-18.184-1.425-27.289c-1.673-28.456-3.335-56.923-5.088-85.391
		c-1.317-21.51-2.53-43.043-4.249-64.54c-2.369-29.746-4.416-59.578-8.055-89.175c-1.19-9.738-2.943-19.438-5.054-29.051
		c3.628-0.968,7.348-2.047,11.142-3.226c2.116,4.553,5.427,9.117,10.359,13.533c16.989,15.245,37.035,23.68,57.157,32.14
		c10.808,4.565,21.777,8.72,33.274,13.298c-22.467,49.133-44.658,97.374-66.544,145.813c-3.438,7.616-5.473,15.963-8.158,23.977
		c0.765,0.547,1.541,1.091,2.311,1.637c4.8-4.044,10.142-7.553,14.338-12.23c27.768-30.787,55.754-61.4,82.682-93.031
		c9.923-11.661,18.972-24.983,25.342-39.173c13.844-30.763,12.166-54.629-13.016-79.078c-9.474-9.228-20.305-16.87-30.883-24.709
		c-8.763-6.476-17.8-12.169-27.182-16.758c20.328-11.251,38.484-23.295,53.673-35.179c5.955,12.219,13.463,23.569,21.282,34.782
		c24.135,34.596,54.409,59.851,92.409,74.314c34.552,13.149,69.907,21.931,106.61,23.531c12.992,0.57,26.008,0.087,39.023,0.087
		c0.092-0.484,0.184-0.967,0.276-1.451c-2.357-0.917-4.669-2.109-7.083-2.679c-13.775-3.201-28.136-4.565-41.209-9.7
		c-31.918-12.517-61.33-30.478-88.764-52.148c-24.583-19.413-42.636-44.258-54.604-74.426c-3.979-10.047-8.336-19.946-13.166-29.535
		c-2.759-5.496-5.817-10.618-9.358-15.021c1.713-5.346,1.885-10.147,0.114-14.128c-10.095-22.898-76.737-11.412-148.83,25.627
		c-36.179,18.594-66.849,40.103-87.172,59.801c-11.222,6.389-20.604,14.86-24.255,28.915c-3.944,15.208-4.07,30.75-1.126,46.194
		C288.92,304.817,293.583,331.177,299.47,357.25"/>
	<rect x="9.703" y="727.215" width="780.23" height="13.1"/>
</svg>
