<?xml version="1.0" encoding="utf-8"?>
<!-- Generator: Adobe Illustrator 16.0.3, SVG Export Plug-In . SVG Version: 6.00 Build 0)  -->
<!DOCTYPE svg PUBLIC "-//W3C//DTD SVG 1.1//EN" "http://www.w3.org/Graphics/SVG/1.1/DTD/svg11.dtd">
<svg version="1.1" id="Capa_2" xmlns="http://www.w3.org/2000/svg" xmlns:xlink="http://www.w3.org/1999/xlink" x="0px" y="0px"
	 width="800px" height="800px" viewBox="0 0 800 800" enable-background="new 0 0 800 800" xml:space="preserve">
<path d="M794.763,182.953c-5.129-48.226-23.29-87.797-56.827-116.014c-39.018-32.924-82.915-38.459-128.449-27.227
	C544.505,55.964,494.319,99.307,456.7,163.622c-25.975,44.59-39.825,93.916-39.599,148.775c0.114,25.571-0.227,51.278-1.626,76.836
	c-1.285,21.258-7.335,41.24-15.955,61.684c-1.393-3.636-2.326-5.996-3.258-8.356c-14.676-37.646-11.645-78.071-13.158-117.778
	c-0.819-20.145-0.585-40.724-3.963-60.15c-11.992-67.53-43.084-121.291-88.033-163.521
	c-48.213-45.404-102.595-69.158-164.897-58.889c-36.801,6.118-67.893,25.965-90.95,61.412C5.802,148.917-1.539,201.145,8.94,255.462
	c21.312,111.252,80.47,182.662,170.14,218.788c33.304,13.335,68.473,12.778,102.942,10.975c18.287-0.99,34.355,3.473,50.311,12.087
	c9.547,5.277,19.094,10.419,30.506,16.659c-3.958,3.323-6.522,5.426-9.547,8.058c0.233,0.285,0.466,0.543,0.813,0.841
	c-44.602,49.434-89.318,98.901-133.92,148.226c-3.144,3.744-9.899,12.888-11.759,26.671c-0.699,5.562-1.865,14.298,2.212,22.492
	c4.191,8.491,12.225,14.026,22.011,14.026c3.258-0.136,6.283-0.569,9.314-1.52c10.599-3.337,17.468-11.829,19.913-14.868
	c9.319-11.259,58.573-74.041,125.186-161.289c3.611-4.979,7.102-9.563,11.765-16.116c5.356,7.801,10.132,14.447,14.909,21.394
	c67.893,88.482,117.953,152.241,126.688,162.659c2.343,2.931,8.165,9.604,17.126,12.941c3.253,1.113,6.869,1.818,10.6,1.954
	c16.763,0.108,28.646-16.144,24.563-35.434c-2.911-13.62-8.62-23.333-11.759-27.512c-11.759-15.709-62.649-73.2-133.566-149.039
	c-4.663-5.277-8.859-9.862-13.396-15.004c2.559-1.805,4.31-3.351,6.288-4.463c14.671-7.76,29.341-15.397,44.022-23.198
	c9.086-4.843,18.514-5.398,28.419-4.707c31.319,1.791,62.764,1.669,93.275-6.525c71.622-19.331,124.72-69.198,161.509-143.918
	C789.748,284.493,800.347,235.602,794.763,182.953 M344.559,254.906c-1.979-1.94-3.73-3.473-5.59-5.141
	c-5.476,6.81-11.065,13.755-17.001,21.257c-12.344-14.041-23.756-26.969-35.868-40.711c10.133-11.531,20.032-22.79,30.393-34.728
	c-3.377-4.029-5.937-7.095-8.848-10.418c-10.133,12.236-19.799,23.753-29.699,35.827c-12.811-14.583-25.036-28.475-38.546-43.885
	c11.998-12.63,23.523-25.015,35.521-37.645c-4.776-4.87-7.455-7.501-9.547-9.713c-10.718,12.087-22.244,24.866-34.009,38.201
	c-12.111-13.634-24.104-27.389-36.681-41.539c8.387-9.306,16.302-18.056,24.456-27.226c-2.445-3.351-4.077-5.576-5.709-7.936
	C261.643,101.817,335.125,193.372,344.559,254.906 M200.739,226.567c10.832-12.223,21.425-23.889,32.724-36.668
	c10.946,12.48,23.291,26.521,35.635,40.562c-10.712,12.358-21.078,24.445-31.91,36.939
	C225.662,254.35,213.317,240.581,200.739,226.567 M229.619,278.103c-12.458,14.448-24.104,28.203-36.915,42.909
	c-10.599-14.149-21.778-29.017-33.304-44.591c10.014-10.975,22.005-24.174,34.583-38.065
	C204.697,250.443,217.042,264.076,229.619,278.103 M190.493,215.036c-11.065-12.358-23.41-26.114-35.168-39.327
	c10.826-12.901,21.312-25.422,32.024-38.323c11.412,13.05,23.404,26.67,36.334,41.24
	C212.384,191.147,201.552,202.936,190.493,215.036 M183.158,226.133c-12.111,13.634-24.109,26.833-36.454,40.725
	c-10.479-11.952-22.824-26.128-34.936-39.87c11.645-13.892,23.057-27.389,34.936-41.539
	C158.583,198.785,170.813,212.391,183.158,226.133 M138.089,282.132c-7.801,8.614-17.587,19.725-26.554,29.573
	c-11.525-12.901-24.217-27.091-36.329-40.833c9.547-11.381,18.861-22.356,28.994-34.579
	C115.266,251.148,126.558,266.559,138.089,282.132 M151.133,291.561c10.479,11.965,22.472,25.72,34.583,39.462
	c-10.366,12.236-20.612,24.039-29.926,34.877c-11.412-12.941-23.41-26.535-35.635-40.426
	C130.521,314.202,140.535,303.091,151.133,291.561 M195.73,341.727c10.132,13.755,20.845,28.203,32.024,43.207
	c-8.848,9.442-19.913,21.379-29.926,32.083c-10.366-11.667-22.244-24.866-34.123-38.202
	C174.424,366.457,184.551,354.627,195.73,341.727 M205.749,329.761c10.014-11.789,21.892-25.558,34.236-40.005
	c10.479,11.829,22.238,24.866,34.936,39.056c-12.811,13.729-25.502,27.063-39.013,41.511
	C226.708,358.1,216.109,343.653,205.749,329.761 M247.439,278.931c10.593-12.372,20.845-24.161,31.905-36.939
	c10.479,11.924,21.778,24.703,33.423,38.038c-10.946,11.531-21.544,23.062-32.837,35.027
	C270.61,304.76,258.965,291.709,247.439,278.931 M208.541,88.075c-7.915,9.306-15.489,18.178-23.404,27.362
	c-10.133-11.531-21.198-24.038-33.542-38.201C172.559,76.245,190.726,81.129,208.541,88.075 M45.627,154.452
	c15.716-45.96,58.106-78.464,100.843-76.945c-1.626,2.646-3.025,4.87-4.89,7.787c11.998,13.593,23.99,27.349,35.868,40.833
	c-10.946,13.064-21.425,25.571-32.138,38.35c-19.1-21.393-38.433-42.936-58.579-65.427c-2.911,3.73-5.237,6.783-8.035,10.256
	c19.68,21.949,38.893,43.492,57.76,64.613c-11.645,13.756-22.938,27.227-34.816,41.24c-16.888-19.291-34.475-39.449-52.17-59.594
	c-1.518,1.546-2.911,2.917-5.243,5.142C44.809,157.789,45.042,156.12,45.627,154.452 M41.897,166.417
	c17.701,20.145,34.702,39.734,51.243,58.604c-9.319,10.975-18.287,21.827-27.833,33.223c-5.589-6.81-11.878-14.448-18.52-22.506
	c-3.025,2.917-5.47,5.399-8.615,8.75C34.795,217.682,34.795,192.395,41.897,166.417 M38.639,249.629
	c6.056,7.081,11.992,14.027,17.934,20.837c-2.678,3.174-6.056,6.945-10.133,11.667C43.762,270.873,41.204,260.183,38.639,249.629
	 M53.662,300.731c-0.813-1.669-0.12-5.264,0.932-6.946c3.258-4.708,7.102-9.021,9.78-12.345
	c13.158,14.854,25.855,29.153,39.126,44.156c-7.802,8.343-15.37,16.388-24.689,26.263C70.664,335.337,61.93,318.095,53.662,300.731
	 M89.064,363.676c8.034-8.899,15.835-17.5,22.705-25.165c10.832,12.236,22.824,25.856,35.868,40.426
	c-6.289,6.688-11.646,12.386-17.815,19.033c3.491,3.473,6.403,6.39,9.667,9.604c4.771-5.996,9.78-12.521,13.738-17.663
	c15.608,17.513,30.512,34.322,45.534,51.279C154.972,429.659,119.223,402.433,89.064,363.676 M210.172,444.921
	c6.403-7.353-1.166-9.307-2.678-14.299c10.832-11.815,21.778-23.753,33.304-36.247c11.646,13.335,24.922,28.597,38.893,44.591
	C256.64,448.271,234.162,449.099,210.172,444.921 M291.689,433.132c-14.909-17.106-29.58-33.914-45.415-52.092
	c13.038-14.19,25.383-27.525,38.08-41.552c14.903,16.686,30.973,34.606,47.627,53.083
	C322.081,410.07,308.224,423.527,291.689,433.132 M338.383,380.484c-16.183-17.92-31.438-35.163-47.274-52.785
	c10.826-11.829,21.306-23.197,32.49-35.284c5.823,6.647,13.391,15.139,21.306,24.011c2.331-2.482,4.657-4.843,7.688-7.895
	C352.593,334.347,348.749,357.693,338.383,380.484 M351.66,303.783c-6.402-8.75-12.811-17.5-19.566-26.67
	c3.378-3.73,8.854-9.713,15.256-16.808c1.985,14.881,3.844,28.895,5.709,42.935C352.593,303.525,352.126,303.647,351.66,303.783
	 M734.672,112.235c10.246,11.68,17.468,25.965,22.938,43.763c-2.797-2.496-4.298-3.744-6.163-5.413
	c-17.593,19.982-35.175,40.141-52.403,59.852c-11.531-13.892-22.722-27.227-34.595-41.375c18.753-21,38.074-42.651,57.532-64.6
	c-2.445-3.608-4.662-6.823-6.88-10.147C721.742,100.162,728.725,105.574,734.672,112.235 M616.936,222.253
	c12.93-14.434,25.155-28.325,37.392-41.945c11.873,14.163,23.165,27.647,32.945,39.436c-10.951,14.746-22.119,29.885-32.832,44.333
	C641.386,249.493,629.513,236.145,616.936,222.253 M641.386,271.714c-11.406,15.424-22.472,30.265-32.945,44.59
	c-12.931-15.139-24.576-28.773-36.926-43.22c12.122-13.729,24.461-27.484,35.174-39.571
	C619.267,247.404,631.15,260.604,641.386,271.714 M610.885,209.624c-11.179-12.386-21.902-24.174-33.184-36.533
	c12.577-14.189,24.563-27.945,36.437-41.402l32.149,38.323C633.948,183.903,621.712,197.537,610.885,209.624 M600.866,220.856
	c-12.931,14.447-25.27,28.217-37.153,41.416c-10.588-12.385-20.834-24.31-31.785-37.089c12.225-13.891,24.462-27.782,35.981-40.982
	C579.088,196.546,589.801,208.511,600.866,220.856 M553.592,273.64c-11.304,12.643-22.949,25.721-33.07,37.088
	c-10.952-11.667-21.664-23.197-32.844-35.122c12.351-14.041,23.519-26.833,34.345-39.056
	C532.746,249.073,542.993,261.16,553.592,273.64 M561.279,284.493c12.453,14.569,24.337,28.203,34.583,40.127
	c-10.485,14.189-21.198,28.501-30.864,41.416c-13.624-14.732-26.201-28.217-39.007-42.108
	C538.683,309.779,550.328,296.702,561.279,284.493 M605.29,336.313c11.065,12.915,21.312,24.704,31.569,36.668
	c-11.884,13.606-23.769,27.091-34.128,39.015c-9.905-10.555-20.846-22.343-29.807-31.948
	C584.092,364.788,594.93,350.341,605.29,336.313 M617.049,328.256c11.19-14.868,22.244-29.75,32.615-43.641
	c11.293,12.385,21.312,23.496,31.786,35.027c-12.691,14.149-24.803,27.633-36.676,40.982
	C635.927,350.205,625.783,338.375,617.049,328.256 M661.89,276.72c11.998-15.56,23.529-30.862,35.175-46.001l28.635,34.172
	c-12.339,14.041-24.791,28.339-36.914,42.108C680.403,297.557,670.498,286.582,661.89,276.72 M714.532,93.759
	c-19.572,21.8-39.133,43.75-58.227,65.021c-10.713-12.779-21.197-25.165-30.637-36.397c10.133-14.027,21.084-29.031,32.263-44.468
	c-0.353-0.556-1.864-2.781-4.31-6.39C676.207,73.627,696.825,77.792,714.532,93.759 M647.447,69.598
	c0.466,1.112,0.933,2.062,1.285,3.174c-11.18,12.779-22.358,25.571-33.31,37.943c-7.677-9.048-15.023-17.92-24.45-29.031
	C610.657,77.507,629.047,73.627,647.447,69.598 M587.481,86.107c-1.638,2.361-3.025,4.328-4.891,6.81
	c8.029,8.75,15.944,17.5,24.564,27.104c-13.158,15.139-25.155,28.759-36.688,41.932c-11.759-13.037-23.051-25.815-34.936-39.151
	c-2.319,2.618-4.89,5.413-7.915,9.008c11.646,12.779,23.063,25.3,35.288,38.635c-14.557,16.537-26.896,30.563-39.245,44.712
	c-9.78-11.789-19.446-23.455-29.932-36.098c-3.025,4.449-5.231,7.759-8.257,12.087c9.542,10.676,19.561,21.949,29.807,33.48
	c-12.464,14.149-23.643,26.928-35.061,40.005c-5.937-7.095-11.645-13.891-17.343-20.837c-2.444,2.225-4.196,3.88-6.175,5.698
	C462.409,192.517,535.771,100.854,587.481,86.107 M453.322,257.388c5.471,6.132,10.838,12.223,16.774,18.775
	c-6.175,6.946-13.283,15.004-20.379,23.048c-0.705-0.271-1.285-0.556-1.865-0.963C449.718,284.357,451.583,270.33,453.322,257.388
	 M448.193,302.969c3.037,3.337,5.368,5.698,7.927,8.479c7.563-8.614,15.137-17.229,21.426-24.473
	c10.837,11.83,21.425,23.36,32.604,35.447c-16.308,18.056-31.558,35.122-47.513,52.92
	C452.151,352.823,448.546,329.205,448.193,302.969 M509.331,427.991c-16.535-9.74-30.159-22.94-40.28-40.44
	c16.421-18.327,32.479-36.248,47.149-52.648c12.816,13.891,25.28,27.525,38.085,41.416
	C538.922,393.941,524.365,410.749,509.331,427.991 M590.393,439.644c-23.769,4.87-46.126,3.215-69.178-5.819
	c14.09-16.13,27.248-31.256,39.587-45.283c11.19,12.087,22.13,24.174,32.615,35.542
	C592.712,430.474,584.217,432.277,590.393,439.644 M602.492,437.161c15.728-17.92,30.159-34.321,45.08-50.98
	c3.252,4.287,8.256,11.11,13.965,18.612c3.73-4.72,6.05-7.786,9.894-12.643c-6.163-6.39-11.872-12.223-17.581-18.056
	c12.691-14.583,24.689-28.217,36.106-41.253c6.403,7.217,14.091,15.831,22.358,25.259
	C682.269,396.6,646.867,423.677,602.492,437.161 M747.125,296.58c-8.143,16.93-16.763,33.738-25.145,50.424
	c-8.858-9.998-16.308-18.49-24.348-27.511c12.93-14.434,25.508-28.624,38.779-43.329c2.911,3.473,6.869,7.896,10.144,12.915
	C747.716,290.747,748.058,294.775,747.125,296.58 M754.813,276.557c-3.719-4.572-6.869-8.601-10.474-13.037
	c5.355-5.982,11.406-12.779,18.274-20.579C759.941,254.77,757.383,265.582,754.813,276.557 M762.853,239.075
	c-3.264-3.202-5.584-5.44-8.04-7.922c-6.517,7.922-12.806,15.56-18.515,22.641c-9.666-11.544-18.854-22.519-28.407-33.901
	c16.183-18.625,33.298-38.201,51.243-58.753C766.003,187.253,766.457,212.391,762.853,239.075"/>
</svg>
