<?xml version="1.0" encoding="utf-8"?>
<!-- Generator: Adobe Illustrator 16.0.3, SVG Export Plug-In . SVG Version: 6.00 Build 0)  -->
<!DOCTYPE svg PUBLIC "-//W3C//DTD SVG 1.1//EN" "http://www.w3.org/Graphics/SVG/1.1/DTD/svg11.dtd">
<svg version="1.1" id="Capa_2" xmlns="http://www.w3.org/2000/svg" xmlns:xlink="http://www.w3.org/1999/xlink" x="0px" y="0px"
	 width="800px" height="800px" viewBox="0 0 800 800" enable-background="new 0 0 800 800" xml:space="preserve">
<path d="M708.152,608.794c24.274-1.033,44.761,4.906,61.852,19.625c12.688,10.909,20.902,24.315,23.787,40.089
	c6.223,33.956-11.992,66.04-44.934,79.834c-32.907,13.793-73.508,5.982-98.582-26.748c-16.175,21.067-37.946,33.139-65.837,33.182
	c-27.993,0.064-49.951-11.642-66.497-33.354c-16.187,21.196-37.947,33.289-65.871,33.354c-28.006,0.108-49.951-11.642-66.532-33.375
	c-11.865,15.601-27.137,26.446-47.043,31.159c-20.115,4.755-39.245,2.237-57.297-6.951c-29.477-14.998-45.699-47.125-39.338-76.691
	c4.009-18.571,13.847-33.677,29.964-45.254c13.232-9.533,21.841-11.899,55.397-15.429c-22.281-25.198-27.264-52.828-11.714-82.002
	c15.573-29.169,42.605-41.402,78.061-40.53c-21.888-25.597-27.75-53.248-11.957-82.352c15.862-29.19,43.068-41.585,78.64-40.412
	c-17.866-19.367-24.923-41.434-18.99-66.267c4.102-17.226,14.124-31.288,29.372-41.982c30.521-21.433,72.975-19.12,101.166,5.121
	c24.344,20.927,38.758,64.255,4.252,103.085c35.677-1.151,63.241,11.717,78.85,41.8c14.877,28.685,9.025,55.755-12.781,80.899
	c35.005-0.71,62.385,11.415,78.143,40.52C735.938,555.083,730.55,582.563,708.152,608.794 M385.364,608.729
	c29.604,0.021,53.855-22.229,54.007-49.579c0.162-27.495-24.53-50.467-54.076-50.338c-29.454,0.141-53.543,22.67-53.521,50.079
	C331.786,586.35,355.794,608.708,385.364,608.729 M637.762,682.322c0.116-27.716-23.533-50.245-52.929-50.396
	c-30.08-0.172-54.481,22.035-54.621,49.687c-0.15,27.178,24.171,50.01,53.497,50.225C613.14,732.073,637.635,709.63,637.762,682.322
	 M464.317,558.827c0,27.63,23.812,49.881,53.404,49.902c29.569,0.021,53.74-22.121,54.064-49.536
	c0.301-27.334-24.472-50.445-54.042-50.381C488.268,508.889,464.317,531.289,464.317,558.827 M716.564,631.926
	c-29.616-0.021-53.774,22.272-53.845,49.687c-0.058,27.372,24.021,50.031,53.404,50.225c29.593,0.236,54.238-22.573,54.204-50.139
	C770.281,654.284,746.135,631.926,716.564,631.926 M584.021,485.659c29.837,0.021,53.694-21.981,53.74-49.525
	c0.047-27.877-24.239-50.504-53.926-50.235c-29.441,0.248-53.693,22.896-53.624,50.095
	C530.271,463.42,554.359,485.648,584.021,485.659 M505.254,436.188c0.104-27.662-23.359-49.891-53.057-50.289
	c-29.488-0.387-54.284,22.476-54.284,50.042c0.011,27.501,23.95,49.697,53.658,49.719
	C481.466,485.691,505.173,463.86,505.254,436.188 M505.254,681.677c-0.046-27.63-23.834-49.751-53.509-49.751
	c-29.593-0.021-53.647,22.186-53.821,49.687c-0.185,27.479,24.495,50.396,54.088,50.225
	C481.501,731.687,505.3,709.242,505.254,681.677 M596.779,559.129c0.115,27.608,23.927,49.622,53.659,49.601
	c29.546-0.021,53.577-22.38,53.577-49.815c0-27.668-24.564-50.349-54.18-50.102C620.347,509.093,596.651,531.559,596.779,559.129
	 M517.582,362.702c29.732,0.119,53.74-21.701,54.192-49.267c0.464-27.425-24.043-50.278-53.891-50.3
	c-29.454-0.021-53.369,21.884-53.566,49.041C464.12,340.398,487.515,362.594,517.582,362.702 M372.896,681.698
	c-0.081-27.909-24.077-49.923-54.25-49.772c-29.408,0.13-53.149,22.702-52.906,50.311c0.243,27.501,24.414,49.772,53.844,49.601
	C349.016,731.687,372.989,709.135,372.896,681.698 M509.193,385.748c3.36,4.002,5.99,7.123,8.841,10.501
	c2.874-3.626,5.365-6.757,8.331-10.501H509.193z M592.353,509.254h-16.453c3.001,3.637,5.48,6.628,8.192,9.909
	C586.884,515.828,589.387,512.805,592.353,509.254 M526.11,632.163H509.68c3.013,3.637,5.492,6.628,8.25,9.941
	C520.699,638.747,523.145,635.778,526.11,632.163 M443.275,508.932c2.955,3.626,5.458,6.682,8.4,10.296
	c2.886-3.496,5.423-6.595,8.459-10.296H443.275z M460.25,608.535c-3.476-3.916-6.014-6.778-8.782-9.898
	c-2.862,3.594-5.215,6.542-7.88,9.898H460.25z M584.057,598.443c-2.851,3.529-5.249,6.542-8.03,10.027h16.28
	C589.352,604.877,586.907,601.908,584.057,598.443 M377.195,632.142c3.244,3.873,5.735,6.843,8.389,10.027
	c2.688-3.356,5.122-6.369,8.053-10.027H377.195z M641.782,632.056c3.419,3.895,5.944,6.757,8.714,9.92
	c2.873-3.529,5.261-6.478,8.064-9.92H641.782z M526.227,485.487c-2.932-3.411-5.539-6.402-8.471-9.813
	c-2.746,3.41-5.04,6.229-7.948,9.813H526.227z"/>
<path d="M421.921,18.781c17.357,8.554,34.135,16.816,51.376,25.327c-6.095,11.125-11.969,21.874-17.855,32.601
	c-87.389,159.012-174.8,318.034-262.015,477.126c-1.692,3.077-1.008,7.23-1.634,10.867c-0.834,4.82-0.892,10.027-2.989,14.331
	c-4.971,10.222-10.88,20.034-16.546,29.911c-24.877,43.425-49.87,86.763-74.678,130.209c-9.153,16.031-22.05,20.034-39.117,11.62
	c-11.9-5.832-23.834-11.642-35.676-17.603C8.36,725.897,4.178,713.31,11.883,699.753c30.485-53.581,60.982-107.142,91.827-160.556
	c2.583-4.454,7.798-7.628,11.865-11.318c3.024-2.733,7.172-4.831,9.107-8.081c97.585-164.315,194.984-328.728,292.419-493.12
	C418.549,24.236,420.056,21.826,421.921,18.781 M406.325,92.729C319.481,239.271,232.95,385.296,146.187,531.688
	c8.238,4.077,16.21,8.005,24.587,12.142c81.769-148.817,163.434-297.36,245.295-446.312
	C412.697,95.872,409.87,94.473,406.325,92.729 M126.744,548.326c-31.389,54.809-62.43,108.992-93.657,163.498
	c13.673,6.8,26.882,13.385,40.508,20.163c31.262-54.765,62.21-108.97,93.356-163.541
	C153.417,561.668,140.567,555.234,126.744,548.326 M431.735,49.908c-4.473,7.564-8.771,14.837-13.325,22.519
	c3.163,1.496,5.944,2.797,9.084,4.271c4.264-7.79,8.273-15.117,12.525-22.885C436.902,52.35,434.481,51.199,431.735,49.908"/>
</svg>
