<?xml version="1.0" encoding="utf-8"?>
<!-- Generator: Adobe Illustrator 24.0.2, SVG Export Plug-In . SVG Version: 6.00 Build 0)  -->
<svg version="1.1" id="Capa_1" xmlns="http://www.w3.org/2000/svg" xmlns:xlink="http://www.w3.org/1999/xlink" x="0px" y="0px"
	 viewBox="0 0 1800 457.4" style="enable-background:new 0 0 1800 457.4;" xml:space="preserve">
<style type="text/css">
	.st0{fill:#E41B13;}
	.st1{fill:#FCD908;}
	.st2{fill:#575656;}
	.st3{fill:#878786;}
</style>
<g>
	<g>
		<polygon points="165.5,43 42.5,414.4 42.5,43 		"/>
		<polygon class="st0" points="369.9,414.4 127.4,414.4 248.6,48.3 		"/>
		<polygon class="st1" points="454.8,43 454.8,414.4 331.7,43 		"/>
	</g>
	<g>
		<g>
			<g>
				<path class="st2" d="M758.1,351.9c0,4.9-0.7,9.3-2,13.1c-1.3,3.9-3.3,7.2-6,9.9c-2.7,2.7-6.2,4.8-10.4,6.3
					c-4.2,1.4-9.2,2.2-15.1,2.2c-1.7,0-3.3-0.1-5-0.2c-1.7-0.1-3.2-0.2-4.5-0.4c-1.4-0.1-2.6-0.3-3.6-0.5c-1-0.2-1.8-0.3-2.2-0.5
					c-0.8-0.3-1.4-0.6-1.7-1c-0.3-0.3-0.4-0.9-0.4-1.6v-54.8c0-0.7,0.1-1.2,0.4-1.6c0.3-0.3,0.8-0.7,1.7-1c0.5-0.2,1.2-0.3,2.2-0.5
					c1-0.2,2.2-0.3,3.6-0.5c1.4-0.1,2.9-0.3,4.5-0.4c1.7-0.1,3.3-0.2,5-0.2c5.9,0,10.9,0.8,15.1,2.3c4.2,1.5,7.7,3.6,10.4,6.4
					c2.7,2.8,4.7,6.1,6,9.9C757.5,342.9,758.1,347.2,758.1,351.9z M740.5,351.6c0-7-1-12.3-3.1-15.9c-2.1-3.6-5.5-5.4-10.3-5.4
					c-0.6,0-1.2,0-1.7,0s-1,0.1-1.3,0.2v42.1c0.4,0.1,0.9,0.2,1.3,0.2c0.5,0,1.1,0,1.7,0c4.9,0,8.3-1.8,10.4-5.4
					C739.5,363.8,740.5,358.5,740.5,351.6z"/>
				<path class="st2" d="M805.1,365.5c0,2.8-0.5,5.3-1.6,7.6s-2.6,4.2-4.6,5.8c-2,1.6-4.5,2.9-7.4,3.8s-6.3,1.3-10.1,1.3
					c-3.5,0-6.6-0.5-9.4-1.4c-2.8-0.9-5.1-2.1-7-3.6c-1.9-1.5-3.4-3.1-4.4-5c-1-1.9-1.5-3.7-1.5-5.6c0-2.2,0.7-3.9,2.2-5.2
					c1.5-1.2,3.3-1.9,5.4-1.9c1.9,0,3.5,0.5,4.8,1.5c1.3,1,2.2,2.1,2.8,3.5c0.3,0.8,0.7,1.5,1.2,2.3c0.4,0.8,1,1.5,1.6,2.2
					c0.6,0.6,1.4,1.2,2.2,1.6c0.8,0.4,1.8,0.7,2.8,0.7c1.9,0,3.3-0.6,4.3-1.7c1-1.1,1.5-2.5,1.5-4.2c0-2-0.7-3.7-2.1-5
					c-1.4-1.3-3.1-2.5-5.2-3.6c-2.1-1.1-4.3-2.1-6.7-3.2s-4.7-2.4-6.7-3.9c-2.1-1.5-3.8-3.4-5.2-5.6c-1.4-2.2-2.1-5-2.1-8.3
					c0-2.8,0.6-5.4,1.7-7.6c1.1-2.2,2.7-4.1,4.7-5.7c2-1.5,4.3-2.7,7-3.5c2.7-0.8,5.6-1.2,8.8-1.2c3.8,0,7,0.5,9.7,1.3
					c2.7,0.9,4.9,2,6.6,3.4c1.7,1.4,3,2.8,3.8,4.4c0.8,1.6,1.2,3,1.2,4.3c0,2.2-0.7,3.9-2.1,5.1c-1.4,1.2-3.2,1.8-5.3,1.8
					c-1.7,0-3.2-0.5-4.4-1.4c-1.2-0.9-2.1-2.1-2.7-3.5c-0.3-0.7-0.6-1.4-1-2c-0.4-0.6-0.9-1.2-1.4-1.7s-1.1-0.9-1.9-1.3
					c-0.7-0.3-1.6-0.5-2.5-0.5c-1.7,0-3.1,0.5-4.1,1.6c-1.1,1-1.6,2.5-1.6,4.4s0.7,3.5,2.1,4.7c1.4,1.2,3.2,2.3,5.4,3.4
					c2.1,1,4.5,2.1,6.9,3.1c2.5,1,4.8,2.4,6.9,4c2.1,1.6,3.9,3.5,5.4,5.8C804.4,359.1,805.1,362,805.1,365.5z"/>
				<path class="st2" d="M876.9,373.4c0,1.3-0.6,2.6-1.7,3.9s-2.7,2.4-4.7,3.4s-4.4,1.8-7,2.4c-2.7,0.6-5.6,0.9-8.7,0.9
					c-4.7,0-8.8-0.8-12.4-2.3c-3.6-1.5-6.6-3.7-9.1-6.6c-2.5-2.8-4.4-6.2-5.7-10.2c-1.3-3.9-1.9-8.4-1.9-13.2
					c0-4.8,0.6-9.1,1.9-13.1c1.3-3.9,3.2-7.3,5.7-10.1c2.5-2.8,5.6-5,9.3-6.5c3.7-1.5,7.9-2.3,12.7-2.3c3.9,0,7.3,0.5,10,1.4
					c2.8,0.9,5,2.1,6.7,3.4c1.7,1.4,3,2.8,3.7,4.3c0.8,1.5,1.2,2.9,1.2,4.2c0,2.1-0.6,3.8-1.9,5.1c-1.3,1.2-3,1.9-5.2,1.9
					c-1.1,0-2-0.1-2.8-0.4c-0.8-0.3-1.5-0.7-2.1-1.1c-0.6-0.5-1.1-1-1.5-1.6c-0.4-0.6-0.8-1.2-1.1-1.9c-0.3-0.6-0.7-1.2-1.1-1.8
					c-0.4-0.6-1-1.2-1.6-1.7c-0.6-0.5-1.4-0.9-2.3-1.2c-0.9-0.3-1.9-0.5-3.1-0.5c-3.2,0-5.9,1.6-7.8,4.8c-2,3.2-3,8.5-3,15.7
					c0,3.2,0.2,6.2,0.7,8.9c0.5,2.8,1.2,5.1,2.1,7.1c0.9,2,2.1,3.6,3.5,4.7c1.4,1.2,3,1.7,4.9,1.7c2,0,3.6-0.4,4.9-1.3
					c1.2-0.9,1.9-2.1,1.9-3.6v-10.1h-6.6c-1.4,0-2.1-0.7-2.1-2v-6.2c0-1.4,0.7-2.1,2.1-2.1h20.3c1.4,0,2.1,0.7,2.1,2.1V373.4z"/>
				<path class="st2" d="M922.4,373.9c0,1.6-0.3,3-0.8,4c-0.5,1.1-1.4,2-2.7,2.7c-0.7,0.4-1.6,0.8-2.8,1.1s-2.5,0.7-4,1
					c-1.5,0.3-3.1,0.5-4.9,0.7c-1.8,0.2-3.6,0.3-5.4,0.3c-1.7,0-3.8-0.1-6.2-0.3c-2.4-0.2-4.7-0.8-6.8-1.8c-2.2-1-4-2.4-5.6-4.2
					c-1.5-1.9-2.3-4.4-2.3-7.7v-30c0-1.4,0.7-2.1,2.1-2.1h11.6c1.4,0,2.1,0.7,2.1,2.1v29.9c0,1.6,0.4,2.8,1.3,3.6
					c0.9,0.8,2.1,1.2,3.6,1.2c1.8,0,3.1-0.4,3.9-1.1c0.8-0.7,1.1-1.7,1.1-3v-30.6c0-1.4,0.7-2.1,2-2.1h11.7c1.4,0,2.1,0.7,2.1,2.1
					V373.9z"/>
				<path class="st2" d="M964.9,373.7c0,1.9-0.2,3.3-0.7,4.4c-0.5,1.1-1.4,2-2.9,2.9c-0.6,0.3-1.5,0.7-2.6,1
					c-1.1,0.3-2.3,0.7-3.7,0.9c-1.4,0.3-2.9,0.5-4.4,0.7c-1.5,0.2-3.1,0.3-4.7,0.3c-2.6,0-5.1-0.2-7.7-0.6c-2.6-0.4-4.9-1-6.9-2
					s-3.7-2.3-5-3.9c-1.3-1.7-1.9-3.8-1.9-6.3c0-3,0.8-5.5,2.4-7.4c1.6-1.9,3.7-3.5,6.2-4.7c2.5-1.2,5.3-2.1,8.3-2.7
					c3-0.6,5.8-1.2,8.6-1.7v-5.5c0-1.5-0.4-2.7-1.3-3.5c-0.9-0.8-1.9-1.3-3.2-1.3c-1.5,0-2.8,0.5-3.7,1.5c-0.9,1-1.6,2.1-1.9,3.2
					c-0.5,1.3-1.3,2.4-2.5,3.1c-1.2,0.7-2.6,1.1-4.3,1.1c-1.9,0-3.4-0.5-4.7-1.4c-1.3-1-2-2.4-2-4.3c0-1.2,0.4-2.5,1.2-3.7
					c0.8-1.3,2-2.5,3.7-3.6c1.7-1.1,3.9-2,6.5-2.7c2.7-0.7,5.9-1,9.7-1c2.5,0,4.8,0.3,6.9,0.8c2.1,0.6,4,1.4,5.5,2.6
					c1.6,1.2,2.8,2.7,3.7,4.5c0.9,1.8,1.3,3.9,1.3,6.4V373.7z M949.9,361c-1.3,0.2-2.6,0.5-3.9,0.9c-1.3,0.4-2.4,0.9-3.3,1.6
					c-1,0.7-1.8,1.5-2.4,2.6s-0.9,2.3-0.9,3.8c0,1.9,0.5,3.3,1.6,4.4s2.6,1.6,4.4,1.6c1.2,0,2.2-0.3,3.1-0.8
					c0.9-0.5,1.4-1.4,1.4-2.8V361z"/>
				<path class="st2" d="M1010.4,339.7c0,0.3,0,0.6-0.1,0.8c-0.1,0.3-0.1,0.5-0.3,0.8l-15.8,47.2c-0.8,2.3-1.7,4.3-2.7,6.2
					c-1.1,1.9-2.4,3.5-3.9,4.9c-1.5,1.4-3.3,2.4-5.3,3.2c-2,0.8-4.3,1.1-7,1.1c-3.8,0-6.5-0.7-8.3-2.1c-1.7-1.4-2.6-3.2-2.6-5.4
					c0-1.9,0.6-3.3,1.7-4.3c1.1-1,2.4-1.5,4-1.5c0.9,0,1.6,0.1,2.2,0.3c0.6,0.2,1.1,0.4,1.6,0.6c0.5,0.2,0.9,0.4,1.3,0.6
					c0.4,0.2,0.9,0.3,1.4,0.3c1.1,0,2-0.4,2.7-1.3s1.2-1.7,1.5-2.6l0.8-2.5l-16-44.5c-0.1-0.3-0.2-0.6-0.3-0.9
					c-0.1-0.3-0.1-0.6-0.1-0.8c0-1.4,0.7-2.1,2.1-2.1h11.9c1.3,0,2.2,0.6,2.5,1.9l5.5,20.5c0.3,1.3,0.6,2.5,0.8,3.8
					c0.2,1.2,0.4,2.4,0.5,3.3c0.2,1.2,0.3,2.3,0.3,3.4h0.2c0.1-1.1,0.2-2.2,0.4-3.4c0.2-1,0.4-2.1,0.6-3.3c0.2-1.2,0.5-2.5,0.9-3.8
					l5.3-20.5c0.3-1.3,1.2-1.9,2.6-1.9h9.5C1009.7,337.6,1010.4,338.3,1010.4,339.7z"/>
				<path class="st2" d="M1049.1,373.7c0,1.9-0.2,3.3-0.7,4.4c-0.5,1.1-1.4,2-2.9,2.9c-0.6,0.3-1.5,0.7-2.6,1
					c-1.1,0.3-2.3,0.7-3.7,0.9c-1.4,0.3-2.9,0.5-4.4,0.7c-1.5,0.2-3.1,0.3-4.7,0.3c-2.6,0-5.1-0.2-7.7-0.6c-2.6-0.4-4.9-1-6.9-2
					c-2-1-3.7-2.3-5-3.9c-1.3-1.7-1.9-3.8-1.9-6.3c0-3,0.8-5.5,2.4-7.4c1.6-1.9,3.7-3.5,6.2-4.7c2.5-1.2,5.3-2.1,8.3-2.7
					c3-0.6,5.8-1.2,8.6-1.7v-5.5c0-1.5-0.4-2.7-1.3-3.5s-1.9-1.3-3.2-1.3c-1.5,0-2.8,0.5-3.7,1.5c-0.9,1-1.6,2.1-1.9,3.2
					c-0.5,1.3-1.3,2.4-2.5,3.1c-1.2,0.7-2.6,1.1-4.3,1.1c-1.9,0-3.4-0.5-4.7-1.4c-1.3-1-2-2.4-2-4.3c0-1.2,0.4-2.5,1.2-3.7
					c0.8-1.3,2-2.5,3.7-3.6c1.7-1.1,3.9-2,6.5-2.7c2.7-0.7,5.9-1,9.7-1c2.5,0,4.8,0.3,6.9,0.8c2.1,0.6,4,1.4,5.5,2.6
					c1.6,1.2,2.8,2.7,3.7,4.5c0.9,1.8,1.3,3.9,1.3,6.4V373.7z M1034.1,361c-1.3,0.2-2.6,0.5-3.9,0.9c-1.3,0.4-2.4,0.9-3.3,1.6
					c-1,0.7-1.8,1.5-2.4,2.6c-0.6,1-0.9,2.3-0.9,3.8c0,1.9,0.5,3.3,1.6,4.4s2.6,1.6,4.4,1.6c1.2,0,2.2-0.3,3.1-0.8
					c0.9-0.5,1.4-1.4,1.4-2.8V361z"/>
				<path class="st2" d="M1094.9,401c0,1.4-0.7,2.1-2.1,2.1h-11.5c-1.3,0-2-0.7-2-2.1v-21.6c-0.9,0.9-2.3,1.8-4.3,2.8
					c-2,1-4.4,1.5-7.2,1.5s-5.2-0.6-7.2-1.7c-2-1.1-3.7-2.6-5-4.5c-1.3-1.9-2.3-4.2-3-6.7c-0.6-2.6-1-5.3-1-8.2
					c0-3.9,0.5-7.5,1.6-10.7s2.6-6,4.7-8.3c2.1-2.3,4.6-4.1,7.7-5.4c3-1.2,6.6-1.9,10.6-1.9c3.8,0,7,0.3,9.5,1
					c2.5,0.7,4.4,1.4,5.7,2.1c1.3,0.8,2.3,1.7,2.8,2.7c0.5,1,0.8,2.3,0.8,4V401z M1079.3,347.8c0-1-0.4-1.8-1.1-2.3
					c-0.8-0.6-1.7-0.9-3-0.9c-0.9,0-1.8,0.3-2.7,0.8c-0.9,0.6-1.8,1.4-2.5,2.6c-0.7,1.2-1.3,2.7-1.8,4.6c-0.5,1.9-0.7,4.1-0.7,6.7
					c0,4.9,0.7,8.5,2,10.7c1.4,2.2,3.1,3.3,5.4,3.3c0.9,0,1.8-0.2,2.5-0.5c0.8-0.3,1.4-0.7,1.8-1V347.8z"/>
				<path class="st2" d="M1140.4,373.9c0,1.6-0.3,3-0.8,4c-0.5,1.1-1.4,2-2.7,2.7c-0.7,0.4-1.6,0.8-2.8,1.1c-1.2,0.3-2.5,0.7-4,1
					c-1.5,0.3-3.1,0.5-4.9,0.7c-1.8,0.2-3.6,0.3-5.4,0.3c-1.7,0-3.8-0.1-6.2-0.3c-2.4-0.2-4.7-0.8-6.8-1.8s-4-2.4-5.6-4.2
					c-1.5-1.9-2.3-4.4-2.3-7.7v-30c0-1.4,0.7-2.1,2.1-2.1h11.6c1.4,0,2.1,0.7,2.1,2.1v29.9c0,1.6,0.4,2.8,1.3,3.6
					c0.9,0.8,2.1,1.2,3.6,1.2c1.8,0,3.1-0.4,3.9-1.1c0.8-0.7,1.1-1.7,1.1-3v-30.6c0-1.4,0.7-2.1,2-2.1h11.7c1.4,0,2.1,0.7,2.1,2.1
					V373.9z"/>
				<path class="st2" d="M1160.8,326.5c0,1.7-0.7,3.1-2.2,4.4c-1.5,1.2-3.5,1.9-6.1,1.9c-2.6,0-4.6-0.6-6.1-1.9
					c-1.5-1.2-2.2-2.7-2.2-4.4c0-1.7,0.7-3.1,2.2-4.3c1.4-1.2,3.5-1.8,6.1-1.8c2.6,0,4.6,0.6,6.1,1.8
					C1160.1,323.4,1160.8,324.8,1160.8,326.5z M1160.5,380.6c0,1.4-0.7,2.1-2.1,2.1h-11.7c-1.3,0-2-0.7-2-2.1v-40.9
					c0-1.4,0.7-2.1,2-2.1h11.7c1.4,0,2.1,0.7,2.1,2.1V380.6z"/>
				<path class="st2" d="M1180.7,380.6c0,1.4-0.7,2.1-2.1,2.1H1167c-1.3,0-2-0.7-2-2.1v-62.4c0-1.4,0.7-2.1,2-2.1h11.7
					c1.4,0,2.1,0.7,2.1,2.1V380.6z"/>
				<path class="st2" d="M1224,360.1c0,1.3-0.7,2-2.1,2h-16.6c-1.4,0-2.1-0.7-2.1-2v-6.6c0-1.4,0.7-2.1,2.1-2.1h16.6
					c1.4,0,2.1,0.7,2.1,2.1V360.1z"/>
				<path class="st2" d="M1290.4,365.5c0,2.8-0.5,5.3-1.6,7.6s-2.6,4.2-4.6,5.8c-2,1.6-4.5,2.9-7.4,3.8s-6.3,1.3-10.1,1.3
					c-3.5,0-6.6-0.5-9.4-1.4c-2.8-0.9-5.1-2.1-7-3.6c-1.9-1.5-3.4-3.1-4.4-5c-1-1.9-1.5-3.7-1.5-5.6c0-2.2,0.7-3.9,2.2-5.2
					c1.5-1.2,3.3-1.9,5.4-1.9c1.9,0,3.5,0.5,4.8,1.5c1.3,1,2.2,2.1,2.8,3.5c0.3,0.8,0.7,1.5,1.2,2.3c0.4,0.8,1,1.5,1.6,2.2
					c0.6,0.6,1.4,1.2,2.2,1.6c0.8,0.4,1.8,0.7,2.8,0.7c1.9,0,3.3-0.6,4.3-1.7c1-1.1,1.5-2.5,1.5-4.2c0-2-0.7-3.7-2.1-5
					c-1.4-1.3-3.1-2.5-5.2-3.6c-2.1-1.1-4.3-2.1-6.7-3.2c-2.4-1.1-4.7-2.4-6.7-3.9c-2.1-1.5-3.8-3.4-5.2-5.6c-1.4-2.2-2.1-5-2.1-8.3
					c0-2.8,0.6-5.4,1.7-7.6c1.1-2.2,2.7-4.1,4.7-5.7c2-1.5,4.3-2.7,7-3.5s5.6-1.2,8.8-1.2c3.8,0,7,0.5,9.7,1.3
					c2.7,0.9,4.9,2,6.6,3.4c1.7,1.4,3,2.8,3.8,4.4c0.8,1.6,1.2,3,1.2,4.3c0,2.2-0.7,3.9-2.1,5.1c-1.4,1.2-3.2,1.8-5.3,1.8
					c-1.7,0-3.2-0.5-4.4-1.4c-1.2-0.9-2.1-2.1-2.7-3.5c-0.3-0.7-0.6-1.4-1-2c-0.4-0.6-0.9-1.2-1.4-1.7c-0.5-0.5-1.1-0.9-1.9-1.3
					c-0.7-0.3-1.6-0.5-2.5-0.5c-1.7,0-3.1,0.5-4.1,1.6s-1.6,2.5-1.6,4.4s0.7,3.5,2.1,4.7c1.4,1.2,3.2,2.3,5.4,3.4
					c2.1,1,4.5,2.1,6.9,3.1c2.5,1,4.8,2.4,6.9,4c2.1,1.6,3.9,3.5,5.4,5.8C1289.7,359.1,1290.4,362,1290.4,365.5z"/>
				<path class="st2" d="M1331.2,373.7c0,1.9-0.2,3.3-0.7,4.4c-0.5,1.1-1.4,2-2.9,2.9c-0.6,0.3-1.5,0.7-2.6,1
					c-1.1,0.3-2.3,0.7-3.7,0.9c-1.4,0.3-2.9,0.5-4.4,0.7c-1.5,0.2-3.1,0.3-4.7,0.3c-2.6,0-5.1-0.2-7.7-0.6c-2.6-0.4-4.9-1-6.9-2
					c-2-1-3.7-2.3-5-3.9c-1.3-1.7-1.9-3.8-1.9-6.3c0-3,0.8-5.5,2.4-7.4c1.6-1.9,3.7-3.5,6.2-4.7c2.5-1.2,5.3-2.1,8.3-2.7
					c3-0.6,5.8-1.2,8.6-1.7v-5.5c0-1.5-0.4-2.7-1.3-3.5c-0.9-0.8-1.9-1.3-3.2-1.3c-1.5,0-2.8,0.5-3.7,1.5c-0.9,1-1.6,2.1-1.9,3.2
					c-0.5,1.3-1.3,2.4-2.5,3.1c-1.2,0.7-2.6,1.1-4.3,1.1c-1.9,0-3.4-0.5-4.7-1.4s-2-2.4-2-4.3c0-1.2,0.4-2.5,1.2-3.7
					c0.8-1.3,2-2.5,3.7-3.6c1.7-1.1,3.9-2,6.5-2.7c2.7-0.7,5.9-1,9.7-1c2.5,0,4.8,0.3,6.9,0.8c2.1,0.6,4,1.4,5.5,2.6
					c1.6,1.2,2.8,2.7,3.7,4.5c0.9,1.8,1.3,3.9,1.3,6.4V373.7z M1316.2,361c-1.3,0.2-2.6,0.5-3.9,0.9c-1.3,0.4-2.4,0.9-3.3,1.6
					c-1,0.7-1.8,1.5-2.4,2.6s-0.9,2.3-0.9,3.8c0,1.9,0.5,3.3,1.6,4.4s2.6,1.6,4.4,1.6c1.2,0,2.2-0.3,3.1-0.8
					c0.9-0.5,1.4-1.4,1.4-2.8V361z"/>
				<path class="st2" d="M1402.4,380.6c0,1.4-0.7,2.1-2.1,2.1h-11.5c-1.3,0-2-0.7-2-2.1v-30.1c0-1.8-0.4-3.2-1.2-4.3
					c-0.8-1-2.1-1.6-3.9-1.6c-1.9,0-3.2,0.5-3.9,1.6c-0.8,1-1.1,2.4-1.1,4.2v30.2c0,1.4-0.7,2.1-2,2.1h-11.5c-1.4,0-2.1-0.7-2.1-2.1
					v-30.1c0-1.8-0.4-3.2-1.2-4.3s-2.1-1.6-3.9-1.6c-1.8,0-3,0.4-3.8,1.3c-0.7,0.8-1.1,2.1-1.1,3.7v31c0,1.4-0.7,2.1-2.1,2.1h-11.5
					c-1.4,0-2.1-0.7-2.1-2.1v-35.7c0-1.7,0.2-2.9,0.7-3.7c0.5-0.8,1.5-1.4,3-2.1c1.7-0.8,3.9-1.4,6.7-2c2.8-0.5,5.8-0.8,9-0.8
					c3.7,0,6.7,0.5,9,1.3c2.3,0.9,4.3,2,5.8,3.3c1.7-1.4,4-2.6,6.7-3.4c2.7-0.8,6.1-1.3,10.1-1.3c2,0,4,0.3,5.9,0.8
					c1.9,0.6,3.6,1.4,5.1,2.5c1.5,1.1,2.7,2.5,3.7,4.2c0.9,1.7,1.4,3.6,1.4,5.9V380.6z"/>
				<path class="st2" d="M1449.8,357.6c0,3.9-0.5,7.5-1.6,10.7s-2.6,6-4.7,8.3c-2.1,2.3-4.6,4.1-7.7,5.4c-3,1.2-6.6,1.9-10.6,1.9
					c-3.8,0-7-0.3-9.5-1c-2.5-0.7-4.4-1.4-5.7-2.1c-1.3-0.8-2.3-1.7-2.8-2.7c-0.5-1-0.8-2.3-0.8-4v-55.9c0-1.4,0.7-2.1,2.1-2.1h11.5
					c1.4,0,2.1,0.7,2.1,2.1l-0.1,22.6c0.9-0.9,2.3-1.8,4.3-2.8c2-1,4.3-1.5,7.1-1.5s5.2,0.6,7.2,1.7c2,1.1,3.7,2.6,5,4.5
					c1.3,1.9,2.3,4.2,3,6.7C1449.5,351.9,1449.8,354.7,1449.8,357.6z M1433.9,359.9c0-4.9-0.7-8.5-2-10.7c-1.3-2.2-3.1-3.3-5.3-3.3
					c-0.9,0-1.8,0.2-2.5,0.5c-0.7,0.3-1.4,0.7-1.8,1v24.3c0,1,0.4,1.8,1.1,2.4c0.7,0.6,1.7,0.9,2.9,0.9c0.9,0,1.8-0.3,2.7-0.9
					s1.7-1.5,2.5-2.7c0.7-1.2,1.3-2.8,1.8-4.7C1433.7,364.8,1433.9,362.5,1433.9,359.9z"/>
				<path class="st2" d="M1495.2,360c0,3.8-0.5,7.1-1.6,10c-1.1,2.9-2.6,5.4-4.6,7.5c-2,2.1-4.3,3.6-7,4.7c-2.7,1.1-5.7,1.6-9,1.6
					c-3.3,0-6.3-0.5-9-1.6c-2.7-1.1-5.1-2.6-7-4.7c-2-2.1-3.5-4.6-4.6-7.5c-1.1-2.9-1.6-6.3-1.6-10c0-3.7,0.6-7,1.7-10
					c1.1-3,2.6-5.4,4.6-7.4c1.9-2,4.3-3.5,7-4.6c2.7-1.1,5.7-1.6,9-1.6c3.3,0,6.3,0.5,9,1.6c2.7,1.1,5.1,2.6,7,4.6
					c1.9,2,3.5,4.5,4.6,7.4C1494.7,353,1495.2,356.3,1495.2,360z M1479.2,359.7c0-4.9-0.5-8.7-1.6-11.2c-1.1-2.6-2.7-3.9-4.7-3.9
					c-4.2,0-6.3,4.9-6.3,14.7c0,5,0.5,8.7,1.6,11.3s2.7,3.9,4.7,3.9C1477.1,374.5,1479.2,369.5,1479.2,359.7z"/>
				<path class="st2" d="M1532.6,345c0,2.1-0.5,3.8-1.5,5c-1,1.2-2.5,1.7-4.5,1.7c-1.7,0-3-0.4-3.8-1.1c-0.8-0.7-1.4-1.5-1.9-2.4
					c-0.5-0.9-0.9-1.7-1.4-2.4c-0.5-0.7-1.3-1.1-2.6-1.1c-1,0-1.9,0.3-2.5,0.8c-0.6,0.5-0.9,1.3-0.9,2.3v32.8c0,1.4-0.7,2.1-2.1,2.1
					h-11.6c-1.4,0-2.1-0.7-2.1-2.1v-35.7c0-1.7,0.2-2.9,0.7-3.7c0.5-0.8,1.5-1.5,3-2.1c1.6-0.7,3.8-1.3,6.7-1.9
					c2.9-0.5,6.1-0.8,9.6-0.8c5.2,0,9,0.8,11.3,2.4C1531.4,340.4,1532.6,342.5,1532.6,345z"/>
				<path class="st2" d="M1575.4,360c0,3.8-0.5,7.1-1.6,10c-1.1,2.9-2.6,5.4-4.6,7.5c-2,2.1-4.3,3.6-7,4.7c-2.7,1.1-5.7,1.6-9,1.6
					c-3.3,0-6.3-0.5-9-1.6c-2.7-1.1-5.1-2.6-7-4.7c-2-2.1-3.5-4.6-4.6-7.5c-1.1-2.9-1.6-6.3-1.6-10c0-3.7,0.6-7,1.7-10
					c1.1-3,2.6-5.4,4.6-7.4c1.9-2,4.3-3.5,7-4.6c2.7-1.1,5.7-1.6,9-1.6c3.3,0,6.3,0.5,9,1.6c2.7,1.1,5.1,2.6,7,4.6
					c1.9,2,3.5,4.5,4.6,7.4C1574.9,353,1575.4,356.3,1575.4,360z M1559.4,359.7c0-4.9-0.5-8.7-1.6-11.2c-1.1-2.6-2.7-3.9-4.7-3.9
					c-4.2,0-6.3,4.9-6.3,14.7c0,5,0.5,8.7,1.6,11.3s2.7,3.9,4.7,3.9C1557.4,374.5,1559.4,369.5,1559.4,359.7z"/>
				<path class="st2" d="M1620.1,380.6c0,1.4-0.7,2.1-2.1,2.1h-11.7c-1.3,0-2-0.7-2-2.1v-30.1c0-1.6-0.4-3-1.2-4.1
					c-0.8-1.1-2.3-1.7-4.3-1.7c-2.1,0-3.5,0.5-4.1,1.4s-0.9,2.1-0.9,3.4v31.1c0,1.4-0.7,2.1-2.1,2.1h-11.6c-1.4,0-2.1-0.7-2.1-2.1
					v-35.7c0-1.7,0.2-2.9,0.7-3.7c0.5-0.8,1.5-1.4,3-2.1c0.9-0.3,1.9-0.7,3.2-1c1.3-0.3,2.7-0.7,4.2-0.9c1.5-0.3,3.2-0.5,4.9-0.6
					c1.7-0.1,3.4-0.2,5.2-0.2c3.1,0,6,0.3,8.6,0.8c2.6,0.6,4.8,1.4,6.6,2.5s3.2,2.5,4.2,4.2c1,1.7,1.5,3.6,1.5,5.9V380.6z"/>
				<path class="st2" d="M1665.8,373.9c0,1.8-0.3,3.2-0.8,4.1s-1.5,1.9-2.8,2.7c-0.6,0.4-1.5,0.8-2.6,1.2c-1.1,0.4-2.4,0.7-3.8,1
					c-1.4,0.3-2.9,0.5-4.5,0.7c-1.6,0.2-3.2,0.3-4.7,0.3c-4.3,0-8-0.6-11-1.7s-5.5-2.7-7.4-4.7c-1.9-2-3.3-4.4-4.2-7.2
					c-0.9-2.8-1.3-5.8-1.3-9.1c0-3.4,0.4-6.6,1.3-9.6c0.9-3,2.2-5.6,4-7.8c1.7-2.2,3.9-3.9,6.4-5.2c2.5-1.3,5.4-1.9,8.6-1.9
					c1.9,0,3.5,0.2,4.7,0.6c1.2,0.4,2.1,0.8,2.7,1.1v-20.1c0-1.4,0.7-2.1,2-2.1h11.5c1.4,0,2.1,0.7,2.1,2.1V373.9z M1650.3,345.6
					c-0.5-0.3-1-0.5-1.6-0.7c-0.6-0.2-1.4-0.3-2.4-0.3c-2.2,0-4.1,1.2-5.7,3.7c-1.5,2.5-2.3,6.2-2.3,11.1c0,4.9,0.8,8.7,2.4,11.4
					s3.5,4,5.7,4c2.6,0,3.9-1,3.9-3.1V345.6z"/>
				<path class="st2" d="M1712.9,360c0,3.8-0.5,7.1-1.6,10c-1.1,2.9-2.6,5.4-4.6,7.5c-2,2.1-4.3,3.6-7,4.7c-2.7,1.1-5.7,1.6-9,1.6
					c-3.3,0-6.3-0.5-9-1.6c-2.7-1.1-5.1-2.6-7-4.7c-2-2.1-3.5-4.6-4.6-7.5c-1.1-2.9-1.6-6.3-1.6-10c0-3.7,0.6-7,1.7-10
					c1.1-3,2.6-5.4,4.6-7.4c1.9-2,4.3-3.5,7-4.6c2.7-1.1,5.7-1.6,9-1.6c3.3,0,6.3,0.5,9,1.6c2.7,1.1,5.1,2.6,7,4.6
					c1.9,2,3.5,4.5,4.6,7.4C1712.4,353,1712.9,356.3,1712.9,360z M1696.9,359.7c0-4.9-0.5-8.7-1.6-11.2c-1.1-2.6-2.7-3.9-4.7-3.9
					c-4.2,0-6.3,4.9-6.3,14.7c0,5,0.5,8.7,1.6,11.3s2.7,3.9,4.7,3.9C1694.8,374.5,1696.9,369.5,1696.9,359.7z M1704.2,321
					c0,0.5-0.2,1-0.7,1.5l-9.7,9c-1,0.9-1.9,1.3-2.9,1.3h-4.7c-0.9,0-1.4-0.4-1.4-1.3c0-0.3,0.2-0.7,0.5-1.2l4.9-8.4
					c0.6-1,1.8-1.8,3.4-2.3c1.6-0.5,3.4-0.8,5.2-0.8c1.6,0,2.9,0.2,3.9,0.7C1703.7,319.8,1704.2,320.3,1704.2,321z"/>
				<path class="st2" d="M1757.5,380.6c0,1.4-0.7,2.1-2.1,2.1h-11.7c-1.3,0-2-0.7-2-2.1v-30.1c0-1.6-0.4-3-1.2-4.1
					c-0.8-1.1-2.3-1.7-4.3-1.7c-2.1,0-3.5,0.5-4.1,1.4s-0.9,2.1-0.9,3.4v31.1c0,1.4-0.7,2.1-2.1,2.1h-11.6c-1.4,0-2.1-0.7-2.1-2.1
					v-35.7c0-1.7,0.2-2.9,0.7-3.7c0.5-0.8,1.5-1.4,3-2.1c0.9-0.3,1.9-0.7,3.2-1c1.3-0.3,2.7-0.7,4.2-0.9c1.5-0.3,3.2-0.5,4.9-0.6
					c1.7-0.1,3.4-0.2,5.2-0.2c3.1,0,6,0.3,8.6,0.8c2.6,0.6,4.8,1.4,6.6,2.5s3.2,2.5,4.2,4.2c1,1.7,1.5,3.6,1.5,5.9V380.6z"/>
			</g>
		</g>
		<g>
			<g>
				<g>
					<path d="M619.4,282.3c0,2.6-1.3,4-4,4h-25.1c-1.4,0-2.5-0.3-3.1-0.8c-0.7-0.5-1.2-1.5-1.7-2.8l-5.8-19.5h-33.5l-5.9,19.5
						c-0.4,1.3-1,2.3-1.6,2.8c-0.6,0.6-1.7,0.8-3.2,0.8h-20.3c-2.6,0-4-1.3-4-4c0-0.5,0.1-1.1,0.2-1.6c0.2-0.5,0.4-1,0.6-1.6
						l36-105.8c0.4-1.3,1-2.3,1.6-2.8c0.7-0.5,1.8-0.8,3.3-0.8h24.4c1.5,0,2.6,0.3,3.2,0.8c0.6,0.6,1.2,1.5,1.7,2.8l36.1,105.8
						c0.2,0.6,0.4,1.1,0.6,1.6C619.3,281.2,619.4,281.8,619.4,282.3z M568.4,219.3c-0.8-2.7-1.5-5.6-2.1-8.5
						c-0.6-2.9-1.1-5.6-1.6-8.2c-0.4-2.9-0.9-5.7-1.3-8.6h-0.3c-0.4,2.9-0.9,5.7-1.3,8.6c-0.4,2.5-1,5.3-1.6,8.2
						c-0.6,2.9-1.3,5.7-2.1,8.5l-7.4,25.7h24.8L568.4,219.3z"/>
					<path d="M651.2,282.3c0,2.6-1.3,4-4,4h-22.1c-2.5,0-3.8-1.3-3.8-4V164c0-2.6,1.3-4,3.8-4h22.1c2.6,0,4,1.3,4,4V282.3z"/>
					<path d="M734.1,260.4c0,3.6-0.9,7.2-2.8,10.6c-1.9,3.4-4.4,6.4-7.7,9.1c-3.2,2.6-7,4.7-11.3,6.3s-8.9,2.3-13.7,2.3
						c-6.1,0-11.6-0.9-16.7-2.7s-9.5-4.6-13.3-8.4c-3.7-3.8-6.7-8.6-8.8-14.4s-3.2-12.6-3.2-20.5c0-7.6,1.1-14.2,3.4-19.7
						c2.3-5.6,5.3-10.1,9.1-13.8c3.8-3.6,8.2-6.3,13.3-8c5.1-1.7,10.4-2.6,16-2.6c5.2,0,9.9,0.9,14.3,2.6c4.3,1.8,8.1,4.2,11.3,7.3
						c3.2,3.1,5.7,6.8,7.4,11c1.8,4.2,2.6,8.7,2.6,13.7c0,2.9-0.6,4.9-1.6,6c-1.1,1.2-2.9,2-5.3,2.4l-42.9,6.9
						c1.1,5,3.2,9.1,6.4,12.5c3.1,3.4,7.8,5,13.9,5c2.2,0,4.2-0.3,6.1-0.9c1.9-0.6,3.6-1.4,5.1-2.3c1.5-0.9,2.9-1.9,4-3
						c1.2-1,2.1-2,2.7-2.9c0.8-0.9,1.6-1.6,2.6-2.1c0.9-0.5,2.1-0.8,3.4-0.8c1.7,0,3,0.6,4.1,1.8C733.5,257,734.1,258.5,734.1,260.4
						z M706.5,230.2c0-2-0.2-3.9-0.6-5.9c-0.4-1.9-1-3.7-1.9-5.2c-0.9-1.5-2.1-2.8-3.5-3.7c-1.5-0.9-3.3-1.4-5.4-1.4
						c-2.4,0-4.5,0.6-6.1,1.9c-1.7,1.3-3,2.9-4,4.8c-1,1.9-1.8,4.1-2.3,6.5c-0.5,2.4-0.7,4.8-0.7,7.1L706.5,230.2z"/>
					<path d="M945.9,269.3c0,3.5-0.4,6.3-1.3,8.3c-0.9,2-2.7,3.9-5.4,5.5c-1.2,0.7-2.9,1.3-5,2c-2.1,0.7-4.5,1.2-7.1,1.7
						c-2.6,0.5-5.4,0.9-8.3,1.2c-2.9,0.3-5.9,0.5-8.8,0.5c-4.8,0-9.7-0.4-14.6-1.1c-4.9-0.7-9.3-2-13.1-3.8c-3.9-1.8-7-4.3-9.4-7.4
						c-2.4-3.1-3.6-7.1-3.6-12c0-5.7,1.5-10.4,4.6-14.1c3.1-3.7,7-6.7,11.8-8.9c4.8-2.3,10-4,15.6-5.2c5.6-1.2,11-2.3,16.2-3.1
						v-10.4c0-2.9-0.8-5.1-2.5-6.7c-1.7-1.6-3.7-2.4-6-2.4c-2.9,0-5.2,1-7,2.9c-1.8,1.9-3,3.9-3.7,6c-0.9,2.5-2.4,4.5-4.7,5.9
						c-2.3,1.4-5,2.1-8.2,2.1c-3.5,0-6.5-0.9-9-2.7c-2.5-1.8-3.7-4.5-3.7-8.2c0-2.3,0.7-4.7,2.2-7.1c1.5-2.4,3.8-4.7,7-6.8
						c3.2-2.1,7.3-3.8,12.4-5.1c5.1-1.3,11.2-2,18.5-2c4.7,0,9.1,0.5,13.1,1.6c4,1,7.5,2.7,10.5,4.9c3,2.3,5.3,5.1,6.9,8.5
						c1.6,3.4,2.5,7.4,2.5,12V269.3z M917.6,245.2c-2.6,0.4-5,1-7.4,1.7c-2.4,0.7-4.5,1.7-6.3,3c-1.8,1.3-3.3,2.9-4.5,4.9
						s-1.7,4.4-1.7,7.3c0,3.5,1,6.3,3.1,8.3c2.1,2,4.9,3.1,8.4,3.1c2.2,0,4.2-0.5,5.9-1.5c1.7-1,2.6-2.7,2.6-5.3V245.2z
						 M936.5,169.3c0,1-0.4,1.9-1.3,2.8l-18.5,17c-1.9,1.6-3.7,2.5-5.4,2.5h-8.9c-1.8,0-2.6-0.8-2.6-2.5c0-0.5,0.3-1.3,1-2.3
						l9.2-15.8c1.2-2,3.4-3.5,6.4-4.5c3.1-1,6.4-1.5,9.9-1.5c3.1,0,5.6,0.4,7.4,1.2C935.6,167.1,936.5,168.1,936.5,169.3z"/>
					<path d="M866.1,282.3c0,2.6-1.3,4-4,4h-21.8c-2.5,0-3.8-1.3-3.8-4v-57.1c0-3.4-0.8-6.1-2.3-8.1c-1.5-2-4-3-7.4-3
						c-3.5,0-6,1-7.4,3c-1.4,2-2.1,4.6-2.1,7.9v57.3c0,2.6-1.3,4-3.8,4h-21.8c-2.6,0-4-1.3-4-4v-57.1c0-3.4-0.8-6.1-2.3-8.1
						c-1.5-2-4-3-7.4-3c-3.4,0-5.8,0.8-7.2,2.4c-1.4,1.6-2.1,3.9-2.1,7v58.7c0,2.6-1.3,4-4,4h-21.9c-2.7,0-4-1.3-4-4v-67.6
						c0-3.2,0.5-5.5,1.4-6.9c0.9-1.4,2.8-2.7,5.7-4c3.2-1.4,7.4-2.7,12.7-3.7c5.3-1,10.9-1.6,17-1.6c6.9,0,12.6,0.9,17.1,2.6
						c4.5,1.7,8.1,3.8,11,6.4c3.3-2.7,7.5-4.9,12.7-6.5c5.2-1.6,11.5-2.4,19.1-2.4c3.8,0,7.6,0.5,11.2,1.6c3.6,1,6.9,2.6,9.7,4.8
						c2.9,2.1,5.2,4.8,6.9,7.9c1.8,3.1,2.6,6.8,2.6,11.1V282.3z"/>
					<path d="M1036.9,282.3c0,2.6-1.3,4-4,4h-22.1c-2.5,0-3.8-1.3-3.8-4v-57.1c0-3.1-0.8-5.7-2.3-7.8c-1.5-2.1-4.3-3.2-8.3-3.2
						c-4.1,0-6.7,0.9-7.8,2.7c-1.2,1.8-1.7,4-1.7,6.5v58.9c0,2.6-1.3,4-4,4H961c-2.6,0-4-1.3-4-4v-67.6c0-3.2,0.5-5.5,1.4-6.9
						c0.9-1.4,2.8-2.7,5.7-4c1.7-0.7,3.7-1.3,6.1-2c2.4-0.7,5.1-1.2,8-1.7c2.9-0.5,6-0.9,9.2-1.2c3.2-0.3,6.5-0.4,9.8-0.4
						c5.9,0,11.4,0.5,16.3,1.6c4.9,1,9.1,2.6,12.5,4.8c3.5,2.1,6.1,4.8,8,7.9c1.9,3.1,2.8,6.8,2.8,11.1V282.3z"/>
				</g>
				<g>
					<path class="st3" d="M1164.8,282.3c0,2.6-1.2,4-3.5,4h-22.7c-2.4,0-3.7-1.3-3.7-4v-45.7h-28.2v45.7c0,2.6-1.2,4-3.5,4h-22.7
						c-2.4,0-3.7-1.3-3.7-4V173.7c0-2.6,1.2-4,3.7-4h22.7c2.3,0,3.5,1.3,3.5,4v42.7h28.2v-42.7c0-2.6,1.2-4,3.7-4h22.7
						c2.3,0,3.5,1.3,3.5,4V282.3z"/>
					<path class="st3" d="M1251.4,269.8c0,3.1-0.4,5.6-1.3,7.7c-0.9,2-2.4,3.8-4.6,5.2c-1.2,0.8-2.8,1.5-4.8,2.1
						c-2,0.7-4.2,1.3-6.8,1.8c-2.5,0.5-5.3,1-8.3,1.3c-3,0.3-6.1,0.5-9.3,0.5c-3,0-6.5-0.2-10.5-0.7c-4.1-0.4-7.9-1.6-11.7-3.4
						s-6.9-4.5-9.5-8c-2.6-3.5-3.9-8.4-3.9-14.7v-56.9c0-2.6,1.2-4,3.5-4h19.8c2.4,0,3.5,1.3,3.5,4v56.8c0,3.1,0.7,5.4,2.2,6.8
						c1.5,1.5,3.5,2.2,6.1,2.2c3.1,0,5.3-0.7,6.6-2.1c1.3-1.4,1.9-3.3,1.9-5.7v-58.1c0-2.6,1.1-4,3.4-4h19.9c2.4,0,3.6,1.3,3.6,4
						V269.8z"/>
					<path class="st3" d="M1386.6,282.3c0,2.6-1.2,4-3.7,4h-20.4c-2.4,0-3.6-1.3-3.6-4v-57.1c0-3.4-0.7-6.1-2.2-8.1
						c-1.4-2-3.8-3-7-3c-3.3,0-5.6,1-7,3c-1.3,2-2,4.6-2,7.9v57.3c0,2.6-1.2,4-3.6,4h-20.4c-2.5,0-3.7-1.3-3.7-4v-57.1
						c0-3.4-0.7-6.1-2.1-8.1c-1.4-2-3.7-3-6.9-3c-3.2,0-5.4,0.8-6.7,2.4c-1.3,1.6-2,3.9-2,7v58.7c0,2.6-1.2,4-3.7,4h-20.5
						c-2.5,0-3.7-1.3-3.7-4v-67.6c0-3.2,0.4-5.5,1.3-6.9c0.9-1.4,2.7-2.7,5.3-4c3-1.4,7-2.7,11.9-3.7c4.9-1,10.3-1.6,15.9-1.6
						c6.5,0,11.8,0.9,16,2.6c4.2,1.7,7.6,3.8,10.3,6.4c3.1-2.7,7.1-4.9,11.9-6.5c4.8-1.6,10.8-2.4,17.9-2.4c3.6,0,7.1,0.5,10.5,1.6
						c3.4,1,6.4,2.6,9.1,4.8c2.7,2.1,4.8,4.8,6.5,7.9c1.6,3.1,2.5,6.8,2.5,11.1V282.3z"/>
					<path class="st3" d="M1479.2,238.7c0,7.5-0.9,14.3-2.7,20.4c-1.8,6.1-4.6,11.4-8.2,15.8c-3.6,4.4-8.1,7.8-13.4,10.1
						c-5.3,2.4-11.5,3.5-18.5,3.5c-6.7,0-12.3-0.6-16.6-1.9c-4.4-1.3-7.7-2.6-10.1-4c-2.3-1.5-4-3.2-4.9-5c-0.9-1.8-1.4-4.4-1.4-7.7
						V164c0-2.6,1.2-4,3.7-4h20.2c2.5,0,3.7,1.3,3.7,4l-0.2,42.8c1.5-1.6,4-3.4,7.5-5.3c3.5-1.9,7.6-2.9,12.5-2.9
						c4.9,0,9.1,1,12.7,3.1c3.6,2.1,6.5,5,8.8,8.6c2.3,3.6,4.1,7.9,5.2,12.8C1478.7,228,1479.2,233.2,1479.2,238.7z M1451.3,243.1
						c0-9.4-1.2-16.2-3.5-20.4c-2.3-4.2-5.4-6.3-9.2-6.3c-1.6,0-3.1,0.3-4.4,0.9c-1.3,0.6-2.4,1.2-3.2,1.9v46c0,1.9,0.6,3.4,1.9,4.6
						c1.3,1.2,3,1.7,5.1,1.7c1.5,0,3.1-0.6,4.7-1.7c1.6-1.1,3.1-2.8,4.3-5.1c1.3-2.3,2.3-5.3,3.1-8.9
						C1450.9,252.4,1451.3,248.1,1451.3,243.1z"/>
					<path class="st3" d="M1565.4,243.4c0,7.2-1,13.5-2.9,19.1c-2,5.6-4.7,10.3-8.3,14.2c-3.6,3.9-7.9,6.9-12.8,8.9
						c-5,2-10.5,3.1-16.5,3.1c-6,0-11.5-1-16.5-3.1c-5-2-9.2-5-12.8-8.9c-3.6-3.9-6.4-8.6-8.3-14.2c-2-5.6-2.9-11.9-2.9-19.1
						c0-7,1-13.4,3-19c2-5.6,4.8-10.3,8.3-14.1c3.5-3.8,7.8-6.7,12.7-8.7c5-2,10.5-3.1,16.5-3.1c6,0,11.5,1,16.5,3.1
						c5,2,9.2,5,12.7,8.7c3.5,3.8,6.3,8.5,8.3,14.1C1564.4,230,1565.4,236.3,1565.4,243.4z M1536.3,242.8c0-9.3-1-16.4-2.9-21.3
						c-2-4.9-4.8-7.3-8.6-7.3c-7.6,0-11.4,9.3-11.4,27.8c0,9.4,1,16.6,2.9,21.5c2,4.9,4.8,7.3,8.6,7.3
						C1532.5,270.8,1536.3,261.4,1536.3,242.8z"/>
					<path class="st3" d="M1599.8,282.3c0,2.6-1,4-2.9,4h-16.2c-1.9,0-2.8-1.3-2.8-4V164c0-2.6,0.9-4,2.8-4h16.2
						c1.9,0,2.9,1.3,2.9,4V282.3z"/>
					<path class="st3" d="M1690.6,269.6c0,3.4-0.5,6-1.4,7.8s-2.6,3.5-4.9,5.2c-1.1,0.8-2.7,1.5-4.6,2.2c-2,0.7-4.2,1.3-6.7,1.9
						c-2.5,0.5-5.2,1-8,1.3c-2.8,0.3-5.6,0.5-8.4,0.5c-7.6,0-14.1-1.1-19.5-3.2c-5.4-2.1-9.8-5.1-13.2-9c-3.4-3.8-5.9-8.4-7.5-13.7
						c-1.6-5.3-2.4-11.1-2.4-17.3c0-6.5,0.8-12.6,2.4-18.2c1.6-5.7,3.9-10.6,7-14.8c3.1-4.2,6.8-7.5,11.3-9.9
						c4.4-2.4,9.5-3.6,15.3-3.6c3.4,0,6.2,0.4,8.4,1.2c2.2,0.8,3.8,1.5,4.7,2.1V164c0-2.6,1.2-4,3.5-4h20.4c2.5,0,3.7,1.3,3.7,4
						V269.6z M1663,216c-0.8-0.5-1.8-1-2.8-1.4c-1-0.4-2.4-0.6-4.2-0.6c-3.9,0-7.3,2.3-10,7c-2.7,4.7-4.1,11.7-4.1,21
						c0,9.2,1.4,16.4,4.3,21.5c2.8,5.1,6.2,7.7,10,7.7c4.6,0,6.8-2,6.8-5.9V216z"/>
					<path class="st3" d="M1748,278.8c0,1.4-0.5,2.8-1.4,4c-0.9,1.2-2.1,2.2-3.7,3.1c-1.5,0.8-3.3,1.5-5.4,2
						c-2.1,0.5-4.3,0.7-6.7,0.7c-2.5,0-5.1-0.3-7.9-0.9c-2.7-0.6-5.3-1.8-7.7-3.7c-2.4-1.9-4.3-4.5-5.9-8s-2.3-8-2.3-13.6v-45.5
						h-6.6c-2.2,0-3.3-1.3-3.3-4v-8.1c0-2.6,1.1-4,3.3-4h6.6v-9.9c0-2.6,0.8-4.3,2.3-5.1l17.9-8.3c0.4-0.2,0.7-0.4,1.1-0.6
						s0.7-0.2,1.2-0.2c2.3,0,3.5,1.3,3.5,4v20.1h10.2c2.3,0,3.4,1.3,3.4,4v8.1c0,2.6-1.1,4-3.4,4h-10.2v46.4c0,4.2,0.7,7,2.2,8.4
						c1.5,1.4,3.3,2.1,5.5,2.1h2.4C1746.4,273.7,1748,275.4,1748,278.8z"/>
				</g>
			</g>
			<g>
				<path d="M562.3,148.3c-20.7,0-30-17.3-30-35.6c0-18,10.4-34.3,29.1-34.3c14.8,0,21.8,9.8,21.8,13.8c0,2.7-1.8,4-4,4
					c-2,0-3.2-1.4-3.9-2.9c-1.3-3-4.8-9.5-14.3-9.5c-11.1,0-19.5,9.9-19.5,27.6c0,18,9,30.5,21.7,30.5c8.4,0,13-4.1,15.9-7
					c0.7-0.7,1.3-1,2.1-1c1.1,0,2,0.8,2,2C583.1,139.3,574.6,148.3,562.3,148.3z"/>
				<path d="M609.2,148c-14.3,0-21.4-12.3-21.4-25.9s7.4-25.6,21.4-25.6c14,0,21.5,11.9,21.5,25.6S623.5,148,609.2,148z
					 M608.9,101.1c-9.3,0-12.9,9.9-12.9,20c0,10.3,3.8,21.9,13.3,21.9c10.1,0,13.2-10.1,13.2-20.2
					C622.5,112.5,618.7,101.1,608.9,101.1z"/>
				<path d="M645.6,146.8h-5.1c-1,0-1.4-0.5-1.4-1.4V75.6c0-0.9,0.5-1.4,1.4-1.4h5.1c1,0,1.4,0.5,1.4,1.4v69.8
					C647,146.4,646.5,146.8,645.6,146.8z"/>
				<path d="M675.9,148c-10.5,0-20.5-7-20.5-25.9c0-17.8,10.1-25.6,20.6-25.6c12,0,17.8,9.5,17.8,18.2c0,1.5-0.8,1.9-2.4,2.2
					l-28.9,4.8c0.3,10.5,4.9,19.7,15.1,19.7c6.6,0,10.6-5.2,12.8-9.5c0.4-0.9,1.1-1.5,2.1-1.5c0.9,0,1.5,0.9,1.5,1.7
					C694,136.6,688.5,148,675.9,148z M675.2,101c-8.6,0-12.4,8.3-12.9,16.6l23.7-4C685.6,107.1,682.7,101,675.2,101z"/>
				<path d="M717.1,170.1c-11.5,0-18.5-4.8-18.5-12.7c0-6.2,5.5-10.5,9.2-12.7c-4.1-0.8-7.4-2.9-7.4-7.2s5.8-8.6,8-9.9
					c-4.9-2.9-7.9-8.2-7.9-14.3c0-9.6,7.1-16.7,18-16.7c7,0,9.8,2.9,13.6,2.9c3,0,5.5-0.6,7.1-1.2c0.3-0.1,0.8-0.3,1.1-0.3
					c0.5,0,0.8,0.4,1,1c0.2,0.5,0.4,1,0.4,1.3c0,0.5-0.3,0.9-1,1.2c-1.5,0.8-4.5,1.7-7.7,2c2,2.5,3.4,6,3.4,9.8
					c0,9.6-7.1,16.8-18,16.8c-2.7,0-4.7-0.4-6.5-1c-1.5,0.9-4.9,3.9-4.9,6.6c0,4.6,6.7,4.5,14.1,4.6c9.7,0.1,21,0.5,21,11.6
					C742.1,161.7,731.5,170.1,717.1,170.1z M712.4,145.3c-3.2,2.1-6.8,5.6-6.8,10.1c0,6.2,4.8,10,13.7,10c8.6,0,15.8-5.6,15.8-12.1
					C735,144.1,722.3,146.1,712.4,145.3z M718.4,100.6c-6.7,0-10.6,4.5-10.6,11c0,6.6,3.3,13.9,10.6,13.9c6.6,0,10.7-4.6,10.7-11.2
					C729.2,107.7,725.8,100.6,718.4,100.6z"/>
				<path d="M751.2,88c-2.9,0-4.9-2-4.9-4.5c0-2.5,2.1-4.5,4.9-4.5s4.9,2,4.9,4.5C756.2,86,754.1,88,751.2,88z M753.8,146.8h-5.1
					c-1,0-1.4-0.5-1.4-1.4V99.1c0-1,0.5-1.4,1.4-1.4h5.1c1,0,1.4,0.5,1.4,1.4v46.4C755.2,146.4,754.7,146.8,753.8,146.8z"/>
				<path d="M784.9,148c-14.3,0-21.4-12.3-21.4-25.9s7.4-25.6,21.4-25.6s21.5,11.9,21.5,25.6S799.3,148,784.9,148z M784.7,101.1
					c-9.3,0-12.9,9.9-12.9,20c0,10.3,3.8,21.9,13.3,21.9c10.1,0,13.2-10.1,13.2-20.2C798.2,112.5,794.4,101.1,784.7,101.1z"/>
			</g>
		</g>
	</g>
</g>
</svg>
