<?xml version="1.0" encoding="utf-8"?>
<!-- Generator: Adobe Illustrator 24.0.2, SVG Export Plug-In . SVG Version: 6.00 Build 0)  -->
<svg version="1.1" id="Capa_1" xmlns="http://www.w3.org/2000/svg" xmlns:xlink="http://www.w3.org/1999/xlink" x="0px" y="0px"
	 viewBox="0 0 1598.9 1512.4" style="enable-background:new 0 0 1598.9 1512.4;" xml:space="preserve">
<style type="text/css">
	.st0{fill:#75330F;}
	.st1{fill:#006637;}
	.st2{fill:#65350D;}
	.st3{fill:#FFFFFF;}
</style>
<g>
	<g>
		<path class="st0" d="M116.9,1058.4c3.8,3.5,6.6,7.8,8.5,12.7c0.9,2.3,1.7,3.8,2.3,4.4c0.5,0.4,1.3,1,2.6,1.8
			c0.4,0.2,0.8,0.6,1.2,0.9c1.3,1.3,1.9,3,1.8,5.2c-0.3,5.3-2.6,10.2-6.8,14.6c-2.9,3.1-6.1,4.4-9.6,3.8c-1.9-0.3-3.5-1.2-5-2.5
			c-1.3-1.2-2.1-2.5-2.4-3.9c-0.3-1.3-0.1-3.1,0.4-5.3c0.8-3.1,1.3-5.4,1.4-6.9c0.1-1.5,0.1-3.1-0.3-4.8c-0.8-4.1-2.6-7.4-5.4-10
			c-2.6-2.5-5.7-3.5-9-3.1c-3.4,0.4-6.6,2.3-9.6,5.5c-4.2,4.4-6.9,9.5-8.1,15.3c-1.6,7.8,0.4,14.3,6.1,19.7c2.1,2,4.5,3.6,7.2,4.8
			c2.7,1.2,5.1,1.8,7.3,1.8c1.8,0,3.1,0.3,3.7,0.9c0.9,0.8,1.3,2,1.1,3.4c-0.1,1.4-0.8,2.8-1.9,3.9c-1.4,1.5-3.4,2.7-6.1,3.7
			c-2.6,1-5.1,1.4-7.3,1.3c-1-0.1-2.4-0.7-4.4-2c-1.1-0.7-2.9-1.5-5.2-2.2c-5.5-1.8-10.3-4.6-14.5-8.5c-4.3-4-7.7-9.1-10.1-15
			c-2.9-6.9-3.5-14-2-21.4c1.4-7.2,4.4-13.2,9.1-18.1c5.4-5.7,12.1-9.2,20-10.6c6.9-1.2,13.9-0.5,20.9,2
			C108.2,1051.8,112.9,1054.6,116.9,1058.4z"/>
		<path class="st0" d="M161.5,1106.2c8,7.6,10.5,13,7.3,16.3c-0.8,0.9-1.7,1.4-2.7,1.6c-0.9,0.2-2.3,0.1-4.1-0.3
			c-1.6-0.3-3-0.1-4.2,0.6c-1.2,0.7-3.3,2.7-6.1,5.7c-1.7,1.8-2.4,3.2-2.1,4.3c0.1,0.6,0.6,1.3,1.3,2.1c0.7,0.8,2.6,2.6,5.5,5.3
			c2.6,2.5,4.4,3.9,5.3,4.2c0.9,0.3,1.9-0.1,3-1.2c3.2-3.4,5.3-5.9,6.2-7.5c1-1.6,1.2-3.1,0.8-4.4c-0.5-1.7-0.8-3-0.7-3.7
			c0.1-0.8,0.4-1.6,1.2-2.3c1-1.1,2.3-1.6,3.9-1.7c1.6-0.1,3.2,0.3,4.8,1.2c3.3,1.9,6.9,4.7,11,8.5c4.7,4.5,7.8,8.2,9.2,11.2
			s1.3,5.4-0.4,7.2c-1.5,1.5-3.3,1.9-5.7,1.2c-1.4-0.5-2.5-0.7-3.2-0.5c-0.7,0.1-1.7,0.7-3,1.7c-0.7,0.5-3.5,3.3-8.5,8.2
			c-4.9,4.9-8.8,8.9-11.6,11.8c-4.9,5.2-7.9,8.7-8.8,10.5c-0.5,1-0.8,1.7-0.8,2.2c0,0.5,0.3,1.8,1,3.8c0.5,1.5,0.2,2.7-0.9,3.8
			c-1.8,2-4.3,2.3-7.5,1c-3.2-1.3-7.4-4.4-12.6-9.3c-4.6-4.3-7.5-8-8.9-10.9c-1.2-2.7-1-4.9,0.6-6.6c1.4-1.5,3.2-1.9,5.5-1.3
			c1.1,0.3,2,0.4,2.7,0.2c0.7-0.2,1.6-0.7,2.9-1.5c2.5-1.7,5.2-4.2,8.2-7.3c1.5-1.6,2.2-2.8,2.1-3.7s-1.2-2.2-3.2-4.1
			c-4.6-4.3-7.8-6.8-9.5-7.5c-0.7-0.3-1.6,0-2.7,0.9c-1.3,1.1-2.8,2.5-4.5,4.3c-2.8,2.9-4.3,5.4-4.7,7.5c-0.1,0.7,0.1,1.8,0.5,3.5
			c0.5,1.6,0.1,3.2-1.3,4.6c-1.7,1.8-4.2,2-7.6,0.6c-3.4-1.4-7.4-4.3-12-8.6c-4.2-4-7.2-7.7-9.1-11.1c-0.8-1.5-1.2-2.9-1.2-4.2
			c0-1.3,0.4-2.4,1.2-3.3c0.8-0.8,1.6-1.3,2.5-1.4c0.8-0.1,2.3,0.2,4.4,0.8c1.1,0.3,2,0.3,2.8,0s2-1,3.4-2.2
			c3.2-2.6,7.1-6.4,11.7-11.3c0.8-0.9,1.8-2,3-3.2c5.7-6.3,9-9.8,9.8-10.7c2.1-2.2,3.3-3.8,3.6-4.9c0.3-1.1,0-2.8-0.9-5.3
			c-0.6-1.6-0.4-2.9,0.6-4c2.4-2.6,6.7-2,12.6,1.7C155.1,1100.8,158.4,1103.3,161.5,1106.2z"/>
		<path class="st0" d="M235.8,1176.6c7.7,4.8,13.1,11.1,16.2,19.1c2,5.4,2.8,11.3,2.2,17.7c-0.6,6.3-2.4,11.8-5.3,16.6
			c-4.4,7.1-10.6,12-18.8,14.7c-6.9,2.3-14.2,2.5-21.9,0.7c-4.7-1.2-9.1-3-13-5.4c-5.2-3.2-9.5-7.4-12.9-12.4
			c-4.1-6.2-6.2-12.9-6.2-20.2c0-7.1,1.9-13.7,5.7-19.8c4.4-7.2,10.3-12.2,17.8-15.2c6.6-2.6,13.7-3.2,21.2-1.8
			C225.8,1171.5,230.8,1173.5,235.8,1176.6z M223.6,1186.9c-2.5-1.6-5.2-1.7-8.1-0.3c-2.2,1-4,2.6-5.4,4.9
			c-2.1,3.4-3.8,7.8-5.2,13.1c-1.4,5.3-2.1,10.4-2.1,15.1c0,2,0.5,3.9,1.3,5.6c0.8,1.7,2,3,3.4,3.9c2.3,1.4,4.7,1.7,7.1,0.8
			c2.5-0.9,4.5-2.7,6.3-5.5c2.2-3.6,4.1-7.9,5.5-12.9c1.4-4.9,2.1-9.5,2.1-13.6c0-2.5-0.4-4.8-1.3-6.8
			C226.2,1189.4,225,1187.9,223.6,1186.9z"/>
		<path class="st0" d="M315.2,1236.6c3.8,3.5,6.6,7.8,8.5,12.7c0.9,2.3,1.7,3.8,2.3,4.4c0.5,0.4,1.3,1,2.6,1.8
			c0.4,0.2,0.8,0.6,1.2,0.9c1.3,1.3,1.9,3,1.8,5.2c-0.3,5.3-2.6,10.2-6.8,14.6c-2.9,3.1-6.1,4.4-9.6,3.8c-1.9-0.3-3.5-1.2-5-2.5
			c-1.3-1.2-2.1-2.5-2.4-3.9c-0.3-1.3-0.1-3.1,0.4-5.3c0.8-3.1,1.3-5.4,1.4-6.9c0.1-1.5,0.1-3.1-0.3-4.8c-0.8-4.1-2.6-7.4-5.4-10
			c-2.6-2.5-5.7-3.5-9-3.1c-3.4,0.4-6.6,2.3-9.6,5.5c-4.2,4.4-6.9,9.5-8.1,15.3c-1.6,7.8,0.4,14.3,6.1,19.7c2.1,2,4.5,3.6,7.2,4.8
			c2.7,1.2,5.1,1.8,7.3,1.8c1.8,0,3.1,0.3,3.7,0.9c0.9,0.8,1.3,2,1.1,3.4c-0.1,1.4-0.8,2.8-1.9,3.9c-1.4,1.5-3.4,2.7-6.1,3.7
			c-2.6,1-5.1,1.4-7.3,1.3c-1-0.1-2.4-0.7-4.4-2c-1.1-0.7-2.9-1.5-5.2-2.2c-5.5-1.8-10.3-4.6-14.5-8.5c-4.3-4-7.7-9.1-10.1-15
			c-2.9-6.9-3.5-14-2-21.4c1.4-7.2,4.4-13.2,9.1-18.1c5.4-5.7,12.1-9.2,20-10.6c6.9-1.2,13.9-0.5,20.9,2
			C306.6,1229.9,311.2,1232.8,315.2,1236.6z"/>
		<path class="st0" d="M382.3,1271.5c7.8,4.6,13.4,10.8,16.6,18.7c2.2,5.4,3,11.3,2.6,17.6c-0.4,6.3-2.1,11.9-5,16.8
			c-4.2,7.2-10.4,12.2-18.4,15.1c-6.8,2.5-14.1,2.8-21.9,1.1c-4.7-1.1-9.1-2.8-13.2-5.1c-5.3-3.1-9.7-7.1-13.2-12.2
			c-4.3-6.1-6.5-12.7-6.6-20c-0.2-7.1,1.6-13.7,5.2-20c4.2-7.3,10.1-12.5,17.4-15.6c6.6-2.8,13.6-3.5,21.1-2.2
			C372.2,1266.6,377.2,1268.5,382.3,1271.5z M370.3,1282c-2.6-1.5-5.3-1.5-8.1-0.1c-2.2,1-3.9,2.7-5.3,5.1c-2,3.4-3.6,7.8-4.9,13.2
			c-1.2,5.3-1.8,10.4-1.8,15.2c0.1,2,0.5,3.9,1.4,5.6c0.9,1.7,2,3,3.5,3.8c2.3,1.4,4.7,1.6,7.1,0.7c2.4-0.9,4.5-2.8,6.1-5.6
			c2.2-3.7,3.9-8,5.2-13c1.3-5,1.9-9.5,1.8-13.6c-0.1-2.5-0.6-4.8-1.5-6.7C373,1284.5,371.8,1283,370.3,1282z"/>
		<path class="st0" d="M441.6,1322.9l-8.7,22.7c-2,5.1-2.8,8.6-2.5,10.4c0.4,2.2,2.4,3.9,5.9,5.3c3.8,1.4,7,1.8,9.9,1
			c2.8-0.8,5.3-2.8,7.5-6c1.3-2,2.9-2.6,4.6-1.9c1.7,0.7,2.9,2,3.4,4c0.5,2,0.3,4.2-0.7,6.7c-1.6,4.1-4.8,7.9-9.6,11.4
			c-1.5,1.1-2.8,1.8-3.7,2.1c-0.9,0.3-1.9,0.2-2.9-0.2l-10.5-5.6l-34.6-13.3c-2.3-0.9-3.8-1.8-4.5-2.6c-1.1-1.3-1.3-2.7-0.7-4.2
			c0.4-0.9,0.8-1.5,1.5-1.8c0.6-0.3,1.9-0.5,4-0.7c2.2-0.2,3.9-1,5.1-2.4c0.9-1.2,2.7-5,5.2-11.6c1.2-3,2.8-7.4,4.8-13.2
			c1.9-5.5,3.4-9.7,4.5-12.5c1-2.6,1.5-4.5,1.5-5.7c0-1.1-0.6-2.2-1.8-3.1c-1.9-1.6-3-2.7-3.5-3.4c-0.7-1.2-0.9-2.4-0.5-3.4
			c0.9-2.4,3.6-3.5,8.1-3.2c3.8,0.2,8.6,1.4,14.3,3.6c6.4,2.5,11,4.6,14,6.5c3.7,2.5,5.1,5,4.1,7.7c-0.4,1.1-1,1.8-1.7,2.1
			c-0.7,0.3-2.3,0.5-4.8,0.6c-1.5,0.1-2.6,0.7-3.5,2C444.7,1315.4,443.4,1318.3,441.6,1322.9z"/>
		<path class="st0" d="M549.7,1366.3l5.6,23c0.6,2.1,1.1,3.6,1.6,4.3s1.4,1.3,2.6,1.8c2.4,0.9,3.4,2.4,3,4.5c-0.5,2.5-2.4,4-5.7,4.5
			c-3.3,0.5-8.4,0.1-15.3-1.3c-7.8-1.6-13.6-3-17.2-4.5c-1.7-0.7-2.9-1.6-3.8-2.7c-0.8-1.2-1.1-2.4-0.8-3.8c0.2-1,0.6-1.8,1.3-2.3
			c0.7-0.5,1.8-0.8,3.3-1c1.7-0.2,2.7-1,3-2.3c0.5-2.3-0.7-4-3.4-4.9c-2.9-1-7.1-2.1-12.6-3.2c-4.6-0.9-7.4-1.2-8.4-0.8
			c-0.6,0.2-1.2,0.8-1.8,1.6c-0.6,0.8-1,1.6-1.1,2.5c-0.2,0.8-0.1,1.3,0.1,1.6c0.2,0.3,1.1,0.8,2.7,1.7c2,1,2.8,2.5,2.4,4.4
			c-0.8,4.1-6.2,5.2-16,3.2c-5.6-1.1-9.7-2.3-12.1-3.6c-2.3-1.2-3.2-3-2.7-5.5c0.2-1.1,0.6-1.9,1.3-2.3c0.7-0.5,1.7-0.8,3.2-1
			c2.4-0.3,4.3-1.1,5.8-2.3c1.4-1.2,3.7-4,6.8-8.2L502,1355c3.9-5.4,6.6-9.4,8.1-12.1s2.6-5.5,3.1-8.3c0.6-3,1.2-5,1.8-6.1
			c0.6-1.1,1.5-2.1,2.9-3c2.9-1.9,6.2-2.6,9.9-1.8c3.5,0.7,6.6,2.7,9.2,6.1C540.6,1334.4,544.9,1346.6,549.7,1366.3z M512.3,1365.7
			l10.2,2c1.9,0.4,2.9,0.1,3.1-0.7c0.2-1.1-0.5-4.2-2.2-9.2c-0.8-2.3-1.4-3.8-1.9-4.6c-0.5-0.8-1.1-1.3-1.8-1.4
			c-1.2-0.2-2.5,0.7-3.8,2.9c-0.2,0.3-0.9,1.4-2.2,3.4c-2.2,3.2-3.3,5.2-3.4,5.9C510,1364.8,510.7,1365.4,512.3,1365.7z"/>
		<path class="st0" d="M598.5,1335.6l27.8,2.6c3,0.2,5.8,0,8.3-0.4c1.1-0.2,2-0.2,2.8-0.2c2.8,0.3,5.4,2.6,7.7,7.1
			c2.3,4.5,3.2,8.9,2.8,13.4c-0.3,3.1-1.4,5.2-3.4,6.4c-1.5,0.9-3.2,1.3-5.2,1.1c-1.9-0.2-3.4-0.8-4.7-2c-1.3-1.2-2.5-3-3.6-5.5
			c-1-2.3-1.7-3.8-2.3-4.5c-0.6-0.7-1.4-1.1-2.3-1.2c-1.3-0.1-2.3,0.3-3,1.4c-0.7,1-1.1,2.8-1.4,5.3l-2.8,29.5
			c-0.3,3-0.2,5.3,0.3,6.7c0.5,1.4,1.6,2.6,3.3,3.5c1.8,1,3,1.9,3.7,2.7c0.6,0.8,0.9,1.8,0.7,3.1c-0.2,2.5-2.1,4.3-5.7,5.2
			c-3.5,0.9-8.9,1-16,0.4c-8.7-0.8-15.1-2.2-19.2-4c-3.4-1.5-5-3.6-4.8-6.3c0.1-1.4,0.9-2.5,2.2-3.2c0.3-0.1,1.6-0.5,3.9-0.9
			c1.4-0.3,2.4-0.9,3-2c0.6-1,1.2-3.1,1.8-6.2c0.5-2.7,1.2-7.1,2-13.2c0.8-6.1,1.5-11.4,1.9-15.9c0.3-3.2,0.3-5.4-0.1-6.8
			c-0.4-1.4-1.1-2.1-2.2-2.2c-1.4-0.1-2.8,0.7-4.3,2.6c-2.7,3.4-4.9,5.6-6.5,6.6c-1.9,1.2-3.7,1.7-5.4,1.6c-1.9-0.2-3.4-1-4.5-2.6
			c-1.1-1.5-1.5-3.4-1.3-5.6c0.2-2.2,0.9-4.5,2.2-7.1s2.8-4.8,4.6-6.9c3-3.3,5.8-4.9,8.4-4.6c0.7,0.1,1.5,0.2,2.4,0.5
			c1.9,0.6,3.4,1,4.6,1.2C595.5,1335.3,596.9,1335.5,598.5,1335.6z"/>
		<path class="st0" d="M661.8,1342.7l27.2,0.2c5.5,0,9.5-0.1,12.1-0.3c2.5-0.2,5-0.7,7.4-1.4c0.7-0.2,1.3-0.3,1.7-0.3
			c1.8,0,3.5,1,4.9,3c2.3,3.2,3.5,7.1,3.4,11.7c0,2.3-0.5,4.1-1.5,5.4c-1,1.3-2.3,2-4,2c-1.2,0-2.1-0.3-2.7-0.7
			c-0.7-0.5-1.5-1.6-2.6-3.2c-1.5-2.4-3.5-4-5.9-4.8c-2.4-0.8-6.3-1.2-11.7-1.3c-4.1,0-6.5,0.7-7.4,2.1c-0.5,0.8-0.7,1.8-0.8,3.1
			c-0.1,1.3-0.2,4.6-0.2,10c0,2.1,0.3,3.4,1,4c0.7,0.5,2.6,0.8,5.6,0.8c1.5,0,2.6-0.3,3.2-0.9c0.7-0.6,1.1-1.7,1.3-3.3
			c0.3-2,0.5-3.5,0.8-4.2c0.3-0.8,0.8-1.4,1.5-2c0.7-0.6,1.6-0.9,2.6-0.9c1.4,0,2.7,0.7,3.7,2.1c0.7,1,1.4,2.8,1.8,5.4
			c0.5,2.6,0.7,5.3,0.7,8.1c0,5.6-0.9,10.2-2.7,13.7c-1,1.9-2.4,2.9-4.4,2.9c-1.2,0-2-0.3-2.5-0.9c-0.5-0.6-0.8-1.9-1-3.8
			c-0.5-4-2.8-6-7-6c-1.6,0-2.7,0.5-3.3,1.5c-0.6,1-0.9,2.9-0.9,5.6c0,1.7,0.1,3.8,0.3,6.4c0.2,2.6,0.4,4.4,0.7,5.2
			c0.3,1.1,1.1,1.8,2.6,2.2c1.5,0.4,3.9,0.6,7.3,0.7c5.3,0,9.3-0.6,12-2c2.7-1.3,4.9-3.8,6.6-7.4c1-2,1.9-3.4,2.7-4.1
			c0.8-0.7,1.8-1,3.1-1c1.5,0,2.7,0.7,3.7,2c1,1.3,1.4,2.9,1.4,4.9c0,2.1-0.6,4.8-1.7,7.9s-2.5,6-4.1,8.5c-0.8,1.2-1.5,2-2,2.4
			c-0.5,0.4-1.2,0.6-2,0.6c-0.7,0-1.6-0.1-2.9-0.3c-2.3-0.4-5.3-0.7-9.1-0.8l-44.9-0.3c-1.8,0-3.2-0.4-4.2-1.2
			c-1-0.8-1.5-1.9-1.5-3.4c0-1,0.2-1.8,0.6-2.2c0.4-0.5,1.4-1,2.9-1.7c1.1-0.5,1.9-1,2.4-1.7c0.5-0.7,0.9-1.7,1.2-3
			c1.2-5.3,1.8-12.5,1.9-21.6c0.1-13.6-0.7-22.2-2.4-25.8c-0.3-0.7-0.7-1.2-1.2-1.5c-0.4-0.3-1.3-0.6-2.6-1c-2-0.6-3-2-3-4
			c0-1.1,0.3-2.1,1-3c0.7-0.9,1.6-1.5,2.7-1.7C655.2,1342.8,657.8,1342.6,661.8,1342.7z"/>
		<path class="st0" d="M797.8,1335c5-1.1,10.2-1,15.3,0.2c2.4,0.6,4.1,0.8,4.9,0.6c0.6-0.1,1.6-0.5,2.9-1.1c0.4-0.2,0.9-0.4,1.5-0.5
			c1.8-0.4,3.5,0.1,5.2,1.5c4.2,3.3,6.9,7.9,8.1,13.9c0.9,4.2,0.1,7.5-2.4,10.1c-1.3,1.4-3,2.3-4.9,2.7c-1.8,0.4-3.3,0.3-4.5-0.2
			c-1.3-0.5-2.6-1.6-4.1-3.4c-2.1-2.4-3.7-4.1-4.9-5.1c-1.2-1-2.6-1.8-4.1-2.5c-3.9-1.6-7.6-2.1-11.3-1.3c-3.6,0.8-6.1,2.6-7.7,5.7
			c-1.5,3-1.9,6.7-0.9,11c1.3,5.9,3.9,11.1,8,15.4c5.5,5.7,12,7.8,19.6,6.2c2.8-0.6,5.5-1.6,8-3.2c2.6-1.5,4.4-3.2,5.6-5
			c1-1.5,2-2.4,2.8-2.5c1.2-0.3,2.4,0.1,3.5,1c1.1,0.9,1.8,2.2,2.2,3.8c0.4,2,0.3,4.4-0.4,7.1c-0.7,2.7-1.7,5-3.1,6.8
			c-0.6,0.7-2,1.6-4.2,2.5c-1.3,0.5-2.9,1.5-4.8,3c-4.6,3.5-9.7,5.9-15.2,7.1c-5.8,1.2-11.8,1.2-18.1-0.2
			c-7.3-1.6-13.6-5.1-18.8-10.5c-5.1-5.2-8.3-11.2-9.7-17.8c-1.6-7.7-0.7-15.2,2.7-22.5c3-6.4,7.5-11.7,13.6-16
			C787.4,1338.4,792.4,1336.2,797.8,1335z"/>
		<path class="st0" d="M880.2,1314.2c8.7-2.7,17-2.6,25,0.4c5.4,2,10.4,5.4,14.8,9.9c4.3,4.6,7.4,9.6,9,15c2.5,8,2.1,15.9-1.3,23.8
			c-2.8,6.7-7.4,12.4-13.9,16.9c-4,2.8-8.2,4.9-12.6,6.3c-5.8,1.8-11.8,2.3-17.9,1.6c-7.4-0.9-13.8-3.8-19.3-8.6
			c-5.3-4.6-9.1-10.4-11.2-17.3c-2.5-8-2.4-15.8,0.2-23.4c2.3-6.7,6.6-12.4,12.6-17.1C869.8,1318.4,874.6,1315.9,880.2,1314.2z
			 M879.9,1330.2c-2.8,0.9-4.7,2.8-5.6,5.9c-0.7,2.3-0.6,4.7,0.2,7.3c1.2,3.8,3.3,8,6.4,12.5c3.1,4.5,6.4,8.4,10,11.5
			c1.6,1.3,3.3,2.2,5.1,2.7c1.8,0.5,3.6,0.5,5.1,0c2.6-0.8,4.3-2.4,5.3-4.8c1-2.4,1-5.2,0-8.3c-1.3-4.1-3.3-8.3-6.1-12.6
			c-2.8-4.3-5.7-7.8-8.9-10.5c-1.9-1.7-3.9-2.8-6-3.5C883.5,1329.8,881.6,1329.7,879.9,1330.2z"/>
		<path class="st0" d="M992.4,1327.9l0.8,15.6c0.1,2.6,0,4.5-0.2,5.5c-0.2,1-0.7,1.7-1.4,2.1c-0.7,0.4-1.5,0.4-2.3,0
			c-0.5-0.2-2-1.2-4.5-3c-2.5-1.8-4.6-3.4-6.3-4.8l-13.3-10.9c-1.8-1.5-3.2-2-4.2-1.6c-1,0.5-1.1,1.6-0.4,3.3
			c1.7,3.8,3.3,7.3,4.9,10.5c1.7,3.3,2.9,5.4,3.8,6.4c0.6,0.6,1.1,0.9,1.6,1.1c0.5,0.1,1.8,0.2,3.8,0.2c1.3,0,2.3,0.7,3,2
			c1.8,3.5-1.8,7.6-10.9,12.2c-7.6,3.9-12.3,4.1-14,0.6c-0.4-0.9-0.6-1.6-0.4-2.2c0.2-0.6,0.9-1.7,2.2-3.3c0.8-1,1.2-2,1.1-3
			s-0.5-2.8-1.5-5.2c-1-2.7-2.8-6.9-5.5-12.8c-2.7-5.9-5-10.9-7.1-15c-2.6-5.1-4.8-8.4-6.5-9.9c-0.6-0.5-1.2-0.8-1.7-0.9
			c-0.5-0.1-1.4-0.2-2.7-0.2c-2.8,0.1-4.6-0.8-5.5-2.5c-0.6-1.1-0.6-2.3-0.3-3.7c0.4-1.3,1.2-2.5,2.4-3.6c1.2-1.1,2.9-2.4,5-3.9
			c2.2-1.5,4.1-2.6,5.7-3.4c4-2,7.1-3.2,9.1-3.3c1-0.1,1.8,0,2.6,0.3c0.7,0.3,2,1.1,3.7,2.3l19,13.1c2.1,1.4,3.4,2.3,4.1,2.5
			c0.6,0.2,1.3,0.2,2-0.2c0.6-0.3,1.1-0.8,1.3-1.6c0.2-0.7,0.4-1.9,0.4-3.5l0.1-16.4c0-2.1,0-3.4,0-4.1c0-3.9,0.4-6.8,1.4-8.6
			c1.2-2.3,4.4-4.8,9.5-7.3c8.9-4.5,14.4-4.7,16.5-0.7c0.5,0.9,0.7,1.7,0.6,2.5c-0.1,0.7-0.4,1.8-1.1,3.1c-0.9,1.8-1,3.9-0.3,6.2
			c1.5,4.7,3.8,10.2,6.9,16.4c4.1,8,8,14.9,11.8,20.6c0.9,1.4,1.7,2.3,2.4,2.6c0.7,0.3,2.1,0.6,4.3,0.9c1.5,0.2,2.6,0.9,3.2,2.2
			c1.1,2.2,0.4,4.5-2,6.9c-1.3,1.3-2.7,2.4-4.3,3.4c-1.6,1-4.1,2.4-7.6,4.1c-5.3,2.7-9.5,4.3-12.5,4.9c-3.3,0.6-5.5-0.1-6.6-2.2
			c-0.4-0.8-0.5-1.5-0.4-2.2c0.1-0.7,0.7-2.1,1.6-4.2c0.5-1.1,0.4-2.6-0.3-4.7c-0.7-2-2.1-5.3-4.4-9.9c-1.3-2.5-2.2-4.1-2.9-4.8
			c-0.6-0.7-1.3-0.8-2.1-0.4c-0.9,0.4-1.4,1.5-1.6,3.1C992.2,1320.4,992.2,1323.5,992.4,1327.9z"/>
		<path class="st0" d="M1046.8,1300.7l-13.3-24.5c-1.7-3.2-3-5.1-3.9-5.7c-0.9-0.6-2.5-0.7-4.7-0.1c-3.2,0.7-5.4,0.1-6.5-1.9
			c-0.8-1.4-0.8-2.8,0-4.2c0.8-1.4,2.3-2.7,4.5-3.9c0.7-0.4,2.6-1.4,5.6-2.9l2.8-1.5c5.1-2.8,8.1-4.5,9-5c0.9-0.5,3.9-2.5,9-6
			c1.7-1.2,3.3-2.2,4.8-3c5.1-2.8,10.2-4.2,15.3-4.3c8.9-0.2,15.4,3.7,19.7,11.5c3.4,6.3,3.8,12.7,1,19.2
			c-2.6,6.1-7.2,10.8-13.7,14.4c-1.6,0.9-3.7,1.9-6.2,3c-1.3,0.6-2.1,1-2.5,1.2c-0.9,0.5-1.1,1.2-0.5,2.3l0.2,0.3l4.5,7.5
			c0.9,1.5,1.7,2.4,2.6,2.9c0.9,0.5,2.3,0.7,4.2,0.7c2.6,0,4.3,0.6,4.9,1.9c1.1,2,0.4,4.3-2,6.9c-2.4,2.7-6.3,5.5-11.8,8.5
			c-11.5,6.2-18.3,7.4-20.4,3.4c-0.5-0.9-0.6-1.8-0.4-2.5c0.2-0.8,1-2.1,2.3-4c0.8-1.2,1-2.4,0.6-3.5
			C1051.6,1309.9,1049.9,1306.4,1046.8,1300.7z M1051.3,1258.8l8.6,15.8c0.7,1.2,1.3,1.8,2,1.8c1.1-0.1,2.4-0.5,3.8-1.2
			c2-1.1,3.5-2.6,4.2-4.5c1.1-2.7,0.6-6.1-1.5-9.9c-2.2-4-5-6.3-8.3-6.8c-2.1-0.3-4.2,0.1-6.3,1.2
			C1051.5,1256.4,1050.6,1257.6,1051.3,1258.8z"/>
		<path class="st0" d="M1151.3,1216.2l20.2,12.4c1.9,1.1,3.3,1.8,4.1,1.9c0.9,0.2,1.9,0,3.1-0.6c2.3-1.1,4.1-0.7,5.3,1.1
			c1.4,2.2,1.1,4.6-0.8,7.2c-2,2.7-5.9,5.9-11.8,9.8c-6.7,4.4-11.8,7.4-15.4,8.9c-1.7,0.7-3.2,0.9-4.6,0.7c-1.4-0.2-2.5-0.9-3.2-2.1
			c-0.6-0.9-0.8-1.7-0.7-2.5c0.1-0.8,0.7-1.8,1.7-3c1.1-1.4,1.2-2.6,0.5-3.8c-1.3-2-3.3-2.4-5.9-1.1c-2.8,1.3-6.5,3.5-11.2,6.6
			c-3.9,2.6-6.1,4.4-6.6,5.3c-0.3,0.6-0.3,1.4-0.2,2.4c0.2,1,0.5,1.9,0.9,2.6c0.4,0.6,0.8,1,1.2,1s1.4-0.2,3.1-0.7
			c2.2-0.7,3.7-0.2,4.8,1.4c2.3,3.5-0.7,8-9.2,13.6c-4.8,3.1-8.5,5.1-11.2,6c-2.5,0.7-4.4,0.1-5.8-2c-0.6-0.9-0.8-1.8-0.7-2.6
			c0.1-0.8,0.6-1.8,1.6-3c1.5-1.9,2.3-3.8,2.5-5.7c0.2-1.9-0.1-5.4-0.9-10.6l-2.8-17.8c-1-6.5-1.9-11.3-2.8-14.3s-2.1-5.7-3.6-8.1
			c-1.6-2.6-2.6-4.4-3-5.6c-0.4-1.2-0.4-2.6,0-4.1c0.7-3.4,2.6-6.1,5.8-8.2c3-2,6.6-2.7,10.8-2.1
			C1122.4,1199.9,1134,1205.6,1151.3,1216.2z M1124.2,1242.1l8.7-5.7c1.6-1,2.2-1.9,1.7-2.6c-0.6-1-3.3-2.6-8-5
			c-2.1-1.1-3.7-1.7-4.6-2c-0.9-0.2-1.7-0.2-2.3,0.2c-1.1,0.7-1.3,2.3-0.7,4.7c0.1,0.3,0.3,1.7,0.8,4c0.7,3.8,1.3,6,1.7,6.6
			C1121.9,1243,1122.8,1242.9,1124.2,1242.1z"/>
		<path class="st0" d="M1168.1,1158.9l35-1.5c3.3-0.2,5.3-0.6,6.1-1.4c1.3-1.3,0.6-3.3-2.1-6.2c-3.1-3.2-5.4-5.2-6.9-6
			c-1.5-0.8-3.2-0.9-4.9-0.3c-1.5,0.5-2.7,0.6-3.6,0.5c-0.9-0.2-1.8-0.7-2.6-1.5c-2.1-2.1-1.9-4.9,0.5-8.3c1-1.4,2.9-3.5,5.9-6.4
			c3.9-3.7,6.7-6,8.7-7c3-1.5,5.5-1.3,7.4,0.7c1.6,1.7,1.8,3.8,0.7,6.5c-0.4,1.1-0.7,1.9-0.7,2.4s0.1,1.1,0.4,1.8
			c0.9,2.3,3.6,5.9,8.1,10.6l11.9,12.5c1.8,1.9,4.3,4.5,7.5,7.8c4.3,4.5,7.2,8,8.5,10.5c1.7,3.1,1.6,5.6-0.2,7.3
			c-0.8,0.8-1.6,1.2-2.5,1.5c-0.9,0.2-2.6,0.4-5.1,0.4l-42.2,1.4c-2.9,0.1-4.9,0.6-6,1.6c-1.6,1.5-0.3,4.4,3.9,8.7
			c3.4,3.5,5.9,5.8,7.6,6.7c1.6,0.9,3.4,1.1,5.2,0.5c2.5-0.8,4.4-0.5,5.7,0.8c3.4,3.6,1.3,9-6.4,16.3c-3.4,3.3-6.6,5.4-9.3,6.3
			c-2.8,0.9-4.9,0.5-6.5-1.1c-0.8-0.9-1.3-1.7-1.3-2.5c-0.1-0.8,0.2-2.1,0.7-4.1c0.5-1.9,0-3.8-1.4-5.9c-2.7-3.7-7-8.7-12.9-14.8
			c-6.3-6.6-11.3-11-14.9-13.3c-1.3-0.8-2.5-1.3-3.4-1.4c-0.9-0.1-2.1,0.1-3.6,0.5c-1.7,0.5-3,0.8-4,0.6c-1-0.1-1.8-0.5-2.5-1.3
			c-2.3-2.5-1.7-6,1.9-10.7c1.2-1.6,3.6-4.1,7.2-7.5c2-2,3.7-3.2,4.9-3.8C1163.9,1159.4,1165.7,1159,1168.1,1158.9z"/>
		<path class="st0" d="M1223.5,1095c4.3-5.4,7.8-9.4,10.7-11.8c1.3-1.1,2.6-1.8,3.9-2c1.4-0.2,2.5,0.1,3.5,0.8
			c0.7,0.6,1.2,1.5,1.5,2.7c0.4,1.8,0.9,2.9,1.4,3.3c1,0.8,3.2,1.2,6.7,1.4c2.2,0.1,3.7-0.3,4.4-1.3c0.5-0.6,0.7-1.3,0.7-2.2
			c0-0.9-0.2-2.2-0.6-4c-0.5-2.2-1.2-3.5-2-4.2c-0.5-0.4-0.9-0.6-1.3-0.7c-0.3-0.1-1.3-0.1-2.9-0.1c-1.1,0.1-2.2-0.3-3.2-1.2
			c-3.1-2.5-1.4-7.9,5.3-16.5c3.8-4.8,6.4-7.8,8-8.9c1-0.7,2.1-1,3.4-1c1.2,0,2.3,0.4,3.2,1.1c1.1,0.9,1.7,1.9,1.8,3.1
			c0,1.2-0.5,2.7-1.5,4.7c-0.9,1.8-1.4,3.7-1.4,5.5c0,1.9,0.4,5.7,1.3,11.4c1.1,7,2.3,11.7,3.5,14.1s3.7,5.2,7.6,8.2
			c3.2,2.5,6.3,4.7,9.3,6.7c1.8,1.2,3.2,1.8,4.1,2c1,0.1,2.2-0.2,3.8-0.9c2.6-1.2,4.8-1.2,6.3,0.1c3.8,3,1.3,10-7.5,21.2
			c-3.6,4.6-7.4,8.6-11.5,12c-3.5,2.9-6.3,3.4-8.5,1.7c-1.7-1.4-2.1-3.4-1.2-6.1c0.7-2,0.8-3.6,0.2-4.6c-1.2-2.4-5.4-6.4-12.5-12
			c-2.2-1.7-4.1-2.9-5.7-3.4c-1.6-0.5-4-0.8-7.1-0.9c-6.6-0.1-12.8,0.3-18.7,1c-2.6,0.3-4.6,1-6.1,1.9c-2.2,1.3-3.6,2.1-4.2,2.2
			c-1.3,0.3-2.5-0.1-3.6-0.9c-1.9-1.5-2.1-3.9-0.7-7.4C1215,1106.6,1218.3,1101.6,1223.5,1095z"/>
	</g>
	<g>
		<path class="st1" d="M1476.9,291.4c-73.8,3.9-111.3,28.4-133.6,51.9c-17,17.8-45.7,80.8-44.5,72.5c1-7.5,10.1-57-32.5-137.1
			c-30.1-56.8-101.2-112.8-168.1-153.4c1,28.6,3.3,53.1,3.5,79.6c0.1,19.2,0.2,44.8-2.7,57.6c-0.7,2.8-4.4-2.8-6-2.7
			c-3.1,0.2-5.5,4.5-7.7,4.6c-5.7,0.4-11.3-11.2-21-8.5c-7,1.9,8.7,33.8,3.9,42.9c-1.7,3.3-23.5,2.5-30.8-0.5
			c-4.9-2.5-7.3-5.5-13.6-6.5c-6.1-1-14.3,0.2-14.3,0.2c-3.3,1-3.8,4.6-6.6,3.5c-4.3-1.7-8.6-9.4-13.2-9.3
			c-12.8,0.3-24.3-1.3-37.3-1.1l-11.9-15.4c0,0-40.4-1.6-49.3-14.9c-3.7-5.6,2.4-26.3,1.7-27.6c-5.4-10-23.3-8.9-23.3-8.9
			s-16.4-10.4-17.7-26c-0.8-8.9-12.6,5-21.9,5c-4.9,0-8.1-9.5-8.1-9.5s-17.8,0.6-22.6-0.4c-10.5-2.1-32.9-14.7-39.4-23.6
			c-3.7-5-16.8-14.5-35.2-17.6c-6.5-3.6,0-14.5-14.3-20.7c-7.4-3.2-19.6,0.2-26.3-4.3c-8.5-5.6-20.4-21.6-22.9-25.2
			c-0.9-1.3-6.1,17.1-6.1,17.1c-3.7,0.2-5.3-0.5-5.3-0.5s-1.2-3.4-5.8-8c-1.3,3.7-2.8,14.5-7.4,19.7c-1.9,2.2-8.4,1.2-9.9,2.8
			c-3.2,3.3-1.1,8.9-8.8,15.2c-11.6,9.5-67.4,9.2-72.2,10.2c-2.4,0.5-3.7,1.7-4.8,2.9c-4.1,4.3,1.5,7.4,1.7,8.2c0.7,2.2,0,4.7,0,4.7
			l-29.2,1.1c-16.6,1-13.5,12.8-20.5,16.8c-12.5,7.1-36.3,6.4-40.2,15.6c-5,12,4.8,12.9,8.7,25.3c0.6,2.5,1.1,8.9,0,13.5
			c-1.3,5.5-5.2,8.7-5.7,15.3c1.1,6.1,6.7,13.2,6.7,13.2l-3.1,16.6l-4.4,21.2h-97.4l16.2-67.2c-31.3-12.8-68.8-15.6-100.8-3.5
			c-35.2,13.4-89.2,61.4-103.2,84.6c-66.1-9.3-115.9,29-115.9,60.3c0,37.5,47.5,39.4,47.5,39.4s-28.5,68.9-11.6,93.9
			c26.7,39.4,119.9,27.1,119.9,27.1l-28.3-35.2C172.8,474,219.7,387,219.7,387l10.8,0.5c0,0-25.5,89.6-31.4,118
			c39.8,0.8,97.4,1.3,119,1c0,0-4.1,10.8,11,28.3c11.9,13.8-5.8,66.5-5.8,66.5c3.6,28.3,27,44,27,44s-8.5,1.8-14.7,16.2
			c-2.7,6.2,4.1,26.8,4.1,26.8c-6.6,9.9-48.4,7.7-48.4,7.7s8.6,20.7,14.9,25.8c8.8,7,28.3,5.1,28.3,5.1l82.9,64.4
			c11.3,0-2.5-17.7,0.6-22.4c2.8-4.3,16.4-3.2,16.4-3.2l27-43.9c10-6.2,1.8,21,1.8,21c-0.3,5.3,6.4,0.9,6.7,5.5
			c-4.6,3.6-11.5,11.8-10.8,13.1c2.8,5.3,24.1,2,24.7-0.8c3.1-13.1,4.6-61.8,4.6-61.8s3.7-20.6,8-25.8c1.6-2,4.1-0.8,4.1-0.8
			l-6.4,37.2l138.8-106c0,0,117.6-72.6,193.9-78.4c91.2-7,128.3,21.7,169.6,29.4c89.6,16.6,127.9-6.6,127.9-6.6s52.8-4.5,76.5,7
			c2.1,1,24.3-4.3,24.3-4.3s11-100.6,8.5-143.3c-5-84.6-70.6-187.5-66.8-180.1c23.5,44.9,33.5,75.8,33.5,75.8
			c8.2,20.8,22.8,117.1,22.8,117.1c-17.1-42.7-34.9-85.2-74.2-120.1c1.2,1.8,79.5,119.4,76.5,167.7c-5.8-15.1-15.1-40.6-25.9-52.9
			c-6.2-7.1-30.1-35.5-44.4-41.7c8.5,5.3,48.3,65.3,48.3,65.3c16.7,18.6,22.4,64.5,22.5,76.5c-61.1-34.8-73.9-46-96.3-102.2
			c-7.1-17.9-11.1-49-12-114.9c0,0,4.3-31.6,5.8-130.2c0,0,116.2,66.1,149.9,185.5c24.3,86.1-37.9,189.3-37.9,189.3
			s39.8-29,56.4-83.1c2-6.5,14.3-22,14.3-22c7.7-27.8,93.1-114.7,185.5-130.2c0,0-29.3,9.9-59.9,27.1c-3.9,2.2-6.9,4.9-7.7,5.4
			c-15.8,9.1-35.5,25.8-60.3,46c16.5-4.7,62.2-34.8,102-26.3c-40.1,9.6-69.8,18.8-88.1,27.8c-9,4.5-36,21.5-36,22.1
			c0,0.1,0.4-0.1,0.5-0.1c8.5-3.1,56.8-19.7,82.7-13.1c0,0-97.6,12.9-114,45.6c-2.3,4.6,51.6,11.1,68.4,7.4
			c60.9-13.8,99.1-69.7,138.7-121.7c2-2.6,28.6-30.5,28.6-30.5S1494.4,290.5,1476.9,291.4z M666.7,276.4
			c8.1-37.9,70.3-22.8,61.4,8.5C718.2,319.5,660.7,304.5,666.7,276.4z M286.9,476.8h-58.7l28.6-112c-1.5-7.7-49.5-10.8-49.5-10.8
			c-53.3,87.3-56.4,136.8-47.1,155.3c0,0-40.2,9.3-51-17.8c-13.6-34.1,57.2-139.1,57.2-139.1c-19.1,2.3-32.5,5.3-36.7,7
			c-5.8,2.3-9.3,8.5-9.3,8.5s4.5,2.9,4.3,4.6c6.6,22.8-33.2,14.8-33.2,14.8s-22.9-7-3.9-32.6c15.9-21.4,93.5-20.9,93.5-20.9
			C263.8,216.5,348,246.6,348,246.6L286.9,476.8z M443,347.4c0,0-22-3.5-31.3,9.3l-31.3,117.8h-59.1L363.4,320H421l-4.6,19.7
			c0,0,32.1-23.6,49.1-19.7c17,3.9,24,15.5,24.3,15.5c0.4,0,3.9,30.1-22.8,31.3C440.3,367.9,443,347.4,443,347.4z M589.6,347.4
			c0,0-22-3.5-31.3,9.3l-31.3,117.8H468L510.1,320h57.6l-4.6,19.7c0,0,32.1-23.6,49.1-19.7c17,3.9,24,15.5,24.3,15.5
			c0.4,0,3.9,30.1-22.8,31.3C587,367.9,589.6,347.4,589.6,347.4z M889.6,406.9c-17.8,69.2-93.1,69.9-93.1,69.9
			c-48.1,8.5-61.1-24.1-62.1-26.8c0.5,3.1-14.4,14.1-14.4,14.1s-29.7,20.9-68,10.4c-36.5-9.9-20.1-55.6-20.1-55.6l24.3-99.3h59.1
			c0,0-21.3,80.4-28.2,106.7c-7,26.3,18.2,20.5,18.2,20.5c21.2-5,30.5-23.2,30.5-23.2l41.7-158.8l59.1-5.4l-18.2,69.2
			c32.1-18.9,57.2-3.5,57.2-3.5S907.4,337.8,889.6,406.9z M1092.5,447c0,0-8,31.2-32.8,31.2c-44.4,0-44.8-27.6-44.8-27.6
			c-8.5,13.5-27.8,24.7-44,26.7c-16.2,2-35.2-2.8-35.2-2.8s-59.5-13.9-11.6-105.8c31.6-60.6,114.7-56.9,114.7-34.9l3.5-14.3h57.2
			l-30.3,110.5C1069.1,430.1,1063.5,453.9,1092.5,447z"/>
		<path class="st1" d="M283.5,267.1L263.8,349c0,0-35.3-10-47.1-9.3C210.4,340.1,269.9,265.5,283.5,267.1z"/>
		<path class="st1" d="M831.3,437.5c-44.7,26.6-40.6-10.8-40.6-10.8l22-80.3c3.1-3.5,27-4.6,27-4.6
			C874.6,359,847.5,427.8,831.3,437.5z"/>
		<path class="st1" d="M1033.7,351.7l-20.5,76.5c-51.8,55.6-50.6-13.5-50.6-13.5s11.6-63.4,41.3-73
			C1033.7,332,1033.7,351.7,1033.7,351.7z"/>
	</g>
	<g>
		<path class="st2" d="M1323.2,480.1c0,0,1.2,71.8-107.5,108.8c0,0,11.6,61-59.9,84.2c0,0-35.2,15.4-64.5,53.3
			c-28.3,36.4-124.9,74.8-163,83.5c-50.2,11.4-155.3,31.7-251.1-12.8c-82.8-38.4-155.3-47.5-155.3-47.5L501,739.2
			c0,0,24.2,20.2-4.1,46c0,0,0.8,15.9-0.3,21.1c-1.3,5.9-5.8,4.7-8.9,15c-3.3,10.9-5.1,31.6-6.2,34.5c-4.1,11-13.3,18.7-14.4,19.8
			c0.2-0.3,0.6-1.1,1-1.9c-3.8,2.6-2.2-7.7-6.7-6.6c-8.2,2.1-10.7,18.4-13.6,20.5c-8.9,5.4-20.9,4.8-32.7,4.8c1,3.1,1.4,3.8,4.1,5.7
			c2.3,1.5-3.1,14-0.5,22.2c2.6,12.4,11.8,19.7,14,26.5c5.4,17.8-0.7,34.8-12.4,45c-8.9,7.8-24.7,6-24.7,6
			c-7.2,4.2-11.7,17.9-9.4,30.7c-0.1,5.3,25.8-2.8,28.6,2.3c-0.1,7.1-26.3,24.2-26.5,36.6c0,2.5,1.4,4,2.4,5.1
			c4.2,4.3,33.4,4.2,46.2-16.2c4.4,1.3,9.2-0.7,13.6,0.5c10,2.8,22.7,11.8,34.7,12.6c8.2,0.5-0.7,7.7,11.4,11.7
			c11.8,3.9,19.4-6,25.2-5.6c7.7,0.5,10.2,3,13.1,6.4c2.3,2.6,8.9-0.2,10.6,3.4c2.8,5.9-5,11.5-2.9,15.7c8,16.3,17.4,33,26.8,47.6
			c6.2,9.5,18,4.4,24.2,11.1c15.4,16.7,18.4,65.4,12.8,88.6c-5,20.6,10,26.6,16.1,27.1c8.9,0.7,20.3-11.9,11.6-32
			c-9.4-23.2-5.7-79.1,2.8-84c0,0,15.8,3,25-5.7c4.1-3.9,3.9-12.2,4.1-18c0.3-11.2-2.6-19.5-5.1-24.2c8.5-6.2,14.3-7.7,20.9-16
			c2.6-3.3,1.6-10.7,3.4-13.9c1.8-3.2,6.5-4.8,10.5-10.7c0.5-7.2-3.9-14.1-3.3-21.2c0.6-8.3,0.6-19.1,6.8-25.1
			c3.6-3.5,5-4.2,7.3-8.5c3.6-6.8,3.9-19.2,1.8-26.4c0,0,4.9-23.3,16.5-17.5c0,0,3.8,13.6,4.4,18.3c7.3,55.9,4.4,230,4.4,230
			c-0.3,5.4-2.6,15.7-6.4,22.7c-5.7,10.3-10.5,23.6-1.4,34.2c7.6,8.8,16.2,6.8,18.1,6.8c6.8,0,16-2.6,19.3-5.7
			c13.7-12.7-0.3-41.5-5.1-48.9c0,0-2.8-3.4-9.5-31.9c0,0-7.5-225.6-6.5-252.9c0-0.2,4.4-19.8,16.2-28.1c0,0,0.3,3.9,6.7,2.6
			c2.8-0.6,1.2-4.7,3.3-5.4c4.9-1.7,4.9-1.6,4.9-1.7c0.3-1.9,1.3-8.9,1.5-9c5.5-3,16.9,4.6,17.4,5c0,0,4.6,8.8,7,17
			c11.1,44.3,4.7,113.8,0,151.5c-2.2,17.8-14.2,58.5,25,69.3c45.4,4,38.4-41,27.3-76.2c0,0-21.6-121.1-13-187.6c0,0,13.8-37,46-45.2
			c12.5-3.2,12.4,1.8,28.1-4.1c23.8-9,65-21,87.6,12.6c2.9,4.4,28.3,39.7,62.8,12.9c0.4-0.3,0.8-0.5,1.2-0.5c9.2,0,24,72.6,17.8,122
			c2.8,18.3-1.1,43.3-5.1,52.5c-7.5,17.3-8.5,24-7.2,33c4.4,10.7,20.4,15,20.4,15c52.3-2.7,8.8-67.1,8-96.7
			c-1.9-71.5-6.5-190.7-5.7-209.4c0.7-16.8,21-51.5,44.9-63.6c16.8-8.5,29.6-13.4,48.7-32.2c19.8-19.5,43.5-9.8,48.7-76.5
			c0,0,39.8-15.1,61-33.7c0.8-0.7,2.7-2.4,5.1-4.8c5-5.2,28.4-27.6,34.9-55.2C1336.8,501.2,1323.2,480.1,1323.2,480.1z
			 M654.3,1143.7c-1,1.9-2.6,3.6-4.6,4.5c-2,0.9-4.3,1-6.4,0.8c-3.8-0.5-7.3-2-10.5-3.6c-4.3,7.4-7.7,15.5-10.3,23.7
			c-2.8,8.5-4.7,17.4-5.6,26.3c-0.8,8.9-0.6,18,0.9,26.8c1.5,8.9,4.4,17.4,8.3,25.5l0.1,0.1l0,0.1c0.4,2.4,0.6,4.8,0.7,7.3
			c0,2.4,0,4.9-0.8,7.3c-0.2,0.6-0.5,1.2-1,1.7c-0.5,0.5-1.2,0.8-1.9,0.8c-1.4-0.1-2.5-0.9-3.4-1.6c-1.9-1.6-3.4-3.5-4.9-5.4
			c1.6,1.8,3.3,3.5,5.2,4.9c1,0.7,2,1.3,3.1,1.3c0.5-0.1,0.9-0.3,1.3-0.7c0.3-0.4,0.6-0.9,0.7-1.4c0.6-2.2,0.5-4.6,0.3-7
			c-0.2-2.3-0.5-4.6-0.9-6.9c-2.1-4-4.1-8.1-5.6-12.5c-0.8-2.1-1.4-4.4-2.1-6.6c-0.6-2.2-1.2-4.5-1.6-6.7c-1.8-9-2.2-18.4-1.3-27.6
			c0.8-9.2,2.9-18.2,5.8-26.9c1.4-4.4,3.2-8.6,5.1-12.8c1.9-4.2,4-8.2,6.6-12.2l0.6-1l1,0.6c3.4,2,7,3.7,10.7,4.3
			c1.8,0.3,3.8,0.3,5.4-0.4c1.7-0.7,3-2,4-3.6c1.9-3.3,2.4-7.4,2.6-11.3c0.1-4-0.2-8-0.8-11.9c1,3.9,1.6,7.9,1.7,11.9
			C656.5,1135.7,656.3,1139.9,654.3,1143.7z M706.3,973.3l-0.4,0.2c-0.9,0.5-1.8,1.6-2.5,2.7c-0.7,1.1-1.1,2.3-1.5,3.6
			c-0.7,2.5-1,5.2-1.2,7.8c0,2.7,0,5.3,0.3,8c0.3,2.7,0.7,5.3,1.2,8l0.1,0.6l-0.4,0.5c-3.3,3.9-6.2,8.2-8.7,12.6
			c-2.5,4.5-4.7,9.1-6.1,14c-1.5,4.9-2.2,9.9-1.9,14.9c0.2,2.5,0.7,4.9,1.4,7.3c0.8,2.4,1.9,4.6,3.2,6.8l0.9,1.5l-1.6,0.6
			c-2.3,0.9-4.8,2.3-6.7,4.1c-2,1.8-3.7,3.9-4.8,6.3c-0.3,0.6-0.5,1.2-0.8,1.8c-0.2,0.6-0.5,1.3-0.6,1.9l-0.4,2l-0.2,2
			c0,0.3-0.1,0.7-0.1,1l0.1,1l0.1,2c0.2,1.4,0.4,2.7,0.7,4.1l0.1,0.7l-0.5,0.3c-4.3,2.6-8.6,5.2-13,7.8l-6.5,3.9
			c-2.1,1.3-4.3,2.5-6.5,3.8c2.1-1.4,4.1-2.9,6.2-4.3l6.2-4.3c4-2.7,8-5.4,12-8.1c-0.3-1.2-0.5-2.4-0.7-3.6l-0.2-2.2l-0.1-1.1
			c0-0.4,0-0.7,0-1.1l0.1-2.2c0.1-0.7,0.3-1.5,0.4-2.2c0.1-0.7,0.3-1.5,0.6-2.2c0.3-0.7,0.4-1.5,0.8-2.1c1.2-2.8,3-5.2,5.2-7.3
			c0.6-0.5,1.2-1,1.7-1.4c0.6-0.4,1.2-0.9,1.8-1.3c0.8-0.5,1.6-1,2.5-1.4c-1.1-1.9-2-3.9-2.7-5.9c-0.8-2.6-1.4-5.3-1.6-8
			c-0.2-2.7-0.1-5.4,0.2-8.1c0.3-2.7,1-5.3,1.7-7.9c1.6-5.1,3.8-10,6.5-14.5c2.6-4.4,5.5-8.6,8.9-12.5c-0.3-2.5-0.7-5.1-0.8-7.6
			c-0.2-2.8-0.2-5.5-0.1-8.3c0.3-2.8,0.7-5.6,1.6-8.2c0.5-1.3,1-2.6,1.8-3.8c0.8-1.1,1.6-2.1,2.9-2.8c0.2-5.6,0.3-11.1,0.6-16.7
			c0.3,5.7,0.4,11.3,0.6,17V973.3z M742,1209.1c0.2-0.4,0.6-0.9,1.1-0.9c0.5,0,0.9,0.2,1.3,0.5c-0.4-0.2-0.9-0.3-1.3-0.2
			c-0.4,0.1-0.6,0.5-0.7,0.8c-0.2,0.8,0,1.7,0.2,2.5c0.4,1.7,1,3.4,1.6,5c1.2,3.3,2.7,6.5,4.2,9.8c1.5,3.2,3,6.4,4.6,9.6
			c1.5,3.2,3.2,6.4,4.5,9.8c1.3,3.4,2.4,6.9,2.9,10.6c0.5,3.7,0.4,7.7-1.5,11.2c-0.9,1.7-2.3,3.3-3.9,4.3c-1.6,1.1-3.4,1.8-5.2,2.2
			c-3.6,0.8-7.3,0.7-10.8-0.1c3.6,0.1,7.2-0.2,10.4-1.3c3.3-1.1,6.1-3.2,7.4-6.1c1.3-3,1.3-6.4,0.8-9.8c-0.5-3.4-1.6-6.7-2.9-9.9
			c-1.2-3.3-2.8-6.4-4.3-9.7c-1.4-3.3-2.9-6.6-4.1-9.9c-1.3-3.4-2.5-6.8-3.4-10.3c-0.4-1.8-0.8-3.5-1-5.4
			C741.7,1210.9,741.6,1210,742,1209.1z M843.7,1077.9c0.9,3.3,1.7,6.6,2.7,9.8l2.9,9.8c1.9,6.6,3.3,13.5,2.8,20.5
			c-0.3,3.5-1.1,7.1-3,10.2c-0.9,1.5-2.1,2.9-3.5,4.1c-1.4,1.1-2.9,2.1-4.6,2.7c-3.3,1.3-6.8,1.8-10.2,1.7c-3.4,0-6.8-0.5-10.1-1.5
			c3.3,0.6,6.7,0.8,10.1,0.7c3.3-0.2,6.7-0.8,9.6-2.3c1.5-0.7,2.8-1.6,4-2.7c1.2-1.1,2.1-2.4,2.9-3.8c1.6-2.8,2.2-6.1,2.3-9.3
			c0.1-3.3-0.3-6.6-0.8-9.9c-0.6-3.3-1.4-6.5-2.5-9.7c-2-6.4-4.1-13-5.8-19.6c-1.7-6.6-3.2-13.3-4.4-20c-1.2-6.7-2.2-13.5-2.9-20.3
			c-1.5-13.5-2-27.2-1-40.8c0.1,6.8,0.5,13.6,1.1,20.3c0.6,6.8,1.3,13.5,2.3,20.2C837.7,1051.6,840.3,1064.8,843.7,1077.9z
			 M1042.2,851.7c-4.3-0.2-8.5-0.6-12.8-1.7c-4.3-1.1-8.3-3.5-11.4-6.6c-3.1-3.1-5.7-6.5-8.4-9.8c-2.6-3.3-5.3-6.6-8.1-9.6
			c-2.9-2.9-6.2-5.4-9.7-7.4c-7.2-3.8-15.8-5.4-24.2-3.8c2-0.7,4.1-1.2,6.2-1.4c2.1-0.3,4.3-0.3,6.5-0.2c4.3,0.3,8.6,1.5,12.6,3.3
			c4,1.9,7.5,4.5,10.7,7.5c3.1,3.1,5.7,6.4,8.4,9.7c2.6,3.3,5.2,6.7,8,9.6c2.8,3,6.2,5.1,10.1,6.4c1,0.3,1.9,0.7,3,0.9
			c1,0.2,2,0.5,3,0.7l3.1,0.6l3.1,0.4c2.1,0.3,4.2,0.5,6.3,0.7c2.1,0.2,4.2,0.4,6.3,0.6C1050.7,851.8,1046.5,851.9,1042.2,851.7z
			 M1106.1,1061.3c-0.1-3.8-0.7-7.7-1.4-11.6c-0.8-3.8-1.7-7.7-2.7-11.5c-1.9-7.7-3.7-15.5-5.4-23.2c-1.7-7.8-3.3-15.6-4.6-23.5
			c2.5,7.6,4.7,15.2,6.9,22.9c2.1,7.7,4.1,15.4,6,23.1c1.9,7.7,3.8,15.6,3.5,23.9c-0.1,2-0.3,4.1-1,6.1c-0.7,2-1.8,4.1-3.8,5.2
			c-2,1.1-4.3,1-6.2,0.4c-2-0.6-3.8-1.6-5.4-2.8c1.8,0.9,3.6,1.6,5.6,1.9c1.9,0.3,3.9,0.2,5.3-0.8c1.5-1,2.3-2.7,2.7-4.5
			C1106,1065.1,1106.2,1063.2,1106.1,1061.3z"/>
		<path class="st2" d="M1002.4,620.3c0,0-65.6-24.2-170.7-12.4c-86.3,9.7-197.8,50-238,82.4C593.7,690.4,810.4,594.6,1002.4,620.3z"
			/>
		<path class="st2" d="M866.7,696c119.5-22.2,191.6-72.6,191.6-72.6c-193.3,94.1-468.2,73.1-468.2,73.1
			C636.8,709.8,770.1,713.9,866.7,696z"/>
		<path class="st2" d="M962.6,589.9c11.7,3.6,57.6,41.2,129.2,4.6c71.6-36.6,105.1-26.6,114.9-20.8c0,0-6.4-14.2-14.4-14.8
			c-45.7-2.9-53.9,11.2-119,35c-26.1,9.6-51.7,8.1-110.6-12.1c-124.3-42.5-273.1-13.7-382.9,97.1
			C579.8,679.1,755.7,526.3,962.6,589.9z"/>
		<path class="st2" d="M956.8,721.8c52.7-30.3,140.1-85,167.9-85.5c52.5-1,75.5-28.8,86.5-42.8l-4.6-7.7
			c-7.4,19.3-50,41.2-87.6,40.2c-33.6-0.9-163.3,82-163.3,82c-157.8,93.1-379.6-0.1-379.6-0.1C717,774.7,851.2,782.6,956.8,721.8z"
			/>
		<path class="st2" d="M423.7,839.8c11.8,3.6,27.3,3.6,32.5,0c5.2-3.6-6.9-9.3-6.9-9.3s-11.7-30.4,11-18l21.6-24.7H468
			c0,0-11.1-5.6-14.9-4.6c-14.9,3.6-30.4,22.7-30.4,22.7s7.2,21.1-4.1,26.8C418.5,832.6,411.9,836.2,423.7,839.8z"/>
		<path class="st2" d="M1211.3,597.1c0,0-1.6,18.5-34.5,40.2c-13.5,8.9-24.2,14.4-51,18c-38.1,8.2-67.5,48.4-67.5,48.4
			c-41.2,25.2-95.7,67.4-165.1,77.8c-89.5,13.4-137.9,4.7-164.1-1c-37.2-8.1-117.6-39-135.5-51c-3.6-2.4-50-8.8-64.4,8.2
			c0,0,48-8.5,64.4,2.1c28.8,18.5,164.3,74.7,294.1,51.5c105.6-21.6,162.4-65.3,174.6-77.3c27.4-26.8,59.2-50.5,59.2-50.5
			c16,0,52.8-16.2,66.4-24.7c15.5-9.7,24.8-28.9,24.8-28.9C1211.5,605.4,1212.7,601.8,1211.3,597.1z"/>
		<path class="st3" d="M656.3,582c0,0,129-92.7,255.8-62.6c0,0,147.6,54.1,210.9,17c0,0,41.7-15.5,77.3,6.2c0,0-16.2-31.7-39.4-29.2
			c-63.4,6.8-219.2-24.4-244.9-30.3C898.3,479,770.6,446.7,656.3,582z"/>
	</g>
</g>
</svg>
