<?xml version="1.0" encoding="utf-8"?>
<!-- Generator: Adobe Illustrator 24.0.2, SVG Export Plug-In . SVG Version: 6.00 Build 0)  -->
<svg version="1.1" id="Capa_4" xmlns="http://www.w3.org/2000/svg" xmlns:xlink="http://www.w3.org/1999/xlink" x="0px" y="0px"
	 viewBox="0 0 1800 607.6" style="enable-background:new 0 0 1800 607.6;" xml:space="preserve">
<style type="text/css">
	.st0{fill:url(#SVGID_1_);}
	.st1{fill:#80BEE2;}
	.st2{fill:#213E65;}
	.st3{fill:#015E8B;}
	.st4{fill:#687F99;}
	.st5{fill:#143756;}
</style>
<g>
	<g>
		<radialGradient id="SVGID_1_" cx="287.6657" cy="303.7766" r="213.4606" gradientUnits="userSpaceOnUse">
			<stop  offset="0" style="stop-color:#FFEE25"/>
			<stop  offset="0.1842" style="stop-color:#FEEA25"/>
			<stop  offset="0.3725" style="stop-color:#FBDE23"/>
			<stop  offset="0.5628" style="stop-color:#F5C921"/>
			<stop  offset="0.7544" style="stop-color:#EEAC1F"/>
			<stop  offset="0.9454" style="stop-color:#E4881B"/>
			<stop  offset="1" style="stop-color:#E17C1A"/>
		</radialGradient>
		<polygon class="st0" points="490.7,414.7 299.7,520.6 287.9,527.2 270.5,517.5 145.6,448.3 84.6,414.5 84.6,193.5 100.1,185 
			271.3,90 288.7,80.4 300.6,87 490,192 428.5,226.1 288.7,148.6 145.6,228 145.6,380 287.9,458.9 429.2,380.6 		"/>
		<g>
			<polygon class="st1" points="379.1,254.5 379.1,355.2 287.7,404.5 287.7,303.8 			"/>
			<polygon class="st2" points="287.7,303.8 287.7,404.5 196.2,355.2 196.2,254.5 			"/>
			<polygon class="st3" points="379.1,254.5 287.7,303.8 196.2,254.5 287.7,204.6 			"/>
		</g>
	</g>
	<g>
		<g>
			<path class="st4" d="M658.4,448.9h-40.3c-0.7,0-1.4-0.3-1.9-0.8c-0.5-0.5-0.8-1.2-0.8-1.9v-73c0-0.7,0.3-1.4,0.8-1.9
				c0.5-0.5,1.2-0.8,1.9-0.8c0.7,0,1.4,0.3,2,0.8c0.6,0.5,0.8,1.2,0.8,1.9v70.2h37.5c0.7,0,1.4,0.3,2,0.8c0.6,0.6,0.8,1.2,0.8,2
				c0,0.7-0.3,1.4-0.8,1.9C659.8,448.6,659.2,448.9,658.4,448.9z"/>
			<path class="st4" d="M730.2,409.1c0.1-11,4.1-20.4,11.9-28.2c7.9-7.7,17.4-11.6,28.7-11.6c11.3,0,20.8,3.9,28.6,11.6
				c7.8,7.7,11.7,17.1,11.8,28.2c-0.1,11.1-4,20.4-11.8,28.2c-7.8,7.7-17.3,11.6-28.6,11.6c-11.3,0-20.9-3.9-28.7-11.6
				C734.3,429.6,730.3,420.2,730.2,409.1z M770.7,375c-9.5,0-17.7,3.3-24.4,9.9c-6.8,6.6-10.2,14.7-10.2,24.2
				c0,9.6,3.4,17.7,10.2,24.4c6.8,6.6,14.9,10,24.4,10c9.5,0,17.6-3.3,24.3-10c6.7-6.7,10.2-14.8,10.2-24.2
				c-0.1-9.6-3.5-17.7-10.2-24.3C788.3,378.2,780.2,375,770.7,375z"/>
			<path class="st4" d="M948,413.6h-23.5c-0.9,0-1.6-0.3-2.2-0.8c-0.6-0.5-0.9-1.2-0.9-2c0-0.8,0.3-1.4,0.9-2
				c0.6-0.5,1.3-0.8,2.2-0.8h26.9c0.7,0.1,1.4,0.4,1.9,0.9c0.5,0.5,0.8,1.2,0.8,1.9v27.3c-0.2,0.9-0.5,1.6-1.1,2
				c-7.9,5.8-17.2,8.6-27.8,8.6c-12.4-0.1-22.9-4-31.6-11.7c-8.7-7.7-13.1-17.1-13.1-28.1c0-11,4.4-20.3,13.1-28.1
				c8.7-7.8,19.3-11.6,31.6-11.6c10.2,0,19.5,3,27.9,8.8c0.6,0.4,0.9,1,1,1.7c0.1,0.8-0.1,1.5-0.6,2.1c-1.1,1.3-2.6,1.5-4.3,0.4
				c-6.8-5.1-14.8-7.6-24-7.6c-10.7,0-19.9,3.3-27.4,10c-7.5,6.7-11.3,14.8-11.3,24.2c0,9.5,3.8,17.6,11.3,24.2
				c7.5,6.7,16.7,10,27.4,10c8.4,0,16-2.2,22.7-6.7V413.6z"/>
			<path class="st4" d="M1031.3,446.2v-73c0-0.7,0.3-1.4,0.8-1.9c0.5-0.5,1.2-0.8,1.9-0.8c0.7,0,1.4,0.3,2,0.8
				c0.6,0.5,0.8,1.2,0.8,1.9v73c0,0.7-0.3,1.4-0.8,1.9c-0.6,0.5-1.2,0.8-2,0.8c-0.7,0-1.4-0.3-1.9-0.8
				C1031.5,447.6,1031.3,446.9,1031.3,446.2z"/>
			<path class="st4" d="M1123.1,389.7c0.1,7.5,7.7,12.6,22.6,15.5h0.2c8.6,1.6,15.2,4,19.9,7.2c5.7,3.7,8.6,8.7,8.6,14.8
				s-2.9,11.3-8.7,15.5c-5.8,4.2-12.6,6.3-20.3,6.3c-9.9-0.1-19.5-3.8-28.9-11.3c-1.2-1-1.3-2.2-0.3-3.5c0.4-0.5,1-0.8,1.7-0.9
				c0.7-0.1,1.3,0.1,1.8,0.6c8.4,6.8,17,10.2,25.8,10.1c6.9,0,12.6-1.7,17.2-5.2c4.5-3.2,6.7-7.1,6.7-11.6c0-8.4-8.2-14.1-24.5-17.1
				h-0.2c-17.7-3.3-26.5-10-26.5-20.3c0-5.8,2.7-10.7,8-14.6c5.3-3.9,11.7-5.8,19.1-5.8c3.2,0,6.4,0.5,9.7,1.6
				c3.2,1.1,5.8,2.1,7.6,3.1s4.1,2.4,6.9,4.3c1.3,0.9,1.6,2.1,0.7,3.5c-0.8,1.3-1.9,1.6-3.4,0.7c-2.7-1.7-4.9-3.1-6.6-4
				c-1.7-1-3.9-1.9-6.7-2.9c-2.8-0.9-5.5-1.4-8.2-1.4c-6.3,0-11.6,1.6-16,4.7C1125.1,382.1,1123.1,385.6,1123.1,389.7z"/>
			<path class="st4" d="M1270,446.2V376h-23.6c-0.7,0-1.4-0.3-1.9-0.8c-0.5-0.6-0.8-1.2-0.8-2c0-0.7,0.3-1.4,0.8-1.9
				c0.5-0.5,1.2-0.8,1.9-0.8h52.6c0.7,0,1.4,0.3,1.9,0.8c0.5,0.5,0.8,1.2,0.8,1.9c0,0.7-0.3,1.4-0.8,2c-0.5,0.6-1.2,0.8-1.9,0.8
				h-23.6v70.2c0,0.7-0.3,1.4-0.8,1.9c-0.5,0.5-1.2,0.8-1.9,0.8c-0.7,0-1.4-0.3-1.9-0.8C1270.3,447.6,1270,446.9,1270,446.2z"/>
			<path class="st4" d="M1378.3,446.2v-73c0-0.7,0.3-1.4,0.8-1.9c0.5-0.5,1.2-0.8,1.9-0.8c0.7,0,1.4,0.3,2,0.8
				c0.6,0.5,0.8,1.2,0.8,1.9v73c0,0.7-0.3,1.4-0.8,1.9c-0.6,0.5-1.2,0.8-2,0.8c-0.7,0-1.4-0.3-1.9-0.8
				C1378.6,447.6,1378.3,446.9,1378.3,446.2z"/>
			<path class="st4" d="M1470.4,437.3c-8.7-7.7-13-17.1-13-28.1c0-11,4.3-20.4,13-28.1c8.7-7.7,19.2-11.6,31.5-11.7
				c10.3,0,19.5,2.9,27.6,8.6c0.7,0.5,1,1.2,1.2,2c0.1,0.8-0.1,1.4-0.7,2c-0.5,0.7-1.2,1-2,1.1c-0.9,0.1-1.6-0.1-2.1-0.6
				c-7.1-5.1-15.1-7.6-23.9-7.6c-10.7,0-19.8,3.4-27.2,10.1c-7.5,6.7-11.2,14.8-11.2,24.3c0,9.5,3.7,17.5,11.2,24.2
				c7.5,6.6,16.2,10,26.2,10c10,0,18.2-2.5,24.7-7.6c0.7-0.4,1.5-0.6,2.4-0.5c0.9,0.1,1.5,0.5,1.9,1.2c0.6,0.5,0.8,1.2,0.7,2
				c-0.1,0.8-0.4,1.5-1.1,1.9c-8.1,5.7-17.3,8.5-27.6,8.5C1489.5,448.9,1479,445,1470.4,437.3z"/>
			<path class="st4" d="M1608.5,389.7c0.2,7.5,8.2,12.6,24,15.5h0.2c9.1,1.6,16.2,4,21.2,7.2c6.1,3.7,9.2,8.7,9.2,14.8
				s-3.1,11.3-9.2,15.5c-6.1,4.2-13.3,6.3-21.6,6.3c-10.5-0.1-20.7-3.8-30.7-11.3c-1.3-1-1.4-2.2-0.4-3.5c0.5-0.5,1.1-0.8,1.8-0.9
				c0.7-0.1,1.3,0.1,1.9,0.6c9,6.8,18.1,10.2,27.4,10.1c7.3,0,13.4-1.7,18.3-5.2c4.8-3.2,7.1-7.1,7.1-11.6c0-8.4-8.7-14.1-26.1-17.1
				h-0.2c-18.8-3.3-28.2-10-28.2-20.3c0-5.8,2.8-10.7,8.5-14.6c5.7-3.9,12.4-5.8,20.3-5.8c3.4,0,6.8,0.5,10.3,1.6
				c3.5,1.1,6.1,2.1,8,3.1c1.9,1,4.4,2.4,7.4,4.3c1.4,0.9,1.7,2.1,0.7,3.5c-0.9,1.3-2.1,1.6-3.6,0.7c-2.9-1.7-5.2-3.1-7-4
				c-1.8-1-4.2-1.9-7.1-2.9c-3-0.9-5.9-1.4-8.7-1.4c-6.7,0-12.3,1.6-17,4.7C1610.7,382.1,1608.5,385.6,1608.5,389.7z"/>
		</g>
	</g>
	<g>
		<g>
			<path class="st5" d="M782.9,176.5l-26,25c-17.7-18.9-37.5-28.3-59.6-28.3c-18.6,0-34.3,6.4-47.1,19.3
				c-12.8,12.9-19.1,28.8-19.1,47.7c0,13.2,2.8,24.8,8.5,35c5.7,10.2,13.6,18.2,24,24c10.3,5.8,21.8,8.7,34.4,8.7
				c10.8,0,20.6-2,29.5-6.1c8.9-4.1,18.7-11.5,29.4-22.2l25.2,26.6c-14.4,14.2-28,24.1-40.8,29.6c-12.8,5.5-27.5,8.3-43.9,8.3
				c-30.3,0-55.1-9.7-74.5-29.2c-19.3-19.4-29-44.4-29-74.8c0-19.7,4.4-37.2,13.2-52.4c8.8-15.3,21.4-27.6,37.8-36.9
				c16.4-9.3,34.1-13.9,53-13.9c16.1,0,31.6,3.4,46.5,10.3C759.3,154,772.2,163.8,782.9,176.5z"/>
			<path class="st5" d="M856,141.8h38.1L970,339.1h-39l-15.4-40.6H835l-16.1,40.6h-39L856,141.8z M875.3,194.1l-26.5,67.7h52.8
				L875.3,194.1z"/>
			<polygon class="st5" points="1715.4,143.1 1565.3,143.1 1565.3,176.5 1623.6,176.5 1623.6,339.1 1657,339.1 1657,176.5 
				1715.4,176.5 			"/>
			<polygon class="st5" points="1435.4,176.5 1435.4,222.8 1516.1,222.8 1516.1,256.2 1435.4,256.2 1435.4,305.7 1550.5,305.7 
				1550.5,339.1 1402,339.1 1402,256.2 1378.2,256.2 1378.2,222.8 1402,222.8 1402,143.1 1550.5,143.1 1550.5,176.5 			"/>
			<path class="st5" d="M1360.9,236.2v6.2c0,4.7-0.3,9.3-1,13.8c-6.7,47.6-47.6,84.2-97,84.2h-6.2c-54.1,0-98-43.9-98-98v-6.2
				c0-54.1,43.9-98,98-98h6.2c32.3,0,60.9,15.6,78.7,39.7l-26.4,21.7c-2.2-3-4.6-5.9-7.2-8.5c-12.3-12.3-29.4-20-48.2-20
				s-35.9,7.6-48.2,20c-12.3,12.3-20,29.4-20,48.2c0,37.6,30.5,68.2,68.2,68.2c18.8,0,35.9-7.6,48.2-20c8.5-8.5,14.8-19.3,17.9-31.4
				h-66.1v-33.4h100.2C1360.5,227.2,1360.9,231.7,1360.9,236.2z"/>
			<path class="st5" d="M1102.9,277.3l-6.4-9.3c28.1-9,48.2-32.7,48.2-60.5c0-20-10.3-37.8-26.5-49.6c-12.6-9.2-28.9-14.8-46.6-14.8
				h-86.3v100.8h-22.1v33.4h22.1v61.8h33.4v-61.8h43.7l42.3,61.8h40.5L1102.9,277.3z M1018.7,243.9v-67.4h55.5
				c20.8,0,37.6,15.1,37.6,33.7c0,18.6-16.8,33.7-37.6,33.7H1018.7z"/>
		</g>
	</g>
</g>
</svg>
