<?xml version="1.0" encoding="utf-8"?>
<!-- Generator: Adobe Illustrator 24.0.2, SVG Export Plug-In . SVG Version: 6.00 Build 0)  -->
<svg version="1.1" id="Capa_4" xmlns="http://www.w3.org/2000/svg" xmlns:xlink="http://www.w3.org/1999/xlink" x="0px" y="0px"
	 viewBox="0 0 1800 1071.2" style="enable-background:new 0 0 1800 1071.2;" xml:space="preserve">
<style type="text/css">
	.st0{fill:url(#SVGID_1_);}
	.st1{fill:url(#SVGID_2_);}
	.st2{fill:#095299;}
</style>
<g>
	<g>
		
			<radialGradient id="SVGID_1_" cx="850.0822" cy="278.7815" r="284.1911" fx="812.6127" fy="174.5763" gradientTransform="matrix(0.9932 -0.1166 0.1241 1.057 -28.7894 83.2032)" gradientUnits="userSpaceOnUse">
			<stop  offset="0.154" style="stop-color:#0090CA"/>
			<stop  offset="0.5355" style="stop-color:#026CB1"/>
			<stop  offset="0.8155" style="stop-color:#0356A2"/>
		</radialGradient>
		<circle class="st0" cx="900.2" cy="335.4" r="240.3"/>
		
			<radialGradient id="SVGID_2_" cx="892.4031" cy="343.3863" r="246.6949" fx="759.762" fy="197.4185" gradientUnits="userSpaceOnUse">
			<stop  offset="0" style="stop-color:#F6FAFB"/>
			<stop  offset="0.3009" style="stop-color:#E5EDED"/>
			<stop  offset="0.6391" style="stop-color:#DAE4E4"/>
			<stop  offset="1" style="stop-color:#D6E1E1"/>
		</radialGradient>
		<path class="st1" d="M1077.7,402.4c-27.1,72.7-97.1,124.5-179.3,124.5c-78.2,0-145.4-46.9-175-114.1
			c-10.4-23.6-16.2-49.7-16.2-77.2c0-78.8,47.7-146.5,115.8-175.8c-10.6,19.6-16.6,42-16.6,65.9c0,25.9,7.1,50.1,19.5,70.9
			c19.3,32.3,51.3,56,89.1,64.3c-5.7,10.2-12.6,19.6-20.6,28c29.2,20.4,64.7,32.3,103,32.3C1026.1,421.3,1053.5,414.5,1077.7,402.4z
			"/>
	</g>
	<g>
		<path class="st2" d="M252.1,974.6c-3.3-1-5.6-2.2-7-3.5l4.4-7.1c1.2,0.9,3,1.9,5.4,3c2.5,1,4.8,1.5,7.1,1.5c2.9,0,5.3-0.6,7.1-1.9
			c1.8-1.2,2.8-3,2.8-5.2c0-1.7-0.5-3.2-1.5-4.4c-1-1.2-2.2-2.3-3.6-3.1c-1.4-0.8-3.5-1.8-6.1-3c-3.1-1.4-5.3-2.4-6.4-3.1
			c-5.3-3.2-8-7.7-8-13.4c0-4.7,1.7-8.4,5.2-10.9c3.5-2.5,7.9-3.8,13.1-3.8c5.7,0,10.5,1.5,14.5,4.4l-4.4,6.8c-1-1-2.5-1.9-4.4-2.6
			c-1.9-0.7-3.9-1.1-6.1-1.1c-2.8,0-4.9,0.6-6.5,1.7c-1.6,1.1-2.4,2.8-2.4,5c0,1.5,0.5,2.9,1.5,4.1c1,1.2,2.2,2.3,3.8,3.2
			c1.5,0.9,3.6,2,6.2,3.3c2.5,1.2,4.4,2.2,5.7,3c1.3,0.7,2.6,1.6,3.7,2.6c1.6,1.3,2.9,2.8,3.9,4.6c1,1.8,1.5,3.8,1.5,5.9
			c0,3.3-0.8,6.2-2.5,8.5c-1.7,2.3-4,4.1-6.9,5.3c-2.9,1.2-6.3,1.8-10,1.8C258.6,976.1,255.3,975.6,252.1,974.6z"/>
		<path class="st2" d="M300.1,969.9c-3.4-4.1-5.1-10.1-5.1-18v-31.4h9.3v31.6c0,5.8,1,10,2.9,12.5c1.9,2.5,5.1,3.8,9.5,3.8
			c4.4,0,7.6-1.2,9.5-3.7s2.9-6.7,2.9-12.6v-31.6h9.3v31.4c0,7.8-1.8,13.8-5.4,18c-3.6,4.2-9,6.2-16.2,6.2
			C309,976.1,303.5,974.1,300.1,969.9z"/>
		<path class="st2" d="M354.7,920.5h26.6v7.3h-17.4V943h14v7.5h-14V968H384v7.4h-29.3V920.5z"/>
		<path class="st2" d="M406.8,939.8l0.2,6v29.6h-9.3v-55h1.2l35.7,36l-0.3-6.3v-29.7h9.3v54.9h-1.2L406.8,939.8z M421.7,914.5
			c-1-0.4-2.1-1.1-3.2-1.9c-1-0.7-1.9-1.3-2.6-1.6c-0.7-0.3-1.5-0.5-2.5-0.5c-1,0-1.8,0.3-2.3,0.9c-0.5,0.6-1.2,1.7-2,3.4l-3.6-5
			c0.4-1.7,1.5-3.2,3.3-4.4c1.8-1.2,3.7-1.9,5.8-1.9c1.9,0,3.3,0.3,4.4,0.7c1.1,0.5,2.2,1.2,3.3,2.2c0.8,0.6,1.5,1.1,2.1,1.4
			c0.5,0.3,1.2,0.4,2.1,0.4c2.4,0,4.1-1.1,5.1-3.4l3.1,4.3c-0.3,1.8-1.3,3.2-3.1,4.4c-1.8,1.1-3.8,1.7-6,1.7
			C424,915.2,422.7,915,421.7,914.5z"/>
		<path class="st2" d="M483,920.4l29.3,55h-10.7l-5.2-10.8h-27.8l-5.2,10.8H453l29.1-55H483z M478.9,943.8l-6.6,13.3h20.5l-6.5-13.2
			l-3.6-7.5h-0.2L478.9,943.8z"/>
		<path class="st2" d="M557.7,972.1c-4.6-2.5-8.1-5.9-10.5-10.2c-2.4-4.3-3.6-9-3.6-14.1c0-5.4,1.3-10.3,3.9-14.6
			c2.6-4.3,6.3-7.6,11-10c4.7-2.4,10.1-3.6,16.1-3.6c2.7,0,5.2,0.3,7.6,0.8c2.3,0.5,4.3,1.1,5.8,1.8c1.5,0.7,2.6,1.2,3.1,1.7l-4,7.5
			c-3.4-2.7-7.7-4-13.1-4c-3.8,0-7.2,0.8-10.3,2.5c-3.1,1.7-5.5,4.1-7.3,7.2c-1.8,3.1-2.6,6.8-2.6,10.9c0,3.8,0.8,7.2,2.4,10.3
			c1.6,3.1,3.9,5.5,6.9,7.3c3,1.8,6.6,2.7,10.8,2.7c4.8,0,9.5-1.2,14-3.7l2.7,7.1c-1.2,1-3.4,2-6.7,2.9c-3.2,0.9-6.5,1.4-9.8,1.4
			C567.7,975.9,562.3,974.6,557.7,972.1z"/>
		<path class="st2" d="M614.6,972.7c-4.7-2.3-8.4-5.6-11.1-9.9c-2.8-4.3-4.1-9.3-4.1-14.9c0-5.7,1.4-10.7,4.1-15
			c2.8-4.3,6.5-7.5,11.1-9.8c4.7-2.3,9.7-3.4,15.2-3.4c5.5,0,10.6,1.1,15.2,3.4c4.7,2.3,8.4,5.6,11.1,9.8c2.8,4.3,4.1,9.2,4.1,15
			c0,5.7-1.4,10.7-4.1,14.9c-2.8,4.3-6.5,7.6-11.1,9.9c-4.7,2.3-9.7,3.5-15.2,3.5C624.4,976.1,619.3,975,614.6,972.7z M640.3,966.2
			c3.1-1.6,5.6-4,7.5-7.1c1.8-3.1,2.8-6.8,2.8-11.2c0-4.4-0.9-8.1-2.8-11.2c-1.8-3.1-4.3-5.5-7.4-7.1c-3.1-1.6-6.6-2.4-10.5-2.4
			c-3.9,0-7.4,0.8-10.5,2.4c-3.1,1.6-5.6,3.9-7.4,7.1c-1.8,3.1-2.7,6.9-2.7,11.2c0,4.3,0.9,8.1,2.8,11.2c1.9,3.1,4.4,5.5,7.6,7.1
			c3.2,1.6,6.6,2.4,10.3,2.4C633.7,968.6,637.2,967.8,640.3,966.2z"/>
		<path class="st2" d="M684.1,939.8l0.2,6v29.6h-9.3v-55h1.2l35.7,36l-0.3-6.3v-29.7h9.3v54.9h-1.2L684.1,939.8z"/>
		<path class="st2" d="M767.1,969.9c-3.4-4.1-5.1-10.1-5.1-18v-31.4h9.3v31.6c0,5.8,1,10,2.9,12.5c1.9,2.5,5.1,3.8,9.5,3.8
			c4.4,0,7.6-1.2,9.5-3.7s2.9-6.7,2.9-12.6v-31.6h9.3v31.4c0,7.8-1.8,13.8-5.4,18c-3.6,4.2-9,6.2-16.2,6.2
			C776.1,976.1,770.6,974.1,767.1,969.9z"/>
		<path class="st2" d="M830.9,939.8l0.2,6v29.6h-9.3v-55h1.2l35.7,36l-0.3-6.3v-29.7h9.3v54.9h-1.2L830.9,939.8z"/>
		<path class="st2" d="M925.1,949.8l-3.8-7.8l-1.7,7.8l-5.6,25.6h-9.2l12.6-54.9h1l16.7,29.7l5,9.9l5-9.9l16.4-29.7h0.9l13.1,54.9
			h-9.1l-6.1-25.6l-1.8-7.8l-3.3,7.8l-14.7,25.6h-0.5L925.1,949.8z"/>
		<path class="st2" d="M992.3,969.9c-3.4-4.1-5.1-10.1-5.1-18v-31.4h9.3v31.6c0,5.8,1,10,2.9,12.5c1.9,2.5,5.1,3.8,9.5,3.8
			c4.4,0,7.6-1.2,9.5-3.7s2.9-6.7,2.9-12.6v-31.6h9.3v31.4c0,7.8-1.8,13.8-5.4,18c-3.6,4.2-9,6.2-16.2,6.2
			C1001.2,976.1,995.7,974.1,992.3,969.9z"/>
		<path class="st2" d="M1056,939.8l0.2,6v29.6h-9.3v-55h1.2l35.7,36l-0.3-6.3v-29.7h9.3v54.9h-1.2L1056,939.8z"/>
		<path class="st2" d="M1110,920.5h14.6c12.2,0,20.8,2.6,25.7,7.8c4.9,5.2,7.3,11.5,7.3,18.7c0,5-1,9.7-3.1,13.9
			c-2.1,4.3-5.6,7.7-10.4,10.4c-4.8,2.7-11.1,4-19,4H1110V920.5z M1126.1,968c7.6,0,13.1-2,16.6-5.9c3.4-3.9,5.2-8.8,5.2-14.8
			c0-5.8-1.7-10.5-5.2-14.1c-3.5-3.6-9-5.5-16.5-5.5h-6.9V968H1126.1z"/>
		<path class="st2" d="M1183.9,972.7c-4.7-2.3-8.4-5.6-11.1-9.9c-2.8-4.3-4.1-9.3-4.1-14.9c0-5.7,1.4-10.7,4.1-15
			c2.8-4.3,6.5-7.5,11.1-9.8c4.7-2.3,9.7-3.4,15.2-3.4c5.5,0,10.6,1.1,15.2,3.4c4.7,2.3,8.4,5.6,11.1,9.8c2.8,4.3,4.1,9.2,4.1,15
			c0,5.7-1.4,10.7-4.1,14.9c-2.8,4.3-6.5,7.6-11.1,9.9c-4.7,2.3-9.7,3.5-15.2,3.5C1193.7,976.1,1188.6,975,1183.9,972.7z
			 M1209.6,966.2c3.1-1.6,5.6-4,7.5-7.1c1.8-3.1,2.8-6.8,2.8-11.2c0-4.4-0.9-8.1-2.8-11.2c-1.8-3.1-4.3-5.5-7.4-7.1
			c-3.1-1.6-6.6-2.4-10.5-2.4c-3.9,0-7.4,0.8-10.5,2.4c-3.1,1.6-5.6,3.9-7.4,7.1c-1.8,3.1-2.7,6.9-2.7,11.2c0,4.3,0.9,8.1,2.8,11.2
			c1.9,3.1,4.4,5.5,7.6,7.1c3.2,1.6,6.6,2.4,10.3,2.4C1203,968.6,1206.5,967.8,1209.6,966.2z"/>
		<path class="st2" d="M1284.6,949.8l-3.8-7.8l-1.7,7.8l-5.6,25.6h-9.2l12.6-54.9h1l16.7,29.7l5,9.9l5-9.9l16.4-29.7h0.9l13.1,54.9
			h-9.1l-6.1-25.6l-1.8-7.8l-3.3,7.8l-14.7,25.6h-0.5L1284.6,949.8z"/>
		<path class="st2" d="M1347.3,920.5h26.6v7.3h-17.4V943h14v7.5h-14V968h20.2v7.4h-29.3V920.5z"/>
		<path class="st2" d="M1392.8,975.3c-2.4-0.5-4.4-1.4-6-2.7l3.7-7.7c1,1,2.1,1.8,3.3,2.4c1.2,0.5,2.8,0.8,4.6,0.8
			c1.7,0,3.1-0.3,4.1-0.8c1-0.5,1.8-1.5,2.4-3c0.5-1.4,0.8-3.5,0.8-6.2v-37.6h9.2v39.7c0,5.6-1.4,9.6-4.2,12.1
			c-2.8,2.5-6.4,3.8-11,3.8C1397.5,976.1,1395.2,975.9,1392.8,975.3z"/>
		<path class="st2" d="M1445.5,972.7c-4.7-2.3-8.4-5.6-11.1-9.9c-2.8-4.3-4.1-9.3-4.1-14.9c0-5.7,1.4-10.7,4.1-15
			c2.8-4.3,6.5-7.5,11.1-9.8c4.7-2.3,9.7-3.4,15.2-3.4c5.5,0,10.6,1.1,15.2,3.4c4.7,2.3,8.4,5.6,11.1,9.8c2.8,4.3,4.1,9.2,4.1,15
			c0,5.7-1.4,10.7-4.1,14.9c-2.8,4.3-6.5,7.6-11.1,9.9c-4.7,2.3-9.7,3.5-15.2,3.5C1455.2,976.1,1450.1,975,1445.5,972.7z
			 M1471.1,966.2c3.1-1.6,5.6-4,7.5-7.1c1.8-3.1,2.8-6.8,2.8-11.2c0-4.4-0.9-8.1-2.8-11.2c-1.8-3.1-4.3-5.5-7.4-7.1
			c-3.1-1.6-6.6-2.4-10.5-2.4c-3.9,0-7.4,0.8-10.5,2.4c-3.1,1.6-5.6,3.9-7.4,7.1c-1.8,3.1-2.7,6.9-2.7,11.2c0,4.3,0.9,8.1,2.8,11.2
			c1.9,3.1,4.4,5.5,7.6,7.1c3.2,1.6,6.6,2.4,10.3,2.4C1464.5,968.6,1468,967.8,1471.1,966.2z"/>
		<path class="st2" d="M1536.3,975.4l-12.2-20.8c-2.5,0.1-4.8,0.1-6.8,0.1h-2.3v20.6h-9v-54.9h13.8c7,0,12.8,1.3,17.3,3.9
			c4.5,2.6,6.8,6.9,6.8,12.7c0,3.7-1,6.9-2.9,9.5c-1.9,2.7-4.7,4.7-8.5,6.2l14.5,22.6H1536.3z M1520.8,948c5.4,0,9.1-1.1,11.1-3.2
			c2-2.1,3-4.6,3-7.6c0-6.5-4.8-9.8-14.5-9.8h-5.5V948H1520.8z"/>
	</g>
	<g>
		<path class="st2" d="M466.5,808.4c-2-0.2-3.5,0.5-3.8,1.8c-13.5,40.7-38.5,61.3-74.4,61.3c-56.8,0-103.1-58.9-103.1-131.3
			c0-62.4,35.8-102.7,91.3-102.7c43.9,0,72.6,19.7,82.9,56.9c0.3,1.4,1.8,2.2,3.6,2c1.7-0.2,3.3-1.1,3.3-2.7l-4.4-43.8
			c-0.4-6-1.1-7.1-5.9-10.1l0,0c-15.7-9.5-44.1-13.8-65.2-13.8c-34.9,0-69.3,12.5-94.5,34.3c-26.8,23.2-41.6,55.3-41.6,90.2
			c0,33.1,11,64.1,30.9,87.2c23.7,27.5,59,42,102,42c25,0,48-4.9,70.4-14.8c5.3-1.9,5.7-3.8,6.5-10.1l5.5-43.7l0-0.2
			C470,809.4,468.1,808.6,466.5,808.4z"/>
		<path class="st2" d="M725.4,867.7c-7.8,0-13-0.4-16.9-1.3c-6.4-1.5-9.4-4.2-11-9.9c-0.9-3.3-1.3-7.6-1.3-14V631.5H671v111.1H540.1
			l0-77.2c-0.3-5.4-1.9-13.4-7.6-20.8c-7.1-9.1-16.8-12.4-23.7-13.6l-0.2,0c-2.1-0.1-4.1-0.2-6.1-0.2c-2-0.1-3.9-0.2-5.9-0.2
			c-3.4-0.1-7.1-0.2-10.6-0.2c-0.7,0-2.2,0.4-2.2,3.8s1.6,3.8,2.2,3.8c7.6,0,12.7,0.4,16.5,1.3c6.3,1.5,9.5,4.3,11,10
			c0.9,3.3,1.3,7.6,1.3,14v211.3h25.2V753.3H671l0,86.9c0.3,5.4,1.9,13.4,7.6,20.8c7.4,9.6,17.9,12.8,25.3,13.8l4.7,0.1
			c1.9,0.1,3.8,0.1,5.6,0.1c4.8,0.1,8.2,0.2,11.2,0.2c0.7,0,2.2-0.4,2.2-3.8S726.1,867.7,725.4,867.7z"/>
		<path class="st2" d="M1067.7,867.7c-4.7,0-8.2-0.1-11.1-0.4c-13.2-1.3-16.6-5.3-17-20.8c0-1.3,0-2.6,0-4.1V626.9h-25.9l0,215.4
			c-0.2,3.9,0.1,7.9,1,11.7c0.5,2,1,4.5,2.5,7.5c3.2,6.6,7.9,9.8,9.5,10.8l0.3,0.3h0.4c2.8,0.8,5.7,1.5,8.6,1.8
			c3.4,0.4,5.8,0.4,9.1,0.3c0.9,0,2,0,3.1,0c4.1,0,8.2,0.1,12.3,0.3c2.5,0.1,4.9,0.1,7.2,0.1c1.5,0,2.5-1.5,2.5-3.8
			S1069.2,867.7,1067.7,867.7z"/>
		<path class="st2" d="M1554.3,813c-1.2-1.3-4.1-1.5-5.6-1.2c-1.4,0.3-1.9,0.9-2.1,1.5l-0.1,0.3c-1.5,7-3.8,13.4-6.8,19.1
			c-7.1,13.3-18,22.5-31.6,26.7c-5.5,1.7-11.4,2.5-17.5,2.5h-37.3c-30.6,0-34.9-5-34.9-23.3v-86.2h99.1v-15.9h-99.1v-73.5
			c0-18.9,4.2-23.7,35.9-23.7h28.5c24,0,40.8,10.3,47.2,29.1c1.4,3.9,2.3,8.3,2.7,12.8c0,0.9,0.6,2.3,4.3,2.3c3.7,0,4.3-1.5,4.3-2.4
			l-0.9-29.4c0-0.4,0-0.7,0-1.2c-0.8-11.1-12.6-22.3-23.5-22.3h-169.9c-1.7,0-2.9,1.6-2.9,3.8s1.2,3.8,2.9,3.8
			c34.5,0,38.2,5.1,38.2,25.3v212h141.5l0.4-0.3c2.1-1.6,4.1-3.4,6-5.3c10.1-9.8,16.8-22.2,20-36.9l0-0.2c0.5-5.1,1.1-9.5,1.8-13.3
			c0.1-0.8,0.2-1.5,0.4-2.2l0-0.3C1555,814,1554.7,813.5,1554.3,813z"/>
		<path class="st2" d="M1288.8,663.8c-25.8-22.4-61.2-34.2-102.3-34.2c-6.8,0-15.3,0.4-24.3,0.9c-10,0.5-20.3,1-29.4,1
			c-9.3,0-18-0.3-26.3-0.6c-7.1-0.3-13.8-0.5-19.9-0.5c-1.1,0-2.4,1-2.4,3.8c0,2.8,1.2,3.8,2.4,3.8c27.7,0,32.5,3.8,32.5,25.2v211.4
			l1.5,0c4-0.1,8.1-0.1,12.2-0.1c3.7,0,7.9,0.1,13,0.3c6.3,0.2,12.9,0.6,19.3,1c10.1,0.6,19.6,1.1,27,1.1
			c36.6,0,70.4-12.3,95.2-34.6c26.3-23.7,40.2-56,40.2-93.4C1327.4,715.6,1313.7,685.4,1288.8,663.8z M1294.5,757.3
			c0,68.3-40.8,110.8-106.4,110.8c-34.5,0-40.8-10.1-40.8-29.9V664c0-21.9,10.7-25.6,42.8-25.6
			C1251.5,638.3,1294.5,687.2,1294.5,757.3z"/>
		<path class="st2" d="M982.5,869.1c-14.6,0-23.3-9.7-39.7-48.4l-82.2-192.4c-0.4-1.6-4.2-1.2-4.5,0L785.6,813l-0.2,0.4l-2.9,7.7
			c-2,5.3-3.9,10.1-5.8,14.4l0,0.1l-14.6,37.1c2.8-0.2,5.8-0.3,9.2-0.4l25.8-67l2.4-6.3H908l13.7,32.2l2.2,5.1
			c3.3,7,9.6,17.2,21.1,25.5c10.6,7.7,21.2,10.5,27.2,11.6c3.5,0.1,6.9,0.2,10.3,0.2C984.6,873.8,984.6,869.1,982.5,869.1z
			 M805.1,784.5l14.7-38.8l3.1-8.1l27.9-73.2l31,73.2l3.5,8.1l16.5,38.8H805.1z"/>
	</g>
</g>
</svg>
