<?xml version="1.0" encoding="utf-8"?>
<!-- Generator: Adobe Illustrator 24.0.2, SVG Export Plug-In . SVG Version: 6.00 Build 0)  -->
<svg version="1.1" id="Capa_1" xmlns="http://www.w3.org/2000/svg" xmlns:xlink="http://www.w3.org/1999/xlink" x="0px" y="0px"
	 viewBox="0 0 1800 699.5" style="enable-background:new 0 0 1800 699.5;" xml:space="preserve">
<style type="text/css">
	.st0{fill:#494748;}
	.st1{fill:#00436E;}
	.st2{fill:url(#SVGID_1_);}
	.st3{fill:#3DB5E7;}
	.st4{fill:#FFFAFE;}
	.st5{fill:#FFFFFE;}
</style>
<g>
	<g>
		<g>
			<path d="M814.5,606.2h17.3c-0.7,5.1-3,9.2-6.9,12.4c-3.9,3.2-8.6,4.8-14.2,4.8c-4.6,0-8.8-1.1-12.7-3.2c-3.9-2.1-6.9-5.1-9.1-8.8
				c-2.2-3.7-3.3-7.7-3.3-11.8c0-4,1.1-7.9,3.2-11.5c2.1-3.6,5.1-6.5,9-8.6c3.9-2.1,7.9-3.2,12.2-3.2c3.4,0,6.9,0.8,10.5,2.3
				c3.6,1.6,6.9,3.8,9.9,6.9l4.2-4c-3.9-3.7-7.8-6.4-11.9-8.1c-4.1-1.7-8.4-2.5-13-2.5c-5.7,0-10.8,1.3-15.3,3.8
				c-4.5,2.5-8,6-10.6,10.5c-2.6,4.5-3.9,9.3-3.9,14.5c0,7,2.3,13.2,6.8,18.5c5.9,6.9,13.8,10.4,23.8,10.4c8.3,0,14.9-2.5,19.8-7.5
				c4.9-5,7.4-11.7,7.5-20.2h-23.4V606.2z"/>
			<path d="M851.8,587.2c-1.7,1.2-3.3,2.9-4.8,5.2v-5.9h-5.1v40.7h5.1v-13.7c0-7,0.3-11.7,0.9-14c0.8-3,2-5.2,3.5-6.7
				c1.5-1.4,3.2-2.1,4.8-2.1c0.7,0,1.6,0.2,2.6,0.7l2.6-4.4c-1.6-0.9-3-1.4-4.4-1.4C855.3,585.5,853.5,586.1,851.8,587.2z"/>
			<path d="M895.2,605.5c0,5.1-0.3,8.4-0.8,10c-0.8,2.3-2.3,4.1-4.4,5.5c-2.1,1.4-4.7,2.1-7.7,2.1c-3,0-5.7-0.7-7.8-2.2
				c-2.2-1.4-3.7-3.4-4.5-5.9c-0.5-1.7-0.8-4.9-0.8-9.6v-19h-5.4v19.6c0,5.8,0.7,10.1,2,13c1.4,2.9,3.4,5.1,6.2,6.7
				c2.8,1.6,6.2,2.4,10.3,2.4c4.1,0,7.5-0.8,10.3-2.4c2.7-1.6,4.8-3.8,6.1-6.7c1.4-2.8,2-7.1,2-12.7v-20h-5.6V605.5z"/>
			<path d="M983.2,592.3c-3.9-4.5-8.9-6.8-14.9-6.8c-6,0-11,2.3-14.9,6.8c-3.6,4.1-5.4,9-5.4,14.6c0,5.7,1.9,10.6,5.7,14.9
				c3.8,4.2,8.6,6.4,14.6,6.4c5.9,0,10.8-2.1,14.6-6.4c3.8-4.2,5.7-9.2,5.7-14.9C988.5,601.3,986.7,596.4,983.2,592.3z M981.4,615.3
				c-1.4,2.5-3.2,4.5-5.5,5.9c-2.3,1.4-4.9,2.1-7.6,2.1c-2.8,0-5.3-0.7-7.6-2.1c-2.3-1.4-4.2-3.3-5.5-5.9c-1.4-2.5-2-5.3-2-8.2
				c0-4.6,1.5-8.4,4.5-11.7c3-3.2,6.6-4.8,10.7-4.8c4.1,0,7.7,1.6,10.7,4.8c3,3.2,4.5,7.1,4.5,11.7
				C983.5,610,982.8,612.8,981.4,615.3z"/>
			<path d="M942.1,596.6c-1.7-3.1-4-5.7-6.9-7.6c-3.4-2.2-7.5-3.5-11.9-3.5c-11.8,0-21.4,11.7-21.4,23.6v32.9h5.3v-20.7v-1.1
				c2.2,2.7,4.7,4.7,7.4,6c2.7,1.3,5.7,2,9,2c5.8,0,10.8-2.1,14.9-6.3c1.5-1.6,2.8-3.2,3.7-5c1.6-3,2.4-6.4,2.4-10.2
				C944.6,603,943.8,599.7,942.1,596.6z M937.8,615.1c-1.5,2.6-3.5,4.6-6,6.1c-2.5,1.5-5.2,2.2-8,2.2c-2.9,0-5.6-0.7-8.2-2.2
				c-2.6-1.4-4.6-3.4-6-5.9c-1.4-2.5-2.1-5.2-2.1-8.3c0-4.7,1.6-8.6,4.7-11.8c3.1-3.2,7-4.7,11.5-4.7c2.9,0,5.6,0.7,8.1,2.1
				c2.5,1.4,4.5,3.4,5.9,6c1.5,2.6,2.2,5.3,2.2,8.2C940,609.8,939.2,612.5,937.8,615.1z"/>
		</g>
		<path d="M1269.8,607.2l6.7,7.3l-3,2.6l-3,2.6l9.5,9.5h-13.6l-3.9-3.8c-6.2,3.5-12,5.2-17.3,5.2c-4.5,0-8.2-1.3-11-3.8
			c-2.8-2.5-4.2-5.7-4.2-9.7c0-3,0.8-5.8,2.4-8.4c1.6-2.6,4.3-5.4,8.1-8.2c-3.8-4.9-5.7-9.1-5.7-12.9c0-2.8,1.3-5.5,3.8-8.2
			c2.5-2.7,6.1-4,10.6-4c4.6,0,8.2,1.3,10.6,4c2.5,2.7,3.7,5.4,3.7,8.1c0,2.1-0.6,4.2-1.7,6.1c-1.1,2-3.8,4.9-7.8,8.7
			c4.8,5.4,7.9,8.7,9.3,10C1264.2,611.7,1266.3,610,1269.8,607.2z M1255.2,617.9c-2.1-1.9-5-5.1-8.7-9.6c-4,3.1-5.9,5.9-5.9,8.2
			c0,1.1,0.5,2.1,1.6,3c1.1,0.9,2.5,1.4,4.1,1.4C1248.6,620.9,1251.6,619.9,1255.2,617.9z M1248.5,594.8c3-2.4,4.5-4.5,4.5-6.4
			c0-1-0.3-1.8-1-2.4c-0.7-0.6-1.6-0.9-2.6-0.9c-1,0-1.9,0.3-2.6,1c-0.7,0.7-1.1,1.5-1.1,2.4
			C1245.6,590.4,1246.6,592.5,1248.5,594.8z"/>
		<g>
			<path d="M998,570.8h42v9.8h-14.5v51.3h-11.3v-51.3H998V570.8z"/>
			<path d="M1056.5,583.4c4.1,0,8,1.1,11.6,3.3c3.6,2.2,6.5,5.2,8.5,9c2,3.8,3,7.9,3,12.2c0,4.4-1,8.5-3.1,12.4
				c-2,3.8-4.8,6.8-8.4,9c-3.5,2.2-7.4,3.2-11.7,3.2c-6.3,0-11.6-2.4-16-7.1c-4.4-4.8-6.6-10.5-6.6-17.4c0-7.3,2.5-13.4,7.5-18.2
				C1045.8,585.5,1050.8,583.4,1056.5,583.4z M1056.7,594.4c-3.4,0-6.2,1.3-8.5,3.8c-2.3,2.5-3.4,5.8-3.4,9.7c0,4.1,1.1,7.4,3.4,9.9
				c2.2,2.5,5.1,3.8,8.5,3.8c3.4,0,6.3-1.3,8.6-3.8c2.3-2.5,3.4-5.8,3.4-9.8c0-4-1.1-7.3-3.4-9.8
				C1063,595.6,1060.2,594.4,1056.7,594.4z"/>
			<path d="M1214,591.1l-6.8,7.3c-2.8-2.9-5.3-4.4-7.5-4.4c-1.2,0-2.2,0.3-2.9,0.8c-0.7,0.6-1,1.3-1,2.1c0,0.6,0.2,1.2,0.7,1.7
				c0.4,0.5,1.5,1.3,3.3,2.2l4,2.1c4.2,2.2,7.1,4.5,8.7,6.8c1.6,2.3,2.4,5,2.4,8.2c0,4.1-1.4,7.6-4.3,10.4
				c-2.8,2.8-6.7,4.2-11.5,4.2c-6.4,0-11.4-2.7-15.2-8l6.7-7.9c1.3,1.6,2.8,2.9,4.5,3.9c1.7,1,3.3,1.5,4.6,1.5
				c1.4,0,2.6-0.4,3.5-1.1c0.9-0.7,1.3-1.6,1.3-2.6c0-1.8-1.6-3.6-4.8-5.3l-3.7-2c-7.1-3.8-10.6-8.6-10.6-14.3c0-3.7,1.3-6.8,4-9.5
				c2.7-2.6,6.1-3.9,10.2-3.9c2.8,0,5.5,0.7,8,2C1210.1,586.7,1212.3,588.6,1214,591.1z"/>
			<path d="M1108.5,585.9c-1.6-0.8-5-1.4-6.4-1.4c-2,0-3.9,0.1-5.6,1.3c-1.7,1.2-3,2.3-4.1,4.6v-5.9h-9.4v46.7h10.9v-18.9l0-2.3
				c0-0.6,0-3.9,0-4.4c0,0,0.5-11,9-10.7c0.9,0,1.7,0.1,2.3,0.4L1108.5,585.9z"/>
			<path d="M1138.4,585.9c-1.6-0.8-5-1.4-6.4-1.4c-2,0-3.9,0.1-5.6,1.3c-1.7,1.2-3,2.3-4.1,4.6v-5.9h-9.4v46.7h10.9v-18.9l0-2.3
				c0-0.6,0-3.9,0-4.4c0,0,0.5-11,9-10.7c0.9,0,1.7,0.1,2.3,0.4L1138.4,585.9z"/>
			<g>
				<path d="M1169.1,619.2c0.1-0.1,0.1-0.1,0.2-0.2C1169.3,619.1,1169.2,619.2,1169.1,619.2z"/>
				<path d="M1167.5,620.7c0.1-0.1,0.1-0.1,0.2-0.2C1167.6,620.6,1167.5,620.7,1167.5,620.7z"/>
				<path d="M1171,616.4c0-0.1,0.1-0.2,0.1-0.2C1171.1,616.2,1171.1,616.3,1171,616.4z"/>
				<path d="M1171.6,615.1c0-0.1,0-0.1,0.1-0.2C1171.6,615,1171.6,615,1171.6,615.1z"/>
				<path d="M1166.6,621.3c0.1,0,0.1-0.1,0.2-0.1C1166.7,621.2,1166.7,621.2,1166.6,621.3z"/>
				<path d="M1170.5,617.4c0-0.1,0.1-0.2,0.1-0.2C1170.6,617.2,1170.6,617.3,1170.5,617.4z"/>
				<path d="M1160.7,623.1c0.3,0,0.6-0.1,0.9-0.1C1161.3,623,1161,623.1,1160.7,623.1z"/>
				<path d="M1159,623.2c0.5,0,0.9,0,1.3-0.1C1159.9,623.2,1159.4,623.2,1159,623.2z"/>
				<path d="M1162.1,622.9c0.3,0,0.5-0.1,0.8-0.2C1162.6,622.8,1162.4,622.9,1162.1,622.9z"/>
				<path d="M1163.3,622.6c0.3-0.1,0.5-0.2,0.8-0.2C1163.9,622.5,1163.6,622.6,1163.3,622.6z"/>
				<path d="M1165.6,621.8c0.1,0,0.1-0.1,0.2-0.1C1165.7,621.8,1165.6,621.8,1165.6,621.8z"/>
				<path d="M1164.6,622.2c0.1,0,0.2-0.1,0.2-0.1C1164.8,622.2,1164.7,622.2,1164.6,622.2z"/>
				<path d="M1169.9,618.4c0,0,0.1-0.1,0.1-0.1C1169.9,618.3,1169.9,618.3,1169.9,618.4z"/>
				<path d="M1168.5,619.9C1168.5,619.9,1168.4,619.9,1168.5,619.9C1168.4,619.9,1168.5,619.9,1168.5,619.9z"/>
				<path d="M1171.9,614c0-0.1,0.1-0.2,0.1-0.3C1172,613.8,1172,613.9,1171.9,614z"/>
				<path d="M1168.9,624.3l0.7-5.7c-0.1,0.1-0.2,0.3-0.3,0.4c-0.1,0.1-0.1,0.1-0.2,0.2c-0.2,0.2-0.4,0.4-0.6,0.6c0,0,0,0-0.1,0.1
					c-0.2,0.2-0.5,0.4-0.8,0.6c-0.1,0.1-0.1,0.1-0.2,0.2c-0.2,0.2-0.4,0.3-0.7,0.4c-0.1,0-0.1,0.1-0.2,0.1c-0.3,0.2-0.6,0.3-0.9,0.5
					c-0.1,0-0.1,0.1-0.2,0.1c-0.2,0.1-0.5,0.2-0.7,0.3c-0.1,0-0.2,0.1-0.2,0.1c-0.1,0-0.1,0-0.2,0.1L1168.9,624.3z"/>
				<path d="M1183,609c0-7.7-2.2-13.9-6.5-18.6c-4.3-4.7-9.9-7.1-16.8-7.1c-6.5,0-11.9,2.4-16.1,7.1c-4.3,4.7-6.4,10.6-6.4,17.7
					c0,7,2.2,12.7,6.5,17.4c4.3,4.6,9.9,6.9,16.7,6.9c4.4,0,8.2-0.8,11.4-2.5s4.9-4.8,7.2-8.3l0,0c1-1.8,1.7-2.9,2.2-5.3l-9-3.8
					c-0.1,0.4-0.2,0.8-0.3,1.2c0,0.1-0.1,0.2-0.1,0.3c-0.1,0.3-0.2,0.6-0.3,0.9c0,0.1,0,0.1-0.1,0.2c-0.1,0.4-0.3,0.7-0.4,1
					c0,0.1-0.1,0.2-0.1,0.2c-0.1,0.3-0.3,0.5-0.4,0.8c0,0.1-0.1,0.2-0.1,0.2c-0.2,0.3-0.4,0.6-0.6,0.9c0,0-0.1,0.1-0.1,0.1
					c-0.1,0.1-0.1,0.2-0.2,0.2c-2.7,2.3-5.8,3.5-9.3,3.5c-3.4,0-6.2-1-8.4-2.9c-2.2-2-3.6-4.6-4.1-7.9h35.2L1183,609z M1148.3,602
					c1.2-2.9,2.6-4.9,4-6.1c2.3-1.8,5-2.7,8-2.7c2.8,0,5.3,0.8,7.4,2.4c2.1,1.6,3.6,3.7,4.3,6.4H1148.3z"/>
				<path d="M1160.3,623.1c0.1,0,0.3,0,0.4,0C1160.6,623.1,1160.4,623.1,1160.3,623.1z"/>
				<path d="M1164.8,622.1c0.2-0.1,0.5-0.2,0.7-0.3C1165.3,621.9,1165.1,622.1,1164.8,622.1z"/>
				<path d="M1172.3,612.4c-0.1,0.4-0.2,0.8-0.3,1.2C1172.1,613.3,1172.2,612.9,1172.3,612.4z"/>
				<path d="M1161.6,623c0.2,0,0.3-0.1,0.5-0.1C1161.9,622.9,1161.8,623,1161.6,623z"/>
				<path d="M1162.9,622.8c0.2,0,0.3-0.1,0.5-0.1C1163.2,622.7,1163,622.7,1162.9,622.8z"/>
				<path d="M1166.8,621.2c0.2-0.1,0.4-0.3,0.7-0.4C1167.2,620.9,1167,621,1166.8,621.2z"/>
				<path d="M1170,618.2c0.2-0.3,0.4-0.6,0.6-0.9C1170.3,617.7,1170.2,618,1170,618.2z"/>
				<path d="M1165.8,621.7c0.3-0.1,0.6-0.3,0.9-0.5C1166.3,621.4,1166.1,621.6,1165.8,621.7z"/>
				<path d="M1170.7,617.1c0.1-0.2,0.3-0.5,0.4-0.8C1170.9,616.6,1170.8,616.9,1170.7,617.1z"/>
				<path d="M1171.7,614.9c0.1-0.3,0.2-0.6,0.3-0.9C1171.9,614.3,1171.8,614.6,1171.7,614.9z"/>
				<path d="M1171.2,616.1c0.2-0.3,0.3-0.7,0.4-1C1171.5,615.5,1171.3,615.8,1171.2,616.1z"/>
				<path d="M1169.7,618.6L1169.7,618.6c0.1-0.1,0.1-0.2,0.2-0.2c-0.2,0.2-0.4,0.5-0.5,0.7C1169.4,618.9,1169.5,618.8,1169.7,618.6
					L1169.7,618.6z"/>
				<path d="M1164.6,622.2c-0.2,0.1-0.3,0.1-0.5,0.2c0.1,0,0.2-0.1,0.3-0.1C1164.5,622.3,1164.5,622.3,1164.6,622.2z"/>
				<path d="M1169.1,619.2c-0.2,0.2-0.4,0.4-0.6,0.6C1168.7,619.7,1168.9,619.5,1169.1,619.2z"/>
				<path d="M1167.7,620.6c0.3-0.2,0.5-0.4,0.8-0.6C1168.2,620.2,1167.9,620.4,1167.7,620.6z"/>
				<path d="M1167.6,631.6L1167.6,631.6C1167.7,631.6,1167.6,631.6,1167.6,631.6L1167.6,631.6z"/>
				<polygon points="1169.7,618.6 1169.7,618.6 1169.7,618.6 				"/>
			</g>
		</g>
		<g>
			<path d="M1282.2,570.8h42v9.8h-14.5v51.3h-11.3v-51.3h-16.2V570.8z"/>
			<path d="M1340.7,583.4c4.1,0,8,1.1,11.6,3.3c3.6,2.2,6.5,5.2,8.5,9c2,3.8,3,7.9,3,12.2c0,4.4-1,8.5-3.1,12.4
				c-2,3.8-4.8,6.8-8.4,9c-3.5,2.2-7.4,3.2-11.7,3.2c-6.3,0-11.6-2.4-16-7.1c-4.4-4.8-6.6-10.5-6.6-17.4c0-7.3,2.5-13.4,7.5-18.2
				C1330,585.5,1335,583.4,1340.7,583.4z M1340.9,594.4c-3.4,0-6.2,1.3-8.5,3.8c-2.3,2.5-3.4,5.8-3.4,9.7c0,4.1,1.1,7.4,3.4,9.9
				c2.2,2.5,5.1,3.8,8.5,3.8c3.4,0,6.3-1.3,8.6-3.8c2.3-2.5,3.4-5.8,3.4-9.8c0-4-1.1-7.3-3.4-9.8
				C1347.2,595.6,1344.4,594.4,1340.9,594.4z"/>
			<path d="M1498.2,591.1l-6.8,7.3c-2.8-2.9-5.3-4.4-7.5-4.4c-1.2,0-2.2,0.3-2.9,0.8c-0.7,0.6-1,1.3-1,2.1c0,0.6,0.2,1.2,0.7,1.7
				c0.4,0.5,1.5,1.3,3.3,2.2l4,2.1c4.2,2.2,7.1,4.5,8.7,6.8c1.6,2.3,2.4,5,2.4,8.2c0,4.1-1.4,7.6-4.3,10.4
				c-2.8,2.8-6.7,4.2-11.5,4.2c-6.4,0-11.4-2.7-15.2-8l6.7-7.9c1.3,1.6,2.8,2.9,4.5,3.9c1.7,1,3.3,1.5,4.6,1.5
				c1.4,0,2.6-0.4,3.5-1.1c0.9-0.7,1.3-1.6,1.3-2.6c0-1.8-1.6-3.6-4.8-5.3l-3.7-2c-7.1-3.8-10.6-8.6-10.6-14.3c0-3.7,1.3-6.8,4-9.5
				c2.7-2.6,6.1-3.9,10.2-3.9c2.8,0,5.5,0.7,8,2C1494.3,586.7,1496.5,588.6,1498.2,591.1z"/>
			<path d="M1392.7,585.9c-1.6-0.8-5-1.4-6.4-1.4c-2,0-3.9,0.1-5.6,1.3c-1.7,1.2-3,2.3-4.1,4.6v-5.9h-9.4v46.7h10.9v-18.9l0-2.3
				c0-0.6,0-3.9,0-4.4c0,0,0.5-11,9-10.7c0.9,0,1.7,0.1,2.3,0.4L1392.7,585.9z"/>
			<path d="M1422.6,585.9c-1.6-0.8-5-1.4-6.4-1.4c-2,0-3.9,0.1-5.6,1.3c-1.7,1.2-3,2.3-4.1,4.6v-5.9h-9.4v46.7h10.9v-18.9l0-2.3
				c0-0.6,0-3.9,0-4.4c0,0,0.5-11,9-10.7c0.9,0,1.7,0.1,2.3,0.4L1422.6,585.9z"/>
			<g>
				<path d="M1453.3,619.2c0.1-0.1,0.1-0.1,0.2-0.2C1453.5,619.1,1453.4,619.2,1453.3,619.2z"/>
				<path d="M1451.7,620.7c0.1-0.1,0.1-0.1,0.2-0.2C1451.8,620.6,1451.7,620.7,1451.7,620.7z"/>
				<path d="M1455.3,616.4c0-0.1,0.1-0.2,0.1-0.2C1455.3,616.2,1455.3,616.3,1455.3,616.4z"/>
				<path d="M1455.8,615.1c0-0.1,0-0.1,0.1-0.2C1455.8,615,1455.8,615,1455.8,615.1z"/>
				<path d="M1450.8,621.3c0.1,0,0.1-0.1,0.2-0.1C1451,621.2,1450.9,621.2,1450.8,621.3z"/>
				<path d="M1454.7,617.4c0-0.1,0.1-0.2,0.1-0.2C1454.8,617.2,1454.8,617.3,1454.7,617.4z"/>
				<path d="M1444.9,623.1c0.3,0,0.6-0.1,0.9-0.1C1445.5,623,1445.2,623.1,1444.9,623.1z"/>
				<path d="M1443.2,623.2c0.5,0,0.9,0,1.3-0.1C1444.1,623.2,1443.6,623.2,1443.2,623.2z"/>
				<path d="M1446.3,622.9c0.3,0,0.5-0.1,0.8-0.2C1446.8,622.8,1446.6,622.9,1446.3,622.9z"/>
				<path d="M1447.6,622.6c0.3-0.1,0.5-0.2,0.8-0.2C1448.1,622.5,1447.8,622.6,1447.6,622.6z"/>
				<path d="M1449.8,621.8c0.1,0,0.1-0.1,0.2-0.1C1449.9,621.8,1449.8,621.8,1449.8,621.8z"/>
				<path d="M1448.8,622.2c0.1,0,0.2-0.1,0.2-0.1C1449,622.2,1448.9,622.2,1448.8,622.2z"/>
				<path d="M1454.1,618.4c0,0,0.1-0.1,0.1-0.1C1454.1,618.3,1454.1,618.3,1454.1,618.4z"/>
				<path d="M1452.7,619.9C1452.7,619.9,1452.7,619.9,1452.7,619.9C1452.7,619.9,1452.7,619.9,1452.7,619.9z"/>
				<path d="M1456.2,614c0-0.1,0.1-0.2,0.1-0.3C1456.2,613.8,1456.2,613.9,1456.2,614z"/>
				<path d="M1453.1,624.3l0.7-5.7c-0.1,0.1-0.2,0.3-0.3,0.4c-0.1,0.1-0.1,0.1-0.2,0.2c-0.2,0.2-0.4,0.4-0.6,0.6c0,0,0,0-0.1,0.1
					c-0.2,0.2-0.5,0.4-0.8,0.6c-0.1,0.1-0.1,0.1-0.2,0.2c-0.2,0.2-0.4,0.3-0.7,0.4c-0.1,0-0.1,0.1-0.2,0.1c-0.3,0.2-0.6,0.3-0.9,0.5
					c-0.1,0-0.1,0.1-0.2,0.1c-0.2,0.1-0.5,0.2-0.7,0.3c-0.1,0-0.2,0.1-0.2,0.1c-0.1,0-0.1,0-0.2,0.1L1453.1,624.3z"/>
				<path d="M1467.2,609c0-7.7-2.2-13.9-6.5-18.6c-4.3-4.7-9.9-7.1-16.8-7.1c-6.5,0-11.9,2.4-16.1,7.1c-4.3,4.7-6.4,10.6-6.4,17.7
					c0,7,2.2,12.7,6.5,17.4c4.3,4.6,9.9,6.9,16.7,6.9c4.4,0,8.2-0.8,11.4-2.5s4.9-4.8,7.2-8.3l0,0c1-1.8,1.7-2.9,2.2-5.3l-9-3.8
					c-0.1,0.4-0.2,0.8-0.3,1.2c0,0.1-0.1,0.2-0.1,0.3c-0.1,0.3-0.2,0.6-0.3,0.9c0,0.1,0,0.1-0.1,0.2c-0.1,0.4-0.3,0.7-0.4,1
					c0,0.1-0.1,0.2-0.1,0.2c-0.1,0.3-0.3,0.5-0.4,0.8c0,0.1-0.1,0.2-0.1,0.2c-0.2,0.3-0.4,0.6-0.6,0.9c0,0-0.1,0.1-0.1,0.1
					c-0.1,0.1-0.1,0.2-0.2,0.2c-2.7,2.3-5.8,3.5-9.3,3.5c-3.4,0-6.2-1-8.4-2.9c-2.2-2-3.6-4.6-4.1-7.9h35.2L1467.2,609z M1432.5,602
					c1.2-2.9,2.6-4.9,4-6.1c2.3-1.8,5-2.7,8-2.7c2.8,0,5.3,0.8,7.4,2.4c2.1,1.6,3.6,3.7,4.3,6.4H1432.5z"/>
				<path d="M1444.5,623.1c0.1,0,0.3,0,0.4,0C1444.8,623.1,1444.7,623.1,1444.5,623.1z"/>
				<path d="M1449,622.1c0.2-0.1,0.5-0.2,0.7-0.3C1449.5,621.9,1449.3,622.1,1449,622.1z"/>
				<path d="M1456.5,612.4c-0.1,0.4-0.2,0.8-0.3,1.2C1456.3,613.3,1456.4,612.9,1456.5,612.4z"/>
				<path d="M1445.8,623c0.2,0,0.3-0.1,0.5-0.1C1446.1,622.9,1446,623,1445.8,623z"/>
				<path d="M1447.1,622.8c0.2,0,0.3-0.1,0.5-0.1C1447.4,622.7,1447.2,622.7,1447.1,622.8z"/>
				<path d="M1451,621.2c0.2-0.1,0.4-0.3,0.7-0.4C1451.5,620.9,1451.2,621,1451,621.2z"/>
				<path d="M1454.2,618.2c0.2-0.3,0.4-0.6,0.6-0.9C1454.6,617.7,1454.4,618,1454.2,618.2z"/>
				<path d="M1450,621.7c0.3-0.1,0.6-0.3,0.9-0.5C1450.6,621.4,1450.3,621.6,1450,621.7z"/>
				<path d="M1454.9,617.1c0.1-0.2,0.3-0.5,0.4-0.8C1455.1,616.6,1455,616.9,1454.9,617.1z"/>
				<path d="M1455.9,614.9c0.1-0.3,0.2-0.6,0.3-0.9C1456.1,614.3,1456,614.6,1455.9,614.9z"/>
				<path d="M1455.4,616.1c0.2-0.3,0.3-0.7,0.4-1C1455.7,615.5,1455.5,615.8,1455.4,616.1z"/>
				<path d="M1453.9,618.6L1453.9,618.6c0.1-0.1,0.1-0.2,0.2-0.2c-0.2,0.2-0.4,0.5-0.5,0.7C1453.6,618.9,1453.8,618.8,1453.9,618.6
					L1453.9,618.6z"/>
				<path d="M1448.8,622.2c-0.2,0.1-0.3,0.1-0.5,0.2c0.1,0,0.2-0.1,0.3-0.1C1448.7,622.3,1448.7,622.3,1448.8,622.2z"/>
				<path d="M1453.3,619.2c-0.2,0.2-0.4,0.4-0.6,0.6C1452.9,619.7,1453.1,619.5,1453.3,619.2z"/>
				<path d="M1451.9,620.6c0.3-0.2,0.5-0.4,0.8-0.6C1452.4,620.2,1452.1,620.4,1451.9,620.6z"/>
				<path d="M1451.8,631.6L1451.8,631.6C1451.9,631.6,1451.9,631.6,1451.8,631.6L1451.8,631.6z"/>
				<polygon points="1453.9,618.6 1453.9,618.6 1453.9,618.6 				"/>
			</g>
		</g>
		<g>
			<path d="M340.2,584.6h0.8v28.3c0,8.5-6.9,15.4-15.4,15.4c-8.5,0-15.4-6.9-15.4-15.4v-28.3h0.8h4.8h0.4v27.6
				c0,5.2,4.2,10.1,9.4,10.1c5.1,0,9.3-4.8,9.3-10.1v-27.6h0.4H340.2z"/>
			<path d="M378.4,612.1v15.6H372v-15.5c0-5.5-3.2-9.6-9.4-9.6c-5.4,0-9.7,4.1-9.7,9.6v15.5h-6.4v-15.6c0-5.1,2.5-9.6,6.3-12.4
				c1.6-1.2,3.4-2.1,5.3-2.6c0.1,0,0.2-0.1,0.3-0.1c1.2-0.3,2.5-0.5,3.9-0.5h0.1c0.4,0,0.7,0,1.1,0c0.2,0,0.5,0,0.7,0.1
				c9.1,0.8,13.7,7,14,14.6C378.4,611.5,378.4,611.8,378.4,612.1z"/>
			<path d="M407.1,600.7v0.3c-0.4-0.4-0.7-0.9-1.1-1.2c-2.3-1.7-4.9-2.9-7.8-3.3c-0.2,0-0.5-0.1-0.7-0.1c-0.4,0-0.9-0.1-1.3-0.1
				c-0.5,0-1.1,0-1.6,0.1c-0.5,0.1-1.1,0.1-1.6,0.2c-0.6,0.1-1.2,0.3-1.8,0.5c-0.2,0.1-0.3,0.1-0.5,0.2c-0.2,0.1-0.4,0.1-0.5,0.2
				c-0.2,0.1-0.5,0.2-0.7,0.3c-0.1,0.1-0.2,0.1-0.3,0.2c-0.3,0.1-0.6,0.3-0.9,0.5c-0.2,0.1-0.5,0.3-0.7,0.4
				c-0.3,0.2-0.5,0.3-0.8,0.5c-0.1,0.1-0.2,0.2-0.3,0.3c-0.2,0.1-0.3,0.2-0.5,0.4c-0.2,0.2-0.4,0.4-0.6,0.6
				c-0.1,0.1-0.3,0.3-0.4,0.4c-0.3,0.3-0.7,0.7-1,1.1c-0.2,0.2-0.4,0.4-0.5,0.7c-0.5,0.6-0.9,1.3-1.2,1.9c-0.1,0.2-0.2,0.3-0.3,0.5
				c-0.6,1.2-1.1,2.5-1.3,3.9c-0.1,0.3-0.1,0.5-0.1,0.8c0,0.3-0.1,0.5-0.1,0.8c-0.1,0.5-0.1,1.1-0.1,1.6c0,0.3,0,0.5,0,0.8
				c0,0.3,0,0.5,0.1,0.8c0.1,0.5,0.1,1,0.2,1.5c0.1,0.4,0.2,0.7,0.3,1.1c0,0,0,0.1,0,0.1c0.1,0.3,0.2,0.6,0.3,0.9
				c0,0.1,0,0.1,0.1,0.2c0,0,0,0,0,0c2.2,6.2,8.1,10.6,15,10.6c4.2,0,8-1.6,10.9-4.3v3.4h5.1v-15
				C412.2,607.8,410.2,603.7,407.1,600.7z M407.2,612.5c0,0.3,0,0.7-0.1,1c0,0.2-0.1,0.4-0.1,0.6c-0.1,0.3-0.1,0.6-0.2,0.9
				c-0.1,0.2-0.1,0.3-0.2,0.5c-0.1,0.1-0.1,0.3-0.2,0.4c-1,2.3-2.8,4.1-5.1,5.3c-0.1,0.1-0.3,0.2-0.4,0.2c-0.3,0.1-0.5,0.2-0.8,0.3
				c-0.5,0.2-1,0.3-1.5,0.4c-0.2,0-0.3,0.1-0.5,0.1c-0.6,0.1-1.3,0.2-1.9,0.2c-5.6,0-10.1-4.5-10.1-10c0-5.6,4.4-10.2,10.1-10.2
				c0.9,0,1.8,0.1,2.7,0.4c0.1,0,0.2,0.1,0.4,0.1c1.2,0.3,2.3,0.9,3.3,1.6c0.3,0.2,0.5,0.4,0.8,0.6c0.3,0.2,0.5,0.5,0.8,0.7
				c0.2,0.2,0.4,0.4,0.6,0.6c0.3,0.3,0.5,0.6,0.7,0.9c0.1,0.1,0.2,0.3,0.3,0.4c0.6,0.9,1,1.8,1.2,2.9c0.1,0.3,0.1,0.6,0.2,0.9
				C407.1,611.7,407.2,612,407.2,612.5L407.2,612.5z"/>
		</g>
		<g>
			<path d="M746.1,617.4c-3,7.2-9,10.8-15.3,10.8c-8.8,0-15.8-7.2-15.8-15.9c0-8.8,7-16,15.8-16c8.7,0,15.7,7.2,15.7,16
				c0,0.6,0,1.2-0.1,1.7h-5.7h-3.1H721c0.8,4.8,4.8,8.5,9.7,8.5c3.8,0,7.2-1.9,8.8-5.1C740.8,617.4,744.4,617.4,746.1,617.4z
				 M721.2,609.4h1h16.3h1.9c-0.2-0.5-0.5-1-0.7-1.5c-1.6-3.4-4.9-5.9-8.9-5.9c-4.2,0-7.6,2.7-9.1,6.2
				C721.5,608.6,721.3,609,721.2,609.4z"/>
			<path d="M757.1,627.7H751v-43.3h6.1V627.7z"/>
			<path d="M704.5,584.5v16.9c-0.6-0.4-1.1-1-1.7-1.4c-2.1-1.5-4.8-2.5-7.6-2.7c0,0-0.1,0-0.1,0c-0.2,0-0.4,0-0.6,0
				c-0.2,0-0.3,0-0.5,0c-0.3,0-0.5,0-0.8,0c-7.7,0.4-13.9,6.3-14.7,13.8c-0.1,0.5-0.1,1-0.1,1.6c0,0.5,0,1,0.1,1.5
				c0,0.3,0.1,0.5,0.1,0.8c0,0.2,0.1,0.4,0.1,0.6c0.3,1.7,0.9,3.3,1.8,4.8c0.1,0.1,0.1,0.2,0.2,0.3c0.3,0.4,0.5,0.8,0.8,1.2
				c2.7,3.6,6.9,5.9,11.7,6.2c0.3,0,0.5,0,0.8,0c0.1,0,0.3,0,0.4,0c0.2,0,0.4,0,0.6,0c2.8-0.2,5.4-1.2,7.6-2.7
				c0.6-0.4,1.2-0.9,1.8-1.5v0.2c3.1-2.8,5.1-6.9,5.1-11.4v-28.1H704.5z M693.9,622.5c-5.5,0-9.6-4.4-9.6-9.9c0-5.4,4.1-9.8,9.6-9.8
				c5.5,0,10.6,4.4,10.6,9.8v0.1C704.5,618.2,699.4,622.5,693.9,622.5z"/>
			<path d="M704.5,601.2v0.2c-0.6-0.4-1.1-1-1.7-1.4c-2.1-1.5-4.8-2.5-7.6-2.7C698.8,597.5,702,599,704.5,601.2z"/>
		</g>
		<g>
			<path d="M439.5,590.3v11.2h12.8v5.8h-12.8v14.6h19.7v5.8h-26.1v-43.2h26.1v5.8H439.5z"/>
			<path d="M599.8,617.4c-3,7.2-9,10.8-15.3,10.8c-8.8,0-15.8-7.2-15.8-15.9c0-8.8,7-16,15.8-16c8.7,0,15.7,7.2,15.7,16
				c0,0.6,0,1.2-0.1,1.7h-5.7h-3.1h-16.6c0.8,4.8,4.8,8.5,9.7,8.5c3.8,0,7.2-1.9,8.8-5.1C594.5,617.4,598.1,617.4,599.8,617.4z
				 M574.9,609.4h1h16.3h1.9c-0.2-0.5-0.5-1-0.7-1.5c-1.6-3.4-4.9-5.9-8.9-5.9c-4.2,0-7.6,2.7-9.1,6.2
				C575.2,608.6,575,609,574.9,609.4z"/>
			<path d="M624,619.5c-0.3,6-6.4,8.8-11.5,8.5c-5.5-0.4-8.8-2.7-10.6-7l5.5-1.9c0.9,2,2.7,3.1,5.4,3.2c3,0.2,5.4-1.1,5.5-3.2
				c0.2-2.6-1.1-4.3-5.1-4.5c-0.2,0-0.2,0-0.4-0.1c-5.7-0.4-9.9-4.8-9.6-10c0.2-5,5.4-8.6,11-8.3c4.3,0.3,7.2,2,9.1,4.8l-4.3,3
				c-1-1.6-2.9-2.7-5-2.8c-3.2-0.2-5,1.3-5.2,3.6c-0.1,2.1,1.5,4.4,4.6,4.6C620.2,609.9,624.4,613.7,624,619.5z"/>
			<path d="M531.2,596.8c-9,0-16.3,7-16.3,15.6v28.1h6.4v-16.1c0.4,0.5,0.9,0.9,1.4,1.2c1.8,1.1,3.9,1.8,6.1,2.2
				c0.3,0,0.5,0.1,0.8,0.1l0.4,0c0.4,0,0.7,0,1.1,0c0.1,0,0.3,0,0.4,0c7.8-0.1,14.3-5.4,15.8-12.4c0-0.1,0.1-0.2,0.1-0.4
				c0-0.2,0.1-0.5,0.1-0.7c0.1-0.7,0.1-1.5,0.2-2.3C547.4,603.7,540.2,596.8,531.2,596.8z M531.7,622.1c-5.7,0-10.3-4.4-10.3-10
				c0-5.7,4.6-10.1,10.3-10.1c5.5,0,9.8,4.4,9.8,10.1C541.5,617.7,537.1,622.1,531.7,622.1z"/>
			<path d="M522.7,622.6c-0.5-0.3-0.9-0.6-1.4-0.9v-0.3C521.7,621.8,522.2,622.2,522.7,622.6z"/>
			<path d="M531,624.9c0.1,0,0.3,0,0.4,0h-0.2C531.2,624.9,531.1,624.9,531,624.9z"/>
			<path d="M547.5,609.2v0.2c0,0.7-0.1,1.4-0.2,2.1C547.5,610.7,547.5,609.9,547.5,609.2z"/>
			<path d="M652.8,600.7v0.3c-0.4-0.4-0.7-0.9-1.1-1.2c-2.3-1.7-4.9-2.9-7.8-3.3c-0.2,0-0.5-0.1-0.7-0.1c-0.4,0-0.9-0.1-1.3-0.1
				c-0.5,0-1.1,0-1.6,0.1c-0.5,0.1-1.1,0.1-1.6,0.2c-0.6,0.1-1.2,0.3-1.8,0.5c-0.2,0.1-0.3,0.1-0.5,0.2s-0.4,0.1-0.5,0.2
				c-0.2,0.1-0.5,0.2-0.7,0.3c-0.1,0.1-0.2,0.1-0.3,0.2c-0.3,0.1-0.6,0.3-0.9,0.5c-0.2,0.1-0.5,0.3-0.7,0.4
				c-0.3,0.2-0.5,0.3-0.8,0.5c-0.1,0.1-0.2,0.2-0.3,0.3c-0.2,0.1-0.3,0.2-0.5,0.4c-0.2,0.2-0.4,0.4-0.6,0.6
				c-0.1,0.1-0.3,0.3-0.4,0.4c-0.3,0.3-0.7,0.7-1,1.1c-0.2,0.2-0.4,0.4-0.5,0.7c-0.5,0.6-0.9,1.3-1.2,1.9c-0.1,0.2-0.2,0.3-0.3,0.5
				c-0.6,1.2-1.1,2.5-1.3,3.9c-0.1,0.3-0.1,0.5-0.1,0.8c0,0.3-0.1,0.5-0.1,0.8c-0.1,0.5-0.1,1.1-0.1,1.6c0,0.3,0,0.5,0,0.8
				c0,0.3,0,0.5,0.1,0.8c0.1,0.5,0.1,1,0.2,1.5c0.1,0.4,0.2,0.7,0.3,1.1c0,0,0,0.1,0,0.1c0.1,0.3,0.2,0.6,0.3,0.9
				c0,0.1,0,0.1,0.1,0.2c0,0,0,0,0,0c2.2,6.2,8.1,10.6,15,10.6c4.2,0,8-1.6,10.9-4.3v3.4h5.1v-15
				C657.9,607.8,655.9,603.7,652.8,600.7z M652.9,612.5c0,0.3,0,0.7-0.1,1c0,0.2-0.1,0.4-0.1,0.6c-0.1,0.3-0.1,0.6-0.2,0.9
				c-0.1,0.2-0.1,0.3-0.2,0.5c-0.1,0.1-0.1,0.3-0.2,0.4c-1,2.3-2.8,4.1-5.1,5.3c-0.1,0.1-0.3,0.2-0.4,0.2c-0.3,0.1-0.5,0.2-0.8,0.3
				c-0.5,0.2-1,0.3-1.5,0.4c-0.2,0-0.3,0.1-0.5,0.1c-0.6,0.1-1.3,0.2-1.9,0.2c-5.6,0-10.1-4.5-10.1-10c0-5.6,4.4-10.2,10.1-10.2
				c0.9,0,1.8,0.1,2.7,0.4c0.1,0,0.2,0.1,0.4,0.1c1.2,0.3,2.3,0.9,3.3,1.6c0.3,0.2,0.5,0.4,0.8,0.6c0.3,0.2,0.5,0.5,0.8,0.7
				c0.2,0.2,0.4,0.4,0.6,0.6c0.3,0.3,0.5,0.6,0.7,0.9c0.1,0.1,0.2,0.3,0.3,0.4c0.6,0.9,1,1.8,1.2,2.9c0.1,0.3,0.1,0.6,0.2,0.9
				C652.9,611.7,652.9,612,652.9,612.5L652.9,612.5z"/>
			<path d="M567.5,596.8c0,3,0,5.5,0,5.5c0.1,0-8.7-0.6-9.8,6.7v18.6h-6.5v-15.3c0-8.6,7-15.6,15.6-15.6
				C567.1,596.8,567.3,596.8,567.5,596.8z"/>
			<path d="M511.8,612.1v15.6h-5.3v-15.5c0-5.5-2.7-9.6-7.8-9.6c-4.5,0-8,4.1-8,9.6v15.5h-5.5v-15.5c0-5.5-2.7-9.6-7.8-9.6
				c-4.5,0-8,4.1-8,9.6v15.5h-5.3v-15.6c0-5.1,2.1-9.6,5.2-12.4c1.3-1.2,2.8-2.1,4.4-2.6c0.1,0,0.2-0.1,0.2-0.1
				c1-0.3,2.1-0.5,3.2-0.5h0.1c0.3,0,0.6,0,0.9,0c0.2,0,0.4,0,0.6,0.1c4.3,0.5,7.4,2.7,9.3,6c0.7-1.1,1.6-2.1,2.5-2.9
				c1.3-1.2,2.8-2.1,4.4-2.6c0.1,0,0.2-0.1,0.2-0.1c1-0.3,2.1-0.5,3.2-0.5h0.1c0.3,0,0.6,0,0.9,0c0.2,0,0.4,0,0.6,0.1
				c7.6,0.8,11.4,7,11.6,14.6C511.8,611.5,511.8,611.8,511.8,612.1z"/>
		</g>
	</g>
	<g>
		<g>
			<path class="st0" d="M755.8,124.3l-10.7,59.9c-8.5-6.8-17.7-11.9-27.7-15.4c-10-3.5-20.4-5.2-31.2-5.2
				c-18.4,0-33.5,5.9-45.4,17.7c-11.9,11.8-17.9,26.9-17.9,45.2c0,16.5,5,29.3,15,38.4c10,9.1,24.1,13.6,42.4,13.6
				c7.9,0,16-3.1,24.3-4.8c8.3-1.8,17.8-9.5,27-13l-10,60.1c-7.6,2.2-15.9,3.9-25,5.1c-9.1,1.2-19,1.7-29.6,1.7
				c-31.6,0-56.9-9-75.9-27c-19-18-28.5-42-28.5-71.8c0-14.4,2.4-20.9,7.3-33.9c4.9-13.1,12.1-24.9,21.6-35.6
				c11.1-12.5,25.7-26.3,42.3-32.9c16.6-6.6,34.5-12.8,55-12.8c11.7,0,23.1-0.2,34,2.2C733.9,118,745.3,119.4,755.8,124.3z"/>
			<path class="st0" d="M752.2,322.4l32.3-204.1h55.6l-32.3,204.1H752.2z"/>
			<path class="st0" d="M1073.1,322.4l27-158.1h-49.7l8.5-45.9h156.7l-8.5,45.9h-47.4l-27,158.1H1073.1z"/>
			<path class="st0" d="M1259.7,276.9h68.9l-7.8,45.4h-128.4l35.2-204.1h128.4l-8.1,47.1h-68.9l-5.6,33.3h63.9l-7.5,44.3h-64.2
				L1259.7,276.9z"/>
			<path class="st0" d="M1353.9,322.4l34-204.1h58.5l-34,204.1H1353.9z"/>
			<path class="st0" d="M1011,118.3h-69L819.5,322.4h65.9l23.9-38.5h77.9l8.2,38.5h64.1L1011,118.3z M926.4,248l40-69.3l14.6,69.3
				H926.4z"/>
			<path class="st0" d="M1678.4,276.9h68.9l-7.8,45.4h-128.4l35.2-204.1h128.4l-8.1,47.1h-68.9l-5.6,33.3h63.9l-7.5,44.3h-64.2
				L1678.4,276.9z"/>
			<path class="st0" d="M1482.7,322.4l27-158.1H1460l8.5-45.9h156.7l-8.5,45.9h-47.4l-27,158.1H1482.7z"/>
		</g>
		<g>
			<path class="st1" d="M683.4,368.2h-24.9v-15.3h68v15.3h-24.9v67.6h-18.2V368.2z"/>
			<path class="st1" d="M718.8,375.8h15.7v11.2h0.2c3-7.6,11.2-12.8,19.2-12.8c1.2,0,2.6,0.2,3.6,0.6v15.3c-1.5-0.3-4-0.6-5.9-0.6
				c-12.1,0-16.3,8.7-16.3,19.3v27.1h-16.5V375.8z"/>
			<path class="st1" d="M758.4,394.2c0.9-15.5,14.8-20.1,28.2-20.1c12,0,26.4,2.7,26.4,17.1v31.3c0,5.5,0.6,10.9,2.1,13.4h-16.7
				c-0.6-1.9-1-3.8-1.2-5.8c-5.2,5.5-12.9,7.4-20.2,7.4c-11.4,0-20.5-5.7-20.5-18c0-13.6,10.2-16.9,20.5-18.2
				c10.1-1.5,19.5-1.2,19.5-7.9c0-7.1-4.9-8.1-10.7-8.1c-6.3,0-10.3,2.6-10.9,9.1H758.4z M796.5,406.4c-2.8,2.4-8.6,2.6-13.7,3.5
				c-5.1,1-9.8,2.8-9.8,8.8c0,6.2,4.8,7.7,10.1,7.7c12.9,0,13.4-10.2,13.4-13.8V406.4z"/>
			<path class="st1" d="M820.9,375.8h15.7v8.4h0.3c4.2-6.7,11.4-10,18.4-10c17.6,0,22,9.9,22,24.8v37h-16.5v-33.9
				c0-9.9-2.9-14.8-10.6-14.8c-8.9,0-12.8,5-12.8,17.2v31.5h-16.5V375.8z"/>
			<path class="st1" d="M897.7,416.3c0.1,7.2,6.2,10.1,12.7,10.1c4.8,0,10.8-1.9,10.8-7.7c0-5-6.9-6.7-18.7-9.3
				c-9.5-2.1-19.1-5.5-19.1-16c0-15.3,13.3-19.3,26.2-19.3c13.1,0,25.2,4.4,26.5,19.2h-15.7c-0.5-6.4-5.3-8.1-11.3-8.1
				c-3.7,0-9.2,0.7-9.2,5.6c0,5.9,9.3,6.7,18.7,8.9c9.6,2.2,19.1,5.7,19.1,16.9c0,15.8-13.7,20.9-27.4,20.9
				c-13.9,0-27.5-5.2-28.2-21.2H897.7z"/>
			<path class="st1" d="M942.5,375.8h15.7v7.7h0.2c4-6.4,10.5-9.3,17.9-9.3c18.8,0,27.3,15.2,27.3,32.3c0,16-8.8,31-26.4,31
				c-7.2,0-14.1-3.1-18-9.1H959V457h-16.5V375.8z M987.1,406c0-9.5-3.8-19.4-14.4-19.4c-10.8,0-14.3,9.6-14.3,19.4
				s3.7,19.1,14.4,19.1C983.6,425,987.1,415.7,987.1,406z"/>
			<path class="st1" d="M1037.8,374.1c18.9,0,31.2,12.6,31.2,31.7c0,19.1-12.2,31.6-31.2,31.6c-18.8,0-31-12.6-31-31.6
				C1006.8,386.7,1019,374.1,1037.8,374.1z M1037.8,425c11.3,0,14.6-9.6,14.6-19.2c0-9.6-3.4-19.3-14.6-19.3
				c-11.2,0-14.5,9.6-14.5,19.3C1023.3,415.4,1026.6,425,1037.8,425z"/>
			<path class="st1" d="M1074.8,375.8h15.7v11.2h0.2c3-7.6,11.2-12.8,19.2-12.8c1.2,0,2.6,0.2,3.6,0.6v15.3c-1.5-0.3-4-0.6-5.9-0.6
				c-12.1,0-16.3,8.7-16.3,19.3v27.1h-16.5V375.8z"/>
			<path class="st1" d="M1136,375.8h12.1v11H1136v29.8c0,5.6,1.4,7,7,7c1.7,0,3.4-0.1,5.1-0.5V436c-2.8,0.5-6.4,0.6-9.6,0.6
				c-10.1,0-18.9-2.3-18.9-14.3v-35.5h-10v-11h10v-18h16.5V375.8z"/>
			<path class="st1" d="M1164.7,409.8c0.5,10.5,5.6,15.2,14.8,15.2c6.6,0,12-4.1,13-7.8h14.5c-4.6,14.2-14.5,20.2-28.1,20.2
				c-18.9,0-30.7-13-30.7-31.6c0-18,12.4-31.7,30.7-31.7c20.5,0,30.3,17.2,29.2,35.7H1164.7z M1191.6,399.4
				c-1.5-8.4-5.1-12.8-13.1-12.8c-10.5,0-13.5,8.1-13.7,12.8H1191.6z"/>
			<path class="st1" d="M1242.1,352.9h18.1l34.6,55.7h0.2v-55.7h17.1v83H1294l-34.5-55.6h-0.2v55.6h-17.1V352.9z"/>
			<path class="st1" d="M1320.9,394.2c0.9-15.5,14.8-20.1,28.2-20.1c12,0,26.4,2.7,26.4,17.1v31.3c0,5.5,0.6,10.9,2.1,13.4h-16.7
				c-0.6-1.9-1-3.8-1.2-5.8c-5.2,5.5-12.9,7.4-20.2,7.4c-11.4,0-20.5-5.7-20.5-18c0-13.6,10.2-16.9,20.5-18.2
				c10.1-1.5,19.5-1.2,19.5-7.9c0-7.1-4.9-8.1-10.7-8.1c-6.3,0-10.3,2.6-10.9,9.1H1320.9z M1359.1,406.4c-2.8,2.4-8.6,2.6-13.7,3.5
				c-5.1,1-9.8,2.8-9.8,8.8c0,6.2,4.8,7.7,10.1,7.7c12.9,0,13.4-10.2,13.4-13.8V406.4z"/>
			<path class="st1" d="M1424.4,396.9c-1-6.7-5.3-10.3-12.2-10.3c-10.6,0-14.1,10.7-14.1,19.5c0,8.6,3.4,18.9,13.7,18.9
				c7.7,0,12.1-4.9,13.1-12.2h15.9c-2.1,15.9-13.1,24.6-28.9,24.6c-18.1,0-30.3-12.8-30.3-30.8c0-18.7,11.2-32.5,30.7-32.5
				c14.2,0,27.2,7.4,28.2,22.8H1424.4z"/>
			<path class="st1" d="M1462.3,366.5h-16.5v-13.6h16.5V366.5z M1445.8,375.8h16.5v60.1h-16.5V375.8z"/>
			<path class="st1" d="M1499.6,374.1c18.9,0,31.2,12.6,31.2,31.7c0,19.1-12.2,31.6-31.2,31.6c-18.8,0-31-12.6-31-31.6
				C1468.5,386.7,1480.7,374.1,1499.6,374.1z M1499.6,425c11.3,0,14.6-9.6,14.6-19.2c0-9.6-3.4-19.3-14.6-19.3
				c-11.2,0-14.5,9.6-14.5,19.3C1485,415.4,1488.4,425,1499.6,425z"/>
			<path class="st1" d="M1536.5,375.8h15.7v8.4h0.3c4.2-6.7,11.4-10,18.4-10c17.6,0,22,9.9,22,24.8v37h-16.5v-33.9
				c0-9.9-2.9-14.8-10.6-14.8c-8.9,0-12.8,5-12.8,17.2v31.5h-16.5V375.8z"/>
			<path class="st1" d="M1599.9,394.2c0.9-15.5,14.8-20.1,28.2-20.1c12,0,26.4,2.7,26.4,17.1v31.3c0,5.5,0.6,10.9,2.1,13.4h-16.7
				c-0.6-1.9-1-3.8-1.2-5.8c-5.2,5.5-12.9,7.4-20.2,7.4c-11.4,0-20.5-5.7-20.5-18c0-13.6,10.2-16.9,20.5-18.2
				c10.1-1.5,19.5-1.2,19.5-7.9c0-7.1-4.9-8.1-10.7-8.1c-6.3,0-10.3,2.6-10.9,9.1H1599.9z M1638,406.4c-2.8,2.4-8.6,2.6-13.7,3.5
				c-5.1,1-9.8,2.8-9.8,8.8c0,6.2,4.8,7.7,10.1,7.7c12.9,0,13.4-10.2,13.4-13.8V406.4z"/>
			<path class="st1" d="M1662.9,352.9h16.5v83h-16.5V352.9z"/>
		</g>
		<g>
			<g>
				<radialGradient id="SVGID_1_" cx="245.5877" cy="187.0888" r="320.7883" gradientUnits="userSpaceOnUse">
					<stop  offset="0" style="stop-color:#58BBE7"/>
					<stop  offset="0.11" style="stop-color:#53BAE7"/>
					<stop  offset="0.232" style="stop-color:#46B6E5"/>
					<stop  offset="0.3592" style="stop-color:#30AFE3"/>
					<stop  offset="0.4441" style="stop-color:#1DA9E1"/>
					<stop  offset="0.4572" style="stop-color:#1CA5DC"/>
					<stop  offset="0.5685" style="stop-color:#1285B7"/>
					<stop  offset="0.6796" style="stop-color:#0A6B9A"/>
					<stop  offset="0.7893" style="stop-color:#045985"/>
					<stop  offset="0.8969" style="stop-color:#014F78"/>
					<stop  offset="1" style="stop-color:#004B74"/>
				</radialGradient>
				<ellipse class="st2" cx="248.4" cy="274.1" rx="214" ry="211"/>
				<ellipse class="st3" cx="248.8" cy="149.4" rx="105.7" ry="85.8"/>
			</g>
			<g>
				<path class="st4" d="M154.5,107.1l13.1,14.5c-0.1,0-0.2,0.1-0.2,0.1C31,198,35.5,280.3,44.4,313.5
					c9.4-46.4,36.2-82.5,99.5-126.8c19.3-13.5,33.2-22.4,44.4-28l4.5,26.4c8-11.2,17.5-23.2,28.6-35.1c7.3-7.8,15.2-15.4,23.9-22.9
					c10.9-9.3,22.9-18.1,36-26C233.9,96.2,154.5,107.1,154.5,107.1z"/>
				<path class="st4" d="M110.8,125.2l-12.7,4.6l0.2,6.3c-4,3.8-8,7.7-11.9,11.9c-31.8,34.1-47.4,70.5-42.5,86.2
					c5.2-18.1,19.4-42.6,41.2-66c4.6-4.9,9.2-9.5,13.9-13.8l0.4,9.8l24.7-29.7l16.8-20.2L110.8,125.2z"/>
			</g>
			<g>
				<g>
					<path class="st5" d="M404.6,262.1h-65v50.5c0.5,0,1.1,0,1.6,0c30.2,0,55.7-15.3,63.4-37.3c1.5-4.2,2.3-8.6,2.4-13.3H404.6z"/>
					<g>
						<path class="st5" d="M273.6,307c8.1,0,14.7,6.6,14.7,14.7v49.5h43.3V262.1H257V307H273.6z"/>
						<path class="st5" d="M209.7,321.7c0-8.1,6.6-14.7,14.7-14.7h15.8v-44.9H168v109.1h41.7V321.7z"/>
					</g>
					<path class="st5" d="M92.6,262.1h-2.4c0.1,4.6,0.9,9.1,2.4,13.3c7.7,22,33.1,37.3,63.4,37.3c0.5,0,1.1,0,1.6,0v-50.5H92.6z"/>
				</g>
				<path class="st5" d="M270.4,371.4h8.9l-10.5-10.9l0,0c0,0,0,0,0,0l5.1-5.3l-0.9-0.8l-3.8-3.6l-4.3,4.4l-0.8,0.8
					c-4-4-10.6-10.9-15.8-16.3l0-0.2c9.9-4.4,12.9-8.3,12.9-14.2c0-7.2-6-11.9-13.8-11.9c-10.4,0-15.8,7-15.8,13.8
					c0,4,3.5,8.1,6.8,11.7l0,0.2c-7.1,3.5-12.2,8.7-12.2,16.4c0,8.4,7,15.7,19.2,15.7c6.9,0,12.9-1.9,18.2-6.4
					c0.2,0.2,0.3,0.3,0.5,0.5l0,0l1.6,1.5c0.2,0.2,0.4,0.4,0.6,0.6L270.4,371.4z M247.7,318.5c5.1,0,8,3.8,8,7.2
					c0,4.7-4.9,6.9-11.2,10.2c-2.7-3-6.3-6.1-6.3-10.1C238.2,323.6,240.4,318.5,247.7,318.5z M246.7,366.6
					c-9.5,0-14.4-4.9-14.4-11.3c0-5.9,7.1-10.3,10.4-12.2c6.9,7.1,12.3,13.2,16,16.8C255.9,362.9,252.1,366.6,246.7,366.6z"/>
			</g>
		</g>
		<rect x="497" y="58.5" width="7.4" height="421.3"/>
	</g>
</g>
</svg>
