<?xml version="1.0" encoding="utf-8"?>
<!-- Generator: Adobe Illustrator 24.0.2, SVG Export Plug-In . SVG Version: 6.00 Build 0)  -->
<svg version="1.1" id="Capa_1" xmlns="http://www.w3.org/2000/svg" xmlns:xlink="http://www.w3.org/1999/xlink" x="0px" y="0px"
	 viewBox="0 0 1920 363.7" style="enable-background:new 0 0 1920 363.7;" xml:space="preserve">
<style type="text/css">
	.st0{stroke:#000000;stroke-width:5;stroke-miterlimit:10;}
</style>
<g>
	<path class="st0" d="M246.8,89.7c11.2,4.6,20.8,11.1,28.8,19.5c8,8.4,14.3,18.5,18.8,30.3c4.5,11.7,6.7,24.7,6.7,38.8
		c0,15.1-2.2,28.9-6.5,41.2c-4.4,12.3-10.5,22.8-18.5,31.6c-8,8.7-17.6,15.5-28.8,20.2c-11.3,4.8-23.7,7.1-37.2,7.1h-85.8v-4.7h25.6
		V87.6h-25.6v-4.7H210C223.4,82.9,235.7,85.2,246.8,89.7z M264.3,131.5c-3.2-10.7-7.6-19.3-13.1-25.8c-5.5-6.5-11.9-11.2-19.1-14
		c-7.2-2.8-14.7-4.2-22.7-4.2H178v186.2h31.4c8.1,0,15.8-1.4,23-4.1c7.2-2.7,13.5-7.4,18.9-14.1c5.4-6.7,9.7-15.7,12.9-27.1
		c3.2-11.3,4.8-25.7,4.8-42.9v-14.5C269.1,155.4,267.5,142.2,264.3,131.5z"/>
	<path class="st0" d="M317.7,273.8l63.7-193.5h3.5l63.7,193.5h25.3v4.7h-85.3v-4.7h30l-18.9-56.2h-58.5l-18.3,56.2h34.3v4.7h-64.6
		v-4.7H317.7z M343,213h55.3l-27.9-83.2L343,213z"/>
	<path class="st0" d="M583.6,273.8v4.7h-78.3v-4.7h25V87.6h-25c-8.9,0-16.7,4.6-23.4,13.7c-6.7,9.1-11.1,21.5-13.2,37.2h-6.1
		l4.4-50.6c0.2-3.3,2.1-4.9,5.8-4.9h143.5c3.7,0,5.6,1.7,5.8,4.9l4.4,50.6h-6.1c-2.1-15.7-6.5-28.1-13.2-37.2
		c-6.7-9.1-14.5-13.7-23.4-13.7h-25v186.2H583.6z"/>
	<path class="st0" d="M700.5,275.4c-11-5.7-20.5-13.3-28.7-22.8c-8.1-9.5-14.6-20.4-19.4-32.7c-4.8-12.3-7.1-25.1-7.1-38.3
		c0-13.2,2.4-25.9,7.1-38.3c4.8-12.3,11.2-23.2,19.4-32.6c8.1-9.4,17.7-16.9,28.7-22.6c11-5.6,22.6-8.4,35.1-8.4
		c12.4,0,24.1,2.8,35.1,8.4c11,5.6,20.5,13.1,28.7,22.6c8.1,9.4,14.6,20.3,19.4,32.6c4.8,12.3,7.1,25.1,7.1,38.3
		c0,13.2-2.4,25.9-7.1,38.3c-4.8,12.3-11.2,23.2-19.4,32.7c-8.1,9.5-17.7,17.1-28.7,22.8c-11,5.7-22.7,8.6-35.1,8.6
		C723.1,284,711.4,281.1,700.5,275.4z M712.3,89.3c-6.8,2.9-12.5,7.6-17,14.1c-4.6,6.5-8.1,14.9-10.5,25.3
		c-2.4,10.4-3.6,23.1-3.6,38.3v29.1c0,28.1,4.7,48.9,14,62.4c9.3,13.5,22.8,20.2,40.4,20.2c17.7,0,31.1-6.7,40.4-20.2
		c9.3-13.5,14-34.3,14-62.4V167c0-15.5-1.2-28.5-3.6-39c-2.4-10.5-5.9-18.9-10.5-25.3c-4.6-6.4-10.2-11-17-13.7
		c-6.8-2.7-14.5-4.1-23.3-4.1S719,86.4,712.3,89.3z"/>
	<path class="st0" d="M1000.1,273.2c4.8,0,9.2-1.4,13.1-4.1c0.8-0.4,1.4-0.6,1.7-0.6c0.6,0,0.9,0.3,0.9,0.9c0,0.6-0.3,1.2-0.9,1.7
		c-1,1-2.5,2-4.5,3.1c-2,1.1-4.5,2.1-7.3,3.1c-2.8,1-5.9,1.8-9.2,2.5c-3.3,0.7-6.6,1-9.9,1c-3.9,0-7.5-0.5-10.9-1.5
		c-3.4-1-6.4-2.8-8.9-5.5c-2.7-2.9-4.7-6.4-6-10.5c-1.3-4.1-2.1-8.5-2.6-13.4c-0.5-4.8-0.8-9.9-0.9-15.1c-0.1-5.2-0.4-10.4-1-15.4
		c-1-8.3-2.6-15.2-4.8-20.5c-2.2-5.3-4.9-9.5-7.9-12.5c-3-3-6.3-5-9.7-6.1c-3.5-1.1-6.8-1.6-9.9-1.6h-24.2v95.2h25v4.7h-78.3v-4.7
		h25V87.6h-25v-4.7h82.1c8.3,0,16.2,1.1,23.7,3.2c7.5,2.1,13.9,5.2,19.4,9.3c5.4,4.1,9.7,9.1,12.9,15.1c3.2,6,4.8,12.8,4.8,20.4
		c0,12.2-4.1,22.4-12.2,30.4c-8.1,8.1-19.8,13.4-34.9,16.2c5.8,1.6,11.2,3.3,16.3,5.1c5,1.8,9.5,4.4,13.4,7.6
		c3.9,3.2,7.2,7.3,9.9,12.4c2.7,5,4.7,11.4,5.8,19.2c0.6,3.9,0.9,8,1,12.2c0.1,4.3,0.2,8.4,0.3,12.5c0.1,4.1,0.3,7.9,0.6,11.3
		c0.3,3.5,0.7,6.2,1.3,8.1C990.2,270.8,994,273.2,1000.1,273.2z M926.1,174c22.1,0,33.2-12.6,33.2-37.8v-10.5
		c0-25.4-11.1-38.1-33.2-38.1h-28.8V174H926.1z"/>
	<path d="M1163.5,248.5v29.9c0,0.7-0.3,1.1-0.9,1.1c-0.4,0-0.9-0.3-1.4-0.8l-8.2-9c-3.5,3.9-7.5,6.8-11.9,8.8
		c-4.4,1.9-9.1,2.9-14,2.9c-5.8,0-11.5-1.4-17-4.3c-5.6-2.9-10.6-6.8-15-11.8c-4.4-5-8-10.8-10.8-17.4c-2.7-6.7-4.1-13.8-4.1-21.5
		c0-6.6,1.2-13.1,3.6-19.6c2.4-6.5,5.7-12.2,10-17.3c4.3-5.1,9.4-9.1,15.2-12.2c5.8-3.1,12.2-4.7,19-4.7c4.6,0,9,0.7,13.2,2.1
		c4.1,1.4,7.9,3.4,11.2,6.1l6-6.2c0.8-0.8,1.5-1.2,2-1.2c0.4,0,0.7,0.2,0.9,0.5c0.2,0.3,0.3,0.9,0.3,1.9V201c0,1.2-0.3,1.9-0.8,1.9
		c-0.4,0-0.8-0.5-1.1-1.6c-1.2-3.7-2.8-7.2-4.8-10.4c-2-3.2-4.3-5.9-7-8.2c-2.7-2.3-5.7-4.1-9-5.3c-3.3-1.3-7-1.9-11-1.9
		c-9.7,0-16.9,3.7-21.5,11.1c-4.7,7.4-7,17.9-7,31.5v17.4c0,14.2,2.3,24.9,6.8,32.2c4.5,7.3,11.5,11,20.9,11c4.1,0,7.9-0.7,11.3-2.2
		c3.4-1.5,6.5-3.6,9.3-6.3c2.8-2.7,5.3-5.9,7.4-9.5c2.2-3.7,4.2-7.6,6-11.9c0.5-1.1,1-1.7,1.5-1.7
		C1163.2,247,1163.5,247.5,1163.5,248.5z"/>
	<path d="M1204.2,176.8V276h13.3v2.5h-41.7V276h13.3v-99.2h-13.3v-2.5h41.7v2.5H1204.2z"/>
	<path d="M1241,276l33.9-103.1h1.9l33.9,103.1h13.5v2.5h-45.4V276h16l-10.1-29.9h-31.2l-9.8,29.9h18.3v2.5h-34.4V276H1241z
		 M1254.4,243.6h29.5l-14.9-44.3L1254.4,243.6z"/>
	<path d="M1349.5,276.7c-1.6,1.6-3.6,2.4-6,2.4c-2.4,0-4.4-0.8-6-2.4c-1.6-1.6-2.4-3.6-2.4-6c0-2.4,0.8-4.4,2.4-6
		c1.6-1.6,3.6-2.4,6-2.4c2.4,0,4.4,0.8,6,2.4c1.6,1.6,2.4,3.6,2.4,6C1351.9,273.1,1351.1,275.1,1349.5,276.7z"/>
	<path d="M1489.4,246.5c0.8,0,1.2,1.2,1.2,3.7v23.3c0,3.3-1.5,5-4.5,5h-79.8V276h13.3v-99.2h-13.3v-2.5h43.1v2.5h-14.7V276h31.8
		c3.6,0,6.6-0.6,9-1.9c2.4-1.2,4.3-3,5.9-5.3s2.8-5.1,3.7-8.3c0.9-3.2,1.8-6.8,2.6-10.7C1488.1,247.6,1488.7,246.5,1489.4,246.5z"/>
	<path d="M1550.2,276v2.5h-41.7V276h13.3v-99.2h-13.3c-4.8,0-8.9,2.4-12.5,7.3c-3.6,4.9-5.9,11.5-7.1,19.8h-3.3l2.3-27
		c0.1-1.8,1.1-2.6,3.1-2.6h76.4c2,0,3,0.9,3.1,2.6l2.3,27h-3.3c-1.1-8.4-3.5-15-7.1-19.8c-3.6-4.9-7.7-7.3-12.5-7.3h-13.3V276
		H1550.2z"/>
	<path d="M1647.1,177.9c5.9,2.4,11.1,5.9,15.3,10.4c4.3,4.5,7.6,9.9,10,16.1c2.4,6.3,3.6,13.2,3.6,20.7c0,8.1-1.2,15.4-3.5,21.9
		c-2.3,6.6-5.6,12.2-9.8,16.8c-4.2,4.7-9.4,8.2-15.3,10.8c-6,2.5-12.6,3.8-19.8,3.8h-45.7V276h13.6v-99.2h-13.6v-2.5h45.7
		C1634.6,174.3,1641.2,175.5,1647.1,177.9z M1656.4,200.2c-1.7-5.7-4-10.3-7-13.7c-2.9-3.5-6.3-5.9-10.2-7.4
		c-3.8-1.5-7.9-2.2-12.1-2.2h-16.7V276h16.7c4.3,0,8.4-0.7,12.2-2.2c3.8-1.4,7.2-4,10.1-7.5c2.9-3.6,5.2-8.4,6.9-14.4
		c1.7-6,2.6-13.7,2.6-22.9v-7.8C1659,212.9,1658.1,205.9,1656.4,200.2z"/>
	<path d="M1684.9,276l33.9-103.1h1.9l33.9,103.1h13.5v2.5h-45.4V276h16l-10.1-29.9h-31.2l-9.8,29.9h18.3v2.5h-34.4V276H1684.9z
		 M1698.4,243.6h29.5l-14.9-44.3L1698.4,243.6z"/>
	<path d="M1793.4,276.7c-1.6,1.6-3.6,2.4-6,2.4c-2.4,0-4.4-0.8-6-2.4c-1.6-1.6-2.4-3.6-2.4-6c0-2.4,0.8-4.4,2.4-6
		c1.6-1.6,3.6-2.4,6-2.4c2.4,0,4.4,0.8,6,2.4c1.6,1.6,2.4,3.6,2.4,6C1795.8,273.1,1795,275.1,1793.4,276.7z"/>
</g>
</svg>
