<?xml version="1.0" encoding="utf-8"?>
<!-- Generator: Adobe Illustrator 24.0.2, SVG Export Plug-In . SVG Version: 6.00 Build 0)  -->
<svg version="1.1" id="Capa_2" xmlns="http://www.w3.org/2000/svg" xmlns:xlink="http://www.w3.org/1999/xlink" x="0px" y="0px"
	 viewBox="0 0 1800 1800" style="enable-background:new 0 0 1800 1800;" xml:space="preserve">
<style type="text/css">
	.st0{fill:#1D57B9;}
</style>
<g>
	<g>
		<path class="st0" d="M1462.3,690.8c0,158.6-64.3,302.1-168.2,406c-103.9,103.9-247.4,168.2-406,168.2H543L698,1043.8h189
			c96,0,182.9-38.9,245.9-101.8c62.9-63,101.8-149.9,101.8-245.9c0-192-155.7-347.7-347.7-347.7H768.4l62.1-231.8H888
			C1205.2,116.6,1462.3,373.7,1462.3,690.8z"/>
		<g>
			<g>
				<path class="st0" d="M719.9,595.8c-6,1.4-15.8,3.7-21.8,5l-41.8,9.6c-6,1.4-9.6-2.4-8-8.3l126.9-474.7c1.6-6,0.4-6.4-2.6-1
					l-395.2,706c-3,5.4-0.6,8.6,5.4,7.2l207.1-49.4c6-1.4,15.8-3.7,21.8-5.1l30.5-7c6-1.4,9.4,2.3,7.5,8.1l-151.1,468.3
					c-1.9,5.9-0.7,6.4,2.7,1.3l166.4-256.2c3.4-5.2,8.8-13.6,12.2-18.8l148.9-229.2c3.4-5.2,8.8-13.6,12.2-18.8l119.8-184.5
					c3.4-5.2,1.2-8.3-4.8-6.9L719.9,595.8z M433.8,802c-6,1.3-8.5-2-5.5-7.4l270.3-485.1c3-5.4,3.2-5.3,0.3,0.2L463.2,768.8
					c-2.8,5.5-0.1,9.4,6,8.7l150.2-17.3c6.1-0.7,6.2-0.2,0.2,1.1L433.8,802z M638.9,1019.3c-3.2,5.3-3.4,5.2-0.4-0.2l239-427.7
					c3-5.4,0.5-8.9-5.6-7.8L715.2,612c-6.1,1.1-6.1,0.7-0.2-0.8l194.4-50.9c6-1.6,8.2,1.5,5,6.7L638.9,1019.3z"/>
			</g>
		</g>
	</g>
	<g>
		<g>
			<g>
				<path class="st0" d="M279.2,1654.7c0,4.9-0.6,9.2-1.9,12.7c-1.3,3.5-3.1,6.4-5.6,8.6c-2.4,2.2-5.4,3.9-8.8,4.9
					s-7.6,1.6-12.3,1.6h-12.9c-0.9,0-1.7-0.3-2.3-0.8c-0.6-0.5-0.9-1.4-0.9-2.6v-47c0-1.2,0.3-2.1,0.9-2.6c0.6-0.5,1.4-0.8,2.3-0.8
					h13.8c4.8,0,8.9,0.6,12.2,1.7c3.3,1.1,6.2,2.8,8.5,5s4,4.9,5.2,8.2C278.6,1646.7,279.2,1650.4,279.2,1654.7z M267.8,1655.1
					c0-2.6-0.3-4.9-0.9-7.1c-0.6-2.2-1.6-4.1-2.9-5.7c-1.3-1.6-3-2.9-5.1-3.8c-2.1-0.9-4.8-1.4-8.1-1.4h-5.5v36.7h5.7
					c3,0,5.5-0.4,7.6-1.2c2.1-0.8,3.8-2,5.1-3.5c1.4-1.6,2.4-3.5,3.1-5.9C267.5,1660.9,267.8,1658.2,267.8,1655.1z"/>
				<path class="st0" d="M317.8,1678.2c0,0.8,0,1.5-0.1,2c-0.1,0.5-0.2,1-0.3,1.3c-0.1,0.3-0.3,0.6-0.5,0.7
					c-0.2,0.2-0.4,0.2-0.7,0.2h-27.1c-0.9,0-1.7-0.3-2.3-0.8c-0.6-0.5-0.9-1.4-0.9-2.6v-47c0-1.2,0.3-2.1,0.9-2.6
					c0.6-0.5,1.4-0.8,2.3-0.8H316c0.2,0,0.5,0.1,0.7,0.2c0.2,0.1,0.4,0.4,0.5,0.7c0.1,0.3,0.2,0.8,0.3,1.3c0.1,0.5,0.1,1.2,0.1,2.1
					c0,0.8,0,1.4-0.1,2c-0.1,0.5-0.2,1-0.3,1.3c-0.1,0.3-0.3,0.6-0.5,0.7c-0.2,0.2-0.4,0.2-0.7,0.2h-19.2v13.2H313
					c0.2,0,0.5,0.1,0.7,0.2c0.2,0.2,0.4,0.4,0.5,0.7c0.1,0.3,0.2,0.7,0.3,1.3c0.1,0.5,0.1,1.2,0.1,2c0,0.8,0,1.5-0.1,2
					c-0.1,0.5-0.2,1-0.3,1.3c-0.1,0.3-0.3,0.5-0.5,0.7c-0.2,0.1-0.4,0.2-0.7,0.2h-16.3v15.2h19.4c0.2,0,0.5,0.1,0.7,0.2
					c0.2,0.2,0.4,0.4,0.5,0.7c0.1,0.3,0.2,0.8,0.3,1.3C317.7,1676.7,317.8,1677.4,317.8,1678.2z"/>
				<path class="st0" d="M359.3,1666.3c0,2.8-0.5,5.3-1.6,7.5c-1.1,2.1-2.5,3.9-4.3,5.4c-1.8,1.4-3.9,2.5-6.3,3.2
					c-2.4,0.7-5,1.1-7.7,1.1c-1.9,0-3.6-0.2-5.2-0.5c-1.6-0.3-3-0.7-4.2-1.1c-1.2-0.4-2.2-0.9-3.1-1.4c-0.8-0.5-1.4-0.9-1.8-1.2
					c-0.4-0.4-0.6-0.9-0.8-1.6c-0.2-0.7-0.2-1.7-0.2-2.9c0-0.9,0-1.6,0.1-2.2c0.1-0.6,0.1-1.1,0.3-1.4c0.1-0.4,0.3-0.6,0.5-0.8
					c0.2-0.2,0.5-0.2,0.7-0.2c0.4,0,0.9,0.2,1.6,0.7c0.7,0.5,1.6,1,2.7,1.5c1.1,0.6,2.4,1.1,4,1.5c1.5,0.5,3.3,0.7,5.4,0.7
					c1.3,0,2.5-0.2,3.6-0.5c1.1-0.3,2-0.8,2.7-1.4c0.7-0.6,1.3-1.3,1.7-2.2c0.4-0.9,0.6-1.8,0.6-2.9c0-1.2-0.3-2.3-1-3.1
					s-1.5-1.7-2.6-2.3c-1.1-0.7-2.3-1.3-3.6-1.9c-1.4-0.6-2.8-1.2-4.2-1.9c-1.4-0.7-2.8-1.4-4.2-2.3c-1.4-0.8-2.6-1.9-3.6-3
					c-1.1-1.2-1.9-2.6-2.6-4.2c-0.7-1.6-1-3.5-1-5.8c0-2.6,0.5-4.9,1.4-6.8c1-2,2.2-3.6,3.9-4.9c1.6-1.3,3.5-2.3,5.7-2.9
					c2.2-0.6,4.5-1,7-1c1.3,0,2.6,0.1,3.8,0.3c1.3,0.2,2.5,0.5,3.6,0.8c1.1,0.3,2.1,0.7,3,1.1c0.9,0.4,1.4,0.8,1.7,1
					c0.3,0.3,0.5,0.5,0.6,0.7c0.1,0.2,0.2,0.5,0.2,0.8c0.1,0.3,0.1,0.7,0.1,1.2c0,0.5,0,1.1,0,1.8c0,0.8,0,1.5-0.1,2
					c0,0.6-0.1,1-0.2,1.4c-0.1,0.4-0.2,0.6-0.4,0.8c-0.2,0.2-0.4,0.2-0.7,0.2c-0.3,0-0.8-0.2-1.5-0.6c-0.7-0.4-1.5-0.8-2.5-1.3
					c-1-0.5-2.1-0.9-3.4-1.2c-1.3-0.4-2.7-0.6-4.2-0.6c-1.2,0-2.2,0.1-3.1,0.4c-0.9,0.3-1.6,0.7-2.2,1.2c-0.6,0.5-1,1.1-1.3,1.9
					c-0.3,0.7-0.4,1.5-0.4,2.3c0,1.2,0.3,2.2,1,3.1c0.7,0.9,1.5,1.7,2.6,2.3c1.1,0.7,2.3,1.3,3.7,1.9c1.4,0.6,2.8,1.2,4.2,1.9
					c1.4,0.7,2.9,1.4,4.2,2.3c1.4,0.8,2.6,1.9,3.7,3c1.1,1.2,2,2.6,2.6,4.2C359,1662.2,359.3,1664.1,359.3,1666.3z"/>
				<path class="st0" d="M406.9,1678.4c0.3,1,0.5,1.8,0.6,2.4c0.1,0.6,0,1-0.3,1.3c-0.3,0.3-0.8,0.5-1.6,0.5
					c-0.8,0.1-1.8,0.1-3.2,0.1c-1.4,0-2.5,0-3.3-0.1c-0.8,0-1.4-0.1-1.8-0.3c-0.4-0.1-0.7-0.3-0.9-0.5c-0.2-0.2-0.3-0.5-0.4-0.9
					l-3.6-10.8h-20.2l-3.4,10.5c-0.1,0.4-0.3,0.7-0.4,1c-0.2,0.3-0.5,0.5-0.9,0.6c-0.4,0.2-1,0.3-1.7,0.3c-0.7,0.1-1.7,0.1-2.9,0.1
					c-1.3,0-2.3,0-3-0.1c-0.7-0.1-1.2-0.3-1.5-0.6c-0.3-0.3-0.4-0.8-0.3-1.4s0.3-1.4,0.6-2.3l16.6-47.8c0.2-0.5,0.4-0.9,0.6-1.1
					c0.2-0.3,0.6-0.5,1.1-0.7c0.5-0.2,1.2-0.2,2-0.3c0.9,0,2-0.1,3.4-0.1c1.6,0,2.9,0,3.9,0.1c1,0,1.7,0.1,2.3,0.3
					c0.5,0.2,0.9,0.4,1.2,0.7c0.2,0.3,0.4,0.7,0.6,1.2L406.9,1678.4z M382.1,1638.8L382.1,1638.8l-7.7,22.9h15.3L382.1,1638.8z"/>
				<path class="st0" d="M449,1681c0,0.3-0.1,0.6-0.2,0.8c-0.1,0.2-0.4,0.4-0.8,0.5c-0.4,0.1-1,0.2-1.8,0.3
					c-0.8,0.1-1.9,0.1-3.3,0.1c-1.2,0-2.1,0-2.8-0.1c-0.7-0.1-1.2-0.2-1.6-0.3c-0.4-0.2-0.7-0.3-0.9-0.6c-0.2-0.2-0.3-0.5-0.4-0.9
					l-4.8-12c-0.6-1.4-1.2-2.6-1.7-3.6c-0.6-1.1-1.2-1.9-1.9-2.6c-0.7-0.7-1.5-1.2-2.4-1.6c-0.9-0.4-1.9-0.5-3.1-0.5h-3.4v20.5
					c0,0.3-0.1,0.5-0.3,0.7c-0.2,0.2-0.5,0.4-0.9,0.5c-0.4,0.1-1,0.2-1.7,0.3c-0.7,0.1-1.6,0.1-2.7,0.1c-1.1,0-1.9,0-2.6-0.1
					c-0.7-0.1-1.3-0.2-1.7-0.3c-0.4-0.1-0.7-0.3-0.9-0.5c-0.2-0.2-0.2-0.5-0.2-0.7V1632c0-1.2,0.3-2.1,0.9-2.6
					c0.6-0.5,1.4-0.8,2.3-0.8h14c1.4,0,2.6,0,3.5,0.1c0.9,0.1,1.7,0.1,2.5,0.2c2.2,0.3,4.1,0.8,5.9,1.6c1.7,0.7,3.2,1.7,4.4,2.9
					c1.2,1.2,2.1,2.6,2.8,4.3c0.6,1.7,1,3.5,1,5.7c0,1.8-0.2,3.5-0.7,4.9c-0.5,1.5-1.1,2.8-2,4c-0.9,1.2-2,2.2-3.3,3
					c-1.3,0.9-2.8,1.6-4.5,2.1c0.8,0.4,1.6,0.9,2.3,1.4c0.7,0.6,1.4,1.2,2,2c0.6,0.8,1.2,1.7,1.8,2.7c0.6,1,1.1,2.2,1.6,3.4
					l4.5,10.6c0.4,1.1,0.7,1.8,0.8,2.3C448.9,1680.4,449,1680.8,449,1681z M434.9,1644.5c0-1.8-0.4-3.3-1.2-4.5
					c-0.8-1.2-2.1-2.1-4-2.6c-0.6-0.1-1.2-0.2-1.9-0.3c-0.7-0.1-1.7-0.1-2.9-0.1h-4.9v15.3h5.6c1.6,0,2.9-0.2,4.1-0.6
					s2.1-0.9,2.9-1.6c0.8-0.7,1.4-1.5,1.7-2.4C434.7,1646.7,434.9,1645.6,434.9,1644.5z"/>
				<path class="st0" d="M491.6,1681c0,0.3-0.1,0.6-0.2,0.8c-0.1,0.2-0.4,0.4-0.8,0.5c-0.4,0.1-1,0.2-1.8,0.3
					c-0.8,0.1-1.9,0.1-3.3,0.1c-1.2,0-2.1,0-2.8-0.1c-0.7-0.1-1.2-0.2-1.6-0.3c-0.4-0.2-0.7-0.3-0.9-0.6c-0.2-0.2-0.3-0.5-0.4-0.9
					l-4.8-12c-0.6-1.4-1.2-2.6-1.7-3.6c-0.6-1.1-1.2-1.9-1.9-2.6c-0.7-0.7-1.5-1.2-2.4-1.6c-0.9-0.4-1.9-0.5-3.1-0.5h-3.4v20.5
					c0,0.3-0.1,0.5-0.3,0.7c-0.2,0.2-0.5,0.4-0.9,0.5c-0.4,0.1-1,0.2-1.7,0.3c-0.7,0.1-1.6,0.1-2.7,0.1c-1.1,0-1.9,0-2.6-0.1
					c-0.7-0.1-1.3-0.2-1.7-0.3c-0.4-0.1-0.7-0.3-0.9-0.5c-0.2-0.2-0.2-0.5-0.2-0.7V1632c0-1.2,0.3-2.1,0.9-2.6
					c0.6-0.5,1.4-0.8,2.3-0.8h14c1.4,0,2.6,0,3.5,0.1c0.9,0.1,1.7,0.1,2.5,0.2c2.2,0.3,4.1,0.8,5.9,1.6c1.7,0.7,3.2,1.7,4.4,2.9
					c1.2,1.2,2.1,2.6,2.8,4.3c0.6,1.7,1,3.5,1,5.7c0,1.8-0.2,3.5-0.7,4.9c-0.5,1.5-1.1,2.8-2,4c-0.9,1.2-2,2.2-3.3,3
					c-1.3,0.9-2.8,1.6-4.5,2.1c0.8,0.4,1.6,0.9,2.3,1.4c0.7,0.6,1.4,1.2,2,2c0.6,0.8,1.2,1.7,1.8,2.7c0.6,1,1.1,2.2,1.6,3.4
					l4.5,10.6c0.4,1.1,0.7,1.8,0.8,2.3C491.5,1680.4,491.6,1680.8,491.6,1681z M477.4,1644.5c0-1.8-0.4-3.3-1.2-4.5
					c-0.8-1.2-2.1-2.1-4-2.6c-0.6-0.1-1.2-0.2-1.9-0.3c-0.7-0.1-1.7-0.1-2.9-0.1h-4.9v15.3h5.6c1.6,0,2.9-0.2,4.1-0.6
					s2.1-0.9,2.9-1.6c0.8-0.7,1.4-1.5,1.7-2.4C477.2,1646.7,477.4,1645.6,477.4,1644.5z"/>
				<path class="st0" d="M541.8,1654.9c0,4.5-0.6,8.5-1.7,12c-1.1,3.5-2.8,6.5-5,9c-2.2,2.5-4.9,4.3-8.1,5.6
					c-3.2,1.3-7,1.9-11.2,1.9c-4.2,0-7.9-0.5-11-1.6c-3.1-1.1-5.7-2.8-7.8-5c-2.1-2.2-3.6-5.1-4.7-8.6c-1-3.5-1.6-7.6-1.6-12.3
					c0-4.4,0.6-8.3,1.7-11.8c1.1-3.5,2.8-6.4,5-8.9c2.2-2.4,4.9-4.3,8.1-5.6c3.2-1.3,7-2,11.3-2c4.1,0,7.7,0.5,10.8,1.6
					c3.1,1.1,5.7,2.7,7.8,5c2.1,2.2,3.7,5.1,4.7,8.5C541.3,1646.2,541.8,1650.2,541.8,1654.9z M530.3,1655.5c0-2.8-0.2-5.4-0.7-7.7
					c-0.4-2.3-1.2-4.3-2.3-6c-1.1-1.7-2.5-2.9-4.3-3.8c-1.8-0.9-4-1.4-6.7-1.4c-2.7,0-4.9,0.5-6.7,1.5c-1.8,1-3.3,2.4-4.4,4.1
					c-1.1,1.7-1.9,3.7-2.4,5.9c-0.5,2.3-0.7,4.7-0.7,7.2c0,2.9,0.2,5.6,0.7,7.9c0.4,2.3,1.2,4.4,2.2,6c1.1,1.7,2.5,2.9,4.2,3.8
					c1.8,0.9,4,1.3,6.7,1.3c2.7,0,4.9-0.5,6.7-1.5c1.8-1,3.3-2.4,4.4-4.1c1.1-1.7,1.9-3.7,2.4-6
					C530.1,1660.5,530.3,1658,530.3,1655.5z"/>
				<path class="st0" d="M578.3,1677.9c0,0.8,0,1.5-0.1,2.1c-0.1,0.6-0.2,1-0.3,1.4c-0.1,0.4-0.3,0.6-0.5,0.8s-0.5,0.2-0.7,0.2
					h-24.7c-0.9,0-1.7-0.3-2.3-0.8c-0.6-0.5-0.9-1.4-0.9-2.6v-48.9c0-0.3,0.1-0.5,0.3-0.7c0.2-0.2,0.5-0.4,0.9-0.5
					c0.4-0.1,1-0.2,1.7-0.3c0.7-0.1,1.6-0.1,2.6-0.1c1.1,0,2,0,2.7,0.1c0.7,0.1,1.2,0.2,1.7,0.3c0.4,0.1,0.7,0.3,0.9,0.5
					c0.2,0.2,0.3,0.5,0.3,0.7v43.4h17c0.3,0,0.5,0.1,0.7,0.2c0.2,0.2,0.4,0.4,0.5,0.7c0.1,0.3,0.2,0.8,0.3,1.4
					C578.3,1676.3,578.3,1677,578.3,1677.9z"/>
				<path class="st0" d="M616.7,1677.9c0,0.8,0,1.5-0.1,2.1c-0.1,0.6-0.2,1-0.3,1.4c-0.1,0.4-0.3,0.6-0.5,0.8
					c-0.2,0.2-0.5,0.2-0.7,0.2h-24.7c-0.9,0-1.7-0.3-2.3-0.8c-0.6-0.5-0.9-1.4-0.9-2.6v-48.9c0-0.3,0.1-0.5,0.3-0.7
					c0.2-0.2,0.5-0.4,0.9-0.5c0.4-0.1,1-0.2,1.7-0.3c0.7-0.1,1.6-0.1,2.6-0.1c1.1,0,2,0,2.7,0.1c0.7,0.1,1.2,0.2,1.7,0.3
					c0.4,0.1,0.7,0.3,0.9,0.5c0.2,0.2,0.3,0.5,0.3,0.7v43.4h17c0.3,0,0.5,0.1,0.7,0.2c0.2,0.2,0.4,0.4,0.5,0.7
					c0.1,0.3,0.2,0.8,0.3,1.4C616.6,1676.3,616.7,1677,616.7,1677.9z"/>
				<path class="st0" d="M664.7,1654.9c0,4.5-0.6,8.5-1.7,12c-1.1,3.5-2.8,6.5-5,9c-2.2,2.5-4.9,4.3-8.1,5.6
					c-3.2,1.3-7,1.9-11.2,1.9c-4.2,0-7.9-0.5-11-1.6c-3.1-1.1-5.7-2.8-7.8-5c-2.1-2.2-3.6-5.1-4.7-8.6c-1-3.5-1.6-7.6-1.6-12.3
					c0-4.4,0.6-8.3,1.7-11.8c1.1-3.5,2.8-6.4,5-8.9c2.2-2.4,4.9-4.3,8.1-5.6c3.2-1.3,7-2,11.3-2c4.1,0,7.7,0.5,10.8,1.6
					c3.1,1.1,5.7,2.7,7.8,5c2.1,2.2,3.7,5.1,4.7,8.5C664.1,1646.2,664.7,1650.2,664.7,1654.9z M653.2,1655.5c0-2.8-0.2-5.4-0.7-7.7
					c-0.4-2.3-1.2-4.3-2.3-6c-1.1-1.7-2.5-2.9-4.3-3.8c-1.8-0.9-4-1.4-6.7-1.4c-2.7,0-4.9,0.5-6.7,1.5c-1.8,1-3.3,2.4-4.4,4.1
					c-1.1,1.7-1.9,3.7-2.4,5.9c-0.5,2.3-0.7,4.7-0.7,7.2c0,2.9,0.2,5.6,0.7,7.9c0.4,2.3,1.2,4.4,2.2,6c1.1,1.7,2.5,2.9,4.2,3.8
					c1.8,0.9,4,1.3,6.7,1.3c2.7,0,4.9-0.5,6.7-1.5c1.8-1,3.3-2.4,4.4-4.1c1.1-1.7,1.9-3.7,2.4-6
					C652.9,1660.5,653.2,1658,653.2,1655.5z"/>
				<path class="st0" d="M700.4,1666.3c0,2.8-0.5,5.3-1.6,7.5c-1.1,2.1-2.5,3.9-4.3,5.4c-1.8,1.4-3.9,2.5-6.3,3.2
					c-2.4,0.7-5,1.1-7.7,1.1c-1.9,0-3.6-0.2-5.2-0.5c-1.6-0.3-3-0.7-4.2-1.1c-1.2-0.4-2.2-0.9-3.1-1.4c-0.8-0.5-1.4-0.9-1.8-1.2
					c-0.4-0.4-0.6-0.9-0.8-1.6c-0.2-0.7-0.2-1.7-0.2-2.9c0-0.9,0-1.6,0.1-2.2c0.1-0.6,0.1-1.1,0.3-1.4c0.1-0.4,0.3-0.6,0.5-0.8
					c0.2-0.2,0.5-0.2,0.7-0.2c0.4,0,0.9,0.2,1.6,0.7c0.7,0.5,1.6,1,2.7,1.5c1.1,0.6,2.4,1.1,4,1.5c1.5,0.5,3.3,0.7,5.4,0.7
					c1.3,0,2.5-0.2,3.6-0.5c1.1-0.3,2-0.8,2.7-1.4c0.7-0.6,1.3-1.3,1.7-2.2c0.4-0.9,0.6-1.8,0.6-2.9c0-1.2-0.3-2.3-1-3.1
					c-0.7-0.9-1.5-1.7-2.6-2.3c-1.1-0.7-2.3-1.3-3.6-1.9c-1.4-0.6-2.8-1.2-4.2-1.9c-1.4-0.7-2.8-1.4-4.2-2.3c-1.4-0.8-2.6-1.9-3.6-3
					c-1.1-1.2-1.9-2.6-2.6-4.2c-0.7-1.6-1-3.5-1-5.8c0-2.6,0.5-4.9,1.4-6.8c1-2,2.2-3.6,3.9-4.9c1.6-1.3,3.5-2.3,5.7-2.9
					c2.2-0.6,4.5-1,7-1c1.3,0,2.6,0.1,3.8,0.3c1.3,0.2,2.5,0.5,3.6,0.8c1.1,0.3,2.1,0.7,3,1.1c0.9,0.4,1.4,0.8,1.7,1
					c0.3,0.3,0.5,0.5,0.6,0.7c0.1,0.2,0.2,0.5,0.2,0.8c0.1,0.3,0.1,0.7,0.1,1.2c0,0.5,0,1.1,0,1.8c0,0.8,0,1.5-0.1,2
					c0,0.6-0.1,1-0.2,1.4c-0.1,0.4-0.2,0.6-0.4,0.8c-0.2,0.2-0.4,0.2-0.7,0.2c-0.3,0-0.8-0.2-1.5-0.6c-0.7-0.4-1.5-0.8-2.5-1.3
					c-1-0.5-2.1-0.9-3.4-1.2c-1.3-0.4-2.7-0.6-4.2-0.6c-1.2,0-2.2,0.1-3.1,0.4c-0.9,0.3-1.6,0.7-2.2,1.2c-0.6,0.5-1,1.1-1.3,1.9
					c-0.3,0.7-0.4,1.5-0.4,2.3c0,1.2,0.3,2.2,1,3.1c0.7,0.9,1.5,1.7,2.6,2.3c1.1,0.7,2.3,1.3,3.7,1.9c1.4,0.6,2.8,1.2,4.2,1.9
					c1.4,0.7,2.9,1.4,4.2,2.3c1.4,0.8,2.6,1.9,3.7,3c1.1,1.2,2,2.6,2.6,4.2C700.1,1662.2,700.4,1664.1,700.4,1666.3z"/>
			</g>
			<g>
				<path class="st0" d="M755.8,1681c0,0.3-0.1,0.5-0.3,0.7c-0.2,0.2-0.5,0.4-0.9,0.5c-0.4,0.1-1,0.2-1.7,0.3
					c-0.7,0.1-1.6,0.1-2.7,0.1c-1.1,0-1.9,0-2.6-0.1c-0.7-0.1-1.3-0.2-1.7-0.3c-0.4-0.1-0.7-0.3-0.9-0.5c-0.2-0.2-0.3-0.5-0.3-0.7
					v-50.9c0-0.3,0.1-0.5,0.3-0.7c0.2-0.2,0.5-0.4,0.9-0.5c0.4-0.1,1-0.2,1.7-0.3c0.7-0.1,1.6-0.1,2.6-0.1c1.1,0,2,0,2.7,0.1
					c0.7,0.1,1.2,0.2,1.7,0.3c0.4,0.1,0.7,0.3,0.9,0.5c0.2,0.2,0.3,0.5,0.3,0.7V1681z"/>
				<path class="st0" d="M806.5,1678.6c0,0.6-0.1,1.2-0.3,1.7c-0.2,0.5-0.5,0.9-0.9,1.2c-0.4,0.3-0.8,0.6-1.3,0.7
					c-0.5,0.2-1,0.2-1.6,0.2h-4.7c-1,0-1.8-0.1-2.5-0.3c-0.7-0.2-1.4-0.5-2-1.1c-0.6-0.5-1.2-1.2-1.7-2.1c-0.6-0.9-1.2-2-1.9-3.4
					l-13.4-25.2c-0.8-1.5-1.6-3.1-2.4-4.9c-0.8-1.7-1.5-3.4-2.2-5.1h-0.1c0.1,2,0.2,4,0.2,6c0.1,2,0.1,4,0.1,6.1v28.2
					c0,0.3-0.1,0.5-0.2,0.7c-0.2,0.2-0.4,0.4-0.8,0.6c-0.4,0.2-0.9,0.3-1.5,0.4c-0.6,0.1-1.5,0.1-2.5,0.1c-1,0-1.8,0-2.4-0.1
					c-0.6-0.1-1.1-0.2-1.5-0.4c-0.4-0.2-0.6-0.3-0.7-0.6c-0.1-0.2-0.2-0.5-0.2-0.7v-48.4c0-1.3,0.4-2.3,1.1-2.9c0.8-0.7,1.7-1,2.8-1
					h5.9c1.1,0,1.9,0.1,2.7,0.3c0.7,0.2,1.4,0.5,1.9,0.9c0.6,0.4,1.1,1,1.6,1.7c0.5,0.7,1,1.6,1.5,2.7l10.5,19.7
					c0.6,1.2,1.2,2.4,1.8,3.5c0.6,1.2,1.2,2.3,1.7,3.5c0.6,1.2,1.1,2.3,1.6,3.4c0.5,1.1,1,2.2,1.5,3.3h0c-0.1-1.9-0.1-4-0.2-6.1
					c0-2.1-0.1-4.1-0.1-6v-25.3c0-0.3,0.1-0.5,0.2-0.7c0.2-0.2,0.4-0.4,0.8-0.6c0.4-0.2,0.9-0.3,1.5-0.4c0.6-0.1,1.5-0.1,2.5-0.1
					c0.9,0,1.7,0,2.4,0.1c0.6,0.1,1.1,0.2,1.5,0.4c0.3,0.2,0.6,0.4,0.7,0.6c0.1,0.2,0.2,0.5,0.2,0.7V1678.6z"/>
				<path class="st0" d="M848.7,1633.1c0,0.8,0,1.5-0.1,2.1c-0.1,0.6-0.2,1-0.3,1.4c-0.1,0.3-0.3,0.6-0.5,0.8
					c-0.2,0.2-0.4,0.2-0.7,0.2h-13.5v43.4c0,0.3-0.1,0.5-0.3,0.7c-0.2,0.2-0.5,0.4-0.9,0.5c-0.4,0.1-1,0.2-1.7,0.3
					c-0.7,0.1-1.6,0.1-2.6,0.1c-1.1,0-1.9,0-2.6-0.1c-0.7-0.1-1.3-0.2-1.7-0.3c-0.4-0.1-0.7-0.3-0.9-0.5c-0.2-0.2-0.3-0.5-0.3-0.7
					v-43.4h-13.5c-0.3,0-0.5-0.1-0.7-0.2c-0.2-0.2-0.4-0.4-0.5-0.8c-0.1-0.3-0.2-0.8-0.3-1.4c-0.1-0.6-0.1-1.3-0.1-2.1
					c0-0.8,0-1.5,0.1-2.1c0.1-0.6,0.2-1,0.3-1.4c0.1-0.3,0.3-0.6,0.5-0.7c0.2-0.2,0.4-0.2,0.7-0.2h38c0.2,0,0.5,0.1,0.7,0.2
					c0.2,0.2,0.4,0.4,0.5,0.7c0.1,0.3,0.2,0.8,0.3,1.4C848.7,1631.5,848.7,1632.2,848.7,1633.1z"/>
				<path class="st0" d="M884.7,1678.2c0,0.8,0,1.5-0.1,2c-0.1,0.5-0.2,1-0.3,1.3c-0.1,0.3-0.3,0.6-0.5,0.7
					c-0.2,0.2-0.4,0.2-0.7,0.2H856c-0.9,0-1.7-0.3-2.3-0.8c-0.6-0.5-0.9-1.4-0.9-2.6v-47c0-1.2,0.3-2.1,0.9-2.6
					c0.6-0.5,1.4-0.8,2.3-0.8h26.9c0.2,0,0.5,0.1,0.7,0.2c0.2,0.1,0.4,0.4,0.5,0.7c0.1,0.3,0.2,0.8,0.3,1.3c0.1,0.5,0.1,1.2,0.1,2.1
					c0,0.8,0,1.4-0.1,2c-0.1,0.5-0.2,1-0.3,1.3c-0.1,0.3-0.3,0.6-0.5,0.7c-0.2,0.2-0.4,0.2-0.7,0.2h-19.2v13.2h16.3
					c0.2,0,0.5,0.1,0.7,0.2c0.2,0.2,0.4,0.4,0.5,0.7c0.1,0.3,0.2,0.7,0.3,1.3c0.1,0.5,0.1,1.2,0.1,2c0,0.8,0,1.5-0.1,2
					c-0.1,0.5-0.2,1-0.3,1.3c-0.1,0.3-0.3,0.5-0.5,0.7c-0.2,0.1-0.4,0.2-0.7,0.2h-16.3v15.2H883c0.2,0,0.5,0.1,0.7,0.2
					c0.2,0.2,0.4,0.4,0.5,0.7c0.1,0.3,0.2,0.8,0.3,1.3C884.6,1676.7,884.7,1677.4,884.7,1678.2z"/>
				<path class="st0" d="M932.4,1636.9c0,0.8,0,1.5-0.1,2.1c-0.1,0.6-0.2,1-0.3,1.4c-0.1,0.3-0.3,0.6-0.5,0.7
					c-0.2,0.1-0.4,0.2-0.6,0.2c-0.4,0-0.9-0.2-1.7-0.7c-0.8-0.5-1.9-1-3.2-1.6s-2.9-1.1-4.8-1.6c-1.8-0.5-4-0.7-6.4-0.7
					c-2.6,0-5,0.5-7.1,1.4c-2.1,0.9-3.9,2.2-5.4,3.8c-1.5,1.7-2.7,3.6-3.5,6c-0.8,2.3-1.2,4.9-1.2,7.7c0,3.1,0.4,5.8,1.2,8.1
					c0.8,2.3,2,4.3,3.4,5.9c1.5,1.6,3.2,2.8,5.3,3.6c2.1,0.8,4.4,1.2,6.9,1.2c1.2,0,2.4-0.1,3.6-0.4c1.2-0.3,2.3-0.7,3.3-1.2v-12.5
					h-10.2c-0.5,0-0.9-0.3-1.2-0.9c-0.3-0.6-0.4-1.7-0.4-3.2c0-0.8,0-1.4,0.1-2c0.1-0.5,0.2-1,0.3-1.3c0.1-0.3,0.3-0.6,0.5-0.7
					c0.2-0.2,0.4-0.2,0.7-0.2h18.2c0.4,0,0.8,0.1,1.2,0.2c0.3,0.2,0.7,0.4,0.9,0.7c0.3,0.3,0.5,0.7,0.6,1.1c0.1,0.4,0.2,0.9,0.2,1.5
					v21.5c0,0.8-0.1,1.6-0.4,2.2s-0.9,1.1-1.8,1.5c-0.9,0.4-2,0.7-3.4,1.1c-1.3,0.4-2.7,0.7-4.1,1c-1.4,0.3-2.9,0.5-4.3,0.6
					c-1.5,0.1-2.9,0.2-4.4,0.2c-4.3,0-8.2-0.6-11.6-1.9c-3.4-1.2-6.3-3-8.6-5.4c-2.4-2.3-4.2-5.2-5.4-8.6c-1.2-3.4-1.9-7.2-1.9-11.5
					c0-4.4,0.7-8.4,2-11.9c1.3-3.5,3.2-6.5,5.7-9c2.4-2.5,5.4-4.3,8.9-5.6c3.5-1.3,7.3-2,11.6-2c2.3,0,4.5,0.2,6.4,0.5
					c1.9,0.3,3.6,0.7,5,1.2c1.4,0.5,2.6,1,3.6,1.5c0.9,0.5,1.6,1,2,1.4c0.4,0.4,0.6,0.9,0.8,1.6
					C932.3,1634.5,932.4,1635.5,932.4,1636.9z"/>
				<path class="st0" d="M978.1,1681c0,0.3-0.1,0.6-0.2,0.8c-0.1,0.2-0.4,0.4-0.8,0.5c-0.4,0.1-1,0.2-1.8,0.3
					c-0.8,0.1-1.9,0.1-3.3,0.1c-1.2,0-2.1,0-2.8-0.1c-0.7-0.1-1.2-0.2-1.6-0.3c-0.4-0.2-0.7-0.3-0.9-0.6c-0.2-0.2-0.3-0.5-0.4-0.9
					l-4.8-12c-0.6-1.4-1.2-2.6-1.7-3.6c-0.6-1.1-1.2-1.9-1.9-2.6c-0.7-0.7-1.5-1.2-2.4-1.6c-0.9-0.4-1.9-0.5-3.1-0.5h-3.4v20.5
					c0,0.3-0.1,0.5-0.3,0.7c-0.2,0.2-0.5,0.4-0.9,0.5c-0.4,0.1-1,0.2-1.7,0.3c-0.7,0.1-1.6,0.1-2.7,0.1c-1.1,0-1.9,0-2.6-0.1
					c-0.7-0.1-1.3-0.2-1.7-0.3c-0.4-0.1-0.7-0.3-0.9-0.5c-0.2-0.2-0.2-0.5-0.2-0.7V1632c0-1.2,0.3-2.1,0.9-2.6
					c0.6-0.5,1.4-0.8,2.3-0.8h14c1.4,0,2.6,0,3.5,0.1c0.9,0.1,1.7,0.1,2.5,0.2c2.2,0.3,4.1,0.8,5.9,1.6c1.7,0.7,3.2,1.7,4.4,2.9
					s2.1,2.6,2.8,4.3c0.6,1.7,1,3.5,1,5.7c0,1.8-0.2,3.5-0.7,4.9c-0.5,1.5-1.1,2.8-2,4c-0.9,1.2-2,2.2-3.3,3
					c-1.3,0.9-2.8,1.6-4.5,2.1c0.8,0.4,1.6,0.9,2.3,1.4c0.7,0.6,1.4,1.2,2,2s1.2,1.7,1.8,2.7c0.6,1,1.1,2.2,1.6,3.4l4.5,10.6
					c0.4,1.1,0.7,1.8,0.8,2.3C978,1680.4,978.1,1680.8,978.1,1681z M964,1644.5c0-1.8-0.4-3.3-1.2-4.5c-0.8-1.2-2.1-2.1-4-2.6
					c-0.6-0.1-1.2-0.2-1.9-0.3c-0.7-0.1-1.7-0.1-2.9-0.1h-4.9v15.3h5.6c1.6,0,2.9-0.2,4.1-0.6s2.1-0.9,2.9-1.6
					c0.8-0.7,1.4-1.5,1.7-2.4C963.8,1646.7,964,1645.6,964,1644.5z"/>
				<path class="st0" d="M1029.5,1678.4c0.3,1,0.5,1.8,0.6,2.4c0.1,0.6,0,1-0.3,1.3c-0.3,0.3-0.8,0.5-1.6,0.5
					c-0.8,0.1-1.8,0.1-3.2,0.1c-1.4,0-2.5,0-3.3-0.1c-0.8,0-1.4-0.1-1.8-0.3c-0.4-0.1-0.7-0.3-0.9-0.5c-0.2-0.2-0.3-0.5-0.4-0.9
					l-3.6-10.8h-20.2l-3.4,10.5c-0.1,0.4-0.3,0.7-0.4,1c-0.2,0.3-0.5,0.5-0.9,0.6c-0.4,0.2-1,0.3-1.7,0.3c-0.7,0.1-1.7,0.1-2.9,0.1
					c-1.3,0-2.3,0-3-0.1c-0.7-0.1-1.2-0.3-1.5-0.6c-0.3-0.3-0.4-0.8-0.3-1.4s0.3-1.4,0.6-2.3l16.6-47.8c0.2-0.5,0.4-0.9,0.6-1.1
					c0.2-0.3,0.6-0.5,1.1-0.7c0.5-0.2,1.2-0.2,2-0.3c0.9,0,2-0.1,3.4-0.1c1.6,0,2.9,0,3.9,0.1c1,0,1.7,0.1,2.3,0.3
					c0.5,0.2,0.9,0.4,1.2,0.7c0.2,0.3,0.4,0.7,0.6,1.2L1029.5,1678.4z M1004.8,1638.8L1004.8,1638.8l-7.7,22.9h15.3L1004.8,1638.8z"
					/>
				<path class="st0" d="M1064.3,1677.9c0,0.8,0,1.5-0.1,2.1c-0.1,0.6-0.2,1-0.3,1.4c-0.1,0.4-0.3,0.6-0.5,0.8s-0.5,0.2-0.7,0.2
					h-24.7c-0.9,0-1.7-0.3-2.3-0.8c-0.6-0.5-0.9-1.4-0.9-2.6v-48.9c0-0.3,0.1-0.5,0.3-0.7c0.2-0.2,0.5-0.4,0.9-0.5
					c0.4-0.1,1-0.2,1.7-0.3c0.7-0.1,1.6-0.1,2.6-0.1c1.1,0,2,0,2.7,0.1c0.7,0.1,1.2,0.2,1.7,0.3c0.4,0.1,0.7,0.3,0.9,0.5
					c0.2,0.2,0.3,0.5,0.3,0.7v43.4h17c0.3,0,0.5,0.1,0.7,0.2c0.2,0.2,0.4,0.4,0.5,0.7c0.1,0.3,0.2,0.8,0.3,1.4
					C1064.3,1676.3,1064.3,1677,1064.3,1677.9z"/>
				<path class="st0" d="M1100.4,1678.2c0,0.8,0,1.5-0.1,2c-0.1,0.5-0.2,1-0.3,1.3c-0.1,0.3-0.3,0.6-0.5,0.7
					c-0.2,0.2-0.4,0.2-0.7,0.2h-27.1c-0.9,0-1.7-0.3-2.3-0.8c-0.6-0.5-0.9-1.4-0.9-2.6v-47c0-1.2,0.3-2.1,0.9-2.6
					c0.6-0.5,1.4-0.8,2.3-0.8h26.9c0.3,0,0.5,0.1,0.7,0.2c0.2,0.1,0.4,0.4,0.5,0.7c0.1,0.3,0.2,0.8,0.3,1.3c0.1,0.5,0.1,1.2,0.1,2.1
					c0,0.8,0,1.4-0.1,2c-0.1,0.5-0.2,1-0.3,1.3c-0.1,0.3-0.3,0.6-0.5,0.7c-0.2,0.2-0.4,0.2-0.7,0.2h-19.2v13.2h16.3
					c0.3,0,0.5,0.1,0.7,0.2c0.2,0.2,0.4,0.4,0.5,0.7c0.1,0.3,0.2,0.7,0.3,1.3c0.1,0.5,0.1,1.2,0.1,2c0,0.8,0,1.5-0.1,2
					c-0.1,0.5-0.2,1-0.3,1.3c-0.1,0.3-0.3,0.5-0.5,0.7c-0.2,0.1-0.4,0.2-0.7,0.2h-16.3v15.2h19.4c0.2,0,0.5,0.1,0.7,0.2
					c0.2,0.2,0.4,0.4,0.5,0.7c0.1,0.3,0.2,0.8,0.3,1.3C1100.3,1676.7,1100.4,1677.4,1100.4,1678.2z"/>
				<path class="st0" d="M1138.8,1666.3c0,2.8-0.5,5.3-1.6,7.5c-1.1,2.1-2.5,3.9-4.3,5.4c-1.8,1.4-3.9,2.5-6.3,3.2
					c-2.4,0.7-5,1.1-7.7,1.1c-1.9,0-3.6-0.2-5.2-0.5c-1.6-0.3-3-0.7-4.2-1.1c-1.2-0.4-2.2-0.9-3.1-1.4c-0.8-0.5-1.4-0.9-1.8-1.2
					c-0.4-0.4-0.6-0.9-0.8-1.6c-0.2-0.7-0.2-1.7-0.2-2.9c0-0.9,0-1.6,0.1-2.2c0.1-0.6,0.1-1.1,0.3-1.4c0.1-0.4,0.3-0.6,0.5-0.8
					c0.2-0.2,0.5-0.2,0.7-0.2c0.4,0,0.9,0.2,1.6,0.7c0.7,0.5,1.6,1,2.7,1.5c1.1,0.6,2.4,1.1,4,1.5c1.5,0.5,3.3,0.7,5.4,0.7
					c1.3,0,2.5-0.2,3.6-0.5c1.1-0.3,2-0.8,2.7-1.4c0.7-0.6,1.3-1.3,1.7-2.2c0.4-0.9,0.6-1.8,0.6-2.9c0-1.2-0.3-2.3-1-3.1
					s-1.5-1.7-2.6-2.3c-1.1-0.7-2.3-1.3-3.6-1.9c-1.4-0.6-2.8-1.2-4.2-1.9c-1.4-0.7-2.8-1.4-4.2-2.3c-1.4-0.8-2.6-1.9-3.6-3
					c-1.1-1.2-1.9-2.6-2.6-4.2c-0.7-1.6-1-3.5-1-5.8c0-2.6,0.5-4.9,1.4-6.8c1-2,2.2-3.6,3.9-4.9c1.6-1.3,3.5-2.3,5.7-2.9
					c2.2-0.6,4.5-1,7-1c1.3,0,2.6,0.1,3.8,0.3c1.3,0.2,2.5,0.5,3.6,0.8c1.1,0.3,2.1,0.7,3,1.1c0.9,0.4,1.4,0.8,1.7,1
					c0.3,0.3,0.5,0.5,0.6,0.7c0.1,0.2,0.2,0.5,0.2,0.8c0.1,0.3,0.1,0.7,0.1,1.2c0,0.5,0,1.1,0,1.8c0,0.8,0,1.5-0.1,2
					c0,0.6-0.1,1-0.2,1.4c-0.1,0.4-0.2,0.6-0.4,0.8c-0.2,0.2-0.4,0.2-0.7,0.2c-0.3,0-0.8-0.2-1.5-0.6c-0.7-0.4-1.5-0.8-2.5-1.3
					c-1-0.5-2.1-0.9-3.4-1.2c-1.3-0.4-2.7-0.6-4.2-0.6c-1.2,0-2.2,0.1-3.1,0.4c-0.9,0.3-1.6,0.7-2.2,1.2c-0.6,0.5-1,1.1-1.3,1.9
					c-0.3,0.7-0.4,1.5-0.4,2.3c0,1.2,0.3,2.2,1,3.1c0.7,0.9,1.5,1.7,2.6,2.3c1.1,0.7,2.3,1.3,3.7,1.9c1.4,0.6,2.8,1.2,4.2,1.9
					c1.4,0.7,2.9,1.4,4.2,2.3c1.4,0.8,2.6,1.9,3.7,3c1.1,1.2,2,2.6,2.6,4.2C1138.5,1662.2,1138.8,1664.1,1138.8,1666.3z"/>
			</g>
			<g>
				<path class="st0" d="M1214.9,1678.2c0,0.8,0,1.5-0.1,2c-0.1,0.5-0.2,1-0.3,1.3c-0.1,0.3-0.3,0.6-0.5,0.7
					c-0.2,0.2-0.4,0.2-0.7,0.2h-27.1c-0.9,0-1.7-0.3-2.3-0.8c-0.6-0.5-0.9-1.4-0.9-2.6v-47c0-1.2,0.3-2.1,0.9-2.6
					c0.6-0.5,1.4-0.8,2.3-0.8h26.9c0.3,0,0.5,0.1,0.7,0.2c0.2,0.1,0.4,0.4,0.5,0.7c0.1,0.3,0.2,0.8,0.3,1.3c0.1,0.5,0.1,1.2,0.1,2.1
					c0,0.8,0,1.4-0.1,2c-0.1,0.5-0.2,1-0.3,1.3c-0.1,0.3-0.3,0.6-0.5,0.7c-0.2,0.2-0.4,0.2-0.7,0.2h-19.2v13.2h16.3
					c0.2,0,0.5,0.1,0.7,0.2c0.2,0.2,0.4,0.4,0.5,0.7c0.1,0.3,0.2,0.7,0.3,1.3c0.1,0.5,0.1,1.2,0.1,2c0,0.8,0,1.5-0.1,2
					c-0.1,0.5-0.2,1-0.3,1.3c-0.1,0.3-0.3,0.5-0.5,0.7c-0.2,0.1-0.4,0.2-0.7,0.2h-16.3v15.2h19.4c0.2,0,0.5,0.1,0.7,0.2
					c0.2,0.2,0.4,0.4,0.5,0.7c0.1,0.3,0.2,0.8,0.3,1.3C1214.8,1676.7,1214.9,1677.4,1214.9,1678.2z"/>
				<path class="st0" d="M1256.4,1677.9c0,0.8,0,1.5-0.1,2.1c-0.1,0.6-0.2,1-0.3,1.4c-0.1,0.4-0.3,0.6-0.5,0.8s-0.5,0.2-0.7,0.2
					h-24.7c-0.9,0-1.7-0.3-2.3-0.8c-0.6-0.5-0.9-1.4-0.9-2.6v-48.9c0-0.3,0.1-0.5,0.3-0.7c0.2-0.2,0.5-0.4,0.9-0.5
					c0.4-0.1,1-0.2,1.7-0.3c0.7-0.1,1.6-0.1,2.6-0.1c1.1,0,2,0,2.7,0.1c0.7,0.1,1.2,0.2,1.7,0.3c0.4,0.1,0.7,0.3,0.9,0.5
					c0.2,0.2,0.3,0.5,0.3,0.7v43.4h17c0.3,0,0.5,0.1,0.7,0.2c0.2,0.2,0.4,0.4,0.5,0.7c0.1,0.3,0.2,0.8,0.3,1.4
					C1256.4,1676.3,1256.4,1677,1256.4,1677.9z"/>
				<path class="st0" d="M1292.5,1678.2c0,0.8,0,1.5-0.1,2c-0.1,0.5-0.2,1-0.3,1.3c-0.1,0.3-0.3,0.6-0.5,0.7
					c-0.2,0.2-0.4,0.2-0.7,0.2h-27.1c-0.9,0-1.7-0.3-2.3-0.8c-0.6-0.5-0.9-1.4-0.9-2.6v-47c0-1.2,0.3-2.1,0.9-2.6
					c0.6-0.5,1.4-0.8,2.3-0.8h26.9c0.2,0,0.5,0.1,0.7,0.2c0.2,0.1,0.4,0.4,0.5,0.7c0.1,0.3,0.2,0.8,0.3,1.3c0.1,0.5,0.1,1.2,0.1,2.1
					c0,0.8,0,1.4-0.1,2c-0.1,0.5-0.2,1-0.3,1.3c-0.1,0.3-0.3,0.6-0.5,0.7c-0.2,0.2-0.4,0.2-0.7,0.2h-19.2v13.2h16.3
					c0.2,0,0.5,0.1,0.7,0.2c0.2,0.2,0.4,0.4,0.5,0.7c0.1,0.3,0.2,0.7,0.3,1.3c0.1,0.5,0.1,1.2,0.1,2c0,0.8,0,1.5-0.1,2
					c-0.1,0.5-0.2,1-0.3,1.3c-0.1,0.3-0.3,0.5-0.5,0.7c-0.2,0.1-0.4,0.2-0.7,0.2h-16.3v15.2h19.4c0.2,0,0.5,0.1,0.7,0.2
					c0.2,0.2,0.4,0.4,0.5,0.7c0.1,0.3,0.2,0.8,0.3,1.3C1292.5,1676.7,1292.5,1677.4,1292.5,1678.2z M1279.7,1614
					c0.4-0.4,0.7-0.7,1.1-1c0.3-0.2,0.8-0.4,1.2-0.6c0.5-0.1,1.1-0.2,1.8-0.3c0.7,0,1.6-0.1,2.6-0.1c1.3,0,2.3,0.1,3,0.2
					c0.7,0.2,1.2,0.4,1.5,0.6c0.3,0.3,0.3,0.6,0.2,0.9c-0.1,0.3-0.4,0.7-0.8,1l-9.2,8.3c-0.3,0.2-0.6,0.5-0.9,0.6
					c-0.3,0.2-0.6,0.3-1.1,0.5c-0.4,0.1-0.9,0.2-1.5,0.3c-0.6,0.1-1.3,0.1-2.2,0.1c-0.9,0-1.7,0-2.3-0.1c-0.6-0.1-1-0.2-1.2-0.4
					c-0.2-0.2-0.3-0.4-0.3-0.7c0.1-0.3,0.2-0.6,0.6-1L1279.7,1614z"/>
				<path class="st0" d="M1334.3,1674.3c0,0.7,0,1.3-0.1,1.8c0,0.5-0.1,0.9-0.2,1.2c-0.1,0.3-0.2,0.6-0.3,0.9
					c-0.1,0.2-0.4,0.5-0.7,0.9c-0.3,0.3-0.9,0.7-1.8,1.2c-0.9,0.5-1.9,1-3.2,1.4c-1.3,0.5-2.7,0.8-4.3,1.1c-1.6,0.3-3.4,0.5-5.3,0.5
					c-3.7,0-7-0.6-10-1.7c-3-1.1-5.5-2.8-7.6-5.1c-2.1-2.3-3.7-5.1-4.8-8.5c-1.1-3.4-1.7-7.3-1.7-11.8c0-4.6,0.6-8.6,1.8-12.2
					c1.2-3.6,2.9-6.5,5.1-9c2.2-2.4,4.8-4.2,7.9-5.5c3.1-1.2,6.4-1.9,10.1-1.9c1.5,0,2.9,0.1,4.3,0.4c1.4,0.2,2.7,0.6,3.9,1
					c1.2,0.4,2.2,0.9,3.2,1.4c0.9,0.5,1.6,1,2,1.4s0.6,0.7,0.8,0.9c0.1,0.2,0.2,0.6,0.3,1c0.1,0.4,0.1,0.8,0.2,1.4
					c0,0.5,0.1,1.2,0.1,2c0,0.8,0,1.5-0.1,2.1c-0.1,0.6-0.2,1.1-0.3,1.4c-0.1,0.4-0.3,0.6-0.5,0.8c-0.2,0.2-0.4,0.2-0.7,0.2
					c-0.4,0-0.9-0.2-1.6-0.7c-0.6-0.5-1.5-1-2.5-1.6c-1-0.6-2.2-1.1-3.6-1.6c-1.4-0.5-3.1-0.7-5-0.7c-2.1,0-4,0.4-5.7,1.3
					c-1.7,0.9-3.1,2.1-4.3,3.7c-1.2,1.6-2.1,3.6-2.7,5.9c-0.6,2.3-0.9,4.9-0.9,7.8c0,3.2,0.3,5.9,1,8.2c0.7,2.3,1.6,4.2,2.8,5.7
					c1.2,1.5,2.7,2.6,4.4,3.4c1.7,0.7,3.6,1.1,5.8,1.1c1.9,0,3.6-0.2,5-0.7c1.4-0.5,2.6-1,3.6-1.5c1-0.6,1.8-1.1,2.5-1.5
					c0.7-0.4,1.2-0.7,1.5-0.7c0.3,0,0.5,0.1,0.7,0.2c0.2,0.1,0.3,0.3,0.4,0.7c0.1,0.3,0.2,0.8,0.3,1.4
					C1334.3,1672.5,1334.3,1673.3,1334.3,1674.3z"/>
				<path class="st0" d="M1379.2,1633.1c0,0.8,0,1.5-0.1,2.1c-0.1,0.6-0.2,1-0.3,1.4c-0.1,0.3-0.3,0.6-0.5,0.8
					c-0.2,0.2-0.4,0.2-0.7,0.2h-13.5v43.4c0,0.3-0.1,0.5-0.3,0.7c-0.2,0.2-0.5,0.4-0.9,0.5c-0.4,0.1-1,0.2-1.7,0.3
					c-0.7,0.1-1.6,0.1-2.6,0.1c-1.1,0-1.9,0-2.6-0.1c-0.7-0.1-1.3-0.2-1.7-0.3c-0.4-0.1-0.7-0.3-0.9-0.5c-0.2-0.2-0.3-0.5-0.3-0.7
					v-43.4h-13.5c-0.3,0-0.5-0.1-0.7-0.2c-0.2-0.2-0.4-0.4-0.5-0.8c-0.1-0.3-0.2-0.8-0.3-1.4c-0.1-0.6-0.1-1.3-0.1-2.1
					c0-0.8,0-1.5,0.1-2.1c0.1-0.6,0.2-1,0.3-1.4c0.1-0.3,0.3-0.6,0.5-0.7c0.2-0.2,0.4-0.2,0.7-0.2h38c0.3,0,0.5,0.1,0.7,0.2
					c0.2,0.2,0.4,0.4,0.5,0.7c0.1,0.3,0.2,0.8,0.3,1.4C1379.2,1631.5,1379.2,1632.2,1379.2,1633.1z"/>
				<path class="st0" d="M1421.7,1681c0,0.3-0.1,0.6-0.2,0.8c-0.1,0.2-0.4,0.4-0.8,0.5c-0.4,0.1-1,0.2-1.8,0.3
					c-0.8,0.1-1.9,0.1-3.3,0.1c-1.2,0-2.1,0-2.8-0.1c-0.7-0.1-1.2-0.2-1.6-0.3c-0.4-0.2-0.7-0.3-0.9-0.6c-0.2-0.2-0.3-0.5-0.4-0.9
					l-4.8-12c-0.6-1.4-1.2-2.6-1.7-3.6c-0.6-1.1-1.2-1.9-1.9-2.6c-0.7-0.7-1.5-1.2-2.4-1.6c-0.9-0.4-1.9-0.5-3.1-0.5h-3.4v20.5
					c0,0.3-0.1,0.5-0.3,0.7c-0.2,0.2-0.5,0.4-0.9,0.5c-0.4,0.1-1,0.2-1.7,0.3c-0.7,0.1-1.6,0.1-2.7,0.1c-1.1,0-1.9,0-2.6-0.1
					c-0.7-0.1-1.3-0.2-1.7-0.3c-0.4-0.1-0.7-0.3-0.9-0.5c-0.2-0.2-0.2-0.5-0.2-0.7V1632c0-1.2,0.3-2.1,0.9-2.6
					c0.6-0.5,1.4-0.8,2.3-0.8h14c1.4,0,2.6,0,3.5,0.1c0.9,0.1,1.7,0.1,2.5,0.2c2.2,0.3,4.1,0.8,5.9,1.6c1.7,0.7,3.2,1.7,4.4,2.9
					s2.1,2.6,2.8,4.3c0.6,1.7,1,3.5,1,5.7c0,1.8-0.2,3.5-0.7,4.9c-0.5,1.5-1.1,2.8-2,4c-0.9,1.2-2,2.2-3.3,3
					c-1.3,0.9-2.8,1.6-4.5,2.1c0.8,0.4,1.6,0.9,2.3,1.4c0.7,0.6,1.4,1.2,2,2s1.2,1.7,1.8,2.7c0.6,1,1.1,2.2,1.6,3.4l4.5,10.6
					c0.4,1.1,0.7,1.8,0.8,2.3C1421.6,1680.4,1421.7,1680.8,1421.7,1681z M1407.6,1644.5c0-1.8-0.4-3.3-1.2-4.5
					c-0.8-1.2-2.1-2.1-4-2.6c-0.6-0.1-1.2-0.2-1.9-0.3c-0.7-0.1-1.7-0.1-2.9-0.1h-4.9v15.3h5.6c1.6,0,2.9-0.2,4.1-0.6
					s2.1-0.9,2.9-1.6c0.8-0.7,1.4-1.5,1.7-2.4C1407.4,1646.7,1407.6,1645.6,1407.6,1644.5z"/>
				<path class="st0" d="M1436.8,1681c0,0.3-0.1,0.5-0.3,0.7c-0.2,0.2-0.5,0.4-0.9,0.5c-0.4,0.1-1,0.2-1.7,0.3
					c-0.7,0.1-1.6,0.1-2.7,0.1c-1.1,0-1.9,0-2.6-0.1c-0.7-0.1-1.3-0.2-1.7-0.3c-0.4-0.1-0.7-0.3-0.9-0.5c-0.2-0.2-0.3-0.5-0.3-0.7
					v-50.9c0-0.3,0.1-0.5,0.3-0.7c0.2-0.2,0.5-0.4,0.9-0.5c0.4-0.1,1-0.2,1.7-0.3c0.7-0.1,1.6-0.1,2.6-0.1c1.1,0,2,0,2.7,0.1
					c0.7,0.1,1.2,0.2,1.7,0.3c0.4,0.1,0.7,0.3,0.9,0.5c0.2,0.2,0.3,0.5,0.3,0.7V1681z"/>
				<path class="st0" d="M1482,1674.3c0,0.7,0,1.3-0.1,1.8c0,0.5-0.1,0.9-0.2,1.2c-0.1,0.3-0.2,0.6-0.3,0.9
					c-0.1,0.2-0.4,0.5-0.7,0.9c-0.3,0.3-0.9,0.7-1.8,1.2c-0.9,0.5-1.9,1-3.2,1.4c-1.3,0.5-2.7,0.8-4.3,1.1c-1.6,0.3-3.4,0.5-5.3,0.5
					c-3.7,0-7-0.6-10-1.7c-3-1.1-5.5-2.8-7.6-5.1c-2.1-2.3-3.7-5.1-4.8-8.5c-1.1-3.4-1.7-7.3-1.7-11.8c0-4.6,0.6-8.6,1.8-12.2
					c1.2-3.6,2.9-6.5,5.1-9c2.2-2.4,4.8-4.2,7.9-5.5c3.1-1.2,6.4-1.9,10.1-1.9c1.5,0,2.9,0.1,4.3,0.4c1.4,0.2,2.7,0.6,3.9,1
					c1.2,0.4,2.2,0.9,3.2,1.4c0.9,0.5,1.6,1,2,1.4s0.6,0.7,0.8,0.9c0.1,0.2,0.2,0.6,0.3,1c0.1,0.4,0.1,0.8,0.2,1.4
					c0,0.5,0.1,1.2,0.1,2c0,0.8,0,1.5-0.1,2.1c-0.1,0.6-0.2,1.1-0.3,1.4c-0.1,0.4-0.3,0.6-0.5,0.8c-0.2,0.2-0.4,0.2-0.7,0.2
					c-0.4,0-0.9-0.2-1.6-0.7c-0.6-0.5-1.5-1-2.5-1.6c-1-0.6-2.2-1.1-3.6-1.6c-1.4-0.5-3.1-0.7-5-0.7c-2.1,0-4,0.4-5.7,1.3
					c-1.7,0.9-3.1,2.1-4.3,3.7c-1.2,1.6-2.1,3.6-2.7,5.9c-0.6,2.3-0.9,4.9-0.9,7.8c0,3.2,0.3,5.9,1,8.2c0.7,2.3,1.6,4.2,2.8,5.7
					c1.2,1.5,2.7,2.6,4.4,3.4c1.7,0.7,3.6,1.1,5.8,1.1c1.9,0,3.6-0.2,5-0.7s2.6-1,3.6-1.5c1-0.6,1.8-1.1,2.5-1.5
					c0.7-0.4,1.2-0.7,1.5-0.7c0.3,0,0.5,0.1,0.7,0.2c0.2,0.1,0.3,0.3,0.4,0.7c0.1,0.3,0.2,0.8,0.2,1.4
					C1481.9,1672.5,1482,1673.3,1482,1674.3z"/>
				<path class="st0" d="M1532.3,1654.9c0,4.5-0.6,8.5-1.7,12c-1.1,3.5-2.8,6.5-5,9c-2.2,2.5-4.9,4.3-8.1,5.6
					c-3.2,1.3-7,1.9-11.2,1.9c-4.2,0-7.9-0.5-11-1.6c-3.1-1.1-5.7-2.8-7.8-5c-2.1-2.2-3.6-5.1-4.7-8.6c-1-3.5-1.6-7.6-1.6-12.3
					c0-4.4,0.6-8.3,1.7-11.8c1.1-3.5,2.8-6.4,5-8.9c2.2-2.4,4.9-4.3,8.1-5.6c3.2-1.3,7-2,11.3-2c4.1,0,7.7,0.5,10.8,1.6
					c3.1,1.1,5.7,2.7,7.8,5c2.1,2.2,3.7,5.1,4.7,8.5C1531.7,1646.2,1532.3,1650.2,1532.3,1654.9z M1520.8,1655.5
					c0-2.8-0.2-5.4-0.7-7.7c-0.4-2.3-1.2-4.3-2.3-6c-1.1-1.7-2.5-2.9-4.3-3.8c-1.8-0.9-4-1.4-6.7-1.4c-2.7,0-4.9,0.5-6.7,1.5
					c-1.8,1-3.3,2.4-4.4,4.1c-1.1,1.7-1.9,3.7-2.4,5.9c-0.5,2.3-0.7,4.7-0.7,7.2c0,2.9,0.2,5.6,0.7,7.9c0.4,2.3,1.2,4.4,2.2,6
					c1.1,1.7,2.5,2.9,4.2,3.8c1.8,0.9,4,1.3,6.7,1.3c2.7,0,4.9-0.5,6.7-1.5c1.8-1,3.3-2.4,4.4-4.1c1.1-1.7,1.9-3.7,2.4-6
					C1520.5,1660.5,1520.8,1658,1520.8,1655.5z"/>
				<path class="st0" d="M1569.5,1666.3c0,2.8-0.5,5.3-1.6,7.5c-1.1,2.1-2.5,3.9-4.3,5.4c-1.8,1.4-3.9,2.5-6.3,3.2
					c-2.4,0.7-5,1.1-7.7,1.1c-1.9,0-3.6-0.2-5.2-0.5c-1.6-0.3-3-0.7-4.2-1.1c-1.2-0.4-2.2-0.9-3.1-1.4c-0.8-0.5-1.4-0.9-1.8-1.2
					c-0.4-0.4-0.6-0.9-0.8-1.6c-0.2-0.7-0.2-1.7-0.2-2.9c0-0.9,0-1.6,0.1-2.2c0.1-0.6,0.1-1.1,0.3-1.4c0.1-0.4,0.3-0.6,0.5-0.8
					c0.2-0.2,0.5-0.2,0.7-0.2c0.4,0,0.9,0.2,1.6,0.7c0.7,0.5,1.6,1,2.7,1.5c1.1,0.6,2.4,1.1,4,1.5c1.5,0.5,3.3,0.7,5.4,0.7
					c1.3,0,2.5-0.2,3.6-0.5c1.1-0.3,2-0.8,2.7-1.4c0.7-0.6,1.3-1.3,1.7-2.2c0.4-0.9,0.6-1.8,0.6-2.9c0-1.2-0.3-2.3-1-3.1
					c-0.7-0.9-1.5-1.7-2.6-2.3c-1.1-0.7-2.3-1.3-3.6-1.9c-1.4-0.6-2.8-1.2-4.2-1.9c-1.4-0.7-2.8-1.4-4.2-2.3c-1.4-0.8-2.6-1.9-3.6-3
					c-1.1-1.2-1.9-2.6-2.6-4.2c-0.7-1.6-1-3.5-1-5.8c0-2.6,0.5-4.9,1.4-6.8c1-2,2.2-3.6,3.9-4.9c1.6-1.3,3.5-2.3,5.7-2.9
					c2.2-0.6,4.5-1,7-1c1.3,0,2.6,0.1,3.8,0.3c1.3,0.2,2.5,0.5,3.6,0.8c1.1,0.3,2.1,0.7,3,1.1c0.9,0.4,1.4,0.8,1.7,1
					c0.3,0.3,0.5,0.5,0.6,0.7c0.1,0.2,0.2,0.5,0.2,0.8c0.1,0.3,0.1,0.7,0.1,1.2c0,0.5,0,1.1,0,1.8c0,0.8,0,1.5-0.1,2
					c0,0.6-0.1,1-0.2,1.4c-0.1,0.4-0.2,0.6-0.4,0.8c-0.2,0.2-0.4,0.2-0.7,0.2c-0.3,0-0.8-0.2-1.5-0.6c-0.7-0.4-1.5-0.8-2.5-1.3
					c-1-0.5-2.1-0.9-3.4-1.2c-1.3-0.4-2.7-0.6-4.2-0.6c-1.2,0-2.2,0.1-3.1,0.4c-0.9,0.3-1.6,0.7-2.2,1.2c-0.6,0.5-1,1.1-1.3,1.9
					c-0.3,0.7-0.4,1.5-0.4,2.3c0,1.2,0.3,2.2,1,3.1c0.7,0.9,1.5,1.7,2.6,2.3c1.1,0.7,2.3,1.3,3.7,1.9c1.4,0.6,2.8,1.2,4.2,1.9
					c1.4,0.7,2.9,1.4,4.2,2.3c1.4,0.8,2.6,1.9,3.7,3c1.1,1.2,2,2.6,2.6,4.2C1569.2,1662.2,1569.5,1664.1,1569.5,1666.3z"/>
			</g>
		</g>
		<g>
			<path class="st0" d="M383.3,1398.6c-16.6-16.6-39.5-26.9-64.6-26.9h-88.3v43.2h19.3v117.2h-19.3v38h88.3
				c50.3,0,91.5-41.2,91.5-91.5v-15.5C410.2,1438,399.9,1415.1,383.3,1398.6z M356.3,1514.9c-10.6,10.6-25.3,17.2-41.4,17.2H291
				v-117.2h23.8c32.4,0,58.6,26.2,58.6,58.6C373.5,1489.7,366.9,1504.3,356.3,1514.9z"/>
			<polygon class="st0" points="472.7,1409.7 472.7,1452.2 533.2,1452.2 533.2,1494.7 472.7,1494.7 472.7,1532.1 555.1,1532.1 
				555.1,1569.5 431.5,1569.5 431.5,1409.7 417.3,1409.7 417.3,1371 555.1,1371 555.1,1409.7 			"/>
			<polygon class="st0" points="762.6,1371 762.6,1569.5 720,1569.5 720,1409.7 711,1409.7 711,1371 			"/>
			<polygon class="st0" points="945.5,1371 945.5,1569.5 905,1569.5 903,1566.5 824.4,1450 824.4,1569.5 781.9,1569.5 781.9,1409.7 
				771.6,1409.7 771.6,1371 822.4,1371 824.4,1374 903,1490.5 903,1371 			"/>
			<polygon class="st0" points="1230.2,1532.1 1230.2,1569.5 1105.9,1569.5 1105.9,1409.7 1096.9,1409.7 1096.9,1371 1148.4,1371 
				1148.4,1532.1 			"/>
			<polygon class="st0" points="1290.8,1409.7 1290.8,1452.2 1351.4,1452.2 1351.4,1494.7 1290.8,1494.7 1290.8,1532.1 
				1373.3,1532.1 1373.3,1569.5 1249.6,1569.5 1249.6,1409.7 1235.4,1409.7 1235.4,1371 1373.3,1371 1373.3,1409.7 			"/>
			<polygon class="st0" points="1009.9,1409.7 1009.9,1452.2 1070.5,1452.2 1070.5,1494.7 1009.9,1494.7 1009.9,1532.1 
				1092.4,1532.1 1092.4,1569.5 968.7,1569.5 968.7,1409.7 954.5,1409.7 954.5,1371 1092.4,1371 1092.4,1409.7 			"/>
			<path class="st0" d="M1522.8,1512.8h44.5c-15.9,33.5-50.1,56.7-89.7,56.7c-54.8,0-99.2-44.4-99.2-99.2
				c0-54.8,44.4-99.2,99.2-99.2c41.6,0,77.2,25.6,91.9,61.8h-45.6c-11.2-13.4-28.1-21.9-46.9-21.9c-33.8,0-61.2,27.4-61.2,61.2
				c0,33.8,27.4,61.2,61.2,61.2C1495.2,1533.4,1511.6,1525.4,1522.8,1512.8z"/>
			<path class="st0" d="M703.9,1514.7c0,18.6-6.2,33.1-18.6,43.7c-9,7.6-20.4,12.5-34.4,14.6c0,0,0,0-0.1,0
				c-5.3,0.8-10.9,1.2-16.9,1.2c-2,0-4-0.1-5.9-0.1c-19.6-1.7-45.6-10.9-52.1-47c-0.8-4.3-1.3-9-1.5-14.1h38.7
				c0,0-0.3,35.6,37.8,26.8c2.6-1,4.9-2.4,6.9-4.2c5-4.4,7.5-10.4,7.5-17.9c0-10.1-8.9-18.7-26.8-25.9c-6-2.4-10.7-4.3-13.9-5.9
				c-18.3-8.2-31.2-16.6-38.4-25.1c-7.3-8.5-11-18.8-11-31c0-16.6,6-30.1,18-40.4c12-10.3,27.9-15.5,47.7-15.5
				c7.2,0,13.7,0.8,19.8,2.3v-4.9h36.1v63.1h-36.1c-3.5-22.8-15-25.6-23.9-25.8c-2,0.1-3.9,0.3-5.6,0.6c-3.8,0.8-5.6,1-6.7,1.6
				c-1.1,0.7-2.2,1.4-3.2,2.3c-4.5,3.9-6.8,7.7-6.8,14.1c0,9.7,10.1,18.5,30.4,26.5c6.4,2.5,11.3,4.5,14.8,6.1
				c15.8,6.8,27.1,14.5,33.9,23C700.5,1491.2,703.9,1501.9,703.9,1514.7z"/>
		</g>
	</g>
</g>
</svg>
