<?xml version="1.0" encoding="utf-8"?>
<!-- Generator: Adobe Illustrator 24.0.2, SVG Export Plug-In . SVG Version: 6.00 Build 0)  -->
<svg version="1.1" id="Capa_4" xmlns="http://www.w3.org/2000/svg" xmlns:xlink="http://www.w3.org/1999/xlink" x="0px" y="0px"
	 viewBox="0 0 1800 407.4" style="enable-background:new 0 0 1800 407.4;" xml:space="preserve">
<style type="text/css">
	.st0{fill:#868787;}
</style>
<g>
	<g>
		<path class="st0" d="M271.4,125.6c-22-20.7-34.3-29.5-67.1-32.3c-5.1-0.4-20.6-0.1-20.6-0.1v221.2c0,0,13.3,0.4,17.7,0
			c40.3-3.3,55.1-18.6,74.7-39.2c18.2-22,25.6-40.1,28-72.6C300.5,168.1,291.5,146.6,271.4,125.6z M260.7,276
			c-26.1,33.2-61.5,26.6-61.5,26.6V102.3c0,0,35.5-5.6,67.6,34.6c15.3,25.2,20.3,36.8,22.5,65.9C289.3,231.8,280,255,260.7,276z"/>
		<path class="st0" d="M394,91v223.3h16.1V91H394z"/>
		<path class="st0" d="M620.3,93.1c32.1,0,59.5,10.8,82.2,32.7c22.6,21.8,33.9,48.2,33.9,79.2c0,31-11.2,57.4-33.9,79.2
			c-22.6,21.8-50,32.7-82.2,32.7c-32.1,0-59.5-10.8-82.2-32.7c-22.6-21.8-33.9-48.2-33.9-79.2c0-31,11.2-57.4,33.9-79.2
			C560.8,103.9,588.2,93.1,620.3,93.1z M620.3,312.5c30.6,0,54.6-10.8,72.5-32.4c17.9-21.5,26.8-46.7,26.8-75.2
			c0-28.5-8.9-53.6-26.8-75.1c-17.9-21.5-42-32.4-72.5-32.4s-54.6,10.8-72.5,32.4c-17.9,21.5-26.8,46.5-26.8,75.1
			c0,28.5,8.9,53.7,26.8,75.2C565.7,301.7,589.8,312.5,620.3,312.5z"/>
		<path class="st0" d="M913.2,296.4l-2.1-30.4c0-24.8-9.2-50.5-34.8-55.7c9.3-5,13.5-7.6,22.2-17.2c7.5-10.7,15.2-22.4,15.2-37.9
			c0-25.3-15.4-57.9-57.2-64.6h-25.9v223.3h16.1v-98.9c0,0,50-6.4,53.5,48.5v35.8c0,10.1,8.5,11.2,21.8,11.2
			C918.1,306.7,913.2,304,913.2,296.4z M846.6,207V98.7c0,0,56.6-3.5,54.8,56.9C899.6,213.2,846.6,207,846.6,207z"/>
		<path class="st0" d="M1109.8,91l-39,217.5c0,0.5-0.6,0.5-0.6,0l-37.6-202h0l-2.9-15.5h-15.9l2,10.9l0,0.1c0.2,1,0.5,2.1,0.7,3.2
			l37.4,200.9c1.3,6.4,5,9.5,11.3,9.5c6.1,0,9.7-2.8,10.8-8.3L1114.7,91H1109.8z"/>
		<path class="st0" d="M1223.8,97.3v92.4h52.6v4.5h-52.6v115.1h58.5v4.5h-74.6V106.4c0-4.8-1.1-9.4-3.4-13.6h78.1v4.5H1223.8z"/>
		<path class="st0" d="M1359.4,91v4.5h39v218.8h16.1V95.6h39V91H1359.4z"/>
		<path class="st0" d="M1522.2,91v4.5h39v218.8h16.1V95.6h39V91H1522.2z"/>
	</g>
</g>
</svg>
