<?xml version="1.0" encoding="utf-8"?>
<!-- Generator: Adobe Illustrator 24.0.2, SVG Export Plug-In . SVG Version: 6.00 Build 0)  -->
<svg version="1.1" id="Capa_3" xmlns="http://www.w3.org/2000/svg" xmlns:xlink="http://www.w3.org/1999/xlink" x="0px" y="0px"
	 viewBox="0 0 1800 544.2" style="enable-background:new 0 0 1800 544.2;" xml:space="preserve">
<style type="text/css">
	.st0{fill:#231F20;}
	.st1{fill:#D72125;}
</style>
<g>
	<g>
		<g>
			<path class="st0" d="M455.2,496l12.1-41.9l7.2,0c5.4,0,9.2,0.1,11.5,0.4c2.3,0.3,4.1,0.8,5.4,1.5c2.9,1.6,5,3.8,6.3,6.9
				c1.3,3,1.6,6.6,1.1,10.8c-0.5,4-1.7,7.6-3.5,10.6c-1.9,3-4.4,5.6-7.7,7.7c-2.3,1.5-4.9,2.5-7.9,3.1c-3,0.6-7.9,0.9-14.7,0.9
				l-1.6,0L455.2,496z M469.2,486.7c0.8,0.1,1.4,0.1,1.7,0.1c0.4,0,0.7,0,1,0c4.5,0,8.1-1.1,10.7-3.4c2.6-2.3,4.2-5.6,4.8-9.9
				c0.5-3.5-0.1-6.1-1.6-7.7c-1.5-1.6-4.2-2.4-8-2.4l-2.1,0L469.2,486.7z"/>
			<path class="st0" d="M500.1,496.1l11.9-41.9l11.5,0l-11.8,41.9L500.1,496.1z"/>
			<path class="st0" d="M531.6,496.1l-6.2-42l12,0l2.3,23.9c0.1,0.6,0.1,1.3,0.1,2.1c0,0.8,0,1.7-0.1,2.7c0.5-1.1,1-2,1.4-2.9
				c0.4-0.9,0.8-1.5,1.1-2l14-23.8l12.6,0l-27.3,42L531.6,496.1z"/>
			<path class="st0" d="M561.4,496.2l11.5-42l11.5,0L573,496.2L561.4,496.2z"/>
			<path class="st0" d="M587.7,481.7c1.6,1.9,3.1,3.3,4.6,4.2c1.5,0.9,3.2,1.3,4.9,1.3c1.4,0,2.6-0.3,3.5-1c0.9-0.7,1.5-1.6,1.6-2.7
				c0.2-1.5-1.4-3.2-4.6-5c-0.3-0.2-0.6-0.3-0.7-0.4c-3.2-1.7-5.3-3.4-6.3-5c-1.1-1.6-1.5-3.5-1.2-5.8c0.5-4.1,2.2-7.5,5.4-10.2
				c3.1-2.6,6.9-3.9,11.4-3.9c2.4,0,4.6,0.4,6.7,1.2c2.1,0.8,4,2,5.8,3.6l-5.7,8.3c-1.4-1.3-2.7-2.3-3.9-2.9
				c-1.2-0.6-2.3-0.9-3.4-0.9c-1.2,0-2.2,0.3-3,1c-0.8,0.7-1.3,1.5-1.4,2.4c-0.1,1.2,1.2,2.5,3.9,4c1,0.5,1.7,0.9,2.2,1.3
				c2.8,1.6,4.7,3.3,5.7,5c1,1.7,1.3,3.8,1.1,6.4c-0.5,4.5-2.4,8.1-5.9,10.8c-3.5,2.7-7.9,4.1-13.4,4c-2.9,0-5.5-0.6-7.8-1.8
				c-2.4-1.2-4.4-3-6.1-5.4L587.7,481.7z"/>
			<path class="st0" d="M616.8,496.3l11.1-42.1l11.6,0l-11.1,42.2L616.8,496.3z"/>
			<path class="st0" d="M660.6,497.5c-3.1,0-5.8-0.4-8.2-1.3c-2.4-0.8-4.5-2.1-6.3-3.8c-1.9-1.8-3.3-4-4.1-6.6
				c-0.9-2.6-1.2-5.4-0.9-8.3c0.3-3.2,1.1-6.1,2.4-8.8c1.3-2.7,3-5.2,5.1-7.4c2.5-2.6,5.5-4.7,8.9-6.1c3.4-1.4,7-2.1,10.8-2.1
				c6.4,0,11.4,1.8,15,5.4c3.6,3.6,5.2,8.4,4.6,14.2c-0.3,3.1-1.1,6.1-2.3,8.9c-1.3,2.8-3,5.3-5.1,7.5c-2.6,2.7-5.6,4.8-9,6.2
				C668.2,496.8,664.5,497.5,660.6,497.5z M666.6,463.5c-3.5,0-6.5,1.2-9.1,3.7c-2.6,2.5-4.1,5.5-4.4,9.2c-0.3,3.3,0.4,5.9,2.1,7.8
				c1.7,2,4.1,2.9,7.2,2.9c3.4,0,6.5-1.3,9.1-3.9c2.6-2.6,4.1-5.7,4.5-9.4c0.3-3-0.5-5.5-2.2-7.5C672,464.5,669.6,463.5,666.6,463.5
				z"/>
			<path class="st0" d="M689.5,496.4l10.6-42.3l13.1,0l7.2,20.8c0.1,0.2,0.2,0.5,0.3,0.9c0.8,2.3,1.3,4.3,1.6,6l0.1-1.1
				c0.1-0.8,0.2-1.6,0.4-2.6c0.2-0.9,0.4-2.1,0.7-3.4l5.1-20.7l11.4,0l-10.3,42.3l-12.7,0l-7.7-21.6c-0.6-1.6-1-2.8-1.3-3.9
				c-0.3-1-0.5-2-0.7-3.1l-0.1,1.2c-0.1,0.8-0.2,1.6-0.3,2.4c-0.1,0.9-0.4,2-0.7,3.4l-5.2,21.5L689.5,496.4z"/>
			<path class="st0" d="M780.4,497.7c-3.1,0-5.9-0.4-8.4-1.3c-2.5-0.8-4.6-2.1-6.5-3.8c-1.9-1.8-3.4-4-4.3-6.6
				c-1-2.6-1.3-5.4-1.1-8.3c0.3-3.2,1-6.1,2.2-8.9c1.2-2.7,2.9-5.2,5-7.5c2.5-2.6,5.5-4.7,8.9-6.1c3.4-1.4,7-2.1,10.9-2.1
				c6.5,0,11.6,1.8,15.3,5.5c3.7,3.7,5.4,8.4,5,14.3c-0.2,3.2-0.9,6.1-2.2,8.9c-1.2,2.8-2.9,5.3-5,7.5c-2.6,2.7-5.6,4.8-8.9,6.2
				C787.9,497,784.3,497.7,780.4,497.7z M785.6,463.5c-3.5,0-6.6,1.2-9.1,3.7c-2.6,2.5-4,5.6-4.3,9.3c-0.3,3.3,0.5,5.9,2.2,7.8
				c1.7,2,4.2,2.9,7.4,2.9c3.5,0,6.5-1.3,9.1-3.9c2.6-2.6,4.1-5.7,4.3-9.4c0.2-3.1-0.6-5.6-2.4-7.5
				C791.1,464.5,788.6,463.5,785.6,463.5z"/>
			<path class="st0" d="M836.5,474.5c2.7,0.5,4.8,1.6,6.1,3.2c1.3,1.7,1.9,3.8,1.8,6.4c-0.1,2.2-0.8,4.2-1.9,6
				c-1.1,1.8-2.5,3.3-4.3,4.3c-1.3,0.8-2.9,1.3-4.9,1.7c-1.9,0.3-5.1,0.5-9.6,0.5l-3,0l-11.3,0l9.9-42.5l9.8,0c3.8,0,6.4,0.1,8,0.3
				c1.6,0.2,2.9,0.5,4,0.9c1.7,0.7,3.1,1.8,4,3.4c1,1.6,1.4,3.4,1.2,5.4c-0.2,2.8-1.1,5.1-2.9,6.9
				C841.7,473,839.4,474.1,836.5,474.5z M822.6,488.3l1.4,0c3.5,0,5.9-0.4,7.1-1.2c1.2-0.8,1.9-2.3,2-4.4c0.1-1.6-0.3-2.7-1.3-3.3
				c-0.9-0.7-2.6-1-4.9-1l-2.1,0L822.6,488.3z M826.7,470.6l1,0c2.8,0,4.7-0.4,5.8-1.1c1.1-0.7,1.7-1.9,1.8-3.7
				c0.1-1.2-0.3-2.1-1.1-2.7c-0.8-0.6-2.2-0.9-4.1-0.9l-1.6,0L826.7,470.6z"/>
			<path class="st0" d="M859.1,496.7l-11.6,0l9.6-42.5l11.5,0c3.5,0,6.1,0.1,7.7,0.4c1.7,0.2,3.1,0.7,4.3,1.2c2.1,1,3.7,2.4,4.7,4.2
				c1,1.8,1.5,4,1.3,6.6c-0.2,3.5-1.4,6.5-3.7,8.8c-2.3,2.4-5.3,3.9-9.1,4.5l9.6,16.9l-13.3,0l-7.4-16.3L859.1,496.7z M864.2,473.5
				l3.7,0c2.3,0,4.1-0.5,5.4-1.5c1.3-1,2-2.5,2.1-4.4c0.1-1.8-0.4-3.1-1.5-4c-1.1-0.8-2.9-1.2-5.4-1.2l-1.7,0L864.2,473.5z"/>
			<path class="st0" d="M883.2,496.8l24.2-42.6l14.6,0l7.1,42.7l-11.9,0l-1.3-8.1l-15.3,0l-4.6,8.1L883.2,496.8z M905.5,479.2l9.2,0
				l-1.5-10c-0.1-1-0.2-1.9-0.3-2.6c-0.1-0.8-0.1-1.5-0.1-2.2c-0.5,1.2-0.9,2.2-1.3,3.1c-0.4,0.9-0.7,1.5-0.9,2L905.5,479.2z"/>
			<path class="st0" d="M936.1,482.1c1.7,1.9,3.4,3.3,5,4.2c1.6,0.9,3.3,1.3,5.1,1.3c1.5,0,2.7-0.3,3.6-1c0.9-0.7,1.4-1.6,1.4-2.8
				c0.1-1.6-1.6-3.2-5.1-5.1c-0.3-0.2-0.6-0.3-0.8-0.4c-3.4-1.8-5.6-3.4-6.8-5.1c-1.2-1.6-1.7-3.6-1.6-5.9c0.2-4.2,1.8-7.6,4.9-10.3
				c3-2.7,6.8-4,11.4-4c2.4,0,4.7,0.4,6.9,1.2c2.2,0.8,4.3,2.1,6.2,3.7l-5.4,8.4c-1.5-1.3-2.9-2.3-4.2-2.9c-1.3-0.6-2.4-1-3.5-1
				c-1.2,0-2.2,0.3-3,1c-0.8,0.7-1.3,1.5-1.3,2.5c-0.1,1.2,1.4,2.6,4.3,4c1,0.5,1.8,1,2.4,1.3c3,1.7,5.1,3.3,6.2,5.1
				c1.1,1.7,1.6,3.9,1.5,6.5c-0.2,4.6-2,8.3-5.4,11c-3.4,2.7-7.9,4.1-13.5,4.1c-2.9,0-5.7-0.6-8.2-1.9c-2.5-1.2-4.7-3-6.7-5.5
				L936.1,482.1z"/>
			<path class="st0" d="M1026.8,456.2l-2.4,11.8c-1.6-1.4-3.4-2.5-5.4-3.2c-2-0.7-4-1.1-6.1-1.1c-3.6,0-6.7,1.2-9.1,3.7
				c-2.5,2.5-3.7,5.6-3.9,9.5c-0.1,3.5,0.8,6.2,2.7,8.1c1.9,1.9,4.7,2.9,8.3,2.9c1.6,0,3.2-0.2,4.9-0.6c1.7-0.4,3.4-0.9,5.3-1.7
				l-2.2,11.1c-1.5,0.5-3.2,0.8-5,1.1c-1.8,0.2-3.8,0.4-5.9,0.4c-6.3,0-11.3-1.9-14.9-5.7c-3.6-3.8-5.3-8.8-5.1-15.1
				c0.1-3,0.7-5.9,1.8-8.6c1.1-2.7,2.6-5.2,4.6-7.4c2.3-2.6,5.1-4.6,8.4-6c3.3-1.4,7-2.1,11.1-2.1c2.3,0,4.6,0.3,6.7,0.8
				C1022.6,454.4,1024.7,455.2,1026.8,456.2z"/>
			<path class="st0" d="M1026.2,497l8.4-42.8l12,0l-8.3,42.9L1026.2,497z"/>
			<path class="st0" d="M1059.1,497.1l-10.6-42.9l12.5,0l4.8,24.5c0.1,0.6,0.2,1.3,0.3,2.1c0.1,0.8,0.1,1.7,0.2,2.7
				c0.4-1.1,0.8-2.1,1.2-2.9c0.4-0.9,0.7-1.6,0.9-2.1l12.3-24.3l13.1,0l-24.4,42.9L1059.1,497.1z"/>
			<path class="st0" d="M1090.2,497.1l7.9-43l12,0l-7.8,43L1090.2,497.1z"/>
			<path class="st0" d="M1112,497.2l7.7-43l11.9,0l-5.8,32.7l14.7,0l-1.8,10.3L1112,497.2z"/>
			<path class="st0" d="M1157.5,487.6l13.8,0l-1.6,9.7l-25.8,0l7.5-43l25.6,0l-1.7,9.9l-13.8,0l-1.2,7l12.8,0l-1.6,9.4l-12.9,0
				L1157.5,487.6z"/>
			<path class="st0" d="M1182.1,482.4c1.9,2,3.6,3.4,5.3,4.3c1.7,0.9,3.5,1.3,5.3,1.3c1.5,0,2.7-0.4,3.6-1.1
				c0.9-0.7,1.3-1.6,1.4-2.8c0-1.6-1.8-3.3-5.4-5.1c-0.3-0.2-0.6-0.3-0.8-0.4c-3.5-1.8-5.9-3.5-7.2-5.1c-1.3-1.6-1.9-3.6-1.9-5.9
				c0-4.2,1.5-7.7,4.5-10.4c3-2.7,6.8-4,11.5-4c2.5,0,4.8,0.4,7.1,1.3c2.3,0.8,4.4,2.1,6.5,3.7l-5.1,8.5c-1.6-1.3-3.1-2.3-4.4-3
				c-1.3-0.6-2.5-1-3.7-1c-1.2,0-2.2,0.3-3,1c-0.8,0.7-1.2,1.5-1.2,2.5c0,1.2,1.5,2.6,4.6,4.1c1.1,0.5,1.9,1,2.5,1.3
				c3.1,1.7,5.3,3.4,6.5,5.1c1.2,1.7,1.8,3.9,1.8,6.5c0,4.6-1.7,8.3-5,11.1c-3.3,2.8-7.9,4.2-13.6,4.1c-3,0-5.8-0.6-8.4-1.9
				c-2.6-1.2-4.9-3.1-7-5.5L1182.1,482.4z"/>
		</g>
		<g>
			<g>
				<path class="st1" d="M1472.6,45.8c-61.1,0.3-131.9,39.1-182.3,99.7l-24.2,72.4c-0.3-9.6-3-18.5-8.1-25.4
					c-14,25-24.4,52.3-30,81.1c-0.9,4.6-1.7,9.1-2.3,13.5c9.1-5.3,17.7-13,24.8-22.7l-11.8,35.3l-13.3,39.7
					c13.3,88.4,101.1,116.6,197.7,67.4c88.4-45.1,152.5-142.5,160.7-223.5C1591.6,105.6,1548.1,45.4,1472.6,45.8z M1557.2,190
					c-7,69-61.5,152-136.9,190.4c-100.1,51-189.2,4.4-166.3-113.4c21.3-109.6,125.3-193.6,208.4-194
					C1526.7,72.7,1563.9,124,1557.2,190z"/>
				<g>
					<path class="st0" d="M26.2,376.8l90.2-273.2l40.6,0c30.2,0,51.6,0.9,64.1,2.9c12.5,1.9,22.3,5.2,29.4,10
						c15.4,10.2,25.8,25.1,31.1,44.7c5.3,19.6,5.3,43,0,70c-5.1,26.2-13.7,49-25.7,68.6c-12,19.6-27.7,36.3-47,50
						c-13.6,9.5-28.9,16.3-45.8,20.4c-17,4.1-44.4,6.3-82.4,6.4l-8.9,0L26.2,376.8z M126.2,298.7c3,0.2,5.3,0.4,6.7,0.4
						c1.5,0,2.8,0.1,4.1,0c17.7-0.1,32.1-5.3,43.3-15.6c11.2-10.3,18.7-25.4,22.6-45.3c3.2-16.2,2.1-28-3.1-35.4
						c-5.2-7.4-15.4-11-30.3-11l-8.4,0L126.2,298.7z"/>
					<path class="st0" d="M339.4,375.3l-75.8,0.3l96.8-272.1l66.8,0c20.1,0,34.8,0.8,44.3,2.3c9.5,1.5,17.4,4.2,23.8,7.9
						c11.3,6.4,18.9,15.5,22.9,27.2c4,11.7,4.3,25.7,0.9,42c-4.7,22.5-14.9,41.3-30.4,56.5c-15.5,15.2-19.8,24.7-42.3,28.6l17.8,108
						l-77.1-0.8l-10.8-103.5L339.4,375.3z M387.1,231.1l15.6,0c9.8,0,17.8-2.5,24.1-7.3c6.3-4.9,10.3-11.9,12.3-21
						c1.8-8.6,0.7-14.9-3.4-18.7c-4.1-3.9-11.5-5.8-22.3-5.8l-7.3,0L387.1,231.1z"/>
					<path class="st0" d="M583.7,307.1l70.1-0.3L632.1,374L483,374.6L581,103.4l141,0l-22.6,68.2l-69,0.1l-13.6,38.5l65.6-0.1
						l-21.1,58.8l-65.9,0.2L583.7,307.1z"/>
					<path class="st0" d="M670.9,373.7l90-270.4l77.7,0l-89.9,270.2L670.9,373.7z"/>
					<path class="st0" d="M1032.1,103.2l-45.4,132.3c-2.7,8.5-4.9,15.7-6.6,21.6c-1.7,6-3.1,11.4-4.1,16.3l-1.4,6.8
						c0.1-10.9-1.1-23.6-3.6-38.2c-0.4-2.7-0.7-4.6-0.9-5.7l-17.1-133l-72.5,0l-92.7,269.9l74.9-0.3l45.9-136.5
						c1.3-4.1,2.4-7.9,3.5-11.3c0.5,3.2,1.2,6.7,1.8,10.5L939,372.5l69.5-0.3l92.5-269L1032.1,103.2z"/>
					<path class="st0" d="M1300.2,115.8l-0.1,0.3l-9.8,29.4l-24.2,72.4c-0.3-9.6-3-18.5-8.1-25.4c-2.1-2.9-4.7-5.5-7.6-7.6
						c-20.9-15.2-54.8-4.3-75.6,24.3c-20.8,28.7-20.7,64.2,0.2,79.4c13.8,10,33.2,8.7,50.8-1.5c9.1-5.3,17.7-13,24.8-22.7
						l-11.8,35.3l-13.3,39.7l-9.9,29.7c-8.3,3-17.3,5.2-27,6.8c-9.7,1.6-20,2.4-30.8,2.4c-32.4,0.2-56.1-11.6-71-35.2
						c-14.9-23.6-18.4-55.1-10.6-94.4c3.8-19,9.9-37,18.3-54.3c8.5-17.2,19-32.9,31.5-46.9c14.7-16.4,31.4-29,50.2-37.7
						c18.8-8.7,38.8-13,59.9-13c12,0,23.3,1.6,34,4.8C1280.7,104.7,1290.7,109.4,1300.2,115.8z"/>
					<path class="st0" d="M1419.5,182.6c-14,0.3-26.9,6-38.6,17.3c-11.7,11.3-19.2,25.1-22.4,41.6c-2.9,14.5-1.4,26.1,4.5,34.6
						c5.8,8.5,15.1,12.7,27.7,12.4c13.8-0.3,26.6-6.3,38.5-17.9c11.9-11.7,19.5-25.7,22.8-42.2c2.7-13.6,1-24.6-5.1-33.2
						C1440.7,186.5,1431.6,182.4,1419.5,182.6z M1538.3,193.4c-6.1,60.5-54,133.3-120,166.9c-87.7,44.7-165.8,3.8-145.8-99.4
						c18.7-96.1,109.8-169.7,182.7-170.1C1511.6,90.6,1544.2,135.5,1538.3,193.4z"/>
				</g>
			</g>
			<rect x="24.8" y="400.9" class="st1" width="1190.7" height="19"/>
		</g>
	</g>
	<g>
		<g>
			<path d="M1540.8,420.4c-3,0-5.7-0.5-8-1.4s-4.4-2.3-6-4c-1.7-1.7-2.9-3.8-3.8-6.2s-1.3-5.1-1.3-8c0-2.5,0.3-4.9,0.9-7.2
				c0.6-2.4,1.4-4.6,2.5-6.7c1.1-2.1,2.4-4,3.9-5.8c1.5-1.8,3.2-3.3,5-4.6c1.8-1.3,3.8-2.3,5.9-3c2.1-0.7,4.3-1.1,6.5-1.1
				c1.3,0,2.6,0.1,4,0.2c1.4,0.2,2.7,0.4,3.9,0.6c1.3,0.3,2.4,0.6,3.5,0.9c1.1,0.3,2.1,0.7,2.9,1l-2,10.7h-1.8l-1-5.9
				c0-0.2-0.1-0.4-0.2-0.5c-0.1-0.1-0.2-0.3-0.3-0.4c-0.1-0.1-0.2-0.2-0.3-0.3c-0.1-0.1-0.3-0.2-0.4-0.3c-0.6-0.4-1.3-0.8-2-1.2
				c-0.7-0.4-1.5-0.7-2.4-1c-0.8-0.3-1.8-0.5-2.7-0.7c-1-0.2-2-0.3-3.1-0.3c-1.6,0-3.1,0.3-4.5,0.9c-1.4,0.6-2.8,1.4-4,2.5
				c-1.2,1.1-2.4,2.4-3.3,3.8c-1,1.5-1.8,3.2-2.6,5c-0.7,1.8-1.3,3.8-1.6,6c-0.4,2.1-0.6,4.4-0.6,6.7c0,5.4,1.2,9.5,3.6,12.4
				c2.4,2.9,6,4.3,11,4.3c1.7,0,3.2-0.2,4.6-0.6c1.4-0.4,2.7-1,3.9-1.6c1.2-0.6,2.2-1.3,3.2-2c0.9-0.7,1.8-1.4,2.5-2h0.6l-0.7,3
				c-0.9,0.8-2,1.7-3.2,2.5c-1.2,0.8-2.5,1.6-3.8,2.2c-1.4,0.7-2.8,1.2-4.3,1.6C1543.9,420.2,1542.4,420.4,1540.8,420.4z"/>
			<path d="M1567.3,420c-0.8,0-1.5-0.1-2.2-0.4c-0.6-0.3-1.2-0.6-1.6-1c-0.4-0.4-0.8-0.9-1-1.4c-0.2-0.5-0.4-1-0.4-1.5
				c0-0.8,0.1-1.5,0.2-2.3c0.1-0.8,0.3-1.6,0.5-2.5l3.8-17.5c0.1-0.6,0.1-1.2-0.1-1.6c-0.2-0.4-0.7-0.8-1.4-1.1l-2.8-1.1v-0.9
				l11.4-2.3l-4.3,19.7c-0.1,0.5-0.2,1-0.3,1.5c-0.1,0.5-0.2,1.1-0.3,1.6c-0.1,0.6-0.2,1.1-0.3,1.6c-0.1,0.5-0.2,1-0.3,1.5
				c-0.1,0.4-0.1,0.8-0.2,1.2c0,0.4-0.1,0.6-0.1,0.8c0,0.2,0.1,0.5,0.2,0.8c0.1,0.3,0.3,0.5,0.6,0.8c0.3,0.3,0.6,0.5,1,0.7
				c0.4,0.2,0.9,0.3,1.4,0.3c0.1,0,0.4,0,0.7-0.1c0.3-0.1,0.7-0.1,1.1-0.2c0.4-0.1,0.8-0.2,1.2-0.3c0.4-0.1,0.7-0.2,1-0.3h0.5v1.5
				c-0.5,0.3-1.2,0.7-1.9,1c-0.7,0.3-1.5,0.6-2.3,0.8c-0.8,0.2-1.5,0.4-2.3,0.6C1568.5,419.9,1567.9,420,1567.3,420z M1572.8,378.3
				c-0.5,0-1-0.1-1.5-0.3c-0.5-0.2-0.9-0.5-1.2-0.8c-0.3-0.3-0.6-0.8-0.8-1.2c-0.2-0.5-0.3-1-0.3-1.6c0-0.5,0.1-1,0.3-1.5
				c0.2-0.5,0.5-0.9,0.8-1.2c0.3-0.3,0.8-0.6,1.2-0.8c0.5-0.2,1-0.3,1.5-0.3c0.6,0,1.1,0.1,1.6,0.3c0.5,0.2,0.9,0.5,1.3,0.8
				c0.4,0.3,0.6,0.8,0.9,1.2c0.2,0.5,0.3,1,0.3,1.5c0,0.6-0.1,1.1-0.3,1.6c-0.2,0.5-0.5,0.9-0.9,1.2c-0.4,0.3-0.8,0.6-1.3,0.8
				C1573.9,378.2,1573.4,378.3,1572.8,378.3z"/>
			<path d="M1601.9,388l2.4-0.5l-2.8,9.3c-1.1,3.7-2.1,8-3.1,12.8c-0.5,2.6-0.8,4.3-0.8,5.1s0.3,1.1,0.9,1.1c0.4,0,1-0.3,1.9-0.8
				c1.5-0.9,3-2,4.4-3.4l1.2,1.4c-2.8,2.5-4.6,4.1-5.4,4.6c-1.6,1.1-3.1,1.9-4.5,2.4c-0.9,0.3-1.8,0.5-2.7,0.5
				c-0.6,0-1.1-0.1-1.4-0.4c-0.3-0.3-0.5-0.7-0.5-1.3c0-0.4,0.1-0.9,0.3-1.5l1.5-5c-2.1,2.5-4.6,4.7-7.5,6.5
				c-1.8,1.1-3.4,1.7-4.9,1.7c-1.4,0-2.5-0.5-3.3-1.5c-1-1.3-1.5-3.1-1.5-5.3c0-2.6,0.7-5.5,2.1-8.7c1.4-3.2,3.2-6.1,5.6-8.7
				c2.3-2.6,4.8-4.5,7.3-5.7c2-0.9,4.5-1.4,7.6-1.4c0.8,0,1.6,0,2.4,0.1L1601.9,388z M1597.3,393.6c-1.3-0.3-2.4-0.4-3.3-0.4
				c-2.2,0-4.1,0.6-5.8,1.8c-1.6,1.2-3.2,3.4-4.6,6.5c-1.4,3.1-2.1,6.3-2.1,9.4c0,1.7,0.3,2.9,0.8,3.6c0.6,0.7,1.3,1.1,2.2,1.1
				c1.7,0,3.5-0.9,5.4-2.7c1.9-1.8,3.4-4.5,4.3-7.9L1597.3,393.6z"/>
			<path d="M1612.3,411.5c1,0,1.8,0.4,2.4,1.1c0.6,0.7,1,1.6,1,2.7c0,1.6-0.4,2.8-1.1,3.7c-0.8,0.9-1.7,1.4-2.9,1.4
				c-1,0-1.8-0.3-2.4-1c-0.7-0.7-1-1.5-1-2.6c0-1.5,0.5-2.9,1.4-4C1610.3,412,1611.2,411.5,1612.3,411.5z"/>
		</g>
		<g>
			<path d="M1669.6,419.5h-34.4l0.3-1.6l4-0.9c0.5-0.1,0.9-0.3,1.3-0.7c0.4-0.4,0.6-0.8,0.7-1.3l8.3-37.2c0.1-0.5,0.1-1-0.2-1.3
				c-0.2-0.4-0.6-0.6-1-0.7l-4.4-0.9l0.3-1.6h17.8l-0.3,1.6l-4.2,0.9c-0.5,0.1-1,0.4-1.3,0.7c-0.4,0.4-0.6,0.8-0.7,1.3l-8.7,39.1
				h17.3c0.2,0,0.4-0.1,0.6-0.2c0.2-0.1,0.4-0.3,0.5-0.5c0.2-0.2,0.3-0.4,0.4-0.6c0.1-0.2,0.2-0.4,0.3-0.5l4.5-8.8h1.8L1669.6,419.5
				z"/>
			<path d="M1683.3,420.1c-1,0-1.9-0.1-2.8-0.4c-0.8-0.2-1.6-0.6-2.2-1.1c-0.6-0.5-1.1-1-1.5-1.7c-0.3-0.6-0.5-1.4-0.5-2.2
				c0-0.3,0-0.7,0.1-1.2c0.1-0.5,0.2-1,0.3-1.6c0.1-0.6,0.2-1.1,0.4-1.7c0.1-0.5,0.2-1,0.3-1.5l4.1-19.2h-5.4v-1.5
				c1-0.1,2-0.3,2.8-0.5c0.8-0.2,1.5-0.5,2.1-0.8c0.6-0.4,1.1-0.9,1.5-1.5c0.4-0.6,0.8-1.4,1-2.4l1.1-4l4.9-1l-2,9.3h10.8l-0.8,2.5
				H1687l-3.6,16.8c-0.1,0.4-0.2,0.8-0.3,1.4c-0.1,0.6-0.3,1.2-0.4,1.8c-0.1,0.6-0.2,1.2-0.3,1.8c-0.1,0.6-0.1,1-0.1,1.4
				c0,0.6,0.2,1.1,0.5,1.5c0.3,0.4,0.8,0.8,1.3,1c0.5,0.3,1,0.5,1.6,0.6s1,0.2,1.5,0.2c0.3,0,0.7,0,1.2-0.1c0.5-0.1,1-0.2,1.6-0.3
				c0.5-0.1,1-0.3,1.5-0.4c0.5-0.1,0.9-0.3,1.1-0.4h0.5v1.5c-0.3,0.2-0.9,0.5-1.6,0.9c-0.7,0.4-1.5,0.8-2.4,1.2
				c-0.9,0.4-1.9,0.7-2.8,1C1685.2,420,1684.2,420.1,1683.3,420.1z"/>
			<path d="M1706.6,420.1c-1.6,0-3.1-0.3-4.4-0.9c-1.3-0.6-2.4-1.5-3.2-2.6c-0.9-1.1-1.5-2.4-2-3.9c-0.5-1.5-0.7-3.2-0.7-4.9
				c0-1.8,0.2-3.5,0.6-5.3c0.4-1.8,0.9-3.4,1.7-5s1.6-3.1,2.6-4.5c1-1.4,2.2-2.6,3.5-3.6c1.3-1,2.8-1.8,4.4-2.4s3.3-0.9,5.1-0.9
				c0.9,0,1.8,0.1,2.6,0.3c0.8,0.2,1.6,0.4,2.3,0.7c0.7,0.3,1.3,0.6,1.9,1c0.5,0.4,1,0.8,1.3,1.1l2.9-13.3c0.1-0.6,0.1-1.1-0.2-1.5
				c-0.2-0.4-0.7-0.7-1.4-1l-2.8-1.1v-0.9l11.4-2.6l-7.9,36.3c-0.2,0.8-0.4,1.6-0.6,2.5c-0.2,0.9-0.4,1.7-0.5,2.6
				c-0.2,0.8-0.3,1.6-0.4,2.3c-0.1,0.7-0.2,1.2-0.2,1.6c0,0.2,0.1,0.5,0.2,0.8c0.1,0.3,0.3,0.6,0.6,0.9c0.3,0.3,0.6,0.5,1,0.7
				c0.4,0.2,0.9,0.3,1.4,0.3c0.1,0,0.4,0,0.7-0.1c0.3-0.1,0.6-0.1,1-0.2c0.4-0.1,0.7-0.2,1.1-0.3c0.4-0.1,0.7-0.2,0.9-0.4h0.5v1.5
				c-0.5,0.3-1.1,0.6-1.8,0.9c-0.6,0.3-1.3,0.5-2,0.8c-0.7,0.2-1.4,0.4-2.2,0.5c-0.7,0.1-1.5,0.2-2.2,0.2c-0.8,0-1.6-0.2-2.2-0.5
				c-0.6-0.3-1.1-0.8-1.5-1.3c-0.4-0.5-0.7-1.1-0.9-1.7c-0.2-0.6-0.4-1.3-0.5-1.9c-1,1.1-1.9,2-2.7,2.7c-0.8,0.7-1.7,1.3-2.5,1.7
				c-0.8,0.4-1.6,0.7-2.4,0.9C1708.4,420,1707.5,420.1,1706.6,420.1z M1709.9,416.4c0.5,0,1-0.1,1.7-0.2c0.6-0.1,1.2-0.3,1.9-0.6
				c0.6-0.3,1.3-0.6,1.9-1.1c0.6-0.4,1.2-0.9,1.7-1.5l4.9-22c-0.5-0.2-1-0.5-1.6-0.6c-0.6-0.2-1.2-0.3-1.9-0.4
				c-0.7-0.1-1.3-0.2-2-0.2c-0.7,0-1.3-0.1-1.8-0.1c-1.4,0-2.6,0.2-3.8,0.7c-1.1,0.5-2.2,1.2-3.1,2c-0.9,0.8-1.7,1.8-2.4,3
				c-0.7,1.1-1.2,2.4-1.7,3.7c-0.4,1.3-0.8,2.7-1,4c-0.2,1.4-0.3,2.8-0.3,4.1c0,1.3,0.2,2.5,0.5,3.7s0.8,2.1,1.4,3
				c0.6,0.8,1.4,1.5,2.3,2C1707.5,416.2,1708.6,416.4,1709.9,416.4z"/>
			<path d="M1758.3,388l2.4-0.5l-2.8,9.3c-1.1,3.7-2.1,8-3.1,12.8c-0.5,2.6-0.8,4.3-0.8,5.1s0.3,1.1,0.9,1.1c0.4,0,1-0.3,1.9-0.8
				c1.5-0.9,3-2,4.4-3.4l1.2,1.4c-2.8,2.5-4.6,4.1-5.4,4.6c-1.6,1.1-3.1,1.9-4.5,2.4c-0.9,0.3-1.8,0.5-2.7,0.5
				c-0.6,0-1.1-0.1-1.4-0.4c-0.3-0.3-0.5-0.7-0.5-1.3c0-0.4,0.1-0.9,0.3-1.5l1.5-5c-2.1,2.5-4.6,4.7-7.5,6.5
				c-1.8,1.1-3.4,1.7-4.9,1.7c-1.4,0-2.5-0.5-3.3-1.5c-1-1.3-1.5-3.1-1.5-5.3c0-2.6,0.7-5.5,2.1-8.7c1.4-3.2,3.2-6.1,5.6-8.7
				c2.3-2.6,4.8-4.5,7.3-5.7c2-0.9,4.5-1.4,7.6-1.4c0.8,0,1.6,0,2.4,0.1L1758.3,388z M1753.8,393.6c-1.3-0.3-2.4-0.4-3.3-0.4
				c-2.2,0-4.1,0.6-5.8,1.8c-1.6,1.2-3.2,3.4-4.6,6.5c-1.4,3.1-2.1,6.3-2.1,9.4c0,1.7,0.3,2.9,0.8,3.6c0.6,0.7,1.3,1.1,2.2,1.1
				c1.7,0,3.5-0.9,5.4-2.7c1.9-1.8,3.4-4.5,4.3-7.9L1753.8,393.6z"/>
			<path d="M1771.8,411.5c1,0,1.8,0.4,2.4,1.1c0.6,0.7,1,1.6,1,2.7c0,1.6-0.4,2.8-1.1,3.7c-0.8,0.9-1.7,1.4-2.9,1.4
				c-1,0-1.8-0.3-2.4-1c-0.7-0.7-1-1.5-1-2.6c0-1.5,0.5-2.9,1.4-4C1769.8,412,1770.7,411.5,1771.8,411.5z"/>
		</g>
	</g>
</g>
</svg>
