<?xml version="1.0" encoding="utf-8"?>
<!-- Generator: Adobe Illustrator 24.0.2, SVG Export Plug-In . SVG Version: 6.00 Build 0)  -->
<svg version="1.1" id="Capa_2" xmlns="http://www.w3.org/2000/svg" xmlns:xlink="http://www.w3.org/1999/xlink" x="0px" y="0px"
	 viewBox="0 0 1800 519.7" style="enable-background:new 0 0 1800 519.7;" xml:space="preserve">
<style type="text/css">
	.st0{fill:url(#SVGID_1_);}
	.st1{fill:url(#SVGID_2_);}
	.st2{fill:url(#SVGID_3_);}
	.st3{fill:url(#SVGID_4_);}
	.st4{fill:url(#SVGID_5_);}
	.st5{fill:url(#SVGID_6_);}
	.st6{fill:url(#SVGID_7_);}
	.st7{fill:url(#SVGID_8_);}
	.st8{fill:url(#SVGID_9_);}
	.st9{fill:url(#SVGID_10_);}
	.st10{fill:url(#SVGID_11_);}
	.st11{fill:url(#SVGID_12_);}
	.st12{fill:url(#SVGID_13_);}
	.st13{fill:url(#SVGID_14_);}
	.st14{fill:url(#SVGID_15_);}
	.st15{fill:url(#SVGID_16_);}
	.st16{fill:url(#SVGID_17_);}
	.st17{fill:url(#SVGID_18_);}
	.st18{fill:url(#SVGID_19_);}
	.st19{fill:url(#SVGID_20_);}
	.st20{fill:url(#SVGID_21_);}
	.st21{fill:url(#SVGID_22_);}
	.st22{fill:url(#SVGID_23_);}
	.st23{fill:url(#SVGID_24_);}
	.st24{fill:url(#SVGID_25_);}
	.st25{fill:url(#SVGID_26_);}
	.st26{fill:url(#SVGID_27_);}
	.st27{fill:url(#SVGID_28_);}
	.st28{fill:url(#SVGID_29_);}
	.st29{fill:url(#SVGID_30_);}
	.st30{fill:url(#SVGID_31_);}
	.st31{fill:url(#SVGID_32_);}
</style>
<g>
	<g>
		<linearGradient id="SVGID_1_" gradientUnits="userSpaceOnUse" x1="28.9161" y1="218.0728" x2="490.7088" y2="218.0728">
			<stop  offset="0" style="stop-color:#24AAE1"/>
			<stop  offset="1" style="stop-color:#008FD3"/>
		</linearGradient>
		<path class="st0" d="M398.3,112.6l-60.6,45.7H158.5c-20.1,0-38.4,8.2-51.7,21.5c-5.6,5.6-10.3,12-13.8,19.1
			c-4,7.9-6.6,16.7-7.4,25.9h-0.3v126.1l-56.3,44.6V183.7c0-39.1,32-71.1,71.1-71.1H398.3z M431.9,88v25.8v34.3v124.1
			c0,11.7-2.8,22.7-7.7,32.6c-3.6,7.1-8.2,13.6-13.8,19.1c-13.3,13.3-31.6,21.5-51.7,21.5H142.6l-22.1,17.4l-10.6,8.4l-24.7,19.6
			v3.2c4.8,1,9.7,1.6,14.8,1.6h319c39.1,0,71.1-32,71.1-71.1l0.5-283.7L431.9,88z"/>
		<g>
			<linearGradient id="SVGID_2_" gradientUnits="userSpaceOnUse" x1="85.2534" y1="219.4324" x2="431.8749" y2="219.4324">
				<stop  offset="0" style="stop-color:#223C90"/>
				<stop  offset="1" style="stop-color:#164390"/>
			</linearGradient>
			<path class="st1" d="M181.9,158.3c-26.6,0-49.3,16.9-57.7,40.6c-2.3,6.5-3.6,13.4-3.6,20.7V323l-28.3,22.4h0l-7,5.6V231.5
				c0-2.2,0.1-4.5,0.3-6.7c0.8-9.2,3.4-18,7.4-25.9c3.5-7.1,8.2-13.6,13.8-19.1c13.3-13.3,31.6-21.5,51.7-21.5H181.9z M400,112v172
				c0,7.3-1.3,14.2-3.6,20.7c-8.5,23.7-31.1,40.6-57.8,40.6h20c20.1,0,38.4-8.2,51.7-21.5c5.6-5.6,10.3-12,13.8-19.1
				c4.9-9.8,7.7-20.9,7.7-32.6V88L400,112z"/>
			<linearGradient id="SVGID_3_" gradientUnits="userSpaceOnUse" x1="167.3644" y1="251.8623" x2="353.1556" y2="251.8623">
				<stop  offset="0" style="stop-color:#21A9E1"/>
				<stop  offset="1" style="stop-color:#23398F"/>
			</linearGradient>
			<path class="st2" d="M252.9,183.4v137.8h-85.6v-92.7l0.6-0.3L252.9,183.4z M352.6,228.1l-86.4-45.5v138.5h87v-92.7L352.6,228.1z"
				/>
		</g>
	</g>
	<g>
		<g>
			<linearGradient id="SVGID_4_" gradientUnits="userSpaceOnUse" x1="757.0974" y1="456.8044" x2="789.9951" y2="456.8044">
				<stop  offset="0" style="stop-color:#005486"/>
				<stop  offset="1" style="stop-color:#1A308B"/>
			</linearGradient>
			<path class="st3" d="M757.1,478.3v-42.9H771c5.3,0,8.7,0.2,10.3,0.6c2.5,0.6,4.5,2,6.2,4.2c1.7,2.2,2.5,4.9,2.5,8.4
				c0,2.6-0.5,4.9-1.4,6.6c-1,1.8-2.2,3.2-3.6,4.2c-1.5,1-3,1.7-4.5,2c-2.1,0.4-5.1,0.6-9,0.6h-5.7v16.2H757.1z M765.8,442.6v12.2
				h4.7c3.4,0,5.7-0.2,6.9-0.7c1.2-0.4,2.1-1.2,2.7-2.1c0.7-1,1-2.1,1-3.3c0-1.6-0.5-2.9-1.4-3.9c-0.9-1-2.1-1.6-3.5-1.9
				c-1-0.2-3.1-0.3-6.2-0.3H765.8z"/>
			<linearGradient id="SVGID_5_" gradientUnits="userSpaceOnUse" x1="797.3224" y1="456.8044" x2="835.9326" y2="456.8044">
				<stop  offset="0" style="stop-color:#005486"/>
				<stop  offset="1" style="stop-color:#1A308B"/>
			</linearGradient>
			<path class="st4" d="M797.3,478.3v-42.9h18.3c4.6,0,7.9,0.4,10,1.2c2.1,0.8,3.7,2.1,5,4.1c1.3,2,1.9,4.2,1.9,6.8
				c0,3.2-0.9,5.9-2.8,8c-1.9,2.1-4.7,3.4-8.5,4c1.9,1.1,3.4,2.3,4.6,3.6c1.2,1.3,2.9,3.6,4.9,7l5.2,8.4h-10.4l-6.3-9.3
				c-2.2-3.3-3.7-5.4-4.6-6.3c-0.8-0.9-1.7-1.5-2.6-1.8c-0.9-0.3-2.4-0.5-4.4-0.5H806v17.9H797.3z M806,453.5h6.4
				c4.2,0,6.8-0.2,7.8-0.5c1-0.4,1.8-1,2.4-1.8c0.6-0.9,0.9-1.9,0.9-3.2c0-1.4-0.4-2.6-1.2-3.5c-0.8-0.9-1.9-1.5-3.3-1.7
				c-0.7-0.1-2.8-0.1-6.3-0.1H806V453.5z"/>
			<linearGradient id="SVGID_6_" gradientUnits="userSpaceOnUse" x1="839.0425" y1="456.8044" x2="880.6993" y2="456.8044">
				<stop  offset="0" style="stop-color:#005486"/>
				<stop  offset="1" style="stop-color:#1A308B"/>
			</linearGradient>
			<path class="st5" d="M839,457.1c0-4.4,0.7-8,2-11c1-2.2,2.3-4.1,4-5.9c1.7-1.7,3.5-3,5.6-3.9c2.7-1.1,5.8-1.7,9.3-1.7
				c6.3,0,11.4,2,15.2,5.9c3.8,3.9,5.7,9.4,5.7,16.4c0,6.9-1.9,12.4-5.7,16.3c-3.8,3.9-8.8,5.9-15.1,5.9c-6.4,0-11.5-1.9-15.2-5.8
				C840.9,469.3,839,463.9,839,457.1z M848,456.8c0,4.9,1.1,8.5,3.4,11.1c2.2,2.5,5.1,3.8,8.6,3.8c3.5,0,6.3-1.2,8.5-3.7
				c2.2-2.5,3.3-6.2,3.3-11.2c0-4.9-1.1-8.6-3.2-11c-2.2-2.4-5-3.6-8.6-3.6c-3.6,0-6.5,1.2-8.6,3.7C849.1,448.1,848,451.8,848,456.8
				z"/>
			<linearGradient id="SVGID_7_" gradientUnits="userSpaceOnUse" x1="883.1931" y1="456.8044" x2="923.3558" y2="456.8044">
				<stop  offset="0" style="stop-color:#005486"/>
				<stop  offset="1" style="stop-color:#1A308B"/>
			</linearGradient>
			<path class="st6" d="M898.9,478.3v-18.1l-15.7-24.9h10.2l10.1,17l9.9-17h10l-15.8,24.9v18H898.9z"/>
			<linearGradient id="SVGID_8_" gradientUnits="userSpaceOnUse" x1="927.8416" y1="456.8044" x2="960.5049" y2="456.8044">
				<stop  offset="0" style="stop-color:#005486"/>
				<stop  offset="1" style="stop-color:#1A308B"/>
			</linearGradient>
			<path class="st7" d="M927.8,478.3v-42.9h31.8v7.3h-23.2v9.5h21.6v7.2h-21.6V471h24v7.2H927.8z"/>
			<linearGradient id="SVGID_9_" gradientUnits="userSpaceOnUse" x1="966.5141" y1="456.8044" x2="1003.9232" y2="456.8044">
				<stop  offset="0" style="stop-color:#005486"/>
				<stop  offset="1" style="stop-color:#1A308B"/>
			</linearGradient>
			<path class="st8" d="M995.5,462.5l8.4,2.7c-1.3,4.7-3.4,8.2-6.4,10.4c-3,2.3-6.8,3.4-11.4,3.4c-5.7,0-10.4-1.9-14.1-5.8
				c-3.7-3.9-5.5-9.2-5.5-16c0-7.1,1.8-12.7,5.5-16.7c3.7-4,8.5-5.9,14.6-5.9c5.3,0,9.5,1.6,12.8,4.7c2,1.8,3.4,4.5,4.4,7.9
				l-8.6,2.1c-0.5-2.2-1.6-4-3.2-5.3c-1.6-1.3-3.6-1.9-5.9-1.9c-3.2,0-5.8,1.1-7.7,3.4c-2,2.3-3,6-3,11.1c0,5.4,1,9.3,2.9,11.6
				c2,2.3,4.5,3.5,7.6,3.5c2.3,0,4.3-0.7,5.9-2.2C993.6,467.9,994.8,465.6,995.5,462.5z"/>
			<linearGradient id="SVGID_10_" gradientUnits="userSpaceOnUse" x1="1008.4685" y1="456.8044" x2="1042.5966" y2="456.8044">
				<stop  offset="0" style="stop-color:#005486"/>
				<stop  offset="1" style="stop-color:#1A308B"/>
			</linearGradient>
			<path class="st9" d="M1021.2,478.3v-35.7h-12.7v-7.3h34.1v7.3h-12.7v35.7H1021.2z"/>
			<linearGradient id="SVGID_11_" gradientUnits="userSpaceOnUse" x1="1045.5298" y1="456.8044" x2="1087.1865" y2="456.8044">
				<stop  offset="0" style="stop-color:#005486"/>
				<stop  offset="1" style="stop-color:#1A308B"/>
			</linearGradient>
			<path class="st10" d="M1045.5,457.1c0-4.4,0.7-8,2-11c1-2.2,2.3-4.1,4-5.9c1.7-1.7,3.5-3,5.6-3.9c2.7-1.1,5.8-1.7,9.3-1.7
				c6.3,0,11.4,2,15.2,5.9c3.8,3.9,5.7,9.4,5.7,16.4c0,6.9-1.9,12.4-5.7,16.3c-3.8,3.9-8.8,5.9-15.1,5.9c-6.4,0-11.5-1.9-15.2-5.8
				C1047.4,469.3,1045.5,463.9,1045.5,457.1z M1054.5,456.8c0,4.9,1.1,8.5,3.4,11.1c2.2,2.5,5.1,3.8,8.6,3.8s6.3-1.2,8.5-3.7
				c2.2-2.5,3.3-6.2,3.3-11.2c0-4.9-1.1-8.6-3.2-11c-2.2-2.4-5-3.6-8.6-3.6s-6.5,1.2-8.6,3.7
				C1055.6,448.1,1054.5,451.8,1054.5,456.8z"/>
			<linearGradient id="SVGID_12_" gradientUnits="userSpaceOnUse" x1="1091.937" y1="456.8191" x2="1126.856" y2="456.8191">
				<stop  offset="0" style="stop-color:#005486"/>
				<stop  offset="1" style="stop-color:#1A308B"/>
			</linearGradient>
			<path class="st11" d="M1091.9,464.3l8.4-0.8c0.5,2.8,1.5,4.9,3.1,6.2c1.6,1.3,3.6,2,6.3,2c2.8,0,4.9-0.6,6.3-1.8
				c1.4-1.2,2.1-2.6,2.1-4.1c0-1-0.3-1.9-0.9-2.6c-0.6-0.7-1.6-1.3-3.1-1.9c-1-0.4-3.3-1-6.9-1.9c-4.6-1.2-7.9-2.6-9.8-4.2
				c-2.6-2.4-4-5.2-4-8.6c0-2.2,0.6-4.2,1.9-6.1c1.2-1.9,3-3.4,5.4-4.4c2.3-1,5.2-1.5,8.5-1.5c5.4,0,9.4,1.2,12.2,3.5
				c2.7,2.4,4.2,5.5,4.3,9.5l-8.7,0.4c-0.4-2.2-1.2-3.8-2.4-4.8c-1.2-1-3.1-1.4-5.5-1.4c-2.5,0-4.5,0.5-5.9,1.6
				c-0.9,0.7-1.4,1.6-1.4,2.7c0,1,0.4,1.9,1.3,2.6c1.1,0.9,3.7,1.9,8,2.9c4.2,1,7.3,2,9.4,3.1c2,1.1,3.6,2.5,4.7,4.4
				c1.1,1.8,1.7,4.1,1.7,6.8c0,2.5-0.7,4.8-2.1,6.9c-1.4,2.1-3.3,3.7-5.8,4.8c-2.5,1-5.6,1.6-9.3,1.6c-5.4,0-9.6-1.3-12.5-3.8
				C1094.2,472.8,1092.5,469.1,1091.9,464.3z"/>
			<linearGradient id="SVGID_13_" gradientUnits="userSpaceOnUse" x1="1145.6422" y1="456.8044" x2="1185.8049" y2="456.8044">
				<stop  offset="0" style="stop-color:#005486"/>
				<stop  offset="1" style="stop-color:#1A308B"/>
			</linearGradient>
			<path class="st12" d="M1161.4,478.3v-18.1l-15.7-24.9h10.2l10.1,17l9.9-17h10l-15.8,24.9v18H1161.4z"/>
			<linearGradient id="SVGID_14_" gradientUnits="userSpaceOnUse" x1="1204.5326" y1="456.8044" x2="1241.9417" y2="456.8044">
				<stop  offset="0" style="stop-color:#005486"/>
				<stop  offset="1" style="stop-color:#1A308B"/>
			</linearGradient>
			<path class="st13" d="M1233.5,462.5l8.4,2.7c-1.3,4.7-3.4,8.2-6.4,10.4c-3,2.3-6.8,3.4-11.4,3.4c-5.7,0-10.4-1.9-14.1-5.8
				c-3.7-3.9-5.5-9.2-5.5-16c0-7.1,1.8-12.7,5.5-16.7c3.7-4,8.5-5.9,14.6-5.9c5.3,0,9.5,1.6,12.8,4.7c2,1.8,3.4,4.5,4.4,7.9
				l-8.6,2.1c-0.5-2.2-1.6-4-3.2-5.3c-1.6-1.3-3.6-1.9-5.9-1.9c-3.2,0-5.8,1.1-7.7,3.4c-2,2.3-3,6-3,11.1c0,5.4,1,9.3,2.9,11.6
				c2,2.3,4.5,3.5,7.6,3.5c2.3,0,4.3-0.7,5.9-2.2C1231.6,467.9,1232.8,465.6,1233.5,462.5z"/>
			<linearGradient id="SVGID_15_" gradientUnits="userSpaceOnUse" x1="1247.8043" y1="456.8044" x2="1289.4611" y2="456.8044">
				<stop  offset="0" style="stop-color:#005486"/>
				<stop  offset="1" style="stop-color:#1A308B"/>
			</linearGradient>
			<path class="st14" d="M1247.8,457.1c0-4.4,0.7-8,2-11c1-2.2,2.3-4.1,4-5.9c1.7-1.7,3.5-3,5.6-3.9c2.7-1.1,5.8-1.7,9.3-1.7
				c6.3,0,11.4,2,15.2,5.9c3.8,3.9,5.7,9.4,5.7,16.4c0,6.9-1.9,12.4-5.7,16.3c-3.8,3.9-8.8,5.9-15.1,5.9c-6.4,0-11.5-1.9-15.2-5.8
				C1249.7,469.3,1247.8,463.9,1247.8,457.1z M1256.7,456.8c0,4.9,1.1,8.5,3.4,11.1c2.2,2.5,5.1,3.8,8.6,3.8s6.3-1.2,8.5-3.7
				c2.2-2.5,3.3-6.2,3.3-11.2c0-4.9-1.1-8.6-3.2-11c-2.2-2.4-5-3.6-8.6-3.6c-3.6,0-6.5,1.2-8.6,3.7
				C1257.8,448.1,1256.7,451.8,1256.7,456.8z"/>
			<linearGradient id="SVGID_16_" gradientUnits="userSpaceOnUse" x1="1296.4965" y1="456.8044" x2="1330.5659" y2="456.8044">
				<stop  offset="0" style="stop-color:#005486"/>
				<stop  offset="1" style="stop-color:#1A308B"/>
			</linearGradient>
			<path class="st15" d="M1296.5,478.3v-42.9h8.4l17.6,28.7v-28.7h8.1v42.9h-8.7l-17.3-28v28H1296.5z"/>
			<linearGradient id="SVGID_17_" gradientUnits="userSpaceOnUse" x1="1337.7175" y1="456.8191" x2="1372.6366" y2="456.8191">
				<stop  offset="0" style="stop-color:#005486"/>
				<stop  offset="1" style="stop-color:#1A308B"/>
			</linearGradient>
			<path class="st16" d="M1337.7,464.3l8.4-0.8c0.5,2.8,1.5,4.9,3.1,6.2c1.6,1.3,3.6,2,6.3,2c2.8,0,4.9-0.6,6.3-1.8
				c1.4-1.2,2.1-2.6,2.1-4.1c0-1-0.3-1.9-0.9-2.6c-0.6-0.7-1.6-1.3-3.1-1.9c-1-0.4-3.3-1-6.9-1.9c-4.6-1.2-7.9-2.6-9.8-4.2
				c-2.6-2.4-4-5.2-4-8.6c0-2.2,0.6-4.2,1.9-6.1c1.2-1.9,3-3.4,5.4-4.4c2.3-1,5.2-1.5,8.5-1.5c5.4,0,9.4,1.2,12.2,3.5
				c2.7,2.4,4.2,5.5,4.3,9.5l-8.7,0.4c-0.4-2.2-1.2-3.8-2.4-4.8c-1.2-1-3.1-1.4-5.5-1.4c-2.5,0-4.5,0.5-5.9,1.6
				c-0.9,0.7-1.4,1.6-1.4,2.7c0,1,0.4,1.9,1.3,2.6c1.1,0.9,3.7,1.9,8,2.9c4.2,1,7.3,2,9.4,3.1c2,1.1,3.6,2.5,4.7,4.4
				c1.1,1.8,1.7,4.1,1.7,6.8c0,2.5-0.7,4.8-2.1,6.9c-1.4,2.1-3.3,3.7-5.8,4.8c-2.5,1-5.6,1.6-9.3,1.6c-5.4,0-9.6-1.3-12.5-3.8
				C1340,472.8,1338.3,469.1,1337.7,464.3z"/>
			<linearGradient id="SVGID_18_" gradientUnits="userSpaceOnUse" x1="1377.0345" y1="456.8044" x2="1411.1626" y2="456.8044">
				<stop  offset="0" style="stop-color:#005486"/>
				<stop  offset="1" style="stop-color:#1A308B"/>
			</linearGradient>
			<path class="st17" d="M1389.8,478.3v-35.7H1377v-7.3h34.1v7.3h-12.7v35.7H1389.8z"/>
			<linearGradient id="SVGID_19_" gradientUnits="userSpaceOnUse" x1="1416.9677" y1="456.8044" x2="1455.5778" y2="456.8044">
				<stop  offset="0" style="stop-color:#005486"/>
				<stop  offset="1" style="stop-color:#1A308B"/>
			</linearGradient>
			<path class="st18" d="M1417,478.3v-42.9h18.3c4.6,0,7.9,0.4,10,1.2c2.1,0.8,3.7,2.1,5,4.1c1.2,2,1.9,4.2,1.9,6.8
				c0,3.2-0.9,5.9-2.8,8c-1.9,2.1-4.7,3.4-8.5,4c1.9,1.1,3.4,2.3,4.6,3.6c1.2,1.3,2.9,3.6,4.9,7l5.2,8.4h-10.4l-6.3-9.3
				c-2.2-3.3-3.7-5.4-4.6-6.3c-0.8-0.9-1.7-1.5-2.6-1.8c-0.9-0.3-2.4-0.5-4.4-0.5h-1.8v17.9H1417z M1425.6,453.5h6.4
				c4.2,0,6.8-0.2,7.8-0.5c1-0.4,1.8-1,2.4-1.8c0.6-0.9,0.9-1.9,0.9-3.2c0-1.4-0.4-2.6-1.2-3.5c-0.8-0.9-1.9-1.5-3.3-1.7
				c-0.7-0.1-2.8-0.1-6.3-0.1h-6.8V453.5z"/>
			<linearGradient id="SVGID_20_" gradientUnits="userSpaceOnUse" x1="1460.3859" y1="457.1706" x2="1494.6311" y2="457.1706">
				<stop  offset="0" style="stop-color:#005486"/>
				<stop  offset="1" style="stop-color:#1A308B"/>
			</linearGradient>
			<path class="st19" d="M1460.4,435.3h8.7v23.3c0,3.7,0.1,6.1,0.3,7.2c0.4,1.8,1.3,3.2,2.7,4.2c1.4,1.1,3.3,1.6,5.7,1.6
				c2.5,0,4.3-0.5,5.6-1.5c1.2-1,2-2.2,2.3-3.7c0.3-1.5,0.4-3.9,0.4-7.3v-23.8h8.7v22.6c0,5.2-0.2,8.8-0.7,10.9
				c-0.5,2.1-1.3,3.9-2.6,5.4c-1.3,1.5-2.9,2.6-5.1,3.5c-2.1,0.9-4.9,1.3-8.3,1.3c-4.1,0-7.2-0.5-9.3-1.4c-2.1-0.9-3.8-2.2-5-3.7
				c-1.2-1.5-2-3.1-2.4-4.8c-0.6-2.5-0.8-6.1-0.8-10.9V435.3z"/>
			<linearGradient id="SVGID_21_" gradientUnits="userSpaceOnUse" x1="1502.4281" y1="456.8044" x2="1539.8372" y2="456.8044">
				<stop  offset="0" style="stop-color:#005486"/>
				<stop  offset="1" style="stop-color:#1A308B"/>
			</linearGradient>
			<path class="st20" d="M1531.4,462.5l8.4,2.7c-1.3,4.7-3.4,8.2-6.4,10.4c-3,2.3-6.8,3.4-11.4,3.4c-5.7,0-10.4-1.9-14.1-5.8
				c-3.7-3.9-5.5-9.2-5.5-16c0-7.1,1.8-12.7,5.5-16.7c3.7-4,8.5-5.9,14.6-5.9c5.3,0,9.5,1.6,12.8,4.7c2,1.8,3.4,4.5,4.4,7.9
				l-8.6,2.1c-0.5-2.2-1.6-4-3.2-5.3c-1.6-1.3-3.6-1.9-5.9-1.9c-3.2,0-5.8,1.1-7.7,3.4c-2,2.3-3,6-3,11.1c0,5.4,1,9.3,2.9,11.6
				c2,2.3,4.5,3.5,7.6,3.5c2.3,0,4.3-0.7,5.9-2.2C1529.5,467.9,1530.7,465.6,1531.4,462.5z"/>
			<linearGradient id="SVGID_22_" gradientUnits="userSpaceOnUse" x1="1545.9342" y1="456.8044" x2="1583.3433" y2="456.8044">
				<stop  offset="0" style="stop-color:#005486"/>
				<stop  offset="1" style="stop-color:#1A308B"/>
			</linearGradient>
			<path class="st21" d="M1574.9,462.5l8.4,2.7c-1.3,4.7-3.4,8.2-6.4,10.4c-3,2.3-6.8,3.4-11.4,3.4c-5.7,0-10.4-1.9-14.1-5.8
				c-3.7-3.9-5.5-9.2-5.5-16c0-7.1,1.8-12.7,5.5-16.7c3.7-4,8.5-5.9,14.6-5.9c5.3,0,9.5,1.6,12.8,4.7c2,1.8,3.4,4.5,4.4,7.9
				l-8.6,2.1c-0.5-2.2-1.6-4-3.2-5.3c-1.6-1.3-3.6-1.9-5.9-1.9c-3.2,0-5.8,1.1-7.7,3.4c-2,2.3-3,6-3,11.1c0,5.4,1,9.3,2.9,11.6
				c2,2.3,4.5,3.5,7.6,3.5c2.3,0,4.3-0.7,5.9-2.2C1573,467.9,1574.2,465.6,1574.9,462.5z"/>
			<linearGradient id="SVGID_23_" gradientUnits="userSpaceOnUse" x1="1590.7008" y1="456.8044" x2="1599.3721" y2="456.8044">
				<stop  offset="0" style="stop-color:#005486"/>
				<stop  offset="1" style="stop-color:#1A308B"/>
			</linearGradient>
			<path class="st22" d="M1590.7,478.3v-42.9h8.7v42.9H1590.7z"/>
			<linearGradient id="SVGID_24_" gradientUnits="userSpaceOnUse" x1="1606.0549" y1="456.8044" x2="1647.7117" y2="456.8044">
				<stop  offset="0" style="stop-color:#005486"/>
				<stop  offset="1" style="stop-color:#1A308B"/>
			</linearGradient>
			<path class="st23" d="M1606.1,457.1c0-4.4,0.7-8,2-11c1-2.2,2.3-4.1,4-5.9c1.7-1.7,3.5-3,5.6-3.9c2.7-1.1,5.8-1.7,9.3-1.7
				c6.3,0,11.4,2,15.2,5.9c3.8,3.9,5.7,9.4,5.7,16.4c0,6.9-1.9,12.4-5.7,16.3c-3.8,3.9-8.8,5.9-15.1,5.9c-6.4,0-11.5-1.9-15.2-5.8
				C1607.9,469.3,1606.1,463.9,1606.1,457.1z M1615,456.8c0,4.9,1.1,8.5,3.4,11.1c2.2,2.5,5.1,3.8,8.6,3.8s6.3-1.2,8.5-3.7
				c2.2-2.5,3.3-6.2,3.3-11.2c0-4.9-1.1-8.6-3.2-11c-2.2-2.4-5-3.6-8.6-3.6s-6.5,1.2-8.6,3.7C1616.1,448.1,1615,451.8,1615,456.8z"
				/>
			<linearGradient id="SVGID_25_" gradientUnits="userSpaceOnUse" x1="1654.7471" y1="456.8044" x2="1688.8165" y2="456.8044">
				<stop  offset="0" style="stop-color:#005486"/>
				<stop  offset="1" style="stop-color:#1A308B"/>
			</linearGradient>
			<path class="st24" d="M1654.7,478.3v-42.9h8.4l17.6,28.7v-28.7h8.1v42.9h-8.7l-17.3-28v28H1654.7z"/>
			<linearGradient id="SVGID_26_" gradientUnits="userSpaceOnUse" x1="1698.1653" y1="456.8044" x2="1730.8286" y2="456.8044">
				<stop  offset="0" style="stop-color:#005486"/>
				<stop  offset="1" style="stop-color:#1A308B"/>
			</linearGradient>
			<path class="st25" d="M1698.2,478.3v-42.9h31.8v7.3h-23.2v9.5h21.6v7.2h-21.6V471h24v7.2H1698.2z"/>
			<linearGradient id="SVGID_27_" gradientUnits="userSpaceOnUse" x1="1736.1649" y1="456.8191" x2="1771.0839" y2="456.8191">
				<stop  offset="0" style="stop-color:#005486"/>
				<stop  offset="1" style="stop-color:#1A308B"/>
			</linearGradient>
			<path class="st26" d="M1736.2,464.3l8.4-0.8c0.5,2.8,1.5,4.9,3.1,6.2c1.6,1.3,3.6,2,6.3,2c2.8,0,4.9-0.6,6.3-1.8
				c1.4-1.2,2.1-2.6,2.1-4.1c0-1-0.3-1.9-0.9-2.6c-0.6-0.7-1.6-1.3-3.1-1.9c-1-0.4-3.3-1-6.9-1.9c-4.6-1.2-7.9-2.6-9.8-4.2
				c-2.6-2.4-4-5.2-4-8.6c0-2.2,0.6-4.2,1.9-6.1c1.2-1.9,3-3.4,5.4-4.4c2.3-1,5.2-1.5,8.5-1.5c5.4,0,9.4,1.2,12.2,3.5
				c2.7,2.4,4.2,5.5,4.3,9.5l-8.7,0.4c-0.4-2.2-1.2-3.8-2.4-4.8c-1.2-1-3.1-1.4-5.5-1.4c-2.5,0-4.5,0.5-5.9,1.6
				c-0.9,0.7-1.4,1.6-1.4,2.7c0,1,0.4,1.9,1.3,2.6c1.1,0.9,3.7,1.9,8,2.9c4.2,1,7.3,2,9.4,3.1c2,1.1,3.6,2.5,4.7,4.4
				c1.1,1.8,1.7,4.1,1.7,6.8c0,2.5-0.7,4.8-2.1,6.9c-1.4,2.1-3.3,3.7-5.8,4.8c-2.5,1-5.6,1.6-9.3,1.6c-5.4,0-9.6-1.3-12.5-3.8
				C1738.5,472.8,1736.7,469.1,1736.2,464.3z"/>
		</g>
		<g>
			<linearGradient id="SVGID_28_" gradientUnits="userSpaceOnUse" x1="928.5989" y1="268.7177" x2="928.5989" y2="391.9267">
				<stop  offset="0" style="stop-color:#005486"/>
				<stop  offset="1" style="stop-color:#1A308B"/>
			</linearGradient>
			<path class="st27" d="M1198.6,268.1l-73.3,113.4l-1.3,2c0,0,0,0,0,0c-3.3,4-11.2,11.9-22.3,11.9h-0.2
				c-14.1,0-23.1-12.9-23.9-14.1c0,0,0-0.1,0-0.1l0,0l-73.1-113.2h40.2l58.4,98.3l58.4-98.3H1198.6z M1077.6,381.3L1077.6,381.3
				C1077.7,381.3,1077.6,381.3,1077.6,381.3L1077.6,381.3z M997,268.1h-28.6v127.4H997V268.1z M856.7,370.2V268.1h-28.6V362
				c0,18.2,14.5,33,32.6,33.4h0.3l56.8,0h34.7v-25.3H856.7z M659.3,344v-24H551.1v-10.8c0-8.4,6.8-15.2,15.2-15.2h68.5v-26h-76
				c-19.1,0-34.6,15.5-34.6,34.6v58.2c0,19.1,15.5,34.6,34.6,34.6h100.6v-24.1h-93c-8.4,0-15.2-6.8-15.2-15.2V344H659.3z
				 M804.7,332.3c-5.5-7.7-14.5-12.7-24.6-12.7h-71.5c-4.6,0-8.3-3.7-8.3-8.3v-8.8c0-4.6,3.7-8.3,8.3-8.3H777v-26h-71.7
				c-15.3,0-27.9,11.3-30,26c-0.2,1.4-0.3,2.8-0.3,4.2v16.4c0,6.5,2.1,12.6,5.6,17.5c5.5,7.7,14.5,12.7,24.6,12.7h73.9
				c4.6,0,8.3,3.7,8.3,8.3v11.2c0,4.6-3.7,8.3-8.3,8.3H675.1v22.6H780c16.7,0,30.2-13.5,30.2-30.2v-15.4
				C810.2,343.3,808.2,337.2,804.7,332.3z M1125.4,381.5l-1.3,2c1-1.2,1.6-2.1,1.7-2.2L1125.4,381.5z M1333.1,344v-24h-108.2v-10.8
				c0-8.4,6.8-15.2,15.2-15.2h68.5v-26h-76c-19.1,0-34.6,15.5-34.6,34.6v58.2c0,19.1,15.5,34.6,34.6,34.6h100.6v-24.1h-93
				c-8.4,0-15.2-6.8-15.2-15.2V344H1333.1z"/>
			<g>
				<g>
					<linearGradient id="SVGID_29_" gradientUnits="userSpaceOnUse" x1="1383.6954" y1="331.7745" x2="1518.8778" y2="331.7745">
						<stop  offset="0" style="stop-color:#30AFE3"/>
						<stop  offset="1" style="stop-color:#1178C0"/>
					</linearGradient>
					<path class="st28" d="M1518.9,349.8v15.4c0,16.7-13.5,30.2-30.2,30.2h-104.9v-22.6h104.1c4.6,0,8.3-3.7,8.3-8.3v-11.2
						c0-4.6-3.7-8.3-8.3-8.3h-73.9c-10.2,0-19.2-5-24.6-12.7c-3.5-4.9-5.6-11-5.6-17.5v-16.4c0-1.4,0.1-2.8,0.3-4.2
						c2.1-14.7,14.7-26,30-26h71.7v26h-68.5c-4.6,0-8.3,3.7-8.3,8.3v8.8c0,4.6,3.7,8.3,8.3,8.3h71.5c10.2,0,19.2,5,24.6,12.7
						C1516.8,337.2,1518.9,343.3,1518.9,349.8z"/>
					<linearGradient id="SVGID_30_" gradientUnits="userSpaceOnUse" x1="1523.0999" y1="385.1253" x2="1543.7523" y2="385.1253">
						<stop  offset="0" style="stop-color:#30AFE3"/>
						<stop  offset="1" style="stop-color:#1178C0"/>
					</linearGradient>
					<circle class="st29" cx="1533.4" cy="385.1" r="10.3"/>
				</g>
				<g>
					<linearGradient id="SVGID_31_" gradientUnits="userSpaceOnUse" x1="1553.0389" y1="331.774" x2="1735.1724" y2="331.774">
						<stop  offset="0" style="stop-color:#30AFE3"/>
						<stop  offset="1" style="stop-color:#1178C0"/>
					</linearGradient>
					<path class="st30" d="M1666.4,282l-1.2-2c0,0,0,0,0,0c-3.1-4-10.5-11.9-20.9-11.9h-0.2c-13.2,0-21.7,12.9-22.4,14.1
						c0,0,0,0.1,0,0.1l0,0L1553,395.5h31.3l16.7-29h85.4l16.7,29h32L1666.4,282z M1613.8,344.5l30-51.9l30,51.9H1613.8z"/>
					<linearGradient id="SVGID_32_" gradientUnits="userSpaceOnUse" x1="1737.8599" y1="385.1253" x2="1758.5123" y2="385.1253">
						<stop  offset="0" style="stop-color:#30AFE3"/>
						<stop  offset="1" style="stop-color:#1178C0"/>
					</linearGradient>
					<circle class="st31" cx="1748.2" cy="385.1" r="10.3"/>
				</g>
			</g>
		</g>
	</g>
</g>
</svg>
