<?xml version="1.0" encoding="utf-8"?>
<!-- Generator: Adobe Illustrator 24.0.2, SVG Export Plug-In . SVG Version: 6.00 Build 0)  -->
<svg version="1.1" id="Capa_1" xmlns="http://www.w3.org/2000/svg" xmlns:xlink="http://www.w3.org/1999/xlink" x="0px" y="0px"
	 viewBox="0 0 1800 495.2" style="enable-background:new 0 0 1800 495.2;" xml:space="preserve">
<style type="text/css">
	.st0{stroke:#000000;stroke-width:0.25;stroke-miterlimit:10;}
	.st1{fill:url(#SVGID_1_);}
	.st2{fill:#4A439B;}
</style>
<g>
	<g>
		<path class="st0" d="M589.5,331.5c0,12.5-7.6,19.2-16.9,19.2c-9.6,0-16.4-7.5-16.4-18.5c0-11.6,7.2-19.1,16.9-19.1
			C583,313.1,589.5,320.7,589.5,331.5z M561.2,332.1c0,7.8,4.2,14.7,11.6,14.7c7.5,0,11.7-6.9,11.7-15.1c0-7.2-3.8-14.8-11.6-14.8
			C565.1,316.9,561.2,324.1,561.2,332.1z"/>
		<path class="st0" d="M595.3,314.1c2.3-0.4,5.2-0.7,9-0.7c4.6,0,8,1.1,10.2,3c2,1.7,3.2,4.4,3.2,7.6c0,3.3-1,5.9-2.8,7.8
			c-2.5,2.6-6.5,4-11.1,4c-1.4,0-2.7-0.1-3.8-0.3v14.6h-4.7V314.1z M600,331.7c1,0.3,2.3,0.4,3.9,0.4c5.7,0,9.1-2.8,9.1-7.8
			c0-4.8-3.4-7.1-8.6-7.1c-2.1,0-3.6,0.2-4.4,0.4V331.7z"/>
		<path class="st0" d="M642.6,333h-14.1v13.1h15.8v3.9h-20.5v-36.4h19.7v3.9h-15v11.5h14.1V333z"/>
		<path class="st0" d="M650,314.2c2.4-0.5,5.8-0.8,9-0.8c5,0,8.3,0.9,10.5,3c1.8,1.6,2.9,4.1,2.9,6.9c0,4.8-3,8-6.9,9.3v0.2
			c2.8,1,4.5,3.6,5.3,7.3c1.2,5.1,2.1,8.6,2.8,10h-4.9c-0.6-1-1.4-4.2-2.4-8.7c-1.1-5-3-6.9-7.3-7.1h-4.4v15.8H650V314.2z
			 M654.7,330.7h4.8c5,0,8.2-2.8,8.2-6.9c0-4.7-3.4-6.8-8.4-6.8c-2.3,0-3.9,0.2-4.6,0.4V330.7z"/>
		<path class="st0" d="M685,338.6l-3.8,11.4h-4.9l12.4-36.4h5.7l12.4,36.4h-5l-3.9-11.4H685z M696.9,335l-3.6-10.5
			c-0.8-2.4-1.4-4.5-1.9-6.6h-0.1c-0.5,2.2-1.1,4.4-1.8,6.6L686,335H696.9z"/>
		<path class="st0" d="M711.9,314.2c2.9-0.4,6.3-0.8,10-0.8c6.8,0,11.6,1.6,14.7,4.5c3.2,3,5.1,7.2,5.1,13.1
			c0,5.9-1.8,10.8-5.2,14.1c-3.4,3.4-9,5.2-16.1,5.2c-3.3,0-6.2-0.2-8.5-0.4V314.2z M716.6,346.4c1.2,0.2,2.9,0.3,4.8,0.3
			c10,0,15.5-5.6,15.5-15.4c0.1-8.6-4.8-14-14.7-14c-2.4,0-4.3,0.2-5.5,0.5V346.4z"/>
		<path class="st0" d="M778.7,331.5c0,12.5-7.6,19.2-16.9,19.2c-9.6,0-16.4-7.5-16.4-18.5c0-11.6,7.2-19.1,16.9-19.1
			C772.2,313.1,778.7,320.7,778.7,331.5z M750.4,332.1c0,7.8,4.2,14.7,11.6,14.7c7.5,0,11.7-6.9,11.7-15.1c0-7.2-3.8-14.8-11.6-14.8
			C754.3,316.9,750.4,324.1,750.4,332.1z"/>
		<path class="st0" d="M784.5,314.2c2.4-0.5,5.8-0.8,9-0.8c5,0,8.3,0.9,10.5,3c1.8,1.6,2.9,4.1,2.9,6.9c0,4.8-3,8-6.9,9.3v0.2
			c2.8,1,4.5,3.6,5.3,7.3c1.2,5.1,2.1,8.6,2.8,10h-4.9c-0.6-1-1.4-4.2-2.4-8.7c-1.1-5-3-6.9-7.3-7.1h-4.4v15.8h-4.7V314.2z
			 M789.2,330.7h4.8c5,0,8.2-2.8,8.2-6.9c0-4.7-3.4-6.8-8.4-6.8c-2.3,0-3.9,0.2-4.6,0.4V330.7z"/>
		<path class="st0" d="M824.5,313.7h4.7v32.5h15.6v3.9h-20.3V313.7z"/>
		<path class="st0" d="M878.7,331.5c0,12.5-7.6,19.2-16.9,19.2c-9.6,0-16.4-7.5-16.4-18.5c0-11.6,7.2-19.1,16.9-19.1
			C872.2,313.1,878.7,320.7,878.7,331.5z M850.4,332.1c0,7.8,4.2,14.7,11.6,14.7c7.5,0,11.7-6.9,11.7-15.1c0-7.2-3.8-14.8-11.6-14.8
			C854.3,316.9,850.4,324.1,850.4,332.1z"/>
		<path class="st0" d="M912.2,348.5c-2.1,0.8-6.3,2-11.2,2c-5.5,0-10-1.4-13.6-4.8c-3.1-3-5.1-7.9-5.1-13.6
			c0.1-10.9,7.5-18.8,19.7-18.8c4.2,0,7.5,0.9,9.1,1.7l-1.1,3.8c-1.9-0.9-4.4-1.6-8-1.6c-8.9,0-14.6,5.5-14.6,14.6
			c0,9.2,5.6,14.7,14,14.7c3.1,0,5.2-0.4,6.3-1v-10.9h-7.4V331h12V348.5z"/>
		<path class="st0" d="M923.8,313.7v36.4h-4.7v-36.4H923.8z"/>
		<path class="st0" d="M931.1,344.4c2.1,1.3,5.2,2.4,8.4,2.4c4.8,0,7.6-2.5,7.6-6.2c0-3.4-1.9-5.3-6.9-7.2
			c-5.9-2.1-9.6-5.2-9.6-10.3c0-5.7,4.7-9.9,11.8-9.9c3.7,0,6.4,0.9,8,1.8l-1.3,3.8c-1.2-0.6-3.6-1.7-6.9-1.7c-5,0-6.9,3-6.9,5.5
			c0,3.4,2.2,5.1,7.2,7c6.2,2.4,9.3,5.3,9.3,10.7c0,5.6-4.2,10.5-12.7,10.5c-3.5,0-7.3-1-9.3-2.3L931.1,344.4z"/>
		<path class="st0" d="M965,317.7H954v-4h26.9v4h-11.1v32.4H965V317.7z"/>
		<path class="st0" d="M989.4,313.7v36.4h-4.7v-36.4H989.4z"/>
		<path class="st0" d="M1022.7,348.9c-1.7,0.9-5.2,1.7-9.6,1.7c-10.3,0-18-6.5-18-18.4c0-11.4,7.7-19.1,19-19.1c4.5,0,7.4,1,8.6,1.6
			l-1.1,3.8c-1.8-0.9-4.3-1.5-7.3-1.5c-8.5,0-14.2,5.5-14.2,15c0,8.9,5.1,14.6,14,14.6c2.9,0,5.8-0.6,7.7-1.5L1022.7,348.9z"/>
		<path class="st0" d="M1058.3,331.5c0,12.5-7.6,19.2-16.9,19.2c-9.6,0-16.4-7.5-16.4-18.5c0-11.6,7.2-19.1,16.9-19.1
			C1051.9,313.1,1058.3,320.7,1058.3,331.5z M1030.1,332.1c0,7.8,4.2,14.7,11.6,14.7c7.5,0,11.7-6.9,11.7-15.1
			c0-7.2-3.8-14.8-11.6-14.8C1034,316.9,1030.1,324.1,1030.1,332.1z"/>
		<path class="st0" d="M1075.3,314.2c2.9-0.4,6.3-0.8,10-0.8c6.8,0,11.6,1.6,14.7,4.5c3.2,3,5.1,7.2,5.1,13.1
			c0,5.9-1.8,10.8-5.2,14.1c-3.4,3.4-9,5.2-16.1,5.2c-3.3,0-6.2-0.2-8.5-0.4V314.2z M1080,346.4c1.2,0.2,2.9,0.3,4.8,0.3
			c10,0,15.5-5.6,15.5-15.4c0.1-8.6-4.8-14-14.7-14c-2.4,0-4.3,0.2-5.5,0.5V346.4z"/>
		<path class="st0" d="M1129.9,333h-14.1v13.1h15.8v3.9H1111v-36.4h19.7v3.9h-15v11.5h14.1V333z"/>
		<path class="st0" d="M1173.9,348.9c-1.7,0.9-5.2,1.7-9.6,1.7c-10.3,0-18-6.5-18-18.4c0-11.4,7.7-19.1,19-19.1c4.5,0,7.4,1,8.6,1.6
			l-1.1,3.8c-1.8-0.9-4.3-1.5-7.3-1.5c-8.5,0-14.2,5.5-14.2,15c0,8.9,5.1,14.6,14,14.6c2.9,0,5.8-0.6,7.7-1.5L1173.9,348.9z"/>
		<path class="st0" d="M1209.5,331.5c0,12.5-7.6,19.2-16.9,19.2c-9.6,0-16.4-7.5-16.4-18.5c0-11.6,7.2-19.1,16.9-19.1
			C1203.1,313.1,1209.5,320.7,1209.5,331.5z M1181.3,332.1c0,7.8,4.2,14.7,11.6,14.7c7.5,0,11.7-6.9,11.7-15.1
			c0-7.2-3.8-14.8-11.6-14.8C1185.2,316.9,1181.3,324.1,1181.3,332.1z"/>
		<path class="st0" d="M1246,334.1c-0.3-5.1-0.6-11.2-0.5-15.7h-0.2c-1.2,4.3-2.8,8.8-4.6,13.8l-6.4,17.7h-3.6l-5.9-17.3
			c-1.7-5.1-3.2-9.8-4.2-14.1h-0.1c-0.1,4.5-0.4,10.6-0.7,16.1l-1,15.6h-4.5l2.5-36.4h6l6.2,17.6c1.5,4.5,2.8,8.5,3.7,12.3h0.2
			c0.9-3.7,2.2-7.7,3.8-12.3l6.5-17.6h6l2.3,36.4h-4.6L1246,334.1z"/>
		<path class="st0" d="M1277.4,333h-14.1v13.1h15.8v3.9h-20.5v-36.4h19.7v3.9h-15v11.5h14.1V333z"/>
		<path class="st0" d="M1284.8,314.2c2.4-0.5,5.8-0.8,9-0.8c5,0,8.3,0.9,10.5,3c1.8,1.6,2.9,4.1,2.9,6.9c0,4.8-3,8-6.9,9.3v0.2
			c2.8,1,4.5,3.6,5.3,7.3c1.2,5.1,2.1,8.6,2.8,10h-4.9c-0.6-1-1.4-4.2-2.4-8.7c-1.1-5-3-6.9-7.3-7.1h-4.4v15.8h-4.7V314.2z
			 M1289.5,330.7h4.8c5,0,8.2-2.8,8.2-6.9c0-4.7-3.4-6.8-8.4-6.8c-2.3,0-3.9,0.2-4.6,0.4V330.7z"/>
		<path class="st0" d="M1339.2,348.9c-1.7,0.9-5.2,1.7-9.6,1.7c-10.3,0-18-6.5-18-18.4c0-11.4,7.7-19.1,19-19.1c4.5,0,7.4,1,8.6,1.6
			l-1.1,3.8c-1.8-0.9-4.3-1.5-7.3-1.5c-8.5,0-14.2,5.5-14.2,15c0,8.9,5.1,14.6,14,14.6c2.9,0,5.8-0.6,7.7-1.5L1339.2,348.9z"/>
		<path class="st0" d="M1349.5,313.7v36.4h-4.7v-36.4H1349.5z"/>
		<path class="st0" d="M1388.5,331.5c0,12.5-7.6,19.2-16.9,19.2c-9.6,0-16.4-7.5-16.4-18.5c0-11.6,7.2-19.1,16.9-19.1
			C1382.1,313.1,1388.5,320.7,1388.5,331.5z M1360.3,332.1c0,7.8,4.2,14.7,11.6,14.7c7.5,0,11.7-6.9,11.7-15.1
			c0-7.2-3.8-14.8-11.6-14.8C1364.2,316.9,1360.3,324.1,1360.3,332.1z"/>
		<path class="st0" d="M1424.4,333h-14.1v13.1h15.8v3.9h-20.5v-36.4h19.7v3.9h-15v11.5h14.1V333z"/>
		<path class="st0" d="M1451.8,350.1l-4.6-8c-1.9-3.1-3.1-5.1-4.2-7.2h-0.1c-1,2.1-2.1,4.1-3.9,7.2l-4.4,8h-5.4l11.1-18.4l-10.7-18
			h5.5l4.8,8.5c1.4,2.4,2.4,4.2,3.3,6.2h0.2c1-2.2,1.9-3.8,3.3-6.2l5-8.5h5.4l-11.1,17.7l11.3,18.7H1451.8z"/>
		<path class="st0" d="M1469.8,317.7h-11.1v-4h26.9v4h-11.1v32.4h-4.8V317.7z"/>
		<path class="st0" d="M1508.3,333h-14.1v13.1h15.8v3.9h-20.5v-36.4h19.7v3.9h-15v11.5h14.1V333z"/>
		<path class="st0" d="M1515.7,314.2c2.4-0.5,5.8-0.8,9-0.8c5,0,8.3,0.9,10.5,3c1.8,1.6,2.9,4.1,2.9,6.9c0,4.8-3,8-6.9,9.3v0.2
			c2.8,1,4.5,3.6,5.3,7.3c1.2,5.1,2.1,8.6,2.8,10h-4.9c-0.6-1-1.4-4.2-2.4-8.7c-1.1-5-3-6.9-7.3-7.1h-4.4v15.8h-4.7V314.2z
			 M1520.4,330.7h4.8c5,0,8.2-2.8,8.2-6.9c0-4.7-3.4-6.8-8.4-6.8c-2.3,0-3.9,0.2-4.6,0.4V330.7z"/>
		<path class="st0" d="M1549.2,313.7v36.4h-4.7v-36.4H1549.2z"/>
		<path class="st0" d="M1588.2,331.5c0,12.5-7.6,19.2-16.9,19.2c-9.6,0-16.4-7.5-16.4-18.5c0-11.6,7.2-19.1,16.9-19.1
			C1581.8,313.1,1588.2,320.7,1588.2,331.5z M1560,332.1c0,7.8,4.2,14.7,11.6,14.7c7.5,0,11.7-6.9,11.7-15.1
			c0-7.2-3.8-14.8-11.6-14.8C1563.9,316.9,1560,324.1,1560,332.1z"/>
		<path class="st0" d="M1594.1,314.2c2.4-0.5,5.8-0.8,9-0.8c5,0,8.3,0.9,10.5,3c1.8,1.6,2.9,4.1,2.9,6.9c0,4.8-3,8-6.9,9.3v0.2
			c2.8,1,4.5,3.6,5.3,7.3c1.2,5.1,2.1,8.6,2.8,10h-4.9c-0.6-1-1.4-4.2-2.4-8.7c-1.1-5-3-6.9-7.3-7.1h-4.4v15.8h-4.7V314.2z
			 M1598.8,330.7h4.8c5,0,8.2-2.8,8.2-6.9c0-4.7-3.4-6.8-8.4-6.8c-2.3,0-3.9,0.2-4.6,0.4V330.7z"/>
		<polygon points="924.5,301.3 932,301.3 924,309 919.1,309 		"/>
	</g>
	<g>
		<polygon class="st0" points="1615.3,107.6 1590.3,107.6 1549.8,170.9 1509.3,107.6 1484.3,107.6 1537.3,190.4 1485.3,271.6 
			1510.3,271.6 1549.8,209.9 1589.3,271.6 1614.3,271.6 1562.3,190.4 		"/>
		<polygon class="st0" points="1474.3,131.6 1474.3,107.6 1400.3,107.6 1376.3,107.6 1376.3,131.6 1376.3,172.6 1376.3,194.6 
			1376.3,271.6 1380.8,271.6 1400.3,271.6 1473.8,271.6 1473.8,249.6 1400.3,249.6 1400.3,194.6 1474.3,194.6 1474.3,172.6 
			1400.3,172.6 1400.3,131.6 		"/>
		<path class="st0" d="M1301.9,107.6h-35.1H1253h-7.9v164h21.7v-72h35.1v0c1.4,0.1,2.8,0.2,4.2,0.2c23.8,0,43.1-20.1,43.1-44.8
			C1349.2,130.4,1325.7,107.6,1301.9,107.6z M1306.1,178.9h-30.8h-5.7h-2.8v-5.4v-39.3v-2.6h1.1h34v0c1.4,0,3.8,0.1,5.7,0.5
			c10.5,2.6,20.6,12,20.6,23C1328.2,168.2,1318.3,178.9,1306.1,178.9z"/>
		<polygon class="st0" points="1199.3,132.7 1196.2,107.6 1191.3,107.6 1178.3,132.7 1124.3,236.9 1070.2,132.7 1057.2,107.6 
			1052.3,107.6 1049.3,132.7 1032.3,271.6 1053.2,271.6 1066.2,165.4 1113.8,257.1 1121.3,271.6 1127.2,271.6 1134.8,257.1 
			1182.3,165.4 1195.3,271.6 1216.3,271.6 		"/>
		<rect x="983.3" y="107.6" class="st0" width="25" height="164"/>
		<polygon class="st0" points="968.3,107.6 874.3,107.6 874.3,131.6 909.3,131.6 909.3,271.6 934.3,271.6 934.3,131.6 968.3,131.6 
					"/>
		<polygon class="st0" points="866.8,131.6 866.8,107.6 792.8,107.6 768.8,107.6 768.8,131.6 768.8,172.6 768.8,194.6 768.8,271.6 
			773.3,271.6 792.8,271.6 866.3,271.6 866.3,249.6 792.8,249.6 792.8,194.6 866.8,194.6 866.8,172.6 792.8,172.6 792.8,131.6 		"/>
		<polygon class="st0" points="687.3,249.6 687.3,107.6 663.3,107.6 663.3,249.6 663.3,271.6 687.3,271.6 748.3,271.6 748.3,249.6 
					"/>
		<polygon class="st0" points="640.3,131.6 640.3,107.6 577.3,107.6 553.3,107.6 553.3,131.6 553.3,172.6 553.3,194.6 553.3,271.6 
			577.3,271.6 577.3,194.6 640.3,194.6 640.3,172.6 577.3,172.6 577.3,131.6 		"/>
	</g>
	<g>
		<radialGradient id="SVGID_1_" cx="286.281" cy="192.359" r="186.6762" gradientUnits="userSpaceOnUse">
			<stop  offset="0.3263" style="stop-color:#68A8DA"/>
			<stop  offset="0.8669" style="stop-color:#4658A5"/>
		</radialGradient>
		<circle class="st1" cx="322.8" cy="247.8" r="100"/>
		<path class="st2" d="M470.7,283.8L455,256.6l-15.7,27.2h10.5c-15.8,55.8-67.1,96.7-127.8,96.7c-73.2,0-132.8-59.6-132.8-132.8
			s59.6-132.8,132.8-132.8c66.4,0,121.6,49,131.3,112.8h7.1c-9.7-67.7-68.1-119.8-138.4-119.8c-77.1,0-139.8,62.7-139.8,139.8
			S245,387.6,322.1,387.6c64.6,0,119.1-44.1,135.1-103.7H470.7z"/>
	</g>
</g>
</svg>
