<?xml version="1.0" encoding="utf-8"?>
<!-- Generator: Adobe Illustrator 24.0.2, SVG Export Plug-In . SVG Version: 6.00 Build 0)  -->
<svg version="1.1" id="Capa_1" xmlns="http://www.w3.org/2000/svg" xmlns:xlink="http://www.w3.org/1999/xlink" x="0px" y="0px"
	 viewBox="0 0 1800 407.4" style="enable-background:new 0 0 1800 407.4;" xml:space="preserve">
<style type="text/css">
	.st0{fill:#01A2C4;}
	.st1{fill:#FEFF04;}
	.st2{fill:#F10480;}
	.st3{fill:#E1391B;}
	.st4{fill:#424447;}
</style>
<g>
	<g>
		<g>
			<path d="M839.2,243.5c-1.6-6-2.8-12.1-3.6-18.2l-15.2-3.8c2.8-34.9-17.1-68-49.3-81.9l8.4-33.7c0.9-3.4,0.2-6.9-1.5-9.8
				c-1.7-2.8-4.5-5-7.9-5.9c-6.9-1.7-13.9,2.5-15.7,9.4l-8.4,33.5c-35.4-3.4-69.1,16.6-83.2,49.1l-25.5-6.4
				c-3.5-0.9-6.9-0.2-9.8,1.5c-2.8,1.7-5,4.5-5.9,7.9c-1.7,6.9,2.5,13.9,9.4,15.7l25.3,6.3c-3.5,35.9,17,70,50.3,83.8l-8.3,33.1
				c-0.9,3.5-0.2,6.9,1.5,9.8c1.7,2.8,4.5,5,7.9,5.9c6.9,1.7,13.9-2.5,15.7-9.4l8.3-33.3c35.4,2.8,68.9-17.6,82.5-50.5l21.7,5.4
				c2,0.5,3.9,0.5,5.8,0.1C840.8,249.3,840,246.5,839.2,243.5z M712.7,266.9c-20.2-10-32.7-31-31.9-53.5l42.6,10.6L712.7,266.9z
				 M729.7,198.9l-42.1-10.5c10.2-19.1,30.5-30.9,52.2-30.3L729.7,198.9z M737.9,272.9l10.6-42.6l41.3,10.3
				C780.2,260.5,759.9,273.1,737.9,272.9z M754.8,205.2l10.1-40.5c18.8,9.8,30.7,29.4,30.7,50.6L754.8,205.2z"/>
			<path class="st0" d="M739.8,158.2l-10.2,40.8l-42.1-10.5C697.8,169.4,718.1,157.5,739.8,158.2z"/>
			<path class="st1" d="M680.9,213.4l42.6,10.6l-10.7,42.9C692.6,257,680,235.9,680.9,213.4z"/>
			<path class="st2" d="M795.6,215.4l-40.8-10.2l10.1-40.5C783.7,174.5,795.5,194.2,795.6,215.4z"/>
			<path d="M789.8,240.6c-9.6,19.9-30,32.5-52,32.3l10.6-42.6L789.8,240.6z"/>
		</g>
		<g>
			<path d="M201.3,132.9c0,4.3-1.8,8.3-4.6,11.1c-2.9,2.9-6.8,4.6-11.1,4.6H80.3v33.4h89.8c8.5,0,15.4,7,15.4,15.4
				c0,4.3-1.7,8.1-4.5,10.9c-2.8,2.8-6.7,4.5-10.9,4.5H80.3v52.3c0,8.3-6.2,15.2-14.2,16.2c-0.7,0.1-1.4,0.1-2.1,0.1h-7.6
				c-9,0-16.4-7.4-16.4-16.4V146.2c0-2.6,0.4-5.2,1-7.6c3.1-11.4,13-20,25.1-21.2c1-0.1,1.9-0.1,2.9-0.1h116.6
				C194.2,117.2,201.3,124.3,201.3,132.9z"/>
			<path d="M342.6,265.8v3.9c0,6.6-5.5,12-12.2,12h-92.5c-1.1,0-2.2-0.1-3.2-0.2c-10-1.4-18-9-19.7-18.7c-0.2-1.3-0.4-2.7-0.4-4.1
				v-93.9c0-9.4,7.8-17.1,17.3-17.1c2.7,0,5.2,0.6,7.4,1.7c1.8,0.8,3.4,2,4.8,3.4c3.1,3.1,5.1,7.4,5.1,12.1v89h81.1
				c5.7,0,10.5,3.9,11.8,9C342.4,263.7,342.6,264.7,342.6,265.8z"/>
			<path d="M384.2,176.1v23.4h70.1c7.4,0,13.5,6.1,13.5,13.5c0,3.7-1.5,7.1-4,9.5c-2.4,2.4-5.8,4-9.5,4h-70.1v26.9H466
				c5.7,0,10.5,3.9,11.8,9.2v0c0.2,1,0.4,2,0.4,3v4c0,6.7-5.5,12.2-12.2,12.2h-92.5c-1.2,0-2.4-0.1-3.6-0.3
				c-9.8-1.5-17.6-9.2-19.3-18.9v0c-0.2-1.3-0.4-2.7-0.4-4.1v-87.6c0-1.4,0.1-2.7,0.3-4c1.5-8.7,7.9-15.9,16.3-18.4
				c1-0.3,2.1-0.5,3.1-0.7h96c6.7,0,12.2,5.5,12.2,12.2v4c0,1-0.1,2-0.3,2.9c-1.3,5.3-6.1,9.3-11.8,9.3H384.2z"/>
			<path d="M627.7,258.8l-49.8-46.4l44.7-43.1c5.7-5.5,5.4-14.2-0.7-19.3c-6.1-5.1-15.8-4.8-21.5,0.7l-43.7,42.1l-44.5-41.4
				c-5.8-5.4-15.5-5.6-21.5-0.4h0c-6,5.2-6.1,13.9-0.3,19.3l45.6,42.5l-48.8,47c-5.7,5.5-5.4,14.2,0.7,19.3v0
				c6.1,5.1,15.8,4.8,21.5-0.7l47.7-46l48.7,45.4c5.8,5.4,15.5,5.6,21.5,0.4v0C633.4,272.9,633.5,264.3,627.7,258.8z"/>
		</g>
	</g>
	<g>
		<g>
			<g>
				<path class="st3" d="M1217.4,81.5c-9.1,0-16.4,7.3-16.4,16.4s7.3,16.4,16.4,16.4c9.1,0,16.4-7.3,16.4-16.4
					S1226.5,81.5,1217.4,81.5z M1217.4,103.8c-3.3,0-5.9-2.6-5.9-5.9c0-3.3,2.6-5.9,5.9-5.9c3.3,0,5.9,2.6,5.9,5.9
					C1223.4,101.1,1220.7,103.8,1217.4,103.8z"/>
				<path class="st3" d="M980.6,133.8c-37.5,0-68,32.8-68,73.2s30.4,73.2,68,73.2s68-32.8,68-73.2S1018.2,133.8,980.6,133.8z
					 M980.6,225.8c-10.1,0-18.3-8.8-18.3-19.7c0-10.9,8.2-19.7,18.3-19.7s18.3,8.8,18.3,19.7C998.9,217,990.7,225.8,980.6,225.8z"/>
				<path class="st3" d="M1217.4,73.5c-13.3,0-24.1,10.8-24.1,24.1c0,8.4,4.3,15.8,10.8,20.1H979v0.1c-45,0.9-81.2,40.5-81.2,89.2
					c0,49.3,37.1,89.2,82.8,89.2s82.8-40,82.8-89.2c0-40.1-24.6-74-58.3-85.2h212.4c13.3,0,24.1-10.8,24.1-24.1
					C1241.6,84.3,1230.8,73.5,1217.4,73.5z M1056.4,206.7c0,45.1-33.9,81.6-75.8,81.6s-75.8-36.5-75.8-81.6
					c0-45.1,33.9-81.7,75.8-81.7S1056.4,161.6,1056.4,206.7z M1217.4,117.8c-11.1,0-20.1-9-20.1-20.1c0-11.1,9-20.1,20.1-20.1
					c11.1,0,20.1,9,20.1,20.1C1237.6,108.8,1228.6,117.8,1217.4,117.8z"/>
			</g>
			<g>
				<path class="st4" d="M1057.5,309.7h25.4c-25.4,24-59.5,38.7-97,38.7c-78.7,0-142.5-64.8-142.5-144.6S907.3,59,986,59
					c38.6,0,73.6,15.6,99.3,40.9h-21.6c-22.3-18.4-50.8-29.4-81.8-29.4c-71.8,0-130,59.1-130,131.9c0,72.9,58.2,131.9,130,131.9
					C1010.1,334.3,1036.2,325.2,1057.5,309.7z"/>
				<path class="st4" d="M1016.4,303.8h37.9c-20.3,15.1-45.3,24-72.4,24C914,327.7,859,271.9,859,203c0-68.9,55-124.7,122.9-124.7
					c29.5,0,56.6,10.6,77.8,28.2h-31.7c-13.9-6.9-29.5-10.7-46-10.7c-58.2,0-105.4,47.9-105.4,107s47.2,107,105.4,107
					C993.9,309.7,1005.5,307.6,1016.4,303.8z"/>
			</g>
		</g>
		<g>
			<g>
				<path d="M1081.1,277.2V133.3l29.5,0c19.2,0,32.7,1,40.5,3.1c7.8,2.1,14.7,5.5,20.5,10.4c7.8,6.4,13.7,14.5,17.7,24.5
					c4,10,6,21.3,6,34.1c0,12.8-2,24.1-6,34c-4,9.9-9.9,18-17.7,24.4c-5.9,4.9-12.6,8.3-20.1,10.4c-7.5,2.1-19.2,3.1-35.1,3.1h-5.9
					H1081.1z M1103,256.1h18.4c10.1,0,17.7-0.7,22.8-2.2c5.1-1.4,9.5-3.9,13.2-7.3c5.1-4.7,8.9-10.4,11.4-17.3
					c2.5-6.9,3.8-15,3.8-24.1c0-9.2-1.3-17.2-3.8-24.1c-2.5-6.9-6.4-12.7-11.4-17.3c-3.8-3.4-8.4-5.8-13.7-7.3
					c-5.3-1.4-13.6-2.2-24.9-2.2h-7.9h-7.9V256.1z"/>
				<path d="M1207.3,277.2V133.3h17.7v143.9H1207.3z"/>
				<path d="M1348.3,133.3v143.9h-4.9l-72.7-83.9c-2.1-2.4-4.1-5-6-7.7c-1.9-2.7-3.8-5.5-5.5-8.5v100.1h-17.9V133.3h4.9l71.1,82.3
					c2.1,2.5,4.2,5.1,6.3,8c2.1,2.8,4.4,6,6.7,9.5v-99.8H1348.3z"/>
				<path d="M1407.6,153.1v124h-17.9v-124h-29.3v-19.9h76.3v19.9L1407.6,153.1z"/>
				<path d="M1447.4,277.2V133.3h80.3v19.9l-56.9,0v36.1h56.9v20.5l-56.9,0l0,46.5h56.9v20.9H1447.4z"/>
				<path d="M1694.8,133.3h-5.3l-65.4,143.9h22.9l21.7-42.9h46.2l22.1,42.9h23L1694.8,133.3z M1675.9,213.2l12.1-27
					c0.8-1.9,1.5-3.9,2.2-6.2c0.7-2.2,1.4-4.6,2.1-7.2c0.7,2.7,1.5,5.2,2.3,7.5c0.8,2.2,1.5,4.2,2.2,5.9l12.1,27L1675.9,213.2z"/>
				<g>
					<path d="M1568.5,136C1570,135.2,1567,136.6,1568.5,136L1568.5,136z"/>
					<path d="M1614.8,221c-2.6-5-4.7-9.7-11.3-15.8c-3-2.8-6.5-5.7-10.4-8.7c-0.6-0.5-1.5-1.2-2.6-2c-5.3-4.1-9.4-8-12.5-11.7
						c-5.1-6.3-7.1-12.1-5.9-17.4c0.8-3.6,2.4-6.5,4.6-8.8c1-0.8,5-3.9,10.7-2.2c0.7,0.2,1.4,0.5,2,0.8c1,0.5,2,1.1,3,1.8
						c3,2.3,5.7,5.7,8,10.4l4.9-2.5l11.6-7.5c-2.2-7.1-6.2-12.7-12-16.9c-4.9-3.5-10.9-5.8-17.9-6.8c-1.5-0.2-3-0.4-4.5-0.5l0,0
						c-0.2,0-0.3,0-0.5,0c-0.3,0-0.5,0-0.7-0.1c-0.3,0-0.6,0-0.9,0c-5.4,0-9.5,1.5-12,2.8c0,0,0,0,0,0c0,0,0,0,0,0
						c-1.7,0.9-2.6,1.6-2.6,1.6v0c-7.9,5.3-13.1,13.1-15.5,23.5c-2,8.8-1.2,16.9,2.5,24.1c1.6,3.1,5,8.3,8.5,12.2
						c4.6,5.1,7.4,9.1,15.2,15.4c0.9,0.7,2.2,1.7,3.9,3.1c1,0.8,1.9,1.6,2.8,2.3h0c10.1,8.7,14.3,16.9,12.6,24.4
						c-0.3,1.2-0.6,2.3-1,3.3c-0.8,4.7-2.8,8.5-5.9,11.4c-0.9,0.8-1.8,1.6-2.8,2.2c-3.2,1-6.8,1.1-10.7,0.2
						c-1.1-0.3-2.2-0.6-3.2-0.9c-4.6-1.6-8.2-4.1-10.8-7.5c-3.1-4.1-4.7-9.4-4.8-15.9l-17.4,11.3c0.7,7.7,3.1,14.3,7.2,19.8
						c4.7,6.3,11.5,10.7,20.3,13.3c12.7,2.3,23.7,0.7,33-4.6c3-1.7,4-3.8,6.4-6.1c5.5-5.4,8.5-12.6,10.7-21.4
						c0.1-0.4,0.2-0.8,0.3-1.2c0.1-0.4,0.2-0.8,0.3-1.2c0.1-0.4,0.2-0.8,0.2-1.2C1619.2,235.9,1618.2,227.6,1614.8,221z"/>
				</g>
			</g>
			<g>
				<path d="M1110.7,293.8v27.3h-3.4v-27.3h-9.9v-3.2h23.2v3.2H1110.7z"/>
				<path d="M1142.4,299.7v21.4h-3.1l0.2-2.8l-0.1-0.1c-1.1,2.1-3.4,3.2-7,3.2c-5,0-7.5-2.5-7.5-7.5v-14.2h3.1v14.2
					c0,1.9,0.3,3.2,1,3.9c0.6,0.7,1.9,1,3.8,1c2.5,0,4.1-0.5,5.1-1.5c0.9-1,1.4-2.8,1.4-5.4v-12.2H1142.4z"/>
				<path d="M1162.7,299.7h3.1l-0.1,3.2l0.1,0.1c1.2-2.4,3.5-3.6,7-3.6c3.6,0,5.8,1.2,6.6,3.6h0.1c1.3-2.4,3.8-3.6,7.3-3.6
					c5,0,7.6,2.6,7.6,7.7v14h-3.1v-14.3c0-1.9-0.3-3.1-1-3.8c-0.7-0.7-1.9-1-3.8-1c-2.5,0-4.1,0.5-5,1.4c-0.9,0.9-1.3,2.7-1.3,5.3
					v12.4h-3.1v-14l0-1c0-2.8-1.6-4.1-4.7-4.1c-4.3,0-6.4,2.3-6.4,6.9v12.1h-3.1V299.7z"/>
				<path d="M1216.9,314.6h3.2l0,0.8c0,2.2-0.7,3.8-2,4.7c-1.3,0.9-3.7,1.3-7.1,1.3c-3.9,0-6.5-0.7-7.7-2.2
					c-1.2-1.4-1.8-4.5-1.8-9.1c0-4.3,0.6-7.1,1.9-8.6c1.2-1.5,3.7-2.2,7.3-2.2c3.9,0,6.5,0.6,7.7,1.9c1.2,1.3,1.8,3.9,1.8,8v1.7
					h-15.4c0,3.4,0.4,5.5,1.1,6.4c0.7,0.9,2.4,1.4,5.1,1.4c2.5,0,4.2-0.2,4.9-0.7c0.8-0.4,1.1-1.4,1.1-2.8V314.6z M1216.9,308.5l0-1
					c0-2.3-0.4-3.8-1.1-4.5c-0.8-0.7-2.4-1-4.9-1c-2.5,0-4.2,0.4-4.9,1.2c-0.8,0.8-1.1,2.6-1.1,5.3H1216.9z"/>
				<path d="M1229.5,299.7V323v0.9c0,3.5-1.5,5.3-4.4,5.3c-0.4,0-0.9-0.1-1.5-0.2v-2.2c0.2,0,0.3,0,0.4,0l0.4,0l1.3-0.4
					c0.5-0.4,0.7-1.5,0.7-3.4v-23.3H1229.5z M1229.5,290.6v3.5h-3.1v-3.5H1229.5z"/>
				<path d="M1245.5,299.4c3.9,0,6.5,0.7,7.7,2.1s1.8,4.3,1.8,8.9c0,4.6-0.6,7.6-1.8,8.9c-1.2,1.4-3.7,2.1-7.7,2.1
					c-3.9,0-6.5-0.7-7.7-2.1c-1.2-1.4-1.8-4.3-1.8-8.9c0-4.6,0.6-7.6,1.8-8.9S1241.6,299.4,1245.5,299.4z M1245.5,302
					c-2.8,0-4.5,0.5-5.1,1.4c-0.7,0.9-1,3.3-1,7s0.3,6.1,1,7c0.7,0.9,2.4,1.4,5.1,1.4c2.8,0,4.5-0.5,5.2-1.4c0.7-0.9,1-3.3,1-7
					s-0.3-6.1-1-7C1250,302.4,1248.3,302,1245.5,302z"/>
				<path d="M1261.7,299.7h3.1l-0.3,2.5l0.1,0.1c1.2-2,3.3-3,6.1-3c3.9,0,5.9,2,5.9,6.1l0,1.5h-3.1l0.1-0.5c0-0.6,0.1-0.9,0.1-1.1
					c0-2.2-1.2-3.3-3.6-3.3c-3.5,0-5.2,2.2-5.2,6.5v12.8h-3.1V299.7z"/>
				<path d="M1297.3,290.6v3.5h-3.1v-3.5H1297.3z M1297.3,299.7v21.4h-3.1v-21.4H1297.3z"/>
				<path d="M1304.3,299.7h3.1l-0.1,3.2l0.1,0.1c1.2-2.4,3.5-3.6,7-3.6c3.6,0,5.8,1.2,6.6,3.6h0.1c1.3-2.4,3.8-3.6,7.3-3.6
					c5,0,7.6,2.6,7.6,7.7v14h-3.1v-14.3c0-1.9-0.3-3.1-1-3.8c-0.7-0.7-1.9-1-3.8-1c-2.5,0-4.1,0.5-5,1.4c-0.9,0.9-1.3,2.7-1.3,5.3
					v12.4h-3.1v-14l0-1c0-2.8-1.6-4.1-4.7-4.1c-4.3,0-6.4,2.3-6.4,6.9v12.1h-3.1V299.7z"/>
				<path d="M1343.6,299.7h3.1l-0.2,2.7l0.1,0.1c1.1-2.1,3.4-3.1,7-3.1c3.2,0,5.4,0.8,6.5,2.4c1.2,1.6,1.8,4.6,1.8,8.9
					c0,4-0.6,6.8-1.8,8.3c-1.2,1.6-3.4,2.3-6.4,2.3c-3.5,0-5.8-0.9-7-2.8h-0.1v11.7h-3.1V299.7z M1352.8,302c-2.5,0-4.1,0.5-4.9,1.6
					s-1.1,3.4-1.1,7c0,3.3,0.4,5.5,1.2,6.6c0.8,1.1,2.5,1.6,4.9,1.6c2.4,0,3.9-0.5,4.7-1.6c0.8-1.1,1.1-3.2,1.1-6.5
					c0-3.6-0.4-6-1.1-7.1C1356.9,302.5,1355.3,302,1352.8,302z"/>
				<path d="M1368.9,299.7h3.1l-0.3,2.5l0.1,0.1c1.2-2,3.3-3,6.1-3c3.9,0,5.9,2,5.9,6.1l0,1.5h-3.1l0.1-0.5c0-0.6,0.1-0.9,0.1-1.1
					c0-2.2-1.2-3.3-3.6-3.3c-3.5,0-5.2,2.2-5.2,6.5v12.8h-3.1V299.7z"/>
				<path d="M1403.2,314.6h3.2l0,0.8c0,2.2-0.7,3.8-2,4.7s-3.7,1.3-7.1,1.3c-3.9,0-6.5-0.7-7.7-2.2c-1.2-1.4-1.8-4.5-1.8-9.1
					c0-4.3,0.6-7.1,1.9-8.6c1.2-1.5,3.7-2.2,7.3-2.2c3.9,0,6.5,0.6,7.7,1.9c1.2,1.3,1.8,3.9,1.8,8v1.7H1391c0,3.4,0.4,5.5,1.1,6.4
					s2.4,1.4,5.1,1.4c2.5,0,4.2-0.2,4.9-0.7c0.8-0.4,1.1-1.4,1.1-2.8V314.6z M1403.2,308.5l0-1c0-2.3-0.4-3.8-1.1-4.5
					c-0.8-0.7-2.4-1-4.9-1c-2.5,0-4.2,0.4-4.9,1.2c-0.8,0.8-1.1,2.6-1.1,5.3H1403.2z"/>
				<path d="M1429.4,305.3h-3.1c0-1.5-0.3-2.4-0.9-2.8c-0.6-0.4-2.2-0.5-4.7-0.5c-2.3,0-3.8,0.2-4.4,0.6c-0.6,0.4-0.9,1.3-0.9,2.7
					c0,2.2,1.1,3.3,3.2,3.4l2.5,0.1l3.2,0.2c3.9,0.2,5.8,2.2,5.8,6.1c0,2.4-0.6,4-1.9,4.9c-1.3,0.9-3.6,1.3-7,1.3
					c-3.5,0-5.9-0.4-7.2-1.3c-1.3-0.8-2-2.4-2-4.7l0-1.2h3.2l0,1c0,1.4,0.4,2.3,1.1,2.8c0.7,0.5,2.1,0.7,4.2,0.7
					c2.6,0,4.3-0.2,5.1-0.7c0.8-0.5,1.2-1.5,1.2-3.1c0-2.2-1-3.4-3.1-3.4c-4.8,0-7.9-0.4-9.4-1.2c-1.5-0.8-2.2-2.5-2.2-5
					c0-2.4,0.6-4,1.8-4.8c1.2-0.8,3.5-1.2,7.1-1.2c5.7,0,8.5,1.7,8.5,5.1V305.3z"/>
				<path d="M1439.2,290.6v3.5h-3.1v-3.5H1439.2z M1439.2,299.7v21.4h-3.1v-21.4H1439.2z"/>
				<path d="M1455.1,299.4c3.9,0,6.5,0.7,7.7,2.1s1.8,4.3,1.8,8.9c0,4.6-0.6,7.6-1.8,8.9c-1.2,1.4-3.7,2.1-7.7,2.1
					c-3.9,0-6.5-0.7-7.7-2.1c-1.2-1.4-1.8-4.3-1.8-8.9c0-4.6,0.6-7.6,1.8-8.9C1448.6,300.1,1451.1,299.4,1455.1,299.4z M1455.1,302
					c-2.8,0-4.5,0.5-5.1,1.4s-1,3.3-1,7s0.3,6.1,1,7c0.7,0.9,2.4,1.4,5.1,1.4c2.8,0,4.5-0.5,5.2-1.4c0.7-0.9,1-3.3,1-7s-0.3-6.1-1-7
					S1457.9,302,1455.1,302z M1458.5,290.9l1.6,2.2l-6.6,4l-1.1-1.7L1458.5,290.9z"/>
				<path d="M1470.9,299.7h3l-0.1,2.9l0.1,0.1c1-2.2,3.3-3.3,7.1-3.3c3.1,0,5.1,0.5,6.2,1.6s1.6,3.1,1.6,6.2v13.9h-3.1v-13.6v-0.8
					c0-1.8-0.4-3.1-1.1-3.7c-0.7-0.6-2-0.9-4-0.9c-4.4,0-6.6,2.1-6.6,6.2v12.8h-3.1V299.7z"/>
				<path d="M1523.9,314.6h3.2l0,0.8c0,2.2-0.7,3.8-2,4.7s-3.7,1.3-7.1,1.3c-3.9,0-6.5-0.7-7.7-2.2c-1.2-1.4-1.8-4.5-1.8-9.1
					c0-4.3,0.6-7.1,1.9-8.6s3.7-2.2,7.3-2.2c3.9,0,6.5,0.6,7.7,1.9c1.2,1.3,1.8,3.9,1.8,8v1.7h-15.4c0,3.4,0.4,5.5,1.1,6.4
					s2.4,1.4,5.1,1.4c2.5,0,4.2-0.2,4.9-0.7c0.8-0.4,1.1-1.4,1.1-2.8V314.6z M1523.9,308.5l0-1c0-2.3-0.4-3.8-1.1-4.5
					c-0.8-0.7-2.4-1-4.9-1c-2.5,0-4.2,0.4-4.9,1.2s-1.1,2.6-1.1,5.3H1523.9z"/>
				<path d="M1533.6,299.7h3l-0.1,2.9l0.1,0.1c1-2.2,3.3-3.3,7.1-3.3c3.1,0,5.1,0.5,6.2,1.6s1.6,3.1,1.6,6.2v13.9h-3.1v-13.6v-0.8
					c0-1.8-0.4-3.1-1.1-3.7c-0.7-0.6-2-0.9-4-0.9c-4.4,0-6.6,2.1-6.6,6.2v12.8h-3.1V299.7z"/>
				<path d="M1586.6,314.6h3.2l0,0.8c0,2.2-0.7,3.8-2,4.7s-3.7,1.3-7.1,1.3c-3.9,0-6.5-0.7-7.7-2.2c-1.2-1.4-1.8-4.5-1.8-9.1
					c0-4.3,0.6-7.1,1.9-8.6c1.2-1.5,3.7-2.2,7.3-2.2c3.9,0,6.5,0.6,7.7,1.9c1.2,1.3,1.8,3.9,1.8,8v1.7h-15.4c0,3.4,0.4,5.5,1.1,6.4
					s2.4,1.4,5.1,1.4c2.5,0,4.2-0.2,4.9-0.7c0.8-0.4,1.1-1.4,1.1-2.8V314.6z M1586.6,308.5l0-1c0-2.3-0.4-3.8-1.1-4.5
					c-0.8-0.7-2.4-1-4.9-1c-2.5,0-4.2,0.4-4.9,1.2s-1.1,2.6-1.1,5.3H1586.6z"/>
				<path d="M1607.6,299.7v2.6h-8.2v13.1c0,2.3,1,3.4,3,3.4c2,0,3-1,3-3.1l0-1.1l0-1.2h2.9l0,1.6c0,4.2-2,6.3-6,6.3
					c-4.1,0-6.2-1.7-6.2-5.3v-0.8v-13.1h-2.9v-2.6h2.9v-5.1h3.1v5.1H1607.6z"/>
				<path d="M1615.9,290.6v3.5h-3.1v-3.5H1615.9z M1615.9,299.7v21.4h-3.1v-21.4H1615.9z"/>
				<path d="M1640.8,299.7v30.5h-3.1v-11.8l-0.1-0.1c-0.9,2-3.3,3-7,3c-3.1,0-5.2-0.8-6.4-2.4c-1.2-1.6-1.8-4.5-1.8-8.6
					c0-4.1,0.6-7,1.8-8.6c1.2-1.6,3.4-2.4,6.6-2.4c3.5,0,5.8,1,7,3l0.1-0.1l-0.2-2.6H1640.8z M1631.2,302c-2.3,0-3.8,0.6-4.5,1.7
					c-0.7,1.1-1.1,3.5-1.1,7c0,3.3,0.4,5.5,1.1,6.6c0.7,1,2.3,1.6,4.7,1.6c2.4,0,4.1-0.5,4.9-1.6c0.8-1.1,1.3-3.2,1.3-6.3
					c0-3.8-0.4-6.2-1.2-7.3C1635.6,302.5,1633.9,302,1631.2,302z"/>
				<path d="M1665.2,299.7v21.4h-3.1l0.2-2.8l-0.1-0.1c-1.1,2.1-3.4,3.2-7,3.2c-5,0-7.5-2.5-7.5-7.5v-14.2h3.1v14.2
					c0,1.9,0.3,3.2,1,3.9s1.9,1,3.8,1c2.5,0,4.1-0.5,5.1-1.5c0.9-1,1.4-2.8,1.4-5.4v-12.2H1665.2z"/>
				<path d="M1687.4,314.6h3.2l0,0.8c0,2.2-0.7,3.8-2,4.7s-3.7,1.3-7.1,1.3c-3.9,0-6.5-0.7-7.7-2.2c-1.2-1.4-1.8-4.5-1.8-9.1
					c0-4.3,0.6-7.1,1.9-8.6c1.2-1.5,3.7-2.2,7.3-2.2c3.9,0,6.5,0.6,7.7,1.9c1.2,1.3,1.8,3.9,1.8,8v1.7h-15.4c0,3.4,0.4,5.5,1.1,6.4
					s2.4,1.4,5.1,1.4c2.5,0,4.2-0.2,4.9-0.7c0.8-0.4,1.1-1.4,1.1-2.8V314.6z M1687.4,308.5l0-1c0-2.3-0.4-3.8-1.1-4.5
					c-0.8-0.7-2.4-1-4.9-1c-2.5,0-4.2,0.4-4.9,1.2c-0.8,0.8-1.1,2.6-1.1,5.3H1687.4z"/>
				<path d="M1708.4,299.7v2.6h-8.2v13.1c0,2.3,1,3.4,3,3.4c2,0,3-1,3-3.1l0-1.1l0-1.2h2.9l0,1.6c0,4.2-2,6.3-6,6.3
					c-4.1,0-6.2-1.7-6.2-5.3v-0.8v-13.1h-2.9v-2.6h2.9v-5.1h3.1v5.1H1708.4z"/>
				<path d="M1716.8,305.7h-3.1c0-2.5,0.6-4.2,1.7-5c1.1-0.9,3.3-1.3,6.6-1.3c3.6,0,6,0.5,7.2,1.6c1.3,1,1.9,3,1.9,6v14.1h-3.1
					l0.2-2.3l-0.1,0c-1.2,1.8-3.6,2.6-7.3,2.6c-5.4,0-8.1-2.2-8.1-6.5c0-2.6,0.6-4.4,1.8-5.3c1.2-1,3.4-1.5,6.5-1.5
					c3.8,0,6,0.7,6.7,2.2l0.1,0v-2.6c0-2.4-0.3-4-1-4.7c-0.7-0.7-2.1-1.1-4.4-1.1c-3.8,0-5.8,1.1-5.8,3.2
					C1716.8,305.2,1716.8,305.4,1716.8,305.7z M1721.8,310.5c-2.4,0-4,0.3-4.7,0.8c-0.7,0.5-1.1,1.6-1.1,3.3c0,1.7,0.4,2.9,1.1,3.4
					c0.7,0.6,2.2,0.8,4.4,0.8c4.4,0,6.6-1.3,6.6-4c0-1.7-0.4-2.8-1.3-3.4S1724.3,310.5,1721.8,310.5z"/>
				<path d="M1755,305.3h-3.1c0-1.5-0.3-2.4-0.9-2.8c-0.6-0.4-2.2-0.5-4.7-0.5c-2.3,0-3.8,0.2-4.4,0.6c-0.6,0.4-0.9,1.3-0.9,2.7
					c0,2.2,1.1,3.3,3.2,3.4l2.5,0.1l3.2,0.2c3.9,0.2,5.8,2.2,5.8,6.1c0,2.4-0.6,4-1.9,4.9c-1.3,0.9-3.6,1.3-7,1.3
					c-3.5,0-5.9-0.4-7.2-1.3c-1.3-0.8-2-2.4-2-4.7l0-1.2h3.2l0,1c0,1.4,0.4,2.3,1.1,2.8c0.7,0.5,2.1,0.7,4.2,0.7
					c2.6,0,4.3-0.2,5.1-0.7c0.8-0.5,1.2-1.5,1.2-3.1c0-2.2-1-3.4-3.1-3.4c-4.8,0-7.9-0.4-9.4-1.2c-1.5-0.8-2.2-2.5-2.2-5
					c0-2.4,0.6-4,1.8-4.8c1.2-0.8,3.5-1.2,7.1-1.2c5.7,0,8.5,1.7,8.5,5.1V305.3z"/>
			</g>
		</g>
	</g>
</g>
</svg>
