<?xml version="1.0" encoding="utf-8"?>
<!-- Generator: Adobe Illustrator 24.0.2, SVG Export Plug-In . SVG Version: 6.00 Build 0)  -->
<svg version="1.1" id="Capa_1" xmlns="http://www.w3.org/2000/svg" xmlns:xlink="http://www.w3.org/1999/xlink" x="0px" y="0px"
	 viewBox="0 0 1800 1800" style="enable-background:new 0 0 1800 1800;" xml:space="preserve">
<style type="text/css">
	.st0{fill:#E87827;}
	.st1{fill:#2B3386;}
	.st2{fill:none;}
	.st3{fill:url(#SVGID_1_);}
	.st4{fill:#EE7526;}
	.st5{opacity:0.75;fill:#35B0EF;}
	.st6{fill:#E41C1E;}
	.st7{fill:#F2098E;}
	.st8{fill:#FDF03D;}
	.st9{fill:none;stroke:#F2098E;stroke-width:1.3881;stroke-miterlimit:10;}
</style>
<g>
	<g>
		<g>
			<path d="M1615.9,1658c-1.6-1.3-2.9-1.3-4.8,0.3c-5.8,5.1-12.5,8.9-19.3,12.6c-1.2,0.6-2.4,1.1-4,1.8c-1.9-3.8-3.1-7.5-3.5-11.4
				c-0.1-1.4,0.5-3.1,1.2-4.4c1.3-2.3,3.4-3.8,5.8-4.8c1.2-0.5,2.5-1.1,3.6-1.6c-1-5.7-3.3-7.2-8-5.3c-1.6,0.7-3.1,1.7-4.5,2.7
				c-3.5,2.7-6,6.2-7.7,10.3c-0.7,1.8-1.3,3.6-3.2,4.7c-1.1,0.6-1.7,2.1-2.5,3.2c-2.4,3.6-4.7,7.3-7.3,10.8c-2,2.6-4.4,5.1-6.8,7.3
				c-1.3,1.2-2.9,2.1-4.5,2.7c-3.8,1.3-6.9-1.4-6.1-5.3c0.5-2.7,1.5-5.3,3.1-7.6c1.8-2.6,3.3-5.4,4.9-8.1c1.1-1.9,1.7-4,1.5-6.2
				c-0.1-1.5-0.6-2.8-2.3-3c-1.9-0.2-2.6-1.3-3.4-2.8c-1.4-3-4-4.2-7.2-4.4c-4.3-0.3-8.2,0.8-11.9,2.9c-5,3-9.3,6.8-12.5,11.6
				c-4.3,6.2-9.6,11.5-14.9,16.8c-2.1,2.1-4.4,3.9-6.8,5.7c-1.1,0.8-2.4,1.4-3.7,1.9c-1.4,0.5-2.8-0.5-3-1.9c-0.3-2.8,0-5.6,1.1-8.1
				c1.8-3.9,3.5-8,5.8-11.7c6.9-11.5,14.1-22.8,21.1-34.2c0.4-0.6,1-1.2,1.4-1.7c7.5-1.1,14.8-1.3,22.1-1.2
				c4.7,0.1,9.4,0.3,13.9,2.2c2,0.8,3.4,0.3,4.1-1.1c0.7-1.4,0.3-3-1.1-4.2c-1.2-1-2.5-1.9-4-2.5c-1.6-0.7-3.4-1.2-5.1-1.5
				c-4.5-0.5-9-0.9-13.5-1.2c-3.1-0.2-6.2,0.2-9.8-0.2c0.8-1.6,1.5-2.8,2-4c0.8-1.7,0.1-3.1-1.8-3.6c-3.3-0.8-6.3-0.2-8.8,2.1
				c-1.2,1.1-2.3,2.3-3,3.6c-1.6,3-4.3,3.7-7.4,4.1c-5.5,0.8-10.9,1.7-16.3,2.6c-1.5,0.3-3.1,0.7-4.5,1.4c-1.1,0.6-2.1,1.8-2.8,2.9
				c-1,1.7,0.4,3.8,2.3,3.7c1.2,0,2.3-0.3,3.5-0.4c4.9-0.6,9.7-1.1,14.7-1.7c0,2.6-1.7,3.9-2.6,5.5c-5,8.5-10.5,16.7-15,25.5
				c-3.1,5.9-6.9,11-11.6,15.5c-3.2,3.2-6.8,6-10.8,8.2c-2.3,1.2-4.6,2.2-7.3,2.2c-3.9,0.1-6-1.4-6.8-5.1c-0.3-1.5-0.1-3-0.1-4.6
				c2.3-0.8,4.4-1.6,6.4-2.3c5.2-2,10-4.7,13.6-9.1c1.7-2.1,3.3-4.5,4.2-7c2.2-6.1-1.7-11.3-8.1-11.1c-1.5,0-3.1,0.3-4.6,0.7
				c-6.8,1.8-11.7,6.2-16,11.5c-3.9,4.7-7.9,9.4-12.2,13.7c-2.9,2.9-6.3,5.4-9.6,7.8c-1.7,1.2-3.9,1.9-5.9,2.5
				c-1.4,0.4-2.7-0.2-3.1-2.1c0.8-1,1.6-2.1,2.4-3.2c3.9-5,7.2-10.4,10-16c0.8-1.7,1.5-3.7,1.7-5.6c0.4-4.1-3.1-6.8-7-5.3
				c-1.8,0.7-3.5,1.9-4.8,3.3c-6,6.7-10.3,14.4-12.2,23.3c-0.5,2.1-0.9,4.2-1.4,6.3c-1.1,0.7-2.1,1.4-3.1,2
				c-0.7,0.4-1.4,0.7-2.2,0.9c-3,0.9-6.2-0.6-7.2-3.6c-0.5-1.4-0.8-3.1-0.6-4.6c0.2-1.9,0.7-3.9,1.7-5.6c1.9-3.6,4.2-7.1,6.4-10.6
				c1-1.5,2.2-2.8,3.3-4.2c1.5-2.1,1-3.9-1.5-4.5c-1.8-0.5-3.9-0.7-5.8-0.5c-3.1,0.4-5.5,2.1-7.2,4.7c-4,5.9-9,11-13.5,16.5
				c-8.2,10.3-15.8,21-21.6,32.9c0,0.1,0,0.2,0.1,0.2c-0.4,0.2-0.7,0.4-1,0.5c0.3-0.2,0.6-0.4,0.9-0.6c0-0.1,0.1-0.1,0.1-0.2
				c-0.5-1.5-0.2-2.9,0.4-4.3c1.8-4.4,3.4-8.8,5.1-13.2c0.8-2.2,2-4.2,3.6-6c4.7-5.2,8-11.2,10.5-17.7c0.6-1.6,1.1-3.4,1.2-5.1
				c0.1-1.1-0.3-2.5-1.1-3.2c-1.5-1.3-1.4-2.6-1.2-4.2c0.2-1.8,0.4-3.6-0.7-5.1c-1.8-2.6-4-4.2-7.4-3.8c-4.8,0.4-9.2,2.2-13.2,4.8
				c-7,4.5-12.1,10.7-15.7,18.1c-0.7,1.4-1.1,3.1-2.2,4.2c-4.6,4.8-9.6,9.4-15.7,12.4c-2,1-4,1.6-6.5,0.7c-0.2-1-0.8-2.1-0.6-3.2
				c0.4-2.3,0.9-4.7,1.9-6.8c2.5-4.9,5.4-9.6,8.1-14.4c1-1.7,2-3.4,2.8-5.2c0.7-1.4-0.1-2.9-1.5-3.3c-4.9-1.5-10.2,0.4-12.9,4.7
				c-1.1,1.8-2.1,3.8-3.1,5.7c-0.9,1.7-1.6,3.7-2.9,5.1c-4.9,5.1-9.9,10.2-15,15c-1.5,1.4-3.6,2.3-5.6,3.3c-1.3,0.6-3-0.5-3.1-1.9
				c-0.1-1.5,0-3.1,0.2-4.7c0.8-4.8,3.1-9,5.5-13c7.4-12.3,15-24.5,22.6-36.8c0.3-0.5,0.7-0.9,1.2-1.5c6.3-0.4,12.6-0.7,18.8-1.1
				c0,0.6,0.1,1,0.1,1c-2.8,1.5-5.5,3.1-7.5,5.7c-2.1,2.8-2.1,6.2-3.2,9.3c-1.3,3.7,1.3,6.6,5.3,6.6c1,0,2.1,0,2.9-0.4
				c1.9-1,3.9-2.1,5.3-3.6c1.8-2,3.4-4.3,4.5-6.8c0.8-1.7,0.9-3.9,0.6-5.8c-0.3-1.9-1.6-3.7-2.5-5.7c4.3,0.1,8.3,0.8,12.2,2.3
				c1.2,0.5,2.6,0.3,3.1-0.9c0.5-1,0.6-2.4,0.1-3.3c-0.6-1.2-1.7-2.3-2.9-2.8c-2.3-1.1-4.7-1.9-7.2-2.5c-6.2-1.5-12.5-1.1-18.9-1.2
				c-1.3,0-2.7,0.6-3.9-0.8c0.8-1.7,1.5-3.5,2.2-5.2c-1.6-2-3.5-2.3-5.5-2.1c-2.2,0.2-4.3,0.8-5.8,2.5c-1.3,1.5-2.6,3-3.7,4.6
				c-1.2,1.8-2.9,2.6-4.9,2.8c-3.9,0.5-7.8,1.1-11.7,1.7c-2.7,0.4-5.5,0.9-8.1,1.5c-1.9,0.5-3.9,1.1-4.9,3c-0.5,0.9-0.6,2.3-0.3,3.3
				c0.3,1.3,1.7,1.5,2.9,1.3c4.7-0.6,9.4-1.2,14.1-1.8c1.1-0.1,2.2,0,3.8,0c-0.8,1.4-1.2,2.2-1.7,3c-6.9,10.3-13.5,20.8-18.8,32.1
				c-0.5,1.1-1.2,2.1-1.9,3c-3.6,4.4-7.4,8.8-12,12.2c-2.8,2.1-5.8,4.1-9.1,5.4c-6,2.4-11.4,1.3-11.5-7.3c0-0.4,0.2-0.7,0.5-1.4
				c1.8-0.7,3.8-1.5,5.8-2.2c5.7-2.1,10.6-5.1,14.6-9.7c2-2.3,3.6-4.8,4-7.8c0.9-6.2-2.9-10.3-8.6-9.9c-4.5,0.3-8.5,1.7-12.1,4.3
				c-8.4,5.9-13.7,14.2-16,24.1c-2.5,10.8,6.7,20,17.7,18.3c6.6-1,12.3-4.1,17.7-7.9c1.7-1.2,3.4-2.5,5.4-4c0.4,1.1,0.7,1.8,0.9,2.5
				c0.3,0.9,0.4,1.9,0.7,2.9c1.5,4.1,4.7,6.4,9.1,5.9c2.1-0.2,4.3-0.8,6.2-1.8c3.4-1.9,6.6-4.2,9.9-6.5c1.3-0.9,2.4-1.9,4-3.1
				c0.3,1.4,0.4,2.3,0.7,3.2c1.6,5.4,4.7,8,10.2,8.1c2.3,0.1,4.8-0.2,6.9-1.1c3.6-1.5,7-3.6,10.4-5.6c1.5-0.8,2.9-1.9,4.4-2.8
				c4,8.4,4.7,8.9,16.1,10c-0.5,1.7-1,3.3-1.6,4.9c-3.5,9.7-6.5,19.5-8.2,29.6c-0.8,5-2.2,10-1.4,15.2c1.9,1.5,3.8,2.8,5.6,4.3h1.2
				c2.3-5.2,5-10.3,7-15.6c6.3-16.5,14.9-31.7,25.6-45.8c1.2-1.5,2.4-2.9,3.6-4.3c0.5,0.3,0.8,0.3,0.9,0.5c0.3,0.7,0.6,1.5,0.9,2.2
				c3,7.4,8.7,10.7,16.4,8.9c3.4-0.8,6.7-2.3,10.3-3.6c0.5,0.4,1.3,1,2.1,1.5c2.8,2,5.8,2.2,9,1.2c1.9-0.6,3.8-1.3,5.4-2.3
				c3.6-2.3,7.2-4.9,10.7-7.4c1.2-0.9,2.4-1.8,4-3.1c0.5,1.5,0.9,2.6,1.3,3.7c2.3,6.5,7.2,9.9,13.8,10.4c3,0.2,6.2-0.7,9.2-1.6
				c5.2-1.5,9.6-4.5,13.9-7.7c1.2-0.9,2.5-1.7,4-2.7c0.3,1.7,0.4,2.9,0.7,4c1.6,6.1,6.1,8.7,12.2,7c2.1-0.6,4.1-1.5,5.9-2.6
				c2.8-1.8,5.5-3.8,8.2-5.8c1.2-0.9,2.4-1.9,3.9-3.1c0.5,1.5,0.7,2.6,1.1,3.7c2.6,6.9,9.2,10.1,16.2,7.5c2.7-1,5.1-2.8,7.7-4.4
				c1.1-0.7,2.2-1.5,3.3-2.2c0.8,0.8,1.4,1.3,2,1.8c4.8,4.5,10.3,4.6,15.9,1.8c2.9-1.5,5.8-3.5,8.2-5.8c3.2-3.1,6-6.8,8.9-10.2
				c0.9-1,1.7-2,2.9-3.5c0.9,2.5,1.9,4.4,1.6,6.8c-1.6,1.2-3.3,2.2-4.8,3.5c-1.8,1.5-3.6,3.1-5.1,4.9c-2.2,2.7-3.1,5.9-2.5,9.4
				c0.6,3.3,2.6,5.3,5.9,5.7c13.3,1.8,20.2-7.6,20.6-16.7c0.1-1.8,0-3.5,0-5.6c1.8-1,3.7-2,5.5-3.1c5.5-3.4,11-6.9,16.5-10.5
				c1.8-1.2,3.3-2.8,4.7-4.4C1617.9,1661.1,1617.6,1659.3,1615.9,1658z M1462.1,1657c0.3,0.7,0.9,1.4,0.8,1.9
				c-1,6-5.7,10.6-12.7,12.2C1453.2,1663.5,1456.6,1659.5,1462.1,1657z M1249.9,1657.2c1.4,3-0.4,5.3-1.9,7.5
				c-2.6,3.8-5.6,5.6-10.4,6.3C1241.7,1662,1244.8,1658.6,1249.9,1657.2z M1342.1,1686.4c-1.5-1.2-2.1-2.8-2.3-4.6
				c-0.1-1.3,0-2.7,0.2-4.1c1-5.3,3.2-10.1,6.4-14.4c2.5-3.4,5.8-5.8,9.9-6.9c4.6-1.3,5.4-1,9.3,3.8c-8.3,7.7-13.1,17.3-17.8,26.8
				C1345.6,1688.1,1343.8,1687.7,1342.1,1686.4z M1539.9,1660.5c-0.4,1.7-0.9,3.4-1.7,4.9c-2.3,4.2-4,8.6-4.3,13.3
				c-0.3,4.6-3.3,6.9-6.8,8.8c-2.7,1.4-5,0-5.5-3.1c-0.2-1.2-0.2-2.3-0.3-4c0.6-8.4,4.5-15.7,11.1-21.5c1-0.9,2.3-1.6,3.5-2
				C1538.8,1655.9,1540.6,1657.5,1539.9,1660.5z M1574,1695.8c-0.8,0.7-1.8,1-2.6,0.1c-0.5-0.5-0.8-1.4-0.7-2.1
				c0.7-3.2,3.2-4.7,6.2-6.1C1577.3,1691.1,1576.2,1693.7,1574,1695.8z"/>
			<path d="M1158.4,1682.6c-1.2,1.3-2.2,2.4-3.2,3.5c-2.8,3.1-5.9,5.9-9.7,7.6c-3.1,1.4-6.3,2.3-9.7,1.6s-5.7-2.5-6.2-6.2
				c-0.2-1.1-0.3-2.2-0.5-3.9c-2.1,1.4-3.7,2.5-5.3,3.6c-5.2,3.6-10.8,6.5-17.2,7.5c-10.5,1.6-19.2-6.7-17.7-17.3
				c1.1-7.4,4.8-13.7,9.6-19.3c3.8-4.4,8.3-7.9,14.1-9.3c1.5-0.4,3.1-0.6,4.6-0.7c7.3-0.5,9.8,6.2,8.2,11.1
				c-0.9,2.9-2.6,5.3-4.6,7.5c-3.7,3.9-8.2,6.7-13.3,8.6c-2,0.8-4.1,1.5-6.4,2.3c-0.1,1.3-0.4,2.7-0.2,4c0.7,4.3,2.9,6.1,7.4,5.6
				c1.9-0.2,4-0.7,5.6-1.6c9.2-5,16.6-11.9,21.6-21.2c1-1.9,2.1-3.8,3-5.7c1-1.9,2.5-3,4.6-3.4c2.9-0.5,5.8-0.9,8.5,0.1
				c1.2,1.7,0.1,2.8-0.6,3.9c-4.6,7-7.8,14.6-10.3,22.5c-0.5,1.5-1.2,3-0.3,4.5c2.2,0,3.6-1.6,4.9-3c4.2-4.5,8.2-9,12.2-13.7
				c1.7-1.9,3.2-4,4.6-6.2c1.8-2.8,4.4-3.9,7.5-3.8c1.4,0,2.8,0.1,4.1,0.3c1.6,0.2,3,1,3.8,3c-0.8,1.6-1.7,3.3-2.5,5
				c-1.8,3.7-3.4,7.6-4,11.7c-0.4,3,1.3,4.4,4.3,3.8c2.4-0.5,4.4-1.9,6-3.6c3.4-3.8,6.7-7.7,10-11.6c1-1.2,1.8-2.6,2.9-3.7
				c0.8-0.8,2-1.3,3.1-1.5c1.8-0.4,3.5,1.4,3.1,3.3c-0.2,1.1-0.7,2.3-1.4,3.2c-3.8,5-7.6,10.1-11.7,14.8c-2.3,2.6-5.3,4.6-8.2,6.6
				c-2.8,1.9-6.2,2.4-9.6,2.6c-4.3,0.2-7.2-1.7-8.8-5.6C1160,1687.5,1159.4,1685.2,1158.4,1682.6z M1103.1,1671.1
				c6.9-1.5,11.6-5.8,12.9-11.6c0.1-0.6-0.1-1.7-0.6-2.1c-0.5-0.3-1.6-0.2-2.1,0.1C1108.5,1660.7,1105.6,1665.3,1103.1,1671.1z"/>
			<g>
				<path d="M583.6,1665.2c-1.2-0.6-2.3-0.5-3.3,0.3c-0.6,0.5-1,1.2-1.4,1.9c-3.2,5.5-7.2,10.4-11.5,15c-2.4,2.6-5.1,5-7.8,7.2
					c-1.5,1.2-3.4,2.1-5.2,2.6c-2.5,0.8-4.2-0.7-4.1-3.4c0.1-2.4,1-4.7,2.3-6.6c2.6-3.9,5.4-7.8,8.1-11.7c0.7-1,1.6-2,1.6-3.1
					c0-3-0.5-5.9-3.7-7.8c-2.5,0.8-5.1,1.7-8.6,2.8c0.6-2,1-3,1.2-4.2c0.3-1.9,0.7-3.9,0.7-5.8c-0.1-3.9-2.6-6.1-6.6-6.1
					c-2.9,0.1-5.5,1-7.5,3.1c-5,5-8.1,10.7-5.8,18.1c0.2,0.5,0.2,1.1,0.3,1.6c-5.1,4.5-7.6,6-12.9,7c0.4-1.5,0.7-2.8,1.1-4
					c1-3.3,1.1-6.6,0.6-10c-1-6.1-5.2-9.8-11.3-10.1c-5.8-0.3-10.3,2.2-14.1,6.2c-1.1,1.1-1.9,2.6-3.2,3.5
					c-7,5.1-14.1,10.1-21.2,15.1c-0.7,0.5-1.6,0.7-3.2,1.5c0.6-2.1,0.9-3.4,1.3-4.7c1.5-4.7,3.1-9.4,4.5-14.1c0.3-1,0.3-2.2,0.5-3.3
					c-7.6-1.8-11.9,0.3-14.1,7c-0.8,2.4-1.5,4.9-3.3,6.8c-3.8,4-7.5,8.1-11.5,11.9c-2.9,2.7-6.2,4.9-10,6.2
					c-5.7,1.9-11.3,1.6-11.5-7.5c0-0.4,0.3-0.7,0.5-1.4c2-0.7,4.2-1.5,6.4-2.3c5.2-2,9.9-4.9,13.7-9.1c2-2.2,3.6-4.7,4.3-7.7
					c1.4-6.1-2.2-10.6-8.5-10.4c-3.6,0.1-7,1.3-10.1,3c-3.5,1.9-6.4,4.5-9,7.6c-1,1.2-1.7,2.7-3.6,2.9c-2.2,0.2-3.4,1.8-4.6,3.4
					c-4.5,5.8-9.5,11.1-15.2,15.7c-2.4,2-5.1,3.7-7.8,5.3c-1.5,0.8-3.3,1.2-5,1.4c-1.6,0.2-2.9-0.8-2.8-2.3c0.1-2.5,0-5.2,0.8-7.6
					c1.5-4.5,3.3-8.8,5.3-13.1c1.9-4.1,1.3-5.6-3.3-6.4c-1.2-0.2-2.4-0.2-3.5-0.2c-1.9,0.1-3.4,0.8-4.3,2.6
					c-0.7,1.4-1.5,2.8-2.4,4.1c-4,6.4-8.7,12.2-14.7,16.9c-1.3,1.1-2.6,2.5-4.7,1.9c-0.3-0.5-0.8-0.9-0.9-1.4
					c-0.2-0.9-0.4-1.9-0.3-2.9c0.2-6,2.4-11.5,4.3-16.9c-3-2.2-4.2-2.5-7.2-2.1c-2.1,0.2-3.8,1.1-5.1,2.7c-1.7,2.2-3.2,4.5-5,6.6
					c-4.4,5.1-8.8,10.1-13.3,15c-0.9,0.9-1.8,2.2-3.8,1.6c0.1-1.3,0-2.6,0.3-3.9c2.1-8.2,4.9-16.2,9.2-23.6c0.5-0.8,1.1-1.7,1.5-2.5
					c0.6-1.2,0-2.7-1.3-2.7c-2.7,0-5.5,0.1-8.2,0.4c-1.6,0.2-2.8,1.3-3.6,2.8c-4.3,7.8-8.2,15.8-10,24.6c-0.4,1.9-0.5,3.9-0.4,5.9
					c0.4,4.6,2.5,6.7,7,7.3c3.3,0.5,6.3-0.4,9.2-1.7c3.8-1.7,7.1-4.3,10-7.2c0.9-0.9,1.5-2.3,3.3-2.1c0.2,0.9,0.5,1.6,0.5,2.4
					c0.8,7.9,6.5,9,11.8,7.9c1.5-0.3,3.1-0.8,4.4-1.7c2.5-1.6,4.8-3.4,7.1-5.3c1.4-1.1,2.5-2.4,4.1-3.9c0.6,1.3,1,2.4,1.6,3.4
					c1.1,1.9,2.1,3.8,3.5,5.4c2.6,3.1,6.1,4.2,10.1,3.5c3.4-0.6,6.4-2,9.3-3.6c5.4-3,10.2-6.8,14.6-11c0.9-0.9,2-1.7,3.5-3.1
					c0.1,1.7,0.2,2.6,0.3,3.5c0.9,9.8,8.9,15.8,18.6,14.1c6-1,11.2-3.7,16.1-7.1c1.7-1.1,3.3-2.3,5.3-3.6c0.4,2.7-0.9,3.7-2.5,4.7
					c-4.2,2.6-8.4,5.1-12.5,7.9c-4.7,3.3-9.4,6.6-13.7,10.3c-3,2.5-5.5,5.7-7.9,8.8c-2.3,3-3.5,6.6-3.8,10.4c-0.3,3.9,1.1,7,4.1,9.3
					c3.3,2.6,7.1,3.3,11.2,2.2c3.7-1,6.8-3,9.7-5.5c3.8-3.2,6.9-7,9.7-11.1c4.6-6.7,8.5-13.8,11.9-21.1c1.6-3.4,2.6-7.3,5-10
					c2.5-2.9,6.3-4.6,9.6-6.7c2-1.2,3.7-3,6.2-3.5c0.2,0.7,0.4,1.2,0.5,1.8c0.1,0.6,0,1.2,0.1,1.8c1,6.7,5.1,10.5,11.7,11.2
					c4.7,0.5,9.1-0.4,13-3c2.1-1.4,4.1-3.1,6-4.8c1.1-0.9,2-1.7,3.5-1.9c9.3-1.3,17.2-5.6,24.1-11.7c2.3-2,4.7-2.6,8-2
					c-1.1,1.7-2,3.2-2.9,4.6c-2.2,3.5-3.9,7.3-4.3,11.5c-0.9,9,5.2,13.5,13.9,11.6c1.1-0.3,2.3-0.7,3.3-1.3c2.7-1.6,5.5-3.1,8-5
					c7.9-6.1,14.1-13.7,19.5-22.1c0.7-1.1,1.3-2.4,1.7-3.7C585.3,1666.9,584.7,1665.8,583.6,1665.2z M438.5,1657.1
					c1.2,2.2,0.3,3.8-0.5,5.4c-1.4,2.9-3.5,5.2-6.2,6.9c-1.8,1.2-2.5,1.3-5.3,1.4C429.6,1663.1,433,1659.1,438.5,1657.1z
					 M439.5,1714.9c-2,3.4-4.2,6.7-6.6,9.7c-1.4,1.8-3.4,3.2-5.2,4.7c-1.5,1.2-3.2,1.3-5,1c-1.7-0.3-2.9-1.6-2.6-3.3
					c0.2-1.3,0.6-2.7,1.3-3.8c1.1-1.6,2.3-3.2,3.7-4.5c5.4-5.4,11.6-9.9,18-14.2c0.2-0.2,0.7,0,1.5,0
					C443.3,1708.2,441.4,1711.6,439.5,1714.9z M498.8,1687.6c-6.3,1.8-9.5-1.6-7.8-8.2c0-0.1,0.3-0.2,0.6-0.3c1.5,1.3,3,2.9,4.7,4
					c1.6,1.1,3.4,1.7,5.9,2.9C500.5,1686.8,499.7,1687.4,498.8,1687.6z M508.7,1678.3c-2-0.5-3.8-0.8-5.4-1.3
					c-1.8-0.6-3-1.8-3.8-3.5c-1.2-2.6-0.3-4.3,2.5-4.6c1.7-0.2,3.5-0.2,5.5-0.3c0.7-3.8,0.7-7.2-2.3-9.9c5.1-0.8,7.3,0.6,7.5,5.2
					C513.1,1668.8,512.1,1673.6,508.7,1678.3z M538.8,1663.2c-0.7-3.4,0.5-5.6,3.5-8.3C542.3,1658.9,541.2,1661,538.8,1663.2z"/>
				<path d="M471.2,1652.1c0.6-0.2,2-0.4,3.2-1c5.2-2.7,8.3-7,9.5-12.7c0.3-1.3,0.1-2.8-0.2-4.1c-0.8-3-3.3-4.5-6.3-3.9
					c-4.5,0.9-8.1,3.4-10.1,7.4c-1.3,2.5-1.9,5.5-2.3,8.3C464.3,1649.7,466.7,1652.1,471.2,1652.1z"/>
			</g>
			<g>
				<path d="M1065.6,1665.7c-0.7-1.1-2-1.5-3.1-0.9c-1.2,0.6-2.4,1.4-3.2,2.4c-2.7,3.2-5.1,6.6-7.7,9.7c-1.8,2.1-3.8,4-5.8,5.9
					c-1.5,1.3-3.2,2.3-5.3,2.5c-2.3,0.2-3.6-0.7-3.5-2.9c0.1-1.9,0.4-4,1.1-5.8c1.2-3.3,2.8-6.5,4.2-9.8c0.4-1,0.6-2.1,0.9-3.1
					c-6.3-3.9-11.6-3-15.8,2.2c-4.4,5.6-8.9,11-13.5,16.4c-1.7,1.9-3.7,3.5-5.7,5.2c-0.5,0.4-1.3,0.4-2.6,0.8c0.5-2.3,0.6-4,1.2-5.6
					c2.7-7.7,5.7-15.1,10.2-21.9c0.6-0.9,0.8-2,1.3-3.1c-7.8-2.6-11.9-1.3-15.1,4.9c-1.7,3.3-3.9,5.9-6.9,7.8
					c-2.8,1.8-5.7,3.5-8.6,5.1c-0.8,0.4-1.7,0.6-2.7,0.9c-0.5-2,0.5-3.4,0.9-4.8c0.8-3.1,1-6.2,0.5-9.4c-1-6.3-5.4-10.1-11.8-10.3
					c-5.8-0.2-10.2,2.5-14,6.5c-1.3,1.4-2.6,3-4.2,4c-5.5,3.6-9.3,8.5-10.9,14.9c-0.5,2.3-1.7,3.9-3.6,5.2c-2.2,1.4-4.3,2.8-6.6,4
					c-1.4,0.7-3,1-4.5,1.2c-1.5,0.2-2.6-0.9-2.7-2.5c-0.2-2.7,0.5-5.1,1.7-7.4c2.6-4.9,5.4-9.6,8.1-14.4c1.1-1.9,2.2-3.7,3.1-5.7
					c0.7-1.4-0.1-2.9-1.5-3.3c-4.7-1.4-10.1,0.2-12.5,4.3c-1.8,3.1-4.3,5.1-7.2,6.8c-3.4,2-6.8,3.9-10.3,5.8c-0.9,0.5-2.1,0.6-3.4,1
					c-1-3.2-2-6-2.8-8.8c-1.1-3.9,0.2-7,3.3-9.4c1.2-1,2.7-1.6,4.1-2.3c1-0.5,2.1-1,3.1-1.4c0-2.6-0.9-4.5-3-5.6
					c-1.8-1-3.5-0.3-5.1,0.4c-1.4,0.6-2.9,1.4-4.1,2.3c-4.4,3.3-7.4,7.6-8.9,12.9c-0.4,1.5-0.9,3-1.8,4.3c-4.2,6-9,11.5-14.5,16.4
					c-3.3,2.9-6.7,5.5-10.9,7c-6.1,2.2-11.4,1.3-11.7-7.2c0-0.4,0.2-0.7,0.4-1.5c1.8-0.7,3.8-1.5,5.8-2.2c5.5-1.9,10.3-4.9,14.3-9.2
					c2.2-2.4,3.9-5,4.5-8.2c1-5.8-2.4-10.5-8.4-10c-1.6,0.1-3.1,0.3-4.7,0.7c-5.1,1.3-9.4,4.1-12.9,8c-2.5,2.8-4.6,5.9-6.7,9
					c-4.4,6.8-9.4,13.2-15.3,18.8c-2,1.9-4.3,3.5-6.6,4.9c-1.1,0.7-2.6,1-3.9,1.2c-1.5,0.2-2.7-0.9-2.9-2.3c-0.1-1-0.1-2,0.2-2.9
					c0.9-2.4,1.8-4.8,3.2-7c2.2-3.5,4.9-6.7,7.2-10.1c0.6-0.9,1.4-2.2,1.3-3.2c-0.3-2.7-0.6-5.6-3.6-7.2c-2.6,0.8-5.3,1.7-8.6,2.7
					c0.4-1.4,0.6-2.1,0.8-2.8c0.4-1.9,1.1-3.8,1.2-5.8c0.3-5.2-3.2-8.1-8.3-7.2c-2.6,0.5-4.9,1.6-6.6,3.6
					c-4.8,5.3-7.6,11.1-4.9,18.1c-5,7.2-11.9,13-18.2,15.4c0.4-1.2,0.7-2.1,1-2.9c1.2-4,2.7-7.9,3.5-11.9c0.5-2.6,0.5-5.5,0-8.2
					c-0.8-4.1-3.4-6-7.5-6.2c-2.6-0.2-5.2,0.4-7.4,1.6c-3.1,1.8-6,3.8-8.9,5.8c-1.4,1-2.8,2.1-4.9,3.6c0.7-3.7,1.3-6.5,1.9-9.6
					c-5.1-1.1-8.9,1.2-12.6,3.8c-1.9,4.3-5.9,6.7-8.7,10.2c-3.6,4.4-7.9,8.3-12.1,12.1c-2.2,2-4.7,3.6-7.2,5.1
					c-1.5,0.9-3.2,1.5-4.9,1.8c-2.5,0.5-3.9-0.6-3.9-3.1c0-2,0.1-4,0.7-5.8c1.5-4.5,3.3-8.8,5.1-13.2c0.4-1.1,1.1-2.1,1.5-3.2
					c0.5-1.3-0.1-2.4-1.2-3c-2.5-1.3-5.3-1.6-8.1-1c-2.2,0.5-2.9,2.5-3.9,4.1c-0.6,1-1.2,2.1-1.8,3c-3.7,5.7-7.9,10.9-13,15.2
					c-1.6,1.4-3.2,2.9-5.5,3.1c-2.4-4.3-2.4-4.3,2.4-21.6c-0.3-0.4-0.6-1-1.1-1.2c-4.3-2-8.7-1-11.6,2.6c-1.2,1.5-2.3,3.2-3.6,4.7
					c-4.4,5.1-8.7,10.2-13.2,15.2c-1.1,1.3-2.3,2.8-5.1,2.8c1.7-11.6,6.2-21.8,12-31.8c-0.9-0.6-1.5-1.2-2.2-1.3
					c-1.8-0.2-3.5-0.2-5.3-0.1c-3.2,0.2-5.6,1.5-7,4.6c-1.7,3.8-3.6,7.5-5.4,11.2c-0.7,1.4-1.2,3-2.2,4.1c-4.4,4.6-9,8.8-14.7,11.9
					c-2.3,1.2-4.6,2.3-7.6,1.3c-0.2-0.9-0.9-2.1-0.7-3.1c0.5-2.5,1-5.1,2.2-7.3c2.5-4.9,5.4-9.6,8.2-14.4c1-1.7,1.9-3.4,2.7-5.2
					c0.5-1.1-0.4-2.4-1.5-2.8c-4.8-1.5-10.4,0.3-12.9,4.6c-4,6.8-7.3,14-9.2,21.7c-0.3,1.3-0.6,2.7-0.7,4.1
					c-0.2,5.7,3.2,9.9,8.9,10.7c2.5,0.4,5.1,0.3,7.6-0.6c3.6-1.2,6.9-3,10-5.1c1.6-1.1,3.2-2.2,5.1-3.6c0.4,1.3,0.9,2.4,1.1,3.5
					c0.6,3.2,2.7,4.6,5.6,5.3c3.5,0.9,6.7,0,9.8-1.3c3.9-1.6,7.2-4.1,10.1-7.1c1.1-1.1,2.2-2,3.8-3.5c0.3,2.2,0.4,3.7,0.7,5.2
					c0.9,3.9,3.4,6.1,7.4,6.4c2.8,0.2,5.6-0.1,8-1.7c2.8-1.8,5.4-3.9,8-6c1.2-0.9,2.2-2.1,3.6-3.4c1,2.1,1.7,3.9,2.6,5.6
					c3.4,6.1,8.3,8.1,14.9,6.1c1.9-0.5,3.8-1.3,5.4-2.3c3.2-1.9,6.5-3.8,9.4-6.1c3.6-2.8,6.7-6.1,10.1-9.1c0.6-0.6,1.1-1.7,2.3-1.1
					c-0.9,6.6-0.9,6.6-4.1,10.8c-6.5,8.4-12.7,17.2-17.5,26.7c-2.3,4.6-4.3,9.3-5.8,14.2c-0.9,2.9-1.1,6.3-0.8,9.3
					c0.5,5.4,5.5,8,10.5,5.6c1.4-0.7,2.7-1.7,3.7-2.9c1.7-1.9,3.3-3.9,4.6-6.2c2.2-3.9,4.5-7.9,6.1-12.1c3.7-9.3,7-18.8,10.5-28.3
					c0.5-1.2,1-2.4,1.7-4.1c0.7,1.1,1.1,1.7,1.5,2.4c2.9,4.6,7.3,5.8,12.3,4.9c1.9-0.3,3.7-1.2,5.6-1.9c1.7-0.6,3.2-1.5,4.9-1.9
					c9.5-1.7,17.2-6.5,24.1-13c2.7-2.6,5.2-5.3,8-8.2c2.1,0,4.3-0.6,6.9-0.1c-1.7,2.9-3.4,5.4-4.7,8c-2,3.7-3,7.7-2.4,12
					c0.7,4.8,3.8,7.7,8.7,8.2c3,0.3,5.9-0.4,8.6-1.7c4.9-2.3,9-5.6,12.8-9.4c1.7-1.6,3.3-3.3,5.2-5.2c0.7,1.3,1.2,2.4,1.7,3.4
					c3.5,6.7,9.8,9.7,17.2,8.5c5.8-0.9,10.8-3.5,15.6-6.7c5.2-3.4,9.5-7.7,13.7-12.1c1-1.1,2.2-2.1,3.4-3.2c1.1,1.9,1.9,3.4,1.3,5.4
					c-1.9,1.4-3.9,2.6-5.6,4.2c-1.8,1.6-3.4,3.3-4.8,5.1c-1.9,2.5-2.2,5.5-1.7,8.5c0.5,2.9,2.5,4.9,5.4,5.5
					c10.8,2.1,20.3-5.3,20.8-16.3c0.1-1.9,0-3.9,0-5.8c3.2-2,6.2-3.8,10-5.2c-0.1,1.1-0.1,1.9-0.3,2.6c-0.4,1.7-0.9,3.4-1.2,5.2
					c-1.1,6.6,2.8,11.8,9.5,12.4c2.3,0.2,4.8,0,7-0.8c3-1,5.7-2.6,8.5-4.1c1.2-0.6,2.3-1.3,3.5-1.9c1.1,1.3,1.9,2.4,2.9,3.4
					c1.9,1.8,4.1,3.1,6.7,3.5c4.8,0.7,9.5,0.4,13.7-2.4c3.1-2.1,5.7-5.1,8.9-6.7c3.5-1.7,7.6-2.1,11.3-3.2c2-0.6,3.9-1.7,6.4-2.9
					c-0.2,2.1-0.4,3.6-0.4,5.1c-0.1,6.9,2.9,10.4,10.8,9.6c2.3-0.2,4.6-1.2,6.7-2.3c3.2-1.6,5.8-4,8.2-6.7c1-1.1,2.1-2.3,3.3-3.7
					c0.5,1,0.9,1.7,1.2,2.4c0.6,1.7,1,3.4,1.8,5c1.6,3.3,4.2,5.1,8,5c4.3-0.1,8.3-1,11.7-3.5c2.7-2,5.3-4.1,7.5-6.6
					c3.7-4.3,7.1-9,10.6-13.5c0.7-0.9,1.4-2,1.6-3.1C1066.3,1667.6,1066.1,1666.5,1065.6,1665.7z M868.5,1657
					c0.2,0.9,0.7,1.9,0.5,2.6c-1.7,5.9-5.5,9.8-11.5,11.5c-0.3,0.1-0.7-0.2-1-0.4C859.4,1663.2,862.9,1659.2,868.5,1657z
					 M731.9,1708.3c0.1,0.3,0.2,0.6,0.3,0.8c0,0,0,0,0,0C732.1,1708.9,732,1708.6,731.9,1708.3L731.9,1708.3z M728,1721.1
					c-1.5,3.6-3.2,7.2-4.9,10.7c-0.4,0.9-1.6,1.4-2.4,2.1c-1.4-1.8-0.9-3.4-0.4-4.8c2.5-6.9,6-13.3,10.1-19.3
					c0.2-0.3,1.1-0.2,1.8-0.3C730.8,1713.5,729.5,1717.3,728,1721.1z M775,1670.7c-1,4.7-3.3,9.7-6.5,13.8c-4.3-2-7.2-7.7-13.5-5.9
					c4.1-5.1,8.6-9.3,14.3-12.2c1.5-0.8,3.2-2,4.9-0.6C775.8,1667.1,775.4,1669,775,1670.7z M807,1662.5c-1.4,0-1.5-0.9-1.3-1.6
					c0.5-2.3,1.3-4.5,3.8-5.8C810,1658.2,808.5,1660.4,807,1662.5z M892.7,1695.7c-0.7,0.7-1.8,1.2-2.6,0.3
					c-0.5-0.6-0.9-1.8-0.7-2.6c0.8-2.8,3.2-4.2,6.5-6.3C895.6,1691.2,894.9,1693.8,892.7,1695.7z M958.6,1687.7
					c-2.4-1.1-3.2-3.9-2.3-8.3c3.6,2.3,6.8,4.4,9.9,6.4C964,1688.1,961.1,1688.9,958.6,1687.7z M974.4,1677.7
					c-2.4,0.8-4.4-0.1-6.4-0.9c-1.7-0.7-2.8-2-3.5-3.7c-0.9-2.4-0.1-3.8,2.4-4.1c1-0.1,2-0.1,2.9-0.1c0.8,0,1.5-0.1,2.6-0.2
					c0.8-5.8,0.8-5.8-2-10.2c5.5-0.5,7.3,0.9,7.5,6C978.2,1669.3,977.1,1673.7,974.4,1677.7z"/>
				<path d="M939.4,1652c1.2,0.1,2.4-0.1,3.5-0.4c4.9-1.6,10.8-8.3,10.5-15.3c0,0,0-1-0.2-2c-0.5-2.5-2.4-4-5.1-4
					c-4.2-0.1-10.4,3.9-11.4,7.9c-0.6,2.5-1.5,4.8-2.2,7.2C933.6,1649,935.8,1651.8,939.4,1652z"/>
				<path d="M975,1647.8c0.7-0.3,1.4-0.7,2-1.3c3.5-3.4,6.9-6.9,10.4-10.4c-1-2.8-2.7-3.4-4.4-3.6c-1.9-0.2-3.4,0.8-4.5,2.3
					c-2.3,2.9-4.6,5.8-6.9,8.8c-0.8,1-1,2.1-0.2,3.2C972.2,1648,973.8,1648.4,975,1647.8z"/>
				<path d="M627.9,1651.9c1.5,0.2,3.3,0.2,4.6-0.4c5.9-2.7,9.6-7.2,10.5-13.2c0-1.1,0-1.7,0-2.3c-0.3-4-2.8-6.1-6.6-5.4
					c-1.5,0.3-3.1,0.7-4.3,1.7c-2,1.5-4.3,3.1-5.3,5.3c-1.5,3.1-2.1,6.6-2.6,10C623.7,1649.7,625.6,1651.6,627.9,1651.9z"/>
			</g>
			<g>
				<path d="M316.8,1572.6c-1.2-0.1-2.4-0.1-3.5,0c-15,0.7-29.9,1.3-44.9,2c-6.3,0.3-12.6,0.5-18.8,0.7c-1.9-1.9-3.8-3.2-6-3.9
					c-3.6-1.2-5-0.4-7.3,3c-0.3,0.5-0.7,0.9-1.3,1.7c-11.5,0.5-22.7,1-34,1.5c-1.6,0.1-3.2,0.1-4.7,0.3c-1.6,0.2-3,0.9-4,2.3
					c-1.2,1.6-0.6,3.8,1.3,4.3c1.5,0.4,3.1,0.7,4.6,1c4.2,0.8,7.2,3.2,9.1,6.9c1,2.1,1.8,4.4,2.3,6.7c1.6,7.3,0.5,14.5-0.6,21.8
					c-1.8,11.3-4.9,22.3-8.4,33.2c-4.6,14.7-9.4,29.3-14,43.9c-0.9,3-1.7,6.1-2.4,9.1c-0.5,2.5,0.7,4.2,3.1,4.9
					c2.6,0.7,5.2-0.3,6.6-2.7c0.8-1.4,1.5-2.8,2.1-4.2c5.1-11.1,10.3-22.2,15.2-33.4c12.5-28.3,24.8-56.7,35.1-85.9
					c0.2-0.7,0.7-1.4,1.1-2.3c2.2-0.1,4.3-0.2,6.4-0.2c18.7,0,37.5-0.1,56.2-0.1c4.7,0,8.1-2.5,9.4-6.5
					C320.1,1574.6,319.1,1572.8,316.8,1572.6z M231.3,1588.6c-5.1,14.3-10.4,28.5-15.6,42.8c-1.3,3.5-2.6,7-4,10.5
					c-0.2,0.6-0.7,1.1-1.1,1.6c0.2-1.8,0.4-3.6,0.8-5.3c2.2-8.8,4.6-17.6,5.5-26.6c0.4-4.1,0.5-8.3,0.4-12.4
					c-0.2-4.9-1.4-8-4.5-13.8c3.7-1.3,11.2-1.7,19-1.1C232.8,1585.8,231.8,1587.2,231.3,1588.6z"/>
				<path d="M256.3,1684.2c1.1,2,2.5,2.4,3.9,1.8c2.3-1,4.7-2,6.8-3.4c5.8-3.9,10.5-8.9,15.1-14c1.4-1.6,2.8-3.3,4.2-5
					c1.7-1.8,3.2-2.3,4.6-1.5c1.5,0.9,1.6,2.7,0.2,5.2c-0.2,0.3-0.4,0.7-0.6,1c-7,9.4-15,17.8-25.1,23.9c-2,1.2-4.2,2.1-6.4,2.9
					c-3.6,1.4-6.9,1-10-1.5c-0.6-0.5-1.3-0.8-1.5-1c-3.9,1.4-7.4,2.9-11,3.7c-8.6,1.8-15.8-3.9-16.4-12.6c-0.2-2.3,0.1-4.7,0.6-7
					c1.5-6.5,4.8-12.1,9.1-17.1c3.1-3.6,7.1-4.8,11.7-3.5c2.6,0.7,3.3,2.8,1.8,5c-1.5,2.1-3.2,4-4.7,6.1c-2.6,3.5-4.8,7.2-5.9,11.5
					c-0.5,1.9-0.8,3.9-0.5,5.8c0.6,4.1,4.5,6.2,8.4,4.8c3.1-1.1,5.1-2.9,5.6-6.7c1.3-9.9,6.1-18.2,12.6-25.6c1.3-1.4,3-2.6,4.8-3.3
					c4-1.5,7.7,1.6,7,5.9c-0.3,1.9-1,3.8-2,5.5c-3,5.1-6.2,10-9.4,15C258.3,1681.6,257.3,1682.8,256.3,1684.2z"/>
			</g>
		</g>
		<g>
			<path d="M186.4,1542.2v-117.2h80.4v19.8H210v27.8H259v19.8H210v49.8H186.4z"/>
			<path d="M302.5,1542.2v-117.2H325v117.2H302.5z"/>
			<path d="M413.6,1515.1l22.4,3.8c-2.9,8.2-7.4,14.5-13.6,18.8c-6.2,4.3-14,6.4-23.3,6.4c-14.8,0-25.7-4.8-32.8-14.5
				c-5.6-7.7-8.4-17.5-8.4-29.3c0-14.1,3.7-25.1,11-33.1c7.4-8,16.7-12,27.9-12c12.6,0,22.6,4.2,29.9,12.5
				c7.3,8.3,10.8,21.1,10.5,38.3h-56.3c0.2,6.7,2,11.8,5.4,15.6c3.5,3.7,7.8,5.6,13,5.6c3.5,0,6.5-1,8.9-2.9
				S412.3,1519.4,413.6,1515.1z M414.8,1492.4c-0.2-6.5-1.8-11.4-5-14.8c-3.2-3.4-7.1-5.1-11.7-5.1c-4.9,0-9,1.8-12.2,5.4
				c-3.2,3.6-4.8,8.4-4.7,14.6H414.8z"/>
			<path d="M461,1542.2l30.6-43.7l-29.4-41.2h27.4l15,23.4l15.8-23.4H547l-28.8,40.2l31.4,44.7h-27.6l-17.3-26.3l-17.4,26.3H461z"/>
			<path d="M574.1,1498.5c0-7.5,1.8-14.7,5.5-21.7c3.7-7,8.9-12.3,15.6-16c6.7-3.7,14.3-5.5,22.6-5.5c12.8,0,23.4,4.2,31.6,12.5
				c8.2,8.3,12.3,18.9,12.3,31.6c0,12.9-4.1,23.5-12.4,31.9c-8.3,8.5-18.7,12.7-31.3,12.7c-7.8,0-15.2-1.8-22.3-5.3
				c-7.1-3.5-12.4-8.7-16.1-15.5C576,1516.5,574.1,1508.3,574.1,1498.5z M597.1,1499.7c0,8.4,2,14.9,6,19.4c4,4.5,8.9,6.7,14.8,6.7
				c5.9,0,10.8-2.2,14.8-6.7c4-4.5,6-11,6-19.5c0-8.3-2-14.7-6-19.2c-4-4.5-8.9-6.7-14.8-6.7c-5.9,0-10.8,2.2-14.8,6.7
				C599.1,1484.8,597.1,1491.3,597.1,1499.7z"/>
			<path d="M770.9,1499.1l23,7.3c-3.5,12.8-9.4,22.3-17.6,28.5c-8.2,6.2-18.6,9.3-31.2,9.3c-15.6,0-28.4-5.3-38.4-16
				c-10-10.6-15-25.2-15-43.6c0-19.5,5-34.7,15.1-45.5c10.1-10.8,23.3-16.2,39.7-16.2c14.3,0,26,4.2,34.9,12.7
				c5.3,5,9.3,12.2,12,21.6l-23.4,5.6c-1.4-6.1-4.3-10.9-8.7-14.4c-4.4-3.5-9.7-5.3-16-5.3c-8.7,0-15.7,3.1-21.2,9.4
				c-5.4,6.2-8.1,16.3-8.1,30.3c0,14.8,2.7,25.4,8,31.7c5.3,6.3,12.3,9.4,20.8,9.4c6.3,0,11.7-2,16.2-6
				C765.7,1513.9,768.9,1507.6,770.9,1499.1z"/>
			<path d="M825.2,1498.5c0-7.5,1.8-14.7,5.5-21.7c3.7-7,8.9-12.3,15.6-16c6.7-3.7,14.3-5.5,22.6-5.5c12.8,0,23.4,4.2,31.6,12.5
				c8.2,8.3,12.3,18.9,12.3,31.6c0,12.9-4.1,23.5-12.4,31.9c-8.3,8.5-18.7,12.7-31.3,12.7c-7.8,0-15.2-1.8-22.3-5.3
				c-7.1-3.5-12.4-8.7-16.1-15.5C827,1516.5,825.2,1508.3,825.2,1498.5z M848.2,1499.7c0,8.4,2,14.9,6,19.4c4,4.5,8.9,6.7,14.8,6.7
				c5.9,0,10.8-2.2,14.8-6.7c4-4.5,6-11,6-19.5c0-8.3-2-14.7-6-19.2c-4-4.5-8.9-6.7-14.8-6.7c-5.9,0-10.8,2.2-14.8,6.7
				C850.2,1484.8,848.2,1491.3,848.2,1499.7z"/>
			<path d="M1024.7,1542.2h-20.9v-12.5c-3.5,4.9-7.6,8.5-12.3,10.8c-4.7,2.4-9.5,3.6-14.3,3.6c-9.8,0-18.1-3.9-25.1-11.8
				s-10.4-18.8-10.4-32.9c0-14.4,3.4-25.3,10.2-32.8c6.8-7.5,15.3-11.2,25.7-11.2c9.5,0,17.7,3.9,24.6,11.8v-42.2h22.5V1542.2z
				 M964.8,1497.9c0,9.1,1.3,15.6,3.8,19.7c3.6,5.9,8.7,8.8,15.2,8.8c5.2,0,9.6-2.2,13.2-6.6c3.6-4.4,5.4-11,5.4-19.7
				c0-9.8-1.8-16.8-5.3-21.1c-3.5-4.3-8-6.4-13.5-6.4c-5.3,0-9.8,2.1-13.4,6.4C966.6,1483.1,964.8,1489.4,964.8,1497.9z"/>
			<path d="M1063.3,1445.7v-20.8h22.5v20.8H1063.3z M1063.3,1542.2v-84.9h22.5v84.9H1063.3z"/>
			<path d="M1202.4,1542.2h-22.5v-43.3c0-9.2-0.5-15.1-1.4-17.8c-1-2.7-2.5-4.8-4.7-6.3c-2.2-1.5-4.8-2.2-7.8-2.2
				c-3.9,0-7.4,1.1-10.5,3.2c-3.1,2.1-5.2,5-6.4,8.5c-1.1,3.5-1.7,10-1.7,19.5v38.5H1125v-84.9h20.9v12.5c7.4-9.6,16.7-14.4,28-14.4
				c5,0,9.5,0.9,13.6,2.7c4.1,1.8,7.2,4.1,9.3,6.8c2.1,2.8,3.6,5.9,4.4,9.4s1.2,8.6,1.2,15.1V1542.2z"/>
			<path d="M1280.5,1457.2v17.9h-15.4v34.2c0,6.9,0.1,11,0.4,12.1c0.3,1.1,1,2.1,2,2.8c1,0.7,2.3,1.1,3.8,1.1c2.1,0,5.1-0.7,9-2.2
				l1.9,17.4c-5.2,2.2-11.1,3.4-17.8,3.4c-4.1,0-7.7-0.7-11-2c-3.3-1.4-5.6-3.1-7.2-5.3c-1.5-2.2-2.6-5.1-3.2-8.8
				c-0.5-2.6-0.7-7.9-0.7-15.8v-37h-10.3v-17.9h10.3v-16.9l22.6-13.1v30H1280.5z"/>
			<path d="M1361.7,1515.1l22.4,3.8c-2.9,8.2-7.4,14.5-13.6,18.8c-6.2,4.3-14,6.4-23.3,6.4c-14.8,0-25.7-4.8-32.8-14.5
				c-5.6-7.7-8.4-17.5-8.4-29.3c0-14.1,3.7-25.1,11-33.1c7.4-8,16.7-12,27.9-12c12.6,0,22.6,4.2,29.9,12.5
				c7.3,8.3,10.8,21.1,10.5,38.3H1329c0.2,6.7,2,11.8,5.4,15.6c3.5,3.7,7.8,5.6,13,5.6c3.5,0,6.5-1,8.9-2.9
				S1360.5,1519.4,1361.7,1515.1z M1363,1492.4c-0.2-6.5-1.8-11.4-5-14.8c-3.2-3.4-7.1-5.1-11.7-5.1c-4.9,0-9,1.8-12.2,5.4
				c-3.2,3.6-4.8,8.4-4.7,14.6H1363z"/>
			<path d="M1412.1,1517.9l22.6-3.4c1,4.4,2.9,7.7,5.8,10c2.9,2.3,7,3.4,12.3,3.4c5.8,0,10.2-1.1,13.1-3.2c2-1.5,3-3.5,3-6
				c0-1.7-0.5-3.1-1.6-4.2c-1.1-1.1-3.6-2.1-7.5-3c-18.1-4-29.6-7.7-34.5-11c-6.7-4.6-10.1-11-10.1-19.1c0-7.4,2.9-13.5,8.7-18.6
				c5.8-5,14.8-7.5,27-7.5c11.6,0,20.3,1.9,25.9,5.7c5.7,3.8,9.5,9.4,11.7,16.8l-21.2,3.9c-0.9-3.3-2.6-5.8-5.2-7.6
				c-2.5-1.8-6.1-2.6-10.8-2.6c-5.9,0-10.2,0.8-12.7,2.5c-1.7,1.2-2.6,2.7-2.6,4.6c0,1.6,0.7,3,2.2,4.1c2,1.5,9,3.6,21,6.3
				c12,2.7,20.3,6.1,25.1,10c4.7,4,7,9.6,7,16.7c0,7.8-3.3,14.5-9.8,20.1c-6.5,5.6-16.1,8.4-28.9,8.4c-11.6,0-20.7-2.3-27.5-7
				C1418.5,1532.4,1414.1,1526,1412.1,1517.9z"/>
			<path d="M1544.2,1483.1l-20.4-3.7c2.3-8.2,6.2-14.3,11.8-18.2c5.6-3.9,13.9-5.9,25-5.9c10,0,17.5,1.2,22.4,3.6
				c4.9,2.4,8.4,5.4,10.4,9c2,3.7,3,10.4,3,20.1l-0.2,26.2c0,7.5,0.4,13,1.1,16.5c0.7,3.5,2.1,7.3,4,11.4H1579
				c-0.6-1.5-1.3-3.7-2.2-6.6c-0.4-1.3-0.6-2.2-0.8-2.6c-3.8,3.7-7.9,6.5-12.3,8.4c-4.4,1.9-9,2.8-14,2.8c-8.7,0-15.6-2.4-20.7-7.1
				c-5-4.7-7.6-10.7-7.6-18c0-4.8,1.1-9.1,3.4-12.8c2.3-3.8,5.5-6.6,9.6-8.6c4.1-2,10.1-3.7,17.9-5.2c10.5-2,17.8-3.8,21.8-5.5v-2.2
				c0-4.3-1.1-7.4-3.2-9.2c-2.1-1.8-6.2-2.8-12.1-2.8c-4,0-7.1,0.8-9.4,2.4S1545.6,1479.2,1544.2,1483.1z M1574.3,1501.4
				c-2.9,1-7.4,2.1-13.7,3.4c-6.2,1.3-10.3,2.6-12.2,3.9c-2.9,2.1-4.4,4.7-4.4,7.9c0,3.1,1.2,5.9,3.5,8.2c2.3,2.3,5.3,3.4,9,3.4
				c4.1,0,7.9-1.3,11.6-4c2.7-2,4.5-4.5,5.4-7.4c0.6-1.9,0.9-5.6,0.9-11V1501.4z"/>
		</g>
	</g>
	<g>
		<g>
			<path class="st0" d="M789.1,480c4.6-2,9.3-4,14-6c44.2-18.8,87.8-34.4,130.5-47.2l-143.8-6.7C789.6,429.3,789.4,450.4,789.1,480z
				"/>
			<path class="st0" d="M593.7,324.2c-0.2,0-0.4,0-0.5,0C592.9,312.9,593.1,313.6,593.7,324.2c81.2,3.9,167.3,6,256.5,6
				c74.2,0,146.3-1.4,215.3-4.2c1,0,2.1-0.1,3.1-0.1c-0.5,17.5-0.5,40.3,0.3,69.9c68-10.7,132.3-13.3,191.2-7.8
				c-157.6-209.1-398.8-199-581.1-129c-164.5,63.2-261.3,219.2-240,448.4c47.6-45,102.6-87.9,163.1-127
				C599.4,448.2,595.3,351.9,593.7,324.2z"/>
		</g>
		<path class="st1" d="M1208.1,1230c-91.2,36.1-190.6,62.1-289.8,77.3c-17.3,2.7-34.6,5-51.8,7c-275,32.1-536.2-19.7-599.3-168.4
			c-32.7-77-20.3-164.7,25.6-252.8c32.9-63.1,83-126.4,146-185.9c47.6-45,102.6-87.9,163.1-127c0,0.5,0,1,0,1.5
			c0,1.2,0.1,2.5,0.1,3.7c0,1.9,0.1,3.8,0.1,5.7c0,1.1,0,2.2,0.1,3.3c0,0.8,0,1.6,0,2.5c0,0.3,0,0.7,0,1c0,1.2,0.1,2.5,0.1,3.8
			c0,0.3,0,0.7,0,1c0,0.1,0,0.1,0,0.2c0,1.7,0.1,3.3,0.1,5v0.7c0,0.1,0,0.3,0,0.4c0.1,3,0.1,6.1,0.2,9.1c0,0.8,0,1.6,0,2.4
			c0.1,3.6,0.1,7.2,0.2,10.9c0,0.4,0,0.8,0,1.2c0,0.3,0,0.7,0,1c0,0.6,0,1.2,0,1.8c0.1,4.6,0.1,9.2,0.2,13.9c0,0.9,0,1.7,0,2.6
			c0,0.8,0,1.6,0,2.4l0,2.8c0,0.9,0,1.9,0,2.8c0,0.7,0,1.4,0,2.2c0,2.5,0.1,5,0.1,7.6c0,0.3,0,0.7,0,1c0,3.7,0.1,7.5,0.2,11.3
			c0,2.2,0.1,4.5,0.1,6.7c0,2.1,0,4.3,0.1,6.4v0.2c0,2,0,4,0.1,5.9c0,2,0,4,0.1,6c0,0.9,0,1.7,0,2.6c0,1.3,0,2.6,0,3.9
			c0,0.3,0,0.6,0,0.9c0,1.1,0,2.2,0,3.4c0,1,0,2.1,0,3.1c0,4.4,0.1,8.8,0.1,13.2c0,2.8,0,5.7,0.1,8.5c0,1.9,0,3.8,0,5.7
			c0,1.9,0,3.8,0,5.7v0.1c0,1.7,0,3.3,0,5c0,0.6,0,1.1,0,1.6c0,2.2,0,4.5,0,6.8c0.1,8.6,0.1,17.2,0.1,25.9c0,3.3,0,6.5,0,9.8
			c0,1.1,0,2.2,0,3.2c0,2,0,3.9,0,5.9v2.9c0,16.5,0,33.1,0,50c0,5.1,0,10.2,0,15.4c0,5.1,0,10.3-0.1,15.4v0
			c-0.1,8.4-0.1,16.8-0.2,25.3c0,1.7,0,3.4,0,5.1v0c-0.1,6.8-0.1,13.6-0.2,20.4c0,2.3,0,4.5-0.1,6.8c0,1.2,0,2.3,0,3.5
			c0,0.9,0,1.8,0,2.7c-0.1,5.9-0.1,11.9-0.2,17.8c0,3.4-0.1,6.9-0.1,10.3c0,0.5,0,1,0,1.5c-0.1,6.3-0.2,12.6-0.3,18.9
			c-0.3,19.5-0.7,39.1-1.2,58.7c0,1.3-0.1,2.6-0.1,3.8c0,2-0.1,4-0.2,6c0,1.5-0.1,3-0.1,4.4c-0.1,3.5-0.2,6.9-0.3,10.4
			c-0.2,6.9-0.4,13.9-0.6,20.8c-0.1,3.5-0.2,6.9-0.3,10.4c-0.1,3.5-0.2,6.9-0.3,10.4c-0.1,4.1-0.2,8.1-0.4,12.2
			c-0.2,6.3-0.4,12.7-0.7,19c23.7-1.1,49.4-2.1,76.2-2.7c0.5,0,1,0,1.5,0c2-0.1,4-0.1,6-0.1c1.6,0,3.2-0.1,4.7-0.1c0.5,0,1,0,1.5,0
			c2,0,3.9-0.1,5.9-0.1c6.4-0.1,12.8-0.2,19.3-0.2c2.4,0,4.9,0,7.3,0c26.4-0.1,53.4,0.2,80.4,1.1c-9.7-70.6-13-237.4-13.9-395.6
			l179.5,5c-25.8,44.8-40.4,96.4-40.4,151.3c0,1.5,0,2.9,0,4.4c0,0.4,0,0.9,0,1.3c0,0.3,0,0.5,0,0.8c0,0.8,0,1.6,0.1,2.4
			c0,0.5,0,1.1,0,1.6c0,0.4,0,0.9,0,1.3c0,0.1,0,0.2,0,0.2c0,0.6,0,1.2,0.1,1.9c0,1.2,0.1,2.4,0.1,3.6c0,0.7,0.1,1.3,0.1,2
			c0,0.8,0.1,1.6,0.1,2.4c0,0.7,0.1,1.4,0.1,2c0,0.3,0,0.6,0.1,0.9c0.1,0.9,0.1,1.7,0.2,2.6c0.1,1.3,0.2,2.6,0.3,3.9
			c0.1,1.3,0.2,2.6,0.3,3.8c0,0.2,0,0.4,0.1,0.7c0,0.5,0.1,1,0.1,1.5c0,0.3,0.1,0.7,0.1,1c0.1,0.8,0.2,1.6,0.2,2.4
			c0,0.4,0.1,0.7,0.1,1.1c0.1,0.6,0.1,1.2,0.2,1.7c0.1,1.3,0.3,2.6,0.4,3.9c0,0.2,0,0.4,0.1,0.6c0,0.2,0,0.3,0.1,0.4
			c0,0.3,0.1,0.6,0.1,0.9c0.1,0.6,0.2,1.2,0.2,1.9c0.1,0.7,0.2,1.3,0.3,1.9c0,0.3,0.1,0.6,0.1,0.9c0.1,0.8,0.2,1.6,0.3,2.3
			c0.1,0.8,0.2,1.6,0.4,2.4c0.1,0.5,0.2,1.1,0.2,1.6c0.1,0.6,0.2,1.2,0.3,1.9c0,0.1,0,0.2,0.1,0.3c0,0.2,0.1,0.5,0.1,0.7
			c0.1,0.7,0.2,1.4,0.3,2.1c0,0.1,0,0.1,0,0.2c0,0.1,0,0.3,0.1,0.4c0.2,0.9,0.3,1.9,0.5,2.8c0.1,0.8,0.3,1.6,0.4,2.4
			c0.1,0.3,0.1,0.7,0.2,1c0,0.1,0,0.2,0.1,0.3c0.2,1.1,0.4,2.2,0.7,3.3c0.1,0.3,0.1,0.7,0.2,1c0.2,1,0.4,2,0.6,3
			c0.2,1,0.4,1.9,0.6,2.9c0.1,0.3,0.1,0.6,0.2,0.8c0.2,1,0.5,2.1,0.7,3.1c0.1,0.3,0.2,0.7,0.2,1c0.1,0.2,0.1,0.5,0.2,0.7
			c0,0.1,0.1,0.2,0.1,0.3c0.1,0.2,0.1,0.5,0.2,0.7c0.2,1,0.5,2,0.7,2.9c0.1,0.2,0.1,0.5,0.2,0.7c0.1,0.4,0.2,0.8,0.3,1.2
			c0.5,2,1,3.9,1.6,5.9c0.3,1,0.6,2,0.9,3c0,0.1,0.1,0.3,0.1,0.4c0.2,0.6,0.3,1.2,0.5,1.8c0.3,0.9,0.5,1.8,0.8,2.8
			c0.2,0.6,0.4,1.2,0.6,1.9c0.1,0.2,0.1,0.4,0.2,0.6c0.1,0.3,0.2,0.6,0.3,0.9c0.2,0.5,0.3,1,0.5,1.5c0.1,0.4,0.2,0.8,0.4,1.2
			c0.2,0.8,0.5,1.6,0.8,2.5c0.1,0.2,0.1,0.4,0.2,0.6c0.3,1,0.7,2,1,3.1l0.2,0.7c0,0.1,0.1,0.2,0.1,0.2c0.2,0.5,0.3,1,0.5,1.4
			c0.3,0.9,0.6,1.8,1,2.7c0.1,0.3,0.2,0.5,0.3,0.8c0,0.1,0,0.1,0.1,0.2c0.2,0.7,0.5,1.3,0.7,2c0.3,0.7,0.5,1.4,0.8,2.1
			c0.1,0.2,0.1,0.4,0.2,0.5c0.1,0.2,0.1,0.4,0.2,0.5c0.2,0.5,0.4,1.1,0.6,1.6c0.2,0.4,0.3,0.8,0.5,1.3c0.1,0.3,0.3,0.7,0.4,1
			c0.1,0.3,0.2,0.5,0.3,0.7c0.2,0.5,0.4,0.9,0.6,1.4c0.1,0.4,0.3,0.7,0.5,1.1c0,0,0,0,0,0c0.5,1.2,1,2.4,1.6,3.6
			c0.3,0.7,0.6,1.5,1,2.2c0.3,0.6,0.6,1.2,0.8,1.9c0.2,0.4,0.4,0.8,0.6,1.2c0.4,1,0.9,1.9,1.3,2.9c0.2,0.3,0.3,0.7,0.5,1.1
			c0.2,0.3,0.3,0.7,0.5,1c0.2,0.4,0.4,0.9,0.6,1.3h0c0,0,0,0,0,0.1c0,0,0,0,0,0.1s0,0.1,0,0.1c0.1,0.2,0.2,0.4,0.3,0.6
			c0.3,0.6,0.6,1.3,0.9,1.9c0.1,0.2,0.1,0.3,0.2,0.4c0,0.1,0.1,0.2,0.1,0.3c0.1,0.2,0.2,0.3,0.3,0.5c0.1,0.3,0.3,0.5,0.4,0.8
			c0.4,0.8,0.8,1.6,1.2,2.3c0.3,0.5,0.5,1,0.8,1.6c0.2,0.4,0.4,0.7,0.6,1.1c0.3,0.5,0.5,1,0.8,1.5c0.8,1.6,1.7,3.2,2.6,4.7
			c0.1,0.1,0.1,0.2,0.2,0.3c0.2,0.3,0.3,0.5,0.5,0.8c0.4,0.7,0.7,1.3,1.1,1.9c0.2,0.4,0.5,0.9,0.8,1.3c0.3,0.5,0.5,0.9,0.8,1.4
			c0.1,0.2,0.2,0.3,0.3,0.5c0,0,0,0.1,0.1,0.1c0.8,1.3,1.6,2.6,2.4,3.9c0,0.1,0.1,0.1,0.1,0.2c0.9,1.5,1.9,3,2.8,4.4
			c0,0.1,0.1,0.1,0.1,0.2v0c0.7,1,1.3,1.9,1.9,2.9c0.2,0.2,0.3,0.5,0.5,0.7c0.2,0.3,0.5,0.7,0.7,1c0.7,1,1.4,2,2.1,3
			c0.5,0.8,1.1,1.6,1.7,2.4c0.3,0.5,0.7,1,1.1,1.5c0.3,0.4,0.5,0.7,0.8,1.1c0.1,0.2,0.3,0.4,0.4,0.6c0.2,0.3,0.4,0.6,0.7,0.9
			c0.4,0.5,0.8,1.1,1.2,1.6c0.5,0.7,1,1.3,1.5,2c0.8,1.1,1.6,2.1,2.5,3.2c0.2,0.2,0.3,0.4,0.5,0.7c1.1,1.4,2.2,2.7,3.3,4
			c1.1,1.4,2.3,2.7,3.4,4.1c0.1,0.1,0.2,0.3,0.3,0.4c0.7,0.9,1.5,1.7,2.3,2.6c0.5,0.5,1,1.1,1.4,1.6c0.9,1,1.8,1.9,2.7,2.9
			c0.2,0.2,0.3,0.4,0.5,0.5c1.2,1.3,2.4,2.5,3.6,3.7c0.4,0.4,0.8,0.8,1.2,1.2c0.8,0.8,1.6,1.6,2.4,2.3c0.1,0.1,0.3,0.2,0.4,0.3
			c0.1,0.1,0.2,0.2,0.3,0.3c0,0.1,0.1,0.1,0.1,0.2c1.1,1,2.2,2.1,3.2,3.1c0.4,0.4,0.9,0.8,1.3,1.2c0.7,0.6,1.3,1.2,2,1.9
			c0.2,0.2,0.4,0.3,0.6,0.5c0.2,0.2,0.5,0.4,0.7,0.7c0.4,0.4,0.9,0.8,1.3,1.2c0.4,0.4,0.9,0.8,1.3,1.2c0.4,0.4,0.8,0.7,1.3,1.1
			c0.8,0.7,1.6,1.4,2.4,2.1c0.1,0.1,0.3,0.2,0.4,0.3c0.2,0.2,0.4,0.3,0.6,0.5c0.6,0.5,1.2,1,1.8,1.5c0.8,0.6,1.5,1.2,2.3,1.8
			c0.1,0.1,0.2,0.2,0.4,0.3c0.9,0.7,1.8,1.4,2.7,2.1c0.4,0.3,0.8,0.6,1.1,0.9c0.5,0.4,1.1,0.8,1.6,1.2c0.6,0.4,1.2,0.9,1.8,1.3
			c0.6,0.4,1.1,0.8,1.7,1.2c0.3,0.2,0.5,0.4,0.8,0.6c1.5,1.1,3,2.1,4.5,3.1c0.8,0.6,1.7,1.2,2.5,1.7c0.1,0.1,0.2,0.1,0.2,0.2
			c0.9,0.6,1.8,1.2,2.7,1.7c0.2,0.2,0.5,0.3,0.7,0.5c0.4,0.2,0.7,0.5,1.1,0.7c0,0,0,0,0.1,0c0.3,0.2,0.7,0.4,1.1,0.7
			c1,0.6,2,1.2,3,1.8c0.8,0.5,1.6,0.9,2.3,1.4c0.2,0.1,0.4,0.2,0.6,0.4c0.2,0.2,0.5,0.3,0.8,0.4c0.7,0.4,1.5,0.9,2.2,1.3
			c0,0,0,0,0.1,0c1,0.6,2,1.2,3,1.7c0.1,0.1,0.2,0.1,0.3,0.2c0.2,0.1,0.5,0.3,0.7,0.4c1,0.5,2,1.1,3,1.6c0.6,0.3,1.2,0.6,1.7,0.9
			c0.1,0.1,0.3,0.2,0.4,0.2c1,0.6,2.1,1.1,3.1,1.6c0.1,0,0.1,0.1,0.2,0.1c1,0.5,2,1,3,1.5c0.5,0.2,1,0.5,1.5,0.7
			c0.3,0.2,0.7,0.3,1,0.5c0.2,0.1,0.3,0.2,0.5,0.2c0.1,0,0.1,0,0.1,0.1c0,0,0,0,0.1,0c0.1,0.1,0.3,0.2,0.4,0.2
			c0.9,0.4,1.9,0.9,2.8,1.3c0.3,0.2,0.7,0.3,1,0.5c0.7,0.3,1.4,0.6,2.1,0.9c0.1,0,0.1,0.1,0.2,0.1c0.3,0.1,0.5,0.2,0.7,0.3
			c0.8,0.4,1.7,0.7,2.6,1.1c0.3,0.2,0.7,0.3,1,0.4c0.2,0.1,0.5,0.2,0.7,0.3c0.5,0.2,1,0.4,1.6,0.7c0.4,0.2,0.8,0.3,1.2,0.5
			c0.7,0.3,1.5,0.6,2.2,0.9c1.1,0.4,2.2,0.9,3.4,1.3c1.1,0.4,2.3,0.8,3.4,1.3c2.5,0.9,5,1.8,7.6,2.6c7.6,2.5,15.5,4.7,23.5,6.7
			c1.5,0.4,3.1,0.7,4.6,1.1c3.1,0.7,6.2,1.3,9.4,1.9c0,0,0,0,0,0c4.7,0.9,9.5,1.7,14.4,2.4c2.4,0.3,4.9,0.7,7.4,1
			c2.5,0.3,5,0.6,7.5,0.8c1.3,0.1,2.5,0.2,3.8,0.4c0.1,0,0.2,0,0.3,0c1.3,0.1,2.6,0.2,3.9,0.3c1.4,0.1,2.7,0.2,4.1,0.3
			c1.4,0.1,2.7,0.2,4.1,0.2c1.4,0.1,2.7,0.1,4.1,0.2C1205.3,1229.9,1206.7,1230,1208.1,1230z"/>
		<path class="st1" d="M1385.3,1138.8c-20.4,8.2-43.3,12.9-67.6,12.9c-23.6,0-66.7-3.9-89.5-10.9c-0.7-0.3-1.3-0.7-2-1.1
			c-0.6-0.3-1.1-0.6-1.7-0.9c-1.4-0.8-2.8-1.6-4.2-2.5c-0.8-0.5-1.5-0.9-2.3-1.4c-0.1-0.1-0.2-0.2-0.4-0.2c-1.2-0.8-2.5-1.6-3.7-2.4
			c-0.2-0.1-0.3-0.2-0.4-0.3c-0.7-0.5-1.5-1-2.2-1.5c-1.5-1.1-3-2.2-4.4-3.3c-0.5-0.4-1-0.7-1.5-1.1c-1.7-1.3-3.3-2.7-5-4.1
			c-0.7-0.6-1.4-1.2-2.1-1.8c-1.3-1.2-2.6-2.3-3.9-3.5c-1.5-1.4-2.9-2.7-4.3-4.2c-0.7-0.7-1.3-1.3-2-2c-0.7-0.7-1.3-1.4-2-2.1
			c0,0,0-0.1-0.1-0.1c-0.9-0.9-1.7-1.8-2.6-2.8c-0.9-0.9-1.7-1.9-2.5-2.9c-0.8-1-1.7-2-2.5-2.9c-0.1-0.1-0.2-0.2-0.2-0.3
			c-0.8-0.9-1.5-1.8-2.2-2.8c-0.8-1-1.6-2.1-2.4-3.1c-0.8-1-1.6-2.1-2.4-3.2c-0.8-1.1-1.6-2.1-2.3-3.2c-0.2-0.3-0.5-0.6-0.7-1
			c-0.4-0.5-0.7-1.1-1.1-1.6c-0.8-1.1-1.6-2.2-2.3-3.4c-0.5-0.7-0.9-1.4-1.3-2.1c-0.1-0.1-0.2-0.3-0.3-0.4c-0.3-0.5-0.7-1.1-1-1.6
			c-0.7-1.1-1.4-2.3-2.2-3.5c-0.5-0.7-0.9-1.5-1.3-2.2c-0.1-0.1-0.2-0.3-0.2-0.4c-0.6-1-1.2-1.9-1.7-2.9c-0.6-1.1-1.2-2.2-1.8-3.2
			c-0.2-0.3-0.3-0.6-0.5-0.9c-0.6-1.1-1.2-2.3-1.8-3.4c-0.3-0.6-0.7-1.3-1-1.9c-0.3-0.6-0.6-1.1-0.9-1.7c-0.5-1-1-1.9-1.4-2.9
			c-0.5-1-1-2.1-1.5-3.1c-0.2-0.3-0.3-0.7-0.5-1c-0.6-1.3-1.2-2.6-1.8-3.9c0,0,0-0.1-0.1-0.1c-0.1-0.2-0.2-0.3-0.2-0.5
			c0-0.1-0.1-0.2-0.1-0.3c-0.4-1-0.9-2-1.3-3c0,0,0-0.1,0-0.1c-0.3-0.7-0.6-1.5-0.9-2.2c-0.5-1.2-1-2.3-1.4-3.5
			c-0.1-0.3-0.3-0.7-0.4-1c-0.5-1.3-1-2.6-1.5-3.9c-0.2-0.6-0.4-1.1-0.6-1.7c-0.3-0.8-0.6-1.6-0.9-2.4c-0.1-0.2-0.1-0.4-0.2-0.6
			c-0.3-0.7-0.5-1.4-0.7-2.1c-0.3-0.9-0.7-1.9-1-2.8c0-0.1,0-0.1-0.1-0.2c-0.2-0.5-0.3-1-0.5-1.6c-0.3-0.8-0.6-1.7-0.8-2.5
			c-0.6-1.7-1.1-3.5-1.6-5.2c0-0.1-0.1-0.2-0.1-0.4c-0.2-0.7-0.4-1.3-0.6-2c-0.1-0.4-0.2-0.9-0.4-1.3c-0.3-1.1-0.7-2.3-1-3.4
			c0-0.1-0.1-0.2-0.1-0.3c-0.1-0.2-0.1-0.4-0.2-0.6c-0.1-0.3-0.2-0.6-0.2-0.9c-0.4-1.4-0.8-2.9-1.2-4.4c-0.4-1.6-0.8-3.3-1.2-4.9
			c-0.1-0.4-0.2-0.7-0.2-1.1c-0.3-1.4-0.7-2.9-1-4.3c-0.1-0.6-0.3-1.2-0.4-1.9c0-0.1,0-0.1,0-0.2c-0.3-1.2-0.5-2.3-0.7-3.5
			c-0.1-0.6-0.2-1.1-0.3-1.7c-0.3-1.4-0.5-2.8-0.8-4.2c-0.1-0.3-0.1-0.7-0.2-1c-0.3-1.5-0.5-3.1-0.8-4.6c-0.3-1.9-0.6-3.8-0.9-5.7
			c-0.2-1.6-0.4-3.1-0.6-4.7c0-0.2-0.1-0.5-0.1-0.8c0-0.1,0-0.1,0-0.2c-0.1-0.8-0.2-1.7-0.3-2.5c0-0.2-0.1-0.5-0.1-0.7
			c-0.1-0.7-0.2-1.3-0.2-1.9c-0.1-0.8-0.2-1.7-0.3-2.5c0-0.1,0-0.1,0-0.2c-0.1-0.9-0.2-1.8-0.3-2.8c-0.1-1-0.2-2.1-0.3-3.1
			c-0.2-1.7-0.3-3.4-0.4-5.1c-0.1-1.7-0.2-3.4-0.3-5.1l0-0.8c0-0.2,0-0.5,0-0.7c-0.1-1.2-0.1-2.3-0.2-3.5c0-0.1,0-0.1,0-0.2
			c0-0.5-0.1-1.1-0.1-1.6c0-0.5,0-1.1,0-1.6c0-1-0.1-2-0.1-3c0-0.9,0-1.7-0.1-2.6c0-1.8,0-3.5,0-5.3c0-131.9,52.7-238.8,148.6-238.8
			c66.6,0,102.3,52.2,117.9,128.3h37.6c0-62.7,20.6-115.4,48.5-130.1c-62.5-41.1-138.6-65.5-215.7-65.5
			c-75.8,0-144.8,23.7-199.8,63.5l-268,8.4c0-10.7,0-21.2,0-31.6c0-2.2,0-4.5,0-6.7v-3.3c0-1.1,0-2.2,0-3.4c0-2.6,0-5.2,0-7.8
			c0-1.2,0-2.4,0-3.6v-1.7c0-1.3,0-2.6,0-3.9c0-3.2,0-6.5,0-9.7c0-2.3,0-4.6,0-6.9c0-1.3,0-2.7,0-4v-0.8c0-1.4,0-2.8,0-4.2
			c0-0.3,0-0.7,0-1v-1.4c0-0.8,0-1.6,0-2.4v-0.9c0-0.9,0-1.8,0-2.8c0-3.1,0-6.1,0-9.1c0-0.3,0-0.7,0-1c0-0.5,0-1.1,0-1.6v-0.1
			c0-1.6,0-3.1,0-4.7v-1.6c0-0.4,0-0.9,0-1.4v-0.7c0-0.5,0-1,0-1.5c0-1.2,0-2.3,0-3.5c0-1,0-1.9,0-2.9c0-0.5,0-1,0-1.5c0-2,0-4,0-6
			c0-0.1,0-0.3,0-0.4v-0.6c0-0.8,0-1.6,0-2.3v-0.5c0-0.5,0-1,0-1.5v-0.1c0-2,0-3.9,0-5.9c0-1,0-1.9,0-2.9c0-0.5,0-0.9,0-1.4v0
			c0-0.5,0-1,0-1.4V533c0-2.7,0-5.4,0.1-8.1c0-0.3,0-0.7,0-1.1c0-0.7,0-1.4,0-2.1c0-1.5,0-3.1,0-4.6c0-0.7,0-1.5,0-2.2v-0.5
			c0-0.6,0-1.3,0-1.9v-0.8c0-0.4,0-0.8,0-1.2v-0.1c0-0.4,0-0.9,0-1.3v-0.7c0-2.4,0-4.7,0.1-7c0-0.4,0-0.8,0-1.2v-0.1
			c0-0.7,0-1.4,0-2v-0.1c0-0.4,0-0.8,0-1.2c0-0.5,0-1.1,0-1.6c0-1.7,0-3.4,0-5.1c0-0.3,0-0.6,0-0.9v-0.1c0-0.6,0-1.2,0-1.7
			c0-0.9,0-1.8,0-2.6c0-0.8,0-1.5,0-2.3v-0.4c0-0.2,0-0.5,0-0.7c0-0.4,0-0.7,0-1.1V480c4.6-2,9.3-4,14-6
			c44.2-18.8,87.8-34.4,130.5-47.2l136.8,6.3c-0.1-1.3-0.1-2.6-0.2-3.9c0-0.4,0-0.7-0.1-1.1c-0.1-2.4-0.2-4.8-0.3-7.1
			c0-0.9-0.1-1.8-0.1-2.7c0-0.3,0-0.6,0-0.9c0-0.7-0.1-1.5-0.1-2.2c-0.1-1.4-0.1-2.8-0.2-4.1c0-0.3,0-0.5,0-0.8c0-0.4,0-0.8,0-1.3
			c0-0.8-0.1-1.5-0.1-2.3c0-0.7,0-1.3-0.1-2c0-0.4,0-0.9,0-1.3c0-0.7-0.1-1.4-0.1-2.1c0-0.8-0.1-1.7-0.1-2.5v-0.2c0-0.5,0-1,0-1.5
			c0-0.5,0-1,0-1.4c68-10.7,132.3-13.3,191.2-7.8c154.7,14.2,272.2,83,321.8,200C1659.3,770.2,1617.1,983.9,1385.3,1138.8z"/>
		<path class="st2" d="M946.9,1175.2c-45.4-6.7-95.3-10.3-145.4-12"/>
		<radialGradient id="SVGID_1_" cx="832.8464" cy="699.1088" r="659.087" gradientUnits="userSpaceOnUse">
			<stop  offset="0.3017" style="stop-color:#26358A;stop-opacity:0"/>
			<stop  offset="0.5744" style="stop-color:#156798;stop-opacity:0.4245"/>
			<stop  offset="0.8171" style="stop-color:#088DA2;stop-opacity:0.8023"/>
			<stop  offset="0.9441" style="stop-color:#039CA6"/>
		</radialGradient>
		<path class="st3" d="M1068.3,364.1c274.3-92.5,359.5-17.6,359.5-17.6c245.8,420.8-51.8,698-191.6,798
			c-69.1-30.7-117.1-121-117.1-227.6c0-131.9,52.7-238.8,148.6-238.8c66.6,0,102.3,52.2,117.9,128.3h37.6
			c0-62.7,20.6-115.4,48.5-130.1c-62.5-41.1-138.6-65.5-215.7-65.5c-75.8,0-144.8,23.7-199.8,63.5l-268,8.4
			c0-90.7,0.6-171.5,1.1-220.1c22,1.7,36.4,3.3,40.4,3.8c29.4-14.9,57.5-28.4,84.3-40.6l156.4,7.3
			C1069.1,405.9,1068.5,383.2,1068.3,364.1z M598.9,457.5c-260.9,6.1-611,75-306.5,435.1c103.1,121.9,207.9,201.9,307.6,253.2
			C608.7,884.2,603.8,615.7,598.9,457.5z M927.6,923.3c0-54.9,14.6-106.4,40.4-151.3l-179.5-5c0.8,158.2,4.2,325,13.9,395.6
			c-57.3-1.9-114.9-1.2-166,0.7c198.7,89.8,372.8,68.8,465,45.7C989.7,1164.6,927.6,1055.1,927.6,923.3z"/>
		<path class="st4" d="M1242,1229.5c-36.4,58.1-117.3,111.4-199,111.4c-50.2,0-93-12.6-124.6-33.5c99.1-15.3,198.6-41.3,289.8-77.3
			c3.4,0.1,6.9,0.2,10.3,0.2C1226.3,1230.2,1234.1,1229.9,1242,1229.5z"/>
		<path class="st5" d="M1239.1,225.8c-42.1,70.8-128.3,68.7-128.3,68.7s-72.9,1.4-101.7-23.8c-13.6-12-12.4-35.5-7.4-56.9
			c0,0,0-0.1,0-0.2c0.8-2.8,12.5-44.8,42.5-78.5c0.2-0.2,0.3-0.4,0.5-0.6c0.4-0.5,0.9-1,1.3-1.4c29.5-32.1,52.7-43.2,52.7-43.2
			s67.3-58.4,119.9,15.8C1271.3,179.9,1239.1,225.8,1239.1,225.8z"/>
		<path class="st6" d="M1506.6,237.7c0,0-39.3-28.7-85.6-18.2c0,0-15.3,8.8-8.2,31.5l0,0c0,0,0,0,0,0.1c1.2,3.9,3.2,8.3,6,13.1
			c6.9,14.3,18.8,36.3,30.2,44.5c16.2,16,37.9,25.5,61.1,1.9C1557.8,262.2,1506.6,237.7,1506.6,237.7z"/>
		<path class="st7" d="M1343.6,1314.9c40-3.3,57.5-41.5,57.5-41.5s16.2-31.7,11.3-49.7c-2.3-8.5-12.9-13-23.4-15.4c0,0,0,0-0.1,0
			c-1.4-0.3-22.3-4.1-43.5,1.9c-0.1,0-0.2,0.1-0.4,0.1c-0.3,0.1-0.6,0.2-0.9,0.3c-20.4,6.1-30.2,13.9-30.2,13.9s-40,17-18.7,55.9
			C1316.6,1319.2,1343.6,1314.9,1343.6,1314.9z"/>
		<path class="st8" d="M59.5,886.1c13,57.5,72.2,75.2,72.2,75.2s49.4,17.1,74.5,6.3c11.9-5.1,16.3-21.4,17.6-37.1c0,0,0,0,0-0.1
			c0.1-2.1,1.4-33.2-11.6-62.9c-0.1-0.2-0.2-0.3-0.2-0.5c-0.2-0.4-0.4-0.9-0.6-1.3c-13-28.4-26.4-41.1-26.4-41.1
			S152.2,770,100,808.9C47.8,847.7,59.5,886.1,59.5,886.1z"/>
		<path class="st9" d="M801.8,1164.7c-0.1-0.5-0.1-1-0.2-1.5"/>
	</g>
</g>
</svg>
