<?xml version="1.0" encoding="utf-8"?>
<!-- Generator: Adobe Illustrator 24.0.2, SVG Export Plug-In . SVG Version: 6.00 Build 0)  -->
<svg version="1.1" id="Capa_2" xmlns="http://www.w3.org/2000/svg" xmlns:xlink="http://www.w3.org/1999/xlink" x="0px" y="0px"
	 viewBox="0 0 1800 609.6" style="enable-background:new 0 0 1800 609.6;" xml:space="preserve">
<style type="text/css">
	.st0{fill:#004295;}
	.st1{fill:#014096;}
	.st2{fill:#002178;}
	.st3{fill:#0092D7;}
	.st4{fill:#0093D6;}
	.st5{fill:#005BA8;}
	.st6{fill:#005DA9;}
	.st7{fill:#001B73;}
	.st8{fill:#028ED1;}
	.st9{fill:#939FBC;}
</style>
<g>
	<g>
		<path class="st0" d="M41.2,354.8c41.1,86.1,133.3,146.1,240.3,146.1c144.6,0,262-109.4,263.2-244.8c-0.2-23.3-3.9-45.8-10.6-67.2
			c1.5,8.4,2.2,16.9,2.2,25.7c0,2.3-0.1,4.6-0.2,6.9c0.1,2.3,0.2,4.7,0.2,7c0,31.2-8.5,60.6-23.4,86c-29.4,54.7-85.5,91.6-150,91.6
			c-8.2,0-16.5-0.6-24.7-1.6c-95.6-6.6-171-82.9-171-176c0-3,0.1-6,0.2-8.9c-0.1-1.7-0.1-3.4-0.1-5c0-91.3,82.6-165.3,184.5-165.3
			c25.2,0,49.2,4.5,71.1,12.7c-35-16.2-74.2-25.3-115.5-25.3c-150.1,0-271.7,119.8-271.7,267.6c0,17.6,1.7,34.9,5,51.6
			c0.1,0.4,0.2,0.8,0.3,1.2c0.6,1.2,1.2,2.3,1.7,3.5C42.4,358.6,41.8,356.7,41.2,354.8z"/>
		<path class="st1" d="M568.7,226.2c3.3,16.9,5,34.5,5,52.4c0,150.1-121.6,271.7-271.7,271.7c-123.6,0-227.9-82.5-260.9-195.5
			c-0.1-0.1-0.1-0.3-0.2-0.4C65.7,479,175.7,572.9,307.5,572.9c150.1,0,271.1-121.6,271.1-271.7C578.6,275.2,575.6,250,568.7,226.2z
			"/>
		<path class="st2" d="M479.1,90.6c40.9,43.5,65.7,100.7,65.7,163.3c0,136.4-117.9,247-263.3,247c-107.1,0-199.2-60-240.3-146.1
			c32.9,113,137.3,195.5,260.9,195.5c150.1,0,271.7-121.6,271.7-271.7c0-17.9-1.7-35.4-5-52.4C553.3,172.2,521.5,125.1,479.1,90.6z"
			/>
		<path class="st3" d="M362.7,419.7c-113.1,0-204.8-94.8-204.8-211.6c0-25.4,4.3-49.8,12.3-72.4c-18.9,32.1-29.8,69.7-29.8,110
			c0,116.9,91.7,211.6,204.8,211.6c88.5,0,163.9-58,192.5-139.3C501.8,379,436.8,419.7,362.7,419.7z"/>
		<path class="st4" d="M521.3,207.1L521.3,207.1L521.3,207.1c-0.5-3.5-1-6.9-1.6-10.4c-2.8-15.9-6.8-30.8-11.5-43.9
			c-2-5.6-4.1-10.1-6.4-14.3c-4.1-7.5-16.2-25.9-16.2-25.9s1.5,7.2,1.7,12.7c0.6,18.7,0,60.6-15.1,89.2c0,0,0,0,0,0
			c-5.9,10.8-13.2,20.9-22,29.4c-3.9,3.8-8.1,7.4-12.6,10.6c-43,31.2-99.3,25-129.3,5.5c1,2,2.1,3.9,3.4,5.8
			c20.9,28.8,92.2,45.6,144,7.9c1.5-1.1,3-2.2,4.4-3.4c3.3-2.7,6.4-5.5,9.4-8.5l0,0l0,0c10.2-10.3,18.4-22.3,24.6-34.8l0.1-0.1
			c0,0,13.9-23.4,26.2,50.4c1-4.7,1.8-9.7,2.4-15.2C524.6,246.2,524.2,227.3,521.3,207.1z"/>
		<path class="st5" d="M496.5,224.5c-0.3,0.3-0.6,0.5-0.9,0.8c0,0,0,0,0,0c-0.1,0.1-0.2,0.2-0.3,0.4c0,0,0,0,0,0
			c-0.1,0.1-0.2,0.2-0.3,0.3c0,0,0,0,0,0c-0.1,0.1-0.2,0.2-0.2,0.3c0,0,0,0,0,0c-0.1,0.1-0.1,0.2-0.2,0.2c0,0,0,0,0,0
			c0,0.1-0.1,0.1-0.1,0.1c0,0,0,0,0,0c0,0,0,0.1,0,0.1l-0.1,0.1c-6.2,12.6-14.4,24.5-24.6,34.8l0,0l0,0c-3,3-6.1,5.8-9.4,8.5
			c-1.4,1.2-2.9,2.3-4.4,3.4c-51.8,37.7-123.1,20.8-144-7.9c-1.3-1.8-2.5-3.8-3.4-5.8c29.9,19.5,86.3,25.7,129.3-5.5
			c4.5-3.3,8.7-6.8,12.6-10.6c1-1,2-2,2.9-3c0.3-0.3,0.6-0.6,0.9-0.9c0.7-0.7,1.4-1.5,2-2.2c0.3-0.3,0.6-0.6,0.9-1
			c0.8-0.9,1.5-1.8,2.3-2.7c0.1-0.2,0.3-0.3,0.4-0.5c0.9-1.1,1.7-2.2,2.6-3.3c0.2-0.3,0.4-0.6,0.6-0.8c0.6-0.9,1.3-1.7,1.9-2.6
			c0.2-0.3,0.5-0.7,0.7-1c0.6-0.9,1.2-1.9,1.9-2.8c0.2-0.2,0.3-0.5,0.5-0.7c0.8-1.2,1.5-2.4,2.2-3.6c0.1-0.2,0.2-0.4,0.3-0.6
			c0.6-1,1.2-2.1,1.8-3.1c0.1-0.2,0.3-0.5,0.4-0.7c12.6-24.1,15-57.5,15.1-78.6c-1.5-3.9-3.1-7.7-4.9-11.6
			c-4.6-9.8-9.7-18.1-15.2-25.2c6.8,14.8,10.4,31.5,10.4,49.2c0,44.5-51.1,108.7-118.2,108.7c-46,0-82.1-22.9-100.2-56.7
			c0.8,10,3.2,19.9,7.6,29.3c36.9,79.1,97.8,107.7,166.7,75.6C468.3,288.7,489.3,259.3,496.5,224.5L496.5,224.5z"/>
		<path class="st6" d="M156.8,331.7c-1.6-3.7-3-7.5-4.4-11.3c-0.1-1.2-0.2-2.4-0.3-3.6c-7.7-22.2-11.8-46.1-11.8-71.1
			c0-40.3,10.9-78,29.8-110c-7.1,20.2-11.3,41.8-12.1,64.3C190.6,51.6,319.5,38.2,378,45.8C224.7,11.2,152,97,124.4,144.4
			c-0.1,0.3-0.3,0.5-0.4,0.8c-0.6,1-1.2,2-1.7,3c-0.3,0.5-0.6,1-0.8,1.5c-0.6,1.2-1.3,2.3-1.8,3.4c0,0.1-0.1,0.2-0.1,0.3
			c-6.3,12-9,19.9-9,19.9l0,0c-8.6,22.2-13.3,46.3-13.3,71.5c0,97.6,70.6,178.9,164.2,197.2C214.5,425.2,176.1,383.3,156.8,331.7z"
			/>
	</g>
	<g>
		<g>
			<g>
				<path class="st7" d="M1157.9,285.4c-3.1,0-6,0-9.1,0c0-7.9,0-15.4,0-23.2c12.1,0,24.2,0,36.4,0c0,43,0,85.9,0,129
					c-7,0-13.8,0-20.9,0c-1-4.1-2-8.3-3.1-12.5c-0.2-0.6-0.8-1.1-1.2-1.7c-0.5,0.5-1.2,0.9-1.4,1.5c-3.3,9.7-10,14.5-19.8,14.6
					c-10.3,0.1-17.9-4.6-22.5-14.3c-2.3-4.9-3.4-10.2-3.7-15.6c-0.1-2-0.1-4-0.1-5.9c0-56.2-0.1-112.4,0.1-168.6
					c0-5.8,0.6-11.8,2-17.4c2.8-11.3,10-18.7,20.9-21.9c9.8-2.9,19.7-2.8,29.4,0.2c12,3.7,19.4,14,20.3,27.7
					c0.3,4.2,0.3,8.4,0.3,12.6c0,18.7,0,37.5,0,56.2c0,0.9,0,1.9,0,3c-9.2,0-18.2,0-27.5,0c0-1,0-1.9,0-2.8c0-20.6,0-41.1,0-61.7
					c0-2.1-0.1-4.1-0.5-6.1c-0.7-3.8-3.2-6.1-6.7-6.6c-4-0.5-7.7,1.1-9.2,4.7c-0.9,2.1-1.4,4.6-1.4,6.9c-0.1,9.7-0.1,19.4-0.1,29
					c0,47.8,0,95.6,0,143.3c0,1.7,0,3.5,0.3,5.2c0.9,5.2,4,7.8,8.7,7.7c4.7-0.1,8.3-3.6,8.9-8.6c0.1-1,0.1-2.1,0.1-3.1
					c0-23,0-46,0-69.1C1158,287.3,1158,286.5,1157.9,285.4z"/>
				<path class="st7" d="M1244.9,149c9.3,0,18.2,0,27.5,0c0,0.9,0,1.7,0,2.5c0,69,0,137.9,0,206.9c0,5.4-0.6,10.8-2.6,15.8
					c-3,7.5-8.2,12.8-15.5,15.6c-11.3,4.3-22.8,4.5-34.2,0.6c-12.1-4.1-19-14.2-19.4-27.5c0-1.6-0.1-3.2-0.1-4.8
					c0-68.8,0-137.6,0-206.4c0-0.9,0-1.7,0-2.8c9.1,0,18.1,0,27.5,0c0,1,0,2.1,0,3.2c0,67.7,0,135.4,0,203.1c0,1.6,0,3.2,0.1,4.8
					c0.4,5.1,3.4,8.3,8,8.4c4.7,0.1,8-2.9,8.5-8.1c0.2-1.5,0.1-3,0.1-4.5c0-67.9,0-135.7,0-203.6
					C1244.9,151.3,1244.9,150.3,1244.9,149z"/>
				<path class="st7" d="M1289.2,149c18.7,0,37.2,0,55.9,0c0,8.2,0,16.3,0,24.7c-9.4,0-18.8,0-28.4,0c0,26.7,0,53.3,0,80.1
					c8.7,0,17.5,0,26.4,0c0,8.3,0,16.2,0,24.4c-8.8,0-17.5,0-26.4,0c0,29.5,0,58.7,0,88.2c9.5,0,19.2,0,28.9,0c0,8.4,0,16.5,0,24.8
					c-18.8,0-37.5,0-56.4,0C1289.2,310.6,1289.2,229.9,1289.2,149z"/>
				<path class="st7" d="M1591.1,149.1c0,8.3,0,16.3,0,24.6c-9.5,0-18.9,0-28.5,0c0,26.7,0,53.3,0,80.1c8.8,0,17.5,0,26.4,0
					c0,8.2,0,16.1,0,24.3c-8.8,0-17.5,0-26.4,0c0,29.6,0,58.8,0,88.3c9.6,0,19.2,0,29,0c0,8.4,0,16.5,0,24.8c-18.8,0-37.5,0-56.4,0
					c0-80.7,0-161.3,0-242.1C1553.7,149.1,1572.3,149.1,1591.1,149.1z"/>
				<path class="st7" d="M1432.2,375.7c-3.3-28.7-6.6-57.5-10-86.2c-0.3-2.6-0.4-4.9,1.8-6.8c0.9-0.7,1.4-1.9,2-2.9
					c4.1-6.8,5.2-14.3,5.2-22.1c0-23.6,0-47.1,0-70.7c0-2.9-0.1-5.7-0.4-8.6c-1.1-10.2-5-18.8-13.8-24.3c-5.7-3.6-12.1-5.1-18.6-5.2
					c-12.9-0.2-25.7-0.1-38.6-0.1c-0.4,0-0.9,0.1-1.2,0.2c0,80.8,0,161.5,0,242.1c9.2,0,18.2,0,27.4,0c0-31.1,0-62.1,0-93.1
					c4.1,0,7.9,0,12,0c2.7,31.2,5.5,62.2,8.2,93.2c9.4,0,18.5,0,27.7,0C1433.3,386,1432.8,380.9,1432.2,375.7z M1403.3,258.5
					c0,2.7-0.3,5.4-0.9,8c-1,4.3-4.3,7-8.7,7.2c-2.4,0.1-4.7,0-7.4,0c0-33.3,0-66.5,0-100.2c3.4,0.4,6.8,0.4,10,1.1
					c3.9,1,5.7,4.3,6.5,8.2c0.4,2,0.5,4.1,0.5,6.2C1403.3,212.1,1403.3,235.3,1403.3,258.5z"/>
				<path class="st7" d="M1521.9,388.3c-1.1-9.6-2.2-19.2-3.3-28.8c-2.7-23.4-5.4-46.8-8.1-70.1c-0.3-2.6-0.3-4.8,1.8-6.6
					c0.8-0.7,1.4-1.9,2-2.9c4.1-6.8,5.2-14.3,5.2-22.1c0-23.5,0-47,0-70.5c0-2.9-0.1-5.9-0.4-8.8c-1.1-10.2-4.9-18.8-13.7-24.3
					c-5.8-3.6-12.2-5.1-18.9-5.2c-12.8-0.2-25.6-0.1-38.4-0.1c-0.4,0-0.9,0.1-1.3,0.1c0,80.8,0,161.5,0,242.2c9.1,0,18.1,0,27.4,0
					c0-31.2,0-62.2,0-93.2c4.1,0,8,0,12.1,0c2.7,31.1,5.4,62.1,8.2,93.1c9.3,0,18.4,0,27.6,0C1522,390.2,1522,389.2,1521.9,388.3z
					 M1491.5,258.6c0,2.6-0.3,5.2-0.9,7.8c-1,4.1-3.7,6.6-7.7,7.2c-2.7,0.4-5.5,0.1-8.3,0.1c0-33.3,0-66.5,0-100
					c3.2,0.2,6.3,0.1,9.2,0.8c4.2,0.9,6.4,4.2,7.2,8.4c0.4,2,0.5,4.1,0.5,6.2C1491.6,212.1,1491.6,235.4,1491.5,258.6z"/>
				<path class="st7" d="M1674.3,343.1c-2.1-18-4.1-36.1-6.3-54.1c-0.3-2.4-0.2-4.4,1.8-6.1c0.9-0.8,1.5-2,2.1-3.1
					c4.1-6.7,5.2-14.1,5.2-21.9c0-23.5,0-47,0-70.5c0-2.9-0.1-5.9-0.4-8.8c-1.1-10.4-5-19.1-14-24.6c-6.2-3.8-13-5-20-5.1
					c-12.2-0.1-24.4,0-36.5,0c-0.6,0-1.2,0.1-1.7,0.2c0,80.8,0,161.4,0,242c9.2,0,18.2,0,27.4,0c0-31.1,0-62,0-93c4.1,0,8,0,12.1,0
					c2.7,31.1,5.4,62.1,8.2,93.1c9.3,0,18.3,0,27.7,0C1678,375.1,1676.2,359.1,1674.3,343.1z M1649.2,258.7c0,2.6-0.3,5.2-0.9,7.8
					c-1,4.3-4.3,7-8.7,7.2c-2.4,0.1-4.7,0-7.4,0c0-33.3,0-66.5,0-100.2c3.4,0.4,6.8,0.4,10,1.2c3.9,1,5.7,4.3,6.4,8.2
					c0.4,1.9,0.5,3.9,0.5,5.9C1649.2,212.1,1649.2,235.4,1649.2,258.7z"/>
				<path class="st7" d="M1764.1,188.6c0-4.3-0.3-8.7-1-13c-2.4-13.4-9.4-22.7-22.4-26.4c-8.8-2.5-17.7-2.5-26.5-0.1
					c-11.5,3.2-18.9,10.9-21.7,22.8c-1.3,5.4-1.9,11.1-1.9,16.7c-0.1,54.4-0.1,108.7,0,163.1c0,4.5,0.3,9.1,1.1,13.5
					c2.5,13.5,9.9,22.8,23,26.4c8.3,2.3,16.7,2.2,25,0c9.3-2.5,16.4-8,20.5-17.2c2.7-5.9,3.9-12.2,3.9-18.7c0.1-28.6,0-57.1,0-85.7
					c0,0,0,0,0,0C1764.2,242.9,1764.2,215.8,1764.1,188.6z M1736.2,355.8c0,1.8-0.1,3.7-0.5,5.4c-1.1,4.9-4.5,7.5-9.1,7.3
					c-4.3-0.3-7.4-3.5-8-8.3c-0.2-1.6-0.2-3.3-0.2-5c0-28.3,0-56.7,0-85c0-28.2,0-56.3,0-84.5c0-1.6,0-3.2,0.2-4.8
					c0.5-5.5,3.9-9,8.6-9.1c4.8-0.1,8.3,3.5,8.9,9c0.1,1.3,0.1,2.7,0.1,4C1736.2,241.8,1736.2,298.8,1736.2,355.8z"/>
			</g>
			<g>
				<path class="st8" d="M689.6,285.4c-3.1,0-6,0-9.1,0c0-7.9,0-15.4,0-23.2c12.1,0,24.2,0,36.4,0c0,43,0,85.9,0,129
					c-7,0-13.8,0-20.9,0c-1-4.1-2-8.4-3.1-12.5c-0.2-0.6-0.8-1.1-1.2-1.6c-0.5,0.5-1.2,0.9-1.4,1.5c-3.3,9.7-10,14.5-19.8,14.6
					c-10.3,0.1-17.9-4.6-22.5-14.3c-2.4-5-3.4-10.3-3.7-15.8c-0.1-2-0.1-4-0.1-6c0-56-0.1-112.1,0.1-168.1c0-6,0.6-12.1,2.1-17.8
					c2.8-11.1,9.9-18.4,20.6-21.6c9.8-2.9,19.7-2.9,29.5,0.1c12,3.6,19.5,13.8,20.5,27.5c0.2,2.4,0.3,4.8,0.3,7.1
					c0,20.6,0,41.3,0,61.9c0,0.9,0,1.9,0,3c-9.2,0-18.2,0-27.5,0c0-1,0-1.9,0-2.8c0-20.6,0-41.1,0-61.7c0-2.1-0.1-4.1-0.5-6.1
					c-0.7-3.8-3.2-6.1-6.7-6.5c-4-0.5-7.7,1.1-9.2,4.8c-0.9,2.1-1.4,4.6-1.4,6.9c-0.1,9.8-0.1,19.7-0.1,29.5c0,47.6,0,95.2,0,142.9
					c0,1.7,0,3.5,0.3,5.2c0.9,5.2,4,7.8,8.7,7.7c4.7-0.1,8.3-3.6,8.9-8.6c0.1-1,0.1-2.1,0.1-3.1c0-23,0-46,0-69.1
					C689.7,287.3,689.7,286.5,689.6,285.4z"/>
				<path class="st8" d="M864.4,149c9.3,0,18.2,0,27.5,0c0,0.9,0,1.7,0,2.6c0,69,0,137.9,0,206.9c0,5.4-0.6,10.8-2.6,15.8
					c-3,7.5-8.2,12.8-15.5,15.6c-11.3,4.3-22.8,4.5-34.2,0.6c-12-4.1-18.9-14.1-19.4-27.2c-0.1-1.7-0.1-3.5-0.1-5.2
					c0-68.7,0-137.3,0-206c0-0.9,0-1.9,0-3c9.1,0,18.1,0,27.5,0c0,1.1,0,2.1,0,3.2c0,67.7,0,135.4,0,203.1c0,1.6,0,3.2,0.1,4.8
					c0.4,5.1,3.5,8.2,8,8.3c4.7,0.1,8-3,8.5-8.1c0.2-1.5,0.1-3,0.1-4.5c0-67.9,0-135.7,0-203.6C864.4,151.3,864.4,150.3,864.4,149z"
					/>
				<path class="st8" d="M807.7,388.3c-1.1-9.6-2.2-19.2-3.3-28.8c-2.7-23.4-5.4-46.8-8.1-70.1c-0.3-2.6-0.3-4.8,1.8-6.6
					c0.8-0.7,1.4-1.9,2-2.9c4.1-6.8,5.2-14.3,5.2-22.1c0-23.5,0-47,0-70.5c0-2.9-0.1-5.9-0.4-8.8c-1.1-10.2-4.9-18.8-13.7-24.3
					c-5.7-3.6-12.1-5.1-18.6-5.2c-12.9-0.2-25.9-0.1-38.8-0.1c-0.4,0-0.7,0.1-1.1,0.1c0,80.8,0,161.5,0,242.1c9.2,0,18.2,0,27.4,0
					c0-31.1,0-62.1,0-93.1c4.1,0,8,0,12.1,0c2.7,31.1,5.4,62.1,8.2,93.1c9.3,0,18.4,0,27.6,0C807.8,390.2,807.8,389.3,807.7,388.3z
					 M777.3,258.9c0,2.5-0.3,5.1-0.9,7.5c-1,4.3-4.3,7-8.6,7.3c-2.4,0.1-4.9,0-7.4,0c0-33.3,0-66.4,0-100.3
					c3.5,0.4,7.1,0.4,10.4,1.3c3.7,1,5.4,4.3,6,8c0.4,1.9,0.5,3.8,0.5,5.7C777.4,211.9,777.4,235.4,777.3,258.9z"/>
				<path class="st8" d="M1066.9,185.9c0-3.5-0.4-7-1-10.4c-2.5-13.5-9.7-22.8-22.7-26.4c-7.5-2.1-15.1-2.2-22.8-0.8
					c-6.1,1.1-11.6,3.4-16.2,7.8c-7.8,7.3-10.7,17-10.8,27.4c-0.2,28.9-0.1,57.8-0.1,86.6c0,0-0.1,0-0.1,0c0,27.1-0.1,54.1,0,81.2
					c0,4.7,0.3,9.4,1.1,14c2.5,13.5,9.9,22.8,23.1,26.4c8.2,2.2,16.5,2.2,24.8,0c9.4-2.4,16.5-8,20.7-17.3c2.7-6,3.9-12.4,3.9-18.9
					C1067,298.9,1067,242.4,1066.9,185.9z M1039,355.5c0,1.9-0.1,3.8-0.5,5.7c-1.1,4.9-4.4,7.6-9.1,7.3c-4.3-0.2-7.4-3.4-8-8.3
					c-0.2-1.5-0.2-3-0.2-4.5c0-56.9,0-113.8,0-170.7c0-1.3,0.1-2.7,0.2-4c0.5-5.6,3.9-9.1,8.8-9.1c4.8,0,8.3,3.7,8.7,9.2
					c0.1,1.4,0.1,2.9,0.1,4.3c0,28.3,0,56.7,0,85C1039,298.7,1039,327.1,1039,355.5z"/>
				<path class="st8" d="M981.9,188.4c0-3.1-0.1-6.2-0.4-9.3c-1.2-10.3-5.2-19-14-24.7c-5.9-3.8-12.5-5.3-19.3-5.4
					c-12.7-0.2-25.4-0.1-38.1-0.1c-0.4,0-0.8,0.1-1.3,0.1c0,80.9,0,161.5,0,242.1c9.2,0,18.2,0,27.4,0c0-25.8,0-51.5,0-77.5
					c4.5,0,8.8,0.2,13.1,0c10.9-0.7,20.2-5.1,26.5-14.7c4.8-7.3,6.2-15.6,6.2-24.2C981.9,246,981.9,217.2,981.9,188.4z M953.8,274.2
					c0,2.8-0.5,5.7-1.3,8.4c-1.1,3.8-3.9,5.9-7.6,6.2c-2.9,0.3-5.8,0.1-8.9,0.1c0-38.4,0-76.6,0-115c4.1-0.1,8.1-0.7,12,1
					c3.2,1.4,4.7,4.2,5.3,7.6c0.4,1.9,0.5,3.9,0.5,5.9C953.9,216.9,953.9,245.6,953.8,274.2z"/>
			</g>
		</g>
		<g>
			<path class="st9" d="M669,440.5l-5,22c-1.6,7.1-4,11.3-11,11.3c-7.3,0-9-4.9-7.5-11.6l5-22.6c1.5-6.7,4.6-10.7,10.9-10.7
				C668.3,429,670.5,433.9,669,440.5z M654.9,439.7l-5.1,23.1c-1.2,5.1,0,7.6,3.7,7.6c3.3,0,5-2.4,6.2-7.5l5.1-22.8
				c1.1-5-0.2-7.5-3.8-7.5C657.6,432.5,655.9,435.2,654.9,439.7z"/>
			<path class="st9" d="M679.1,470.6l-3.1,14h-4.2l7.8-34.9c1-4.5,1.7-7.5,2.1-9.6h4.1c0,0.5-0.3,1.8-0.6,3.2
				c1.4-2.2,3.2-3.7,6.4-3.7c5.5,0,6.2,4.9,4.9,10.7l-2.8,12.7c-1.5,6.6-3.9,10.9-9.4,10.9C680.7,473.9,679.6,472,679.1,470.6z
				 M689.3,463.2l2.9-12.9c0.9-3.9,0.9-7.2-2.5-7.2c-3.9,0-5.4,4.1-6.5,9l-2.2,9.7c-0.9,4.2-1.4,8.4,2.9,8.4
				C687.1,470.2,688.4,467.1,689.3,463.2z"/>
			<path class="st9" d="M710.7,457.4c-0.2,0.9-1,4.5-1.3,5.7c-0.9,4.1-0.7,7.4,2.8,7.4c3.1,0,4.1-2.6,4.8-5.8l0.2-0.9h4.2l-0.2,0.9
				c-1.1,4.3-2.5,9.2-9.4,9.2c-7.7,0-7.7-6-6.4-11.7l2.7-12c1.1-5.2,2.9-10.6,9.8-10.6c7.6,0,7.8,5.8,6.7,10.8c-0.2,1-1.3,5.9-1.6,7
				H710.7z M719.7,454c0.2-0.8,0.9-4.1,1.1-4.9c0.7-3.3,0.1-6.2-3.1-6.2c-3.4,0-4.5,3.6-5.1,6.5l-1,4.6H719.7z"/>
			<path class="st9" d="M736.5,451.4c1.2-5.3,2-9.1,2.4-11.3h4c-0.1,0.6-0.2,1.9-0.9,4.9c1.9-3.9,5.2-5.3,8.1-5.4l-1.1,4.8
				c-4.6,0.2-7.5,3.3-8.8,9l-4.4,20h-4.2L736.5,451.4z"/>
			<path class="st9" d="M769.6,466.7c-0.4,1.9-1.1,5.4-1.3,6.6h-4.1c0.1-0.9,0.3-2.1,0.5-3c-1.7,2.9-3.6,3.6-6.2,3.6
				c-5,0-6.1-4.6-5-9.7c1.6-7.1,5.5-9.3,13.6-10.6c0.4-0.1,0.9-0.1,1.4-0.2l1.2-5.2c0.8-3.4,0-5.2-2.8-5.2c-2.9,0-3.5,2.1-4.4,5.4
				l-0.2,0.7H758l0.1-0.4c1-4.4,2.3-9,9.1-9c5.6,0,7.7,3.2,6.6,8.1L769.6,466.7z M767.7,456.7c-0.4,0.1-0.9,0.1-1.3,0.2
				c-5,0.9-7.6,2.3-8.8,7.2c-0.8,3.5-0.3,6.1,2.7,6.1c3.2,0,5.1-3.1,6.5-9.3L767.7,456.7z"/>
			<path class="st9" d="M798.6,463.7l-0.2,0.9c-1,4.2-2.5,9.3-9.4,9.3c-7.5,0-7.5-5.7-6.4-10.8l3-13.3c1.2-5.5,3.1-10.2,9.4-10.2
				c7.2,0,7.7,5.1,6.8,9.5l-0.3,1.7h-4.2l0.3-1.8c0.8-3.7,0.3-5.9-2.9-5.9c-2.7,0-3.8,2.3-4.8,6.6l-3.2,14.3c-0.9,4-0.6,6.5,2.8,6.5
				c2.8,0,3.7-2.1,4.6-5.6l0.3-1.1H798.6z"/>
			<path class="st9" d="M815.5,440.1h4.2l-7.4,33.2h-4.2L815.5,440.1z M818.3,427.6h4.2l-1.5,6.7h-4.2L818.3,427.6z"/>
			<path class="st9" d="M847,450.2l-3,13.4c-1.6,7.3-4,10.2-10.1,10.2c-5.5,0-8.6-3.2-6.9-10.6l3.1-14.1c1.2-5.5,3.6-9.6,9.8-9.6
				C846.1,439.6,848.4,443.5,847,450.2z M834.4,449.2l-3.3,14.8c-1,4.6,0.6,6.5,3.3,6.5c2.6,0,4.1-1.4,5.2-6.2l3.3-14.5
				c0.9-4.1,0.1-6.7-3.3-6.7C836.5,443,835.3,445.4,834.4,449.2z"/>
			<path class="st9" d="M859.2,450.2c1.5-6.7,1.9-8.7,2.2-10.1h4.1c-0.1,0.6-0.3,1.7-0.6,3.2c1.6-2.3,3.7-3.7,6.9-3.7
				c3.7,0,6.3,2.3,5,7.8l-5.8,26h-4.2l5.6-25.1c0.7-3.3,0.3-5.2-2.6-5.2c-2.9,0-5.2,2.3-6.5,8.4l-4.9,21.9H854L859.2,450.2z"/>
			<path class="st9" d="M890.8,457.4c-0.2,0.9-1,4.5-1.3,5.7c-0.9,4.1-0.7,7.4,2.8,7.4c3.1,0,4.1-2.6,4.8-5.8l0.2-0.9h4.2l-0.2,0.9
				c-1.1,4.3-2.5,9.2-9.4,9.2c-7.7,0-7.7-6-6.4-11.7l2.7-12c1.1-5.2,2.9-10.6,9.8-10.6c7.6,0,7.8,5.8,6.7,10.8c-0.2,1-1.3,5.9-1.6,7
				H890.8z M899.8,454c0.2-0.8,0.9-4.1,1.1-4.9c0.7-3.3,0.1-6.2-3.1-6.2c-3.4,0-4.5,3.6-5.1,6.5l-1,4.6H899.8z"/>
			<path class="st9" d="M916.5,463.7l-0.3,1.2c-0.7,3.3,0,5.6,3.3,5.6c2.2,0,3.5-1.2,4.2-4.3c1-4-0.1-6.3-3.1-9
				c-4.1-3.7-5.4-6-4.5-10.7c0.9-4.7,3.8-6.9,7.9-6.9c6,0,7.6,4.2,6.7,8.7l-0.3,1.3h-4l0.3-1.6c0.5-3,0-5.1-2.9-5.1
				c-1.8,0-3.2,1.2-3.7,4c-0.5,2.7,0,4.1,3,6.9c4.8,4.4,5.9,7.1,4.7,12.6c-1.2,5.4-4.3,7.4-8.7,7.4c-6.8,0-8.2-4.3-7-9.6l0.1-0.6
				H916.5z"/>
			<path class="st9" d="M967.3,429.5l-9.8,43.8h-4.2l9.8-43.8H967.3z"/>
			<path class="st9" d="M975.9,450.2c1.5-6.7,1.9-8.7,2.2-10.1h4.1c-0.1,0.6-0.3,1.7-0.6,3.2c1.6-2.3,3.7-3.7,6.9-3.7
				c3.7,0,6.3,2.3,5,7.8l-5.8,26h-4.2l5.6-25.1c0.7-3.3,0.3-5.2-2.6-5.2c-2.9,0-5.2,2.3-6.5,8.4l-4.9,21.9h-4.2L975.9,450.2z"/>
			<path class="st9" d="M1004.7,440.1h4l2-8.5h4.2l-2,8.5h4.9l-0.8,3.5h-4.9l-5.3,23.2c-0.5,2.4-0.2,3.5,2,3.5c1,0,1.8-0.1,2.5-0.3
				l-0.8,3.2c-1.1,0.3-2.1,0.4-3.6,0.4c-3.3,0-5.7-1.3-4.6-6.2l5.4-23.9h-3.9L1004.7,440.1z"/>
			<path class="st9" d="M1027.6,457.4c-0.2,0.9-1,4.5-1.3,5.7c-0.9,4.1-0.7,7.4,2.8,7.4c3.1,0,4.1-2.6,4.8-5.8l0.2-0.9h4.2l-0.2,0.9
				c-1.1,4.3-2.5,9.2-9.4,9.2c-7.7,0-7.7-6-6.4-11.7l2.7-12c1.1-5.2,2.9-10.6,9.8-10.6c7.6,0,7.8,5.8,6.7,10.8c-0.2,1-1.3,5.9-1.6,7
				H1027.6z M1036.6,454c0.2-0.8,0.9-4.1,1.1-4.9c0.7-3.3,0.1-6.2-3.1-6.2c-3.4,0-4.5,3.6-5.1,6.5l-1,4.6H1036.6z"/>
			<path class="st9" d="M1065.2,472.4c-1.5,7.1-2.5,12.7-10.7,12.7c-7,0-8-4.4-7.3-7.8l0.1-0.3h4.3l-0.1,0.4
				c-0.3,1.7-0.3,4.3,3.4,4.3c3.8,0,4.7-3.1,5.9-8.4l0.9-3.8c-1.3,2.1-2.8,3.6-6,3.6c-5.8,0-6.4-5.1-5.3-9.8l3.1-14
				c1-4.5,3-9.7,8.9-9.7c3.4,0,5,1.9,5.2,3.7c0.3-1.2,0.7-2.5,0.9-3.1h4.1c-0.5,1.8-1.2,4.8-2.1,8.9L1065.2,472.4z M1057.6,449.2
				l-3.1,13.9c-0.8,3.5-0.6,6.4,2.7,6.4c4.1,0,5.5-4.8,6.6-9.5l1.9-8c1-4.1,1.4-8.9-2.9-8.9C1059.5,443.1,1058.3,446,1057.6,449.2z"
				/>
			<path class="st9" d="M1082.9,451.4c1.2-5.3,2-9.1,2.4-11.3h4c-0.1,0.6-0.2,1.9-0.9,4.9c1.9-3.9,5.2-5.3,8.1-5.4l-1.1,4.8
				c-4.6,0.2-7.5,3.3-8.8,9l-4.4,20h-4.2L1082.9,451.4z"/>
			<path class="st9" d="M1116,466.7c-0.4,1.9-1.1,5.4-1.3,6.6h-4.1c0.1-0.9,0.3-2.1,0.5-3c-1.7,2.9-3.6,3.6-6.2,3.6
				c-5,0-6.1-4.6-5-9.7c1.6-7.1,5.5-9.3,13.6-10.6c0.4-0.1,0.9-0.1,1.4-0.2l1.2-5.2c0.8-3.4,0-5.2-2.8-5.2c-2.9,0-3.5,2.1-4.4,5.4
				l-0.2,0.7h-4.2l0.1-0.4c1-4.4,2.3-9,9.1-9c5.6,0,7.7,3.2,6.6,8.1L1116,466.7z M1114.1,456.7c-0.4,0.1-0.9,0.1-1.3,0.2
				c-5,0.9-7.6,2.3-8.8,7.2c-0.8,3.5-0.3,6.1,2.7,6.1c3.2,0,5.1-3.1,6.5-9.3L1114.1,456.7z"/>
			<path class="st9" d="M1127.6,473.3l10.2-45.7h4.2l-10.2,45.7H1127.6z"/>
			<path class="st9" d="M1151.8,457.4c-0.2,0.9-1,4.5-1.3,5.7c-0.9,4.1-0.7,7.4,2.8,7.4c3.1,0,4.1-2.6,4.8-5.8l0.2-0.9h4.2l-0.2,0.9
				c-1.1,4.3-2.5,9.2-9.4,9.2c-7.7,0-7.7-6-6.4-11.7l2.7-12c1.1-5.2,2.9-10.6,9.8-10.6c7.6,0,7.8,5.8,6.7,10.8c-0.2,1-1.3,5.9-1.6,7
				H1151.8z M1160.7,454c0.2-0.8,0.9-4.1,1.1-4.9c0.7-3.3,0.1-6.2-3.1-6.2c-3.4,0-4.5,3.6-5.1,6.5l-1,4.6H1160.7z"/>
			<path class="st9" d="M1177.4,463.7l-0.3,1.2c-0.7,3.3,0,5.6,3.3,5.6c2.2,0,3.5-1.2,4.2-4.3c1-4-0.1-6.3-3.1-9
				c-4.1-3.7-5.4-6-4.5-10.7c0.9-4.7,3.8-6.9,7.9-6.9c6,0,7.6,4.2,6.7,8.7l-0.3,1.3h-4l0.3-1.6c0.5-3,0-5.1-2.9-5.1
				c-1.8,0-3.2,1.2-3.7,4c-0.5,2.7,0,4.1,3,6.9c4.8,4.4,5.9,7.1,4.7,12.6c-1.2,5.4-4.3,7.4-8.7,7.4c-6.8,0-8.2-4.3-7-9.6l0.1-0.6
				H1177.4z"/>
			<path class="st9" d="M1240.5,427.6l-8.3,37.3c-0.8,3.7-1.4,6.5-1.7,8.4h-4.1c0-0.6,0.2-1.9,0.5-3.2c-1.2,1.9-2.8,3.7-6.3,3.7
				c-5.3,0-6.4-4.6-5-10.6l3-13.3c1.2-5.2,3.3-10.3,9.1-10.3c3.2,0,4.9,1.5,5.4,3.1l3.3-15.1H1240.5z M1222.7,450l-3,13.4
				c-0.8,3.5-0.8,6.8,2.7,6.8c3.7,0,5.2-3.9,6.4-9.1l2.4-10.5c1-4.6,0.7-7.5-3-7.5C1225.3,443.1,1223.7,445.6,1222.7,450z"/>
			<path class="st9" d="M1250.3,457.4c-0.2,0.9-1,4.5-1.3,5.7c-0.9,4.1-0.7,7.4,2.8,7.4c3.1,0,4.1-2.6,4.8-5.8l0.2-0.9h4.2l-0.2,0.9
				c-1.1,4.3-2.5,9.2-9.4,9.2c-7.7,0-7.7-6-6.4-11.7l2.7-12c1.1-5.2,2.9-10.6,9.8-10.6c7.6,0,7.8,5.8,6.7,10.8c-0.2,1-1.3,5.9-1.6,7
				H1250.3z M1259.2,454c0.2-0.8,0.9-4.1,1.1-4.9c0.7-3.3,0.1-6.2-3.1-6.2c-3.4,0-4.5,3.6-5.1,6.5l-1,4.6H1259.2z"/>
			<path class="st9" d="M1306.6,461.7l-0.2,0.8c-1.5,5.9-3.1,11.3-10.7,11.3c-7.1,0-8.7-4.5-7.1-11.8l4.9-21.8
				c1.8-8.2,4.7-11.4,10.4-11.4c8.1,0,8.7,5.9,7.3,11.4l-0.2,0.9h-4.2l0.2-1.1c0.9-4.4,0.9-7.6-3.4-7.6c-3.3,0-4.6,2.7-5.6,7.3
				l-5,22.4c-1.3,5.8-0.3,8.1,3.3,8.1c3.4,0,4.6-2.9,5.8-7.4l0.3-1.2H1306.6z"/>
			<path class="st9" d="M1332.9,466.7c-0.4,1.9-1.1,5.4-1.3,6.6h-4.1c0.1-0.9,0.3-2.1,0.5-3c-1.7,2.9-3.6,3.6-6.2,3.6
				c-5,0-6.1-4.6-5-9.7c1.6-7.1,5.5-9.3,13.6-10.6c0.4-0.1,0.9-0.1,1.4-0.2l1.2-5.2c0.8-3.4,0-5.2-2.8-5.2c-2.9,0-3.5,2.1-4.4,5.4
				l-0.2,0.7h-4.2l0.1-0.4c1-4.4,2.3-9,9.1-9c5.6,0,7.7,3.2,6.6,8.1L1332.9,466.7z M1331,456.7c-0.4,0.1-0.9,0.1-1.3,0.2
				c-5,0.9-7.6,2.3-8.8,7.2c-0.8,3.5-0.3,6.1,2.7,6.1c3.2,0,5.1-3.1,6.5-9.3L1331,456.7z"/>
			<path class="st9" d="M1349.3,451.4c1.2-5.3,2-9.1,2.4-11.3h4c-0.1,0.6-0.2,1.9-0.9,4.9c1.9-3.9,5.2-5.3,8.1-5.4l-1.1,4.8
				c-4.6,0.2-7.5,3.3-8.8,9l-4.4,20h-4.2L1349.3,451.4z"/>
			<path class="st9" d="M1382.3,472.4c-1.5,7.1-2.5,12.7-10.7,12.7c-7,0-8-4.4-7.3-7.8l0.1-0.3h4.3l-0.1,0.4
				c-0.3,1.7-0.3,4.3,3.4,4.3c3.8,0,4.7-3.1,5.9-8.4l0.9-3.8c-1.3,2.1-2.8,3.6-6,3.6c-5.8,0-6.4-5.1-5.3-9.8l3.1-14
				c1-4.5,3-9.7,8.9-9.7c3.4,0,5,1.9,5.2,3.7c0.3-1.2,0.7-2.5,0.9-3.1h4.1c-0.5,1.8-1.2,4.8-2.1,8.9L1382.3,472.4z M1374.7,449.2
				l-3.1,13.9c-0.8,3.5-0.6,6.4,2.7,6.4c4.1,0,5.5-4.8,6.6-9.5l1.9-8c1-4.1,1.4-8.9-2.9-8.9C1376.6,443.1,1375.4,446,1374.7,449.2z"
				/>
			<path class="st9" d="M1411.7,466.7c-0.4,1.9-1.1,5.4-1.3,6.6h-4.1c0.1-0.9,0.3-2.1,0.5-3c-1.7,2.9-3.6,3.6-6.2,3.6
				c-5,0-6.1-4.6-5-9.7c1.6-7.1,5.5-9.3,13.6-10.6c0.4-0.1,0.9-0.1,1.4-0.2l1.2-5.2c0.8-3.4,0-5.2-2.8-5.2c-2.9,0-3.5,2.1-4.4,5.4
				l-0.2,0.7h-4.2l0.1-0.4c1-4.4,2.3-9,9.1-9c5.6,0,7.7,3.2,6.6,8.1L1411.7,466.7z M1409.8,456.7c-0.4,0.1-0.9,0.1-1.3,0.2
				c-5,0.9-7.6,2.3-8.8,7.2c-0.8,3.5-0.3,6.1,2.7,6.1c3.2,0,5.1-3.1,6.5-9.3L1409.8,456.7z"/>
			<path class="st9" d="M1453.1,429.5l-9.8,43.8h-4.2l9.8-43.8H1453.1z"/>
			<path class="st9" d="M1461.7,450.2c1.5-6.7,1.9-8.7,2.2-10.1h4.1c-0.1,0.6-0.3,1.7-0.6,3.2c1.6-2.3,3.7-3.7,6.9-3.7
				c3.7,0,6.3,2.3,5,7.8l-5.8,26h-4.2l5.6-25.1c0.7-3.3,0.3-5.2-2.6-5.2c-2.9,0-5.2,2.3-6.5,8.4l-4.9,21.9h-4.2L1461.7,450.2z"/>
			<path class="st9" d="M1490.5,440.1h4l2-8.5h4.2l-2,8.5h4.9l-0.8,3.5h-4.9l-5.3,23.2c-0.5,2.4-0.2,3.5,2,3.5c1,0,1.8-0.1,2.5-0.3
				l-0.8,3.2c-1.1,0.3-2.1,0.4-3.6,0.4c-3.3,0-5.7-1.3-4.6-6.2l5.4-23.9h-3.9L1490.5,440.1z"/>
			<path class="st9" d="M1513.4,457.4c-0.2,0.9-1,4.5-1.3,5.7c-0.9,4.1-0.7,7.4,2.8,7.4c3.1,0,4.1-2.6,4.8-5.8l0.2-0.9h4.2l-0.2,0.9
				c-1.1,4.3-2.5,9.2-9.4,9.2c-7.7,0-7.7-6-6.4-11.7l2.7-12c1.1-5.2,2.9-10.6,9.8-10.6c7.6,0,7.8,5.8,6.7,10.8c-0.2,1-1.3,5.9-1.6,7
				H1513.4z M1522.4,454c0.2-0.8,0.9-4.1,1.1-4.9c0.7-3.3,0.1-6.2-3.1-6.2c-3.4,0-4.5,3.6-5.1,6.5l-1,4.6H1522.4z"/>
			<path class="st9" d="M1539.2,451.4c1.2-5.3,2-9.1,2.4-11.3h4c-0.1,0.6-0.2,1.9-0.9,4.9c1.9-3.9,5.2-5.3,8.1-5.4l-1.1,4.8
				c-4.6,0.2-7.5,3.3-8.8,9l-4.4,20h-4.2L1539.2,451.4z"/>
			<path class="st9" d="M1560.7,450.2c1.5-6.7,1.9-8.7,2.2-10.1h4.1c-0.1,0.6-0.3,1.7-0.6,3.2c1.6-2.3,3.7-3.7,6.9-3.7
				c3.7,0,6.3,2.3,5,7.8l-5.8,26h-4.2l5.6-25.1c0.7-3.3,0.3-5.2-2.6-5.2c-2.9,0-5.2,2.3-6.5,8.4l-4.9,21.9h-4.2L1560.7,450.2z"/>
			<path class="st9" d="M1602.2,466.7c-0.4,1.9-1.1,5.4-1.3,6.6h-4.1c0.1-0.9,0.3-2.1,0.5-3c-1.7,2.9-3.6,3.6-6.2,3.6
				c-5,0-6.1-4.6-5-9.7c1.6-7.1,5.5-9.3,13.6-10.6c0.4-0.1,0.9-0.1,1.4-0.2l1.2-5.2c0.8-3.4,0-5.2-2.8-5.2c-2.9,0-3.5,2.1-4.4,5.4
				l-0.2,0.7h-4.2l0.1-0.4c1-4.4,2.3-9,9.1-9c5.6,0,7.7,3.2,6.6,8.1L1602.2,466.7z M1600.3,456.7c-0.4,0.1-0.9,0.1-1.3,0.2
				c-5,0.9-7.6,2.3-8.8,7.2c-0.8,3.5-0.3,6.1,2.7,6.1c3.2,0,5.1-3.1,6.5-9.3L1600.3,456.7z"/>
			<path class="st9" d="M1631.3,463.7l-0.2,0.9c-1,4.2-2.5,9.3-9.4,9.3c-7.5,0-7.5-5.7-6.4-10.8l3-13.3c1.2-5.5,3.1-10.2,9.4-10.2
				c7.2,0,7.7,5.1,6.8,9.5l-0.3,1.7h-4.2l0.3-1.8c0.8-3.7,0.3-5.9-2.9-5.9c-2.7,0-3.8,2.3-4.8,6.6l-3.2,14.3c-0.9,4-0.6,6.5,2.8,6.5
				c2.8,0,3.7-2.1,4.6-5.6l0.3-1.1H1631.3z"/>
			<path class="st9" d="M1648.2,440.1h4.2l-7.4,33.2h-4.2L1648.2,440.1z M1651,427.6h4.2l-1.5,6.7h-4.2L1651,427.6z"/>
			<path class="st9" d="M1679.6,450.2l-3,13.4c-1.6,7.3-4,10.2-10.1,10.2c-5.5,0-8.6-3.2-6.9-10.6l3.1-14.1c1.2-5.5,3.6-9.6,9.8-9.6
				C1678.7,439.6,1681.1,443.5,1679.6,450.2z M1667.1,449.2l-3.3,14.8c-1,4.6,0.6,6.5,3.3,6.5c2.6,0,4.1-1.4,5.2-6.2l3.3-14.5
				c0.9-4.1,0.1-6.7-3.3-6.7C1669.2,443,1668,445.4,1667.1,449.2z"/>
			<path class="st9" d="M1691.8,450.2c1.5-6.7,1.9-8.7,2.2-10.1h4.1c-0.1,0.6-0.3,1.7-0.6,3.2c1.6-2.3,3.7-3.7,6.9-3.7
				c3.7,0,6.3,2.3,5,7.8l-5.8,26h-4.2l5.6-25.1c0.7-3.3,0.3-5.2-2.6-5.2c-2.9,0-5.2,2.3-6.5,8.4l-4.9,21.9h-4.2L1691.8,450.2z"/>
			<path class="st9" d="M1733.3,466.7c-0.4,1.9-1.1,5.4-1.3,6.6h-4.1c0.1-0.9,0.3-2.1,0.5-3c-1.7,2.9-3.6,3.6-6.2,3.6
				c-5,0-6.1-4.6-5-9.7c1.6-7.1,5.5-9.3,13.6-10.6c0.4-0.1,0.9-0.1,1.4-0.2l1.2-5.2c0.8-3.4,0-5.2-2.8-5.2c-2.9,0-3.5,2.1-4.4,5.4
				l-0.2,0.7h-4.2l0.1-0.4c1-4.4,2.3-9,9.1-9c5.6,0,7.7,3.2,6.6,8.1L1733.3,466.7z M1731.4,456.7c-0.4,0.1-0.9,0.1-1.3,0.2
				c-5,0.9-7.6,2.3-8.8,7.2c-0.8,3.5-0.3,6.1,2.7,6.1c3.2,0,5.1-3.1,6.5-9.3L1731.4,456.7z"/>
			<path class="st9" d="M1744.9,473.3l10.2-45.7h4.2l-10.2,45.7H1744.9z"/>
		</g>
	</g>
</g>
</svg>
