<?xml version="1.0" encoding="utf-8"?>
<!-- Generator: Adobe Illustrator 24.0.2, SVG Export Plug-In . SVG Version: 6.00 Build 0)  -->
<svg version="1.1" id="Capa_1" xmlns="http://www.w3.org/2000/svg" xmlns:xlink="http://www.w3.org/1999/xlink" x="0px" y="0px"
	 viewBox="0 0 1800 993.6" style="enable-background:new 0 0 1800 993.6;" xml:space="preserve">
<style type="text/css">
	.st0{fill:url(#SVGID_1_);}
	.st1{fill:url(#SVGID_2_);}
	.st2{fill:#014A7F;}
	.st3{fill:#FFFFFE;}
</style>
<g>
	<g>
		<g>
			<g>
				
					<radialGradient id="SVGID_1_" cx="895.7744" cy="244.256" r="445.1749" fx="804.1335" fy="244.7411" gradientUnits="userSpaceOnUse">
					<stop  offset="0" style="stop-color:#57BCE9"/>
					<stop  offset="0.111" style="stop-color:#52BBE8"/>
					<stop  offset="0.2342" style="stop-color:#45B6E7"/>
					<stop  offset="0.3625" style="stop-color:#2FAFE3"/>
					<stop  offset="0.4441" style="stop-color:#1DA9E1"/>
					<stop  offset="0.4572" style="stop-color:#1CA5DC"/>
					<stop  offset="0.5685" style="stop-color:#1285B7"/>
					<stop  offset="0.6796" style="stop-color:#0A6B9A"/>
					<stop  offset="0.7893" style="stop-color:#045985"/>
					<stop  offset="0.8969" style="stop-color:#014F78"/>
					<stop  offset="1" style="stop-color:#004B74"/>
				</radialGradient>
				<ellipse class="st0" cx="899.6" cy="365" rx="296.9" ry="292.8"/>
				
					<radialGradient id="SVGID_2_" cx="892.941" cy="147.7177" r="206.5738" fx="850.4171" fy="147.9428" gradientUnits="userSpaceOnUse">
					<stop  offset="1.396648e-02" style="stop-color:#88CDEF"/>
					<stop  offset="0.852" style="stop-color:#1DA9E1"/>
					<stop  offset="1" style="stop-color:#1CA8DF"/>
				</radialGradient>
				<ellipse class="st1" cx="894.9" cy="200.7" rx="151" ry="128.4"/>
			</g>
			<g>
				<g>
					<g>
						<path class="st2" d="M687.4,155.4l-16.2,7.2l0.3,7.5c-5.1,5.1-10.2,10.4-15.2,16c-24,26.8-41.9,53.3-50.9,74.9l0,0
							c0,0-10.1,20.6-12.7,58.7c0.4-4.2,1.9-12.4,6.3-24.3c0.1-0.2,0.2-0.4,0.3-0.6c0.1-0.4,0.3-0.9,0.5-1.4
							c3.9-9.9,9.8-22.1,18.8-36.5c9.6-14.7,22-30.5,36-46.2c5.8-6.5,11.8-12.7,17.8-18.5l3,15.5l35-42.7l25.7-27.5L687.4,155.4z"/>
						<path class="st2" d="M592.5,323c0.1-1.1,0.1-2.2,0.2-3.2C592.5,321.9,592.5,323,592.5,323z"/>
					</g>
					<path d="M612.2,285.5c-2.8-2.4-4.7-4.6-5.8-6.7c-2.6,5.3-4.8,10.3-6.5,14.7c-0.1,0.5-0.3,0.9-0.5,1.4c-0.1,0.2-0.2,0.4-0.3,0.6
						c-3.1,8.3-4.7,14.8-5.6,19.4c-0.4,8-0.2,15.7,0.4,23l0,0c-0.1,19.5,5.3,34.7,9.3,43.5c-0.3-5.4-0.5-10.9-0.5-16.4
						c0-27.2,3.8-53.6,10.8-78.6L612.2,285.5z"/>
				</g>
				<g>
					<path class="st2" d="M757.6,130.8l23.8,14.4c-0.1,0.1-5.2,3.6-5.3,3.7c-198.7,126-177.4,250.4-161.8,298.9
						c10.9-69.8,40.6-134.7,132.3-206.3c28-21.9,49.8-33.9,66.3-43.4l5.2,39.3c11.2-17.4,24.1-31,40-49.6
						c10.3-12.2,21.7-19.9,34.2-31.7c15.6-14.8,30.1-25.2,49.3-38.1C818,114.3,757.6,130.8,757.6,130.8z"/>
					<path d="M614.3,447.6c3.4,41.8,22.6,66.1,37.4,78.8C635.5,502.5,622.8,475.9,614.3,447.6z"/>
				</g>
			</g>
		</g>
		<g>
			<g>
				<path class="st3" d="M1109.1,337.9h-90.2V408c0.7,0,1.5,0.1,2.2,0.1c41.9,0,77.2-21.2,87.9-51.7c2-5.8,3.2-12,3.3-18.4H1109.1z"
					/>
				<g>
					<path class="st3" d="M927.3,400.3c11.2,0,20.4,9.2,20.4,20.4v68.7h60.1V337.9H904.2v62.3H927.3z"/>
					<path class="st3" d="M838.6,420.7c0-11.2,9.2-20.4,20.4-20.4h21.9v-62.3H780.7v151.4h57.9V420.7z"/>
				</g>
				<path class="st3" d="M676,337.9h-3.3c0.1,6.4,1.3,12.6,3.3,18.4c10.7,30.5,46,51.7,87.9,51.7c0.7,0,1.5,0,2.2-0.1v-70.1H676z"/>
			</g>
			<path class="st3" d="M918.9,487.1H931l-14.3-14.9l0,0c0,0,0,0,0,0l6.9-7.2l-1.2-1.1l-5.2-4.9l-5.8,6l-1.1,1.1
				c-5.4-5.4-14.4-14.8-21.5-22.2l0-0.3c13.5-6,17.5-11.3,17.5-19.3c0-9.9-8.2-16.2-18.7-16.2c-14.1,0-21.5,9.5-21.5,18.8
				c0,5.4,4.8,11,9.2,16l0,0.3c-9.7,4.8-16.6,11.9-16.6,22.3c0,11.4,9.6,21.4,26,21.4c9.3,0,17.5-2.6,24.8-8.7
				c0.2,0.2,0.4,0.4,0.6,0.6l0,0l2.2,2.1c0.3,0.3,0.5,0.5,0.8,0.8L918.9,487.1z M888,414.9c6.9,0,10.9,5.2,10.9,9.9
				c0,6.5-6.6,9.4-15.2,13.9c-3.6-4.1-8.6-8.3-8.6-13.7C875.1,421.9,878.1,414.9,888,414.9z M886.7,480.5
				c-12.9,0-19.5-6.7-19.5-15.4c0-8,9.6-14,14.1-16.6c9.4,9.7,16.7,18,21.8,23C899.1,475.4,894,480.5,886.7,480.5z"/>
		</g>
	</g>
	<g>
		<g>
			<g>
				<path d="M187.9,768.6h37.9c-1.6,11.1-6.6,20.2-15,27.2c-8.5,7-18.8,10.5-31.1,10.5c-10.1,0-19.4-2.3-27.8-7
					c-8.5-4.7-15.1-11.1-19.9-19.2c-4.8-8.2-7.2-16.8-7.2-25.8c0-8.8,2.3-17.2,7-25.2c4.6-7.9,11.2-14.2,19.6-18.9
					c8.4-4.6,17.3-7,26.6-7c7.5,0,15.2,1.7,23.1,5.1c7.9,3.4,15.2,8.4,21.8,15l9.2-8.8c-8.5-8.1-17.1-14-26-17.7
					c-8.9-3.7-18.4-5.5-28.5-5.5c-12.5,0-23.6,2.8-33.5,8.3c-9.9,5.5-17.6,13.2-23.3,23c-5.7,9.8-8.5,20.4-8.5,31.8
					c0,15.3,4.9,28.8,14.8,40.5c12.8,15.2,30.2,22.8,52.2,22.8c18.1,0,32.6-5.5,43.4-16.4c10.8-10.9,16.3-25.7,16.4-44.3h-51.3
					V768.6z"/>
				<path d="M269.7,727.2c-3.7,2.5-7.2,6.4-10.6,11.5v-13H248v89.1h11.2v-30.1c0-15.4,0.7-25.7,2-30.8c1.8-6.6,4.4-11.5,7.7-14.6
					c3.4-3.1,6.9-4.7,10.6-4.7c1.6,0,3.5,0.5,5.8,1.6l5.7-9.7c-3.4-2-6.7-3-9.7-3C277.3,723.3,273.4,724.6,269.7,727.2z"/>
				<path d="M364.8,767.2c0,11.1-0.6,18.4-1.8,21.9c-1.8,5-5,9.1-9.6,12.2c-4.6,3.1-10.3,4.6-16.9,4.6c-6.7,0-12.4-1.6-17.2-4.7
					c-4.8-3.2-8.1-7.5-9.8-12.9c-1.1-3.8-1.7-10.8-1.7-21v-41.6h-11.9v42.9c0,12.7,1.5,22.1,4.5,28.4c3,6.3,7.5,11.2,13.5,14.7
					c6,3.5,13.6,5.3,22.6,5.3c9,0,16.5-1.8,22.5-5.3c6-3.5,10.5-8.4,13.5-14.6c3-6.2,4.5-15.5,4.5-27.8v-43.7h-12.2V767.2z"/>
				<path d="M557.5,738.2c-8.6-9.9-19.5-14.9-32.6-14.9c-13.2,0-24.1,5-32.7,15c-7.8,9.1-11.8,19.8-11.8,32.1
					c0,12.4,4.1,23.3,12.4,32.6c8.3,9.3,18.9,14,32,14c13,0,23.6-4.7,31.9-14c8.3-9.3,12.4-20.2,12.4-32.6
					C569.2,758,565.3,747.3,557.5,738.2z M553.6,788.7c-3,5.6-7,9.9-12.1,12.9c-5.1,3-10.6,4.5-16.7,4.5c-6.1,0-11.6-1.5-16.7-4.5
					c-5.1-3-9.1-7.3-12.1-12.9c-3-5.6-4.5-11.6-4.5-18c0-10,3.3-18.5,9.8-25.5c6.5-7,14.4-10.6,23.5-10.6c9.1,0,16.9,3.5,23.4,10.6
					c6.6,7,9.8,15.6,9.8,25.5C558.1,777.1,556.6,783.1,553.6,788.7z"/>
				<path d="M467.5,747.7c-3.6-6.7-8.8-12.4-15.2-16.6c-7.4-4.9-16.3-7.7-26-7.7c-25.9,0-47,25.6-47,51.8v72.1h11.6v-45.4v-2.5
					c4.8,5.8,10.3,10.2,16.3,13.2c6,2.9,12.6,4.4,19.7,4.4c12.7,0,23.6-4.6,32.6-13.7c3.4-3.4,6.1-7.1,8.2-11
					c3.5-6.7,5.3-14.1,5.3-22.3C473,761.8,471.2,754.4,467.5,747.7z M458,788.3c-3.2,5.7-7.6,10.2-13.1,13.4
					c-5.5,3.2-11.3,4.8-17.5,4.8c-6.3,0-12.3-1.6-18-4.7c-5.7-3.2-10.1-7.4-13.1-12.8c-3.1-5.4-4.6-11.5-4.6-18.2
					c0-10.3,3.4-18.9,10.3-25.8c6.8-6.9,15.3-10.4,25.3-10.4c6.4,0,12.4,1.6,17.8,4.7c5.4,3.1,9.8,7.5,13,13.2
					c3.2,5.7,4.8,11.7,4.8,18C462.8,776.6,461.2,782.6,458,788.3z"/>
			</g>
			<path d="M1185.5,770.8l14.7,15.9l-6.7,5.8l-6.6,5.7l20.7,20.9h-29.8l-8.5-8.3c-13.6,7.6-26.2,11.4-37.9,11.4
				c-9.9,0-17.9-2.8-24-8.3c-6.1-5.5-9.2-12.6-9.2-21.2c0-6.5,1.7-12.7,5.2-18.4c3.5-5.8,9.4-11.8,17.8-17.9
				c-8.3-10.6-12.5-20-12.5-28.2c0-6.1,2.8-12,8.3-17.9c5.5-5.9,13.3-8.8,23.3-8.8c10.1,0,17.9,2.9,23.3,8.8
				c5.4,5.8,8.1,11.7,8.1,17.7c0,4.7-1.2,9.2-3.7,13.4c-2.5,4.3-8.2,10.6-17.2,19c10.5,11.7,17.3,19.1,20.3,21.9
				C1173.1,780.8,1177.9,777,1185.5,770.8z M1153.4,794.5c-4.5-4.2-10.9-11.2-19.1-21c-8.7,6.8-13,12.8-13,17.9
				c0,2.4,1.2,4.6,3.6,6.6c2.4,2,5.4,3,9,3C1139.1,801,1145.6,798.8,1153.4,794.5z M1138.8,743.8c6.5-5.3,9.8-10,9.8-14
				c0-2.1-0.7-3.8-2.2-5.2c-1.5-1.3-3.4-2-5.8-2c-2.2,0-4.1,0.8-5.7,2.3c-1.6,1.5-2.3,3.3-2.3,5.3
				C1132.5,734.1,1134.6,738.6,1138.8,743.8z"/>
			<g>
				<path d="M590,691.3H682v21.5h-31.8v112.4h-24.7V712.7H590V691.3z"/>
				<path d="M718.1,718.7c9,0,17.5,2.4,25.4,7.2c7.9,4.8,14.1,11.4,18.6,19.6c4.5,8.3,6.7,17.2,6.7,26.8c0,9.7-2.2,18.7-6.7,27.1
					c-4.5,8.4-10.6,15-18.3,19.7c-7.7,4.7-16.3,7.1-25.6,7.1c-13.7,0-25.4-5.2-35.1-15.7c-9.7-10.4-14.5-23.1-14.5-38
					c0-16,5.5-29.3,16.4-40C694.6,723.3,705.7,718.7,718.1,718.7z M718.5,742.8c-7.5,0-13.7,2.8-18.6,8.3c-5,5.5-7.4,12.6-7.4,21.3
					c0,8.9,2.5,16.1,7.4,21.6c4.9,5.5,11.1,8.3,18.6,8.3c7.5,0,13.8-2.8,18.7-8.4c5-5.6,7.5-12.8,7.5-21.5c0-8.8-2.5-15.9-7.4-21.4
					C732.4,745.6,726.2,742.8,718.5,742.8z"/>
				<path d="M1063.2,735.6l-14.8,15.9c-6-6.4-11.5-9.6-16.4-9.6c-2.7,0-4.8,0.6-6.3,1.8c-1.5,1.2-2.3,2.7-2.3,4.6
					c0,1.4,0.5,2.6,1.4,3.8c1,1.2,3.4,2.7,7.2,4.7l8.8,4.7c9.3,4.9,15.6,9.9,19.1,14.9c3.5,5.1,5.2,11,5.2,17.9
					c0,9.1-3.1,16.7-9.4,22.8c-6.2,6.1-14.6,9.1-25.1,9.1c-13.9,0-25.1-5.8-33.4-17.5l14.8-17.2c2.8,3.5,6.1,6.3,9.9,8.5
					c3.8,2.2,7.1,3.2,10.1,3.2c3.2,0,5.7-0.8,7.6-2.4c1.9-1.6,2.9-3.5,2.9-5.6c0-3.9-3.5-7.8-10.5-11.6l-8.1-4.3
					c-15.5-8.3-23.2-18.8-23.2-31.3c0-8.1,2.9-15,8.7-20.7c5.8-5.7,13.3-8.6,22.4-8.6c6.2,0,12.1,1.5,17.5,4.4
					C1054.7,726,1059.4,730.2,1063.2,735.6z"/>
				<path d="M832.1,724.3c-3.4-1.8-11-3-14.1-3c-4.4,0-8.5,0.2-12.2,2.8c-3.7,2.6-6.6,5-8.9,10.1v-12.9h-20.6v102.3h23.8v-41.4
					l-0.1-5c0-1.3,0-8.5,0-9.7c0,0,1-24.1,19.6-23.5c1.9,0.1,3.8,0.3,4.9,0.9L832.1,724.3z"/>
				<path d="M897.5,724.3c-3.4-1.8-11-3-14.1-3c-4.4,0-8.5,0.2-12.2,2.8c-3.7,2.6-6.6,5-8.9,10.1v-12.9h-20.6v102.3h23.8v-41.4
					l-0.1-5c0-1.3,0-8.5,0-9.7c0,0,1-24.1,19.6-23.5c1.9,0.1,3.8,0.3,4.9,0.9L897.5,724.3z"/>
				<g>
					<path d="M964.9,797.3c0.1-0.1,0.3-0.3,0.4-0.5C965.2,797,965,797.1,964.9,797.3z"/>
					<path d="M961.2,800.5c0.2-0.1,0.3-0.2,0.5-0.3C961.6,800.3,961.4,800.4,961.2,800.5z"/>
					<path d="M969.1,791c0.1-0.2,0.2-0.3,0.3-0.5C969.3,790.7,969.2,790.8,969.1,791z"/>
					<path d="M970.3,788.2c0.1-0.1,0.1-0.3,0.2-0.5C970.4,787.9,970.3,788.1,970.3,788.2z"/>
					<path d="M959.4,801.7c0.1-0.1,0.3-0.2,0.4-0.2C959.7,801.6,959.5,801.7,959.4,801.7z"/>
					<path d="M967.9,793.2c0.1-0.2,0.2-0.3,0.3-0.5C968.1,792.8,968,793,967.9,793.2z"/>
					<path d="M946.5,805.8c0.7-0.1,1.3-0.1,1.9-0.2C947.8,805.6,947.1,805.7,946.5,805.8z"/>
					<path d="M942.7,806c1,0,2,0,2.9-0.1C944.6,805.9,943.6,806,942.7,806z"/>
					<path d="M949.5,805.3c0.6-0.1,1.2-0.2,1.7-0.4C950.6,805.1,950.1,805.2,949.5,805.3z"/>
					<path d="M952.2,804.7c0.6-0.2,1.2-0.3,1.7-0.5C953.4,804.4,952.8,804.6,952.2,804.7z"/>
					<path d="M957.1,803c0.1-0.1,0.3-0.1,0.4-0.2C957.4,802.8,957.3,802.9,957.1,803z"/>
					<path d="M955,803.9c0.2-0.1,0.4-0.1,0.5-0.2C955.3,803.7,955.1,803.8,955,803.9z"/>
					<path d="M966.5,795.4c0.1-0.1,0.1-0.2,0.2-0.3C966.6,795.2,966.6,795.3,966.5,795.4z"/>
					<path d="M963.5,798.7c0,0-0.1,0.1-0.1,0.1C963.4,798.8,963.4,798.7,963.5,798.7z"/>
					<path d="M971.1,785.7c0.1-0.2,0.1-0.5,0.2-0.7C971.2,785.3,971.1,785.5,971.1,785.7z"/>
					<path d="M964.5,808.4l1.6-12.5c-0.2,0.3-0.5,0.6-0.8,0.9c-0.1,0.2-0.3,0.3-0.4,0.5c-0.5,0.5-0.9,1-1.4,1.4c0,0-0.1,0.1-0.1,0.1
						c-0.5,0.5-1.1,0.9-1.7,1.4c-0.2,0.1-0.3,0.2-0.5,0.3c-0.5,0.3-0.9,0.7-1.4,1c-0.1,0.1-0.3,0.2-0.4,0.2c-0.6,0.4-1.2,0.7-1.9,1
						c-0.1,0.1-0.3,0.1-0.4,0.2c-0.5,0.2-1.1,0.5-1.6,0.7c-0.2,0.1-0.4,0.1-0.5,0.2c-0.1,0-0.2,0.1-0.4,0.1L964.5,808.4z"/>
					<path d="M995.4,774.8c0-16.9-4.7-30.5-14.1-40.9c-9.4-10.3-21.7-15.5-36.7-15.5c-14.2,0-26,5.2-35.4,15.5
						c-9.4,10.3-14.1,23.3-14.1,38.9c0,15.2,4.7,27.9,14.1,38c9.4,10.1,21.6,15.2,36.6,15.2c9.7,0,18-1.8,25-5.5
						c7-3.7,10.8-10.5,15.8-18.1l0,0c2.3-3.9,3.6-6.3,4.8-11.6l-19.7-8.4c-0.2,0.9-0.4,1.8-0.6,2.7c-0.1,0.2-0.1,0.5-0.2,0.7
						c-0.2,0.7-0.4,1.4-0.6,2c-0.1,0.2-0.1,0.3-0.2,0.5c-0.3,0.8-0.6,1.5-0.9,2.2c-0.1,0.2-0.2,0.3-0.3,0.5
						c-0.3,0.6-0.6,1.1-0.9,1.7c-0.1,0.2-0.2,0.3-0.3,0.5c-0.4,0.7-0.8,1.3-1.2,1.9c-0.1,0.1-0.1,0.2-0.2,0.3
						c-0.1,0.2-0.3,0.4-0.4,0.5c-5.9,5-12.7,7.6-20.5,7.6c-7.5,0-13.7-2.1-18.5-6.4c-4.8-4.3-7.8-10.1-8.9-17.3h77.1L995.4,774.8z
						 M919.3,759.4c2.7-6.3,5.6-10.7,8.8-13.3c5-4,10.9-6,17.6-6c6.2,0,11.6,1.8,16.2,5.4c4.7,3.6,7.8,8.2,9.4,13.9H919.3z"/>
					<path d="M945.6,805.8c0.3,0,0.6-0.1,0.9-0.1C946.2,805.8,945.9,805.8,945.6,805.8z"/>
					<path d="M955.5,803.7c0.5-0.2,1.1-0.4,1.6-0.7C956.6,803.2,956,803.4,955.5,803.7z"/>
					<path d="M971.8,782.4c-0.2,0.9-0.4,1.8-0.6,2.7C971.5,784.2,971.7,783.3,971.8,782.4z"/>
					<path d="M948.4,805.5c0.3-0.1,0.7-0.1,1-0.2C949.1,805.4,948.8,805.5,948.4,805.5z"/>
					<path d="M951.2,805c0.3-0.1,0.7-0.2,1-0.3C951.9,804.8,951.6,804.9,951.2,805z"/>
					<path d="M959.8,801.5c0.5-0.3,1-0.6,1.4-1C960.8,800.9,960.3,801.2,959.8,801.5z"/>
					<path d="M966.7,795.1c0.4-0.6,0.8-1.2,1.2-1.9C967.6,793.8,967.1,794.5,966.7,795.1z"/>
					<path d="M957.5,802.8c0.6-0.3,1.3-0.7,1.9-1C958.8,802.1,958.2,802.4,957.5,802.8z"/>
					<path d="M968.2,792.7c0.3-0.5,0.6-1.1,0.9-1.7C968.8,791.6,968.5,792.1,968.2,792.7z"/>
					<path d="M970.4,787.8c0.2-0.7,0.4-1.3,0.6-2C970.9,786.4,970.7,787.1,970.4,787.8z"/>
					<path d="M969.4,790.5c0.3-0.7,0.6-1.5,0.9-2.2C970,789,969.7,789.8,969.4,790.5z"/>
					<path d="M966.1,795.9L966.1,795.9c0.1-0.2,0.3-0.4,0.4-0.5c-0.4,0.5-0.8,1-1.2,1.5C965.6,796.5,965.8,796.2,966.1,795.9
						L966.1,795.9z"/>
					<path d="M955,803.9c-0.3,0.1-0.7,0.2-1,0.3c0.2-0.1,0.4-0.1,0.7-0.2C954.7,804,954.8,803.9,955,803.9z"/>
					<path d="M964.9,797.3c-0.5,0.5-0.9,1-1.4,1.4C964,798.2,964.4,797.8,964.9,797.3z"/>
					<path d="M961.7,800.2c0.6-0.4,1.1-0.9,1.7-1.4C962.8,799.3,962.3,799.8,961.7,800.2z"/>
					<path d="M961.6,824.4L961.6,824.4C961.7,824.3,961.6,824.4,961.6,824.4L961.6,824.4z"/>
					<polygon points="966.1,795.9 966.1,795.9 966.1,795.9 					"/>
				</g>
			</g>
			<g>
				<path d="M1212.7,691.3h91.9v21.5h-31.8v112.4h-24.7V712.7h-35.4V691.3z"/>
				<path d="M1340.8,718.7c9,0,17.5,2.4,25.4,7.2c7.9,4.8,14.1,11.4,18.6,19.6c4.5,8.3,6.7,17.2,6.7,26.8c0,9.7-2.2,18.7-6.7,27.1
					c-4.5,8.4-10.6,15-18.3,19.7s-16.3,7.1-25.6,7.1c-13.7,0-25.4-5.2-35.1-15.7c-9.7-10.4-14.5-23.1-14.5-38c0-16,5.5-29.3,16.4-40
					C1317.3,723.3,1328.3,718.7,1340.8,718.7z M1341.2,742.8c-7.5,0-13.7,2.8-18.6,8.3c-5,5.5-7.4,12.6-7.4,21.3
					c0,8.9,2.5,16.1,7.4,21.6c4.9,5.5,11.1,8.3,18.6,8.3c7.5,0,13.8-2.8,18.7-8.4c5-5.6,7.5-12.8,7.5-21.5c0-8.8-2.5-15.9-7.4-21.4
					C1355.1,745.6,1348.8,742.8,1341.2,742.8z"/>
				<path d="M1685.9,735.6l-14.8,15.9c-6-6.4-11.5-9.6-16.4-9.6c-2.7,0-4.8,0.6-6.3,1.8c-1.5,1.2-2.3,2.7-2.3,4.6
					c0,1.4,0.5,2.6,1.4,3.8c1,1.2,3.4,2.7,7.2,4.7l8.8,4.7c9.3,4.9,15.6,9.9,19.1,14.9c3.5,5.1,5.2,11,5.2,17.9
					c0,9.1-3.1,16.7-9.4,22.8c-6.2,6.1-14.6,9.1-25.1,9.1c-13.9,0-25.1-5.8-33.4-17.5l14.8-17.2c2.8,3.5,6.1,6.3,9.9,8.5
					c3.8,2.2,7.1,3.2,10.1,3.2c3.2,0,5.7-0.8,7.6-2.4c1.9-1.6,2.9-3.5,2.9-5.6c0-3.9-3.5-7.8-10.5-11.6l-8.1-4.3
					c-15.5-8.3-23.2-18.8-23.2-31.3c0-8.1,2.9-15,8.7-20.7c5.8-5.7,13.3-8.6,22.4-8.6c6.2,0,12.1,1.5,17.5,4.4
					C1677.4,726,1682.1,730.2,1685.9,735.6z"/>
				<path d="M1454.8,724.3c-3.4-1.8-11-3-14.1-3c-4.4,0-8.5,0.2-12.2,2.8c-3.7,2.6-6.6,5-8.9,10.1v-12.9H1399v102.3h23.8v-41.4
					l-0.1-5c0-1.3,0-8.5,0-9.7c0,0,1-24.1,19.6-23.5c1.9,0.1,3.8,0.3,4.9,0.9L1454.8,724.3z"/>
				<path d="M1520.2,724.3c-3.4-1.8-11-3-14.1-3c-4.4,0-8.5,0.2-12.2,2.8c-3.7,2.6-6.6,5-8.9,10.1v-12.9h-20.6v102.3h23.8v-41.4
					l-0.1-5c0-1.3,0-8.5,0-9.7c0,0,1-24.1,19.6-23.5c1.9,0.1,3.8,0.3,4.9,0.9L1520.2,724.3z"/>
				<g>
					<path d="M1587.6,797.3c0.1-0.1,0.3-0.3,0.4-0.5C1587.8,797,1587.7,797.1,1587.6,797.3z"/>
					<path d="M1583.9,800.5c0.2-0.1,0.3-0.2,0.5-0.3C1584.2,800.3,1584.1,800.4,1583.9,800.5z"/>
					<path d="M1591.8,791c0.1-0.2,0.2-0.3,0.3-0.5C1592,790.7,1591.9,790.8,1591.8,791z"/>
					<path d="M1593,788.2c0.1-0.1,0.1-0.3,0.2-0.5C1593.1,787.9,1593,788.1,1593,788.2z"/>
					<path d="M1582.1,801.7c0.1-0.1,0.3-0.2,0.4-0.2C1582.4,801.6,1582.2,801.7,1582.1,801.7z"/>
					<path d="M1590.6,793.2c0.1-0.2,0.2-0.3,0.3-0.5C1590.8,792.8,1590.7,793,1590.6,793.2z"/>
					<path d="M1569.2,805.8c0.7-0.1,1.3-0.1,1.9-0.2C1570.5,805.6,1569.8,805.7,1569.2,805.8z"/>
					<path d="M1565.3,806c1,0,2,0,2.9-0.1C1567.3,805.9,1566.3,806,1565.3,806z"/>
					<path d="M1572.1,805.3c0.6-0.1,1.2-0.2,1.7-0.4C1573.3,805.1,1572.7,805.2,1572.1,805.3z"/>
					<path d="M1574.9,804.7c0.6-0.2,1.2-0.3,1.7-0.5C1576.1,804.4,1575.5,804.6,1574.9,804.7z"/>
					<path d="M1579.8,803c0.1-0.1,0.3-0.1,0.4-0.2C1580.1,802.8,1579.9,802.9,1579.8,803z"/>
					<path d="M1577.6,803.9c0.2-0.1,0.4-0.1,0.5-0.2C1578,803.7,1577.8,803.8,1577.6,803.9z"/>
					<path d="M1589.2,795.4c0.1-0.1,0.1-0.2,0.2-0.3C1589.3,795.2,1589.2,795.3,1589.2,795.4z"/>
					<path d="M1586.2,798.7c0,0-0.1,0.1-0.1,0.1C1586.1,798.8,1586.1,798.7,1586.2,798.7z"/>
					<path d="M1593.7,785.7c0.1-0.2,0.1-0.5,0.2-0.7C1593.9,785.3,1593.8,785.5,1593.7,785.7z"/>
					<path d="M1587.1,808.4l1.6-12.5c-0.2,0.3-0.5,0.6-0.8,0.9c-0.1,0.2-0.3,0.3-0.4,0.5c-0.5,0.5-0.9,1-1.4,1.4
						c0,0-0.1,0.1-0.1,0.1c-0.5,0.5-1.1,0.9-1.7,1.4c-0.2,0.1-0.3,0.2-0.5,0.3c-0.5,0.3-0.9,0.7-1.4,1c-0.1,0.1-0.3,0.2-0.4,0.2
						c-0.6,0.4-1.2,0.7-1.9,1c-0.1,0.1-0.3,0.1-0.4,0.2c-0.5,0.2-1.1,0.5-1.6,0.7c-0.2,0.1-0.4,0.1-0.5,0.2c-0.1,0-0.2,0.1-0.4,0.1
						L1587.1,808.4z"/>
					<path d="M1618,774.8c0-16.9-4.7-30.5-14.1-40.9c-9.4-10.3-21.7-15.5-36.7-15.5c-14.2,0-26,5.2-35.4,15.5
						c-9.4,10.3-14.1,23.3-14.1,38.9c0,15.2,4.7,27.9,14.1,38c9.4,10.1,21.6,15.2,36.6,15.2c9.7,0,18-1.8,25-5.5
						c7-3.7,10.8-10.5,15.8-18.1l0,0c2.3-3.9,3.6-6.3,4.8-11.6l-19.7-8.4c-0.2,0.9-0.4,1.8-0.6,2.7c-0.1,0.2-0.1,0.5-0.2,0.7
						c-0.2,0.7-0.4,1.4-0.6,2c-0.1,0.2-0.1,0.3-0.2,0.5c-0.3,0.8-0.6,1.5-0.9,2.2c-0.1,0.2-0.2,0.3-0.3,0.5
						c-0.3,0.6-0.6,1.1-0.9,1.7c-0.1,0.2-0.2,0.3-0.3,0.5c-0.4,0.7-0.8,1.3-1.2,1.9c-0.1,0.1-0.1,0.2-0.2,0.3
						c-0.1,0.2-0.3,0.4-0.4,0.5c-5.9,5-12.7,7.6-20.5,7.6c-7.5,0-13.7-2.1-18.5-6.4c-4.8-4.3-7.8-10.1-8.9-17.3h77.1L1618,774.8z
						 M1542,759.4c2.7-6.3,5.6-10.7,8.8-13.3c5-4,10.9-6,17.6-6c6.2,0,11.6,1.8,16.2,5.4c4.7,3.6,7.8,8.2,9.4,13.9H1542z"/>
					<path d="M1568.3,805.8c0.3,0,0.6-0.1,0.9-0.1C1568.9,805.8,1568.6,805.8,1568.3,805.8z"/>
					<path d="M1578.2,803.7c0.5-0.2,1.1-0.4,1.6-0.7C1579.3,803.2,1578.7,803.4,1578.2,803.7z"/>
					<path d="M1594.5,782.4c-0.2,0.9-0.4,1.8-0.6,2.7C1594.2,784.2,1594.4,783.3,1594.5,782.4z"/>
					<path d="M1571.1,805.5c0.3-0.1,0.7-0.1,1-0.2C1571.8,805.4,1571.5,805.5,1571.1,805.5z"/>
					<path d="M1573.9,805c0.3-0.1,0.7-0.2,1-0.3C1574.6,804.8,1574.2,804.9,1573.9,805z"/>
					<path d="M1582.5,801.5c0.5-0.3,1-0.6,1.4-1C1583.5,800.9,1583,801.2,1582.5,801.5z"/>
					<path d="M1589.4,795.1c0.4-0.6,0.8-1.2,1.2-1.9C1590.2,793.8,1589.8,794.5,1589.4,795.1z"/>
					<path d="M1580.2,802.8c0.6-0.3,1.3-0.7,1.9-1C1581.5,802.1,1580.9,802.4,1580.2,802.8z"/>
					<path d="M1590.9,792.7c0.3-0.5,0.6-1.1,0.9-1.7C1591.5,791.6,1591.2,792.1,1590.9,792.7z"/>
					<path d="M1593.1,787.8c0.2-0.7,0.4-1.3,0.6-2C1593.6,786.4,1593.3,787.1,1593.1,787.8z"/>
					<path d="M1592,790.5c0.3-0.7,0.6-1.5,0.9-2.2C1592.7,789,1592.4,789.8,1592,790.5z"/>
					<path d="M1588.7,795.9L1588.7,795.9c0.1-0.2,0.3-0.4,0.4-0.5c-0.4,0.5-0.8,1-1.2,1.5C1588.2,796.5,1588.5,796.2,1588.7,795.9
						L1588.7,795.9z"/>
					<path d="M1577.6,803.9c-0.3,0.1-0.7,0.2-1,0.3c0.2-0.1,0.4-0.1,0.7-0.2C1577.4,804,1577.5,803.9,1577.6,803.9z"/>
					<path d="M1587.6,797.3c-0.5,0.5-0.9,1-1.4,1.4C1586.7,798.2,1587.1,797.8,1587.6,797.3z"/>
					<path d="M1584.4,800.2c0.6-0.4,1.1-0.9,1.7-1.4C1585.5,799.3,1585,799.8,1584.4,800.2z"/>
					<path d="M1584.3,824.4L1584.3,824.4C1584.4,824.3,1584.3,824.4,1584.3,824.4L1584.3,824.4z"/>
					<polygon points="1588.7,795.9 1588.8,795.9 1588.7,795.9 					"/>
				</g>
			</g>
		</g>
		<g>
			<path d="M152.1,873.5c14.1,0,22.4,10.6,22.4,24.1c0,13.2-8.3,23.7-22.4,23.7s-22.4-10.6-22.4-23.7
				C129.7,884.1,138,873.5,152.1,873.5z M152.1,912.9c9,0,12.4-7.7,12.4-15.3c0-8-3.4-15.7-12.4-15.7c-9,0-12.4,7.7-12.4,15.7
				C139.7,905.2,143.1,912.9,152.1,912.9z"/>
			<path d="M180.8,874.6h20.6c11.4,0,15.8,7.2,15.8,14.6c0,7.4-4.4,14.6-15.8,14.6h-10.6v16.4h-10V874.6z M190.8,896.1h7.8
				c4.7,0,8.8-1,8.8-6.8c0-5.8-4.2-6.8-8.8-6.8h-7.8V896.1z"/>
			<path d="M222.8,874.6h34.1v8.4h-24.1v9.8h22.1v7.8h-22.1v11.2h24.6v8.4h-34.7V874.6z"/>
			<path d="M263.6,874.6h24.6c8.2,0,13.4,5.7,13.4,12.6c0,5.4-2.2,9.4-7.2,11.4v0.1c4.9,1.3,6.3,6.1,6.7,10.7
				c0.2,2.9,0.1,8.3,1.9,10.8h-10c-1.2-2.9-1.1-7.3-1.6-10.9c-0.7-4.8-2.6-6.9-7.6-6.9h-10v17.8h-10V874.6z M273.6,895.2h11
				c4.5,0,6.9-1.9,6.9-6.5c0-4.4-2.4-6.3-6.9-6.3h-11V895.2z"/>
			<path d="M321.6,874.6h10.3l17.1,45.7h-10.4l-3.5-10.2H318l-3.6,10.2h-10.2L321.6,874.6z M320.6,902.6h11.8l-5.8-16.8h-0.1
				L320.6,902.6z"/>
			<path d="M352.3,874.6H372c11.8,0,20.7,7.4,20.7,22.6c0,13.2-6.8,23.1-20.7,23.1h-19.7V874.6z M362.3,911.8h9
				c5.8,0,11.4-3.6,11.4-13.7c0-9.2-3.2-15.1-13.2-15.1h-7.2V911.8z"/>
			<path d="M419.5,873.5c14.1,0,22.4,10.6,22.4,24.1c0,13.2-8.3,23.7-22.4,23.7c-14.1,0-22.4-10.6-22.4-23.7
				C397,884.1,405.3,873.5,419.5,873.5z M419.5,912.9c9,0,12.4-7.7,12.4-15.3c0-8-3.4-15.7-12.4-15.7c-9,0-12.4,7.7-12.4,15.7
				C407.1,905.2,410.5,912.9,419.5,912.9z"/>
			<path d="M448.1,874.6h24.6c8.2,0,13.4,5.7,13.4,12.6c0,5.4-2.2,9.4-7.2,11.4v0.1c4.9,1.3,6.3,6.1,6.7,10.7
				c0.2,2.9,0.1,8.3,1.9,10.8h-10c-1.2-2.9-1.1-7.3-1.6-10.9c-0.7-4.8-2.6-6.9-7.6-6.9h-10v17.8h-10V874.6z M458.2,895.2h11
				c4.5,0,6.9-1.9,6.9-6.5c0-4.4-2.4-6.3-6.9-6.3h-11V895.2z"/>
			<path d="M510.8,874.6h10v37.2h22.3v8.4h-32.3V874.6z"/>
			<path d="M568.5,873.5c14.1,0,22.4,10.6,22.4,24.1c0,13.2-8.3,23.7-22.4,23.7c-14.1,0-22.4-10.6-22.4-23.7
				C546.1,884.1,554.4,873.5,568.5,873.5z M568.5,912.9c9,0,12.4-7.7,12.4-15.3c0-8-3.4-15.7-12.4-15.7c-9,0-12.4,7.7-12.4,15.7
				C556.1,905.2,559.5,912.9,568.5,912.9z"/>
			<path d="M630.2,915.1c-3.5,4.5-8.1,6.3-12.5,6.3c-14.1,0-22.4-10.6-22.4-23.7c0-13.6,8.3-24.1,22.4-24.1
				c9.3,0,18.2,5.8,19.2,16.1h-9.6c-1.2-5.1-4.9-7.7-9.7-7.7c-9,0-12.4,7.7-12.4,15.7c0,7.6,3.4,15.3,12.4,15.3
				c6.5,0,10.3-3.5,10.9-9.8h-10.1v-7.5h19.2v24.7h-6.4L630.2,915.1z"/>
			<path d="M645.1,874.6h10v45.7h-10V874.6z"/>
			<path d="M670.2,905.1c0,6.1,4.7,8.4,10.1,8.4c3.5,0,8.9-1,8.9-5.7c0-4.9-6.8-5.8-13.6-7.5c-6.8-1.8-13.6-4.4-13.6-13
				c0-9.3,8.8-13.8,17.1-13.8c9.5,0,18.3,4.2,18.3,14.7h-9.7c-0.3-5.5-4.2-6.9-9-6.9c-3.2,0-6.9,1.3-6.9,5.2c0,3.5,2.2,4,13.6,6.9
				c3.3,0.8,13.6,2.9,13.6,13.3c0,8.4-6.6,14.6-19,14.6c-10.1,0-19.6-5-19.4-16.2H670.2z"/>
			<path d="M714.3,883h-13.7v-8.4H738v8.4h-13.7v37.2h-10V883z"/>
			<path d="M742.6,874.6h10v45.7h-10V874.6z"/>
			<path d="M791.3,889.9c-0.6-4.5-5-8-10-8c-9,0-12.4,7.7-12.4,15.7c0,7.6,3.4,15.3,12.4,15.3c6.1,0,9.6-4.2,10.4-10.2h9.7
				c-1,11.4-8.9,18.7-20.1,18.7c-14.1,0-22.4-10.6-22.4-23.7c0-13.6,8.3-24.1,22.4-24.1c10,0,18.5,5.9,19.7,16.4H791.3z"/>
			<path d="M828.1,873.5c14.1,0,22.4,10.6,22.4,24.1c0,13.2-8.3,23.7-22.4,23.7s-22.4-10.6-22.4-23.7
				C805.6,884.1,813.9,873.5,828.1,873.5z M828.1,912.9c9,0,12.4-7.7,12.4-15.3c0-8-3.4-15.7-12.4-15.7c-9,0-12.4,7.7-12.4,15.7
				C815.7,905.2,819,912.9,828.1,912.9z"/>
			<path d="M873.8,874.6h19.7c11.8,0,20.7,7.4,20.7,22.6c0,13.2-6.8,23.1-20.7,23.1h-19.7V874.6z M883.9,911.8h9
				c5.8,0,11.4-3.6,11.4-13.7c0-9.2-3.2-15.1-13.2-15.1h-7.2V911.8z"/>
			<path d="M920.6,874.6h34.1v8.4h-24.1v9.8h22.1v7.8h-22.1v11.2h24.6v8.4h-34.7V874.6z"/>
			<path d="M1009,889.9c-0.6-4.5-5-8-10-8c-9,0-12.4,7.7-12.4,15.7c0,7.6,3.4,15.3,12.4,15.3c6.1,0,9.6-4.2,10.4-10.2h9.7
				c-1,11.4-8.9,18.7-20.1,18.7c-14.1,0-22.4-10.6-22.4-23.7c0-13.6,8.3-24.1,22.4-24.1c10,0,18.5,5.9,19.7,16.4H1009z"/>
			<path d="M1045.7,873.5c14.1,0,22.4,10.6,22.4,24.1c0,13.2-8.3,23.7-22.4,23.7c-14.1,0-22.4-10.6-22.4-23.7
				C1023.3,884.1,1031.6,873.5,1045.7,873.5z M1045.7,912.9c9,0,12.4-7.7,12.4-15.3c0-8-3.4-15.7-12.4-15.7c-9,0-12.4,7.7-12.4,15.7
				C1033.3,905.2,1036.7,912.9,1045.7,912.9z"/>
			<path d="M1074.4,874.6h14.1l10.7,31.4h0.1l10.1-31.4h14.1v45.7h-9.4v-32.4h-0.1l-11.2,32.4h-7.7l-11.2-32h-0.1v32h-9.4V874.6z"/>
			<path d="M1131.8,874.6h34.1v8.4h-24.1v9.8h22.1v7.8h-22.1v11.2h24.6v8.4h-34.7V874.6z"/>
			<path d="M1172.6,874.6h24.6c8.2,0,13.4,5.7,13.4,12.6c0,5.4-2.2,9.4-7.2,11.4v0.1c4.9,1.3,6.3,6.1,6.7,10.7
				c0.2,2.9,0.1,8.3,1.9,10.8h-10c-1.2-2.9-1.1-7.3-1.6-10.9c-0.7-4.8-2.6-6.9-7.6-6.9h-10v17.8h-10V874.6z M1182.6,895.2h11
				c4.5,0,6.9-1.9,6.9-6.5c0-4.4-2.4-6.3-6.9-6.3h-11V895.2z"/>
			<path d="M1248.5,889.9c-0.6-4.5-5-8-10-8c-9,0-12.4,7.7-12.4,15.7c0,7.6,3.4,15.3,12.4,15.3c6.1,0,9.6-4.2,10.4-10.2h9.7
				c-1,11.4-8.9,18.7-20.1,18.7c-14.1,0-22.4-10.6-22.4-23.7c0-13.6,8.3-24.1,22.4-24.1c10,0,18.5,5.9,19.7,16.4H1248.5z"/>
			<path d="M1264.8,874.6h10v45.7h-10V874.6z"/>
			<path d="M1303.5,873.5c14.1,0,22.4,10.6,22.4,24.1c0,13.2-8.3,23.7-22.4,23.7s-22.4-10.6-22.4-23.7
				C1281.1,884.1,1289.4,873.5,1303.5,873.5z M1303.5,912.9c9,0,12.4-7.7,12.4-15.3c0-8-3.4-15.7-12.4-15.7c-9,0-12.4,7.7-12.4,15.7
				C1291.1,905.2,1294.5,912.9,1303.5,912.9z"/>
			<path d="M1349.3,874.6h34.1v8.4h-24.1v9.8h22.1v7.8h-22.1v11.2h24.6v8.4h-34.7V874.6z"/>
			<path d="M1401.3,896.3l-14.7-21.7h11.6l9,14.6l9.3-14.6h11l-14.6,21.8l15.9,23.9h-12l-10-15.8l-10.2,15.8h-11.3L1401.3,896.3z"/>
			<path d="M1442.2,883h-13.7v-8.4h37.4v8.4h-13.7v37.2h-10V883z"/>
			<path d="M1470.6,874.6h34.1v8.4h-24.1v9.8h22.1v7.8h-22.1v11.2h24.6v8.4h-34.7V874.6z"/>
			<path d="M1511.4,874.6h24.6c8.2,0,13.4,5.7,13.4,12.6c0,5.4-2.2,9.4-7.2,11.4v0.1c4.9,1.3,6.3,6.1,6.7,10.7
				c0.2,2.9,0.1,8.3,1.9,10.8h-10c-1.2-2.9-1.1-7.3-1.6-10.9c-0.7-4.8-2.6-6.9-7.6-6.9h-10v17.8h-10V874.6z M1521.4,895.2h11
				c4.5,0,6.9-1.9,6.9-6.5c0-4.4-2.4-6.3-6.9-6.3h-11V895.2z"/>
			<path d="M1556.9,874.6h10v45.7h-10V874.6z"/>
			<path d="M1595.6,873.5c14.1,0,22.4,10.6,22.4,24.1c0,13.2-8.3,23.7-22.4,23.7c-14.1,0-22.4-10.6-22.4-23.7
				C1573.1,884.1,1581.5,873.5,1595.6,873.5z M1595.6,912.9c9,0,12.4-7.7,12.4-15.3c0-8-3.4-15.7-12.4-15.7c-9,0-12.4,7.7-12.4,15.7
				C1583.2,905.2,1586.6,912.9,1595.6,912.9z"/>
			<path d="M1624.2,874.6h24.6c8.2,0,13.4,5.7,13.4,12.6c0,5.4-2.2,9.4-7.2,11.4v0.1c4.9,1.3,6.3,6.1,6.7,10.7
				c0.2,2.9,0.1,8.3,1.9,10.8h-10c-1.2-2.9-1.1-7.3-1.6-10.9c-0.7-4.8-2.6-6.9-7.6-6.9h-10v17.8h-10V874.6z M1634.3,895.2h11
				c4.5,0,6.9-1.9,6.9-6.5c0-4.4-2.4-6.3-6.9-6.3h-11V895.2z"/>
		</g>
	</g>
</g>
</svg>
