<?xml version="1.0" encoding="utf-8"?>
<!-- Generator: Adobe Illustrator 24.0.2, SVG Export Plug-In . SVG Version: 6.00 Build 0)  -->
<svg version="1.1" id="Capa_1" xmlns="http://www.w3.org/2000/svg" xmlns:xlink="http://www.w3.org/1999/xlink" x="0px" y="0px"
	 viewBox="0 0 1800 772" style="enable-background:new 0 0 1800 772;" xml:space="preserve">
<style type="text/css">
	.st0{fill:#A7A8AC;}
	.st1{fill:#EF8123;}
	.st2{fill:#1D1D1B;}
	.st3{fill:#939598;}
</style>
<g>
	<g>
		<path class="st0" d="M1622.1,321.5c8.9,3,17.9,5.8,27.3,8.4c-6.2-3.2-15.2-7.8-26.3-13.7c9.4-53.3-0.2-104.5-34.1-139.8
			c15.8,23.4,27.2,72.9,17.7,131c-58.2-31.7-153.4-88.7-221.4-162.6c38.7-25.5,77.3-31.4,116.3-19c0,0-49-35.9-125.3,6.6
			c-0.4,0.2-0.9,0.5-1.3,0.8c-4.8-5.6-9.5-11.3-13.9-17.1c0,0,4,6.9,12,18.2c-50.8,30.1-119.8,110.9-135.6,196.4
			c-18.5-6.4-29.4-8.8-29.4-8.8c9.8,4.6,19.4,9.2,28.6,13.8c-6.7,41.5-0.6,83.9,26.4,121.9c-14.3-21.1-21.1-64-11.2-114.3
			c114.3,58.7,180.2,115.4,225.5,159.6c-30.8,20.3-67.2,34.8-106.4,31.7c0,0,54.9,15.2,116.5-21.8c12.4,12.4,23.2,23.6,33.1,33.4
			c-9.1-12.9-18.4-25.1-27.9-36.6C1560.8,465.5,1608,392.1,1622.1,321.5z M1483.2,498.9c-82.1-94.7-176-141.5-230.2-162.3
			c7.9-35.1,24-73.4,51.5-110.1c26.1-35.5,51.9-61.8,77.7-79.5c33.4,43.8,106.7,123.8,223.1,168.4c-6,30.8-17.8,63.8-38,96.5
			C1557.4,427.8,1526.4,468.5,1483.2,498.9z"/>
		<path class="st1" d="M1569.2,131l-9.6-1.5c72.3,49,151.1,188.5,55.6,328.7c-48.6-58.8-98.3-105.5-145.5-142.6
			c61.7-103.7,85.1-195,95-234.1c-0.1-0.8-0.6-1.3-1.5-3c-14.9,51.3-56,139.3-107.6,226.1c-79.8-60.1-151.7-92.8-198.5-109.7
			c4-5.8,8.3-11.6,13-17.4c109.6-138.2,260.3-60.3,262.1-63.2c-1.3-5.5-157.3-95.1-288.4,44.7c-7.2,8.4-13.6,16.8-19.3,25.2
			c-15.1-4.4-23.5-5.9-23.5-5.9c7.2,2.8,14.4,5.8,21.5,8.9c-97.1,149.5,36.9,307.1,61.5,316.3c-1.7-7.7-142.8-134.6-31.2-302.4
			c68.6,33.2,134.2,76.3,192.7,120.2c-47.9,78.4-103.6,153.8-155.5,198.2c0.5,1.3,2,0.8,5.3,2.1c72.2-61.3,125.2-127.3,164.3-189.6
			c61.3,47,114,94.1,152.9,129.9c-5.2,7.4-10.9,14.8-17.1,22.2c-130.4,136.4-280,36.8-280,36.8l-8,1.1
			c179.6,125.8,378.9,1.5,379.5-160.7C1687.5,199.2,1569.2,131,1569.2,131z"/>
	</g>
	<g>
		<path class="st2" d="M113,679.4l5.3-3.4c3.8,7.4,8.1,11,13,11c2.1,0,4.1-0.5,5.9-1.6c1.9-1,3.3-2.4,4.2-4.2c1-1.8,1.5-3.6,1.5-5.6
			c0-2.2-0.7-4.4-2.1-6.6c-2-3-5.5-6.5-10.8-10.7c-5.2-4.2-8.5-7.3-9.8-9.1c-2.2-3.1-3.3-6.6-3.3-10.2c0-2.9,0.7-5.6,2-7.9
			c1.3-2.4,3.2-4.3,5.5-5.7c2.4-1.4,5-2.1,7.7-2.1c3,0,5.7,0.8,8.3,2.3c2.6,1.6,5.3,4.4,8.2,8.6l-5.1,4.1c-2.4-3.3-4.4-5.5-6-6.6
			c-1.7-1.1-3.5-1.6-5.4-1.6c-2.5,0-4.6,0.8-6.2,2.5c-1.6,1.6-2.4,3.6-2.4,6c0,1.5,0.3,2.9,0.9,4.2c0.6,1.4,1.6,2.8,3.1,4.4
			c0.8,0.8,3.5,3.1,8.1,6.7c5.4,4.3,9.2,8.1,11.2,11.4c2,3.3,3,6.7,3,10c0,4.8-1.7,9.1-5.2,12.6c-3.5,3.6-7.7,5.4-12.6,5.4
			c-3.8,0-7.3-1.1-10.4-3.2C118.5,688.1,115.7,684.5,113,679.4"/>
		<polygon class="st2" points="165.7,626.7 201.7,626.7 201.7,633.2 172,633.2 172,654.2 201.5,654.2 201.5,660.7 172,660.7 
			172,687 201.5,687 201.5,693.5 165.7,693.5 		"/>
		<path class="st2" d="M215.5,626.7H228c7,0,11.7,0.3,14.2,0.9c3.7,0.9,6.8,2.9,9.1,5.8c2.3,3,3.5,6.7,3.5,11c0,3.6-0.8,6.8-2.4,9.6
			c-1.6,2.8-3.9,4.8-6.9,6.3c-3,1.4-7.1,2.1-12.4,2.2l22.6,31h-7.8l-22.6-31h-3.5v31h-6.3V626.7z M221.8,633.2v22.7l10.8,0.1
			c4.2,0,7.3-0.4,9.3-1.3c2-0.8,3.6-2.2,4.7-4.1c1.1-1.9,1.7-3.9,1.7-6.2c0-2.2-0.6-4.3-1.7-6.1c-1.1-1.8-2.6-3.1-4.5-3.9
			c-1.9-0.8-4.9-1.2-9.2-1.2H221.8z"/>
		<polygon class="st2" points="266.1,626.7 272.9,626.7 293.7,678.3 314.9,626.7 321.7,626.7 294.4,693.5 293,693.5 		"/>
		<rect x="334" y="626.7" class="st2" width="6.3" height="66.8"/>
		<path class="st2" d="M415.7,637.4l-5,4c-2.7-3.8-6-6.7-9.8-8.6c-3.8-2-8-2.9-12.6-2.9c-5,0-9.6,1.3-13.9,3.8
			c-4.3,2.6-7.6,6-9.9,10.3c-2.3,4.3-3.5,9.2-3.5,14.6c0,8.1,2.6,14.9,7.9,20.4c5.3,5.4,11.9,8.2,19.9,8.2c8.8,0,16.1-3.7,22.1-11
			l5,4c-3.1,4.2-7,7.5-11.7,9.8c-4.7,2.3-9.9,3.5-15.7,3.5c-11,0-19.6-3.9-26-11.7c-5.3-6.6-8-14.5-8-23.8c0-9.8,3.2-18,9.7-24.7
			c6.4-6.7,14.5-10,24.2-10c5.9,0,11.2,1.2,15.9,3.7C408.8,629.5,412.7,633,415.7,637.4"/>
		<rect x="430" y="626.7" class="st2" width="6.3" height="66.8"/>
		<path class="st2" d="M483.2,623.3c9.5,0,17.5,3.4,23.9,10.1c6.4,6.8,9.6,15.1,9.6,24.9c0,9.8-3.2,18.1-9.6,24.9
			c-6.4,6.8-14.2,10.2-23.4,10.2c-9.3,0-17.2-3.4-23.6-10.2c-6.4-6.8-9.6-15-9.6-24.6c0-6.4,1.5-12.4,4.4-17.8
			c2.9-5.5,6.9-9.8,11.9-12.9C471.9,624.9,477.4,623.3,483.2,623.3 M483.5,629.8c-4.6,0-9.1,1.3-13.2,3.9c-4.2,2.6-7.4,6-9.7,10.4
			c-2.3,4.4-3.5,9.2-3.5,14.6c0,7.9,2.6,14.6,7.8,20.1c5.2,5.5,11.4,8.2,18.7,8.2c4.9,0,9.4-1.3,13.5-3.8c4.1-2.5,7.4-6,9.7-10.3
			c2.3-4.4,3.5-9.2,3.5-14.5c0-5.3-1.2-10.1-3.5-14.4c-2.3-4.3-5.6-7.7-9.8-10.3C492.7,631.1,488.2,629.8,483.5,629.8"/>
		<path class="st2" d="M525.4,679.4l5.3-3.4c3.8,7.4,8.1,11,13,11c2.1,0,4.1-0.5,5.9-1.6c1.9-1,3.3-2.4,4.2-4.2
			c1-1.8,1.5-3.6,1.5-5.6c0-2.2-0.7-4.4-2.1-6.6c-2-3-5.5-6.5-10.8-10.7c-5.2-4.2-8.5-7.3-9.8-9.1c-2.2-3.1-3.3-6.6-3.3-10.2
			c0-2.9,0.7-5.6,2-7.9c1.3-2.4,3.2-4.3,5.5-5.7c2.4-1.4,5-2.1,7.7-2.1c3,0,5.7,0.8,8.3,2.3c2.6,1.6,5.3,4.4,8.2,8.6l-5.1,4.1
			c-2.4-3.3-4.4-5.5-6-6.6c-1.7-1.1-3.5-1.6-5.4-1.6c-2.5,0-4.6,0.8-6.2,2.5c-1.6,1.6-2.4,3.6-2.4,6c0,1.5,0.3,2.9,0.9,4.2
			c0.6,1.4,1.6,2.8,3.1,4.4c0.8,0.8,3.5,3.1,8.1,6.7c5.4,4.3,9.2,8.1,11.2,11.4c2,3.3,3,6.7,3,10c0,4.8-1.7,9.1-5.2,12.6
			c-3.5,3.6-7.7,5.4-12.6,5.4c-3.8,0-7.3-1.1-10.4-3.2C530.9,688.1,528.1,684.5,525.4,679.4"/>
		<polygon class="st2" points="605,626.7 640.9,626.7 640.9,633.2 611.2,633.2 611.2,654.2 640.7,654.2 640.7,660.7 611.2,660.7 
			611.2,687 640.7,687 640.7,693.5 605,693.5 		"/>
		<polygon class="st2" points="654.5,693.5 654.5,626.7 655.8,626.7 697.6,677.9 697.6,626.7 703.8,626.7 703.8,693.5 702.4,693.5 
			660.9,642.9 660.9,693.5 		"/>
		<path class="st2" d="M807,637.4l-5,4c-2.7-3.8-6-6.7-9.8-8.6c-3.8-2-8-2.9-12.6-2.9c-5,0-9.6,1.3-13.9,3.8
			c-4.3,2.6-7.6,6-9.9,10.3c-2.3,4.3-3.5,9.2-3.5,14.6c0,8.1,2.6,14.9,7.9,20.4c5.3,5.4,11.9,8.2,19.9,8.2c8.8,0,16.2-3.7,22.1-11
			l5,4c-3.1,4.2-7,7.5-11.7,9.8c-4.7,2.3-9.9,3.5-15.7,3.5c-11,0-19.7-3.9-26-11.7c-5.3-6.6-8-14.5-8-23.8c0-9.8,3.2-18,9.7-24.7
			c6.4-6.7,14.5-10,24.2-10c5.9,0,11.2,1.2,15.9,3.7C800.1,629.5,804,633,807,637.4"/>
		<path class="st2" d="M852.1,623.3c9.5,0,17.5,3.4,23.9,10.1c6.4,6.8,9.6,15.1,9.6,24.9c0,9.8-3.2,18.1-9.6,24.9
			c-6.4,6.8-14.2,10.2-23.4,10.2c-9.3,0-17.2-3.4-23.6-10.2c-6.4-6.8-9.6-15-9.6-24.6c0-6.4,1.5-12.4,4.4-17.8
			c2.9-5.5,6.9-9.8,11.9-12.9C840.8,624.9,846.3,623.3,852.1,623.3 M852.4,629.8c-4.6,0-9.1,1.3-13.2,3.9c-4.2,2.6-7.4,6-9.7,10.4
			c-2.3,4.4-3.5,9.2-3.5,14.6c0,7.9,2.6,14.6,7.8,20.1c5.2,5.5,11.4,8.2,18.7,8.2c4.9,0,9.4-1.3,13.5-3.8c4.1-2.5,7.4-6,9.7-10.3
			c2.3-4.4,3.5-9.2,3.5-14.5c0-5.3-1.2-10.1-3.5-14.4c-2.3-4.3-5.6-7.7-9.8-10.3C861.6,631.1,857.1,629.8,852.4,629.8"/>
		<polygon class="st2" points="898,693.5 907,626.7 908,626.7 933.5,681.5 958.8,626.7 959.8,626.7 968.8,693.5 962.7,693.5 
			956.5,645.7 934.3,693.5 932.7,693.5 910.2,645.4 904,693.5 		"/>
		<polygon class="st2" points="983.8,626.7 1019.8,626.7 1019.8,633.2 990.1,633.2 990.1,654.2 1019.6,654.2 1019.6,660.7 
			990.1,660.7 990.1,687 1019.6,687 1019.6,693.5 983.8,693.5 		"/>
		<path class="st2" d="M1033.6,626.7h12.5c7,0,11.7,0.3,14.2,0.9c3.7,0.9,6.8,2.9,9.1,5.8c2.3,3,3.5,6.7,3.5,11
			c0,3.6-0.8,6.8-2.4,9.6c-1.6,2.8-3.9,4.8-6.9,6.3c-3,1.4-7.1,2.1-12.4,2.2l22.6,31h-7.8l-22.6-31h-3.5v31h-6.3V626.7z
			 M1039.9,633.2v22.7l10.8,0.1c4.2,0,7.3-0.4,9.3-1.3c2-0.8,3.6-2.2,4.7-4.1c1.1-1.9,1.7-3.9,1.7-6.2c0-2.2-0.6-4.3-1.7-6.1
			c-1.1-1.8-2.6-3.1-4.5-3.9c-1.9-0.8-4.9-1.2-9.2-1.2H1039.9z"/>
		<path class="st2" d="M1147.4,637.4l-5,4c-2.7-3.8-6-6.7-9.8-8.6c-3.8-2-8-2.9-12.6-2.9c-5,0-9.6,1.3-13.9,3.8
			c-4.3,2.6-7.6,6-9.9,10.3c-2.3,4.3-3.5,9.2-3.5,14.6c0,8.1,2.6,14.9,7.9,20.4c5.3,5.4,11.9,8.2,19.9,8.2c8.8,0,16.2-3.7,22.1-11
			l5,4c-3.1,4.2-7,7.5-11.7,9.8c-4.7,2.3-9.9,3.5-15.7,3.5c-11,0-19.7-3.9-26-11.7c-5.3-6.6-8-14.5-8-23.8c0-9.8,3.2-18,9.7-24.7
			c6.4-6.7,14.5-10,24.2-10c5.9,0,11.2,1.2,15.9,3.7C1140.5,629.5,1144.4,633,1147.4,637.4"/>
		<rect x="1161.7" y="626.7" class="st2" width="6.3" height="66.8"/>
		<path class="st2" d="M1214.9,623.3c9.5,0,17.5,3.4,23.9,10.1c6.4,6.8,9.6,15.1,9.6,24.9c0,9.8-3.2,18.1-9.6,24.9
			c-6.4,6.8-14.2,10.2-23.4,10.2c-9.3,0-17.2-3.4-23.6-10.2c-6.4-6.8-9.6-15-9.6-24.6c0-6.4,1.5-12.4,4.4-17.8
			c2.9-5.5,6.9-9.8,11.9-12.9C1203.6,624.9,1209.1,623.3,1214.9,623.3 M1215.2,629.8c-4.6,0-9.1,1.3-13.2,3.9
			c-4.2,2.6-7.4,6-9.7,10.4c-2.3,4.4-3.5,9.2-3.5,14.6c0,7.9,2.6,14.6,7.8,20.1c5.2,5.5,11.4,8.2,18.7,8.2c4.9,0,9.4-1.3,13.5-3.8
			c4.1-2.5,7.4-6,9.7-10.3c2.3-4.4,3.5-9.2,3.5-14.5c0-5.3-1.2-10.1-3.5-14.4c-2.3-4.3-5.6-7.7-9.8-10.3
			C1224.4,631.1,1219.9,629.8,1215.2,629.8"/>
		<polygon class="st2" points="1290.5,626.7 1326.5,626.7 1326.5,633.2 1296.8,633.2 1296.8,654.2 1326.2,654.2 1326.2,660.7 
			1296.8,660.7 1296.8,687 1326.2,687 1326.2,693.5 1290.5,693.5 		"/>
		<polygon class="st2" points="1336.6,626.7 1344,626.7 1359,652.7 1374.1,626.7 1381.4,626.7 1362.6,659 1382.6,693.5 
			1375.3,693.5 1359,665.3 1342.6,693.5 1335.3,693.5 1355.3,659 		"/>
		<polygon class="st2" points="1389.6,633.2 1389.6,626.7 1424,626.7 1424,633.2 1410,633.2 1410,693.5 1403.6,693.5 1403.6,633.2 
					"/>
		<polygon class="st2" points="1435.7,626.7 1471.7,626.7 1471.7,633.2 1442,633.2 1442,654.2 1471.4,654.2 1471.4,660.7 
			1442,660.7 1442,687 1471.4,687 1471.4,693.5 1435.7,693.5 		"/>
		<path class="st2" d="M1485.5,626.7h12.5c7,0,11.7,0.3,14.2,0.9c3.7,0.9,6.8,2.9,9.1,5.8c2.3,3,3.5,6.7,3.5,11
			c0,3.6-0.8,6.8-2.4,9.6c-1.6,2.8-3.9,4.8-6.9,6.3c-3,1.4-7.1,2.1-12.4,2.2l22.6,31h-7.8l-22.6-31h-3.5v31h-6.3V626.7z
			 M1491.8,633.2v22.7l10.8,0.1c4.2,0,7.3-0.4,9.3-1.3c2-0.8,3.6-2.2,4.7-4.1c1.1-1.9,1.7-3.9,1.7-6.2c0-2.2-0.6-4.3-1.7-6.1
			c-1.1-1.8-2.6-3.1-4.5-3.9c-1.9-0.8-4.9-1.2-9.2-1.2H1491.8z"/>
		<rect x="1539.9" y="626.7" class="st2" width="6.3" height="66.8"/>
		<path class="st2" d="M1593.1,623.3c9.5,0,17.5,3.4,23.9,10.1c6.4,6.8,9.6,15.1,9.6,24.9c0,9.8-3.2,18.1-9.6,24.9
			c-6.4,6.8-14.2,10.2-23.4,10.2c-9.3,0-17.2-3.4-23.6-10.2c-6.4-6.8-9.6-15-9.6-24.6c0-6.4,1.5-12.4,4.4-17.8
			c2.9-5.5,6.9-9.8,11.9-12.9C1581.8,624.9,1587.2,623.3,1593.1,623.3 M1593.4,629.8c-4.6,0-9.1,1.3-13.2,3.9
			c-4.2,2.6-7.4,6-9.7,10.4c-2.3,4.4-3.5,9.2-3.5,14.6c0,7.9,2.6,14.6,7.8,20.1c5.2,5.5,11.4,8.2,18.7,8.2c4.9,0,9.4-1.3,13.5-3.8
			c4.1-2.5,7.4-6,9.7-10.3c2.3-4.4,3.5-9.2,3.5-14.5c0-5.3-1.2-10.1-3.5-14.4c-2.3-4.3-5.6-7.7-9.8-10.3
			C1602.6,631.1,1598.1,629.8,1593.4,629.8"/>
		<path class="st2" d="M1642.2,626.7h12.5c7,0,11.7,0.3,14.2,0.9c3.7,0.9,6.8,2.9,9.1,5.8c2.3,3,3.5,6.7,3.5,11
			c0,3.6-0.8,6.8-2.4,9.6c-1.6,2.8-3.9,4.8-6.9,6.3c-3,1.4-7.1,2.1-12.4,2.2l22.6,31h-7.8l-22.6-31h-3.5v31h-6.3V626.7z
			 M1648.4,633.2v22.7l10.8,0.1c4.2,0,7.3-0.4,9.3-1.3c2-0.8,3.6-2.2,4.7-4.1c1.1-1.9,1.7-3.9,1.7-6.2c0-2.2-0.6-4.3-1.7-6.1
			c-1.1-1.8-2.6-3.1-4.5-3.9c-1.9-0.8-4.9-1.2-9.2-1.2H1648.4z"/>
	</g>
	<g>
		<path class="st3" d="M194.4,243.2c7.5,0,13.3,0.1,17.3,0.1c4.3,0,9.1,0,14.5-0.1c-1,13.8-1.7,30.5-2.1,50.1
			c-13.2,3-24.4,4.5-33.7,4.5c-6.9,0-13.5-0.9-19.8-2.8c-6.3-1.9-11.6-4.8-16-8.7c-4.3-3.9-7.6-8.9-9.8-15
			c-2.2-6.1-3.3-12.6-3.3-19.3c0-7.7,1.4-15,4.1-21.8c2.8-6.8,6.6-12.5,11.6-17.2c5-4.6,10.6-7.9,16.9-9.9c6.3-2,13.2-3,20.8-3
			c8.3,0,17.6,1.2,27.9,3.5c0.1,3.5,0.3,7.2,0.7,11.2c-6.1-2.1-11.3-3.6-15.8-4.4c-4.4-0.8-8.5-1.2-12.3-1.2
			c-5.9,0-11.5,0.9-16.8,2.8c-5.3,1.9-9.8,4.7-13.6,8.6c-3.8,3.9-6.6,8.6-8.6,14.3c-2,5.7-2.9,11.6-2.9,17.6
			c0,5.4,0.8,10.5,2.4,15.2c1.6,4.7,4,8.6,7.2,11.6c3.2,3,7.1,5.3,11.8,6.9c4.6,1.6,9.7,2.4,15.1,2.4c3,0,6.5-0.3,10.6-0.9
			s8.2-1.6,12.4-2.9l1.3-32.8h-6.1c-4.1,0-8.8,0.1-14.1,0.3C194.3,249.1,194.4,246,194.4,243.2"/>
		<path class="st3" d="M244.6,296.2c1.6-26.7,2.3-48,2.3-63.9l-0.1-6.4c2.2,0,4,0.1,5.5,0.1c1.7,0,3.5,0,5.5-0.1l-0.5,11.5
			c1.6-2.9,3-5,4.3-6.5c1.2-1.5,2.6-2.7,4.2-3.6c1.6-0.9,3.3-1.7,5.3-2.2c2-0.5,4-0.8,6.2-0.8c1.8,0,3.6,0.2,5.4,0.7
			c0,3.1,0.2,6.5,0.5,10.3c-2.7-0.8-5.1-1.2-7.2-1.2c-2.6,0-4.9,0.5-6.9,1.4c-2,0.9-3.9,2.3-5.5,4.1c-1.6,1.8-3,4-4,6.6
			c-0.9,2-1.5,4.7-2,7.9c-0.5,3.2-0.8,9.1-1.1,17.7c-0.2,6.2-0.3,12.9-0.3,19.8v4.6c-2.3-0.1-4.2-0.1-5.7-0.1
			C249.3,296.1,247.3,296.1,244.6,296.2"/>
		<path class="st3" d="M327.2,224.4c4.6,0,8.9,0.7,13,2.1c4.1,1.4,7.7,3.6,10.7,6.6c3,3,5.3,6.8,6.9,11.4c1.6,4.6,2.3,9.4,2.3,14.5
			c0,5.5-0.8,10.8-2.5,15.8c-1.7,5-4,9.3-7,12.8c-3,3.5-6.7,6.1-11.1,7.7c-4.4,1.6-9.1,2.5-14,2.5c-4.6,0-9-0.7-13.2-2.2
			c-4.1-1.5-7.7-3.8-10.7-6.9c-3-3.1-5.3-7-6.9-11.5c-1.6-4.6-2.3-9.3-2.3-14.3c0-7.5,1.4-14.3,4.3-20.4c2.9-6,7.1-10.5,12.6-13.5
			C314.9,225.9,320.8,224.4,327.2,224.4 M326.9,233.2c-4.4,0-8.5,1.2-12.2,3.5c-3.7,2.4-6.5,5.9-8.2,10.6c-1.8,4.7-2.7,9.9-2.7,15.5
			c0,4.9,0.7,9.3,2.2,13.2c1.5,3.9,3.9,7.1,7.3,9.5c3.4,2.4,7.5,3.6,12.2,3.6c3.3,0,6.3-0.6,9.2-1.8c2.9-1.2,5.4-3.1,7.6-5.9
			c2.2-2.7,3.8-6.1,4.8-10c1-4,1.6-8.1,1.6-12.4c0-4.1-0.5-7.9-1.6-11.4c-1-3.6-2.6-6.4-4.8-8.6c-2.1-2.1-4.6-3.7-7.3-4.5
			C332.4,233.6,329.6,233.2,326.9,233.2"/>
		<path class="st3" d="M437.7,296.2c-2.1-0.1-4-0.1-5.5-0.1c-1.7,0-3.5,0-5.4,0.1l0.3-13.4c-1,2.1-1.9,3.7-2.7,4.8
			c-0.8,1.1-1.7,2.2-2.8,3.3c-1.1,1.1-2.3,2-3.5,2.7c-1.2,0.7-2.6,1.4-4.2,2c-1.6,0.6-3.5,1.1-5.6,1.5c-2.1,0.4-4.4,0.6-6.9,0.6
			c-5.3,0-9.8-0.9-13.6-2.6c-3.8-1.7-6.6-4.1-8.5-7.3c-1.9-3.1-2.9-7.4-2.9-12.9c0-0.8,0-2.2,0.1-4.2c0.1-2,0.2-4.6,0.4-7.8
			l1.1-23.1l0.2-7.4c0-1.7,0.1-3.9,0.1-6.5l6,0.1c1.2,0,3.1,0,5.6-0.1c-0.6,8.1-1.2,16.9-1.7,26.6c-0.6,9.6-0.8,15.8-0.8,18.4
			c0,4.1,0.6,7.3,1.9,9.7c1.2,2.4,3.3,4.3,6.2,5.6c2.9,1.3,6.2,2,9.8,2c3.2,0,6.3-0.6,9.3-1.8c2.5-1.1,4.7-2.5,6.4-4.3
			c1.9-2,3.4-4.6,4.7-7.7c0.9-2.3,1.6-5.3,2.1-8.9c0.3-2.6,0.6-7.4,0.9-14.2c0.3-8.3,0.6-16.8,0.7-25.4l6.1,0.1c1.3,0,3.1,0,5.5-0.1
			c-0.6,8.3-1.3,21-2.1,37.9C438.1,273.2,437.8,284,437.7,296.2"/>
		<path class="st3" d="M456.7,327.5c0.9-11.9,1.7-28.2,2.5-48.7c0.8-20.5,1.2-37.3,1.3-50.3c7.1-1.6,12.8-2.7,17.1-3.3
			c4.3-0.6,8.6-0.9,12.9-0.9c6.8,0,12.7,1.1,17.7,3.4c5,2.3,8.9,6.3,11.7,12.1c2.8,5.8,4.2,12.3,4.2,19.5c0,5-0.7,9.9-2,14.6
			c-1.3,4.7-3.3,8.9-6,12.6c-2.7,3.7-5.9,6.5-9.7,8.4c-3.8,1.9-8,2.8-12.7,2.8c-2.8,0-5.5-0.4-8-1.1c-2.6-0.7-4.8-1.7-6.7-2.8
			c-1.9-1.2-3.5-2.4-4.8-3.9c-1.3-1.4-2.8-3.6-4.7-6.4l-0.8,27.5c-0.2,4.5-0.3,7.7-0.3,9.7v6.9c-2.2-0.1-4.1-0.1-5.8-0.1
			C461.1,327.4,459.1,327.4,456.7,327.5 M471.6,236.8l-0.5,5.3l-0.3,7.2c-0.2,3.8-0.3,6.9-0.4,9.3c-0.1,2.4-0.1,4.1-0.1,5
			c0,3.4,0.3,6.7,1,9.7c0.7,3.1,2,5.8,4,8.4c2,2.5,4.4,4.4,7.1,5.7c2.7,1.3,5.6,1.9,8.5,1.9c4.1,0,7.8-1.2,11.1-3.6
			c3.3-2.4,5.9-6,7.8-10.7c1.9-4.8,2.8-10,2.8-15.6c0-5.7-1-10.6-2.9-14.7c-2-4.1-4.6-7.1-7.9-8.9c-3.3-1.8-7-2.7-11.2-2.7
			C484.7,233,478.3,234.2,471.6,236.8"/>
	</g>
	<g>
		<path class="st0" d="M118.1,540.1l3.8-51.5l2.8-64.4l1.8-64.1c0.1-2.8,0.1-10.1,0.1-22c10.5,0.2,20.4,0.3,29.7,0.3
			c6.9,0,16-0.1,27.3-0.4c11.3-0.3,21.1-0.4,29.3-0.4c11.2,0,21.5,0.7,31,2.1c9.5,1.4,17.8,4,24.9,7.8c7.1,3.8,13.3,8.6,18.5,14.3
			c5.2,5.7,9.5,12.1,12.8,19c3.3,7,5.8,14.7,7.6,23.2c1.8,8.5,2.6,17.2,2.6,26.1c0,17-2.8,33.1-8.5,48.5c-5.6,15.3-14,28-25.2,38
			c-11.2,10-23.6,16.4-37.1,19.3c-13.6,2.9-29,4.3-46.2,4.3l-48.3-0.3C142.2,539.8,133.2,539.9,118.1,540.1 M161.7,508.5
			c7.8,0.4,15.4,0.6,23,0.6c8.6,0,16.6-0.4,23.9-1.3c7.3-0.9,13.7-2.3,19-4.2c5.3-1.9,10.6-5.3,16-10.1c5.4-4.8,9.7-10.4,13.1-16.8
			c3.4-6.4,6-13.4,7.8-21.2c1.8-7.8,2.7-15.7,2.7-23.8c0-14.8-2.4-26.9-7.2-36.5c-4.8-9.5-11.2-16.4-19.1-20.6
			c-7.9-4.2-20.1-6.3-36.6-6.3c-10.7,0-23,0.2-36.8,0.6L161.7,508.5z"/>
		<path class="st0" d="M447.1,331c14.1,0,27.6,2,40.6,6.1c13,4,24.5,10.6,34.5,19.8c10,9.1,17.6,19.8,22.7,31.9
			c5.1,12.1,7.7,26.3,7.7,42.5c0,15.2-2.4,29.7-7.2,43.6c-4.8,13.9-12.3,25.8-22.4,35.8c-10.1,10-22.5,17.4-37,22.3
			c-14.5,4.8-29.8,7.3-45.8,7.3c-15.2,0-29.7-2.2-43.7-6.7c-14-4.4-26-11.4-36.1-20.9c-10.1-9.5-17.3-20.3-21.7-32.6
			c-4.4-12.3-6.5-25.6-6.5-39.9c0-15.7,2.7-30.7,8.2-45c5.4-14.3,13.4-26.1,24-35.5c10.6-9.4,22.9-16.5,37.1-21.3
			C415.5,333.4,430.8,331,447.1,331 M444.8,362.5c-14.3,0-26.8,3.4-37.4,10.3c-10.6,6.9-18.6,16.2-23.9,28.1
			c-5.4,11.9-8,24.7-8,38.5c0,12.8,2.6,24.6,7.7,35.4c5.2,10.8,13.1,19,23.8,24.7c10.7,5.7,22.2,8.5,34.7,8.5c9.4,0,18.3-1.7,26.8-5
			c8.5-3.4,15.9-8.5,22.1-15.3c6.2-6.9,10.9-15.1,14-24.8c3.1-9.7,4.7-19.7,4.7-30.2c0-9.8-1.4-19.1-4.2-28.1
			c-2.8-9-7.1-16.7-13-23.2c-5.9-6.5-12.9-11.2-21.2-14.4C462.6,364.1,453.9,362.5,444.8,362.5"/>
		<path class="st1" d="M642.9,540.1l-5.4-18.6c-0.8-2.5-3.9-11.9-9.4-28.3l-27.6-81.7l-25.3-73.4c9.7,0.2,17.8,0.3,24.3,0.3
			c4,0,10.9-0.1,20.9-0.3l4.4,16.4c0.9,3.4,2.3,7.9,4.1,13.6l34.5,108.5c2.1,7,4.8,16.2,8.1,27.7l7.7-18c1.9-4.4,5.8-13.1,11.8-26
			l44.7-97.4c1.3-2.9,2.6-5.9,4-9.1c1.3-3.2,3.4-8.4,6.2-15.6c10.3,0.2,18.2,0.3,23.6,0.3c3.2,0,10.6-0.1,22.3-0.3l-12.2,23.7
			l-77.6,159.8l-8.2,18.5c-12.3-0.2-20.6-0.3-24.7-0.3C665.2,539.8,656.6,539.9,642.9,540.1"/>
		<path class="st1" d="M775.4,540.1c9.9-18.1,21.4-40.6,34.7-67.3l37.4-74.7c11.7-23.1,21.3-43.1,29-59.9c12.3,0.2,21,0.3,26.1,0.3
			c9,0,17.8-0.1,26.4-0.3l20.3,60.5l44.1,125.2l6.1,16.3l-21.3-0.3c-4.9,0-13.2,0.1-24.8,0.3c-2.3-8.8-5.9-20.6-10.7-35.5
			c-4.9-14.9-9-27-12.5-36.2h-74.7c-11.1,23.5-21.9,47.4-32.4,71.8l-23.2-0.3C795.6,539.8,787.4,539.9,775.4,540.1 M868.1,437.5
			h54.4L900.2,369l-11.5,24.9L868.1,437.5z"/>
		<path class="st1" d="M1018.4,540.1c2.8-29.7,5.1-62.8,6.8-99.2c1.7-36.4,2.7-70.7,3-102.8c9.7,0.2,17.7,0.3,24.2,0.3
			c4.4,0,11.3-0.1,20.9-0.3c-1.3,17.8-2.4,38-3.5,60.7l-2.9,59.3c-0.9,17-1.5,33.8-1.9,50.6l24.5,0.3c22.9,0,38-0.1,45.2-0.2
			c7.2-0.1,14.3-0.4,21.3-0.8c-0.9,9.7-1.6,20.4-2.3,32.1c-24.9-0.2-46.2-0.3-63.9-0.3l-44.7,0.1L1018.4,540.1z"/>
	</g>
</g>
</svg>
