<?xml version="1.0" encoding="utf-8"?>
<!-- Generator: Adobe Illustrator 24.0.2, SVG Export Plug-In . SVG Version: 6.00 Build 0)  -->
<svg version="1.1" id="Capa_1" xmlns="http://www.w3.org/2000/svg" xmlns:xlink="http://www.w3.org/1999/xlink" x="0px" y="0px"
	 viewBox="0 0 1800 586.1" style="enable-background:new 0 0 1800 586.1;" xml:space="preserve">
<style type="text/css">
	.st0{fill:#63656B;}
	.st1{fill:#E0211C;}
	.st2{fill:#F6FAF7;}
	.st3{fill:#E1271E;}
	.st4{fill:#FFFFFF;}
</style>
<g>
	<g>
		<path class="st0" d="M729.5,356.3l-14.1,0.3l2-16.6l0,0c-10.6,12.4-25.9,18.1-37.5,18.1c-16.2,0-22.8-12.1-22.8-31.6
			c0-6.1,0.5-10.5,1.6-17.5l18.2-80.9h15.3l-16.3,78.4c-1,6.7-3.2,13.9-3.2,18.4c0,12.9,6.2,19.1,16.1,19.1c7.4,0,17.3-2,29.2-17.8
			l22.3-98.1H755L729.5,356.3z"/>
		<path class="st0" d="M829.2,278.6c0.9-4.9,3.7-20.7,3.7-24.4c0-17.4-17.1-17.3-28.7-15.3c-10.4,1.8-17.3,11.3-19,22.4l-17.1-0.8
			c1.2-21.6,24.7-34.4,39.1-35.6c18.5-1.5,42-2.4,42,24.5c0,5.1-3.8,25.3-4.7,30.7l-14.6,75.9h-15.1l2.5-15.6l0,0
			c-8.3,10-25.7,18.9-36.6,18.9c-19.8,0-30.4-11.8-30.4-31.7C750.3,291.7,779.7,277.4,829.2,278.6z M768.1,325.4
			c0,13,7.2,19.1,22.7,17.8c8.2-0.7,23.2-11.6,30.4-26.1l5-26.1C785.9,291,768.1,304.3,768.1,325.4z"/>
		<path class="st0" d="M874.7,228.1h16.1l-3,15.5l0,0c10.9-12.4,18.6-18.7,30.5-18.7c16.2,0,30.1,5.3,30.1,24.8
			c0,6.1-2.1,19-3.2,25.9l-17.1,80.7h-16.3l18.1-78.7c1-6.7,3-17.9,3-22.4c0-12.9-8.9-17.3-18.8-17.3c-7.5,0-22.7,7.8-27.4,19.9
			c-7.9,20.2-22.5,98.5-22.5,98.5h-16.1L874.7,228.1z"/>
		<polygon class="st0" points="662.2,207 647.4,207 649.6,192.7 663.7,192.7 		"/>
		<path class="st0" d="M642,229.1c4.2,0,10.9,0,15.3,0c-2.5,13.1-25.2,121.2-27.2,131.7c-2,10.6-3.4,30.1-21.3,33.9
			c-4.3,0.9-12.9,1.3-20.8,0.8c-0.2-4.3,0-9.8,0-15.1c10.2-0.1,22.3,6,26.7-21.6C619.2,332.2,635.2,261.6,642,229.1z"/>
	</g>
	<g>
		<path class="st1" d="M974.8,229.2h34.4l-0.7,14.5l0,0c12.1-10.8,22-18.7,44.5-17.6c18.8,1,25.7,8.7,29.2,22.1
			c14-13.1,29.4-22.4,39.6-22.2c20.9,0.5,40.6,6,40.6,27.2c0,5.7-0.2,16.8-1.5,23.1l-16.3,79.9h-37.1l14.1-66.9
			c1.1-5.2,2.7-17.9,2.7-21.4c0-8.7-4.7-15.6-13-15.6c-5.7,0-19.3,2.2-26.6,16.1c-10.4,19.8-18.5,87.7-18.5,87.7h-38.6l15.3-72.1
			c1.1-5.2,2-13.4,2-16.8c0-8.7-5.3-14.3-13.1-14.3c-6.1,0-19.4-1.1-26.7,12.8c-10.7,20.4-19.3,90.5-19.3,90.5h-36.9L974.8,229.2z"
			/>
		<path class="st1" d="M1249.8,273.9c0.7-2.4,2.7-12.1,2.5-13.8c-1.2-8.4-4.1-12.3-14.6-12.3c-10.5,0-18.3,7.8-19,19.1h-34.9
			c-3.2-21.4,28.9-39.5,48.3-40.7c27.7-1.7,55.3,2.3,55.3,30.4c0,5.5-3.7,24-5.2,30.7l-14.6,69.1h-30.7l2.2-15.6l0,0
			c-8.9,8.6-24.4,18.7-37.6,18.7c-17.6,0-35.6-6.8-35.6-30.2C1165.9,292,1199.6,273.9,1249.8,273.9z M1201.8,321.2
			c0,8.5,6,13.2,14.9,13.2c7.8,0,17.7-8.9,22.7-18.1c3-5.4,4.7-20.1,4.7-20.1C1215.1,296.9,1201.8,306.9,1201.8,321.2z"/>
		<path class="st1" d="M1315.1,229.2h32.1l-2.6,20.2l0,0c9.8-16,23.5-21.4,38-23.2c2.7-0.4,5.4-0.3,7.6,0.5l-7.1,34.6
			c-3.3-1.9-10.9-2.1-15.1-2.3c-9.1-0.3-23.4,8.8-27.2,18.6c-7.2,18.6-16.1,78.7-16.1,78.7l-36.3-1L1315.1,229.2z"/>
		<path class="st1" d="M1380.8,305.8c0-43.9,32.6-79.4,74.4-79.6c28.3-0.2,43.8,19.8,39.1,47.5H1460c0.5-18.3-3.5-22.9-10.6-22.9
			c-20.2,0-28.2,28.9-30.9,55c-1.1,11,0.7,27.6,15.1,27.6c8.6,0,17.8-16.6,18.5-24.9l34.6,0.5c-3.2,37.5-42.8,52.1-66,50.3
			C1392.5,357.2,1380.8,339.1,1380.8,305.8z"/>
		<path class="st1" d="M1571.6,226.1c30.3,0,45.3,18.8,45.3,45.2c0,12-2,25.8-3.9,29.7l-81.6-0.8c-0.9,21.1,0.8,35.2,17.6,35.2
			c7.9,0,21.8-8,26-18.6h31.2c-1.2,20.9-33.5,42-53.2,42c-30.7,0-55.6-8.5-55.6-42.5C1497.3,269.3,1525,226.1,1571.6,226.1z
			 M1581.6,273.6c0.6-2.2,1-5.1,1-8.1c0-8.7-4-16.1-15.8-16.1c-11.2,0-22.6,8.2-28,24.1H1581.6z"/>
		<path class="st1" d="M1627.2,335.9c0-5.5,3.7-19.5,4.6-24.9l10.9-56.3l-17.6-0.3l3-24.9l20.3-0.4l6.7-37.1h37.4l-7,37h28.7
			l-4.9,25.2L1680,254l-11.9,57.1c-0.5,3.1-0.6,5.7-0.6,8.5c0,8.4,4.1,12.4,13.3,12.4c3.6,0,9-1,12.3-2.6l-5.2,26.1
			c-6.7,2.6-15.9,3.3-28.9,3.3C1641.7,358.9,1627.2,355.4,1627.2,335.9z"/>
	</g>
	<g>
		<path class="st2" d="M407,443.2c-114.8,75.5-254.9,57.3-301.8-18.4C53,340.5,110.8,215,228,142s254-57.8,301.8,18.4
			C587,251.3,522.4,367.2,407,443.2z"/>
		<path class="st3" d="M395.4,423.5c-103.8,66.2-227.4,53.4-268.1-12.5c-45.5-73.4,7.4-184.1,112.5-249.5s226.1-53.5,268.1,12.5
			C554.8,247.6,504.7,353.9,395.4,423.5z"/>
		<path class="st4" d="M225.8,229.2c-5.7,10.9-19.2,9-9.9-2.8c24-24.3,81-52.6,98.8-59c8.2-2.8,29.6-13.7,9.9,26.8
			c-19.2,39.3-21.4,38-27.4,47.9c-7.3,3.6-45.6,25.7-53.8,30.9c-34.6,21.8-105.9,79.2-124.5,119.1c-6,14,0.5,55.6,32.9,45.5
			c68-25.8,157.2-176.2,162.7-183.6c5.5-2.2,18.2-5.4,22.4-4.4c1.1,2.8-42.3,62.5-47.7,71.7c-17.6,32.4,3.4,36,29.7,10.3
			c24.3-24.2,40.6-39.3,33.6-2.1c-5.1,35.6,28.7,31.3,48.5,5.2c10.6-15.3,19.6-23.6,26.9-19.7s2.9,12.7,2.7,31.1
			c-0.1,23.4,21.4,26.7,29,27.6c3.3-2.4,7.3-5.1,8.7-6.8c3.8-4.3-21,0.3-15.2-38.9c2.4-16.3,3.6-29.1-3.3-33.3
			c-10.4-6.2-32.9,3.6-47,20.7c-26.2,31.6-38.2,28.5-32.6-5.4c6.6-32-7.9-27.3-35.3-10.9c-17,11.8-17.2,4.9,7.9-30.7
			c21-33.9,26.3-50.2-12.6-39.3c4.4-9.7,27.4-51.7,31.8-73.6s-20.5-22.7-84.7,7.7s-92,63.7-95.8,76.6c-3.8,12.9,4.6,31.3,34.6,19.1
			C246.6,243.5,234.6,226.4,225.8,229.2z"/>
		<path class="st3" d="M273.5,275.3c0,0-31.6,44-63.8,78.3c-14.8,15.8-57.3,60.9-64.1,52.4c-8.4-10.5,23.7-45,39.9-61.7
			C222.2,306.4,273.5,275.3,273.5,275.3z"/>
	</g>
</g>
</svg>
