<?xml version="1.0" encoding="utf-8"?>
<!-- Generator: Adobe Illustrator 24.0.2, SVG Export Plug-In . SVG Version: 6.00 Build 0)  -->
<svg version="1.1" id="Capa_1" xmlns="http://www.w3.org/2000/svg" xmlns:xlink="http://www.w3.org/1999/xlink" x="0px" y="0px"
	 viewBox="0 0 1800 685.2" style="enable-background:new 0 0 1800 685.2;" xml:space="preserve">
<style type="text/css">
	.st0{fill:#0098A4;}
	.st1{fill:#009BA9;stroke:#000000;stroke-miterlimit:10;}
	.st2{fill:none;stroke:#000000;stroke-miterlimit:10;}
	.st3{fill:#AE9F80;}
</style>
<g>
	<g>
		<path class="st0" d="M519.5,97.3c-9.2-5.6-18.6-10.7-28.4-15.3c-4.7-2.2-9.4-4.2-14.3-6.2c-8.2-3.3-16.5-6.2-25-8.7
			c-26-7.7-53.5-11.8-81.9-11.8c-29.7,0-58.3,4.5-85.2,12.8c-8.5,2.7-16.9,5.7-25,9.1c-3.7,1.5-7.4,3.1-11,4.8
			c-9.8,4.6-19.3,9.6-28.4,15.3C137.7,147.8,82.6,238.8,82.6,342.6c0,158,127.5,286.2,285.3,287.2c0.6,0,1.3,0,2,0c0.7,0,1.3,0,2,0
			c157.7-1,285.3-129.2,285.3-287.2C657.1,238.8,602,147.8,519.5,97.3z M486.4,574.1c-35,17.8-74.6,27.8-116.5,27.8
			c-41.9,0-81.5-10-116.5-27.8c-83.6-42.5-140.9-129.3-140.9-229.5c0-86.1,42.3-162.4,107.3-209.1c9.2-6.6,18.8-12.6,28.9-18
			c3.6-1.9,7.3-3.8,11-5.5c8.1-3.9,16.5-7.3,25-10.3c26.7-9.3,55.3-14.4,85.2-14.4c28.6,0,56.2,4.7,81.9,13.3
			c8.5,2.9,16.9,6.2,25,9.9c4.8,2.2,9.6,4.6,14.3,7.1c10,5.4,19.7,11.4,28.9,18c65,46.7,107.3,123,107.3,209.1
			C627.3,444.8,570,531.6,486.4,574.1z"/>
		<path class="st1" d="M357.3,587c4.2,0.2,8.4,0.3,12.6,0.3h-4.4C362.8,587.3,360,587.2,357.3,587z"/>
		<path class="st2" d="M369.9,587.3c0.9,0,1.7,0,2.6,0c-0.5,0-1,0-1.5,0H369.9z"/>
		<path class="st0" d="M476.8,331.9v149.6c0,24.6-8.5,47.3-22.7,65.3h0c-18.9,23.9-47.8,39.6-80.3,40.5c-0.4,0-0.9,0-1.4,0
			c-0.9,0-1.7,0-2.6,0c-4.2,0-8.4-0.1-12.6-0.3h0c-31.2-2.4-58.7-18.5-76.5-42.3h0c-13.2-17.7-21.1-39.5-21.1-63.2V285.8h25v194
			c0,45.9,37.6,83.5,83.6,83.5c46,0,83.6-37.6,83.6-83.5V359.6L476.8,331.9z"/>
		<path class="st0" d="M614.3,342.9c0,85.6-44,160.9-110.6,204.5c-18,11.8-37.6,21.3-58.5,28c13.7-10.9,25-24.7,33-40.5
			c8.3-16.3,12.9-34.8,12.9-54.2V316.1l27.3-30.3h1.5v194c0,2.5,0,5,0,7.4V505c43-40,68.9-97.1,68.9-160.4
			c0-62.9-26.5-119.6-68.9-159.5c-8.9-8.4-18.6-16.1-28.9-22.9c-4.6-3.1-9.4-6-14.3-8.7c-8-4.5-16.4-8.5-25-12
			c-25.3-10.2-53-15.8-81.9-15.8c-30.2,0-59,6.1-85.2,17.2c-8.6,3.7-17,7.8-25,12.5c-3.7,2.2-7.4,4.5-11,6.8
			c-10.3,6.8-19.9,14.5-28.9,22.9c-42.4,39.9-68.9,96.6-68.9,159.5c0,63.4,25.9,120.4,68.9,160.4v-17.8c0-2.5,0-5,0-7.4v-194h28.9
			v195c0,19.5,4.7,37.9,12.9,54.2c7.9,15.8,19.2,29.6,33,40.5c-20.9-6.8-40.5-16.2-58.5-28c-66.6-43.7-110.6-119-110.6-204.6
			c0-78.4,36.9-148.2,94.4-192.9c9.1-7.1,18.8-13.6,28.9-19.4c3.6-2.1,7.3-4,11-5.9c8.1-4.1,16.4-7.8,25-10.9
			c26.5-9.9,55.2-15.3,85.2-15.3c28.7,0,56.3,5,81.9,14.1c8.6,3.1,16.9,6.6,25,10.5c4.8,2.4,9.6,4.9,14.3,7.5
			c10.1,5.8,19.8,12.3,28.9,19.4C577.4,194.7,614.3,264.5,614.3,342.9z"/>
		<g>
			<path class="st3" d="M429.5,212.4c-1.4-0.9-3.1-2.8-3.7-4.3l-3.3-8.1c-0.6-1.5-2.4-3.3-3.9-3.9l-106.1-44.2
				c-1.5-0.6-3.6-0.1-4.7,1.1l-8.2,9.6c-1.1,1.3-1.7,3.6-1.3,5.2l3.3,14.9c0.4,1.6-0.1,4.1-1,5.4l-35.1,54.1
				c-0.9,1.4-0.7,3.5,0.3,4.8l62.2,71.3c1.1,1.2,1.9,3.6,1.8,5.3L322,478.7c-0.1,1.6,0.4,4.2,1,5.8l5.3,12.7
				c0.6,1.5,2.5,2.8,4.2,2.8h14.7c1.7,0,2.4-1.2,1.8-2.7l-2.6-5.7c-0.7-1.5-0.9-4-0.5-5.6L363,422c0.4-1.6,2.1-3.1,3.7-3.4l14.8-2.5
				c1.6-0.3,3.9-1.5,5-2.7l130.4-144.6c1.1-1.2,0.9-2.9-0.6-3.8L429.5,212.4z M294.4,260.7c-10,0-18.1-8.1-18.1-18.1
				s8.1-18.1,18.1-18.1c10,0,18.1,8.1,18.1,18.1S304.4,260.7,294.4,260.7z"/>
		</g>
	</g>
	<g>
		<g>
			<path class="st0" d="M758.6,545.2c-0.7-0.5-1.5-0.8-2.3-0.8c-1.6,0-2.4,0.8-2.8,1.4c-0.3,0.6-0.6,1.1-0.8,1.7
				c-0.8,2.3-2,4.1-3.5,5.3c-1.5,1.2-3.4,1.8-5.8,1.8c-1.1,0-2.2-0.2-3.5-0.6c-1.2-0.3-2.3-1-3.3-2c-1-1-1.9-2.3-2.6-4.1
				c-0.7-1.7-1.1-4.1-1.1-6.9c0-2.8,0.4-5.2,1.1-7c0.7-1.8,1.6-3.2,2.7-4.2c1.1-1,2.2-1.7,3.4-2.1c2.5-0.8,5-0.8,6.4-0.3
				c0.7,0.3,1.4,0.6,1.8,0.9c0.7,0.4,1.3,0.9,1.9,1.6c0.6,0.6,1.1,1.4,1.5,2.1c0.2,0.4,0.4,0.7,0.6,1.1c0.3,0.4,0.5,0.9,0.9,1.2
				c0.3,0.4,0.7,0.7,1.1,1c0.5,0.3,1.1,0.5,1.8,0.5c1.5,0,2.3-0.7,2.7-1.4c0.5-0.7,0.7-1.5,0.7-2.3c0-0.5-0.1-1.1-0.4-1.9
				c-0.3-0.7-0.6-1.5-1.2-2.4c-0.5-0.8-1.2-1.7-2-2.7c-0.8-0.9-1.9-1.8-3.1-2.5c-1.2-0.7-2.6-1.3-4.1-1.8c-1.6-0.5-3.3-0.7-5.3-0.7
				c-2.7,0-5.2,0.5-7.5,1.5c-2.3,1-4.3,2.4-5.9,4.2c-1.6,1.8-2.9,4-3.8,6.5c-0.9,2.5-1.3,5.3-1.3,8.4c0,2.9,0.5,5.8,1.4,8.6
				c0.9,2.8,2.3,5.2,4.2,7.2c0.9,1,1.9,1.8,3.1,2.4c1.1,0.6,2.2,1.1,3.4,1.5c1.1,0.3,2.3,0.6,3.5,0.8c1.1,0.1,2.3,0.2,3.4,0.2
				c2.9,0,5.4-0.5,7.4-1.6c2-1,3.7-2.3,4.9-3.8c1.3-1.4,2.2-2.9,2.8-4.5h0c0.6-1.5,0.9-2.8,0.9-3.8
				C759.9,546.5,759.2,545.6,758.6,545.2z"/>
			<path class="st0" d="M794.7,527.4c-1.5-2-3.4-3.7-5.8-5c-2.4-1.3-5.5-2-9-2c-3.7,0-6.8,0.7-9.3,2c-2.4,1.3-4.4,3.1-5.9,5.1
				c-1.4,2-2.5,4.3-3,6.7c-0.6,2.3-0.8,4.6-0.8,6.7c0,1.3,0.1,2.7,0.3,4.2c0.2,1.5,0.6,3.1,1.2,4.5c0.6,1.5,1.3,3,2.2,4.4
				c0.9,1.4,2.1,2.7,3.6,3.8c1.4,1.1,3.1,2,5.1,2.6c1.9,0.6,4.2,1,6.8,1c3.3,0,6.2-0.6,8.6-1.8c2.4-1.2,4.4-2.8,5.9-4.8
				c1.5-2,2.6-4.2,3.3-6.7c0.6-2.4,1-4.8,1-7.3c0-2.2-0.3-4.6-0.9-6.9C797.2,531.6,796.2,529.4,794.7,527.4z M790.9,541
				c0,1.9-0.2,3.6-0.6,5c-0.4,1.4-0.9,2.6-1.5,3.6c-0.6,1-1.3,1.8-2.1,2.4c-0.8,0.7-1.6,1.2-2.4,1.5c-0.8,0.4-1.6,0.6-2.4,0.8
				c-0.8,0.2-1.5,0.2-2.2,0.2c-1.5,0-2.9-0.3-4.2-0.9c-1.3-0.6-2.5-1.4-3.5-2.5c-1-1.1-1.8-2.5-2.4-4.1c-0.6-1.6-0.9-3.5-0.9-5.6
				c0-0.8,0-1.7,0.1-2.8c0.1-1,0.3-2,0.6-3c0.3-1,0.6-2,1.1-2.9c0.4-0.9,0.9-1.6,1.6-2.3c1-0.9,2.1-1.7,3.4-2.4
				c1.2-0.6,2.7-0.9,4.2-0.9c0.6,0,1.4,0.1,2.2,0.2c0.8,0.1,1.6,0.4,2.4,0.8c0.8,0.4,1.6,0.9,2.4,1.5c0.8,0.6,1.5,1.5,2.1,2.4
				c0.6,1,1.1,2.2,1.5,3.6C790.7,537.3,790.9,539,790.9,541z"/>
			<path class="st0" d="M837.4,522.5c-0.4-0.6-1-1-1.8-1.2c-0.6-0.2-1.3-0.2-2.1-0.3v-1.2L833,521c-0.8,0-1.4,0-1.8,0.1
				c-0.7,0.1-1.3,0.3-1.8,0.7c-0.5,0.4-0.9,0.9-1.2,1.6c-0.2,0.5-0.4,1.1-0.7,2l-7.6,22.3c-0.2,0.7-0.4,1.2-0.6,1.7
				c-0.1-0.4-0.3-0.8-0.4-1.2l-7.7-23c-0.3-0.9-0.6-1.5-0.8-2c-0.3-0.7-0.8-1.2-1.3-1.5c-0.5-0.3-1.2-0.5-1.9-0.6
				c-0.5,0-1.1-0.1-1.8-0.1l-0.6-1.9v1.9c-0.3,0-0.5,0-0.9,0.1c-0.7,0.1-1.3,0.3-1.9,0.7c-0.6,0.4-1.1,1-1.5,1.8
				c-0.4,0.8-0.5,1.7-0.5,3v29.8c0,0.5,0,0.9,0.1,1.4c0,0.6,0.2,1.2,0.4,1.6c0.3,0.6,0.7,1.1,1.2,1.5c0.6,0.4,1.3,0.6,2.1,0.6
				c0.9,0,1.7-0.2,2.3-0.7c0.5-0.4,0.9-0.9,1.2-1.5c0.2-0.5,0.3-1.1,0.4-1.7c0-0.5,0-0.8,0-1.2v-19.5l6.7,19.7
				c0.3,0.9,0.6,1.6,0.8,2.1c0.3,0.7,0.6,1.2,0.9,1.6c0.4,0.5,0.9,0.8,1.5,1c0.4,0.1,1,0.2,1.6,0.2c0.6,0,1.2-0.1,1.7-0.3
				c0.5-0.2,1-0.6,1.4-1.1c0.3-0.4,0.6-0.9,0.8-1.5c0.2-0.5,0.4-1.1,0.7-1.9l6.8-19.4v19.9c0,0.2,0,0.4,0,0.8c0,0.5,0.2,1,0.4,1.5
				c0.3,0.5,0.6,1,1.1,1.4c0.6,0.5,1.4,0.7,2.3,0.7c0.9,0,1.7-0.2,2.3-0.7c0.5-0.4,0.9-0.9,1.1-1.5c0.2-0.5,0.3-1,0.4-1.5
				c0-0.4,0.1-0.7,0.1-0.9v-30.3c0-0.8,0-1.5-0.1-2.1C838,523.7,837.8,523,837.4,522.5z"/>
			<path class="st0" d="M866.7,541.8c0.7-0.8,1.3-1.7,1.8-2.7c0.5-0.9,0.8-1.9,1-3c0.2-1,0.3-2,0.3-3c0-2-0.4-3.9-1.2-5.6
				c-0.8-1.7-1.9-3.1-3.3-4.2c-1.4-1.1-3-1.8-4.7-2.1c-1.6-0.3-3.2-0.4-4.8-0.4H847c-1,0-1.8,0-2.5,0.1c-0.9,0.1-1.6,0.3-2.2,0.8
				c-0.6,0.5-1,1.2-1.2,2.1c-0.1,0.7-0.2,1.5-0.2,2.6V556c0,0.8,0,1.6,0.1,2.1c0.1,0.9,0.4,1.6,1,2.2c0.8,0.8,1.8,1.2,2.9,1.2
				c0.8,0,1.5-0.2,2.1-0.7c0.6-0.4,1-0.9,1.3-1.4c0.2-0.5,0.4-1.1,0.4-1.8c0-0.5,0.1-1.1,0.1-1.7v-10.3h6.9c1.2,0,2.2-0.1,3.1-0.2
				c0.9-0.1,1.7-0.3,2.4-0.5c0.7-0.2,1.2-0.4,1.7-0.6c0.4-0.2,0.8-0.4,1.1-0.5C865.1,543.3,866,542.6,866.7,541.8z M862,533.3
				c0,1.3-0.2,2.4-0.7,3c-0.5,0.7-1.1,1.3-1.8,1.6c-0.8,0.4-1.6,0.6-2.4,0.7c-1,0.1-1.8,0.1-2.4,0.1h-5.7v-10.9h5.7
				c0.5,0,1.1,0,1.7,0c0.5,0,1.1,0.1,1.6,0.2c0.5,0.1,1.1,0.3,1.6,0.5c0.4,0.2,0.8,0.4,1.1,0.7c0.5,0.5,0.8,1.1,1,1.8
				C861.8,531.9,862,532.6,862,533.3z"/>
			<path class="st0" d="M899.1,554.5L887,525.6c-0.2-0.6-0.5-1.2-0.8-1.9c-0.4-0.9-0.7-1.5-1.1-1.8c-0.4-0.5-1-0.8-1.6-1.1
				c-1.4-0.6-3-0.5-4.1,0c-0.6,0.3-1.1,0.7-1.5,1.2c-0.4,0.5-0.7,1-1,1.7c-0.3,0.6-0.5,1.2-0.8,2l-11.7,29c-0.3,0.6-0.5,1.1-0.6,1.6
				c-0.2,0.5-0.2,1.1-0.2,1.6c0,0.6,0.2,1.6,1.1,2.5c0.7,0.7,1.7,1.1,2.8,1.1c1.7,0,2.6-0.8,3-1.5c0.4-0.6,0.8-1.4,1.2-2.5l2.8-7.3
				h14.5l2.9,7.2c0.4,1.1,0.8,2,1.2,2.6c0.4,0.7,1.3,1.5,3,1.5c1.2,0,2.2-0.4,2.9-1.3c0.7-0.8,1-1.6,1-2.5c0-0.5-0.1-1.1-0.2-1.6
				C899.6,555.8,899.4,555.2,899.1,554.5z M886.2,543.3H877l4.6-11.8L886.2,543.3z"/>
			<path class="st0" d="M931.9,521.6c-0.8-0.8-1.7-1.2-2.8-1.2c-0.8,0-1.5,0.2-2.1,0.7c-0.6,0.4-1,0.8-1.2,1.3
				c-0.3,0.5-0.4,1-0.5,1.6c0,0.4,0,1,0,1.9l0.1,21.4L909.9,524c-0.7-1.2-1.3-2-1.8-2.5c-0.5-0.5-1.4-1.1-2.8-1.1
				c-0.9,0-1.6,0.2-2.1,0.5c-0.4,0.2-0.7,0.4-0.8,0.6c-0.3,0.3-0.6,0.6-0.8,1c-0.2,0.4-0.4,0.8-0.5,1.3c-0.1,0.4-0.1,0.8-0.1,1.3
				c0,0.4,0,1,0,1.6v29.4c0,0.9,0,1.6,0.1,2.2c0.1,0.9,0.5,1.6,1,2.1c0.8,0.8,1.7,1.1,2.8,1.1c0.8,0,1.5-0.2,2.1-0.6
				c0.6-0.4,1-0.8,1.3-1.4c0.3-0.5,0.4-1.1,0.4-1.6c0-0.4,0-1,0-1.8l-0.2-21l15.3,22.8c0.4,0.6,0.7,1,1,1.4c0.3,0.5,0.7,0.8,1,1.1
				c0.4,0.4,0.8,0.6,1.3,0.8c0.4,0.2,0.9,0.2,1.5,0.2c1.1,0,2.1-0.4,3-1.1c0.8-0.7,1.3-1.5,1.4-2.4c0.1-0.7,0.1-1.6,0.1-3v-29.2
				c0-0.9,0-1.6-0.1-2.2C932.8,522.8,932.5,522.1,931.9,521.6z"/>
			<path class="st0" d="M908.8,519.8L908.8,519.8c0.6,0.5,1.2,0.7,1.8,0.7c0.8,0,1.5-0.4,1.9-1.1c0.1-0.2,0.2-0.3,0.2-0.4l0.2-0.3
				c0.1-0.2,0.2-0.4,0.3-0.6c0.1,0,0.2,0,0.5,0.1c0.3,0.1,0.7,0.2,1,0.3c0.3,0.1,0.7,0.2,0.9,0.3l0.8,0.3c0.8,0.3,1.4,0.5,1.9,0.6
				c0.5,0.1,0.9,0.3,1.2,0.3c0.4,0.1,0.6,0.1,0.8,0.2c0.2,0,0.4,0,0.7,0c1,0,1.8-0.2,2.5-0.6c0.7-0.4,1.2-0.9,1.6-1.4
				c0.4-0.5,0.6-1.1,0.8-1.7c0.2-0.6,0.2-1,0.2-1.4c0-1.1-0.5-1.8-0.9-2.2c-0.6-0.6-1.2-0.9-1.9-0.9c-0.9,0-1.6,0.4-2,1.1
				c-0.2,0.3-0.4,0.6-0.5,1c-0.1,0.1-0.1,0.2-0.1,0.2c-0.1,0-0.2,0-0.3,0c-0.1,0-0.2,0-0.4-0.1c-0.2-0.1-0.5-0.2-0.9-0.3
				c-0.4-0.1-1-0.4-1.6-0.6c-0.4-0.2-1-0.4-1.9-0.7c-1.8-0.6-3.6-0.7-4.9,0c-0.6,0.3-1.1,0.7-1.5,1.2c-0.4,0.5-0.8,1.1-1,1.7
				c-0.2,0.6-0.3,1.2-0.3,1.8C907.8,518.7,908.4,519.5,908.8,519.8z"/>
			<path class="st0" d="M944.7,521.6c-0.4-0.4-0.9-0.7-1.4-0.9c-1.2-0.4-2.4-0.3-3.3,0.2c-0.4,0.2-0.7,0.5-0.9,0.7
				c-0.6,0.5-1,1.3-1.1,2.1c-0.1,0.6-0.1,1.3-0.1,2.2v30c0,1,0,1.7,0.1,2.2c0.1,0.8,0.4,1.6,1,2.1c0.4,0.4,0.9,0.7,1.4,0.9
				c0.5,0.2,1,0.3,1.5,0.3c0.7,0,1.3-0.1,1.8-0.4c0.4-0.2,0.8-0.5,1-0.7c0.6-0.6,1-1.3,1.1-2.1c0.1-0.6,0.1-1.3,0.1-2.2v-30
				c0-0.9,0-1.6-0.1-2.2C945.6,522.9,945.2,522.2,944.7,521.6z"/>
			<path class="st0" d="M983,554.5l-12.1-28.9c-0.2-0.6-0.5-1.2-0.8-1.9c-0.4-0.8-0.7-1.5-1.1-1.8c-0.4-0.5-1-0.8-1.6-1.1
				c-1.4-0.6-3-0.5-4.1,0c-0.6,0.3-1.1,0.7-1.5,1.2c-0.4,0.5-0.7,1-1,1.7c-0.3,0.6-0.5,1.2-0.8,2l-11.7,29c-0.3,0.6-0.5,1.1-0.6,1.6
				c-0.2,0.5-0.2,1.1-0.2,1.6c0,0.6,0.2,1.6,1.1,2.5c0.7,0.7,1.7,1.1,2.8,1.1c1.7,0,2.6-0.8,3-1.5c0.4-0.6,0.8-1.4,1.2-2.5l2.8-7.3
				h14.5l2.9,7.2c0.4,1.1,0.8,2,1.2,2.6c0.4,0.7,1.3,1.5,3,1.5c1.2,0,2.2-0.4,2.9-1.3c0.7-0.8,1-1.6,1-2.5c0-0.5-0.1-1.1-0.3-1.6
				C983.5,555.8,983.3,555.2,983,554.5z M970.1,543.3h-9.3l4.6-11.8L970.1,543.3z"/>
			<path class="st0" d="M1032.4,521.6c-0.8-0.8-1.7-1.2-2.8-1.2c-0.8,0-1.5,0.2-2.1,0.7c-0.6,0.4-1,0.8-1.2,1.3
				c-0.3,0.5-0.4,1-0.5,1.6c0,0.4,0,1,0,1.9l0.1,21.4l-15.6-23.3c-0.7-1.2-1.3-2-1.8-2.5s-1.4-1.1-2.8-1.1c-0.9,0-1.6,0.2-2.1,0.5
				c-0.4,0.2-0.7,0.4-0.8,0.6c-0.3,0.3-0.6,0.6-0.8,1c-0.2,0.4-0.4,0.8-0.5,1.3c-0.1,0.4-0.1,0.8-0.1,1.3c0,0.4,0,1,0,1.6v29.4
				c0,0.9,0,1.6,0.1,2.2c0.1,0.9,0.5,1.6,1,2.1c0.8,0.8,1.7,1.2,2.8,1.2c0.8,0,1.5-0.2,2.1-0.6c0.6-0.4,1-0.8,1.3-1.4
				c0.3-0.5,0.4-1.1,0.4-1.6c0-0.4,0-1,0-1.8l-0.2-21l15.3,22.8c0.4,0.6,0.7,1,1,1.4c0.3,0.5,0.7,0.8,1,1.1c0.4,0.4,0.8,0.6,1.3,0.8
				c0.4,0.2,0.9,0.2,1.5,0.2c1.1,0,2.1-0.4,3-1.1c0.8-0.7,1.3-1.5,1.4-2.4c0.1-0.7,0.1-1.6,0.1-3v-29.2c0-0.9,0-1.6-0.1-2.2
				C1033.3,522.8,1032.9,522.1,1032.4,521.6z"/>
			<path class="st0" d="M1069.8,554.5l-12.1-28.9c-0.2-0.6-0.5-1.2-0.8-1.9c-0.4-0.8-0.7-1.5-1.1-1.8c-0.4-0.5-1-0.8-1.6-1.1
				c-1.4-0.6-3-0.5-4.1,0c-0.6,0.3-1.1,0.7-1.5,1.2c-0.4,0.5-0.7,1-1,1.7c-0.3,0.6-0.5,1.2-0.8,2l-11.7,29c-0.3,0.6-0.5,1.1-0.6,1.6
				c-0.2,0.5-0.2,1.1-0.2,1.6c0,0.6,0.2,1.6,1.1,2.5c0.7,0.7,1.7,1.1,2.8,1.1c1.7,0,2.6-0.8,3-1.5c0.4-0.6,0.8-1.4,1.2-2.5l2.8-7.3
				h14.5l2.9,7.2c0.4,1.1,0.8,2,1.2,2.6c0.4,0.7,1.3,1.5,3,1.5c1.2,0,2.2-0.4,2.9-1.3c0.7-0.8,1-1.6,1-2.5c0-0.5-0.1-1.1-0.3-1.6
				C1070.3,555.8,1070.1,555.2,1069.8,554.5z M1056.9,543.3h-9.3l4.6-11.8L1056.9,543.3z"/>
			<path class="st0" d="M1102.4,545.2c-0.7-0.5-1.5-0.8-2.3-0.8c-1.6,0-2.4,0.9-2.8,1.4c-0.3,0.6-0.6,1.1-0.8,1.7
				c-0.8,2.3-2,4.1-3.5,5.3c-1.5,1.2-3.4,1.8-5.8,1.8c-1.1,0-2.2-0.2-3.5-0.6c-1.2-0.3-2.3-1-3.3-2c-1-1-1.9-2.3-2.6-4.1
				c-0.7-1.7-1.1-4.1-1.1-6.9c0-2.8,0.4-5.2,1.1-7c0.7-1.8,1.6-3.2,2.7-4.2c1.1-1,2.2-1.7,3.4-2.1c2.5-0.8,5-0.8,6.4-0.3
				c0.7,0.3,1.4,0.6,1.8,0.9c0.7,0.4,1.3,0.9,1.9,1.6c0.6,0.6,1.1,1.4,1.5,2.1c0.2,0.4,0.4,0.7,0.6,1.1c0.3,0.4,0.6,0.9,0.9,1.2
				c0.3,0.4,0.7,0.7,1.1,1c0.5,0.3,1.1,0.5,1.8,0.5c1.5,0,2.3-0.7,2.7-1.4c0.5-0.7,0.7-1.5,0.7-2.3c0-0.5-0.1-1.1-0.4-1.9
				c-0.3-0.7-0.6-1.5-1.2-2.4c-0.5-0.8-1.2-1.7-2-2.7c-0.8-0.9-1.9-1.8-3.1-2.5c-1.2-0.7-2.6-1.3-4.1-1.8c-1.6-0.5-3.3-0.7-5.3-0.7
				c-2.7,0-5.2,0.5-7.5,1.5c-2.3,1-4.3,2.4-5.9,4.2c-1.6,1.8-2.9,4-3.8,6.5c-0.9,2.5-1.3,5.3-1.3,8.4c0,2.9,0.5,5.8,1.4,8.6
				c0.9,2.8,2.3,5.2,4.2,7.2c0.9,1,2,1.8,3.1,2.4c1.1,0.6,2.2,1.1,3.4,1.5c1.1,0.3,2.3,0.6,3.5,0.8c1.1,0.1,2.3,0.2,3.4,0.2
				c2.9,0,5.4-0.5,7.4-1.6c2-1,3.7-2.3,4.9-3.8c1.3-1.4,2.2-2.9,2.8-4.4c0.6-1.5,0.9-2.8,0.9-3.8
				C1103.7,546.5,1103,545.6,1102.4,545.2z"/>
			<path class="st0" d="M1113.9,521.6c-0.4-0.4-0.9-0.7-1.4-0.9c-1.2-0.4-2.4-0.3-3.3,0.2c-0.4,0.2-0.7,0.5-0.9,0.7
				c-0.6,0.5-1,1.3-1.1,2.1c-0.1,0.6-0.1,1.3-0.1,2.2v30c0,1,0,1.7,0.1,2.2c0.1,0.8,0.4,1.6,1,2.1c0.4,0.4,0.9,0.7,1.4,0.9
				c0.5,0.2,1,0.3,1.5,0.3c0.7,0,1.3-0.1,1.8-0.4c0.4-0.2,0.8-0.5,1-0.7c0.6-0.6,1-1.3,1.1-2.1c0.1-0.6,0.1-1.3,0.1-2.2v-30
				c0-0.9,0-1.6-0.1-2.2C1114.8,522.9,1114.5,522.2,1113.9,521.6z"/>
			<path class="st0" d="M1152.2,527.4c-1.5-2-3.4-3.7-5.8-5c-2.4-1.3-5.5-2-9-2c-3.7,0-6.8,0.7-9.3,2c-2.4,1.3-4.4,3.1-5.9,5.1
				c-1.4,2-2.5,4.3-3,6.7c-0.6,2.3-0.8,4.6-0.8,6.7c0,1.3,0.1,2.7,0.3,4.2c0.2,1.5,0.6,3,1.2,4.5c0.6,1.5,1.3,3,2.2,4.4
				c0.9,1.4,2.1,2.7,3.6,3.8c1.4,1.1,3.1,2,5.1,2.6c1.9,0.6,4.2,1,6.8,1c3.3,0,6.2-0.6,8.6-1.8c2.4-1.2,4.4-2.8,5.9-4.8
				c1.5-2,2.6-4.2,3.3-6.7c0.6-2.4,1-4.8,1-7.3c0-2.2-0.3-4.6-0.9-6.9C1154.6,531.6,1153.6,529.4,1152.2,527.4z M1148.3,541
				c0,1.9-0.2,3.6-0.6,5c-0.4,1.4-0.9,2.6-1.5,3.6c-0.6,1-1.3,1.8-2.1,2.4c-0.8,0.7-1.6,1.2-2.4,1.5c-0.8,0.4-1.6,0.6-2.4,0.8
				c-0.8,0.2-1.5,0.2-2.2,0.2c-1.5,0-2.9-0.3-4.2-0.9c-1.3-0.6-2.5-1.4-3.5-2.5c-1-1.1-1.8-2.5-2.4-4.1c-0.6-1.6-0.9-3.5-0.9-5.6
				c0-0.8,0.1-1.8,0.1-2.8c0.1-1,0.3-2,0.6-3c0.3-1,0.6-2,1.1-2.9c0.4-0.8,0.9-1.6,1.6-2.3c1-0.9,2.1-1.7,3.4-2.4
				c1.2-0.6,2.7-0.9,4.2-0.9c0.6,0,1.4,0.1,2.2,0.2c0.8,0.1,1.6,0.4,2.4,0.8c0.8,0.4,1.6,0.9,2.4,1.5c0.8,0.6,1.5,1.5,2.1,2.4
				c0.6,1,1.1,2.2,1.5,3.6C1148.1,537.3,1148.3,539,1148.3,541z"/>
			<path class="st0" d="M1189.8,521.6c-0.8-0.8-1.7-1.2-2.8-1.2c-0.8,0-1.5,0.2-2.1,0.7c-0.6,0.4-1,0.8-1.2,1.3
				c-0.3,0.5-0.4,1-0.5,1.6c0,0.4,0,1,0,1.9l0.1,21.4l-15.6-23.3c-0.7-1.2-1.3-2-1.8-2.5s-1.4-1.1-2.8-1.1c-0.9,0-1.6,0.2-2.1,0.5
				c-0.4,0.2-0.7,0.4-0.8,0.6c-0.3,0.3-0.6,0.6-0.8,1c-0.2,0.4-0.4,0.8-0.5,1.3c-0.1,0.4-0.1,0.8-0.1,1.3c0,0.4,0,1,0,1.6v29.4
				c0,0.9,0,1.6,0.1,2.2c0.1,0.9,0.5,1.6,1,2.1c0.8,0.8,1.7,1.2,2.8,1.2c0.8,0,1.5-0.2,2.1-0.6c0.6-0.4,1-0.8,1.3-1.4
				c0.3-0.5,0.4-1.1,0.4-1.6c0-0.4,0-1,0-1.8l-0.2-21l15.3,22.8c0.4,0.6,0.7,1,1,1.4c0.3,0.5,0.7,0.8,1,1.1c0.4,0.4,0.8,0.6,1.3,0.8
				c0.4,0.2,0.9,0.2,1.5,0.2c1.1,0,2.1-0.4,3-1.1c0.8-0.7,1.3-1.5,1.4-2.4c0.1-0.7,0.1-1.6,0.1-3v-29.2c0-0.9,0-1.6-0.1-2.2
				C1190.7,522.8,1190.4,522.1,1189.8,521.6z"/>
			<path class="st0" d="M1227.3,554.5l-12.1-28.9c-0.2-0.6-0.5-1.2-0.8-1.9c-0.4-0.8-0.7-1.5-1.1-1.8c-0.4-0.5-1-0.8-1.6-1.1
				c-1.4-0.6-3-0.5-4.1,0c-0.6,0.3-1.1,0.7-1.5,1.2c-0.4,0.5-0.7,1-1,1.7c-0.3,0.6-0.5,1.2-0.8,2l-11.7,29c-0.3,0.6-0.5,1.1-0.6,1.6
				c-0.2,0.5-0.2,1.1-0.2,1.6c0,0.6,0.2,1.6,1.1,2.5c0.7,0.7,1.7,1.1,2.8,1.1c1.7,0,2.6-0.8,3-1.5c0.4-0.6,0.8-1.4,1.2-2.5l2.8-7.3
				h14.5l2.9,7.2c0.4,1.1,0.8,2,1.2,2.6c0.4,0.7,1.3,1.5,3,1.5c1.2,0,2.2-0.4,2.9-1.3c0.7-0.8,1-1.6,1-2.5c0-0.5-0.1-1.1-0.3-1.6
				C1227.8,555.8,1227.6,555.2,1227.3,554.5z M1214.4,543.3h-9.3l4.6-11.8L1214.4,543.3z"/>
			<path class="st0" d="M1254,554.3c-0.5-0.2-1-0.3-1.6-0.3c-0.4,0-0.8,0-1.2,0H1237v-28.1c0-0.9,0-1.6-0.1-2.2
				c-0.1-0.9-0.4-1.6-1-2.1c-0.8-0.8-1.7-1.2-2.9-1.2c-0.7,0-1.3,0.1-1.8,0.4c-0.4,0.2-0.8,0.5-1,0.8c-0.6,0.5-0.9,1.3-1,2.1
				c-0.1,0.6-0.1,1.3-0.1,2.2v29.4c0,1,0,1.8,0.1,2.4c0.1,0.9,0.5,1.6,1,2.1c0.5,0.5,1.2,0.8,2,1c0.6,0.1,1.4,0.1,2.4,0.1h16.5
				c0.4,0,0.9,0,1.3,0c0.5,0,1-0.1,1.5-0.2c0.6-0.2,1.2-0.6,1.6-1.1c0.4-0.5,0.6-1.2,0.6-2.1c0-0.9-0.2-1.6-0.7-2.1
				C1255,554.9,1254.5,554.5,1254,554.3z"/>
			<path class="st0" d="M1302.8,526.5c-1.1-1.3-2.3-2.4-3.6-3.1c-1.2-0.7-2.5-1.3-3.8-1.6c-1.2-0.3-2.5-0.5-3.7-0.6
				c-1.1-0.1-2.2-0.1-3.3-0.1h-8.9c-1,0-1.8,0-2.4,0.1c-0.8,0.1-1.5,0.4-2,0.9c-0.5,0.5-0.9,1.2-1,2.1c-0.1,0.6-0.1,1.4-0.1,2.4
				v28.1c0,1.1,0,1.9,0.1,2.6c0.1,0.9,0.3,1.7,0.8,2.2c0.5,0.6,1.2,1,2.1,1.2c0.7,0.1,1.5,0.2,2.6,0.2h9c0.7,0,1.6,0,2.4-0.1
				c0.9,0,1.9-0.2,3-0.4c1-0.2,2-0.5,3.1-0.9c1-0.4,2.1-1,3.1-1.6c1.5-1.1,2.8-2.4,3.7-3.8c0.9-1.4,1.6-2.9,2.1-4.5
				c0.5-1.5,0.8-3.1,1-4.6c0.2-1.5,0.3-2.9,0.3-4.1c0-2.5-0.3-5.1-0.9-7.5C1305.6,530.8,1304.5,528.5,1302.8,526.5z M1299.3,541.2
				c0,0.2,0,0.7-0.1,1.5c0,0.7-0.1,1.6-0.3,2.6c-0.2,1-0.4,2-0.8,3c-0.3,0.9-0.8,1.8-1.5,2.6c-0.5,0.6-1.1,1.2-1.6,1.6
				c-0.6,0.4-1.2,0.7-1.8,0.9c-0.7,0.2-1.4,0.4-2.2,0.5c-0.9,0.1-1.9,0.1-3,0.1h-6.1v-26.1h5.9c1.3,0,2.5,0.1,3.4,0.2
				c0.9,0.1,1.7,0.3,2.4,0.5c0.6,0.2,1.2,0.6,1.7,0.9c0.5,0.4,1,0.9,1.5,1.6c0.7,0.9,1.3,2.2,1.9,3.9
				C1299,536.8,1299.3,538.9,1299.3,541.2z"/>
			<path class="st0" d="M1337.3,554.3c-0.5-0.2-1-0.3-1.5-0.3c-0.4,0-0.8,0-1.2,0h-16.4v-10.2h14.3c0.4,0,0.8,0,1.2,0
				c0.6,0,1.1-0.1,1.6-0.4c0.5-0.2,1-0.6,1.3-1c0.4-0.5,0.6-1.2,0.6-2.1c0-0.8-0.2-1.5-0.6-2c-0.4-0.5-0.8-0.9-1.4-1.1
				c-0.5-0.2-1-0.3-1.5-0.3c-0.4,0-0.8,0-1.2,0h-14.3v-8.9h15.7c0.4,0,0.8,0,1.2,0c0.6,0,1.1-0.1,1.6-0.3c0.6-0.2,1.1-0.6,1.5-1.1
				c0.4-0.5,0.6-1.2,0.6-2.1c0-0.9-0.2-1.6-0.6-2.1c-0.4-0.5-0.9-0.8-1.5-1c-0.5-0.2-1-0.3-1.5-0.3c-0.4,0-0.8,0-1.2,0h-18
				c-1.2,0-2,0-2.5,0.1c-0.8,0.1-1.4,0.5-2,1.1c-0.6,0.6-1,1.4-1,2.2c0,0.5-0.1,1.2-0.1,2.2v28.7c0,1.1,0,1.9,0.1,2.4
				c0.1,0.8,0.5,1.5,1.2,2.1c0.3,0.2,0.5,0.4,0.8,0.5c0.3,0.2,0.6,0.3,1,0.4c0.3,0.1,0.7,0.1,1.2,0.1h20.1c0.4,0,0.8,0,1.2,0
				c0.6,0,1.1-0.1,1.6-0.3c0.6-0.2,1.1-0.6,1.5-1.1c0.4-0.5,0.6-1.2,0.6-2.1c0-0.9-0.2-1.6-0.6-2.1
				C1338.4,554.9,1337.9,554.5,1337.3,554.3z"/>
			<path class="st0" d="M1389.4,544.4c-0.3-0.8-0.7-1.5-1.2-2.2c-0.5-0.7-1.1-1.3-1.8-1.9c-0.5-0.4-1.1-0.7-1.7-1.1
				c-0.6-0.3-1.3-0.7-2.2-1c-0.8-0.3-1.8-0.6-2.9-0.9c-1.1-0.3-2.4-0.6-3.9-1c-0.9-0.2-1.8-0.4-2.7-0.7c-0.9-0.2-1.6-0.6-2.3-1
				c-0.6-0.4-1.1-0.8-1.5-1.4c-0.3-0.4-0.5-1.1-0.5-1.8c0-0.5,0.1-1,0.4-1.6c0.2-0.5,0.6-1,1.1-1.4c0.5-0.4,1.2-0.8,2-1.1
				c1.5-0.5,3.7-0.5,5.4-0.1c0.8,0.2,1.4,0.5,1.9,0.9c0.8,0.6,1.1,1,1.2,1.3c0.3,0.5,0.5,1.1,0.8,1.8c0.2,0.7,0.5,1.3,0.9,1.9
				c0.3,0.6,1.2,1.5,2.9,1.5c1.2,0,2.1-0.5,2.8-1.4c0.6-0.8,0.9-1.6,0.9-2.5c0-0.7-0.1-1.5-0.4-2.4c-0.3-0.8-0.6-1.5-1-2.2
				c-0.7-1.2-1.6-2.3-2.6-3.1c-1-0.8-2.1-1.4-3.2-1.8c-1.1-0.4-2.2-0.7-3.4-0.9c-3-0.4-5.8-0.3-8.4,0.4c-1.7,0.5-3.2,1.2-4.5,2.1
				c-1.3,1-2.4,2.2-3.2,3.7c-0.8,1.5-1.2,3.2-1.2,5.1c0,1.1,0.1,2.2,0.4,3.1c0.3,0.9,0.6,1.7,1,2.4c0.4,0.7,0.9,1.3,1.4,1.8
				c0.5,0.5,0.9,0.8,1.2,1.1c0.6,0.5,1.3,0.9,1.9,1.3c0.6,0.3,1.4,0.6,2.3,0.9c0.8,0.3,1.8,0.5,3,0.8c1.1,0.3,2.6,0.6,4.3,1
				c0.6,0.1,1.3,0.3,2.1,0.5c0.7,0.2,1.4,0.5,2.1,0.9c0.6,0.4,1.1,0.9,1.5,1.5c0.4,0.5,0.5,1.2,0.5,2.1c0,0.9-0.2,1.6-0.6,2.2
				c-0.4,0.7-1,1.3-1.7,1.7c-0.7,0.5-1.6,0.9-2.5,1.1c-1,0.3-2,0.4-3,0.4c-1.4,0-2.6-0.2-3.5-0.6c-0.9-0.4-1.6-0.9-2.1-1.4
				c-0.5-0.5-0.9-1.1-1.1-1.6c-0.3-0.6-0.5-1.2-0.6-1.6c-0.5-1.3-0.9-2.2-1.2-2.8c-0.6-0.9-1.5-1.4-2.7-1.4c-1,0-1.9,0.4-2.6,1.1
				c-0.7,0.7-1,1.6-1,2.5c0,1.3,0.3,2.7,1,4.3c0.7,1.5,1.6,2.9,2.7,4.1c0.8,0.8,1.7,1.5,2.7,2.1c0.9,0.5,1.9,0.9,3,1.2
				c1,0.3,2,0.5,3,0.6c1,0.1,2,0.2,2.9,0.2c2.4,0,4.5-0.3,6.4-1c1.9-0.7,3.5-1.6,4.8-2.7c1.3-1.2,2.3-2.6,2.9-4.1h0
				c0.7-1.6,1-3.2,1-5c0-0.6-0.1-1.4-0.2-2.1C1389.9,545.9,1389.7,545.1,1389.4,544.4z"/>
			<path class="st0" d="M1420,554.3c-0.5-0.2-1-0.3-1.5-0.3c-0.4,0-0.8,0-1.2,0h-16.4v-10.2h14.3c0.4,0,0.8,0,1.2,0
				c0.6,0,1.1-0.1,1.6-0.4c0.5-0.2,1-0.6,1.3-1c0.4-0.5,0.6-1.2,0.6-2.1c0-0.8-0.2-1.5-0.6-2c-0.4-0.5-0.8-0.9-1.4-1.1
				c-0.5-0.2-1-0.3-1.5-0.3c-0.4,0-0.8,0-1.2,0h-14.3v-8.9h15.7c0.4,0,0.8,0,1.2,0c0.6,0,1.1-0.1,1.6-0.3c0.6-0.2,1.1-0.6,1.5-1.1
				c0.4-0.5,0.6-1.2,0.6-2.1c0-0.9-0.2-1.6-0.6-2.1c-0.4-0.5-0.9-0.8-1.5-1c-0.5-0.2-1-0.3-1.5-0.3c-0.4,0-0.8,0-1.2,0h-18
				c-1.2,0-2,0-2.5,0.1c-0.8,0.1-1.4,0.5-2,1.1c-0.6,0.6-1,1.4-1,2.2c0,0.5-0.1,1.2-0.1,2.2v28.7c0,1.1,0,1.9,0.1,2.4
				c0.1,0.8,0.5,1.5,1.2,2.1c0.3,0.2,0.5,0.4,0.8,0.5c0.3,0.2,0.6,0.3,1,0.4c0.3,0.1,0.7,0.1,1.2,0.1h20.1c0.4,0,0.8,0,1.2,0
				c0.6,0,1.1-0.1,1.6-0.3c0.6-0.2,1.1-0.6,1.5-1.1c0.4-0.5,0.6-1.2,0.6-2.1c0-0.9-0.2-1.6-0.6-2.1
				C1421.1,554.9,1420.6,554.5,1420,554.3z"/>
			<path class="st0" d="M1458.5,540.2c-0.5-0.4-1.2-0.7-1.9-0.8c-0.6-0.1-1.3-0.1-2.2-0.1h-9.3c-0.3,0-0.6,0-1,0
				c-0.5,0-1,0.2-1.5,0.4c-0.5,0.2-0.9,0.6-1.3,1c-0.4,0.5-0.6,1.2-0.6,2.1c0,0.8,0.2,1.5,0.6,2c0.4,0.5,0.9,0.9,1.5,1.1
				c0.5,0.2,1,0.3,1.6,0.3c0.4,0,0.9,0,1.3,0h6.6v5.7c-1.5,0.9-2.9,1.6-4.4,2c-3.1,1-6.3,1.1-9.8,0c-1.5-0.5-2.8-1.2-4-2.4
				c-0.7-0.7-1.3-1.5-1.8-2.4c-0.5-0.9-0.9-1.9-1.2-2.8c-0.3-0.9-0.5-1.9-0.6-2.8c-0.1-1-0.1-1.9-0.1-2.7c0-2,0.3-3.8,0.8-5.5
				c0.5-1.6,1.3-3.1,2.3-4.2c1-1.2,2.2-2.1,3.6-2.8c1.4-0.7,3.1-1,5.1-1c1.5,0,2.7,0.2,3.7,0.5c1,0.4,1.9,0.8,2.5,1.3
				c0.7,0.5,1.2,1.1,1.6,1.6c0.5,0.6,0.8,1.2,1.1,1.7c0.6,1.1,1.1,1.8,1.6,2.2c0.6,0.5,1.3,0.8,2.1,0.8c1.4,0,2.4-0.4,3-1.2
				c0.6-0.7,0.9-1.5,0.9-2.4c0-0.4-0.1-1-0.7-2.7c-0.5-1.3-1.3-2.6-2.5-3.9c-1.2-1.3-2.9-2.5-4.9-3.4c-2.1-1-4.8-1.5-8-1.5
				c-3.5,0-6.5,0.6-9,1.7c-2.5,1.2-4.7,2.7-6.3,4.6c-1.6,1.9-2.8,4.2-3.6,6.7c-0.7,2.4-1.1,5-1.1,7.7c0,2.7,0.4,5.3,1.2,7.7
				c0.8,2.5,2,4.7,3.7,6.6c1.7,1.9,3.8,3.4,6.4,4.5c2.5,1.1,5.6,1.6,9,1.6c2.2,0,4.2-0.2,6-0.7c1.8-0.5,3.4-1,4.7-1.6
				c1.4-0.6,2.4-1.1,3.2-1.7c0.8-0.6,1.1-0.7,1.2-0.8c0.9-0.7,1.4-1.4,1.6-2.2c0.1-0.6,0.2-1.3,0.2-2.2v-8.1c0-0.9-0.1-1.6-0.2-2.2
				C1459.4,541.2,1459,540.6,1458.5,540.2z"/>
			<path class="st0" d="M1493.9,521.6c-0.8-0.8-1.8-1.2-2.9-1.2c-0.7,0-1.3,0.1-1.8,0.4c-0.4,0.2-0.8,0.5-1,0.8
				c-0.6,0.6-0.9,1.3-1,2.1c-0.1,0.6-0.1,1.3-0.1,2.2v19.7c0,0.9-0.1,2-0.3,3.2c-0.2,1-0.5,2-1.1,2.9c-0.5,0.8-1.3,1.5-2.3,2.1
				c-1.1,0.6-2.6,0.9-4.5,0.9c-2.2,0-3.8-0.3-4.9-1c-1.1-0.7-1.9-1.4-2.4-2.3c-0.5-0.9-0.8-1.9-0.9-2.9c-0.1-1.1-0.1-2.1-0.1-2.8
				V526c0-1,0-1.7-0.1-2.2c-0.1-0.8-0.4-1.6-1-2.1c-0.8-0.8-1.8-1.2-2.9-1.2c-0.7,0-1.3,0.1-1.8,0.4c-0.4,0.2-0.8,0.5-1,0.8
				c-0.6,0.6-0.9,1.3-1,2.1c-0.1,0.6-0.1,1.3-0.1,2.2v19.2c0,2.9,0.4,5.4,1.1,7.4c0.7,2.1,1.8,3.9,3.2,5.2c1.4,1.3,3.2,2.3,5.3,2.9
				c2,0.5,4.3,0.8,6.9,0.8c3.1,0,5.6-0.5,7.7-1.4c2.1-0.9,3.7-2.2,4.9-3.8c1.2-1.5,2-3.3,2.4-5.3c0.4-1.9,0.7-3.8,0.7-5.8V526
				c0-1,0-1.7-0.1-2.2C1494.8,522.9,1494.5,522.2,1493.9,521.6z"/>
			<path class="st0" d="M1530.9,556.2c-0.1-0.3-0.3-0.6-0.6-1.1l-4.3-7.3c-0.1-0.2-0.5-0.7-0.9-1.3c-0.5-0.7-0.9-1.2-1.3-1.7
				c-0.5-0.7-1-1.2-1.5-1.7c1.3-0.4,2.5-1.1,3.8-2c0.9-0.7,1.8-1.7,2.6-3.1c0.9-1.5,1.3-3.3,1.3-5.4c0-2.1-0.5-4-1.4-5.7
				c-1-1.7-2.3-3.1-4-4.1c-0.7-0.5-1.6-0.8-2.5-1c-0.8-0.2-1.6-0.4-2.4-0.5c-0.7-0.1-1.4-0.1-2-0.2c-0.6,0-0.9,0-1.1,0h-11.8
				c-1,0-1.8,0-2.4,0.1c-0.9,0.1-1.5,0.5-2,1c-0.5,0.5-0.8,1.2-0.9,2c-0.1,0.6-0.1,1.4-0.1,2.4v29.3c0,0.5,0,1,0,1.5
				c0,0.6,0.1,1.1,0.2,1.6c0.3,0.8,0.8,1.4,1.5,1.9c1.3,0.9,2.8,0.9,4.3,0.1c0.8-0.4,1.4-1.1,1.7-2.1c0.1-0.3,0.1-0.7,0.2-1.1
				c0-0.4,0.1-1,0.1-1.8v-11.6h2.9c0.8,0,1.5,0.1,2.2,0.2c0.5,0.1,1.1,0.3,1.7,0.7c0.7,0.5,1.4,1.2,2.2,2.2c0.9,1.1,1.9,2.6,3.2,4.5
				l3.5,5.6c0.4,0.7,0.8,1.2,1,1.6c0.3,0.5,0.7,0.9,1,1.3c0.4,0.4,0.8,0.7,1.3,0.9c0.4,0.2,0.9,0.2,1.5,0.2c0.9,0,1.8-0.3,2.5-0.9
				c0.6-0.5,1.2-1.3,1.2-2.7c0-0.3,0-0.6-0.1-0.9C1531.1,556.8,1531,556.5,1530.9,556.2z M1519.3,536.7c-0.9,0.3-1.8,0.5-2.6,0.6
				c-1,0.1-1.8,0.1-2.3,0.1h-7.2v-9.7h7.3c0.4,0,1,0,1.6,0c0.6,0,1.1,0.1,1.7,0.1c0.5,0.1,1.1,0.2,1.6,0.4c0.4,0.1,0.7,0.3,1.1,0.6
				c1.2,0.9,1.8,2.1,1.8,3.6c0,1.2-0.3,2.2-0.8,2.8C1520.7,535.9,1520.1,536.4,1519.3,536.7z"/>
			<path class="st0" d="M1564.4,527.4c-1.5-2-3.4-3.7-5.8-5c-2.4-1.3-5.5-2-9-2c-3.7,0-6.8,0.7-9.3,2c-2.4,1.3-4.4,3.1-5.9,5.1
				c-1.4,2-2.5,4.3-3,6.7c-0.6,2.3-0.8,4.6-0.8,6.7c0,1.3,0.1,2.7,0.3,4.2c0.2,1.5,0.6,3,1.2,4.5c0.6,1.5,1.3,3,2.2,4.4
				c0.9,1.4,2.1,2.7,3.6,3.8c1.4,1.1,3.1,2,5.1,2.6c1.9,0.6,4.2,1,6.8,1c3.3,0,6.2-0.6,8.6-1.8c2.4-1.2,4.4-2.8,5.9-4.8
				c1.5-2,2.6-4.2,3.3-6.7c0.6-2.4,1-4.8,1-7.3c0-2.2-0.3-4.6-0.9-6.9C1566.9,531.6,1565.8,529.4,1564.4,527.4z M1560.6,541
				c0,1.9-0.2,3.6-0.6,5c-0.4,1.4-0.9,2.6-1.5,3.6c-0.6,1-1.3,1.8-2.1,2.4c-0.8,0.7-1.6,1.2-2.4,1.5c-0.8,0.4-1.6,0.6-2.4,0.8
				c-0.8,0.2-1.5,0.2-2.2,0.2c-1.5,0-2.9-0.3-4.2-0.9c-1.3-0.6-2.5-1.4-3.5-2.5c-1-1.1-1.8-2.5-2.4-4.1c-0.6-1.6-0.9-3.5-0.9-5.6
				c0-0.8,0.1-1.8,0.1-2.8c0.1-1,0.3-2,0.6-3c0.3-1,0.6-2,1.1-2.9c0.4-0.8,0.9-1.6,1.6-2.3c1-0.9,2.1-1.7,3.4-2.4
				c1.2-0.6,2.7-0.9,4.2-0.9c0.6,0,1.4,0.1,2.2,0.2c0.8,0.1,1.6,0.4,2.4,0.8c0.8,0.4,1.6,0.9,2.4,1.5c0.8,0.6,1.5,1.5,2.1,2.4
				c0.6,1,1.1,2.2,1.5,3.6C1560.4,537.3,1560.6,539,1560.6,541z"/>
			<path class="st0" d="M1599,544.4c-0.3-0.8-0.7-1.5-1.2-2.2c-0.5-0.7-1.1-1.3-1.8-1.9c-0.5-0.4-1.1-0.7-1.7-1.1
				c-0.6-0.3-1.3-0.7-2.2-1c-0.8-0.3-1.8-0.6-2.9-0.9c-1.1-0.3-2.4-0.6-3.9-1c-0.9-0.2-1.8-0.4-2.7-0.7c-0.9-0.2-1.6-0.6-2.3-1
				c-0.6-0.4-1.1-0.8-1.5-1.4c-0.3-0.4-0.5-1.1-0.5-1.8c0-0.5,0.1-1,0.4-1.6c0.2-0.5,0.6-1,1.1-1.4c0.5-0.4,1.2-0.8,2-1.1
				c1.5-0.5,3.7-0.5,5.4-0.1c0.8,0.2,1.4,0.5,1.9,0.9c0.8,0.6,1.1,1,1.2,1.3c0.3,0.5,0.5,1.1,0.8,1.8c0.2,0.7,0.5,1.3,0.9,1.9
				c0.3,0.6,1.2,1.5,2.9,1.5c1.2,0,2.1-0.5,2.8-1.4c0.6-0.8,0.9-1.6,0.9-2.5c0-0.7-0.1-1.5-0.4-2.4c-0.3-0.8-0.6-1.5-1-2.2
				c-0.7-1.2-1.6-2.3-2.6-3.1c-1-0.8-2.1-1.4-3.2-1.8c-1.1-0.4-2.2-0.7-3.4-0.9c-3-0.4-5.8-0.3-8.4,0.4c-1.7,0.5-3.2,1.2-4.5,2.1
				c-1.3,1-2.4,2.2-3.2,3.7c-0.8,1.5-1.2,3.2-1.2,5.1c0,1.1,0.1,2.2,0.4,3.1c0.3,0.9,0.6,1.7,1,2.4c0.4,0.7,0.9,1.3,1.4,1.8
				c0.5,0.5,0.9,0.8,1.2,1.1c0.6,0.5,1.3,0.9,1.9,1.3c0.6,0.3,1.4,0.6,2.3,0.9c0.8,0.3,1.8,0.5,3,0.8c1.1,0.3,2.6,0.6,4.3,1
				c0.6,0.1,1.3,0.3,2.1,0.5c0.7,0.2,1.4,0.5,2.1,0.9c0.6,0.4,1.1,0.9,1.5,1.5c0.4,0.5,0.5,1.2,0.5,2.1c0,0.9-0.2,1.6-0.6,2.2
				c-0.4,0.7-1,1.3-1.7,1.7c-0.7,0.5-1.6,0.9-2.5,1.1c-1,0.3-2,0.4-3,0.4c-1.4,0-2.6-0.2-3.5-0.6c-0.9-0.4-1.6-0.9-2.1-1.4
				c-0.5-0.5-0.9-1.1-1.1-1.6c-0.3-0.6-0.5-1.2-0.6-1.6c-0.5-1.3-0.9-2.2-1.2-2.8c-0.6-0.9-1.5-1.4-2.7-1.4c-1,0-1.9,0.4-2.6,1.1
				c-0.7,0.7-1,1.6-1,2.5c0,1.3,0.3,2.7,1,4.3c0.7,1.5,1.6,2.9,2.7,4.1c0.8,0.8,1.7,1.5,2.7,2.1c0.9,0.5,1.9,0.9,3,1.2
				c1,0.3,2,0.5,3,0.6c1,0.1,2,0.2,2.9,0.2c2.4,0,4.5-0.3,6.4-1c1.9-0.7,3.5-1.6,4.8-2.7c1.3-1.2,2.3-2.6,2.9-4.1h0
				c0.7-1.6,1-3.2,1-5c0-0.6-0.1-1.4-0.2-2.1C1599.6,545.9,1599.3,545.1,1599,544.4z"/>
			<path class="st0" d="M1652.1,546.6c-0.2-0.8-0.4-1.5-0.7-2.3c-0.3-0.8-0.7-1.5-1.2-2.2c-0.5-0.7-1.1-1.3-1.8-1.9
				c-0.5-0.4-1.1-0.7-1.7-1.1c-0.6-0.3-1.3-0.7-2.2-1c-0.8-0.3-1.8-0.6-2.9-0.9c-1.1-0.3-2.4-0.6-3.9-1c-0.9-0.2-1.8-0.4-2.7-0.7
				c-0.9-0.2-1.6-0.6-2.3-1c-0.6-0.4-1.1-0.8-1.5-1.4c-0.3-0.4-0.5-1.1-0.5-1.8c0-0.5,0.1-1,0.4-1.6c0.2-0.5,0.6-1,1.1-1.4
				c0.5-0.4,1.2-0.8,2-1.1c1.5-0.5,3.7-0.5,5.4-0.1c0.8,0.2,1.4,0.5,1.9,0.9c0.8,0.6,1.1,1,1.2,1.3c0.3,0.5,0.5,1.1,0.8,1.8
				c0.2,0.7,0.5,1.3,0.9,1.9c0.3,0.6,1.2,1.5,2.9,1.5c1.2,0,2.1-0.5,2.8-1.4c0.6-0.8,0.9-1.6,0.9-2.5c0-0.7-0.1-1.5-0.4-2.4
				c-0.3-0.8-0.6-1.5-1-2.2c-0.7-1.2-1.6-2.3-2.6-3.1c-1-0.8-2.1-1.4-3.2-1.8c-1.1-0.4-2.2-0.7-3.4-0.9c-3-0.4-5.8-0.3-8.4,0.4
				c-1.7,0.5-3.2,1.2-4.5,2.1c-1.3,1-2.4,2.2-3.2,3.7c-0.8,1.5-1.2,3.2-1.2,5.1c0,1.1,0.1,2.2,0.4,3.1c0.3,0.9,0.6,1.7,1,2.4
				c0.4,0.7,0.9,1.3,1.4,1.8c0.5,0.5,0.9,0.8,1.2,1.1c0.6,0.5,1.3,0.9,1.9,1.3c0.6,0.3,1.4,0.6,2.3,0.9c0.8,0.3,1.8,0.5,3,0.8
				c1.1,0.3,2.6,0.6,4.3,1c0.6,0.1,1.3,0.3,2.1,0.5c0.7,0.2,1.4,0.5,2.1,0.9c0.6,0.4,1.1,0.9,1.5,1.5c0.4,0.5,0.5,1.2,0.5,2.1
				c0,0.9-0.2,1.6-0.6,2.2c-0.4,0.7-1,1.3-1.7,1.7c-0.7,0.5-1.6,0.9-2.5,1.1c-1,0.3-2,0.4-3,0.4c-1.4,0-2.6-0.2-3.5-0.6
				c-0.9-0.4-1.6-0.9-2.1-1.4c-0.5-0.5-0.9-1.1-1.1-1.6c-0.3-0.6-0.5-1.2-0.6-1.6c-0.5-1.3-0.9-2.2-1.2-2.8
				c-0.6-0.9-1.5-1.4-2.7-1.4c-1,0-1.9,0.4-2.6,1.1c-0.7,0.7-1,1.6-1,2.5c0,1.3,0.3,2.7,1,4.3c0.7,1.5,1.6,2.9,2.7,4.1
				c0.8,0.8,1.7,1.5,2.7,2.1c0.9,0.5,1.9,0.9,3,1.2c1,0.3,2,0.5,3,0.6c1,0.1,2,0.2,2.9,0.2c2.4,0,4.5-0.3,6.4-1
				c1.9-0.7,3.5-1.6,4.8-2.7c1.3-1.2,2.3-2.6,2.9-4.1h0c0.7-1.6,1-3.2,1-5C1652.3,548.1,1652.2,547.4,1652.1,546.6z"/>
			<path class="st0" d="M1659,554.2L1659,554.2c-0.8-0.8-1.9-1.3-3-1.3c-1.2,0-2.2,0.4-3,1.3c-0.8,0.8-1.3,1.9-1.3,3
				c0,1.2,0.4,2.2,1.3,3c0.8,0.8,1.9,1.3,3,1.3c1.2,0,2.2-0.4,3-1.3c0.8-0.8,1.3-1.9,1.3-3C1660.2,556,1659.8,555,1659,554.2z"/>
			<path class="st0" d="M1695.8,554.5l-12.1-28.9c-0.2-0.6-0.5-1.2-0.8-1.9c-0.4-0.8-0.7-1.5-1.1-1.8c-0.4-0.5-1-0.8-1.6-1.1
				c-1.4-0.6-3-0.5-4.1,0c-0.6,0.3-1.1,0.7-1.5,1.2c-0.4,0.5-0.7,1-1,1.7c-0.3,0.6-0.5,1.2-0.8,2l-11.7,29c-0.3,0.6-0.5,1.1-0.6,1.6
				c-0.2,0.5-0.2,1.1-0.2,1.6c0,0.6,0.2,1.6,1.1,2.5c0.7,0.7,1.7,1.1,2.8,1.1c1.7,0,2.6-0.8,3-1.5c0.4-0.6,0.8-1.4,1.2-2.5l2.8-7.3
				h14.5l2.9,7.2c0.4,1.1,0.8,2,1.2,2.6c0.4,0.7,1.3,1.5,3,1.5c1.2,0,2.2-0.4,2.9-1.3c0.7-0.8,1-1.6,1-2.5c0-0.5-0.1-1.1-0.3-1.6
				C1696.3,555.8,1696.1,555.2,1695.8,554.5z M1682.9,543.3h-9.3l4.6-11.8L1682.9,543.3z"/>
			<path class="st0" d="M1704,554.2L1704,554.2c-0.8-0.8-1.9-1.3-3-1.3c-1.2,0-2.2,0.4-3,1.3c-0.8,0.8-1.3,1.9-1.3,3
				c0,1.2,0.4,2.2,1.3,3c0.8,0.8,1.9,1.3,3,1.3c1.2,0,2.2-0.4,3-1.3c0.8-0.8,1.3-1.9,1.3-3C1705.2,556,1704.8,555,1704,554.2z"/>
		</g>
		<g>
			<path class="st0" d="M750.8,274.5h-12.5c-14.1,0-25.5,11.4-25.5,25.5v188.5h139.6v-35.7H750.8V274.5z"/>
			<path class="st0" d="M1178.3,405.8c0,17.4-3.9,30.5-11.6,38.8c-7.6,8.2-19.6,12.3-35.6,12.3c-16.2,0-28.2-4.1-35.6-12.1
				c-7.5-8.1-11.3-21.3-11.3-39V274h-9c-15.8,0-28.7,12.8-28.7,28.7v102.9c0,28.9,6.9,51,20.4,65.7c13.7,14.9,34.2,22.4,61,22.4
				c28.6,0,50.6-7.6,65.6-22.5c15-14.9,22.6-37,22.6-65.6V274h-37.8V405.8z"/>
			<path class="st0" d="M1381.4,312.3h34.9v-17.2c0-11.7-9.5-21.1-21.1-21.1h-13.8V312.3z"/>
			<rect x="1381.4" y="329.6" class="st0" width="34.9" height="158.3"/>
			<polygon class="st0" points="1545.8,269.8 1504.6,269.8 1482.3,309.8 1501.4,309.8 			"/>
			<path class="st0" d="M1502,324.8c-23.8,0-42.6,7.5-56,22.4c-13.2,14.7-19.9,35.4-19.9,61.3c0,26.2,6.7,46.9,20,61.6
				c13.4,14.8,32.3,22.3,56.2,22.3c23.8,0,42.6-7.5,56-22.4c13.2-14.7,19.9-35.4,19.9-61.5c0-26.1-6.7-46.7-20-61.4
				C1544.8,332.3,1525.8,324.8,1502,324.8z M1531.8,447.6c-6.8,8.6-16.5,12.7-29.6,12.7c-13.2,0-23-4.2-30-12.8
				c-7.1-8.8-10.7-21.9-10.7-39c0-17.1,3.6-30.2,10.7-39c6.9-8.5,16.7-12.7,30-12.7c13.1,0,22.8,4.2,29.6,12.7
				c7,8.8,10.5,21.9,10.5,38.9C1542.4,425.7,1538.8,438.8,1531.8,447.6z"/>
			<path class="st0" d="M970.6,337.5c-10.2-8.1-26-12.2-46.9-12.2c-19.6,0-35.3,4.8-46.7,14.2c-8.8,7.3-14.4,16.6-16.5,27.8h35.7
				c1-1.5,2.2-2.8,3.7-4c4.9-3.9,12.7-5.9,23-5.9c10.1,0,17.6,1.6,22.2,4.8c4.2,2.9,6.1,7,6.1,12.9c0,7.5-0.7,9.3-0.8,9.4
				c-0.1,0.2-0.7,1.1-3,2l-0.1,0c-1.1,0.5-5.4,1.7-21.9,3.4c-7.4,0.8-13.2,1.5-17.7,1.9c-18,2.3-31.8,7.7-40.9,16.1
				c-9.4,8.6-14.1,20.5-14.1,35.4c0,15.3,4.8,27.6,14.3,36.4c9.3,8.6,22.1,13.1,38.2,13.2c3.6,0.4,7.6,0.6,11.9,0.6
				c15.6,0,30.1-4.2,41.8-11.3c8.4-5.1,15.4-11.7,20.4-19.3c4.8-7.4,7.2-16,7.2-24.8v-61.8C986.6,359,981.2,345.9,970.6,337.5z
				 M951,430.1c0,9-3.6,16.2-11,22c-7.6,6-17.7,9-29.9,9c-7.3,0-12.9-1.6-16.5-4.8c-3.5-3-5.2-7.3-5.2-13.2c0-6,1.5-10.4,4.5-13.3
				c3.2-3.1,8.9-5.4,16.8-6.7c2.8-0.5,7.1-1,12.7-1.8c12.1-1.5,21.5-3.4,28.6-5.9V430.1z"/>
			<path class="st0" d="M1365.7,382.2v105.7h-13.8c-10.7,0-19.5-7.9-21.1-18.1v-71.3c0-2-0.1-3.9-0.2-5.7
				c-0.9-10.3-4.2-18.5-9.9-24.4c-2-2-4.1-3.7-6.5-5.1c-9.4-5.5-21.3-5.5-30.7,0c-2.4,1.4-4.6,3.1-6.5,5.1c-5.7,5.9-9,14-9.9,24.4
				c-0.2,1.8-0.2,3.7-0.2,5.7v89.5h-34.9V382.2c0-1.4,0.1-2.7,0.1-4c0.2-6.5,0.7-6.2,1.4-10c2.4-9.4,7.5-17.8,14.7-24.8
				c12.3-12.1,30.5-19.7,50.7-19.7c20.3,0,38.5,7.7,50.7,19.7c7.1,7,12.2,15.5,14.7,24.8c0.8,3.7,1.2,3.4,1.4,10
				C1365.7,379.5,1365.7,380.8,1365.7,382.2z"/>
			<path class="st0" d="M1717.4,382.2v105.7h-13.8c-10.7,0-19.5-7.9-21.1-18.1v-71.3c0-2-0.1-3.9-0.2-5.7
				c-0.9-10.3-4.2-18.5-9.9-24.4c-2-2-4.1-3.7-6.5-5.1c-9.4-5.5-21.3-5.5-30.7,0c-2.4,1.4-4.6,3.1-6.5,5.1c-5.7,5.9-9,14-9.9,24.4
				c-0.2,1.8-0.2,3.7-0.2,5.7v89.5h-34.9V382.2c0-1.4,0.1-2.7,0.1-4c0.2-6.5,0.7-6.2,1.4-10c2.4-9.4,7.5-17.8,14.7-24.8
				c12.3-12.1,30.5-19.7,50.7-19.7c20.3,0,38.5,7.7,50.7,19.7c7.1,7,12.2,15.5,14.7,24.8c0.8,3.7,1.2,3.4,1.4,10
				C1717.3,379.5,1717.3,380.8,1717.4,382.2z"/>
		</g>
	</g>
</g>
</svg>
