<?xml version="1.0" encoding="utf-8"?>
<!-- Generator: Adobe Illustrator 24.0.2, SVG Export Plug-In . SVG Version: 6.00 Build 0)  -->
<svg version="1.1" id="Capa_1" xmlns="http://www.w3.org/2000/svg" xmlns:xlink="http://www.w3.org/1999/xlink" x="0px" y="0px"
	 viewBox="0 0 1800 546.3" style="enable-background:new 0 0 1800 546.3;" xml:space="preserve">
<style type="text/css">
	.st0{fill:#7C1E90;}
	.st1{fill:#148D35;}
	.st2{fill:#2C67C1;}
	.st3{fill:#FFCD2D;}
	.st4{fill:#EC9348;}
	.st5{fill:#DA1518;}
</style>
<g>
	<ellipse class="st0" cx="1597" cy="393" rx="31.8" ry="31"/>
	<path class="st0" d="M1546.7,347.4c0-0.3,0-0.6,0-0.9c0-9.1-8.3-16.5-18.5-16.5c-10,0-18.2,7.1-18.5,16l0,0c0,0,0,0.1,0,0.2
		c0,0.1,0,0.2,0,0.3c0,0.7,0.1,1.4,0.2,2c0.5,8.9,1.5,38.6-6.2,39.5c0,0-10,4-9-20l0.9-86.7c0.2-6.4,0.7-36.3-9.9-52.3
		c0,0-4.7-8.5-12.9-15.9c-9.9-10.5-33.5-17.1-57.6-17.1c-21.8,0-46.4,6.8-59.7,16.4c-13.1,8.8-17.4,18.3-18.7,22.8
		c-2.3,5.2-3.9,11.6-4,18.8l0,0c0,0-0.4,2.5,0.4,6.3c0.3,2.2,0.9,4.2,1.7,5.9c1,2.8,2.5,5.7,4.6,8.4c5.3,6.9,12.1,11.4,17.9,12.2
		c0.2,0,0.3,0.1,0.5,0.1l0,0c2.4,0.7,4.9,1,7.5,1c13.8,0,25-10.1,25.5-22.6c0-0.3,0-0.6,0-0.9c0-4.4-1.3-8.5-3.6-12
		c-0.9-1.4-1.9-2.6-3.1-3.8c0,0,0,0,0,0c-0.3-0.4-0.7-0.7-1.1-1c0,0-0.1-0.1-0.1-0.1c-0.3-0.3-0.7-0.6-1-0.9
		c-0.1-0.1-0.2-0.1-0.3-0.2c-0.3-0.2-0.6-0.5-0.9-0.7c-0.2-0.1-0.4-0.2-0.6-0.4c-0.2-0.2-0.5-0.3-0.7-0.5c-0.4-0.3-0.9-0.5-1.4-0.8
		c0,0-0.1,0-0.1,0c8.8-6.7,21.4-11.1,30.4-11.1h15c15.1,0,30.5,12.4,30.5,27.5v0c0,11.9-6.5,20.3-16.6,23.3l0,0
		c-0.2,0.1-0.5,0.1-0.8,0.2c-0.9,0.2-1.8,0.4-2.7,0.6c-4.4,0.9-10.2,1.9-15.2,2.5c-0.3,0-0.8,0.1-1.2,0.1c-2.1,0.2-5.3,0.4-9.4,0.8
		c-0.1,0-0.1,0-0.2,0l0,0c-12.3,1.2-31.6,3.6-46,8l0,0c-9.6,2-17.5,7.1-23.4,12c-3.4,2.5-6.4,5.4-8.6,8.5c-0.2,0.2-0.3,0.4-0.5,0.6
		c-0.9,1.1-1.5,1.9-1.6,2l0.1,0c-6.8,9.6-11.1,23.8-11.1,39.5c0,20.2,7,37.6,17.4,46.4c11.9,11.9,35.3,20.1,62.1,20.1
		c30.3,0,55.5-10.9,65.2-25.6c5.2,16,22,25.6,42.8,25.6c25.1,0,42.5-18.1,42.5-40.5C1546.8,384.5,1548.1,366.1,1546.7,347.4z
		 M1387.4,386.1c-16.7-1.7-29.6-13.8-29.6-28.5c0-15.1,13.7-27.5,31-28.6l0-0.1c25.9-2.9,41.6-5.3,51-7.1c0,0,9.2-1.8,11.1-3.8
		c2-2,2,2,2,2C1459.4,393.1,1393.7,386.8,1387.4,386.1z"/>
	<path class="st1" d="M1091.5,262.6L1091.5,262.6c-8.5-37.9-46.8-66.6-92.8-66.6c-40.6,0-75.2,22.4-88.6,53.7l0,0
		c-21.1,39.7-12,88.9-12,88.9l0,0c4.7,34.1,24.4,55.6,38.2,66.8c3.7,3.5,8.3,6.6,13.6,9.2c0.4,0.2,0.6,0.3,0.6,0.3l0,0
		c12.6,6.3,28.9,10,46.7,10c12.9,0,25-2,35.5-5.5c0,0,0,0,0,0s0.1,0,0.4-0.1c10.1-3.4,18.7-8.2,24.9-13.9
		c14.5-10.8,30.5-28.6,34.7-55.7c0.3-1.1,0.4-2.2,0.5-3.4c0-0.1,0-0.2,0-0.4l0,0c0-0.2,0-0.3,0-0.5c0-10.8-9.2-19.5-20.5-19.5
		c-10.3,0-18.8,7.2-20.3,16.6c-6.8,45.6-53.7,45.4-53.7,45.4c-14.4,0-27.3-4.8-36.7-12.5c-3-2.8-5.6-5.6-7.9-8.5
		c-3.5-4.4-6.3-8.9-8.5-13.3c-5.7-11.6-7.3-22.3-7.6-29.2l0,0l-0.3-2.6c-0.1-0.2,0-0.8,0-1.1c0-0.1,0-0.2,0-0.3
		c0-0.1,0.1-0.2,0.2-0.3c0.6-0.4,2-0.2,2.4-0.3l134.3,0.1v0c5.8-0.2,11-2.3,14.8-5.6l0,0c1.7-1.1,3-2.7,4-4.7
		c1.7-2.7,2.7-5.9,2.7-9.2c0-0.2,0-0.5,0-0.7C1097.7,284,1091.5,262.6,1091.5,262.6z M1051.3,283.1l-107,0.1
		c-0.3-0.1-1.8,0.1-2.4-0.2c-0.1-0.1-0.2-0.1-0.2-0.2c0-0.1,0-0.2,0-0.2c0-0.2-0.1-0.7,0-0.8l0.3-1.9l0,0c0.3-5,3.8-12.8,9.6-21.2
		c2.2-3.2,5-6.5,8.5-9.7c2.3-2.1,4.9-4.1,7.9-6.2c9.3-5.6,20.3-9.1,34.7-9.1c0,0,21.1-0.3,34.1,13.8c12.8,14,15.3,30.5,15.8,33.1
		C1053.1,283.2,1051.3,283.1,1051.3,283.1z"/>
	<path class="st2" d="M1288.5,209.7c-29.4-19-62.2-10.2-62.2-10.2s-14.4,3.6-27.3,13.6c-5.5-19.5-25.8-14-25.8-14
		c-12.3,2.3-25.8,1.6-32.7,0.9c-1.5-0.3-3.2-0.5-4.8-0.5c-11.5,0-20.9,8.8-20.9,19.6c0,10.8,9.4,19.6,20.9,19.6
		c11.7,1.1,20.7-1.7,20.7-1.7c3.5-0.6,4.5,6,4.8,11.7h-0.1c0,0,0,110,0,125s-6,10-6,10l-17-1v0.5c-0.1,0-0.2,0-0.3,0
		c-12.8,0-23.3,9-23.3,20s10.4,20,23.3,20c3.2,0,6.2-0.5,8.9-1.5c28.6-2.9,55.6-1.2,69.2,0c2.7,1,5.7,1.5,8.9,1.5
		c12.8,0,22.3-7,22.3-18s-9.4-22-22.3-22c-0.3,0-0.5,0-0.8,0v-0.5l-17.1,1c0,0-5.7,5-5.7-10l0.3-87.9c0,0-0.9-24.8,12.3-37.8
		c3.4-4.2,8-8,13.4-10.5c0,0,1.1-0.6,3.3-1.4c-1.1,0.4-2.2,0.9-3.3,1.4l14.3-3.5c0.5,0,1.1,0,1.6,0c18.5,0,29.8,8.8,31.8,21.1
		c-14.6,0.6-26.3,11.5-26.3,25c0,0.2,0,0.4,0,0.5c0,1.2,0.1,2.3,0.3,3.5c0,0.1,0,0.1,0,0.2c1.5,8,7.2,14.8,14.9,18.2
		c3.9,2.3,8.5,3.6,13.7,3.6c20.8,0,37.8-20.5,37.8-45.9C1317.3,230,1288.5,209.7,1288.5,209.7z M1230.8,236.1c0,0,0.1,0,0.1,0
		C1230.9,236.1,1230.8,236.1,1230.8,236.1z"/>
	<path class="st3" d="M705.2,335.3c0-0.1,0-0.1,0-0.1l0,0c-0.2-5.3-0.9-9.3-1.5-12c-0.2-1-0.5-2-0.8-3c-0.2-0.6-0.3-0.9-0.3-0.9l0,0
		c-3-7.4-10.2-12.8-18.5-12.8c-10.7,0-19.4,8.6-19.7,19.3l0,0c0,0,0,0.1,0,0.3c0,0.1,0,0.2,0,0.3c0,0.8,0.1,1.6,0.2,2.4
		c0.8,10.9-0.8,30.5-0.8,30.5c-2.9,32-22.1,27.5-22.1,27.5c-24.8,0.4-23.8-33.3-23.8-33.3l-0.5-32.1v-75.7v-5.7c0-1.2,1-2.2,2.2-2.2
		h21.2h16.6c9.5,0,17.2-7.8,17.2-17.2v-1.8c0-9.5-7.8-17.2-17.2-17.2h-31.4h-6.4c-2.4,0-2.2-2.2-2.2-2.2v-6v-36.8
		c0-11.3-9.2-20.5-20.5-20.5s-20.5,9.2-20.5,20.5c0,12.3,0,24.5,0,36.8c0,2,0,4,0,6c0,2.7-2.2,2.2-2.2,2.2c-0.6,0-1.2,0-1.8,0
		c-8.6,0-17.2,0-25.8,0c-9.5,0-17.2,7.8-17.2,17.2v1.8c0,9.5,7.8,17.2,17.2,17.2h5.9c0.2,0,0.3-0.1,0.5-0.1h4.1h15.3h1.6
		c0.2,0,0.4,0,0.5,0.1c0.3,0.1,0.6,0.2,0.9,0.5c0,0,0.1,0,0.1,0.1c0.1,0.1,0.1,0.1,0.2,0.2c0,0,0.1,0.1,0.1,0.1
		c0,0.1,0.1,0.1,0.1,0.2c0,0.1,0.1,0.1,0.1,0.2c0,0,0,0,0,0c0,0.1,0.1,0.2,0.1,0.3c0,0.1,0,0.1,0.1,0.2c0,0.1,0.1,0.3,0.1,0.5v4.7v2
		V309c-1.2,28.7,1.3,52.8,1.9,60.8c0.3,6.5,3.4,53.4,64,55.2c0,0,46.8,2.8,59.1-50.2c0,0,1-3.7,1.9-9.7c0,0,0,0,0,0
		c1.5-7.2,2-16.7,2.1-23C705.3,339.6,705.3,337.3,705.2,335.3z"/>
	<path class="st3" d="M872.2,335.3c0-0.1,0-0.1,0-0.1l0,0c-0.2-5.3-0.9-9.3-1.5-12c-0.2-1-0.5-2-0.8-3c-0.2-0.6-0.3-0.9-0.3-0.9l0,0
		c-3-7.4-10.2-12.8-18.5-12.8c-10.7,0-19.4,8.6-19.7,19.3l0,0c0,0,0,0.1,0,0.3c0,0.1,0,0.2,0,0.3c0,0.8,0.1,1.6,0.2,2.4
		c0.8,10.9-0.8,30.5-0.8,30.5c-2.9,32-22.1,27.5-22.1,27.5c-24.8,0.4-23.8-33.3-23.8-33.3l-0.5-32.1v-75.7v-5.7c0-1.2,1-2.2,2.2-2.2
		h21.2h16.6c9.5,0,17.2-7.8,17.2-17.2v-1.8c0-9.5-7.8-17.2-17.2-17.2h-31.4h-6.4c-2.4,0-2.2-2.2-2.2-2.2v-6v-36.8
		c0-11.3-9.2-20.5-20.5-20.5s-20.5,9.2-20.5,20.5c0,12.3,0,24.5,0,36.8c0,2,0,4,0,6c0,2.7-2.2,2.2-2.2,2.2c-0.6,0-1.2,0-1.8,0
		c-8.6,0-17.2,0-25.8,0c-9.5,0-17.2,7.8-17.2,17.2v1.8c0,9.5,7.8,17.2,17.2,17.2h5.9c0.2,0,0.3-0.1,0.5-0.1h4.1h15.3h1.6
		c0.2,0,0.4,0,0.5,0.1c0.3,0.1,0.6,0.2,0.9,0.5c0,0,0.1,0,0.1,0.1c0.1,0.1,0.1,0.1,0.2,0.2c0,0,0.1,0.1,0.1,0.1
		c0,0.1,0.1,0.1,0.1,0.2c0,0.1,0.1,0.1,0.1,0.2c0,0,0,0,0,0c0,0.1,0.1,0.2,0.1,0.3c0,0.1,0,0.1,0.1,0.2c0,0.1,0.1,0.3,0.1,0.5v4.7v2
		V309c-1.2,28.7,1.3,52.8,1.9,60.8c0.3,6.5,3.4,53.4,64,55.2c0,0,46.8,2.8,59.1-50.2c0,0,1-3.7,1.9-9.7c0,0,0,0,0,0
		c1.5-7.2,2-16.7,2.1-23C872.3,339.6,872.3,337.3,872.2,335.3z"/>
	<path class="st4" d="M519,262.6L519,262.6c-8.5-37.9-46.8-66.6-92.8-66.6c-40.6,0-75.2,22.4-88.6,53.7l0,0
		c-21.1,39.7-12,88.9-12,88.9l0,0c4.7,34.1,24.4,55.6,38.2,66.8c3.7,3.5,8.3,6.6,13.6,9.2c0.4,0.2,0.6,0.3,0.6,0.3l0,0
		c12.6,6.3,28.9,10,46.7,10c12.9,0,25-2,35.5-5.5c0,0,0,0,0,0s0.1,0,0.4-0.1c10.1-3.4,18.7-8.2,24.9-13.9
		c14.5-10.8,30.5-28.6,34.7-55.7c0.3-1.1,0.4-2.2,0.5-3.4c0-0.1,0-0.2,0-0.4l0,0c0-0.2,0-0.3,0-0.5c0-10.8-9.2-19.5-20.5-19.5
		c-10.3,0-18.8,7.2-20.3,16.6c-6.8,45.6-53.7,45.4-53.7,45.4c-14.4,0-27.3-4.8-36.7-12.5c-3-2.8-5.6-5.6-7.9-8.5
		c-3.5-4.4-6.3-8.9-8.5-13.3c-5.7-11.6-7.3-22.3-7.6-29.2l0,0l-0.3-2.6c-0.1-0.2,0-0.8,0-1.1c0-0.1,0-0.2,0-0.3
		c0-0.1,0.1-0.2,0.2-0.3c0.6-0.4,2-0.2,2.4-0.3l134.3,0.1v0c5.8-0.2,11-2.3,14.8-5.6l0,0c1.7-1.1,3-2.7,4-4.7
		c1.7-2.7,2.7-5.9,2.7-9.2c0-0.2,0-0.5,0-0.7C525.3,284,519,262.6,519,262.6z M478.9,283.1l-107,0.1c-0.3-0.1-1.8,0.1-2.4-0.2
		c-0.1-0.1-0.2-0.1-0.2-0.2c0-0.1,0-0.2,0-0.2c0-0.2-0.1-0.7,0-0.8l0.3-1.9l0,0c0.3-5,3.8-12.8,9.6-21.2c2.2-3.2,5-6.5,8.5-9.7
		c2.3-2.1,4.9-4.1,7.9-6.2c9.3-5.6,20.3-9.1,34.7-9.1c0,0,21.1-0.3,34.1,13.8c12.8,14,15.3,30.5,15.8,33.1
		C480.7,283.2,478.9,283.1,478.9,283.1z"/>
	<path class="st4" d="M452.9,121.5c-0.3,0.1-0.6,0.1-1,0.2c-0.2,0.1-0.4,0.1-0.6,0.1c-1.2,0.3-2.3,0.8-3.4,1.3l0,0l-1,0.6
		c-0.2,0.1-0.4,0.3-0.7,0.4l-62,37l0,0.1c-0.1,0.1-0.3,0.1-0.4,0.2c-3.1,1.6-5.3,4.2-6.4,7.2c-0.6,1.5-0.9,3.1-1,4.7
		c-0.1,7.5,5.8,13.6,13.3,13.7c2.8,0,5.4-0.8,7.6-2.2l64.8-28.7c0.8-0.3,1.5-0.6,2.3-0.9c8.9-4.5,12.4-15.4,7.9-24.2
		C468.5,123.8,460.5,120.1,452.9,121.5z"/>
	<path class="st5" d="M281.5,382.5c-0.3,0-0.5,0-0.8,0V382l-16.1,1c0,0-5.7,5-5.7-10s0-186,0-186l-0.3,0v-21c0-23-2-26-2-26
		c-7-17-28-9-28-9c-15.6,0-28.4-1.1-34-1.7c-0.9-0.2-1.7-0.2-2.6-0.3c-0.2,0-0.4,0-0.4,0l0,0c-0.2,0-0.3,0-0.5,0
		c-10.8,0-19.5,8.7-19.5,19.5c0,10.8,8.7,19.5,19.5,19.5c0.2,0,0.3,0,0.5,0l0,0l0.6-0.1c0.6,0,1.1-0.1,1.7-0.2l18-1.7l2.9,1
		c4.3,4.3,2.9,19.9,2.9,19.9s0,171,0,186s-6,10-6,10l-17-1v0.5c-0.1,0-0.2,0-0.3,0c-12.8,0-23.3,9-23.3,20c0,11,10.4,20,23.3,20
		c3.2,0,6.2-0.5,8.9-1.5c28.6-2.9,55.6-1.2,69.2,0c2.7,1,5.7,1.5,8.9,1.5c12.8,0,22.3-7,22.3-18
		C303.8,393.5,294.3,382.5,281.5,382.5z"/>
</g>
</svg>
