<?xml version="1.0" encoding="utf-8"?>
<!-- Generator: Adobe Illustrator 24.0.2, SVG Export Plug-In . SVG Version: 6.00 Build 0)  -->
<svg version="1.1" id="Capa_1" xmlns="http://www.w3.org/2000/svg" xmlns:xlink="http://www.w3.org/1999/xlink" x="0px" y="0px"
	 viewBox="0 0 1800 524.8" style="enable-background:new 0 0 1800 524.8;" xml:space="preserve">
<style type="text/css">
	.st0{fill:#004B8F;}
	.st1{fill:#79787C;}
	.st2{fill:url(#SVGID_1_);}
	.st3{fill:url(#SVGID_2_);}
	.st4{fill:#FFFFFF;}
</style>
<g>
	<g>
		<g>
			<path class="st0" d="M541.4,169.4c1.1,0,1.7,0.3,1.7,0.9c0,0.7-0.5,1.1-1.5,1.3c-1.9,0.3-3.3,0.5-4.2,0.7
				c-0.9,0.2-1.8,0.6-2.8,1.4c-1,0.7-1.7,1.6-2,2.6c-0.3,1-0.6,2.6-1,4.8c-0.4,2.2-0.6,4.7-0.6,7.4c0,2.7-0.1,6.4-0.1,11l0.1,25.9
				c0,14.8,0.5,24.4,1.6,28.8c0.4,1.1,1.4,1.8,3.1,2.1c1.7,0.3,5.4,0.4,11.2,0.4c8.3,0,10.9-2.5,14-3.6c3.1-1.1,5.2-3.1,6.5-6.1
				c0.4-1,0.7-1.5,1.2-1.5c0.6,0,0.9,0.3,0.9,0.8c0,0.5-0.1,1.1-0.4,1.8l-2.1,5.1c-0.5,1.1-1.1,3.2-1.8,6.2
				c-0.3,0.9-0.6,3.3-1.1,3.3l-2.2-0.1c-1.1,0-3.3-0.1-12.7-0.3c-9.4-0.2-16.1-0.3-20.1-0.3c-1.6,0-4.2,0-8,0.1
				c-3.7,0.1-7.2,0.2-10.3,0.3c-3.1,0.1-4.7,0.2-4.8,0.2c-1,0-1.5-0.3-1.5-0.9c0-0.7,0.5-1.1,1.6-1.3c4.3-0.5,6.9-2.1,7.7-4.7
				c0.8-2.6,1.2-10.7,1.2-24.4v-37.9c0-7-0.2-11.9-0.7-14.7c-0.4-2.7-1.1-4.5-2-5.2c-0.9-0.7-2.7-1.3-5.4-1.8
				c-1-0.2-1.5-0.6-1.5-1.3c0-0.6,0.6-0.9,1.7-0.9h0.9c0.5,0,1.3,0,2.2,0c1,0,2.1,0,3.3,0.1c1.2,0,2.7,0.1,4.4,0.1c1.7,0,3.3,0,5,0
				c4.4,0,8.5,0,12.2-0.1C539,169.5,541.1,169.4,541.4,169.4z"/>
			<path class="st0" d="M572.6,185.2c0.3,0,1.9,0.1,4.9,0.3c3,0.2,5.2,0.3,6.5,0.3c1.9,0,4.9-0.1,9.2-0.3c4.2-0.2,6.5-0.3,6.8-0.3
				c0.9,0,1.4,0.3,1.4,0.8c0,0.6-0.4,0.9-1.2,1c-1.6,0.3-2.7,0.6-3.4,0.9c-0.7,0.3-1.4,0.7-2,1.3c-0.7,0.6-1.1,1.6-1.3,3.2
				c-0.2,1.5-0.3,3.2-0.4,5.1c-0.1,1.9-0.2,4.7-0.2,8.4l0.1,32.5c0,9.2,0.4,14.9,1.2,17.3c0.8,2.4,3,4,6.6,4.7
				c1.1,0.2,1.6,0.6,1.6,1.1c0,0.5-0.4,0.8-1.1,0.8c-2.6,0-5.8,0-9.5-0.1c-3.7-0.1-6.6-0.1-8.8-0.1c-0.4,0-2.2,0.1-5.3,0.2
				c-3.1,0.1-5,0.2-5.6,0.2c-0.8,0-1.2-0.2-1.2-0.7c0-0.4,0.4-0.7,1.2-0.9c2.4-0.6,4-1.4,4.9-2.5c0.9-1.1,1.5-3.4,2-7
				c0.4-3.6,0.7-9.7,0.7-18.3v-26.4c0-8.6-0.4-13.9-1.1-15.9c-0.7-2-2.8-3.3-6.2-3.8c-0.8-0.1-1.2-0.5-1.2-1
				C571.2,185.5,571.7,185.2,572.6,185.2z"/>
			<path class="st0" d="M651.6,184.6c3.5,0,8,0.5,13.7,1.5c6.1,1.1,9.9,1.6,11.2,1.6c0.8,0,1.5-0.2,2.1-0.5c0.6-0.3,1-0.5,1-0.5
				c0.5,0,0.8,0.2,0.8,0.5c0,0.1-0.1,0.7-0.2,1.7c-0.2,1.1-0.2,1.9-0.2,2.3c-0.2,3.6-0.2,7.1-0.2,10.5c0,0.7-0.2,1.1-0.7,1.1
				c-0.5,0-0.8-0.4-1-1.2c-0.5-2.6-2.6-5-6.1-7.1c-3.5-2.1-7.3-3.7-11.2-4.7c-3.9-1-7.3-1.5-10.1-1.5c-9.3,0-16.3,2.8-21,8.4
				c-4.7,5.6-7,13.3-7,23c0,11.8,3.2,21.3,9.6,28.4c6.4,7.1,13.9,10.7,22.7,10.7c6.9,0,12.4-1.2,16.5-3.5c4.1-2.3,6.6-5.4,7.5-9.2
				c0.2-0.7,0.6-1.1,1-1.1c0.5,0,0.8,0.2,0.8,0.7c0,0.1-0.1,0.9-0.2,2.1c-0.2,1.3-0.4,2.7-0.7,4.4c-0.3,1.7-0.6,2.9-0.8,3.7
				c-0.6,1.8-1,2.9-1.2,3.3c-0.2,0.4-0.6,0.6-1.2,0.8c-2.8,0.7-5.6,1.3-8.4,1.7c-4.9,0.8-10.1,1.2-15.4,1.2c-6,0-11.6-0.7-16.7-2.1
				c-5.1-1.4-9.9-3.6-14.2-6.5c-4.3-3-7.8-7.1-10.2-12.5c-2.5-5.3-3.7-11.6-3.7-18.9c0-11.8,3.9-21.2,11.7-28.1
				C627.3,188,638,184.6,651.6,184.6z"/>
			<path class="st0" d="M736.5,184.7c0.4,0,0.6,0.1,0.6,0.4c0,0.1,0,0.7-0.1,2c-0.1,1.3-0.1,2.1-0.1,2.5l-0.1,5.6
				c0,0.7-0.2,1.1-0.7,1.1c-0.6,0-0.9-0.3-0.9-1c-0.6-3.7-5.3-5.6-14.2-5.6c-3.2,0-6.4,0.1-9.5,0.3c-0.2,1.7-0.2,6.9-0.2,15.8v14.4
				H722c4.3,0,7.1-0.3,8.6-0.8c1.5-0.5,2.6-1.5,3.2-2.9c0.1-0.1,0.2-0.7,0.5-1.6c0.2-0.6,0.4-0.9,0.7-0.9c0.6,0,0.8,0.2,0.8,0.7
				l-0.4,3.5c-0.2,2.4-0.4,4.3-0.4,5.8c0,1,0,2.5,0.1,4.5c0,2,0.1,3.1,0.1,3.4c0,0.5-0.2,0.8-0.7,0.8c-0.6,0-0.8-0.3-0.8-0.8
				c0-3.1-0.7-5-2.1-5.8c-1.4-0.7-4.4-1.1-8.9-1.2l-11.5-0.2l0.1,14.1c0,5.6,0.3,10.2,0.9,13.8c0.3,1.8,1.4,3,3.1,3.7
				c1.8,0.6,4.4,0.9,7.7,0.9c4.6,0,7.9-0.3,9.9-1c2-0.7,3.5-1.9,4.6-3.7c0.3-0.6,0.6-0.9,0.9-0.9c0.6,0,0.9,0.2,0.9,0.5
				c0,0.3-0.1,0.7-0.4,1.2l-1.4,3.5c-0.2,0.9-0.5,1.7-0.7,2.4c-0.2,0.7-0.4,1.3-0.5,1.6c-0.1,0.4-0.2,0.6-0.2,0.7
				c-0.2,0.6-0.5,0.9-0.8,0.9l-4.6-0.2c-5-0.2-12.9-0.3-23.7-0.3c-1.7,0-4.1,0-7,0.1c-3,0-5.6,0.1-7.9,0.2c-2.3,0.1-3.5,0.1-3.5,0.1
				c-0.8,0-1.2-0.3-1.2-0.9c0-0.4,0.5-0.7,1.4-0.9c3.1-0.7,5-1.5,5.7-2.5c1.3-1.6,2.1-6.3,2.2-14.1c0-2.3,0-5.8,0-10.8v-27.6
				c0-8.6-0.3-13.7-0.8-15.3c-0.5-1.5-2.3-2.5-5.5-2.9c-0.9-0.1-1.3-0.4-1.3-0.9c0-0.5,0.5-0.8,1.5-0.8h1.3c0.8,0,1.8,0,3.1,0
				c1.3,0,2.6,0,4.1,0.1c1.5,0,3,0.1,4.6,0.1c1.6,0,3,0,4.1,0c10.7,0,19.2-0.2,25.3-0.7c0.8-0.1,1.4-0.1,1.9-0.2
				c0.5-0.1,0.8-0.1,0.9-0.2C736.3,184.7,736.5,184.7,736.5,184.7z"/>
			<path class="st0" d="M789.6,184.4c13.7,0,24.7,3.5,33.1,10.5c8.4,7,12.6,16.4,12.6,28.2c0,12.1-3.8,21.8-11.4,29
				c-7.6,7.2-18.5,10.8-32.8,10.8c-5.9,0-11.5-0.7-16.7-2.2c-5.2-1.5-10-3.7-14.4-6.6c-4.4-3-7.9-7.1-10.4-12.4
				c-2.6-5.3-3.8-11.5-3.8-18.5c0-11.9,3.9-21.3,11.6-28.3C765,187.8,775.8,184.4,789.6,184.4z M789,188c-8.9,0-15.8,2.9-20.5,8.7
				c-4.7,5.8-7.1,13.6-7.1,23.3c0,12.9,2.9,22.6,8.8,29.3c5.9,6.6,13.6,10,23.3,10c7.4,0,13.5-3,18.3-9c4.8-6,7.2-13.9,7.2-23.8
				c0-12.1-2.6-21.5-7.9-28.3C805.8,191.4,798.4,188,789,188z"/>
		</g>
		<g>
			<path class="st0" d="M907.2,168.5c9.2,0,16.5,1.9,21.9,5.7c5.4,3.8,8.1,9.7,8.1,17.6c0,9.1-2.8,16.2-8.5,21.5
				c-5.7,5.2-13,7.9-21.8,7.9c-2.4,0-4.4-0.3-5.9-0.8c-0.4-0.2-0.7-0.5-0.7-1.1c0-0.6,0.3-0.9,0.8-0.9c0.2,0,0.4,0,0.8,0.1
				c0.4,0.1,0.9,0.2,1.7,0.2c0.8,0,1.7,0.1,2.6,0.1c4.9,0,8.7-2.1,11.4-6.2c2.7-4.1,4-9.6,4-16.5c0-7.6-1.8-13.3-5.5-17.3
				c-3.7-4-8.7-5.9-14.9-5.9c-1.6,0-3.4,0.1-5.5,0.4c-0.2,1.6-0.3,8.5-0.3,20.7l0.1,39.9c0,4.4,0,7.7,0.1,9.8c0,2.1,0.2,4.3,0.5,6.7
				c0.3,2.3,0.6,3.9,0.9,4.8c0.4,0.8,1,1.7,1.8,2.6c0.9,0.9,1.8,1.5,2.8,1.8c1,0.3,2.4,0.6,4.3,0.9c1.4,0.3,2.1,0.7,2.1,1.2
				c0,0.7-0.8,1.1-2.5,1.1c-1.4,0-4.3-0.1-8.8-0.3c-4.4-0.2-8.4-0.3-11.8-0.3c-0.7,0-3.3,0.1-7.7,0.3c-4.4,0.2-6.8,0.3-7.1,0.3
				c-1.1,0-1.6-0.3-1.6-0.9c0-0.5,0.5-0.9,1.6-1.2c2.6-0.6,4.3-1.1,5.2-1.6c0.9-0.4,1.8-2,2.6-4.6c0.8-2.6,1.2-5.6,1.3-9.1
				c0.1-3.5,0.1-9.6,0.1-18.3v-33.5c0-6.5-0.2-11.2-0.7-13.9c-0.4-2.8-1.2-4.7-2.2-5.7c-1-1.1-2.8-1.9-5.5-2.6
				c-0.8-0.2-1.2-0.6-1.2-1.2c0-0.7,0.7-1.1,2.2-1.1c0.2,0,1.7,0.1,4.6,0.3c2.9,0.2,5.8,0.3,8.7,0.3c1.1,0,4.6-0.2,10.2-0.5
				C901.4,168.7,905.2,168.5,907.2,168.5z"/>
			<path class="st0" d="M960.4,184.8c0.7,0,1.2,0.5,1.7,1.6l23,55.2c2.8,7.3,5.1,12.1,6.9,14.6s4,3.9,6.8,4.5
				c1.2,0.2,1.7,0.6,1.7,1.1c0,0.5-0.3,0.8-0.8,0.8c-0.2,0-1.4-0.1-3.4-0.2c-2.1-0.1-4.5-0.2-7.2-0.3c-2.8-0.1-5.1-0.1-7.1-0.1
				c-1,0-3.1,0.1-6.3,0.2c-3.2,0.1-5.2,0.2-6.2,0.2c-0.7,0-1-0.3-1-0.9c0-0.6,0.3-0.9,0.9-0.9c3.9-0.4,5.9-1.7,5.9-3.9
				c0-1.8-0.7-4.5-2.1-8.2l-5.2-13.7h-23.9l-5.5,12.9c-1.4,3.3-2.1,6-2.1,8c0,1.6,0.4,2.8,1.2,3.5c0.8,0.8,2.1,1.2,4,1.4
				c0.9,0.1,1.4,0.3,1.4,0.8c0,0.6-0.4,0.9-1.1,0.9c-0.5,0-2.3-0.1-5.4-0.2c-3.1-0.1-5.2-0.2-6.2-0.2c-1.2,0-3.2,0.1-6,0.2
				c-2.8,0.1-4.4,0.2-4.9,0.2c-0.6,0-0.9-0.3-0.9-0.8c0-0.4,0.4-0.7,1.2-0.9c2.4-0.3,4.6-1.7,6.5-4.4c2-2.6,4.5-7.4,7.5-14.4
				l18-40.5c1-2.3,2-4.4,2.9-6.5c0.9-2.1,1.8-3.9,2.6-5.5c0.8-1.6,1.3-2.6,1.5-3.1C959.5,185.3,960,184.8,960.4,184.8z M956.4,206
				l-9.9,23.8l19.3-0.3L956.4,206z"/>
			<path class="st0" d="M1008.2,183c0.5,0,0.9,0.2,1.3,0.5c7.5,7.5,17.5,17.2,30,29c12.5,11.9,22.6,21.3,30.1,28.2l0.1-34.9
				c0-6.5-0.6-11-1.7-13.7c-1.1-2.7-3.3-4.3-6.5-4.8c-0.9-0.4-1.5-0.8-1.5-1.1c0-0.4,0.4-0.7,1.2-0.7c0.5,0,2.4,0.1,5.6,0.2
				c3.2,0.1,5.2,0.2,6,0.2c1.3,0,3.3-0.1,6-0.2c2.7-0.1,4.2-0.2,4.6-0.2c0.8,0,1.2,0.3,1.2,0.8c0,0.6-0.4,0.9-1.2,1
				c-3.4,0.5-5.5,1.7-6.2,3.7c-0.7,1.9-1.2,6.9-1.4,15c-0.3,22.9-0.4,36.6-0.4,41.1l0.1,17.1c0,0.8-0.3,1.2-0.8,1.2
				c-0.1,0-0.3-0.1-0.6-0.3c-0.3-0.2-0.5-0.5-0.9-0.9c-0.3-0.4-0.6-0.6-0.7-0.8c-28.8-28.6-48.7-47.8-59.6-57.7v36.3
				c0,7.9,0.3,12.9,0.9,14.9c0.6,2,2.5,3.3,5.7,3.8c1,0.2,1.5,0.5,1.5,0.9c0,0.7-0.4,1-1.2,1c-0.5,0-2.2-0.1-5.2-0.2
				s-4.8-0.2-5.6-0.2c-1.3,0-3.3,0.1-6,0.2c-2.7,0.1-4.2,0.2-4.6,0.2c-0.8,0-1.2-0.3-1.2-0.8c0-0.4,0.4-0.8,1.2-1
				c1.5-0.4,2.5-0.7,3.3-1.1c0.7-0.4,1.4-0.9,2.1-1.5c0.7-0.7,1.1-1.7,1.4-3.2c0.3-1.5,0.5-3.2,0.6-5.1c0.1-1.9,0.3-4.6,0.3-8.1
				c0.7-23.8,1.1-37.2,1.1-40.4V184C1007.3,183.3,1007.6,183,1008.2,183z"/>
			<path class="st0" d="M1123,184.8c0.7,0,1.2,0.5,1.7,1.6l23,55.2c2.8,7.3,5.1,12.1,6.9,14.6s4,3.9,6.8,4.5
				c1.2,0.2,1.7,0.6,1.7,1.1c0,0.5-0.3,0.8-0.8,0.8c-0.2,0-1.4-0.1-3.4-0.2c-2.1-0.1-4.5-0.2-7.2-0.3c-2.8-0.1-5.1-0.1-7.1-0.1
				c-1,0-3.1,0.1-6.3,0.2c-3.2,0.1-5.2,0.2-6.2,0.2c-0.7,0-1-0.3-1-0.9c0-0.6,0.3-0.9,0.9-0.9c3.9-0.4,5.9-1.7,5.9-3.9
				c0-1.8-0.7-4.5-2.1-8.2l-5.2-13.7h-23.9l-5.5,12.9c-1.4,3.3-2.1,6-2.1,8c0,1.6,0.4,2.8,1.2,3.5c0.8,0.8,2.1,1.2,4,1.4
				c0.9,0.1,1.4,0.3,1.4,0.8c0,0.6-0.4,0.9-1.1,0.9c-0.5,0-2.3-0.1-5.4-0.2c-3.1-0.1-5.2-0.2-6.2-0.2c-1.2,0-3.2,0.1-6,0.2
				c-2.8,0.1-4.4,0.2-4.9,0.2c-0.6,0-0.9-0.3-0.9-0.8c0-0.4,0.4-0.7,1.2-0.9c2.4-0.3,4.6-1.7,6.5-4.4c2-2.6,4.5-7.4,7.5-14.4
				l18-40.5c1-2.3,2-4.4,2.9-6.5c0.9-2.1,1.8-3.9,2.6-5.5c0.8-1.6,1.3-2.6,1.5-3.1C1122.1,185.3,1122.5,184.8,1123,184.8z
				 M1118.9,206l-9.9,23.8l19.3-0.3L1118.9,206z"/>
			<path class="st0" d="M1178.7,184.4c0.4,0,0.7,0.2,0.9,0.5c5.7,11.2,16,30.4,31.1,57.8l29.4-57.3c0.3-0.7,0.7-1,1.1-1
				c0.6,0,0.9,0.2,1,0.7c0.8,6.7,1.5,11.8,2,15.3l6,41.7c0.7,5.1,1.5,8.9,2.3,11.4c0.8,2.5,1.8,4.3,2.8,5.1c1,0.9,2.5,1.5,4.5,2
				c1.2,0.2,1.7,0.6,1.7,1.1c0,0.6-0.4,0.9-1.3,0.9c-1.1,0-3.3-0.1-6.6-0.3c-3.3-0.2-5.7-0.3-7.2-0.3c-1.7,0-4.3,0.1-7.8,0.2
				c-3.6,0.1-6,0.2-7.2,0.2c-0.7,0-1-0.4-1-1.1c0-0.4,0.3-0.7,0.9-0.9c2.8-0.5,4.7-1.1,5.7-1.7c0.9-0.6,1.4-1.6,1.4-3
				c0-2.4-0.3-5.7-0.9-9.9l-4.5-33.9l-25.3,50.2c-0.4,0.9-0.8,1.3-1,1.3s-0.5-0.5-1-1.5c-4.9-10.2-13.3-26.6-25.2-48.9l-3.5,27.6
				c-0.5,3.9-0.8,7.6-0.8,11.1c0,2.9,0.8,5.1,2.4,6.4c1.6,1.4,3.5,2.2,5.8,2.4c0.9,0.1,1.4,0.4,1.4,1.1c0,0.6-0.4,0.9-1.1,0.9
				c-0.4,0-2.4-0.1-5.8-0.3c-3.4-0.2-5.7-0.3-7-0.3c-1.4,0-3.5,0.1-6.2,0.2c-2.8,0.1-4.3,0.2-4.7,0.2c-0.8,0-1.2-0.3-1.2-1
				c0-0.6,0.4-0.9,1.2-1.1c1.6-0.2,2.8-0.5,3.6-0.8c0.8-0.3,1.6-0.7,2.3-1.3c0.7-0.5,1.3-1.5,1.6-3.1c0.4-1.5,0.7-3.1,1-4.8
				c0.3-1.7,0.7-4.3,1.1-8l5.1-39.9c1.1-9.4,1.7-15.2,1.9-17.4C1177.7,184.6,1178,184.4,1178.7,184.4z"/>
			<path class="st0" d="M1312.7,184.7c0.4,0,0.5,0.1,0.5,0.4c0,0.1,0,0.7-0.1,2c-0.1,1.3-0.1,2.1-0.1,2.5l-0.1,5.6
				c0,0.7-0.2,1.1-0.7,1.1c-0.5,0-0.8-0.3-0.9-1c-0.5-3.7-4.9-5.6-13.1-5.6c-3,0-5.9,0.1-8.7,0.3c-0.1,1.7-0.2,6.9-0.2,15.8v14.4
				h9.9c3.9,0,6.6-0.3,8-0.8c1.4-0.5,2.4-1.5,2.9-2.9c0.1-0.1,0.2-0.7,0.4-1.6c0.1-0.6,0.4-0.9,0.7-0.9c0.5,0,0.8,0.2,0.8,0.7
				l-0.3,3.5c-0.2,2.4-0.3,4.3-0.3,5.8c0,1,0,2.5,0.1,4.5c0,2,0.1,3.1,0.1,3.4c0,0.5-0.2,0.8-0.7,0.8c-0.5,0-0.8-0.3-0.8-0.8
				c0-3.1-0.7-5-2-5.8c-1.3-0.7-4-1.1-8.2-1.2l-10.6-0.2l0.1,14.1c0,5.6,0.3,10.2,0.9,13.8c0.3,1.8,1.3,3,2.9,3.7
				c1.6,0.6,4,0.9,7.1,0.9c4.2,0,7.2-0.3,9.1-1c1.9-0.7,3.3-1.9,4.2-3.7c0.3-0.6,0.6-0.9,0.9-0.9c0.6,0,0.9,0.2,0.9,0.5
				c0,0.3-0.1,0.7-0.3,1.2l-1.3,3.5c-0.2,0.9-0.4,1.7-0.7,2.4c-0.2,0.7-0.4,1.3-0.5,1.6c-0.1,0.4-0.2,0.6-0.2,0.7
				c-0.2,0.6-0.5,0.9-0.8,0.9l-4.3-0.2c-4.6-0.2-11.8-0.3-21.8-0.3c-1.6,0-3.8,0-6.5,0.1c-2.7,0-5.1,0.1-7.2,0.2
				c-2.1,0.1-3.2,0.1-3.3,0.1c-0.7,0-1.1-0.3-1.1-0.9c0-0.4,0.4-0.7,1.3-0.9c2.8-0.7,4.6-1.5,5.2-2.5c1.2-1.6,1.9-6.3,2.1-14.1
				c0-2.3,0-5.8,0-10.8v-27.6c0-8.6-0.2-13.7-0.7-15.3c-0.5-1.5-2.2-2.5-5.1-2.9c-0.8-0.1-1.2-0.4-1.2-0.9c0-0.5,0.5-0.8,1.4-0.8
				h1.2c0.7,0,1.7,0,2.8,0c1.2,0,2.4,0,3.8,0.1c1.3,0,2.7,0.1,4.2,0.1c1.5,0,2.7,0,3.8,0c9.9,0,17.7-0.2,23.3-0.7
				c0.7-0.1,1.3-0.1,1.7-0.2c0.4-0.1,0.7-0.1,0.9-0.2C1312.5,184.7,1312.6,184.7,1312.7,184.7z"/>
			<path class="st0" d="M1357.2,184.8c7.4,0,13.4,1.7,17.9,5c4.5,3.3,6.8,7.7,6.8,13.1c0,8.6-3.9,15.8-11.6,21.4
				c1.7,1.2,6.1,6.5,13.2,15.9c6.3,8.4,10.9,13.9,13.6,16.6c4,3.9,7.4,5.8,10.1,5.8c0.2,0,0.5,0,1-0.1c0.4,0,0.7-0.1,0.8-0.1
				c0.6,0,0.9,0.3,0.9,0.8c0,1.1-2.9,1.6-8.8,1.6c-4.9,0-9.2-0.8-12.7-2.4c-3.5-1.6-6.9-4.4-10-8.5c-1.9-2.4-5.2-7.1-10-14.1
				c-4.8-7-7.8-11.2-9.2-12.5c-1.6,0.3-3.1,0.4-4.6,0.4c-2.2,0-3.9,0-5.1-0.1l0.1,10.8c0,6.6,0.2,11.2,0.6,13.9
				c0.4,2.7,1.2,4.6,2.5,5.7c1.2,1.2,3.4,1.9,6.4,2.3c0.7,0.1,1.1,0.4,1.1,1.1c0,0.5-0.5,0.8-1.6,0.8c-0.9,0-3.2-0.1-7-0.2
				c-3.8-0.1-7.2-0.2-10.1-0.2c-1.1,0-3.3,0.1-6.7,0.2c-3.4,0.1-5.1,0.2-5.2,0.2c-0.8,0-1.2-0.3-1.2-0.8c0-0.4,0.4-0.6,1.2-0.8
				c3.3-0.5,5.3-1.7,5.9-3.5c0.6-1.9,0.9-7.8,0.9-17.7c0-0.4,0-0.8,0-1v-38.3c0-5.2-0.5-8.7-1.6-10.3s-3.3-2.6-6.6-3
				c-0.7-0.1-1.1-0.4-1.1-1c0-0.5,0.6-0.8,1.9-0.8c0.1,0,0.9,0,2.4,0.1c1.5,0.1,3.3,0.1,5.3,0.2c2,0.1,3.6,0.1,4.8,0.1
				c0.9,0,3.1-0.1,6.8-0.4C1351.9,184.9,1354.9,184.8,1357.2,184.8z M1354,188.8c-1.5,0-2.9,0.2-4.3,0.7c-0.1,2.5-0.2,8-0.2,16.4v17
				c2.3,0.7,5.2,1,8.6,1c3.4,0,5.9-0.8,7.5-2.4c2.7-2.7,4-7,4-13c0-6.1-1.4-10.9-4.3-14.4C1362.5,190.6,1358.7,188.8,1354,188.8z"/>
			<path class="st0" d="M1404.7,185.2c0.3,0,1.9,0.1,4.9,0.3c3,0.2,5.2,0.3,6.5,0.3c1.9,0,4.9-0.1,9.2-0.3c4.2-0.2,6.5-0.3,6.8-0.3
				c0.9,0,1.4,0.3,1.4,0.8c0,0.6-0.4,0.9-1.2,1c-1.6,0.3-2.7,0.6-3.4,0.9c-0.7,0.3-1.4,0.7-2,1.3c-0.7,0.6-1.1,1.6-1.3,3.2
				c-0.2,1.5-0.3,3.2-0.4,5.1c-0.1,1.9-0.2,4.7-0.2,8.4l0.1,32.5c0,9.2,0.4,14.9,1.2,17.3c0.8,2.4,3,4,6.6,4.7
				c1.1,0.2,1.6,0.6,1.6,1.1c0,0.5-0.4,0.8-1.1,0.8c-2.6,0-5.8,0-9.5-0.1c-3.7-0.1-6.6-0.1-8.8-0.1c-0.4,0-2.2,0.1-5.3,0.2
				c-3.1,0.1-5,0.2-5.6,0.2c-0.8,0-1.2-0.2-1.2-0.7c0-0.4,0.4-0.7,1.2-0.9c2.4-0.6,4-1.4,4.9-2.5s1.5-3.4,2-7
				c0.4-3.6,0.7-9.7,0.7-18.3v-26.4c0-8.6-0.4-13.9-1.1-15.9c-0.7-2-2.8-3.3-6.2-3.8c-0.8-0.1-1.2-0.5-1.2-1
				C1403.2,185.5,1403.7,185.2,1404.7,185.2z"/>
			<path class="st0" d="M1483.7,184.6c3.5,0,8.1,0.5,13.8,1.5c6.2,1.1,10,1.6,11.3,1.6c0.8,0,1.5-0.2,2.1-0.5c0.6-0.3,1-0.5,1-0.5
				c0.5,0,0.8,0.2,0.8,0.5c0,0.1-0.1,0.7-0.2,1.7c-0.2,1.1-0.2,1.9-0.2,2.3c-0.2,3.6-0.2,7.1-0.2,10.5c0,0.7-0.2,1.1-0.7,1.1
				c-0.5,0-0.8-0.4-1-1.2c-0.5-2.6-2.6-5-6.2-7.1c-3.6-2.1-7.3-3.7-11.3-4.7c-4-1-7.4-1.5-10.2-1.5c-9.4,0-16.4,2.8-21.2,8.4
				c-4.7,5.6-7.1,13.3-7.1,23c0,11.8,3.2,21.3,9.7,28.4c6.4,7.1,14.1,10.7,22.9,10.7c7,0,12.5-1.2,16.6-3.5c4.1-2.3,6.6-5.4,7.6-9.2
				c0.2-0.7,0.6-1.1,1-1.1c0.5,0,0.8,0.2,0.8,0.7c0,0.1-0.1,0.9-0.2,2.1c-0.2,1.3-0.4,2.7-0.7,4.4c-0.3,1.7-0.6,2.9-0.8,3.7
				c-0.6,1.8-1,2.9-1.2,3.3c-0.2,0.4-0.6,0.6-1.2,0.8c-2.8,0.7-5.6,1.3-8.5,1.7c-5,0.8-10.2,1.2-15.6,1.2c-6.1,0-11.7-0.7-16.9-2.1
				c-5.2-1.4-10-3.6-14.4-6.5c-4.4-3-7.8-7.1-10.4-12.5c-2.5-5.3-3.8-11.6-3.8-18.9c0-11.8,4-21.2,11.9-28.1
				C1459.2,188,1470,184.6,1483.7,184.6z"/>
			<path class="st0" d="M1548.9,184.8c0.7,0,1.2,0.5,1.7,1.6l23,55.2c2.8,7.3,5.1,12.1,6.9,14.6s4,3.9,6.8,4.5
				c1.2,0.2,1.7,0.6,1.7,1.1c0,0.5-0.3,0.8-0.8,0.8c-0.2,0-1.4-0.1-3.4-0.2c-2.1-0.1-4.5-0.2-7.2-0.3c-2.8-0.1-5.1-0.1-7.1-0.1
				c-1,0-3.1,0.1-6.3,0.2c-3.2,0.1-5.2,0.2-6.2,0.2c-0.7,0-1-0.3-1-0.9c0-0.6,0.3-0.9,0.9-0.9c3.9-0.4,5.9-1.7,5.9-3.9
				c0-1.8-0.7-4.5-2.1-8.2l-5.2-13.7h-23.9l-5.5,12.9c-1.4,3.3-2.1,6-2.1,8c0,1.6,0.4,2.8,1.2,3.5c0.8,0.8,2.1,1.2,4,1.4
				c0.9,0.1,1.4,0.3,1.4,0.8c0,0.6-0.4,0.9-1.1,0.9c-0.5,0-2.3-0.1-5.4-0.2c-3.1-0.1-5.2-0.2-6.2-0.2c-1.2,0-3.2,0.1-6,0.2
				c-2.8,0.1-4.4,0.2-4.9,0.2c-0.6,0-0.9-0.3-0.9-0.8c0-0.4,0.4-0.7,1.2-0.9c2.4-0.3,4.6-1.7,6.5-4.4c2-2.6,4.5-7.4,7.5-14.4
				l18-40.5c1-2.3,2-4.4,2.9-6.5c0.9-2.1,1.8-3.9,2.6-5.5c0.8-1.6,1.3-2.6,1.5-3.1C1548,185.3,1548.5,184.8,1548.9,184.8z
				 M1544.9,206l-9.9,23.8l19.3-0.3L1544.9,206z"/>
			<path class="st0" d="M1596.7,183c0.5,0,0.9,0.2,1.3,0.5c7.5,7.5,17.5,17.2,30,29c12.5,11.9,22.6,21.3,30.1,28.2l0.1-34.9
				c0-6.5-0.6-11-1.7-13.7c-1.1-2.7-3.3-4.3-6.5-4.8c-0.9-0.4-1.5-0.8-1.5-1.1c0-0.4,0.4-0.7,1.2-0.7c0.5,0,2.4,0.1,5.6,0.2
				c3.2,0.1,5.2,0.2,6,0.2c1.3,0,3.3-0.1,6-0.2c2.7-0.1,4.2-0.2,4.6-0.2c0.8,0,1.2,0.3,1.2,0.8c0,0.6-0.4,0.9-1.2,1
				c-3.4,0.5-5.5,1.7-6.2,3.7c-0.7,1.9-1.2,6.9-1.4,15c-0.3,22.9-0.4,36.6-0.4,41.1l0.1,17.1c0,0.8-0.3,1.2-0.8,1.2
				c-0.1,0-0.3-0.1-0.6-0.3c-0.3-0.2-0.5-0.5-0.9-0.9c-0.3-0.4-0.6-0.6-0.7-0.8c-28.8-28.6-48.7-47.8-59.6-57.7v36.3
				c0,7.9,0.3,12.9,0.9,14.9c0.6,2,2.5,3.3,5.7,3.8c1,0.2,1.5,0.5,1.5,0.9c0,0.7-0.4,1-1.2,1c-0.5,0-2.2-0.1-5.2-0.2
				s-4.8-0.2-5.6-0.2c-1.3,0-3.3,0.1-6,0.2c-2.7,0.1-4.2,0.2-4.6,0.2c-0.8,0-1.2-0.3-1.2-0.8c0-0.4,0.4-0.8,1.2-1
				c1.5-0.4,2.5-0.7,3.3-1.1c0.7-0.4,1.4-0.9,2.1-1.5c0.7-0.7,1.1-1.7,1.4-3.2c0.3-1.5,0.5-3.2,0.6-5.1c0.1-1.9,0.3-4.6,0.3-8.1
				c0.7-23.8,1.1-37.2,1.1-40.4V184C1595.7,183.3,1596.1,183,1596.7,183z"/>
			<path class="st0" d="M1721.2,184.4c13.5,0,24.3,3.5,32.6,10.5c8.3,7,12.4,16.4,12.4,28.2c0,12.1-3.7,21.8-11.2,29
				c-7.5,7.2-18.3,10.8-32.3,10.8c-5.9,0-11.3-0.7-16.5-2.2c-5.1-1.5-9.9-3.7-14.2-6.6c-4.3-3-7.8-7.1-10.3-12.4
				c-2.5-5.3-3.8-11.5-3.8-18.5c0-11.9,3.8-21.3,11.4-28.3C1697,187.8,1707.6,184.4,1721.2,184.4z M1720.6,188
				c-8.8,0-15.6,2.9-20.2,8.7c-4.7,5.8-7,13.6-7,23.3c0,12.9,2.9,22.6,8.7,29.3c5.8,6.6,13.4,10,23,10c7.3,0,13.3-3,18-9
				c4.7-6,7.1-13.9,7.1-23.8c0-12.1-2.6-21.5-7.8-28.3C1737.2,191.4,1729.9,188,1720.6,188z"/>
		</g>
		<g>
			<path class="st0" d="M614.8,296.4c0.2,0,1.1,0.1,2.9,0.2c1.7,0.1,3,0.2,3.8,0.2c1.1,0,2.9-0.1,5.4-0.2c2.5-0.1,3.8-0.2,4-0.2
				c0.6,0,0.8,0.2,0.8,0.4c0,0.3-0.2,0.5-0.7,0.6c-0.9,0.2-1.6,0.3-2,0.5c-0.4,0.2-0.8,0.4-1.2,0.8c-0.4,0.3-0.6,1-0.7,1.9
				c-0.1,0.9-0.2,1.9-0.3,3s-0.1,2.7-0.1,5l0.1,19.1c0,5.4,0.2,8.8,0.7,10.2c0.5,1.4,1.8,2.3,3.9,2.8c0.6,0.1,1,0.3,1,0.6
				c0,0.3-0.2,0.4-0.6,0.4c-1.5,0-3.4,0-5.6-0.1c-2.2,0-3.9-0.1-5.2-0.1c-0.3,0-1.3,0-3.1,0.1c-1.8,0.1-2.9,0.1-3.3,0.1
				c-0.5,0-0.7-0.1-0.7-0.4c0-0.2,0.2-0.4,0.7-0.5c1.4-0.3,2.4-0.8,2.9-1.5c0.5-0.6,0.9-2,1.2-4.1c0.3-2.1,0.4-5.7,0.4-10.8V309
				c0-5-0.2-8.1-0.6-9.3c-0.4-1.2-1.6-1.9-3.6-2.2c-0.5-0.1-0.7-0.3-0.7-0.6C613.9,296.5,614.2,296.4,614.8,296.4z"/>
			<path class="st0" d="M683.4,295c0.3,0,0.5,0.1,0.7,0.3c4,4.4,9.3,10.1,15.9,17.1c6.6,7,11.9,12.5,15.9,16.5l0.1-20.5
				c0-3.8-0.3-6.5-0.9-8.1c-0.6-1.6-1.7-2.5-3.4-2.8c-0.5-0.3-0.8-0.5-0.8-0.6c0-0.3,0.2-0.4,0.6-0.4c0.3,0,1.3,0,3,0.1
				c1.7,0.1,2.8,0.1,3.2,0.1c0.7,0,1.7,0,3.2-0.1c1.4-0.1,2.2-0.1,2.4-0.1c0.4,0,0.6,0.2,0.6,0.4c0,0.3-0.2,0.5-0.6,0.6
				c-1.8,0.3-2.9,1-3.3,2.1c-0.4,1.1-0.6,4.1-0.7,8.8c-0.2,13.4-0.2,21.5-0.2,24.1l0.1,10c0,0.5-0.1,0.7-0.4,0.7
				c-0.1,0-0.2-0.1-0.3-0.2c-0.1-0.1-0.3-0.3-0.5-0.5c-0.2-0.2-0.3-0.4-0.4-0.4c-15.2-16.8-25.7-28.1-31.5-33.9v21.3
				c0,4.7,0.2,7.6,0.5,8.7c0.3,1.2,1.3,1.9,3,2.2c0.5,0.1,0.8,0.3,0.8,0.5c0,0.4-0.2,0.6-0.6,0.6c-0.3,0-1.2,0-2.7-0.1
				c-1.6-0.1-2.5-0.1-3-0.1c-0.7,0-1.7,0-3.2,0.1c-1.4,0.1-2.2,0.1-2.4,0.1c-0.4,0-0.6-0.1-0.6-0.4c0-0.3,0.2-0.4,0.6-0.6
				c0.8-0.2,1.3-0.4,1.7-0.6c0.4-0.2,0.7-0.5,1.1-0.9c0.3-0.4,0.6-1,0.7-1.9c0.1-0.9,0.2-1.9,0.3-3c0.1-1.1,0.1-2.7,0.2-4.7
				c0.4-14,0.6-21.9,0.6-23.7v-10.2C682.8,295.2,683,295,683.4,295z"/>
			<path class="st0" d="M768.4,295.7c0.1,0,0.4,0,0.8,0.1c0.1,0,0.4,0,0.8,0.1c0.4,0.1,0.7,0.1,0.8,0.2c0.2,0,0.5,0.1,0.9,0.1
				c0.4,0,0.8,0.1,1.2,0.1c0.3,0,0.8,0.1,1.5,0.1c0.6,0,1.3,0.1,1.9,0.1c0.6,0,1.4,0,2.4,0.1c1,0,2,0,3.1,0.1c1.1,0,2.4,0,3.8,0
				c1.4,0,3,0,4.7,0c5.5,0,10.7-0.2,15.6-0.5l0.9-0.1c0.2,0,0.3,0.1,0.3,0.3c0,0,0,0.4-0.1,1.2c0,0.7-0.1,1.4-0.1,2
				c0,0.3,0,1.1-0.1,2.2c0,1.2-0.1,1.9-0.1,2.2c0,0.4-0.2,0.6-0.4,0.6c-0.3,0-0.4-0.2-0.4-0.6c-0.1-0.8-0.3-1.5-0.6-2
				c-0.3-0.5-0.7-0.9-0.9-1.2c-0.3-0.3-0.9-0.5-1.7-0.6c-0.9-0.1-1.5-0.2-1.9-0.3c-0.4,0-1.3-0.1-2.7-0.1c-3.1,0-5.5,0-7,0.1
				c-0.1,0.5-0.2,1.4-0.2,2.8l0.1,27.3c0,1.9,0,3.3,0,4.3c0,1,0.1,1.9,0.3,2.8c0.2,0.9,0.3,1.5,0.4,1.8c0.1,0.3,0.4,0.6,0.9,0.9
				c0.5,0.3,0.9,0.5,1.3,0.5c0.4,0.1,1,0.1,2,0.2c0.6,0.1,0.9,0.3,0.9,0.7c0,0.3-0.2,0.5-0.6,0.5h-0.2c-0.1,0-0.3,0-0.6,0
				c-0.3,0-0.6,0-1-0.1c-0.4,0-0.9,0-1.5-0.1c-0.6,0-1.3,0-2.1-0.1c-0.8,0-1.7,0-2.8,0c-1.1,0-2.3,0-3.5,0c-0.3,0-1.3,0-3.1,0.1
				c-1.8,0.1-2.9,0.1-3.3,0.1c-0.5,0-0.7-0.2-0.7-0.5c0-0.4,0.2-0.7,0.7-0.7c1.2-0.2,2.1-0.4,2.6-0.6c0.5-0.2,1-0.7,1.5-1.4
				c0.5-0.8,0.7-1.8,0.8-3.1c0.1-1.3,0.1-3.2,0.1-5.7v-26.8c0-1.7-0.1-2.7-0.2-3.1c-1.3,0-3.4-0.1-6.2-0.1c-1.5,0-2.6,0.1-3.4,0.2
				c-0.7,0.1-1.6,0.3-2.4,0.5c-0.9,0.3-1.5,0.7-2,1.2c-0.4,0.6-0.7,1.3-1,2.2c-0.1,0.4-0.3,0.6-0.6,0.6c-0.3,0-0.4-0.2-0.4-0.5
				c0-0.7,0.2-2.1,0.6-4.2c0.3-2.2,0.4-3.5,0.4-3.9C768.1,295.8,768.2,295.7,768.4,295.7z"/>
			<path class="st0" d="M884.8,296.1c0.3,0,0.4,0.1,0.4,0.3c0,0,0,0.4-0.1,1.2c-0.1,0.7-0.1,1.2-0.1,1.4l-0.1,3.3
				c0,0.4-0.2,0.6-0.5,0.6c-0.4,0-0.6-0.2-0.6-0.6c-0.4-2.2-3.6-3.3-9.6-3.3c-2.2,0-6.3,0.1-8.4,0.2c-0.1,1-0.2,4.1-0.2,9.3v8.4h9.3
				c2.9,0,4.8-0.1,5.8-0.4c1-0.3,1.7-0.9,2.2-1.7c0.1-0.1,0.2-0.4,0.3-1c0.1-0.3,0.3-0.5,0.5-0.5c0.4,0,0.6,0.1,0.6,0.4l-0.2,2
				c-0.2,1.4-0.2,2.5-0.2,3.4c0,0.6,0,1.5,0,2.7c0,1.2,0,1.8,0,2c0,0.3-0.2,0.4-0.5,0.4c-0.4,0-0.6-0.1-0.6-0.4c0-1.8-0.5-3-1.4-3.4
				c-1-0.4-3-0.7-6-0.7l-9.7-0.1l0.1,8.3c0,3.3,0.2,6,0.6,8.1c0.2,1.1,0.9,1.8,2.1,2.1c1.2,0.4,4.9,0.5,7.2,0.5
				c3.1,0,5.3-0.2,6.7-0.6c1.4-0.4,2.4-1.1,3.1-2.2c0.2-0.3,0.4-0.5,0.6-0.5c0.4,0,0.6,0.1,0.6,0.3c0,0.2-0.1,0.4-0.2,0.7l-1,2
				c-0.2,0.5-0.3,1-0.5,1.4c-0.2,0.4-0.3,0.7-0.4,1c-0.1,0.2-0.1,0.3-0.1,0.4c-0.2,0.3-0.3,0.5-0.6,0.5l-3.1-0.1
				c-3.3-0.1-8.7-0.2-15.9-0.2c-1.2,0-2.8,0-4.7,0c-2,0-3.8,0.1-5.3,0.1c-1.5,0-2.3,0.1-2.4,0.1c-0.5,0-0.8-0.2-0.8-0.5
				c0-0.2,0.3-0.4,1-0.5c2.1-0.4,3.3-0.9,3.8-1.5c0.9-0.9,1.4-3.7,1.5-8.3c0-1.3,0-3.4,0-6.3v-16.2c0-5.1-0.2-8.1-0.5-9
				c-0.3-0.9-1.6-1.5-3.7-1.7c-0.6-0.1-0.9-0.3-0.9-0.5c0-0.3,0.3-0.4,1-0.4h0.9c0.5,0,1.2,0,2.1,0c0.8,0,1.8,0,2.8,0c1,0,2,0,3.1,0
				c1.1,0,2,0,2.8,0c7.2,0,12.9-0.1,17.1-0.4c0.5,0,1-0.1,1.3-0.1c0.3,0,0.5-0.1,0.6-0.1C884.7,296.1,884.7,296.1,884.8,296.1z"/>
			<path class="st0" d="M950.4,296.1c4.4,0,7.9,1,10.5,2.9c2.7,2,4,4.5,4,7.7c0,5.1-2.3,9.3-6.8,12.5c1,0.7,3.6,3.8,7.7,9.3
				c3.7,4.9,6.4,8.1,8,9.7c2.3,2.3,4.3,3.4,6,3.4c0.1,0,0.3,0,0.6,0c0.3,0,0.4,0,0.4,0c0.3,0,0.5,0.1,0.5,0.4c0,0.6-1.7,1-5.2,1
				c-2.9,0-5.4-0.5-7.5-1.4c-2.1-0.9-4-2.6-5.9-5c-1.1-1.4-3.1-4.2-5.9-8.3c-2.8-4.1-4.6-6.5-5.4-7.4c-0.9,0.2-1.8,0.3-2.7,0.3
				c-1.3,0-2.3,0-3-0.1l0.1,6.3c0,3.9,0.1,6.6,0.4,8.2c0.2,1.6,0.7,2.7,1.4,3.4c0.7,0.7,2,1.1,3.8,1.3c0.4,0,0.6,0.3,0.6,0.6
				c0,0.3-0.3,0.4-1,0.4c-0.5,0-1.9,0-4.1-0.1c-2.2-0.1-4.2-0.1-6-0.1c-0.6,0-2,0-3.9,0.1c-2,0.1-3,0.1-3,0.1
				c-0.5,0-0.7-0.1-0.7-0.4c0-0.2,0.2-0.4,0.7-0.4c2-0.3,3.1-1,3.5-2.1c0.3-1.1,0.5-4.6,0.5-10.4c0-0.3,0-0.4,0-0.6v-22.5
				c0-3.1-0.3-5.1-1-6c-0.6-1-1.9-1.5-3.9-1.8c-0.4,0-0.6-0.2-0.6-0.6c0-0.3,0.4-0.4,1.1-0.4c0,0,0.5,0,1.4,0.1
				c0.9,0,1.9,0.1,3.1,0.1c1.2,0,2.1,0.1,2.8,0.1c0.5,0,1.8-0.1,4-0.2C947.2,296.2,949,296.1,950.4,296.1z M948.5,298.5
				c-0.9,0-1.7,0.1-2.5,0.4c-0.1,1.5-0.1,4.7-0.1,9.6v10c1.4,0.4,3,0.6,5.1,0.6c2,0,3.5-0.5,4.4-1.4c1.6-1.6,2.4-4.1,2.4-7.6
				c0-3.6-0.8-6.4-2.5-8.4C953.5,299.5,951.3,298.5,948.5,298.5z"/>
			<path class="st0" d="M1020.6,295c0.3,0,0.5,0.1,0.7,0.3c3.8,4.4,8.8,10.1,15.2,17.1c6.3,7,11.4,12.5,15.2,16.5l0.1-20.5
				c0-3.8-0.3-6.5-0.9-8.1c-0.6-1.6-1.7-2.5-3.3-2.8c-0.5-0.3-0.7-0.5-0.8-0.6c0-0.3,0.2-0.4,0.6-0.4c0.3,0,1.2,0,2.8,0.1
				c1.6,0.1,2.7,0.1,3.1,0.1c0.7,0,1.7,0,3-0.1c1.4-0.1,2.1-0.1,2.3-0.1c0.4,0,0.6,0.2,0.6,0.4c0,0.3-0.2,0.5-0.6,0.6
				c-1.7,0.3-2.8,1-3.1,2.1c-0.4,1.1-0.6,4.1-0.7,8.8c-0.1,13.4-0.2,21.5-0.2,24.1l0.1,10c0,0.5-0.1,0.7-0.4,0.7
				c-0.1,0-0.2-0.1-0.3-0.2c-0.1-0.1-0.3-0.3-0.4-0.5c-0.2-0.2-0.3-0.4-0.4-0.4c-14.5-16.8-24.6-28.1-30.1-33.9v21.3
				c0,4.7,0.1,7.6,0.4,8.7c0.3,1.2,1.2,1.9,2.9,2.2c0.5,0.1,0.8,0.3,0.8,0.5c0,0.4-0.2,0.6-0.6,0.6c-0.3,0-1.1,0-2.6-0.1
				c-1.5-0.1-2.4-0.1-2.8-0.1c-0.7,0-1.7,0-3,0.1c-1.4,0.1-2.1,0.1-2.3,0.1c-0.4,0-0.6-0.1-0.6-0.4c0-0.3,0.2-0.4,0.6-0.6
				c0.7-0.2,1.3-0.4,1.7-0.6c0.4-0.2,0.7-0.5,1-0.9c0.3-0.4,0.6-1,0.7-1.9c0.1-0.9,0.2-1.9,0.3-3c0.1-1.1,0.1-2.7,0.2-4.7
				c0.4-14,0.6-21.9,0.6-23.7v-10.2C1020.1,295.2,1020.3,295,1020.6,295z"/>
			<path class="st0" d="M1125.4,296.1c0.4,0,0.7,0.3,1,1l13.5,32.4c1.7,4.3,3,7.1,4,8.5c1,1.4,2.3,2.3,4,2.7c0.7,0.1,1,0.3,1,0.6
				s-0.2,0.4-0.4,0.4c-0.1,0-0.8,0-2-0.1s-2.6-0.1-4.3-0.2c-1.6,0-3-0.1-4.2-0.1c-0.6,0-1.8,0-3.7,0.1c-1.9,0.1-3.1,0.1-3.6,0.1
				c-0.4,0-0.6-0.2-0.6-0.5c0-0.3,0.2-0.5,0.5-0.5c2.3-0.2,3.5-1,3.5-2.3c0-1.1-0.4-2.7-1.2-4.8l-3.1-8.1h-14l-3.2,7.6
				c-0.8,2-1.2,3.5-1.2,4.7c0,0.9,0.2,1.6,0.7,2.1c0.5,0.4,1.3,0.7,2.4,0.8c0.6,0,0.8,0.2,0.8,0.4c0,0.3-0.2,0.5-0.6,0.5
				c-0.3,0-1.4,0-3.2-0.1c-1.8-0.1-3.1-0.1-3.6-0.1c-0.7,0-1.9,0-3.5,0.1c-1.6,0.1-2.6,0.1-2.9,0.1c-0.3,0-0.5-0.1-0.5-0.4
				c0-0.3,0.2-0.4,0.7-0.5c1.4-0.2,2.7-1,3.8-2.6s2.6-4.4,4.4-8.4l10.6-23.8c0.6-1.3,1.2-2.6,1.7-3.8c0.6-1.2,1.1-2.3,1.5-3.2
				c0.4-0.9,0.7-1.5,0.9-1.8C1124.9,296.4,1125.2,296.1,1125.4,296.1z M1123.1,308.5l-5.8,14l11.3-0.2L1123.1,308.5z"/>
			<path class="st0" d="M1213.5,296c1.8,0,4.2,0.3,7.2,0.9c3.2,0.6,5.2,1,5.9,1c0.4,0,0.8-0.1,1.1-0.3c0.3-0.2,0.5-0.3,0.5-0.3
				c0.3,0,0.4,0.1,0.4,0.3c0,0,0,0.4-0.1,1c-0.1,0.6-0.1,1.1-0.1,1.3c-0.1,2.1-0.1,4.2-0.1,6.1c0,0.4-0.1,0.6-0.4,0.6
				c-0.2,0-0.4-0.2-0.5-0.7c-0.3-1.5-1.4-2.9-3.2-4.2c-1.9-1.3-3.8-2.2-5.9-2.8c-2.1-0.6-3.8-0.9-5.3-0.9c-4.9,0-8.6,1.6-11,4.9
				c-2.5,3.3-3.7,7.8-3.7,13.5c0,7,1.7,12.5,5,16.7c3.4,4.2,7.3,6.3,12,6.3c3.6,0,6.5-0.7,8.7-2c2.1-1.4,3.5-3.2,3.9-5.4
				c0.1-0.4,0.3-0.6,0.5-0.6c0.3,0,0.4,0.1,0.4,0.4c0,0.1,0,0.5-0.1,1.2c-0.1,0.7-0.2,1.6-0.4,2.6c-0.2,1-0.3,1.7-0.4,2.2
				c-0.3,1.1-0.5,1.7-0.6,1.9c-0.1,0.2-0.3,0.4-0.6,0.4c-1.5,0.4-2.9,0.8-4.4,1c-2.6,0.5-5.3,0.7-8.1,0.7c-3.2,0-6.1-0.4-8.8-1.2
				s-5.2-2.1-7.5-3.8c-2.3-1.7-4.1-4.2-5.4-7.3c-1.3-3.1-2-6.8-2-11.1c0-7,2.1-12.5,6.2-16.5C1200.7,298,1206.4,296,1213.5,296z"/>
			<path class="st0" d="M1275.5,296.4c0.2,0,1.1,0.1,2.9,0.2c1.7,0.1,3,0.2,3.8,0.2c1.1,0,2.9-0.1,5.4-0.2c2.5-0.1,3.8-0.2,4-0.2
				c0.6,0,0.8,0.2,0.8,0.4c0,0.3-0.2,0.5-0.7,0.6c-0.9,0.2-1.6,0.3-2,0.5c-0.4,0.2-0.8,0.4-1.2,0.8c-0.4,0.3-0.6,1-0.7,1.9
				c-0.1,0.9-0.2,1.9-0.3,3c-0.1,1.1-0.1,2.7-0.1,5l0.1,19.1c0,5.4,0.2,8.8,0.7,10.2c0.5,1.4,1.8,2.3,3.9,2.8c0.6,0.1,1,0.3,1,0.6
				c0,0.3-0.2,0.4-0.6,0.4c-1.5,0-3.4,0-5.6-0.1c-2.2,0-3.9-0.1-5.2-0.1c-0.3,0-1.3,0-3.1,0.1c-1.8,0.1-2.9,0.1-3.3,0.1
				c-0.5,0-0.7-0.1-0.7-0.4c0-0.2,0.2-0.4,0.7-0.5c1.4-0.3,2.4-0.8,2.9-1.5c0.5-0.6,0.9-2,1.2-4.1c0.3-2.1,0.4-5.7,0.4-10.8V309
				c0-5-0.2-8.1-0.6-9.3c-0.4-1.2-1.6-1.9-3.6-2.2c-0.5-0.1-0.7-0.3-0.7-0.6C1274.7,296.5,1275,296.4,1275.5,296.4z"/>
			<path class="st0" d="M1360.7,295.9c7.2,0,12.9,2.1,17.3,6.2c4.4,4.1,6.6,9.6,6.6,16.5c0,7.1-2,12.8-6,17c-4,4.2-9.7,6.3-17.2,6.3
				c-3.1,0-6-0.4-8.8-1.3c-2.7-0.9-5.2-2.2-7.6-3.9c-2.3-1.7-4.1-4.2-5.5-7.3c-1.3-3.1-2-6.7-2-10.9c0-7,2-12.5,6.1-16.6
				C1347.7,297.9,1353.4,295.9,1360.7,295.9z M1360.3,298c-4.7,0-8.3,1.7-10.8,5.1c-2.5,3.4-3.7,8-3.7,13.7c0,7.6,1.5,13.3,4.6,17.2
				c3.1,3.9,7.1,5.9,12.2,5.9c3.9,0,7.1-1.8,9.6-5.3c2.5-3.5,3.8-8.2,3.8-14c0-7.1-1.4-12.6-4.2-16.6
				C1369.1,300,1365.3,298,1360.3,298z"/>
			<path class="st0" d="M1436.7,295c0.3,0,0.5,0.1,0.7,0.3c3.8,4.4,8.8,10.1,15.1,17.1c6.3,7,11.4,12.5,15.2,16.5l0.1-20.5
				c0-3.8-0.3-6.5-0.9-8.1c-0.6-1.6-1.7-2.5-3.3-2.8c-0.5-0.3-0.7-0.5-0.8-0.6c0-0.3,0.2-0.4,0.6-0.4c0.3,0,1.2,0,2.8,0.1
				c1.6,0.1,2.6,0.1,3,0.1c0.7,0,1.7,0,3-0.1c1.4-0.1,2.1-0.1,2.3-0.1c0.4,0,0.6,0.2,0.6,0.4c0,0.3-0.2,0.5-0.6,0.6
				c-1.7,0.3-2.8,1-3.1,2.1c-0.4,1.1-0.6,4.1-0.7,8.8c-0.1,13.4-0.2,21.5-0.2,24.1l0.1,10c0,0.5-0.1,0.7-0.4,0.7
				c-0.1,0-0.2-0.1-0.3-0.2c-0.1-0.1-0.3-0.3-0.4-0.5c-0.2-0.2-0.3-0.4-0.4-0.4c-14.5-16.8-24.5-28.1-30-33.9v21.3
				c0,4.7,0.1,7.6,0.4,8.7c0.3,1.2,1.2,1.9,2.9,2.2c0.5,0.1,0.8,0.3,0.8,0.5c0,0.4-0.2,0.6-0.6,0.6c-0.3,0-1.1,0-2.6-0.1
				c-1.5-0.1-2.4-0.1-2.8-0.1c-0.7,0-1.7,0-3,0.1c-1.4,0.1-2.1,0.1-2.3,0.1c-0.4,0-0.6-0.1-0.6-0.4c0-0.3,0.2-0.4,0.6-0.6
				c0.7-0.2,1.3-0.4,1.6-0.6c0.4-0.2,0.7-0.5,1-0.9c0.3-0.4,0.6-1,0.7-1.9c0.1-0.9,0.2-1.9,0.3-3c0.1-1.1,0.1-2.7,0.2-4.7
				c0.4-14,0.5-21.9,0.5-23.7v-10.2C1436.2,295.2,1436.4,295,1436.7,295z"/>
			<path class="st0" d="M1541.4,296.1c0.4,0,0.7,0.3,1,1l13.5,32.4c1.7,4.3,3,7.1,4,8.5c1,1.4,2.3,2.3,4,2.7c0.7,0.1,1,0.3,1,0.6
				s-0.2,0.4-0.4,0.4c-0.1,0-0.8,0-2-0.1s-2.6-0.1-4.3-0.2c-1.6,0-3-0.1-4.2-0.1c-0.6,0-1.8,0-3.7,0.1c-1.9,0.1-3.1,0.1-3.6,0.1
				c-0.4,0-0.6-0.2-0.6-0.5c0-0.3,0.2-0.5,0.5-0.5c2.3-0.2,3.5-1,3.5-2.3c0-1.1-0.4-2.7-1.2-4.8l-3.1-8.1h-14l-3.2,7.6
				c-0.8,2-1.2,3.5-1.2,4.7c0,0.9,0.2,1.6,0.7,2.1c0.5,0.4,1.3,0.7,2.4,0.8c0.6,0,0.8,0.2,0.8,0.4c0,0.3-0.2,0.5-0.6,0.5
				c-0.3,0-1.4,0-3.2-0.1c-1.8-0.1-3.1-0.1-3.6-0.1c-0.7,0-1.9,0-3.5,0.1c-1.6,0.1-2.6,0.1-2.9,0.1c-0.3,0-0.5-0.1-0.5-0.4
				c0-0.3,0.2-0.4,0.7-0.5c1.4-0.2,2.7-1,3.8-2.6s2.6-4.4,4.4-8.4l10.6-23.8c0.6-1.3,1.2-2.6,1.7-3.8c0.6-1.2,1.1-2.3,1.5-3.2
				c0.4-0.9,0.7-1.5,0.9-1.8C1540.8,296.4,1541.1,296.1,1541.4,296.1z M1539,308.5l-5.8,14l11.3-0.2L1539,308.5z"/>
			<path class="st0" d="M1622.5,296.6c0.5,0,0.8,0.1,0.8,0.4c0,0.3-0.2,0.6-0.7,0.6c-0.9,0.1-1.5,0.2-1.9,0.3
				c-0.4,0.1-0.8,0.3-1.3,0.7c-0.5,0.4-0.8,0.8-0.9,1.2c-0.1,0.5-0.3,1.2-0.4,2.3c-0.2,1.1-0.2,2.3-0.3,3.6c0,1.3,0,3.1,0,5.3
				l0.1,12.5c0,7.2,0.2,11.8,0.7,14c0.2,0.6,0.6,0.9,1.4,1s2.4,0.2,5,0.2c3.7,0,11.3-0.3,12.7-0.8c1.4-0.5,2.4-1.5,2.9-2.9
				c0.2-0.5,0.3-0.7,0.5-0.7c0.3,0,0.4,0.1,0.4,0.4c0,0.3-0.1,0.6-0.2,0.9l-1,2.5c-0.2,0.6-0.5,1.6-0.8,3c-0.1,0.4-0.3,0.6-0.5,0.6
				l-1-0.1c-0.5,0-7.8-0.1-12.1-0.2c-4.2-0.1-7.3-0.2-9-0.2c-0.7,0-1.9,0-3.6,0.1c-1.7,0-3.2,0.1-4.6,0.2s-2.1,0.1-2.2,0.1
				c-0.4,0-0.7-0.1-0.7-0.4c0-0.3,0.2-0.6,0.7-0.6c1.9-0.3,3.1-1,3.5-2.3c0.4-1.3,0.5-5.2,0.5-11.8v-18.4c0-3.4-0.1-5.8-0.3-7.1
				c-0.2-1.3-0.5-2.2-0.9-2.5c-0.4-0.4-1.2-0.6-2.4-0.9c-0.4-0.1-0.7-0.3-0.7-0.6c0-0.3,0.3-0.4,0.8-0.4h0.4c0.2,0,0.6,0,1,0
				c0.4,0,0.9,0,1.5,0c0.6,0,1.2,0,2,0c0.8,0,1.5,0,2.3,0c2,0,3.8,0,5.5-0.1C1621.5,296.6,1622.4,296.6,1622.5,296.6z"/>
		</g>
	</g>
	<g>
		<circle class="st1" cx="257.2" cy="264.9" r="219.3"/>
		<linearGradient id="SVGID_1_" gradientUnits="userSpaceOnUse" x1="148.2744" y1="85.4992" x2="357.4534" y2="433.3729">
			<stop  offset="0" style="stop-color:#E7E8EA"/>
			<stop  offset="1" style="stop-color:#B5B5BA"/>
		</linearGradient>
		<path class="st2" d="M253.2,40.6C132,40.6,33.8,138.8,33.8,259.9S132,479.3,253.2,479.3s219.3-98.2,219.3-219.3
			S374.3,40.6,253.2,40.6z M253.2,459.9c-111.8,0-202.4-90.6-202.4-202.4C50.7,145.7,141.4,55,253.2,55s202.4,90.6,202.4,202.4
			C455.6,369.2,364.9,459.9,253.2,459.9z"/>
		<linearGradient id="SVGID_2_" gradientUnits="userSpaceOnUse" x1="156.5336" y1="81.7302" x2="350.9336" y2="435.2881">
			<stop  offset="0" style="stop-color:#656367"/>
			<stop  offset="1" style="stop-color:#FCFDFE"/>
		</linearGradient>
		<path class="st3" d="M253.2,459.9c-111.8,0-202.4-90.6-202.4-202.4C50.7,145.7,141.4,55,253.2,55s202.4,90.6,202.4,202.4
			C455.6,369.2,364.9,459.9,253.2,459.9z"/>
		<path class="st4" d="M239.4,333.1c0.3,0.2,0.6,0.3,0.8,0.4C239.9,333.4,239.7,333.3,239.4,333.1z M344.6,238.7
			c-1.1-23.6-21.7-29.5-32.4-30.4c-2.9,13.3-6.8,34.8-8.2,66.2c8.4,2.4,17.3,0.1,17.3,0.1S346.2,270.6,344.6,238.7z M344.6,238.7
			c-1.1-23.6-21.7-29.5-32.4-30.4c-2.9,13.3-6.8,34.8-8.2,66.2c8.4,2.4,17.3,0.1,17.3,0.1S346.2,270.6,344.6,238.7z M239.4,333.1
			c0.3,0.2,0.6,0.3,0.8,0.4C239.9,333.4,239.7,333.3,239.4,333.1z M239.4,333.1c0.3,0.2,0.6,0.3,0.8,0.4
			C239.9,333.4,239.7,333.3,239.4,333.1z M344.6,238.7c-1.1-23.6-21.7-29.5-32.4-30.4c-2.9,13.3-6.8,34.8-8.2,66.2
			c8.4,2.4,17.3,0.1,17.3,0.1S346.2,270.6,344.6,238.7z M344.6,238.7c-1.1-23.6-21.7-29.5-32.4-30.4c-2.9,13.3-6.8,34.8-8.2,66.2
			c8.4,2.4,17.3,0.1,17.3,0.1S346.2,270.6,344.6,238.7z M240.2,333.5c-0.3-0.1-0.5-0.3-0.8-0.4C239.7,333.3,240,333.4,240.2,333.5z
			 M252.2,72.9c-100.4,0-181.8,81.4-181.8,181.8c0,100.4,81.4,181.8,181.8,181.8S434,355.1,434,254.7
			C434,154.3,352.6,72.9,252.2,72.9z M252.2,390.5c-73.1,0-132.4-59.3-132.4-132.4S179,125.6,252.2,125.6S384.6,184.9,384.6,258
			S325.3,390.5,252.2,390.5z M312.3,208.4c-2.9,13.3-6.8,34.8-8.2,66.2c8.4,2.4,17.3,0.1,17.3,0.1s24.8-4,23.3-35.9
			C343.5,215.2,322.9,209.3,312.3,208.4z M240.2,333.5c-0.3-0.1-0.5-0.3-0.8-0.4C239.7,333.3,240,333.4,240.2,333.5z M239.4,333.1
			c0.3,0.2,0.6,0.3,0.8,0.4C239.9,333.4,239.7,333.3,239.4,333.1z M344.6,238.7c-1.1-23.6-21.7-29.5-32.4-30.4
			c-2.9,13.3-6.8,34.8-8.2,66.2c8.4,2.4,17.3,0.1,17.3,0.1S346.2,270.6,344.6,238.7z M344.6,238.7c-1.1-23.6-21.7-29.5-32.4-30.4
			c-2.9,13.3-6.8,34.8-8.2,66.2c8.4,2.4,17.3,0.1,17.3,0.1S346.2,270.6,344.6,238.7z M239.4,333.1c0.3,0.2,0.6,0.3,0.8,0.4
			C239.9,333.4,239.7,333.3,239.4,333.1z"/>
		<path class="st4" d="M252.2,134.3c-67.5,0-122.2,54.7-122.2,122.2c0,67.5,54.7,122.2,122.2,122.2c67.5,0,122.2-54.7,122.2-122.2
			C374.4,189.1,319.6,134.3,252.2,134.3z M200.9,314.2c-0.5-0.2-1.3-0.5-1.8-0.8c0,0-15.3-8-39.1-2.1c-3.1,0.9-5.3,1.5-5.3,1.5l0,0
			c0.4-0.3,3.9-2.7,8-5.7c0,0,0,0,3.5-3.7c1-1,1.9-2.1,2.8-3.2c3.3-4.1,6.3-8.3,6.3-8.3c3.2-4.5,7.2-12.4,8.8-17.7
			c0,0,3.5-10.9,3.5-25.4c0-1.1,0-1.1,0-1.1c0-1.2,0-2.5,0-2.9c0,0,0,0,0-0.3c0.1-9,1.3-17.6,3.6-25.7c2.4-8.8,8-16.9,12.5-23.9
			c7.1-11.3,27.2-27.2,40.3-27.2c6,0,7.5,0.6,7.5,0.6c5.1,2,6.3,6.8,2.5,10.8l-2.5,2.6c-3.8,4-10.4,4.5-14.7,1.1
			c0,0-3.5-2.8-9.8-2.8c-11.9,0-17,29.3-17,29.3l-0.7,23.6v0.6c0,0.4,0,0.7,0,1.1c0,1.9-0.1,3.7-0.2,5.5l0,0.4h0
			c-1.1,17.1-6.4,32.2-14.4,43.9c-2.8,4-8.1,9.5-13.2,14.1c8.4-1.3,22.1-2.2,35.9,2c22.2,6.8,40.2,1.5,40.2,1.5
			c0.5-0.2,1.3-0.5,1.8-0.8c0,0,11.8-7.1,1.7-21.5c0,0,0,0,0,0c-0.1-0.3-2.5-6.5,3.7-8.4c5.9-1.7,10-0.6,11.5,1.9c0,0,0,0.1,0,0.1
			c0.1,0.2,0.2,0.4,0.3,0.7c0,0,0,0,0,0c2.7,6.7,4.1,19.7-16,31.7C231.8,323,200.9,314.2,200.9,314.2z M240.2,333.5
			c-0.2-0.1-0.5-0.2-0.8-0.4C239.7,333.3,239.9,333.4,240.2,333.5z M304.6,285.4c-1.2,0.2-1.2,0.2-1.2,0.2
			c-1.4,0.2-7.4,21.3-9.4,24.4c-2,3.1-5.1,9-6.8,13c0,0-10.4,23.7-38.1,28.7c-27.7,4.9-27.3-5.6-27.3-5.6c-1-3.4-0.1-7.7,2.1-10.6
			c0,0,0,0,0,0c0.5-0.7,1.2-1.4,1.8-1.9l3.6-2.8c0.3-0.3,0.8-0.4,1.3-0.4c1.3,0,3.3,0.6,5.5,1.6c0.4,0.2,0.8,0.3,1.2,0.5
			c0.1,0,0.2,0.1,0.3,0.1c0.4,0.2,0.8,0.4,1.1,0.5c0.1,0,0.2,0.1,0.2,0.1c1.1,0.6,2.3,1.1,3.4,1.7c0,0,7.5,5.5,17.6,5.1
			c2.3-0.4,4.6-0.8,6.5-0.9c0.5-0.1,0.9-0.2,1.3-0.3c4.2-1.5,17.5-9.4,17.4-52c0-1.6,0-3.2-0.1-4.9c-0.1-1.7-0.1-3.4-0.1-5.1
			c-0.2-28.9,9.7-60.4,9.7-60.4c1.3-4.2,0.3-8-2.3-8.5c0,0,0,0-2.8,0c-17.5,0-41,15.3-45.5,32.5c-0.5,1.9-0.8,3.8-0.8,5.7
			c0,9.1,4.5,15.4,4.5,15.4c2.6,3.6,2,8.9-1.3,11.9c0,0-1.7,1.6-6.9,1.6c-8.9,0-16.1-7.9-16.1-17.6c0-0.4,0-0.8,0-1.2
			c0.3-2.2,0.8-4.6,1.8-6.9c8.3-21.7,42.3-47.1,75.9-50.3c1.6-0.2,3.2-0.3,4.8-0.3c0.8,0,1.6,0,2.3,0c2.3,0,4.5,0,6.6,0.1
			c35.5,1.7,46.3,17,46.3,40C361.3,259.6,337.1,280,304.6,285.4z"/>
		<g>
			<path class="st0" d="M252.2,59.9c-108.8,0-197,88.2-197,197S143.3,454,252.2,454s197-88.2,197-197.1S361,59.9,252.2,59.9z
				 M252.2,436.5c-100.4,0-181.8-81.4-181.8-181.8c0-100.4,81.4-181.8,181.8-181.8S434,154.3,434,254.7
				C434,355.1,352.6,436.5,252.2,436.5z"/>
			<g>
				<g>
					<path class="st0" d="M252.2,125.6c-73.1,0-132.4,59.3-132.4,132.4S179,390.5,252.2,390.5S384.6,331.2,384.6,258
						S325.3,125.6,252.2,125.6z M252.2,378.8c-67.5,0-122.2-54.7-122.2-122.2c0-67.5,54.7-122.2,122.2-122.2
						c67.5,0,122.2,54.7,122.2,122.2C374.4,324,319.6,378.8,252.2,378.8z"/>
					<g>
						<path class="st0" d="M315,198.7c-2.1-0.1-4.3-0.1-6.6-0.1c-0.8,0-1.6,0-2.3,0c-1.6,0-3.2,0.2-4.8,0.3
							c-33.6,3.3-67.6,28.7-75.9,50.3c-0.9,2.4-1.5,4.7-1.8,6.9c0,0.4,0,0.8,0,1.2c0,9.7,7.2,17.6,16.1,17.6c5.2,0,6.9-1.6,6.9-1.6
							c3.3-3,3.8-8.3,1.3-11.9c0,0-4.5-6.2-4.5-15.4c0-1.9,0.3-3.8,0.8-5.7c4.5-17.3,27.9-32.5,45.5-32.5c2.8,0,2.8,0,2.8,0
							c2.6,0.5,3.6,4.3,2.3,8.5c0,0-10,31.5-9.7,60.4c0,1.7,0,3.4,0.1,5.1c0.1,1.7,0.1,3.3,0.1,4.9c0.1,42.6-13.2,50.5-17.4,52
							c-0.3,0.1-0.8,0.2-1.3,0.3c-1.9,0.2-4.2,0.5-6.5,0.9c-10.1,0.4-17.6-5.1-17.6-5.1c-1.1-0.6-2.3-1.2-3.4-1.7
							c-0.1,0-0.2-0.1-0.2-0.1c-0.3-0.1-0.7-0.3-1.1-0.5c-0.1,0-0.2-0.1-0.3-0.1c-0.4-0.2-0.8-0.4-1.2-0.5c-2.2-1-4.1-1.6-5.5-1.6
							c-0.5,0-1,0.1-1.3,0.4l-3.6,2.8c-0.7,0.5-1.3,1.2-1.8,1.9c0,0,0,0,0,0c-2.2,3-3.1,7.2-2.1,10.6c0,0-0.4,10.5,27.3,5.6
							c27.7-4.9,38.1-28.7,38.1-28.7c1.8-4,4.8-9.9,6.8-13c2-3.1,8-24.2,9.4-24.4c0,0,0,0,1.2-0.2c32.5-5.5,56.7-25.9,56.7-46.7
							C361.3,215.7,350.5,200.4,315,198.7z M321.4,274.6c0,0-8.9,2.3-17.3-0.1c1.4-31.4,5.3-52.9,8.2-66.2
							c10.6,0.9,31.2,6.8,32.4,30.4C346.2,270.6,321.4,274.6,321.4,274.6z"/>
						<path class="st0" d="M260.6,305.8c-28.8,17.2-59.7,8.4-59.7,8.4c-0.5-0.2-1.3-0.5-1.8-0.8c0,0-15.3-8-39.1-2.1
							c-3.1,0.9-5.3,1.5-5.3,1.5l0,0c0.4-0.3,3.9-2.7,8-5.7c0,0,0,0,3.5-3.7c1-1,1.9-2.1,2.8-3.2c3.3-4.1,6.3-8.3,6.3-8.3
							c3.2-4.5,7.2-12.4,8.8-17.7c0,0,3.5-10.9,3.5-25.4c0-1.1,0-1.1,0-1.1c0-1.2,0-2.5,0-2.9c0,0,0,0,0-0.3
							c0.1-9,1.3-17.6,3.6-25.7c2.4-8.8,8-16.9,12.5-23.9c7.1-11.3,27.2-27.2,40.3-27.2c6,0,7.5,0.6,7.5,0.6c5.1,2,6.3,6.8,2.5,10.8
							l-2.5,2.6c-3.8,4-10.4,4.5-14.7,1.1c0,0-3.5-2.8-9.8-2.8c-11.9,0-17,29.3-17,29.3l-0.7,23.6v0.6c0,0.4,0,0.7,0,1.1
							c0,1.9-0.1,3.7-0.2,5.5l0,0.4h0c-1.1,17.1-6.4,32.2-14.4,43.9c-2.8,4-8.1,9.5-13.2,14.1c8.4-1.3,22.1-2.2,35.9,2
							c22.2,6.8,40.2,1.5,40.2,1.5c0.5-0.2,1.3-0.5,1.8-0.8c0,0,11.8-7.1,1.7-21.5c0,0,0,0,0,0c-0.1-0.3-2.5-6.5,3.7-8.4
							c5.9-1.7,10-0.6,11.5,1.9c0,0,0,0.1,0,0.1c0.1,0.2,0.2,0.4,0.3,0.7c0,0,0,0,0,0C279.3,280.8,280.7,293.8,260.6,305.8z"/>
					</g>
				</g>
				<g>
					<g>
						<g>
							<path class="st0" d="M105.5,349c-0.2-0.3-0.2-0.5,0-0.6c0.2-0.1,0.4,0,0.6,0.2c0.4,0.5,0.6,0.8,0.8,1
								c0.2,0.2,0.4,0.4,0.8,0.5c0.3,0.1,0.7,0.2,1,0.1c0.3-0.1,0.7-0.2,1.4-0.5c0.6-0.2,1.3-0.6,2-1c0.7-0.4,1.6-0.9,2.8-1.6
								l6.6-3.9c3.8-2.2,6.1-3.8,7.1-4.7c0.2-0.3,0.3-0.6,0.1-1.1s-0.7-1.4-1.6-2.9c-1.2-2.1-2.2-3.5-2.9-4.1
								c-0.7-0.6-1.6-0.9-2.5-0.7c-0.3,0.1-0.5,0-0.5-0.1c-0.1-0.2-0.1-0.3,0.1-0.4c0.1-0.1,0.3-0.1,0.5-0.2l1.6-0.2
								c0.4,0,1-0.2,1.9-0.5c0.3-0.1,0.4,0,0.5,0.1l0.3,0.6c0.2,0.3,0.9,1.6,2.3,4.1c1.3,2.4,2.3,4.2,2.9,5.2c0.2,0.4,0.6,1.1,1.2,2
								c0.6,0.9,1.1,1.8,1.6,2.6c0.5,0.8,0.8,1.2,0.8,1.2c0.1,0.2,0.1,0.4,0,0.5c-0.2,0.1-0.4,0-0.6-0.2c-0.8-1-1.6-1.4-2.3-1.3
								c-0.8,0.2-2.9,1.3-6.4,3.3l-9.7,5.7c-1.8,1.1-3,1.8-3.6,2.4c-0.6,0.5-1,0.9-1,1.3c-0.1,0.3,0.1,0.9,0.4,1.6
								c0.1,0.3,0.1,0.5-0.1,0.6c-0.2,0.1-0.3,0-0.5-0.3l-0.1-0.2c-0.1-0.1-0.2-0.3-0.3-0.6c-0.1-0.2-0.3-0.5-0.5-0.9
								c-0.2-0.3-0.4-0.7-0.6-1.1s-0.5-0.9-0.7-1.3c-0.7-1.1-1.3-2.2-1.9-3.1C105.9,349.6,105.6,349.1,105.5,349z"/>
							<path class="st0" d="M94.2,324.5c0-0.1-0.2-0.7-0.5-1.8s-0.5-1.8-0.7-2.2c-0.1-0.4-0.5-1.4-1.2-3c-0.6-1.6-1-2.6-1.1-3
								c-0.1-0.3-0.1-0.5,0.1-0.6c0.2-0.1,0.4,0,0.6,0.3c0.4,0.8,0.8,1.4,1.2,1.6c0.4,0.2,1,0.2,1.7,0.1c0.8-0.1,2.1-0.6,4-1.3
								l10.8-3.8c3-1.1,4.9-1.9,5.6-2.4c0.7-0.5,0.9-1.4,0.7-2.7c0-0.4,0-0.7,0.2-0.7c0.2-0.1,0.4,0,0.5,0.3c0.3,0.8,0.6,1.8,1,3
								c0.4,1.2,0.7,2.1,0.9,2.7c0.1,0.2,0.4,1,0.9,2.4c0.6,1.5,0.9,2.3,1,2.5c0.1,0.3,0,0.4-0.2,0.5c-0.2,0.1-0.3,0-0.5-0.3
								c-0.5-0.8-1-1.2-1.5-1.4c-0.4-0.2-1.3-0.2-2.5,0.1c-1.2,0.3-3.2,0.9-6,1.9l-8.8,3.1c-2.7,1-4.4,1.7-5,2.2
								c-0.6,0.5-0.8,1.4-0.5,2.6c0,0.3-0.1,0.5-0.3,0.6C94.5,325,94.3,324.9,94.2,324.5z"/>
							<path class="st0" d="M83,278.7c-0.1-1.1-0.2-2.8-0.1-4.8c0-0.6,0.1-1.1,0.1-1.7c0.1-0.6,0.1-1.1,0.2-1.4c0-0.4,0-0.6,0-0.7
								c0-0.2-0.1-0.4-0.4-0.6c-0.2-0.1-0.3-0.3-0.3-0.4c0-0.3,0-0.4,0.2-0.4c0.2,0,0.7,0,1.6-0.1c0.6,0,1.9-0.1,3.6-0.4
								c0.3,0,0.5,0.1,0.5,0.3c0,0.2-0.1,0.4-0.4,0.5c-1.3,0.6-2.2,1.9-2.9,4c-0.6,2-0.8,4-0.6,5.9c0.4,3,1.6,5.1,3.7,6.4
								c2.1,1.2,4.8,1.6,8.2,1.2c4-0.5,7.1-2,9.4-4.5c2.2-2.5,3.1-5.2,2.8-8.1c-0.6-4.4-2.4-6.8-5.4-7.1c-0.3-0.1-0.5-0.2-0.5-0.3
								c0-0.2,0.1-0.3,0.2-0.4c0.6-0.1,1.8,0,3.6,0.1c0.6,0.1,1,0.1,1.1,0.2c0.2,0.1,0.3,0.2,0.5,0.4c0.2,0.3,0.5,1,0.9,2.2
								c0.6,1.7,1,3.7,1.3,5.9c0.3,2.1,0.3,4.1,0,5.9c-0.3,1.8-0.8,3.6-1.7,5.2c-0.8,1.6-2.1,3-3.9,4.1c-1.8,1.1-3.9,1.8-6.5,2.1
								c-4.1,0.5-7.6-0.4-10.3-2.8C85.3,286.9,83.6,283.3,83,278.7z"/>
							<path class="st0" d="M83.2,231c0-0.1,0.1-0.2,0.2-0.2c0,0,0.3,0,0.8,0.1c0.5,0.1,0.8,0.1,1,0.1l1.9,0.2
								c0.3,0,0.5,0.1,0.5,0.3c0,0.2-0.2,0.3-0.5,0.3c-1.3,0.2-2.1,1.7-2.4,4.5c-0.1,1.2-0.1,2.3-0.1,3.4c0.9,0.1,2.7,0.3,5.3,0.5
								l5,0.4l0.3-3.8c0.1-1.5,0.1-2.4,0-2.9s-0.4-0.8-1-1l-0.6-0.2c-0.2-0.1-0.4-0.3-0.4-0.4c0-0.2,0.1-0.3,0.4-0.3
								c0,0,0.2,0,0.6,0.1c0.4,0.1,0.8,0.2,1.3,0.2s1,0.1,1.3,0.2c0.4,0,0.9,0.1,1.6,0.1c0.7,0,1.1,0.1,1.2,0.1
								c0.2,0,0.3,0.1,0.3,0.3c0,0.2-0.1,0.3-0.3,0.3c-1.1,0-1.8,0.2-2.1,0.6c-0.3,0.4-0.5,1.3-0.7,2.8l-0.4,4l4.9,0.4
								c1.8,0.2,3.4,0.2,4.7,0.1c1.1-0.1,1.8-1.3,2-3.7c0.1-1.5,0.1-2.6-0.1-3.2c-0.2-0.6-0.6-1.2-1.2-1.7c-0.3-0.2-0.4-0.4-0.4-0.5
								c0-0.2,0.1-0.3,0.3-0.3c0.2,0,0.3,0.1,0.5,0.2c0.4,0.2,0.9,0.4,1.4,0.6c0.7,0.3,1.2,0.5,1.6,0.6c0.2,0.1,0.3,0.2,0.3,0.3
								l-0.2,1.6c0,0.1-0.1,1.1-0.3,3c-0.2,1.9-0.4,3.8-0.5,5.6c0,0.6-0.1,1.4-0.2,2.4c-0.1,1-0.1,1.9-0.2,2.7
								c0,0.8-0.1,1.2-0.1,1.2c0,0.3-0.2,0.4-0.4,0.4c-0.2,0-0.3-0.2-0.3-0.5c-0.1-1.1-0.3-1.8-0.6-2c-0.5-0.5-2.2-0.9-5.3-1.2
								c-0.7-0.1-1.8-0.2-3.4-0.3l-9.7-0.8c-1.9-0.2-3.2-0.2-4.1-0.1c-0.8,0.1-1.4,0.3-1.7,0.5c-0.3,0.3-0.5,0.8-0.7,1.6
								c-0.1,0.3-0.2,0.4-0.5,0.4c-0.2,0-0.3-0.2-0.3-0.5l0-0.4c0-0.3,0.1-0.7,0.1-1.1c0.1-0.5,0.1-1,0.1-1.5s0.1-1.1,0.1-1.7
								c0-0.6,0.1-1.1,0.1-1.5c0.4-4.2,0.5-7.3,0.5-9.3c0-0.3,0-0.5,0-0.7c0-0.2,0-0.3,0-0.3C83.2,231.1,83.2,231,83.2,231z"/>
							<path class="st0" d="M90.3,196c1.2-4.3,3.4-7.5,6.5-9.5c3.1-2,6.7-2.4,10.7-1.3c4.1,1.1,7.1,3.3,8.8,6.3s2,6.9,0.8,11.4
								c-0.5,1.9-1.3,3.6-2.2,5.1c-1,1.5-2.1,2.8-3.5,3.9c-1.4,1.1-3.1,1.8-5.2,2.1c-2,0.3-4.2,0.1-6.6-0.5
								c-4.1-1.1-6.9-3.2-8.6-6.4C89.3,204.1,89,200.4,90.3,196z M91.9,196.7c-0.7,2.6-0.3,4.8,1.2,6.8c1.5,1.9,3.9,3.3,7,4.2
								c4.2,1.2,7.6,1.2,10.3,0c2.7-1.1,4.4-3.1,5.2-6c0.6-2.1,0.1-4.1-1.5-6c-1.6-1.9-4-3.3-7.2-4.2c-3.9-1.1-7.3-1.2-9.9-0.2
								C94.3,192.1,92.6,194,91.9,196.7z"/>
						</g>
						<g>
							<path class="st0" d="M132.8,132.9c1.9-1.9,3.9-3,5.8-3.4c1.9-0.3,3.7,0.4,5.4,2c1.9,1.9,2.8,4,2.7,6.3
								c-0.1,2.3-1.1,4.3-3,6.2c-0.5,0.5-1,0.8-1.4,1.1c-0.1,0.1-0.2,0-0.4-0.1c-0.1-0.1-0.1-0.2,0-0.4c0,0,0.1-0.1,0.2-0.1
								c0.1-0.1,0.2-0.2,0.4-0.3c0.2-0.2,0.4-0.3,0.6-0.5c1-1,1.4-2.2,1.1-3.7c-0.3-1.4-1.2-2.9-2.6-4.3c-1.6-1.6-3.2-2.4-4.8-2.5
								c-1.6-0.1-3.1,0.6-4.4,1.9c-0.3,0.3-0.7,0.7-1.1,1.2c0.3,0.4,1.7,1.8,4.3,4.4l8.3,8.3c0.9,0.9,1.6,1.6,2,2
								c0.4,0.4,0.9,0.9,1.5,1.3c0.5,0.4,0.9,0.7,1.2,0.8c0.2,0.1,0.6,0.2,0.9,0.2c0.4,0,0.7-0.1,1-0.2c0.3-0.2,0.6-0.4,1.1-0.7
								c0.4-0.2,0.6-0.3,0.7-0.2c0.1,0.1,0,0.4-0.3,0.7c-0.3,0.3-0.9,0.9-1.9,1.8c-1,0.9-1.8,1.7-2.5,2.4c-0.1,0.1-0.7,0.7-1.6,1.7
								c-0.9,1-1.4,1.5-1.4,1.5c-0.2,0.2-0.4,0.3-0.5,0.1c-0.1-0.1-0.1-0.3,0.1-0.6c0.4-0.7,0.7-1.1,0.8-1.4c0.1-0.3,0-0.8-0.4-1.5
								c-0.4-0.7-0.9-1.4-1.6-2.2c-0.7-0.7-2-2-3.8-3.9l-7-7c-1.4-1.4-2.4-2.3-3-2.8c-0.7-0.5-1.2-0.7-1.7-0.8c-0.4,0-1,0.2-1.7,0.6
								c-0.2,0.1-0.4,0.1-0.5,0c-0.1-0.1-0.1-0.4,0.3-0.7c0,0,0.4-0.3,1-0.9c0.6-0.6,1.3-1.2,1.9-1.8c0.2-0.2,0.9-1,2.1-2.2
								C131.6,134.1,132.3,133.3,132.8,132.9z"/>
							<path class="st0" d="M163.6,109c0.2-0.1,0.5-0.1,0.8,0.2l17.3,12.6c2.2,1.7,3.8,2.7,4.8,3.2c1,0.4,2,0.5,2.9,0.1
								c0.4-0.1,0.6-0.1,0.7,0c0.1,0.2,0.1,0.3-0.1,0.4c-0.1,0-0.4,0.2-1.1,0.6s-1.4,0.8-2.3,1.3c-0.9,0.5-1.6,0.9-2.2,1.3
								c-0.3,0.2-0.9,0.6-1.9,1.2c-0.9,0.6-1.6,1-1.8,1.2c-0.2,0.1-0.4,0.1-0.5-0.1c-0.1-0.2-0.1-0.3,0.1-0.4
								c1.1-0.8,1.5-1.6,1.1-2.3c-0.3-0.6-1.1-1.3-2.2-2.1l-4.2-3.2l-7.3,4.4l0.7,4.9c0.2,1.3,0.5,2.2,0.9,2.8
								c0.3,0.5,0.6,0.8,1,0.9c0.4,0.1,0.9,0,1.5-0.3c0.3-0.2,0.5-0.2,0.6,0c0.1,0.2,0.1,0.3-0.2,0.5c-0.2,0.1-0.7,0.4-1.7,0.9
								c-1,0.5-1.6,0.9-1.9,1.1c-0.4,0.2-1,0.6-1.8,1.2c-0.8,0.6-1.3,0.9-1.5,1c-0.2,0.1-0.3,0.1-0.4-0.1c-0.1-0.1,0-0.3,0.2-0.5
								c0.7-0.5,1.1-1.4,1.2-2.6c0.1-1.2,0-3.1-0.4-5.8l-2.1-15.7c-0.1-0.9-0.2-1.7-0.3-2.5c-0.1-0.8-0.2-1.5-0.2-2.1
								c-0.1-0.6-0.1-1-0.1-1.2C163.4,109.3,163.4,109.1,163.6,109z M166.3,116.2l1.4,9.1l5.8-3.7L166.3,116.2z"/>
							<path class="st0" d="M197.2,92.1c0.2,0,0.3,0,0.5,0.1c3.3,1.9,7.6,4.3,13,7.3c5.4,3,9.8,5.3,13,7l-3.1-12.1
								c-0.6-2.2-1.2-3.8-1.8-4.6c-0.6-0.8-1.5-1.2-2.7-1.1c-0.4-0.1-0.6-0.1-0.6-0.2c0-0.2,0.1-0.3,0.4-0.3c0.2,0,0.8-0.2,2-0.5
								s1.8-0.4,2.1-0.5c0.5-0.1,1.1-0.3,2.1-0.6c0.9-0.3,1.4-0.5,1.6-0.5c0.3-0.1,0.4,0,0.5,0.2c0.1,0.2-0.1,0.4-0.3,0.4
								c-1.1,0.5-1.7,1.1-1.8,1.8c-0.1,0.7,0.2,2.5,0.9,5.3c2,7.9,3.2,12.7,3.6,14.3l1.6,5.9c0.1,0.3,0,0.4-0.2,0.5
								c-0.1,0-0.1,0-0.2-0.1c-0.1-0.1-0.2-0.1-0.4-0.2c-0.1-0.1-0.3-0.2-0.3-0.2c-12.6-7.3-21.2-12.1-25.9-14.5l3.3,12.6
								c0.7,2.7,1.3,4.4,1.7,5.1c0.4,0.6,1.2,0.9,2.3,0.8c0.4,0,0.6,0,0.6,0.2c0.1,0.2,0,0.4-0.3,0.4c-0.2,0-0.8,0.2-1.8,0.4
								c-1,0.2-1.7,0.4-2,0.5c-0.5,0.1-1.1,0.3-2.1,0.6c-0.9,0.3-1.4,0.5-1.6,0.5c-0.3,0.1-0.4,0-0.5-0.2c0-0.2,0.1-0.3,0.3-0.4
								c0.5-0.3,0.8-0.5,1-0.7c0.2-0.2,0.4-0.4,0.6-0.7c0.2-0.3,0.2-0.7,0.2-1.2c0-0.5-0.1-1.1-0.3-1.8c-0.1-0.7-0.3-1.6-0.6-2.8
								c-1.9-8.3-3-13-3.3-14.1l-1.6-6C196.9,92.4,196.9,92.2,197.2,92.1z"/>
							<path class="st0" d="M257.4,84.2c0.2,0,0.4,0.2,0.6,0.6l7.7,19.9c0.9,2.6,1.7,4.4,2.3,5.3c0.6,0.9,1.4,1.4,2.4,1.7
								c0.4,0.1,0.6,0.2,0.6,0.4c0,0.2-0.1,0.3-0.3,0.3c-0.1,0-0.5,0-1.2-0.1c-0.7-0.1-1.6-0.1-2.6-0.2c-1-0.1-1.8-0.1-2.5-0.1
								c-0.4,0-1.1,0-2.2,0c-1.1,0-1.9,0-2.2,0c-0.2,0-0.3-0.1-0.3-0.3c0-0.2,0.1-0.3,0.3-0.3c1.4-0.1,2.1-0.5,2.1-1.3
								c0-0.6-0.2-1.6-0.7-2.9l-1.7-5l-8.5-0.2l-2.1,4.5c-0.5,1.2-0.8,2.1-0.8,2.8c0,0.6,0.1,1,0.4,1.3c0.3,0.3,0.8,0.5,1.4,0.5
								c0.3,0,0.5,0.1,0.5,0.3c0,0.2-0.1,0.3-0.4,0.3c-0.2,0-0.8,0-1.9-0.1c-1.1-0.1-1.9-0.1-2.2-0.1c-0.4,0-1.2,0-2.1,0
								c-1,0-1.6,0-1.8,0c-0.2,0-0.3-0.1-0.3-0.3c0-0.2,0.1-0.3,0.4-0.3c0.9-0.1,1.7-0.6,2.4-1.5c0.7-0.9,1.7-2.6,2.8-5.1l6.8-14.3
								c0.4-0.8,0.8-1.6,1.1-2.3s0.7-1.4,1-1.9c0.3-0.6,0.5-0.9,0.6-1.1C257.1,84.3,257.2,84.2,257.4,84.2z M255.7,91.7l-3.8,8.4
								l6.9,0.1L255.7,91.7z"/>
							<path class="st0" d="M296.8,89.4c0.1,0.1,0.2,0.1,0.2,0.3c0.6,4.4,1.9,12.2,3.9,23.1l16.6-16c0.2-0.2,0.3-0.3,0.5-0.2
								c0.2,0.1,0.3,0.2,0.3,0.3c-0.5,2.4-0.9,4.2-1.1,5.4l-2.8,14.8c-0.3,1.8-0.5,3.2-0.5,4.1c0,1,0.1,1.6,0.4,2.1
								c0.2,0.4,0.7,0.8,1.3,1.2c0.4,0.2,0.5,0.4,0.5,0.6c-0.1,0.2-0.2,0.2-0.5,0.1c-0.4-0.1-1.1-0.4-2.2-0.9
								c-1.1-0.4-1.9-0.8-2.4-0.9c-0.6-0.2-1.5-0.5-2.7-0.8c-1.2-0.4-2-0.6-2.5-0.8c-0.2-0.1-0.3-0.2-0.2-0.5c0-0.1,0.2-0.2,0.4-0.2
								c1,0.2,1.7,0.2,2.1,0.1c0.4-0.1,0.7-0.4,0.8-0.9c0.3-0.8,0.6-2,0.8-3.5l2.4-12l-14.3,14.1c-0.2,0.2-0.4,0.4-0.5,0.3
								c-0.1,0-0.1-0.2-0.2-0.6c-0.5-4-1.4-10.5-2.9-19.5l-4.4,8.9c-0.6,1.2-1.1,2.5-1.5,3.7c-0.3,1-0.3,1.8,0.1,2.5
								c0.4,0.7,0.9,1.1,1.7,1.5c0.3,0.1,0.4,0.3,0.4,0.5c-0.1,0.2-0.2,0.3-0.5,0.2c-0.1-0.1-0.8-0.3-1.9-0.8
								c-1.1-0.5-1.9-0.8-2.3-0.9c-0.5-0.2-1.2-0.4-2.1-0.6c-1-0.3-1.5-0.4-1.6-0.5c-0.3-0.1-0.4-0.2-0.3-0.5
								c0.1-0.2,0.2-0.3,0.5-0.2c0.6,0.1,1,0.2,1.3,0.1c0.3,0,0.6-0.1,0.9-0.2c0.3-0.1,0.6-0.4,0.9-0.8c0.3-0.5,0.6-1,0.9-1.5
								s0.7-1.4,1.3-2.6l6.3-12.9c1.4-3.1,2.3-5,2.6-5.7C296.5,89.4,296.6,89.3,296.8,89.4z"/>
							<path class="st0" d="M355.3,118.1c0.1,0.1,0.1,0.2,0.1,0.2c0,0-0.2,0.2-0.4,0.6c-0.3,0.4-0.5,0.6-0.5,0.7l-1.2,1.6
								c-0.1,0.2-0.3,0.3-0.4,0.2c-0.2-0.1-0.2-0.3-0.1-0.5c0.6-1.2-0.3-2.6-2.7-4.3c-0.9-0.6-1.8-1.2-2.6-1.7
								c-0.4,0.5-1.5,2-3.2,4.6l-2.9,4.3l2.9,2c1.2,0.8,2,1.2,2.5,1.4c0.5,0.1,1,0,1.5-0.3c0.1,0,0.2-0.2,0.5-0.4
								c0.2-0.1,0.3-0.2,0.4-0.1c0.2,0.1,0.2,0.2,0.1,0.3l-0.8,1c-0.5,0.7-1,1.2-1.3,1.6c-0.2,0.3-0.5,0.8-0.9,1.3
								c-0.4,0.6-0.6,0.9-0.7,1c-0.1,0.2-0.2,0.2-0.3,0.1c-0.2-0.1-0.2-0.2-0.1-0.4c0.6-0.9,0.8-1.6,0.6-2.1c-0.2-0.5-1-1.1-2.2-2
								l-3.1-2.2l-2.8,4.2c-1.1,1.7-2,3.1-2.5,4.3c-0.3,0.6-0.2,1.1,0.1,1.7s1,1.1,1.9,1.7c1.2,0.8,2.2,1.4,2.9,1.5
								c0.7,0.2,1.3,0.1,2-0.3c0.2-0.1,0.3-0.1,0.4-0.1c0.2,0.1,0.2,0.2,0.1,0.3c-0.1,0.1-0.2,0.2-0.3,0.3l-1.1,0.8
								c-0.2,0.2-0.5,0.4-0.7,0.6c-0.2,0.2-0.4,0.3-0.5,0.4c-0.1,0.1-0.2,0.1-0.2,0.2c-0.2,0.1-0.3,0.2-0.4,0.1l-1.2-0.9
								c-1.3-1-3.4-2.5-6.4-4.5c-0.5-0.3-1.1-0.8-1.9-1.3s-1.5-1-2.2-1.4c-0.6-0.4-1-0.6-1-0.6c-0.2-0.1-0.3-0.3-0.1-0.5
								c0.1-0.1,0.3-0.1,0.6,0c1,0.4,1.7,0.5,2.1,0.3c0.7-0.2,1.8-1.5,3.4-3.7c0.5-0.7,1.2-1.7,2.2-3.2l5.6-8.2
								c1.7-2.6,2.7-4.1,2.9-4.7c0.2-0.5-0.1-1.2-0.9-1.9c-0.2-0.2-0.3-0.4-0.2-0.5c0.1-0.1,0.3-0.1,0.6,0.1l0.4,0.2
								c0.2,0.1,0.5,0.3,0.8,0.6c0.3,0.2,0.7,0.5,1.1,0.8c0.4,0.3,0.8,0.6,1.2,0.9c0.4,0.3,0.8,0.5,1.1,0.8c2.9,2,5.3,3.5,7,4.5
								c0.2,0.1,0.4,0.2,0.6,0.3c0.1,0.1,0.2,0.1,0.3,0.1C355.2,118.1,355.2,118.1,355.3,118.1z"/>
							<path class="st0" d="M378.9,139.7c1.8,2,2.8,4,3,6c0.2,2-0.4,3.7-1.9,4.9c-2.3,2.1-5.1,2.7-8.5,2c0.1,0.7-0.3,3.2-1.1,7.3
								c-0.7,3.7-1.1,6.2-1.2,7.6c-0.1,2,0.2,3.3,0.9,4.1c0.1,0.1,0.1,0.1,0.2,0.2s0.2,0.2,0.2,0.2c0.1,0.2,0.1,0.3,0,0.4
								c-0.3,0.3-1.1-0.4-2.5-2c-1.2-1.3-2-2.6-2.4-4c-0.4-1.3-0.5-2.9-0.1-4.7c0.2-1.1,0.6-3.1,1.4-6c0.7-2.9,1.1-4.8,1.1-5.4
								c-0.5-0.4-0.9-0.7-1.2-1.1c-0.5-0.6-0.9-1-1.2-1.4l-2.8,2.6c-1.8,1.6-2.9,2.7-3.6,3.5c-0.6,0.7-0.9,1.4-0.9,2
								c0,0.6,0.3,1.4,0.9,2.3c0.2,0.2,0.1,0.4,0,0.6c-0.1,0.1-0.3,0-0.6-0.3c-0.2-0.2-0.8-0.9-1.6-1.9c-0.9-1-1.7-1.9-2.4-2.7
								c-0.3-0.3-0.8-0.9-1.6-1.7c-0.8-0.9-1.3-1.3-1.3-1.3c-0.2-0.2-0.2-0.4-0.1-0.5c0.1-0.1,0.3,0,0.5,0.1c0.9,0.8,1.7,1,2.4,0.7
								c0.6-0.3,2.3-1.6,4.9-4c0.1-0.1,0.2-0.2,0.3-0.2l10.2-9.1c1.4-1.3,2.2-2.2,2.4-2.9c0.2-0.7-0.1-1.5-0.8-2.5
								c-0.2-0.2-0.2-0.4,0-0.5c0.1-0.1,0.4,0,0.6,0.3c0,0,0.2,0.2,0.5,0.7c0.3,0.4,0.7,0.9,1.2,1.5c0.5,0.5,0.8,1,1.1,1.3
								c0.2,0.2,0.8,0.8,1.7,1.7S378.3,139.1,378.9,139.7z M377,139.8c-0.4-0.4-0.8-0.7-1.2-1c-0.7,0.6-2.2,1.9-4.4,3.9l-4.5,4.1
								c0.4,0.8,1,1.6,1.8,2.5c0.8,0.9,1.6,1.4,2.4,1.4c1.4,0.1,2.8-0.6,4.4-2c1.6-1.5,2.6-3,2.8-4.6
								C378.6,142.5,378.2,141.1,377,139.8z"/>
							<path class="st0" d="M400.3,168.5c0.1,0.1,0.3,0.6,0.8,1.6c0.5,1,0.8,1.7,1.1,2.1c0.3,0.6,0.9,1.5,1.7,2.8
								c0.8,1.3,1.2,2,1.3,2.1c0.2,0.3,0.2,0.5,0,0.6c-0.2,0.1-0.4,0-0.5-0.2c-0.4-0.4-0.7-0.8-0.9-0.9c-0.2-0.2-0.5-0.3-0.8-0.4
								c-0.3-0.1-0.7,0-1.2,0.2c-0.5,0.2-1.1,0.5-1.7,0.7c-0.6,0.3-1.5,0.8-2.7,1.4l-10.1,5.7c-2.9,1.6-4.6,2.7-5.2,3.4
								c-0.6,0.7-0.7,1.6-0.3,2.9c0.1,0.4,0.1,0.6-0.1,0.7c-0.2,0.1-0.3,0-0.4-0.2c-0.5-0.8-1-1.8-1.6-3c-0.6-1.2-1.1-2.1-1.5-2.8
								c-0.1-0.1-0.4-0.7-1-1.6c-0.6-1-0.9-1.5-1-1.7c-0.1-0.3-0.1-0.4,0-0.5c0.1-0.1,0.3,0,0.5,0.2c0.6,0.6,1.1,1,1.6,1.1
								c0.5,0.1,1.3-0.1,2.5-0.6c1.2-0.5,3.1-1.5,5.8-3l8.2-4.6c2.7-1.5,4.3-2.5,4.8-3.1c0.5-0.6,0.5-1.5,0.1-2.6
								c-0.1-0.3-0.1-0.5,0.1-0.5C399.9,168.1,400.1,168.2,400.3,168.5z"/>
							<path class="st0" d="M418.5,210.3c0.3,1.1,0.6,2.7,0.8,4.6c0.2,2.1,0.4,3.4,0.5,3.8c0.1,0.2,0.2,0.5,0.4,0.6
								c0.2,0.2,0.3,0.3,0.3,0.3c0.1,0.2,0,0.3-0.1,0.3c0,0-0.2,0-0.6,0.1c-0.4,0.1-0.7,0.1-0.8,0.2c-1.3,0.3-2.5,0.7-3.6,1
								c-0.2,0.1-0.4,0-0.4-0.1c0-0.1,0.1-0.3,0.3-0.5c0.8-0.4,1.5-1.3,1.9-2.7c0.4-1.4,0.6-2.7,0.5-4.1c0-1.4-0.2-2.5-0.5-3.4
								c-0.9-3-2.5-5-4.9-5.9c-2.4-0.9-5.2-0.9-8.6,0.1c-4.1,1.2-7,3.2-8.8,6c-1.8,2.8-2.3,5.6-1.4,8.5c0.7,2.2,1.6,3.9,2.8,5
								c1.2,1.1,2.5,1.6,3.9,1.5c0.3,0,0.4,0.1,0.5,0.2c0.1,0.2,0,0.3-0.1,0.3c-0.1,0-0.3,0.1-0.8,0.1c-0.5,0.1-1,0.2-1.6,0.2
								c-0.6,0.1-1.1,0.1-1.3,0.1c-0.7,0-1.1,0-1.2-0.1c-0.1,0-0.3-0.1-0.4-0.3c-0.5-0.8-1-1.7-1.4-2.5c-0.8-1.5-1.4-3.1-1.9-4.9
								c-0.6-1.9-0.9-3.8-0.9-5.6c0-1.8,0.3-3.6,0.9-5.3c0.6-1.7,1.7-3.3,3.3-4.6c1.6-1.4,3.6-2.4,6.1-3.2c4.1-1.2,7.7-0.9,10.8,0.9
								C415,202.7,417.2,205.9,418.5,210.3z"/>
							<path class="st0" d="M425,253c0,0.2-0.2,0.4-0.6,0.6l-19.5,8.8c-2.6,1.1-4.3,2-5.1,2.6c-0.9,0.7-1.4,1.5-1.5,2.5
								c-0.1,0.4-0.2,0.6-0.4,0.6c-0.2,0-0.3-0.1-0.3-0.3c0-0.1,0-0.5,0-1.2c0-0.7,0-1.6,0-2.6c0-1,0-1.8,0-2.5
								c0-0.4-0.1-1.1-0.1-2.2c-0.1-1.1-0.1-1.9-0.1-2.2c0-0.2,0.1-0.4,0.3-0.4c0.2,0,0.3,0.1,0.3,0.3c0.2,1.4,0.7,2.1,1.5,2.1
								c0.6,0,1.6-0.3,2.9-0.8l4.9-2l-0.3-8.5l-4.7-1.8c-1.2-0.5-2.2-0.7-2.9-0.7c-0.6,0-1,0.2-1.3,0.5c-0.3,0.3-0.4,0.8-0.4,1.5
								c0,0.3-0.1,0.5-0.3,0.5c-0.2,0-0.3-0.1-0.3-0.4c0-0.2,0-0.8,0-2c0-1.1,0-1.9,0-2.2c0-0.4-0.1-1.2-0.1-2.1
								c-0.1-1-0.1-1.6-0.1-1.8c0-0.2,0.1-0.3,0.3-0.3c0.2,0,0.3,0.1,0.3,0.4c0.1,0.9,0.7,1.6,1.6,2.3c1,0.7,2.7,1.5,5.2,2.5l14.7,6
								c0.8,0.3,1.6,0.7,2.4,1c0.8,0.3,1.4,0.6,2,0.9c0.6,0.3,0.9,0.4,1.1,0.5C424.8,252.7,425,252.9,425,253z M417.4,251.8
								l-8.6-3.3l0.3,6.9L417.4,251.8z"/>
							<path class="st0" d="M423.2,290.4c0,0.2-0.1,0.3-0.3,0.4c-3.3,1.9-7.5,4.6-12.7,7.8c-5.2,3.3-9.4,6-12.4,8l12.1,3.1
								c2.2,0.6,3.9,0.8,4.9,0.6c1-0.2,1.8-0.8,2.2-1.8c0.2-0.3,0.4-0.4,0.5-0.4c0.2,0,0.2,0.2,0.1,0.5c0,0.2-0.2,0.8-0.6,1.9
								s-0.5,1.8-0.6,2.1c-0.1,0.5-0.3,1.2-0.5,2.1c-0.2,0.9-0.3,1.5-0.3,1.6c-0.1,0.3-0.2,0.4-0.4,0.3c-0.2-0.1-0.3-0.2-0.2-0.5
								c0.1-1.2-0.1-2.1-0.7-2.5c-0.6-0.4-2.3-1-5.1-1.8c-7.9-2.1-12.6-3.4-14.2-3.8l-5.9-1.5c-0.3-0.1-0.4-0.2-0.3-0.4
								c0-0.1,0.1-0.1,0.2-0.2c0.1-0.1,0.2-0.1,0.4-0.2c0.2-0.1,0.3-0.1,0.3-0.2c12.4-7.5,20.9-12.7,25.3-15.6l-12.6-3.2
								c-2.7-0.7-4.5-1-5.2-1c-0.7,0-1.3,0.6-1.8,1.6c-0.2,0.3-0.3,0.5-0.4,0.5c-0.2-0.1-0.3-0.2-0.2-0.5c0-0.2,0.2-0.8,0.5-1.8
								c0.3-1,0.5-1.7,0.6-1.9c0.1-0.5,0.3-1.2,0.5-2.1s0.3-1.5,0.3-1.6c0.1-0.3,0.2-0.4,0.4-0.3c0.2,0,0.2,0.2,0.2,0.5
								c0,0.5,0,0.9,0.1,1.2c0.1,0.3,0.2,0.6,0.3,0.9c0.2,0.3,0.5,0.5,1,0.8c0.5,0.2,1.1,0.4,1.7,0.7c0.6,0.2,1.6,0.5,2.8,0.8
								c8.2,2.3,12.8,3.7,13.9,3.9l6,1.5C423.2,290,423.3,290.1,423.2,290.4z"/>
							<path class="st0" d="M400.4,348.3c-2.3,3.7-5.1,6.1-8.7,7.1c-3.5,1-7.1,0.4-10.7-1.8c-3.7-2.2-6.1-5.1-7-8.5
								c-1-3.4-0.3-7.1,2.1-11c1-1.6,2.1-3,3.4-4.2c1.3-1.2,2.8-2.1,4.4-2.7c1.6-0.7,3.5-0.8,5.5-0.6c2,0.3,4.2,1.1,6.3,2.4
								c3.7,2.2,5.9,5,6.8,8.4C403.4,340.9,402.6,344.5,400.4,348.3z M399.4,347.4c1.5-2.5,1.7-4.9,0.7-7.2c-1-2.4-3-4.4-6-6.2
								c-3.9-2.4-7.4-3.4-10.4-3c-3,0.4-5.3,1.9-6.9,4.5c-1.2,2-1.3,4.3-0.3,6.7c1,2.4,3.1,4.5,6.1,6.4c3.7,2.2,7,3.2,10,3.1
								C395.5,351.4,397.8,350,399.4,347.4z"/>
						</g>
					</g>
					<g>
						<g>
							<path class="st0" d="M195.5,385.3C195.5,385.3,195.5,385.2,195.5,385.3C195.5,385.2,195.5,385.2,195.5,385.3L195.5,385.3
								C195.5,385.2,195.5,385.2,195.5,385.3c-0.1-0.1-0.5,0-1,0c-1.5,0.2-4.1,0.5-6.5,0.4c-0.4,0-0.6,0-0.6,0.1c0,0,0,0,0,0
								c0,0,0,0,0,0c0,0,0,0,0,0c0,0,0,0,0,0c0,0.1,0.1,0.1,0.3,0.1c0.3,0.1,2.4,0.2,3.1,0.5c0.1,0,0.2,0.1,0.3,0.1c0,0,0,0,0.1,0
								c0.1,0,0.1,0.1,0.1,0.1c0,0,0,0,0,0c0,0.1,0.1,0.1,0.1,0.2c0,0,0,0,0,0.1c0,0.1,0,0.2,0,0.2c0,0,0,0.1,0,0.1
								c0,0.1,0,0.2-0.1,0.3c0,0,0,0.1,0,0.1c0,0.1-0.1,0.3-0.2,0.4c-0.2,0.4-0.8,1.7-1.1,2.3c0,0.1-3.1,6.2-4.4,8.9
								c-1.6,3.2-2.9,6-3.7,7.4c0,0,0,0,0,0.1c-0.1,0.1-0.1,0.2-0.2,0.3c0,0.1-0.1,0.1-0.1,0.1c0,0.1-0.1,0.1-0.1,0.2
								c-0.1,0.1-0.2,0.3-0.3,0.4c0,0,0,0-0.1,0.1c-0.1,0.1-0.2,0.2-0.3,0.2c0,0,0,0,0,0c-0.1,0.1-0.2,0.1-0.4,0.1c0,0-0.1,0-0.1,0
								c-0.1,0-0.3,0-0.4,0c0,0,0,0,0,0c-0.5,0-1.7-0.6-2-0.7c-0.1-0.1-0.2-0.1-0.2-0.1c0,0-0.1,0-0.1,0c0,0,0,0,0,0
								c0,0,0,0.1,0.5,0.4c1,0.5,3.8,1.7,4,1.8c0.2,0.1,1.9,1.1,3.5,1.8c0.7,0.3,0.8,0.3,0.8,0.2c0,0,0,0,0,0l0,0l0,0
								c0,0,0-0.1-0.2-0.2l0,0c-0.3-0.2-0.8-0.4-1.3-0.7c-0.1-0.1-0.2-0.1-0.3-0.2c0,0,0-0.1-0.1-0.1c0-0.1-0.1-0.1-0.1-0.2
								c0,0,0-0.1,0-0.1c0-0.1,0-0.1-0.1-0.2c0,0,0-0.1,0-0.1c0-0.1,0-0.1,0-0.2c0,0,0-0.1,0-0.1c0-0.1,0-0.2,0-0.2c0,0,0,0,0-0.1
								c0-0.1,0-0.2,0.1-0.3c0,0,0-0.1,0-0.1c0-0.1,0.1-0.2,0.1-0.2c0-0.1,0.1-0.3,0.2-0.4c0,0,0,0,0,0c0.6-1.5,1.9-4.4,3.5-7.7
								c3.6-7.4,5.9-12,6-12.2c0.5-1,1-1.9,1.1-2.1C195.4,385.7,195.6,385.4,195.5,385.3z"/>
							<path class="st0" d="M240.3,408.2C240.3,408.2,240.3,408.2,240.3,408.2L240.3,408.2c0-0.1,0-0.2,0-0.3c0-0.1,0-0.3,0-0.4
								c0-0.2,0-0.3,0-0.5c0-0.1,0-0.3,0-0.4c0-0.2,0-0.3-0.1-0.5c0-0.1,0-0.3-0.1-0.4c0-0.2-0.1-0.4-0.1-0.5c0-0.1,0-0.2-0.1-0.3
								c-0.1-0.3-0.1-0.5-0.2-0.7c0-0.1,0-0.1-0.1-0.2c-0.1-0.2-0.2-0.4-0.3-0.7c0-0.1-0.1-0.2-0.1-0.3c-0.1-0.2-0.2-0.3-0.2-0.5
								c-0.1-0.1-0.1-0.2-0.2-0.3c-0.1-0.1-0.2-0.3-0.3-0.4c-0.1-0.1-0.1-0.2-0.2-0.3c-0.1-0.1-0.2-0.2-0.3-0.4
								c-0.1-0.1-0.2-0.2-0.2-0.3c-0.1-0.1-0.2-0.2-0.3-0.3c-0.1-0.1-0.2-0.2-0.3-0.2c-0.1-0.1-0.2-0.2-0.4-0.3
								c-0.1-0.1-0.2-0.1-0.3-0.2c-0.1-0.1-0.3-0.2-0.4-0.2c-0.1-0.1-0.2-0.1-0.3-0.2c-0.1-0.1-0.3-0.1-0.5-0.2
								c-0.1,0-0.2-0.1-0.3-0.1c-0.2-0.1-0.4-0.1-0.5-0.2c-0.1,0-0.2-0.1-0.3-0.1c-0.3-0.1-0.6-0.1-0.9-0.2c0,0,0,0,0,0v0
								c-0.1,0-0.1,0-0.2,0l0,0c-0.3,0-0.6-0.1-0.9-0.1l0,0l0,0l0,0c-4.4-0.2-8,2.7-8.7,7.2c-0.4,3,1.1,7.2,6.3,7.9
								c1.5,0.2,3-0.1,4.3-0.8c0.4-0.3,0.6-0.4,0.6-0.5c0,0,0,0,0,0c0,0,0,0,0,0c0,0,0,0-0.1,0c-0.1,0-0.2,0.1-0.5,0.1h0
								c-0.8,0.2-1.6,0.2-2.8,0.1c0,0,0,0,0,0c-0.1,0-0.2,0-0.4-0.1c0,0-0.1,0-0.1,0c0,0,0,0,0,0c-0.1,0-0.2,0-0.3-0.1
								c0,0-0.1,0-0.1,0c0,0-0.1,0-0.1,0c-0.1,0-0.2-0.1-0.2-0.1c0,0-0.1,0-0.1-0.1c0,0-0.1,0-0.1-0.1c-0.1,0-0.2-0.1-0.2-0.1
								c0,0-0.1,0-0.1-0.1c0,0-0.1-0.1-0.1-0.1c-0.1,0-0.2-0.1-0.2-0.1c0,0,0,0-0.1,0c-0.1,0-0.1-0.1-0.2-0.1
								c-0.1-0.1-0.2-0.1-0.3-0.2c0,0,0,0,0,0c-0.1-0.1-0.1-0.1-0.2-0.2c-0.1-0.1-0.2-0.2-0.2-0.2c-0.1-0.1-0.1-0.1-0.2-0.2
								c0,0,0,0-0.1-0.1c-0.1-0.1-0.1-0.2-0.2-0.2c0-0.1-0.1-0.1-0.1-0.2c-0.1-0.1-0.1-0.2-0.2-0.3c-0.1-0.1-0.1-0.2-0.2-0.3
								c-0.1-0.1-0.1-0.2-0.1-0.3c0-0.1-0.1-0.2-0.1-0.3c0-0.1-0.1-0.2-0.1-0.3c0-0.1-0.1-0.2-0.1-0.3c0-0.1-0.1-0.2-0.1-0.4
								c0-0.1-0.1-0.3-0.1-0.4c0-0.1,0-0.3-0.1-0.4c0-0.1,0-0.3,0-0.4c0-0.1,0-0.3,0-0.4c0-0.2,0-0.3,0-0.5c0-0.1,0-0.3,0-0.4
								c0-0.3,0-0.6,0.1-0.9c0,0,0,0,0,0c0-0.2,0.1-0.3,0.1-0.5c0,0,0-0.1,0-0.1c0.1-0.3,0.2-0.6,0.3-0.9c0,0,0-0.1,0-0.1
								c0.1-0.3,0.2-0.6,0.4-0.8c0,0,0-0.1,0.1-0.1c0.1-0.2,0.3-0.5,0.5-0.7c0,0,0.1-0.1,0.1-0.1c0.9-1.1,2.3-1.7,4-1.5
								c0.1,0,0.2,0,0.3,0c0,0,0,0,0,0c0.2,0,0.4,0.1,0.5,0.1c0.1,0,0.1,0,0.2,0.1c0.1,0,0.2,0.1,0.4,0.1c0.1,0,0.1,0.1,0.2,0.1
								c0.1,0,0.2,0.1,0.3,0.2c0.1,0,0.1,0.1,0.2,0.1c0.1,0.1,0.2,0.1,0.3,0.2c0,0,0.1,0.1,0.1,0.1c0.1,0.1,0.3,0.2,0.4,0.4
								c0,0,0.1,0.1,0.1,0.1c0.1,0.1,0.2,0.2,0.3,0.3c0,0.1,0.1,0.1,0.1,0.2c0.1,0.1,0.2,0.2,0.2,0.3c0,0.1,0.1,0.1,0.1,0.2
								c0.1,0.1,0.1,0.2,0.2,0.4c0,0.1,0.1,0.1,0.1,0.2c0.1,0.2,0.2,0.3,0.2,0.5c0,0,0,0.1,0,0.1c0.1,0.2,0.2,0.4,0.2,0.7
								c0,0.1,0,0.2,0.1,0.3c0,0.2,0.1,0.3,0.1,0.5c0,0.1,0,0.2,0.1,0.3c0,0.2,0.1,0.3,0.1,0.5c0,0.1,0,0.2,0,0.3c0,0.2,0,0.4,0,0.6
								c0,0.1,0,0.2,0,0.3c0,1,0,2-0.2,3.2c-1.2,8.7-8.4,14.5-13.2,15.7c-0.6,0.2-0.7,0.3-0.7,0.3c0,0,0,0,0,0c0,0.1,0.4,0.1,0.8,0
								c3.6-0.5,12.2-4.6,15.3-12.7c0.5-1.2,0.8-2.5,1-3.9c0.1-0.4,0.1-0.9,0.1-1.3C240.3,408.3,240.3,408.3,240.3,408.2
								L240.3,408.2z"/>
							<path class="st0" d="M277,409.6c-1.7,0.4-3,1.3-3.9,2.4c-0.3,0.4-0.4,0.6-0.4,0.6c0,0,0,0,0,0c0,0,0,0,0,0l0,0c0,0,0,0,0,0
								c0,0,0.1-0.1,0.5-0.3c0.6-0.5,1.4-0.8,2.5-1.1c0.2-0.1,0.4-0.1,0.6-0.1c0.1,0,0.1,0,0.2,0c0.1,0,0.3,0,0.4,0
								c0.1,0,0.2,0,0.2,0c0.1,0,0.2,0,0.4,0c0.1,0,0.2,0,0.3,0c0.1,0,0.2,0,0.3,0.1c0.1,0,0.2,0.1,0.3,0.1c0.1,0,0.2,0.1,0.3,0.1
								c0.1,0,0.2,0.1,0.2,0.1c0.1,0,0.2,0.1,0.3,0.1c0.1,0,0.2,0.1,0.2,0.1c0.1,0.1,0.2,0.1,0.3,0.2c0.1,0.1,0.2,0.1,0.2,0.2
								c0.1,0.1,0.2,0.1,0.3,0.2c0.1,0.1,0.1,0.1,0.2,0.2c0.1,0.1,0.2,0.1,0.2,0.2c0.1,0.1,0.1,0.1,0.2,0.2c0.1,0.1,0.1,0.2,0.2,0.3
								c0.1,0.1,0.1,0.2,0.2,0.2c0.1,0.1,0.1,0.2,0.2,0.3c0.1,0.1,0.1,0.2,0.2,0.3c0.1,0.1,0.1,0.2,0.2,0.3c0.1,0.1,0.1,0.2,0.2,0.3
								c0.1,0.1,0.1,0.2,0.2,0.3c0,0.1,0.1,0.2,0.1,0.3c0.1,0.1,0.1,0.2,0.1,0.3c0,0.1,0.1,0.2,0.1,0.3c0,0.1,0.1,0.2,0.1,0.4
								c0,0.1,0.1,0.2,0.1,0.3c0.1,0.2,0.1,0.4,0.2,0.6c0.7,2.7,0.2,4.7-0.9,6c-0.1,0.2-0.3,0.3-0.5,0.5c0,0-0.1,0.1-0.1,0.1
								c-0.2,0.1-0.3,0.3-0.5,0.4c0,0-0.1,0-0.1,0.1c-0.2,0.1-0.4,0.2-0.6,0.3c0,0-0.1,0-0.1,0.1c-0.2,0.1-0.4,0.2-0.7,0.2
								c0,0,0,0,0,0c-0.1,0-0.2,0.1-0.4,0.1v0c0,0,0,0,0,0l0,0l0,0c0,0,0,0,0,0c-0.3,0-0.5,0.1-0.8,0.1c-0.1,0-0.2,0-0.2,0
								c-0.2,0-0.3,0-0.5,0c-0.1,0-0.2,0-0.3,0c-0.2,0-0.3-0.1-0.5-0.1c-0.1,0-0.2,0-0.2-0.1c-0.2-0.1-0.4-0.1-0.5-0.2
								c0,0-0.1,0-0.1-0.1c-0.2-0.1-0.4-0.3-0.6-0.4c-0.1,0-0.1-0.1-0.2-0.1c-0.2-0.1-0.3-0.2-0.5-0.4c-0.1-0.1-0.1-0.1-0.2-0.2
								c-0.1-0.1-0.3-0.3-0.4-0.4c-0.1-0.1-0.1-0.1-0.2-0.2c-0.1-0.2-0.3-0.3-0.4-0.5c-1-1.3-1.7-3-2.2-4.9
								c-0.9-3.9-0.7-7.3,0.4-10.3c0.2-0.5,0.3-0.9,0.5-1.4c0-0.1,0.1-0.2,0.2-0.3c0.2-0.3,0.3-0.7,0.5-1c0.1-0.1,0.2-0.3,0.3-0.4
								c0.2-0.3,0.3-0.5,0.5-0.8c0.1-0.2,0.2-0.3,0.3-0.5c0.2-0.2,0.3-0.5,0.5-0.7c0.1-0.1,0.2-0.3,0.4-0.4c0.2-0.2,0.4-0.4,0.6-0.6
								c0.1-0.1,0.2-0.3,0.4-0.4c0.2-0.2,0.4-0.4,0.6-0.6c0.1-0.1,0.2-0.2,0.4-0.4c0.2-0.2,0.5-0.4,0.7-0.6c0.1-0.1,0.2-0.2,0.3-0.3
								c0.4-0.3,0.7-0.6,1.1-0.8c0.5-0.3,0.9-0.7,0.9-0.8c0,0,0,0,0,0l0,0c0,0,0,0,0,0c0,0,0,0,0,0c0,0,0,0,0,0
								c0-0.1-0.5,0.1-1.3,0.5c-7.1,4.4-12.2,12.4-10.2,20.9c0.1,0.4,0.2,0.8,0.3,1.2c0,0.1,0.1,0.2,0.1,0.3
								c0.1,0.3,0.2,0.5,0.3,0.7c0.1,0.1,0.1,0.3,0.2,0.4c0.1,0.2,0.2,0.4,0.3,0.6c0.1,0.1,0.1,0.2,0.2,0.4c0.1,0.2,0.2,0.4,0.4,0.6
								c0,0.1,0.1,0.1,0.1,0.2h0c0,0.1,0.1,0.1,0.1,0.2c0,0.1,0.1,0.1,0.2,0.2c0.1,0.2,0.3,0.4,0.4,0.5c0,0,0.1,0.1,0.1,0.1
								c0.2,0.2,0.4,0.4,0.5,0.6c0.1,0.1,0.1,0.1,0.2,0.2c0.1,0.1,0.3,0.3,0.5,0.4c0.1,0,0.1,0.1,0.2,0.1c0.2,0.2,0.4,0.3,0.6,0.4
								c0,0,0.1,0,0.1,0.1c0.2,0.1,0.4,0.2,0.6,0.3c0.1,0,0.1,0.1,0.2,0.1c0.2,0.1,0.4,0.2,0.6,0.2c0,0,0.1,0,0.1,0
								c0.2,0.1,0.5,0.1,0.8,0.2c0.1,0,0.1,0,0.2,0c0.2,0,0.4,0.1,0.6,0.1c0.1,0,0.1,0,0.2,0c0.3,0,0.5,0,0.8,0c0.1,0,0.1,0,0.2,0
								c0.2,0,0.5,0,0.7-0.1c0.1,0,0.2,0,0.3,0c0.3,0,0.6-0.1,0.9-0.2c0,0,0,0,0,0c0.1,0,0.1,0,0.2-0.1v0c0,0,0,0,0,0
								c0.3-0.1,0.6-0.2,0.8-0.3c0.1,0,0.2-0.1,0.3-0.1c0.2-0.1,0.3-0.1,0.5-0.2c0.1-0.1,0.2-0.1,0.3-0.2c0.1-0.1,0.3-0.2,0.4-0.2
								c0.1-0.1,0.2-0.1,0.3-0.2c0.1-0.1,0.2-0.1,0.3-0.2l0,0c2.6-2,3.9-5.3,3.2-8.9l0,0c0-0.2-0.1-0.4-0.1-0.6l0,0
								C284.7,411.2,281.1,408.6,277,409.6z"/>
							<path class="st0" d="M327,393.1c-0.1-0.4-0.3-0.8-0.5-1.2c0,0,0-0.1-0.1-0.1l0,0c0,0,0,0,0,0l0,0c0-0.1-0.1-0.2-0.1-0.3
								c-0.1-0.1-0.1-0.3-0.2-0.4c-0.1-0.2-0.2-0.3-0.2-0.5c-0.1-0.1-0.1-0.2-0.2-0.4c-0.1-0.1-0.2-0.3-0.3-0.4
								c-0.1-0.1-0.1-0.2-0.2-0.3c-0.1-0.2-0.2-0.3-0.3-0.4c-0.1-0.1-0.1-0.2-0.2-0.3c-0.2-0.2-0.4-0.4-0.5-0.6c0,0-0.1-0.1-0.1-0.1
								c-0.2-0.2-0.4-0.3-0.5-0.5c-0.1-0.1-0.2-0.1-0.2-0.2c-0.1-0.1-0.3-0.2-0.4-0.3c-0.1-0.1-0.2-0.1-0.3-0.2
								c-0.1-0.1-0.3-0.2-0.4-0.2c-0.1-0.1-0.2-0.1-0.3-0.2c-0.1-0.1-0.3-0.1-0.4-0.2c-0.1,0-0.2-0.1-0.3-0.1
								c-0.1-0.1-0.3-0.1-0.4-0.1c-0.1,0-0.2-0.1-0.3-0.1c-0.1,0-0.3-0.1-0.5-0.1c-0.1,0-0.2,0-0.3-0.1c-0.2,0-0.3,0-0.5,0
								c-0.1,0-0.2,0-0.3,0c-0.2,0-0.3,0-0.5,0c-0.1,0-0.2,0-0.3,0c-0.2,0-0.4,0-0.6,0.1c-0.1,0-0.2,0-0.3,0
								c-0.3,0.1-0.6,0.1-0.9,0.2c0,0,0,0,0,0l0,0c-0.1,0-0.1,0-0.2,0.1l0,0c-0.3,0.1-0.6,0.2-0.9,0.3l0,0l0,0l0,0
								c-4.1,1.8-6.1,5.9-4.7,10.3c0.9,2.9,4.1,6,9.1,4.4c1.4-0.4,2.7-1.3,3.5-2.5c0.3-0.4,0.3-0.6,0.3-0.7c0,0,0,0,0,0c0,0,0,0,0,0
								c0,0,0,0,0,0c0,0,0,0-0.1,0c0,0,0,0,0,0c-0.1,0.1-0.2,0.2-0.4,0.3l0,0c-0.6,0.5-1.4,0.9-2.5,1.3c0,0,0,0,0,0
								c-0.1,0-0.2,0.1-0.4,0.1c0,0-0.1,0-0.1,0c0,0,0,0,0,0c-0.1,0-0.2,0-0.3,0c0,0-0.1,0-0.1,0c0,0-0.1,0-0.1,0
								c-0.1,0-0.2,0-0.3,0c0,0-0.1,0-0.1,0c0,0-0.1,0-0.1,0c-0.1,0-0.2,0-0.3,0c0,0-0.1,0-0.1,0c-0.1,0-0.1,0-0.2,0
								c-0.1,0-0.2,0-0.3,0c0,0-0.1,0-0.1,0c-0.1,0-0.1,0-0.2,0c-0.1,0-0.2,0-0.3-0.1c0,0,0,0,0,0c-0.1,0-0.2,0-0.2-0.1
								c-0.1,0-0.2-0.1-0.3-0.1c-0.1,0-0.2-0.1-0.2-0.1c0,0-0.1,0-0.1,0c-0.1,0-0.2-0.1-0.3-0.1c-0.1,0-0.1-0.1-0.2-0.1
								c-0.1,0-0.2-0.1-0.3-0.2c-0.1-0.1-0.2-0.1-0.3-0.2c-0.1-0.1-0.2-0.1-0.3-0.2c-0.1-0.1-0.2-0.1-0.3-0.2
								c-0.1-0.1-0.2-0.2-0.3-0.2c-0.1-0.1-0.2-0.2-0.2-0.3c-0.1-0.1-0.2-0.2-0.2-0.3c-0.1-0.1-0.2-0.2-0.2-0.3
								c-0.1-0.1-0.2-0.2-0.2-0.3c-0.1-0.1-0.1-0.2-0.2-0.4c-0.1-0.1-0.1-0.2-0.2-0.4c-0.1-0.1-0.1-0.3-0.2-0.4
								c-0.1-0.1-0.1-0.3-0.2-0.4c-0.1-0.3-0.2-0.6-0.3-0.9c0,0,0,0,0,0c0-0.1-0.1-0.3-0.1-0.4c0,0,0-0.1,0-0.1
								c-0.1-0.3-0.1-0.6-0.1-0.9c0,0,0-0.1,0-0.1c0-0.3,0-0.6,0-0.9c0,0,0-0.1,0-0.1c0-0.3,0.1-0.6,0.1-0.8c0-0.1,0-0.1,0.1-0.2
								c0.4-1.4,1.3-2.5,2.9-3.1c0.1,0,0.2-0.1,0.2-0.1c0,0,0,0,0,0c0.2-0.1,0.4-0.1,0.5-0.1c0.1,0,0.1,0,0.2,0c0.1,0,0.2,0,0.4,0
								c0.1,0,0.1,0,0.2,0c0.1,0,0.2,0,0.4,0c0.1,0,0.1,0,0.2,0c0.1,0,0.3,0,0.4,0.1c0,0,0.1,0,0.1,0c0.2,0,0.4,0.1,0.5,0.2
								c0,0,0.1,0,0.1,0.1c0.1,0.1,0.3,0.1,0.4,0.2c0.1,0,0.1,0.1,0.2,0.1c0.1,0.1,0.2,0.1,0.3,0.2c0.1,0,0.1,0.1,0.2,0.1
								c0.1,0.1,0.2,0.2,0.3,0.2c0.1,0,0.1,0.1,0.2,0.1c0.1,0.1,0.3,0.2,0.4,0.4c0,0,0.1,0.1,0.1,0.1c0.2,0.2,0.3,0.3,0.5,0.5
								c0.1,0.1,0.1,0.1,0.2,0.2c0.1,0.1,0.2,0.3,0.3,0.4c0.1,0.1,0.1,0.2,0.2,0.3c0.1,0.1,0.2,0.3,0.3,0.4c0.1,0.1,0.1,0.2,0.2,0.3
								c0.1,0.2,0.2,0.3,0.3,0.5c0,0.1,0.1,0.2,0.1,0.3c0.5,0.9,0.9,1.8,1.2,3c2.6,8.4-1.3,16.7-5.1,19.9c-0.5,0.4-0.5,0.5-0.5,0.6
								h0h0v0l0,0l0,0c0,0,0,0,0,0c0,0,0,0,0,0c0,0.1,0.4-0.1,0.8-0.4c3.1-2.1,9.5-10,8.2-19.2C327.5,395,327.3,394.1,327,393.1z"/>
						</g>
						<g>
							<circle class="st0" cx="147.4" cy="376.7" r="7.6"/>
							<g>
								<circle class="st0" cx="360.8" cy="373.7" r="7.6"/>
							</g>
						</g>
					</g>
				</g>
			</g>
		</g>
	</g>
</g>
</svg>
