<?xml version="1.0" encoding="utf-8"?>
<!-- Generator: Adobe Illustrator 24.0.2, SVG Export Plug-In . SVG Version: 6.00 Build 0)  -->
<svg version="1.1" id="Capa_2" xmlns="http://www.w3.org/2000/svg" xmlns:xlink="http://www.w3.org/1999/xlink" x="0px" y="0px"
	 viewBox="0 0 1800 603.5" style="enable-background:new 0 0 1800 603.5;" xml:space="preserve">
<style type="text/css">
	.st0{fill:#191A1C;}
	.st1{fill:#FFFFFF;}
	.st2{fill:#29C2E6;}
	.st3{fill:#095383;}
	.st4{fill:#1E3261;}
	.st5{fill:url(#SVGID_1_);}
	.st6{fill:url(#SVGID_2_);stroke:url(#SVGID_3_);stroke-miterlimit:10;}
</style>
<g>
	<rect x="4.1" y="4.9" class="st0" width="1791.7" height="593.8"/>
	<g>
		<g>
			<path class="st1" d="M224,450.8H83.9v-333h55.7v283.5H224V450.8z"/>
			<path class="st1" d="M303.5,450.8h-57.6v-333h57.6V450.8z"/>
			<path class="st1" d="M615.2,117.7h-31.6c-36.8,0-66.6,29.8-66.6,66.6v199.8c0,36.8,29.8,66.6,66.6,66.6h31.6
				c36.8,0,66.6-29.8,66.6-66.6V184.4C681.8,147.6,652,117.7,615.2,117.7z M627.3,379.7c0,13.8-11.2,25-25,25h-5.9
				c-13.8,0-25-11.2-25-25V187c0-13.8,11.2-25,25-25h5.9c13.8,0,25,11.2,25,25V379.7z"/>
			<path class="st2" d="M937.4,450.8h-57.8V255.1l-33.7,195.7h-44.6l-38.7-195.7v195.7h-50.6v-333h76.5l36.4,213.6l32.5-213.6h80
				V450.8z"/>
			<path class="st3" d="M1144.5,450.8h-54.9l-9.4-62.2h-61.8l-9.5,62.2h-49l50.2-333h84.1L1144.5,450.8z M1071.3,341.5l-22.7-144.2
				l-22,144.2H1071.3z"/>
			<path class="st4" d="M1337.3,450.8H1277l-58.2-217.2v217.2h-52.2v-333h70.5l51,181v-181h49.3V450.8z"/>
			<path class="st1" d="M443.4,234.1v-44.1c0-7.7-3.1-14.7-8.2-19.8c-5.1-5.1-12.1-8.2-19.8-8.2c-15.4,0-28,12.5-28,28v186.9
				c0,15.4,12.5,28,28,28c15.4,0,28-12.5,28-28v-53.7h50.8V386c0,35.8-29,64.8-64.8,64.8h-31.6c-35.8,0-64.8-29-64.8-64.8V182.5
				c0-35.8,29-64.8,64.8-64.8h31.6c35.8,0,64.8,29,64.8,64.8v51.5H443.4z"/>
		</g>
		<g>
			<linearGradient id="SVGID_1_" gradientUnits="userSpaceOnUse" x1="36.8378" y1="301.734" x2="1763.1622" y2="301.734">
				<stop  offset="0" style="stop-color:#17C1EE"/>
				<stop  offset="0.5" style="stop-color:#1467A1"/>
				<stop  offset="1" style="stop-color:#000000"/>
			</linearGradient>
			<path class="st5" d="M1759.2,342.3v105.5h-42.8l-3.9,0l-4.2,19.1h-61.9l-6.4-12.3h-258.3c-4.9,4-10,7.9-15.4,11.7
				c-7.2,5.1-14.8,10-22.9,14.8c-0.3,0.2-0.5,0.3-0.8,0.5c-8.5,5-17.5,9.8-27,14.4c-6.2,3-12.5,5.9-19,8.8
				c-13.5,5.9-27.8,11.3-42.7,16.3c-2.6,1-5.4,1.9-8.3,2.7c-32.6,9.4-81.2,10.4-92.3,10.6l-2.3,0l-167.4,0.6c0,0,0,0,0,0l-180.3,0.6
				c0,0,0,0,0,0l-675.8,2.4c-8.6,0-16.8-1.3-24.6-3.7c-33.4-10.3-57.8-41.1-57.8-77.2V131.8c0-31.9,19.1-59.7,46.5-72.8
				c5.9-2.3,15.7-6.7,30.8-6.6c3.1,0,5.6-0.8,5.6-4.2c0-3.4-2.5-3.2-5.6-3.2h-8.2c-8.6,0-7.3,1.3-15.2,3.7
				c-6.9,2.1-13.3,4.1-19.4,7.8c-9.7,6-18.2,11.9-24.9,21.1c-10.1,14-18.1,31.2-18.1,49.7v342.5c0,18.5,6,35.7,16.1,49.7
				c3.9,5.4,8.4,10.3,13.5,14.7c9,7.8,19.6,13.7,31.3,17.2c7.7,2.3,8.2,3.6,16.6,3.6l846.4,2.9h0l79.7,0.3h0l73.7,0.3h0.1
				c0,0,1,0,2.9,0c12.5,0,63-0.4,108.1-7.2c0.1,0,0.1,0,0.2,0c16.2-2.9,31.9-6.5,47-10.9h0c6.8-2,13.5-4.1,20.1-6.3
				c7.8-2.7,15.5-5.5,22.9-8.6v0c4.2-1.7,8.4-3.5,12.5-5.4c5.3-2.4,10.5-4.9,15.6-7.5c21.6-11,40.9-23.8,57.6-37.9H1640l6.4,12.3
				h64.2l4.2-20.1h48.3V342.3H1759.2z"/>
			<linearGradient id="SVGID_2_" gradientUnits="userSpaceOnUse" x1="84.1235" y1="494.6837" x2="1285.6226" y2="494.6837">
				<stop  offset="0" style="stop-color:#17C1EE"/>
				<stop  offset="0.5" style="stop-color:#1467A1"/>
				<stop  offset="1" style="stop-color:#000000"/>
			</linearGradient>
			<linearGradient id="SVGID_3_" gradientUnits="userSpaceOnUse" x1="84.1107" y1="494.6404" x2="1288.9893" y2="494.6404">
				<stop  offset="0" style="stop-color:#17C1EE"/>
				<stop  offset="0.5056" style="stop-color:#1467A1"/>
				<stop  offset="0.5092" style="stop-color:#13639B"/>
				<stop  offset="0.5348" style="stop-color:#0F4C77"/>
				<stop  offset="0.5636" style="stop-color:#0B3757"/>
				<stop  offset="0.5954" style="stop-color:#07263B"/>
				<stop  offset="0.6313" style="stop-color:#051825"/>
				<stop  offset="0.6733" style="stop-color:#030D14"/>
				<stop  offset="0.7252" style="stop-color:#010609"/>
				<stop  offset="0.7979" style="stop-color:#000102"/>
				<stop  offset="1" style="stop-color:#000000"/>
			</linearGradient>
			<path class="st6" d="M1285.6,479.3c-51.4,17-111.4,27.8-175.8,30.3l-56.7,0l-968.9,0.5L909,488.9L1285.6,479.3z"/>
		</g>
	</g>
</g>
</svg>
