<?xml version="1.0" encoding="utf-8"?>
<!-- Generator: Adobe Illustrator 24.0.2, SVG Export Plug-In . SVG Version: 6.00 Build 0)  -->
<svg version="1.1" id="Capa_1" xmlns="http://www.w3.org/2000/svg" xmlns:xlink="http://www.w3.org/1999/xlink" x="0px" y="0px"
	 viewBox="0 0 1800 1800" style="enable-background:new 0 0 1800 1800;" xml:space="preserve">
<style type="text/css">
	.st0{fill:url(#SVGID_1_);}
</style>
<g>
	<g>
		<path d="M219.1,1369.6h33.1l41.3,124.4l41.7-124.4h33l29.9,178.3h-32.8l-19.1-112.6l-37.9,112.6h-29.9l-37.5-112.6l-19.6,112.6
			h-33.1L219.1,1369.6z"/>
		<path d="M453.3,1369.6h97.3v33.2H487v32.2h63.6v32.6H487v46.9h63.6v33.3h-97.3V1369.6z"/>
		<path d="M592.8,1369.6h98.5v33.5h-32.5v144.8h-34.4v-144.8h-31.6V1369.6z"/>
		<path d="M744.9,1369.6h36c19.7,0,33.7,1.8,42.1,5.3c8.4,3.5,15.1,9.4,20.2,17.5c5.1,8.2,7.6,17.8,7.6,29c0,11.7-2.8,21.5-8.4,29.4
			c-5.6,7.9-14.1,13.8-25.4,17.9l42.2,79.3h-37.1l-40.1-75.5h-3.1v75.5h-33.9V1369.6z M778.9,1439.3h10.6c10.8,0,18.2-1.4,22.3-4.3
			c4.1-2.8,6.1-7.5,6.1-14.1c0-3.9-1-7.3-3-10.2c-2-2.9-4.7-4.9-8.1-6.2c-3.4-1.3-9.6-1.9-18.6-1.9h-9.3V1439.3z"/>
		<path d="M998.8,1365.1c25.2,0,46.9,9.1,65.1,27.4c18.2,18.3,27.2,40.5,27.2,66.8c0,26-9,48-26.9,66.1c-17.9,18-39.6,27-65.2,27
			c-26.8,0-49-9.3-66.7-27.8c-17.7-18.5-26.6-40.5-26.6-65.9c0-17,4.1-32.7,12.4-47s19.6-25.6,34-34
			C966.6,1369.3,982.2,1365.1,998.8,1365.1z M998.5,1398.4c-16.5,0-30.4,5.7-41.6,17.2c-11.2,11.5-16.9,26.1-16.9,43.8
			c0,19.7,7.1,35.3,21.2,46.8c11,9,23.6,13.5,37.9,13.5c16.1,0,29.8-5.8,41.1-17.5c11.3-11.6,17-26,17-43c0-17-5.7-31.3-17.1-43.1
			C1028.7,1404.2,1014.8,1398.4,998.5,1398.4z"/>
		<path d="M1244.7,1393.9l-25.1,22.2c-8.8-12.3-17.8-18.4-27-18.4c-4.5,0-8.1,1.2-10.9,3.6c-2.8,2.4-4.2,5.1-4.2,8.1
			c0,3,1,5.8,3,8.5c2.8,3.6,11,11.2,24.9,22.9c13,10.8,20.8,17.7,23.6,20.5c6.9,7,11.8,13.6,14.6,19.9c2.9,6.3,4.3,13.3,4.3,20.8
			c0,14.6-5.1,26.7-15.2,36.2c-10.1,9.5-23.3,14.3-39.6,14.3c-12.7,0-23.8-3.1-33.2-9.3c-9.4-6.2-17.5-16-24.2-29.3l28.5-17.2
			c8.6,15.8,18.5,23.6,29.6,23.6c5.8,0,10.7-1.7,14.7-5.1s5.9-7.3,5.9-11.8c0-4-1.5-8.1-4.5-12.1c-3-4-9.6-10.2-19.8-18.5
			c-19.4-15.8-32-28.1-37.6-36.7c-5.7-8.6-8.5-17.2-8.5-25.8c0-12.4,4.7-23,14.1-31.8c9.4-8.8,21.1-13.3,34.9-13.3
			c8.9,0,17.4,2.1,25.4,6.2C1226.6,1375.4,1235.4,1383,1244.7,1393.9z"/>
		<path d="M1307.1,1369.6h34.1v115.3c0,9.9,0.9,17,2.6,21.1c1.7,4.1,4.6,7.4,8.6,9.9c4,2.5,8.8,3.7,14.5,3.7c6,0,11.1-1.4,15.5-4.1
			c4.3-2.7,7.3-6.2,9-10.5c1.7-4.2,2.5-12.3,2.5-24.3v-111.1h34.1v106.3c0,17.9-1,30.4-3,37.3c-2,7-5.9,13.7-11.6,20.1
			c-5.7,6.5-12.3,11.3-19.7,14.4c-7.4,3.1-16.1,4.7-25.9,4.7c-12.9,0-24.2-3-33.8-8.9c-9.6-5.9-16.4-13.4-20.5-22.3
			c-4.1-8.9-6.2-24-6.2-45.3V1369.6z"/>
		<path d="M1497.5,1369.6h36c19.7,0,33.7,1.8,42.1,5.3s15.1,9.4,20.2,17.5c5.1,8.2,7.6,17.8,7.6,29c0,11.7-2.8,21.5-8.4,29.4
			c-5.6,7.9-14.1,13.8-25.4,17.9l42.2,79.3h-37.1l-40.1-75.5h-3.1v75.5h-33.9V1369.6z M1531.5,1439.3h10.6c10.8,0,18.2-1.4,22.3-4.3
			c4.1-2.8,6.1-7.5,6.1-14.1c0-3.9-1-7.3-3-10.2c-2-2.9-4.7-4.9-8.1-6.2c-3.4-1.3-9.6-1.9-18.6-1.9h-9.3V1439.3z"/>
	</g>
	<linearGradient id="SVGID_1_" gradientUnits="userSpaceOnUse" x1="654.4867" y1="295.3406" x2="1074.7935" y2="1171.3483">
		<stop  offset="0" style="stop-color:#FBAA1D"/>
		<stop  offset="0.2679" style="stop-color:#F8A81D"/>
		<stop  offset="0.4533" style="stop-color:#EFA31D"/>
		<stop  offset="0.6138" style="stop-color:#E09A1C"/>
		<stop  offset="0.7601" style="stop-color:#CA8E1B"/>
		<stop  offset="0.8956" style="stop-color:#AE7E1A"/>
		<stop  offset="0.9747" style="stop-color:#9A7219"/>
	</linearGradient>
	<path class="st0" d="M1309.9,950c-46.1,96.6-124,178.9-227.7,229.5c-98.2,47.9-204.7,60.1-304.5,41.5
		c87.6-14.5,186.6-47.2,285.6-97.7C1162.2,1072.9,1246.7,1012.3,1309.9,950z M1035.3,1014.2c-172.6,91.8-345,132.5-461.3,117.9
		c22.3,16.6,45.9,31.1,70.4,43.6c112.4,0.9,260.7-37.7,409.7-113.6c121.5-61.9,222.6-138,291.2-213.5c7.3-31.6,11.5-64,12.4-96.7
		C1292.8,842.1,1178.7,938,1035.3,1014.2z M1286.7,484c-7.7,13.9-16.4,27.9-26.1,42.1c-15.5,22.8-33.4,45.9-53.5,68.8c0,0,0,0,0,0
		c-71.4,81.9-169.7,161.6-281.3,218.5C798,878.5,664.9,916.4,555,924.6c-22.3,1.7-43.5,2.1-63.6,1.3c-13.8-0.5-27-1.7-39.6-3.4
		c-15.4-2.1-29.8-5.1-43.2-8.9c5.2,13.4,10.9,26.8,17.4,39.9c1.6,3.3,3.2,6.5,4.9,9.7c0,0,0,0,0,0c1.7,0.9,3.5,1.8,5.4,2.6
		c8.9,4.2,18.4,7.8,28.7,10.9c14.4,4.3,30.1,7.6,46.9,9.7c114.2,14.4,279.9-22.1,446.3-106.8c140.2-71.4,259.4-179,330.8-281.5
		c11.6-16.6,21.9-33.1,30.9-49.3c-2.5-5.9-5.1-11.8-7.8-17.7c-1.2-2.7-2.5-5.3-3.8-7.9C1301.5,509.7,1294.4,496.6,1286.7,484z
		 M670.4,288.6c-67,25.7-110.8,74-97.9,107.7s77.8,40.3,144.8,14.6s110.8-74,97.9-107.7C802.3,269.4,737.5,262.9,670.4,288.6z
		 M1184.8,364.3c-8.8-7.5-17.9-14.7-27.2-21.5c-17.9,111.8-132.9,244.5-320,335.8c-191.3,93.3-365.5,104.2-461.2,47
		c-0.5,20.5,0.2,41.1,2.3,61.7l0,0c1,10.4,2.4,20.8,4.1,31.1C484,878,682.1,859.9,879.2,763.8c185.8-90.6,324.5-233.9,355.3-350.9
		C1219,395.4,1202.4,379.2,1184.8,364.3z M1035.9,277.7c-4.3,84.3-109.6,194.4-260.2,267.9c-155.8,76-302.9,73.3-365.8,14.4
		c-9.4,24-16.9,48.8-22.4,74l0,0c-1.4,6.5-2.7,13-3.8,19.5c87.1,54.3,255.3,41.2,422.1-36.6C975.1,538,1096.3,414,1108.3,311.1
		C1085.1,298,1060.9,286.8,1035.9,277.7z M1339.5,610.2C1277,710.7,1148.3,822.9,982.6,911c-187.5,99.7-374.1,142.9-493.1,123.4
		l-15.4-2.1l11.4,14.6c6,7.4,12.1,14.6,18.4,21.5c113.5,34.1,308.2-1.1,504.1-101c160.4-81.7,285.3-188.2,346.8-285.5l0,0
		c-2.8-23.8-7.3-47.7-13.7-71.3C1340.5,610.5,1340,610.3,1339.5,610.2z M909.7,249.5c-12.5-1.1-25-1.7-37.6-1.9
		c-18.1-0.2-36.3,0.6-54.4,2.4c20.1,6,35.5,17,43.4,33.1c24.3,49.9-34.1,114.8-122.5,157.9c-88.3,43.1-193.1,41.8-217.5-8.1
		c-6.3-13-6.4-27-1.4-41.3c-17.8,17.9-34.1,36.9-48.8,57.1c-5.1,7-10.1,14.2-14.8,21.5c1.1,5.5,3,10.8,5.5,16.1
		c34.1,69.9,181.1,71.8,305.1,11.3S965.9,347,931.8,277.1C926.5,266.2,919,257.1,909.7,249.5z"/>
</g>
</svg>
