<?xml version="1.0" encoding="utf-8"?>
<!-- Generator: Adobe Illustrator 24.0.2, SVG Export Plug-In . SVG Version: 6.00 Build 0)  -->
<svg version="1.1" id="Capa_1" xmlns="http://www.w3.org/2000/svg" xmlns:xlink="http://www.w3.org/1999/xlink" x="0px" y="0px"
	 viewBox="0 0 1800 934.4" style="enable-background:new 0 0 1800 934.4;" xml:space="preserve">
<style type="text/css">
	.st0{stroke:#FFFFFF;stroke-width:0.8623;stroke-miterlimit:10;}
	.st1{fill:#C3AD7E;}
	.st2{fill:#808080;}
</style>
<g>
	<g>
		<path class="st0" d="M533.3,853.2H78c-4.7,0-8.5-3.8-8.5-8.5V89.7c0-4.7,3.8-8.5,8.5-8.5h455.3c4.7,0,8.5,3.8,8.5,8.5v755.1
			C541.8,849.4,538,853.2,533.3,853.2z"/>
		<path class="st1" d="M451.3,408.8l1.6-0.6h-1.2h-28.5h-35.8h-55.6h-50.9h-66.5h-55.8v65.3v197v30.1v27.8v30h42.2h6.4h7.2v-87.8
			v-70V474.1h65.6v123.4c0,0,5.3,125.2-49.6,161.4c0,0,90.3,5.4,104.4-156V474.1h57v130.6c0,0,1.8,125.2-43.5,154.2
			c0,0,88.9,3.6,105.2-141.5V474.1v-1.2v-64.1H451.3z"/>
	</g>
	<g>
		<path class="st2" d="M1561.7,498.8c4.3-8.9,9.3-15.1,14.9-18.7c5.6-3.5,13.7-5.3,24.4-5.3c10.2,0,18.3,1.8,24.1,5.3
			c5.8,3.5,10.9,9.8,15.2,18.7l90.2,190.8H1683l-24.6-53.7h-115.1l-24.3,53.7h-47.5L1561.7,498.8z M1554.9,607.3h91.9l-38.9-86.4
			c-0.7-1.6-1.6-3.5-2.7-5.6c-1.1-2.1-2.5-3.2-4.1-3.2c-1.6,0-3,1.1-4.1,3.2c-1.1,2.1-2.1,4-2.7,5.6L1554.9,607.3z"/>
		<path class="st2" d="M1181.8,689.5l-79.2-95.8l-27.4,23.7v72.1h-46.6V478.2h46.6v87.5l99.3-87.5h62.9l-101,89.7L1240,689.5H1181.8
			z"/>
		<path class="st2" d="M1411.2,689.5l-79.2-95.8l-27.4,23.7v72.1H1258V478.2h46.6v87.5l99.3-87.5h62.9l-101,89.7l103.5,121.6H1411.2
			z"/>
		<path class="st2" d="M948.9,690.7V477.2h40.3v213.5H948.9z"/>
		<path class="st2" d="M906.6,524.4v-21.6c0-0.6,0-1.2,0-1.8c0-0.6-0.1-1.1-0.1-1.6c-0.8-8-4.2-14-10.5-17.9
			c-7.1-4.5-16.9-6.7-29.4-6.7c-7.1,0-13,0.7-17.9,2.1c-3.9,1.1-7.2,2.6-10,4.5c-0.7,0.5-1.4,1-2.1,1.5c-3.2,2.5-5.8,5.5-8,8.8
			c-2,3.2-3.8,6.5-5.4,9.9c-0.1,0.2-0.2,0.4-0.3,0.6l-64,142.4c-1.2,2.2-2.3,4.1-3.4,5.6c-1,1.5-2.1,2.2-3.2,2.3c-0.1,0-0.1,0-0.2,0
			c-0.1,0-0.1,0-0.2,0c-1.1-0.1-2.2-0.8-3.2-2.3c-1.1-1.5-2.2-3.4-3.4-5.6l-64-142.4c-0.1-0.2-0.2-0.4-0.3-0.6
			c-1.6-3.4-3.4-6.7-5.4-9.9c-2.1-3.4-4.8-6.3-8-8.8c-0.6-0.5-1.3-1-2.1-1.5c-2.8-1.8-6.1-3.3-10-4.5c-4.8-1.4-10.8-2.1-17.9-2.1
			c-12.5,0-22.3,2.2-29.4,6.7c-6.2,3.9-9.7,9.9-10.5,17.9c-0.1,0.5-0.1,1.1-0.1,1.6c0,0.6,0,1.2,0,1.8v190.2l0.1-0.3v0.2h3.6h41.5
			h0.5V524c0.1-0.6,0.2-1.6,0.5-3c0.1-0.5,0.7-0.7,1-0.3c1.2,1.7,2,3.2,2.5,4.4L711,667.6c1.9,4.1,3.8,7.7,5.7,11
			c1.9,3.3,4.2,5.9,6.9,8.1c2.7,2.1,5.9,3.8,9.6,4.9c3.7,1.1,14,1.7,19.2,1.7c0,0,0,0,0,0c0,0,0,0,0,0c5.2,0,15.5-0.6,19.2-1.7
			c3.7-1.1,6.8-2.7,9.6-4.9c2.7-2.1,5-4.8,6.9-8.1c1.9-3.2,3.8-6.9,5.7-11l63.3-142.4c0.5-1.2,1.3-2.7,2.5-4.4
			c0.3-0.4,0.9-0.2,1,0.3c0.3,1.8,0.5,3,0.5,3.4l0,0L860.4,693h46.3V524.4H906.6z"/>
	</g>
</g>
</svg>
