<?xml version="1.0" encoding="utf-8"?>
<!-- Generator: Adobe Illustrator 24.0.2, SVG Export Plug-In . SVG Version: 6.00 Build 0)  -->
<svg version="1.1" id="Capa_1" xmlns="http://www.w3.org/2000/svg" xmlns:xlink="http://www.w3.org/1999/xlink" x="0px" y="0px"
	 viewBox="0 0 1800 1116.1" style="enable-background:new 0 0 1800 1116.1;" xml:space="preserve">
<style type="text/css">
	.st0{fill:#1F5093;}
	.st1{fill:#FFFFFF;}
</style>
<g>
	<g>
		<g>
			<path d="M117.3,875.7l19.9-53.6H167v2.2h-2.4c-2.2,0-3.9,0.4-5.2,1.3c-0.9,0.6-1.6,1.5-2.2,2.8c-0.4,1-0.6,3.5-0.6,7.5v53.6
				c0,4.2,0.2,6.8,0.6,7.8c0.4,1,1.2,2,2.4,2.7c1.2,0.8,2.9,1.2,4.9,1.2h2.4v2.2h-38.3v-2.2h2.4c2.2,0,3.9-0.4,5.2-1.3
				c0.9-0.6,1.6-1.5,2.2-2.9c0.4-1,0.6-3.5,0.6-7.6v-60.3l-28.1,74.2h-1.3l-28.5-73.7v57.3c0,4,0.1,6.5,0.3,7.4
				c0.5,2,1.5,3.6,3.1,4.9c1.6,1.3,4,1.9,7.4,1.9v2.2H66.7v-2.2h0.8c1.6,0,3.1-0.2,4.5-0.9c1.4-0.6,2.5-1.4,3.2-2.5
				c0.7-1,1.3-2.5,1.7-4.4c0.1-0.4,0.1-2.5,0.1-6.1v-51.5c0-4.1-0.2-6.7-0.6-7.7c-0.4-1-1.2-1.9-2.4-2.7c-1.2-0.8-2.9-1.2-4.9-1.2
				h-2.3v-2.2h29.9L117.3,875.7z"/>
			<path d="M207.2,821c11.7-0.5,21.2,3.3,28.5,11.3c7.3,8,10.9,18.1,10.9,30.2c0,10.3-2.7,19.4-8.2,27.2
				c-7.2,10.4-17.4,15.6-30.5,15.6c-13.2,0-23.4-5-30.6-14.9c-5.7-7.8-8.5-17.1-8.5-27.9c0-12.1,3.7-22.1,11.1-30.2
				C187.3,824.3,196.4,820.5,207.2,821z M207.8,824.8c-6.7,0-11.8,3.8-15.3,11.4c-2.8,6.2-4.3,15.2-4.3,26.9
				c0,13.9,2.2,24.1,6.6,30.8c3.1,4.6,7.4,7,12.9,7c3.7,0,6.8-1,9.3-3c3.2-2.6,5.6-6.6,7.4-12.3c1.8-5.6,2.6-12.9,2.6-22
				c0-10.8-0.9-18.8-2.7-24.1c-1.8-5.3-4.1-9.1-6.9-11.3C214.7,825.9,211.5,824.8,207.8,824.8z"/>
			<path d="M276.2,826.8v33.1h1.5c4.6,0,8-1.6,10.1-4.9c2.1-3.2,3.4-8,4-14.3h2.1v42.6h-2.1c-0.4-4.6-1.3-8.4-2.7-11.4
				c-1.4-3-3-4.9-4.8-6c-1.8-1-4.5-1.5-8-1.5v22.9c0,4.5,0.2,7.2,0.5,8.2c0.3,1,1,1.8,1.9,2.5c0.9,0.6,2.5,1,4.5,1h4.4
				c6.8,0,12.3-1.8,16.5-5.3s7.1-8.9,8.9-16.1h2l-3.3,25.9h-63.3v-2.2h2.4c2.1,0,3.8-0.4,5.1-1.3c0.9-0.6,1.7-1.5,2.2-2.9
				c0.4-1,0.6-3.5,0.6-7.6V836c0-3.7-0.1-5.9-0.3-6.8c-0.4-1.4-1-2.5-2-3.2c-1.4-1.1-3.2-1.7-5.6-1.7h-2.4v-2.2h61.3v24.1h-2.1
				c-1-5.9-2.5-10.1-4.4-12.7c-1.9-2.6-4.6-4.4-8-5.6c-2-0.7-5.8-1.1-11.3-1.1H276.2z"/>
			<path d="M385.2,874.9l-2.8,28.6h-65.1v-2.2h2.4c2.1,0,3.8-0.4,5.1-1.3c0.9-0.6,1.7-1.5,2.2-2.9c0.4-1,0.6-3.5,0.6-7.6V836
				c0-4.2-0.2-6.8-0.6-7.8c-0.4-1-1.2-2-2.4-2.7c-1.2-0.8-2.8-1.2-4.9-1.2h-2.4v-2.2h39.1v2.2h-3.2c-2.1,0-3.8,0.4-5.1,1.3
				c-0.9,0.6-1.7,1.5-2.2,2.9c-0.4,1-0.6,3.5-0.6,7.6v51.8c0,4.2,0.2,6.8,0.6,8c0.4,1.1,1.3,2,2.5,2.5c0.9,0.4,3.1,0.5,6.5,0.5h6.1
				c3.9,0,7.1-0.8,9.7-2.3c2.6-1.5,4.8-3.9,6.7-7.2c1.9-3.3,3.7-8.1,5.4-14.5H385.2z"/>
			<path d="M454.5,874.9l-2.8,28.6h-65.1v-2.2h2.4c2.1,0,3.8-0.4,5.1-1.3c0.9-0.6,1.7-1.5,2.2-2.9c0.4-1,0.6-3.5,0.6-7.6V836
				c0-4.2-0.2-6.8-0.6-7.8c-0.4-1-1.2-2-2.4-2.7c-1.2-0.8-2.8-1.2-4.9-1.2h-2.4v-2.2h39.1v2.2h-3.2c-2.1,0-3.8,0.4-5.1,1.3
				c-0.9,0.6-1.7,1.5-2.2,2.9c-0.4,1-0.6,3.5-0.6,7.6v51.8c0,4.2,0.2,6.8,0.6,8c0.4,1.1,1.3,2,2.5,2.5c0.9,0.4,3.1,0.5,6.5,0.5h6.1
				c3.9,0,7.1-0.8,9.7-2.3c2.6-1.5,4.8-3.9,6.7-7.2c1.9-3.3,3.7-8.1,5.4-14.5H454.5z"/>
			<path d="M484,826.8v33.1h1.5c4.6,0,8-1.6,10.1-4.9c2.1-3.2,3.4-8,4-14.3h2.1v42.6h-2.1c-0.4-4.6-1.3-8.4-2.7-11.4
				c-1.4-3-3-4.9-4.8-6c-1.8-1-4.5-1.5-8-1.5v22.9c0,4.5,0.2,7.2,0.5,8.2c0.3,1,1,1.8,1.9,2.5c0.9,0.6,2.5,1,4.5,1h4.4
				c6.8,0,12.3-1.8,16.5-5.3c4.1-3.5,7.1-8.9,8.9-16.1h2l-3.3,25.9h-63.3v-2.2h2.4c2.1,0,3.8-0.4,5.1-1.3c0.9-0.6,1.7-1.5,2.2-2.9
				c0.4-1,0.6-3.5,0.6-7.6V836c0-3.7-0.1-5.9-0.3-6.8c-0.4-1.4-1-2.5-2-3.2c-1.4-1.1-3.2-1.7-5.6-1.7h-2.4v-2.2h61.3v24.1h-2.1
				c-1-5.9-2.5-10.1-4.4-12.7c-1.9-2.6-4.6-4.4-8-5.6c-2-0.7-5.8-1.1-11.3-1.1H484z"/>
			<path d="M552.6,866.4v22.8c0,4.4,0.2,7.2,0.7,8.3c0.5,1.1,1.3,2,2.6,2.7c1.2,0.7,3.5,1,6.9,1v2.2h-37.5v-2.2c3.4,0,5.7-0.3,6.9-1
				c1.2-0.7,2.1-1.6,2.5-2.7c0.5-1.1,0.7-3.9,0.7-8.3v-52.8c0-4.4-0.2-7.2-0.7-8.3c-0.5-1.1-1.3-2-2.6-2.7c-1.2-0.7-3.5-1-6.9-1
				v-2.2h34c8.9,0,15.3,0.7,19.5,2c4.1,1.4,7.5,3.9,10.1,7.5c2.6,3.7,3.9,7.9,3.9,12.9c0,6-1.9,11-5.8,14.9c-2.5,2.5-6,4.3-10.4,5.6
				l17.6,27.5c2.3,3.6,3.9,5.8,4.9,6.7c1.5,1.2,3.2,1.9,5.1,2v2.2H581l-23.6-37.1H552.6z M552.6,826.5v35.6h3.1
				c5,0,8.8-0.5,11.2-1.5c2.5-1,4.4-2.9,5.9-5.5c1.4-2.7,2.1-6.1,2.1-10.4c0-6.2-1.3-10.8-3.9-13.7c-2.6-3-6.8-4.4-12.6-4.4H552.6z"
				/>
			<path d="M606.5,925v-2.6c4.2-2,7.2-4.6,9.1-7.8c1.9-3.2,2.8-6.4,2.8-9.7c0-0.7-0.1-1.2-0.4-1.6c-0.3-0.3-0.5-0.5-0.8-0.5
				c-0.2,0-0.5,0.1-1,0.4c-1,0.7-2.3,1-3.9,1c-2.1,0-4-0.9-5.5-2.8c-1.6-1.8-2.4-4-2.4-6.5c0-2.6,0.9-5,2.7-7c1.8-2,4-3,6.5-3
				c3.1,0,5.7,1.3,7.9,4c2.2,2.7,3.3,6.3,3.3,10.9c0,5.7-1.6,10.8-4.7,15.2C617.2,919.7,612.6,922.9,606.5,925z"/>
			<path d="M721.2,820.3v28.7h-2c-2.4-7.8-6-13.8-10.9-17.9c-4.8-4.1-10.1-6.1-15.8-6.1c-5.5,0-10,1.7-13.7,5.1
				c-3.6,3.4-6.2,8.2-7.7,14.3c-1.5,6.1-2.3,12.4-2.3,18.8c0,7.8,0.8,14.6,2.5,20.5c1.7,5.9,4.3,10.2,8,13c3.7,2.8,8.1,4.1,13.2,4.1
				c1.8,0,3.6-0.2,5.4-0.6c1.9-0.4,3.8-1,5.7-1.8v-16.9c0-3.2-0.2-5.3-0.6-6.2c-0.4-0.9-1.2-1.8-2.5-2.6c-1.2-0.8-2.7-1.1-4.5-1.1
				h-1.9v-2.2h35.6v2.2c-2.7,0.2-4.6,0.6-5.6,1.2c-1.1,0.6-1.9,1.6-2.5,3.1c-0.3,0.8-0.5,2.6-0.5,5.6v16.9
				c-4.7,2.3-9.6,4.1-14.6,5.3c-5.1,1.2-10.3,1.8-15.8,1.8c-7,0-12.7-1-17.3-3.1c-4.6-2.1-8.6-4.9-12.2-8.3
				c-3.5-3.4-6.3-7.3-8.2-11.5c-2.5-5.5-3.8-11.7-3.8-18.5c0-12.2,3.9-22.6,11.6-31c7.7-8.4,17.5-12.7,29.2-12.7
				c3.6,0,6.9,0.3,9.8,1c1.6,0.3,4.2,1.2,7.7,2.7c3.5,1.5,5.6,2.3,6.3,2.3c1,0,1.9-0.4,2.8-1.2c0.9-0.8,1.7-2.4,2.4-4.6H721.2z"/>
			<path d="M769.1,821c11.7-0.5,21.2,3.3,28.5,11.3c7.3,8,10.9,18.1,10.9,30.2c0,10.3-2.7,19.4-8.2,27.2
				c-7.2,10.4-17.4,15.6-30.5,15.6c-13.2,0-23.4-5-30.6-14.9c-5.7-7.8-8.5-17.1-8.5-27.9c0-12.1,3.7-22.1,11.1-30.2
				C749.2,824.3,758.3,820.5,769.1,821z M769.8,824.8c-6.7,0-11.8,3.8-15.3,11.4c-2.8,6.2-4.3,15.2-4.3,26.9
				c0,13.9,2.2,24.1,6.6,30.8c3.1,4.6,7.4,7,12.9,7c3.7,0,6.8-1,9.3-3c3.2-2.6,5.6-6.6,7.4-12.3c1.8-5.6,2.6-12.9,2.6-22
				c0-10.8-0.9-18.8-2.7-24.1c-1.8-5.3-4.1-9.1-6.9-11.3C776.6,825.9,773.4,824.8,769.8,824.8z M786,794.3l-17.9,20.8h-4.6l6.3-20.8
				H786z"/>
			<path d="M860.7,875.7l19.9-53.6h29.8v2.2H908c-2.2,0-3.9,0.4-5.2,1.3c-0.9,0.6-1.6,1.5-2.2,2.8c-0.4,1-0.6,3.5-0.6,7.5v53.6
				c0,4.2,0.2,6.8,0.6,7.8c0.4,1,1.2,2,2.4,2.7c1.2,0.8,2.9,1.2,4.9,1.2h2.4v2.2h-38.3v-2.2h2.4c2.2,0,3.9-0.4,5.2-1.3
				c0.9-0.6,1.6-1.5,2.2-2.9c0.4-1,0.6-3.5,0.6-7.6v-60.3l-28.1,74.2h-1.3l-28.5-73.7v57.3c0,4,0.1,6.5,0.3,7.4
				c0.5,2,1.5,3.6,3.1,4.9c1.6,1.3,4,1.9,7.4,1.9v2.2h-25.1v-2.2h0.8c1.6,0,3.1-0.2,4.5-0.9c1.4-0.6,2.5-1.4,3.2-2.5
				c0.7-1,1.3-2.5,1.7-4.4c0.1-0.4,0.1-2.5,0.1-6.1v-51.5c0-4.1-0.2-6.7-0.6-7.7c-0.4-1-1.2-1.9-2.4-2.7c-1.2-0.8-2.9-1.2-4.9-1.2
				h-2.3v-2.2h29.9L860.7,875.7z"/>
			<path d="M938,826.8v33.1h1.5c4.6,0,8-1.6,10.1-4.9c2.1-3.2,3.4-8,4-14.3h2.1v42.6h-2.1c-0.4-4.6-1.3-8.4-2.7-11.4
				c-1.4-3-3-4.9-4.8-6c-1.8-1-4.5-1.5-8-1.5v22.9c0,4.5,0.2,7.2,0.5,8.2c0.3,1,1,1.8,1.9,2.5c0.9,0.6,2.5,1,4.5,1h4.4
				c6.8,0,12.3-1.8,16.5-5.3c4.1-3.5,7.1-8.9,8.9-16.1h2l-3.3,25.9h-63.3v-2.2h2.4c2.1,0,3.8-0.4,5.1-1.3c0.9-0.6,1.7-1.5,2.2-2.9
				c0.4-1,0.6-3.5,0.6-7.6V836c0-3.7-0.1-5.9-0.3-6.8c-0.4-1.4-1-2.5-2-3.2c-1.4-1.1-3.2-1.7-5.6-1.7h-2.4v-2.2h61.3v24.1h-2.1
				c-1-5.9-2.5-10.1-4.4-12.7c-1.9-2.6-4.6-4.4-8-5.6c-2-0.7-5.8-1.1-11.3-1.1H938z"/>
			<path d="M1044.7,822.1l-43.1,76.8h13.9c6.6,0,11.2-0.5,13.8-1.4c4.3-1.4,8-4.1,11.1-7.9c3.1-3.9,5.2-9,6.4-15.5h2.1l-3,29.4H979
				l43.1-76.9h-10.9c-4.2,0-7,0.1-8.3,0.4c-2.5,0.5-4.9,1.6-7.1,3.1c-2.2,1.5-4.1,3.6-5.5,6.1c-1.5,2.6-2.6,5.8-3.4,9.7h-2l2-23.8
				H1044.7z"/>
			<path d="M1084.3,881.4h-31.5V869h31.5V881.4z"/>
			<path d="M1148.7,874.9l-2.8,28.6h-65.1v-2.2h2.4c2.1,0,3.8-0.4,5.1-1.3c0.9-0.6,1.7-1.5,2.2-2.9c0.4-1,0.6-3.5,0.6-7.6V836
				c0-4.2-0.2-6.8-0.6-7.8c-0.4-1-1.2-2-2.4-2.7c-1.2-0.8-2.8-1.2-4.9-1.2h-2.4v-2.2h39.1v2.2h-3.2c-2.1,0-3.8,0.4-5.1,1.3
				c-0.9,0.6-1.7,1.5-2.2,2.9c-0.4,1-0.6,3.5-0.6,7.6v51.8c0,4.2,0.2,6.8,0.6,8c0.4,1.1,1.3,2,2.5,2.5c0.9,0.4,3.1,0.5,6.5,0.5h6.1
				c3.9,0,7.1-0.8,9.7-2.3c2.6-1.5,4.8-3.9,6.7-7.2c1.9-3.3,3.7-8.1,5.4-14.5H1148.7z"/>
			<path d="M1188.6,901.2v2.2h-38.3v-2.2h2.4c2.1,0,3.8-0.4,5.1-1.3c0.9-0.6,1.7-1.5,2.2-2.9c0.4-1,0.6-3.5,0.6-7.6V836
				c0-4.2-0.2-6.8-0.6-7.8c-0.4-1-1.2-2-2.4-2.7c-1.2-0.8-2.8-1.2-4.9-1.2h-2.4v-2.2h38.3v2.2h-2.4c-2.1,0-3.8,0.4-5.1,1.3
				c-0.9,0.6-1.7,1.5-2.2,2.9c-0.4,1-0.6,3.5-0.6,7.6v53.5c0,4.2,0.2,6.8,0.6,7.8c0.4,1,1.2,2,2.4,2.7c1.2,0.8,2.8,1.2,4.9,1.2
				H1188.6z"/>
			<path d="M1214.2,822.1l36.2,50.5v-35c0-4.9-0.6-8.2-1.9-9.9c-1.7-2.3-4.6-3.4-8.7-3.4v-2.2h24.2v2.2c-3.1,0.4-5.2,1-6.2,1.7
				c-1.1,0.7-1.9,1.8-2.5,3.4c-0.6,1.6-0.9,4.3-0.9,8.1v67.7h-1.8l-49.6-67.7v51.7c0,4.7,1,7.8,2.9,9.5c1.9,1.6,4.1,2.5,6.6,2.5h1.7
				v2.2h-26v-2.2c4,0,6.8-1,8.4-2.8c1.6-1.8,2.4-4.9,2.4-9.2v-57.4l-1.6-2.2c-1.5-2.2-2.9-3.6-4.1-4.3c-1.2-0.7-2.9-1.1-5.1-1.1
				v-2.2H1214.2z"/>
			<path d="M1335.9,820.3v28.2h-2.1c-1.6-7.4-4.5-13-8.9-16.9c-4.3-3.9-9.2-5.9-14.7-5.9c-4.6,0-8.8,1.5-12.6,4.4
				c-3.8,2.9-6.6,6.7-8.4,11.5c-2.3,6-3.4,12.8-3.4,20.2c0,7.3,0.8,13.9,2.5,19.9c1.7,6,4.3,10.5,7.8,13.6c3.5,3.1,8.1,4.6,13.7,4.6
				c4.6,0,8.8-1.1,12.7-3.4c3.8-2.2,7.9-6.1,12.1-11.6v7c-4.1,4.8-8.4,8.2-12.8,10.3c-4.5,2.1-9.6,3.2-15.6,3.2
				c-7.8,0-14.8-1.7-20.8-5.2c-6.1-3.5-10.8-8.5-14.1-15c-3.3-6.5-4.9-13.5-4.9-20.8c0-7.8,1.8-15.1,5.5-22.1
				c3.7-7,8.6-12.4,14.8-16.2c6.2-3.8,12.8-5.8,19.8-5.8c5.2,0,10.6,1.2,16.3,3.7c3.3,1.4,5.4,2.2,6.3,2.2c1.2,0,2.2-0.5,3-1.4
				c0.8-0.9,1.4-2.4,1.6-4.5H1335.9z"/>
			<path d="M1367.6,826.8v33.1h1.5c4.6,0,8-1.6,10.1-4.9c2.1-3.2,3.4-8,4-14.3h2.1v42.6h-2.1c-0.4-4.6-1.3-8.4-2.7-11.4
				c-1.4-3-3-4.9-4.8-6c-1.8-1-4.5-1.5-8-1.5v22.9c0,4.5,0.2,7.2,0.5,8.2c0.3,1,1,1.8,1.9,2.5c0.9,0.6,2.4,1,4.5,1h4.4
				c6.8,0,12.3-1.8,16.5-5.3s7.1-8.9,8.9-16.1h2l-3.3,25.9h-63.3v-2.2h2.4c2.1,0,3.8-0.4,5.1-1.3c0.9-0.6,1.7-1.5,2.2-2.9
				c0.4-1,0.6-3.5,0.6-7.6V836c0-3.7-0.1-5.9-0.3-6.8c-0.4-1.4-1-2.5-2-3.2c-1.4-1.1-3.2-1.7-5.6-1.7h-2.4v-2.2h61.3v24.1h-2.1
				c-1-5.9-2.5-10.1-4.4-12.7c-1.9-2.6-4.6-4.4-8-5.6c-2-0.7-5.8-1.1-11.3-1.1H1367.6z"/>
			<path d="M1492.9,854.8h22.5v2.3c-2.5,0.4-4.5,1.2-5.9,2.5s-3.3,4.2-5.6,8.8c-2.3,4.6-5.5,9.7-9.7,15.4c3.7,3.7,6.7,6.2,9,7.7
				c1.6,1,3.2,1.5,4.8,1.5c2.7,0,5.1-1.9,7.2-5.8l2.2,1.3c-3,6.4-6.1,11-9.5,13.7c-2.6,2-5.5,3.1-8.8,3.1c-2.8,0-5.5-0.7-8-2
				c-2.5-1.3-5.6-3.8-9.3-7.5c-4.5,3.4-8.7,5.8-12.7,7.3c-4,1.5-8.1,2.2-12.4,2.2c-6.8,0-12.3-2.1-16.3-6.2s-6.1-9-6.1-14.5
				c0-6,1.9-11.2,5.8-15.7c3.9-4.4,9.5-8.3,16.8-11.5c-0.9-2.6-1.6-5.1-2.1-7.6c-0.5-2.5-0.7-4.9-0.7-7.2c0-6.4,2-11.7,6.1-16
				c4.1-4.3,9.2-6.4,15.5-6.4c5.1,0,9.1,1.4,12.1,4.2c3,2.8,4.5,6.1,4.5,9.9c0,4.5-1.5,8.4-4.6,11.6c-3,3.2-7.9,6.2-14.5,8.8
				c4.1,8,10,16.5,17.9,25.7c5.3-6.6,7.9-12.3,7.9-17c0-1.7-0.5-3.1-1.6-4.3c-1-1.2-2.6-1.9-4.6-2.1V854.8z M1458.4,861.3
				c-2.9,1.4-4.9,2.8-6.1,4.3c-1.7,2.2-2.5,4.7-2.5,7.5c0,3.8,1,7.5,2.9,11.2c2,3.7,4.3,6.6,7.1,8.6s5.5,3.1,8.3,3.1
				c1.4,0,2.9-0.3,4.6-1c1.7-0.7,3.6-1.6,5.6-3C1469.6,882.2,1463,871.9,1458.4,861.3z M1471.4,851.2c3.8-1.6,6.3-3.2,7.6-5
				c1.3-1.8,1.9-3.9,1.9-6.4c0-4.5-1.1-8.3-3.2-11.3c-1.4-2-3.1-3.1-5.2-3.1c-1.7,0-3.1,0.7-4.4,2.2c-1.2,1.5-1.8,3.5-1.8,6
				c0,2,0.3,4.1,0.9,6.3C1467.8,842.1,1469.2,845.9,1471.4,851.2z"/>
			<path d="M1614.5,820.3v28.2h-2.1c-1.6-7.4-4.5-13-8.9-16.9c-4.3-3.9-9.2-5.9-14.7-5.9c-4.6,0-8.8,1.5-12.6,4.4
				c-3.8,2.9-6.6,6.7-8.4,11.5c-2.3,6-3.4,12.8-3.4,20.2c0,7.3,0.8,13.9,2.5,19.9c1.7,6,4.3,10.5,7.8,13.6c3.5,3.1,8.1,4.6,13.7,4.6
				c4.6,0,8.8-1.1,12.7-3.4c3.8-2.2,7.9-6.1,12.1-11.6v7c-4.1,4.8-8.4,8.2-12.8,10.3c-4.5,2.1-9.6,3.2-15.6,3.2
				c-7.8,0-14.8-1.7-20.8-5.2c-6.1-3.5-10.8-8.5-14.1-15c-3.3-6.5-4.9-13.5-4.9-20.8c0-7.8,1.8-15.1,5.5-22.1
				c3.7-7,8.6-12.4,14.8-16.2c6.2-3.8,12.8-5.8,19.8-5.8c5.2,0,10.6,1.2,16.3,3.7c3.3,1.4,5.4,2.2,6.3,2.2c1.2,0,2.2-0.5,3-1.4
				c0.8-0.9,1.4-2.4,1.6-4.5H1614.5z"/>
			<path d="M1656.6,901.2v2.2h-38.3v-2.2h2.4c2.1,0,3.8-0.4,5.1-1.3c0.9-0.6,1.7-1.5,2.2-2.9c0.4-1,0.6-3.5,0.6-7.6V836
				c0-4.2-0.2-6.8-0.6-7.8c-0.4-1-1.2-2-2.4-2.7s-2.8-1.2-4.9-1.2h-2.4v-2.2h38.3v2.2h-2.4c-2.1,0-3.8,0.4-5.1,1.3
				c-0.9,0.6-1.7,1.5-2.2,2.9c-0.4,1-0.6,3.5-0.6,7.6v53.5c0,4.2,0.2,6.8,0.6,7.8c0.4,1,1.2,2,2.4,2.7c1.2,0.8,2.8,1.2,4.9,1.2
				H1656.6z M1653.8,794.3l-17.9,20.8h-4.6l6.3-20.8H1653.8z"/>
			<path d="M1700.6,880.3h-25.9l-3.1,7.9c-1,2.6-1.5,4.8-1.5,6.5c0,2.3,0.8,4,2.5,5c1,0.6,3.4,1.1,7.2,1.4v2.2h-24.4v-2.2
				c2.6-0.4,4.8-1.6,6.5-3.6s3.8-6.1,6.3-12.3l26.2-64.9h1l26.4,66.7c2.5,6.3,4.6,10.3,6.2,11.9c1.2,1.2,3,2,5.2,2.2v2.2h-35.5v-2.2
				h1.5c2.8,0,4.8-0.4,6-1.3c0.8-0.6,1.2-1.6,1.2-2.8c0-0.7-0.1-1.5-0.3-2.2c-0.1-0.4-0.6-1.9-1.6-4.5L1700.6,880.3z M1698.8,875.9
				l-10.9-28l-11.2,28H1698.8z"/>
		</g>
		<g>
			<g>
				<g>
					<path d="M738.9,983.1l14.9-40.9h5.5l15.9,40.9h-5.9l-4.5-12.4h-16.3l-4.2,12.4H738.9z M750,966.3h13.2l-4-11.3
						c-1.2-3.5-2.2-6.3-2.7-8.5c-0.5,2.6-1.2,5.2-2.1,7.8L750,966.3z"/>
					<path d="M782.3,983.1v-40.9h14.5c2.9,0,5.3,0.4,7,1.2c1.7,0.8,3.1,2,4.2,3.7c1.1,1.7,1.6,3.5,1.6,5.5c0,1.9-0.5,3.6-1.4,5.1
						c-0.9,1.5-2.3,2.7-4,3.6c2.2,0.7,4,1.9,5.3,3.6c1.3,1.7,1.9,3.8,1.9,6.3c0,2.5-0.6,4.6-1.8,6.5c-1.2,1.9-2.7,3.2-4.7,4.1
						c-2,0.8-4.6,1.3-8.1,1.3H782.3z M787.4,959.4h8.4c2.2,0,3.8-0.1,4.7-0.4c1.3-0.4,2.4-1,3.1-2s1.1-2.2,1.1-3.8
						c0-1.5-0.3-2.7-1-3.7s-1.5-1.7-2.6-2c-1.1-0.4-3-0.6-5.9-0.6h-7.8V959.4z M787.4,978.3h9.6c2.1,0,3.7-0.2,4.7-0.5
						c1.5-0.5,2.6-1.3,3.3-2.4c0.8-1.1,1.1-2.5,1.1-4.2c0-1.5-0.4-2.8-1.1-3.9c-0.7-1.1-1.7-1.9-3-2.3c-1.2-0.5-3.2-0.7-5.8-0.7h-9
						V978.3z"/>
					<path d="M818,963.2c0-7,1.8-12.3,5.3-16.1c3.5-3.7,8-5.6,13.2-5.6c3.4,0,6.5,0.8,9.3,2.5c2.8,1.7,5,4.1,6.7,7.3s2.5,7,2.5,11.4
						c0,6.1-1.6,11-4.8,14.8c-3.5,4.2-8.1,6.3-13.8,6.3c-5.7,0-10.3-2.2-13.8-6.5C819.6,973.5,818,968.7,818,963.2z M823.3,963.3
						c0,5,1.3,9,3.8,11.7c2.6,2.8,5.7,4.2,9.4,4.2c3.8,0,6.9-1.4,9.5-4.2c2.5-2.8,3.8-6.9,3.8-12.4c0-3.5-0.7-6.7-2-9.4
						c-1-2.1-2.5-3.8-4.6-5.1c-2-1.3-4.2-1.9-6.7-1.9c-3.9,0-7,1.4-9.5,4.2C824.5,953.1,823.3,957.5,823.3,963.3z"/>
					<path d="M881.9,967.1v-4.8l16.4,0v15.2c-2.5,2.1-5.1,3.7-7.8,4.8c-2.7,1.1-5.4,1.6-8.3,1.6c-3.8,0-7.1-0.8-10.1-2.5
						c-3-1.6-5.3-4-7-7.2s-2.6-6.9-2.6-11.3c0-4.5,0.9-8.4,2.6-11.7c1.7-3.3,4-5.8,6.8-7.3c2.8-1.6,6.1-2.4,10-2.4
						c2.8,0,5.3,0.5,7.4,1.4c2.1,0.9,3.9,2.2,5.3,3.9c1.4,1.7,2.4,4,3.1,6.9L893,955c-0.6-2.3-1.4-4-2.4-5.2c-0.9-1.1-2.2-2-3.7-2.7
						s-3.3-1-5.2-1c-2.8,0-5.2,0.6-7.3,1.8c-2,1.2-3.7,3-4.9,5.5c-1.2,2.5-1.9,5.5-1.9,9.1c0,5.5,1.3,9.6,4,12.3
						c2.6,2.7,6.1,4.1,10.3,4.1c2,0,4.1-0.4,6.2-1.3s3.8-1.8,5-3v-7.6H881.9z"/>
					<path d="M904.8,983.1l14.9-40.9h5.5l15.9,40.9h-5.9l-4.5-12.4h-16.3l-4.2,12.4H904.8z M915.9,966.3h13.2l-4-11.3
						c-1.2-3.5-2.2-6.3-2.7-8.5c-0.5,2.6-1.2,5.2-2.1,7.8L915.9,966.3z"/>
					<path d="M948.2,983.1v-40.9h13.4c3.3,0,5.8,0.3,7.5,0.8c2.3,0.7,4.2,1.8,5.9,3.6c1.7,1.7,2.9,3.9,3.9,6.5s1.4,5.8,1.4,9.4
						c0,4.6-0.8,8.6-2.4,11.8s-3.6,5.5-6,6.9c-2.5,1.3-5.7,2-9.6,2H948.2z M953.4,978.3h8.2c3.3,0,5.9-0.5,7.6-1.4s3-2.5,4-4.5
						c1.2-2.8,1.8-6.1,1.8-10c0-4.1-0.6-7.4-1.9-9.8s-3-4-5-4.8c-1.4-0.5-3.6-0.8-6.5-0.8h-8.1V978.3z"/>
					<path d="M986.9,963.2c0-7,1.8-12.3,5.3-16.1c3.5-3.7,8-5.6,13.2-5.6c3.4,0,6.5,0.8,9.3,2.5c2.8,1.7,5,4.1,6.7,7.3
						s2.5,7,2.5,11.4c0,6.1-1.6,11-4.8,14.8c-3.5,4.2-8.1,6.3-13.8,6.3c-5.7,0-10.3-2.2-13.8-6.5
						C988.4,973.5,986.9,968.7,986.9,963.2z M992.1,963.3c0,5,1.3,9,3.8,11.7c2.6,2.8,5.7,4.2,9.4,4.2c3.8,0,6.9-1.4,9.5-4.2
						c2.5-2.8,3.8-6.9,3.8-12.4c0-3.5-0.7-6.7-2-9.4c-1-2.1-2.5-3.8-4.6-5.1c-2-1.3-4.2-1.9-6.7-1.9c-3.9,0-7,1.4-9.5,4.2
						C993.4,953.1,992.1,957.5,992.1,963.3z"/>
					<path d="M1029.6,970l4.8-0.4c0.3,2.3,0.8,4,1.8,5.3c0.9,1.3,2.2,2.3,3.9,3c1.7,0.8,3.6,1.1,5.7,1.1c3,0,5.4-0.6,7.1-1.9
						c1.7-1.3,2.5-3,2.5-5c0-1.2-0.3-2.3-0.9-3.2c-0.6-0.9-1.5-1.6-2.8-2.2c-1.2-0.6-3.9-1.4-8-2.4c-3.6-0.9-6.2-1.9-7.8-2.8
						c-1.5-0.9-2.7-2.2-3.6-3.6s-1.3-3.1-1.3-5c0-3.3,1.2-6,3.7-8.1c2.5-2.1,5.8-3.2,10-3.2c2.9,0,5.4,0.5,7.6,1.5
						c2.2,1,3.8,2.4,5,4.2c1.2,1.8,1.8,4,1.9,6.5l-4.9,0.4c-0.3-2.7-1.2-4.6-2.8-5.9c-1.6-1.3-3.8-1.9-6.7-1.9
						c-2.9,0-5.1,0.6-6.6,1.7c-1.5,1.1-2.3,2.6-2.3,4.4c0,1.7,0.6,2.9,1.7,3.8s3.6,1.8,7.5,2.8c3.8,0.9,6.5,1.7,8,2.4
						c2.4,1,4.1,2.4,5.3,4.1c1.2,1.7,1.8,3.7,1.8,6.1c0,2.3-0.6,4.5-1.9,6.4c-1.3,1.9-3,3.4-5.2,4.4c-2.2,1-4.8,1.5-7.9,1.5
						c-4.8,0-8.6-1.2-11.4-3.7C1031.1,977.6,1029.7,974.2,1029.6,970z"/>
				</g>
				<g>
					<path d="M760.2,1064.1v-40.9h25.1v4.8h-20.5v12.5H784v4.8h-19.2v13.9h21.3v4.8H760.2z"/>
					<path d="M820.5,1049.8l4.6,1.4c-1,4.6-2.8,8-5.4,10.3s-5.6,3.4-9.3,3.4c-3.2,0-6-0.8-8.2-2.3s-4.1-3.9-5.6-7.3
						s-2.2-7.3-2.2-11.9c0-4.5,0.7-8.3,2.2-11.4c1.5-3.1,3.4-5.5,5.9-7.1c2.5-1.6,5.3-2.4,8.3-2.4c3.3,0,6.2,1,8.6,3
						c2.4,2,4.1,5,5.1,8.9l-4.5,1.3c-1.5-5.7-4.6-8.5-9.3-8.5c-2.3,0-4.3,0.6-6,1.7c-1.7,1.1-3,2.9-4.1,5.3c-1,2.4-1.5,5.5-1.5,9.2
						c0,5.6,1,9.8,3.1,12.6c2,2.8,4.8,4.2,8.1,4.2c2.5,0,4.7-0.9,6.5-2.6S819.9,1053.2,820.5,1049.8z"/>
					<path d="M857,1023.2h4.6v23.6c0,4-0.4,7.2-1.2,9.7c-0.8,2.5-2.2,4.5-4.4,6c-2.1,1.5-4.8,2.2-8,2.2c-4.6,0-8-1.3-10.3-4
						c-2.3-2.6-3.4-7.3-3.4-14v-23.6h4.6v23.6c0,3.7,0.3,6.4,0.9,8c0.6,1.7,1.6,2.9,2.9,3.8c1.4,0.9,3,1.3,4.9,1.3
						c3.3,0,5.6-0.9,7.1-2.7s2.2-5.3,2.2-10.4V1023.2z"/>
					<path d="M876.2,1064.1l13.4-40.9h4.9l14.2,40.9h-5.3l-4-12.4h-14.6l-3.8,12.4H876.2z M886.1,1047.3H898l-3.6-11.3
						c-1.1-3.5-1.9-6.3-2.5-8.5c-0.4,2.6-1.1,5.2-1.9,7.8L886.1,1047.3z"/>
					<path d="M919.3,1064.1v-40.9h12c3,0,5.2,0.3,6.8,0.8c2,0.7,3.8,1.8,5.3,3.6c1.5,1.7,2.6,3.9,3.5,6.5c0.8,2.6,1.2,5.8,1.2,9.4
						c0,4.6-0.7,8.6-2.1,11.8s-3.2,5.5-5.4,6.9s-5.1,2-8.6,2H919.3z M923.9,1059.3h7.4c3,0,5.2-0.5,6.8-1.4c1.5-0.9,2.7-2.5,3.5-4.5
						c1.1-2.8,1.6-6.1,1.6-10c0-4.1-0.6-7.4-1.7-9.8c-1.2-2.4-2.7-4-4.5-4.8c-1.2-0.5-3.2-0.8-5.9-0.8h-7.3V1059.3z"/>
					<path d="M957.8,1044.2c0-7,1.6-12.3,4.8-16.1c3.2-3.7,7.1-5.6,11.9-5.6c3.1,0,5.8,0.8,8.4,2.5c2.5,1.7,4.5,4.1,6,7.3
						c1.5,3.2,2.2,7,2.2,11.4c0,6.1-1.4,11-4.3,14.8c-3.1,4.2-7.2,6.3-12.3,6.3c-5.1,0-9.2-2.2-12.3-6.5
						C959.2,1054.4,957.8,1049.7,957.8,1044.2z M962.5,1044.2c0,5,1.1,9,3.4,11.7s5.1,4.2,8.4,4.2c3.4,0,6.2-1.4,8.5-4.2
						c2.3-2.8,3.4-6.9,3.4-12.4c0-3.5-0.6-6.7-1.8-9.4c-0.9-2.1-2.3-3.8-4.1-5.1c-1.8-1.3-3.8-1.9-6-1.9c-3.5,0-6.3,1.4-8.6,4.2
						S962.5,1038.4,962.5,1044.2z"/>
					<path d="M1002.6,1064.1v-40.9h15.4c3.2,0,5.6,0.4,7.1,1.1c1.5,0.8,2.8,2,3.8,3.8c1,1.8,1.5,3.8,1.5,6.2c0,3.1-0.8,5.6-2.5,7.5
						c-1.7,1.9-4.1,3.1-7.3,3.7c1.3,0.7,2.3,1.5,2.9,2.3c1.4,1.6,2.6,3.3,3.6,5.2l6.1,11.1h-5.8l-4.6-8.5c-1.8-3.3-3.1-5.6-4.1-6.7
						c-0.9-1.2-1.8-1.9-2.7-2.3c-0.9-0.4-2.1-0.6-3.6-0.6h-5.3v18.2H1002.6z M1007.2,1041.2h9.9c2.2,0,3.8-0.3,4.9-0.8
						c1.1-0.5,2-1.3,2.7-2.4c0.7-1.1,1-2.3,1-3.8c0-2.1-0.6-3.7-1.9-4.9s-3.1-1.8-5.6-1.8h-11V1041.2z"/>
				</g>
			</g>
			<rect x="612.1" y="995.5" width="596.7" height="5.4"/>
		</g>
	</g>
	<g>
		<ellipse class="st0" cx="918.8" cy="407" rx="499" ry="301.3"/>
		<path class="st1" d="M1235.5,484.5c-5.5,0-10.6-2.4-14-6.2c-0.4-0.5-0.9-1-1.2-1.6c-1-1.6-1.5-3.3-1.6-4l-0.1-0.3v0L1162,241.6
			l-2.7-11.1h62.8V198H947.5l-37.1,37.1L873.4,198H598.9v32.5h62.8l-2.7,11.1l-56.8,231.9l0,0c-0.3,1.4-1,2.5-1.5,3.2
			c-3.3,4.7-9,7.7-15.2,7.7h-37.1v32.9h155.2v-33.1H675c-6.3,0-11.4-4-13.5-9.3l-0.1-0.2c0,0,0,0,0,0c-0.9-2.6-1.1-5.5-0.4-8.5
			l20.8-80.2c0.1-0.3,0.1-0.6,0.2-0.9L711.6,271v0c3.3-12.7,14.7-21.6,27.9-21.6h108.1c15.3,0,27.5,12.7,27,28v0.2l-7.2,173.8
			l-1.2,28.1l-3.5,85.2c-0.5,11.9-10.3,21.3-22.2,21.3h-72.7v41.5h285.5v-41.5h-72.7c-11.9,0-21.7-9.4-22.2-21.3l-3.5-85.2
			l-1.2-28.1l-7.2-173.8v-0.2c-0.5-15.3,11.7-28,27-28h108.1c13.1,0,24.6,8.9,27.9,21.6v0l29.6,114.2c0.1,0.3,0.2,0.6,0.2,0.9
			l20.8,80.2c0.8,2.9,0.6,5.9-0.4,8.5c0,0,0,0,0,0l-0.1,0.2c-2,5.4-7.2,9.3-13.5,9.3h-28.6v33.1h155.2v-32.9H1235.5z"/>
		<path class="st0" d="M913,51.4c-306.8,0-555.4,158.1-555.4,353.1c0,195.1,248.7,353.2,555.4,353.2
			c306.8,0,555.4-158.1,555.4-353.2C1468.5,209.5,1219.8,51.4,913,51.4z M914.4,729.3c-290.3,0-525.7-145.4-525.7-324.7
			c0-179.3,235.4-324.7,525.7-324.7c290.3,0,525.7,145.4,525.7,324.7C1440,583.9,1204.7,729.3,914.4,729.3z"/>
	</g>
</g>
</svg>
