<?xml version="1.0" encoding="utf-8"?>
<!-- Generator: Adobe Illustrator 24.0.2, SVG Export Plug-In . SVG Version: 6.00 Build 0)  -->
<svg version="1.1" id="Capa_1" xmlns="http://www.w3.org/2000/svg" xmlns:xlink="http://www.w3.org/1999/xlink" x="0px" y="0px"
	 viewBox="0 0 1470 900" style="enable-background:new 0 0 1470 900;" xml:space="preserve">
<style type="text/css">
	.st0{fill:#113E82;}
</style>
<g id="_x33_">
	<g>
		<g>
			<path class="st0" d="M762.3,776.6h-15.8v-9.7h43.2v9.7h-15.8v43h-11.6V776.6z"/>
			<path class="st0" d="M800.6,780.4c12,0,19.8,8,19.8,20.2c0,12.1-7.8,20.1-19.8,20.1c-12,0-19.7-8-19.7-20.1
				C780.9,788.4,788.6,780.4,800.6,780.4z M800.6,812.7c7.2,0,9.3-6.1,9.3-12.2c0-6.1-2.1-12.3-9.3-12.3c-7.1,0-9.2,6.1-9.2,12.3
				C791.3,806.6,793.5,812.7,800.6,812.7z"/>
			<path class="st0" d="M850,814.7h-0.1c-2.4,4.1-6.7,5.9-11.6,5.9c-11.5,0-17.1-9.9-17.1-20.5c0-10.3,5.7-19.8,16.9-19.8
				c4.5,0,8.9,1.9,11.3,5.7h0.1v-19.2h10.5v52.7h-10V814.7z M840.8,788.3c-6.9,0-9.2,5.9-9.2,12.2c0,6,2.7,12.3,9.2,12.3
				c6.9,0,9-6.1,9-12.3C849.8,794.2,847.6,788.3,840.8,788.3z"/>
			<path class="st0" d="M881.9,780.4c12,0,19.8,8,19.8,20.2c0,12.1-7.8,20.1-19.8,20.1c-12,0-19.7-8-19.7-20.1
				C862.2,788.4,870,780.4,881.9,780.4z M881.9,812.7c7.2,0,9.3-6.1,9.3-12.2c0-6.1-2.1-12.3-9.3-12.3c-7.1,0-9.2,6.1-9.2,12.3
				C872.7,806.6,874.8,812.7,881.9,812.7z"/>
			<path class="st0" d="M920.2,781.4h10v4.9h0.1c2.5-4.1,6.6-5.9,11.4-5.9c12,0,17.4,9.7,17.4,20.5c0,10.2-5.6,19.7-16.8,19.7
				c-4.6,0-8.9-2-11.4-5.8h-0.1V833h-10.5V781.4z M948.5,800.6c0-6.1-2.4-12.3-9.2-12.3c-6.9,0-9.1,6.1-9.1,12.3s2.4,12.1,9.2,12.1
				C946.3,812.7,948.5,806.8,948.5,800.6z"/>
			<path class="st0" d="M960.4,793.2c0.6-9.8,9.4-12.8,17.9-12.8c7.6,0,16.8,1.7,16.8,10.9v19.9c0,3.5,0.4,6.9,1.3,8.5h-10.6
				c-0.4-1.2-0.7-2.4-0.7-3.7c-3.3,3.5-8.2,4.7-12.8,4.7c-7.2,0-13-3.6-13-11.4c0-8.6,6.5-10.7,13-11.6c6.4-1,12.4-0.7,12.4-5
				c0-4.5-3.1-5.2-6.8-5.2c-4,0-6.6,1.6-6.9,5.8H960.4z M984.6,800.9c-1.8,1.6-5.5,1.6-8.7,2.2c-3.2,0.7-6.2,1.8-6.2,5.6
				c0,3.9,3,4.9,6.4,4.9c8.2,0,8.5-6.5,8.5-8.8V800.9z"/>
			<path class="st0" d="M998.8,781.4h10v7.1h0.1c1.9-4.8,7.1-8.1,12.2-8.1c0.7,0,1.6,0.1,2.3,0.4v9.7c-1-0.2-2.5-0.4-3.8-0.4
				c-7.7,0-10.3,5.5-10.3,12.3v17.2h-10.5V781.4z"/>
			<path class="st0" d="M1022.6,793.2c0.6-9.8,9.4-12.8,17.9-12.8c7.6,0,16.8,1.7,16.8,10.9v19.9c0,3.5,0.4,6.9,1.3,8.5H1048
				c-0.4-1.2-0.7-2.4-0.7-3.7c-3.3,3.5-8.2,4.7-12.8,4.7c-7.2,0-13-3.6-13-11.4c0-8.6,6.5-10.7,13-11.6c6.4-1,12.4-0.7,12.4-5
				c0-4.5-3.1-5.2-6.8-5.2c-4,0-6.6,1.6-6.9,5.8H1022.6z M1046.9,800.9c-1.8,1.6-5.5,1.6-8.7,2.2c-3.2,0.7-6.2,1.8-6.2,5.6
				c0,3.9,3,4.9,6.4,4.9c8.2,0,8.5-6.5,8.5-8.8V800.9z"/>
			<path class="st0" d="M1090.4,781.4h7.7v7h-7.7v18.9c0,3.5,0.9,4.4,4.4,4.4c1.1,0,2.1-0.1,3.2-0.3v8.2c-1.8,0.3-4.1,0.4-6.1,0.4
				c-6.4,0-12-1.5-12-9.1v-22.5h-6.3v-7h6.3V770h10.5V781.4z"/>
			<path class="st0" d="M1134.5,819.6h-10v-5.3h-0.2c-2.7,4.3-7.2,6.3-11.7,6.3c-11.1,0-14-6.3-14-15.7v-23.5h10.5V803
				c0,6.3,1.8,9.4,6.7,9.4c5.7,0,8.1-3.2,8.1-10.9v-20h10.5V819.6z"/>
			<path class="st0" d="M1154.1,781.4h10v5.3h0.2c2.7-4.3,7.2-6.3,11.7-6.3c11.1,0,14,6.3,14,15.7v23.5h-10.5V798
				c0-6.3-1.8-9.4-6.7-9.4c-5.7,0-8.1,3.2-8.1,10.9v20h-10.5V781.4z"/>
			<path class="st0" d="M1202.1,803c0.3,6.6,3.5,9.7,9.4,9.7c4.2,0,7.6-2.6,8.3-4.9h9.2c-3,9-9.2,12.8-17.9,12.8
				c-12,0-19.5-8.3-19.5-20.1c0-11.4,7.9-20.2,19.5-20.2c13,0,19.3,10.9,18.5,22.7H1202.1z M1219.2,796.4c-1-5.3-3.2-8.1-8.3-8.1
				c-6.6,0-8.6,5.2-8.7,8.1H1219.2z"/>
			<path class="st0" d="M1268.1,817.1c0,6.3-2.2,16.9-19.8,16.9c-7.5,0-16.3-3.5-16.8-12.3h10.4c1,3.9,4.1,5.2,7.8,5.2
				c5.8,0,8.5-4,8.4-9.5v-5h-0.1c-2.3,4-6.9,5.9-11.4,5.9c-11.4,0-16.3-8.7-16.3-19.2c0-9.9,5.7-18.9,16.4-18.9
				c5,0,8.9,1.7,11.4,6.1h0.1v-5.1h10V817.1z M1258.2,800c0-6.2-2.1-11.7-8.9-11.7c-5.9,0-8.5,5.2-8.5,10.9c0,5.5,2.1,11.4,8.5,11.4
				C1255.2,810.6,1258.2,805.5,1258.2,800z"/>
			<path class="st0" d="M1290.7,780.4c12,0,19.8,8,19.8,20.2c0,12.1-7.8,20.1-19.8,20.1c-12,0-19.7-8-19.7-20.1
				C1270.9,788.4,1278.7,780.4,1290.7,780.4z M1290.7,812.7c7.2,0,9.3-6.1,9.3-12.2c0-6.1-2.1-12.3-9.3-12.3
				c-7.1,0-9.2,6.1-9.2,12.3C1281.4,806.6,1283.6,812.7,1290.7,812.7z"/>
			<path class="st0" d="M1338.8,794.9c-0.7-4.3-3.4-6.6-7.8-6.6c-6.7,0-8.9,6.8-8.9,12.4c0,5.5,2.1,12,8.7,12c4.9,0,7.7-3.1,8.3-7.8
				h10.1c-1.3,10.1-8.3,15.7-18.4,15.7c-11.5,0-19.3-8.1-19.3-19.6c0-11.9,7.1-20.7,19.5-20.7c9,0,17.3,4.7,17.9,14.5H1338.8z"/>
			<path class="st0" d="M1361.5,775.5H1351v-8.6h10.5V775.5z M1351,781.4h10.5v38.2H1351V781.4z"/>
			<path class="st0" d="M1383.9,780.4c12,0,19.8,8,19.8,20.2c0,12.1-7.8,20.1-19.8,20.1c-12,0-19.7-8-19.7-20.1
				C1364.2,788.4,1371.9,780.4,1383.9,780.4z M1383.9,812.7c7.2,0,9.3-6.1,9.3-12.2c0-6.1-2.1-12.3-9.3-12.3
				c-7.1,0-9.2,6.1-9.2,12.3C1374.7,806.6,1376.8,812.7,1383.9,812.7z"/>
		</g>
		<g>
			<path class="st0" d="M119.9,633.1c33.8,0,53.6,25.2,53.6,57.6c0,31.5-19.9,56.7-53.6,56.7s-53.6-25.2-53.6-56.7
				C66.3,658.3,86.2,633.1,119.9,633.1z M119.9,727.2c21.5,0,29.6-18.3,29.6-36.5c0-19.1-8.1-37.4-29.6-37.4s-29.6,18.3-29.6,37.4
				C90.3,708.8,98.4,727.2,119.9,727.2z"/>
			<path class="st0" d="M185.3,635.7h24v88.9h53.2v20.2h-77.1V635.7z"/>
			<path class="st0" d="M271.3,635.7h33.8l25.5,75h0.3l24.1-75h33.8v109.1h-22.5v-77.3H366l-26.7,77.3h-18.5l-26.7-76.5h-0.3v76.5
				h-22.5V635.7z"/>
			<path class="st0" d="M405.3,635.7h81.6v20.2h-57.6v23.4h52.9v18.6h-52.9v26.7h58.8v20.2h-82.8V635.7z"/>
			<path class="st0" d="M499.7,635.7h47c28.3,0,49.5,17.7,49.5,53.9c0,31.6-16.2,55.1-49.5,55.1h-47V635.7z M523.7,724.6H545
				c13.9,0,27.2-8.6,27.2-32.7c0-22-7.6-36-31.5-36h-17.1V724.6z"/>
			<path class="st0" d="M657.2,633.1c33.8,0,53.6,25.2,53.6,57.6c0,31.5-19.9,56.7-53.6,56.7s-53.6-25.2-53.6-56.7
				C603.5,658.3,623.4,633.1,657.2,633.1z M657.2,727.2c21.5,0,29.6-18.3,29.6-36.5c0-19.1-8.1-37.4-29.6-37.4s-29.6,18.3-29.6,37.4
				C627.5,708.8,635.6,727.2,657.2,727.2z"/>
			<path class="st0" d="M790.2,635.7h24.6l40.8,109.1h-24.9l-8.2-24.3h-40.8l-8.6,24.3h-24.3L790.2,635.7z M787.9,702.6h28.3
				l-13.7-40h-0.3L787.9,702.6z"/>
			<path class="st0" d="M860.5,635.7h24v88.9h53.2v20.2h-77.1V635.7z"/>
			<path class="st0" d="M983.1,744.7h-27l-35.4-109.1h24.7l24.3,76.7h0.3l24.6-76.7h24.7L983.1,744.7z"/>
			<path class="st0" d="M1046.8,635.7h24.6l40.8,109.1h-24.9l-8.2-24.3h-40.8l-8.6,24.3h-24.3L1046.8,635.7z M1044.6,702.6h28.3
				l-13.7-40h-0.3L1044.6,702.6z"/>
			<path class="st0" d="M1117.1,635.7h58.8c19.6,0,31.9,13.6,31.9,30.1c0,12.8-5.2,22.5-17.3,27.3v0.3c11.8,3.1,15.1,14.5,15.9,25.5
				c0.5,6.9,0.3,19.7,4.6,25.8h-24c-2.9-6.9-2.6-17.4-3.8-26.1c-1.7-11.5-6.1-16.5-18.2-16.5h-24v42.6h-24V635.7z M1141.1,685h26.3
				c10.7,0,16.5-4.6,16.5-15.6c0-10.5-5.8-15.1-16.5-15.1h-26.3V685z"/>
			<path class="st0" d="M1222.8,635.7h81.6v20.2h-57.6v23.4h52.9v18.6h-52.9v26.7h58.8v20.2h-82.8V635.7z"/>
			<path class="st0" d="M1310.2,725.8l58.5-70h-53.9v-20.2h85.8v18.9l-58.5,70h60v20.2h-92V725.8z"/>
		</g>
		<g>
			<path class="st0" d="M485.9,220.6V524c18.7,7.9,42.4,6.2,68-3.7c-24.4-68.4-3.8-176.3,61-288.6c31-53.7,74.1-96.9,118.8-127.8
				c-5.8-6.1-12.6-11.3-20.4-15.2C657.3,60.2,550,105.4,485.9,220.6z"/>
			<path class="st0" d="M985,65.9h-51.4c18.2,14.2,30.5,33.9,37.2,58L985,65.9z"/>
			<path class="st0" d="M765.7,84.2c12.8-7.1,25.6-13.2,38.1-18.2h-54C755.9,71.1,761.2,77.2,765.7,84.2z"/>
			<path class="st0" d="M679.1,528.3c58,29.6,156.3-46.9,219.4-170.9s67.3-248.4,9.3-278c-33.5-17.1-80.4,1.2-126.2,43.5
				c16.9,72.6-11.2,183.2-61.6,270.5c-21.8,37.8-46.2,71-71.8,98.9C655,508.8,665.2,521.2,679.1,528.3z"/>
			<path class="st0" d="M756.7,148.4c-24.7,27.9-48.3,62.5-68.4,101.9c-39.8,78.1-56.2,156.4-48.3,211c27.9-27.7,54.2-62.9,75.1-104
				C754.6,280,770.1,202,756.7,148.4z"/>
			<path class="st0" d="M951.4,585.3h53.9v-37.1C986.6,564.8,968.6,577.9,951.4,585.3z"/>
			<path class="st0" d="M588.8,65.9H485.9v81C517.1,108.9,553.2,82.4,588.8,65.9z"/>
			<path class="st0" d="M600.8,579.1c-10.4-6-19.3-13.7-26.9-22.8c-20.2,13.2-40.3,22.9-59.8,28.9h99.4
				C609.2,583.6,604.9,581.5,600.8,579.1z"/>
			<path class="st0" d="M856.9,541.9c0.3-16.2,11.5-48.7,20-87.5l14.6-41.4c-57.2,91.2-129.3,152.3-194,172.3h176.7
				C862.7,579.1,856.4,566.8,856.9,541.9z"/>
			<path class="st0" d="M976.8,538.6c8.3,0.1,17.8-7.3,28.5-19.6V311.9l-41.6,144c-8.1,37.5-12.3,45.7-12.5,56.7
				C950.8,533,957.6,538.3,976.8,538.6z"/>
		</g>
	</g>
</g>
</svg>
