<?xml version="1.0" encoding="utf-8"?>
<!-- Generator: Adobe Illustrator 24.0.2, SVG Export Plug-In . SVG Version: 6.00 Build 0)  -->
<svg version="1.1" id="Capa_1" xmlns="http://www.w3.org/2000/svg" xmlns:xlink="http://www.w3.org/1999/xlink" x="0px" y="0px"
	 viewBox="0 0 1800 421" style="enable-background:new 0 0 1800 421;" xml:space="preserve">
<style type="text/css">
	.st0{fill:none;}
	.st1{fill:#B3B3B3;}
	.st2{fill:#113E82;}
	.st3{fill:#FFFFFF;}
</style>
<g id="_x31_">
	<g>
		<path class="st0" d="M171.8,176.6c13.2-22.9,29.1-42.2,45.5-56.2c-1-0.8-2-1.4-3.1-2.1c-25.5-14.7-68.9,12.8-96.9,61.5
			c-28.1,48.6-30.2,100-4.8,114.7c9.5,5.5,21.5,5.1,34.3-0.1C137.7,266,146.4,220.5,171.8,176.6z"/>
		<path class="st0" d="M215,244.9c-9,15.5-19.2,29.3-30.1,40.9c2.1,3.4,4.9,6.1,8.2,7.8c21.9,11.6,61.3-19.8,88.1-70.3
			c2.7-5,5.1-10,7.3-15l14.4-47.1c3.7-24.5-0.3-43.6-12.8-50.2c-12.7-6.8-31.5,1.1-50.2,18.8C247.7,159.2,239.2,203,215,244.9z"/>
		<path class="st0" d="M209.4,233.1c19.6-33.9,26.6-69.2,20.3-92.4c-9.8,11.3-19.3,25-27.6,40.6c-18.1,34.1-25.8,68.1-22.2,90.2
			C190.5,261.1,200.7,248.1,209.4,233.1z"/>
		<path class="st1" d="M342.2,263.8L342.2,263.8c0,0-0.1,0.1-0.2,0.3l-18.2,21.2c-7.4,7.4-15.3,13.5-20.3,12.3c0,0-0.1,0-0.1,0
			c-0.2,0-0.3-0.1-0.4-0.1c-3.2-1.2-5.1-5.3-3-15.3c0.2-0.8,0.3-1.6,0.4-2.3l55.4-181.3l-34.8,4l-9.9,32.2
			c-2.3-16.3-9-28.8-20.2-35.3c-16-9.2-37.9-4.4-60.2,10.7c4.2,5.4,7.4,12.1,9.4,19.8c18.7-17.7,37.4-25.6,50.2-18.8
			c12.4,6.6,16.5,25.7,12.8,50.2l-14.4,47.1c-2.2,5-4.7,10-7.3,15c-26.8,50.4-66.3,81.9-88.1,70.3c-3.3-1.8-6-4.4-8.2-7.8
			c-2.4-3.9-4.1-8.7-5-14.3c-3.7-22.1,4-56.1,22.2-90.2c8.3-15.6,17.8-29.4,27.6-40.6c-2.3-8.6-6.5-15.6-12.5-20.2
			c-16.3,14-32.2,33.3-45.5,56.2c-25.3,43.9-34,89.4-25.1,117.8c2,6.5,5,12.1,8.9,16.6c2.5,2.9,5.5,5.4,8.8,7.4
			c28.1,16.2,74.9-11.1,109.4-61.9l-5,16.2l0.3,0.1c-1.5,4.5-20.7,62.5,23.4,52c0,0,2.2-0.3,6-1.7c1.6-0.5,3.2-1.1,5-1.8
			c0,0,0,0,0,0c0,0,0.1,0,0.3-0.1c1.1-0.4,5.1-2.3,11.4-7.2c11.3-8.1,25.4-22.3,38.8-46.7l-0.3-0.1L342.2,263.8z"/>
		<path class="st2" d="M240,129.9c-2-7.7-5.2-14.3-9.4-19.8c-3.1-3.9-6.8-7.2-11.1-9.7c-32.7-18.9-87.7,15.3-122.9,76.2
			c-35.2,60.9-37.2,125.6-4.6,144.5c17,9.8,40.2,5.3,63.4-10c-3.9-4.5-6.8-10.1-8.9-16.6c-12.8,5.2-24.8,5.6-34.3,0.1
			c-25.5-14.7-23.3-66,4.8-114.7c28.1-48.6,71.5-76.2,96.9-61.5c1.1,0.6,2.1,1.3,3.1,2.1c6,4.6,10.2,11.6,12.5,20.2
			c6.2,23.2-0.7,58.5-20.3,92.4c-8.7,15-18.8,28.1-29.5,38.4c0.9,5.6,2.6,10.5,5,14.3c10.8-11.6,21.1-25.4,30.1-40.9
			C239.2,203,247.7,159.2,240,129.9z"/>
	</g>
	<g>
		<g>
			<g>
				<path class="st1" d="M1042.8,263.9h12.7l9.8,16.9l10-16.9h12.8l-16.9,29.1v25.6h-11.4V293L1042.8,263.9z"/>
				<g>
					<path class="st1" d="M396.6,263.9H408v54.6h-11.5V263.9z"/>
					<path class="st1" d="M423.7,263.9h15.1l11,32.8l11-32.8h14.6l7.6,54.6h-12.1l-5.2-36.7l-13,36.7H447l-13.3-37l-4.9,37h-12.3
						L423.7,263.9z"/>
					<path class="st1" d="M491,263.9h18.2c4.9,0,8.8,1.5,11.8,4.4c3,2.9,4.5,6.8,4.5,11.5c0,3.1-0.7,6.1-2.2,8.9
						c-1.5,2.8-3.7,4.9-6.7,6.3c-3,1.4-5.5,2.1-7.6,2.2l-6.6,0.2v21.1H491V263.9z M502.2,273.7v14h4.5c1.9,0,3.6-0.7,4.9-2.1
						c1.4-1.4,2-3.1,2-5c0-2.2-0.8-3.9-2.3-5.2c-1.5-1.2-3.7-1.8-6.6-1.8L502.2,273.7z"/>
					<path class="st1" d="M533.6,291.2c0-8.1,2.6-14.7,7.8-20c5.2-5.3,11.4-7.9,18.5-7.9c7.9,0,14.4,2.6,19.6,7.9
						c5.2,5.3,7.7,12,7.7,20c0,8-2.6,14.7-7.7,20c-5.1,5.3-11.5,7.9-19.3,7.9c-7.8,0-14.1-2.6-19.2-7.9
						C536.1,306,533.6,299.3,533.6,291.2z M560.4,274.2c-4.5-0.1-8.1,1.5-10.8,4.7c-2.7,3.2-4.1,7.4-4.1,12.6
						c0,4.9,1.4,8.9,4.2,12.1c2.8,3.2,6.3,4.8,10.5,4.8c4.5,0,8.1-1.6,10.8-4.7c2.7-3.1,4.1-7.3,4.1-12.5c0-5.1-1.3-9.2-4-12.2
						C568.4,275.9,564.9,274.3,560.4,274.2z"/>
					<path class="st1" d="M595.4,263.9h17.5c5.3,0,9.5,1.4,12.6,4.3c3.1,2.9,4.6,6.8,4.6,11.7c0,2.8-0.7,5.7-2.1,8.7
						c-1.4,3-4,5.4-7.9,7.1l14.9,22.8h-13.2l-13.8-21.1h-1.3v21.1h-11.5V263.9z M606.9,273.6v14.2h2.5c6,0,9-2.5,9-7.5
						c0-2.1-0.8-3.7-2.3-4.9c-1.6-1.2-3.7-1.8-6.5-1.8H606.9z"/>
					<path class="st1" d="M637.6,263.9h35.8v11.6h-12.2v43h-11.5v-43h-12.1V263.9z"/>
					<path class="st1" d="M694.8,263.9h8.9l21.7,54.6h-11.5l-4.3-10.7h-20.4l-4.2,10.7h-11.5L694.8,263.9z M699.2,281.8l-6.3,16.1
						h12.6L699.2,281.8z"/>
					<path class="st1" d="M795.2,263.9h11.5v54.6h-11.5V263.9z"/>
					<path class="st1" d="M817.3,291.2c0-8.1,2.6-14.7,7.8-20c5.2-5.3,11.4-7.9,18.5-7.9c7.9,0,14.4,2.6,19.6,7.9
						c5.2,5.3,7.7,12,7.7,20c0,8-2.6,14.7-7.7,20c-5.1,5.3-11.5,7.9-19.3,7.9c-7.8,0-14.1-2.6-19.2-7.9
						C819.8,306,817.3,299.3,817.3,291.2z M844.2,274.2c-4.5-0.1-8.1,1.5-10.8,4.7c-2.7,3.2-4.1,7.4-4.1,12.6
						c0,4.9,1.4,8.9,4.2,12.1c2.8,3.2,6.3,4.8,10.5,4.8c4.5,0,8.1-1.6,10.8-4.7c2.7-3.1,4.1-7.3,4.1-12.5c0-5.1-1.3-9.2-4-12.2
						C852.2,275.9,848.6,274.3,844.2,274.2z"/>
					<path class="st1" d="M916.2,263.9h11.2v54.6h-11.2l-24.3-35.4v35.4h-11.5v-54.6h11.3l24.4,35.1V263.9z"/>
					<path class="st1" d="M935.8,263.9h30v10.8h-18.5v11h18.5v10.7h-18.5v11.3h18.5v10.8h-30V263.9z"/>
					<path class="st1" d="M1010.6,268.9l-7.1,8c-3.8-2.3-6.5-3.4-8.1-3.4c-1.3,0-2.4,0.5-3.3,1.5c-0.9,1-1.4,2.2-1.4,3.5
						c0,2.7,2.4,5,7.1,7c3.5,1.5,6.1,2.9,7.9,4.1c1.8,1.2,3.3,2.9,4.5,5.1c1.2,2.2,1.8,4.6,1.8,7.1c0,4.7-1.8,8.8-5.5,12.2
						c-3.7,3.5-8,5.2-13.1,5.2c-5.5,0-11-2.7-16.3-8l7.5-9c3.4,3.6,6.5,5.4,9.5,5.4c1.4,0,2.7-0.6,4-1.9c1.3-1.3,1.9-2.6,1.9-4
						c0-2.9-2.9-5.4-8.8-7.5c-3.4-1.3-5.7-2.4-7.1-3.5c-1.4-1.1-2.6-2.7-3.5-4.8c-1-2.1-1.4-4.2-1.4-6.4c0-4.9,1.5-8.8,4.6-11.8
						c3.1-3,7.1-4.5,12.1-4.5C1001.6,263.2,1006.6,265.1,1010.6,268.9z"/>
					<path class="st1" d="M776.5,300.8c-3.4,4-8.7,6.5-14.8,6.5c-10.2,0-18.5-7.3-18.5-16.2c0-9,8.3-16.2,18.5-16.2
						c5.3,0,10.1,2,13.5,5.1l11-5.6c-5.7-6.4-14.5-10.5-24.4-10.5c-17.1,0-31,12.2-31,27.2c0,15,13.9,27.2,31,27.2
						c10.7,0,20.1-4.7,25.7-12L776.5,300.8z"/>
				</g>
				<g>
					<path class="st1" d="M1126.4,263.9h20.1c8.6,0,15.5,2.5,20.7,7.5c5.2,5,7.9,11.6,7.9,19.9c0,8.2-2.7,14.8-8.1,19.8
						c-5.4,5-12.6,7.4-21.6,7.4h-19V263.9z M1139.1,274.2V308h5c5.2,0,9.5-1.3,12.8-4c3.3-2.6,5-7,5-13.2c0-3.6-0.8-6.7-2.4-9.5
						c-1.6-2.8-4-4.6-7-5.6c-3.1-1-6-1.5-8.8-1.5H1139.1z"/>
					<path class="st1" d="M1185.1,263.9h11.5v54.6h-11.5V263.9z"/>
					<path class="st1" d="M1239.8,268.9l-8.1,8c-4.3-2.3-7.4-3.4-9.2-3.4c-1.4,0-2.7,0.5-3.7,1.5c-1,1-1.6,2.2-1.6,3.5
						c0,2.7,2.7,5,8.1,7c4,1.5,7,2.9,9,4.1c2,1.2,3.7,2.9,5.1,5.1c1.4,2.2,2.1,4.6,2.1,7.1c0,4.7-2.1,8.8-6.3,12.2
						c-4.2,3.5-9.2,5.2-14.9,5.2c-6.3,0-12.5-2.7-18.6-8l8.6-9c3.8,3.6,7.5,5.4,10.8,5.4c1.6,0,3.1-0.6,4.5-1.9
						c1.4-1.3,2.2-2.6,2.2-4c0-2.9-3.3-5.4-10-7.5c-3.8-1.3-6.5-2.4-8.1-3.5c-1.6-1.1-2.9-2.7-4-4.8c-1.1-2.1-1.6-4.2-1.6-6.4
						c0-4.9,1.8-8.8,5.3-11.8c3.5-3,8.1-4.5,13.8-4.5C1229.6,263.2,1235.3,265.1,1239.8,268.9z"/>
					<path class="st1" d="M1247.7,263.9h35.8v11.6h-12.2v43h-11.5v-43h-12.1V263.9z"/>
					<path class="st1" d="M1288.5,263.9h17.5c5.3,0,9.5,1.4,12.6,4.3c3.1,2.9,4.6,6.8,4.6,11.7c0,2.8-0.7,5.7-2.1,8.7
						c-1.4,3-4,5.4-7.9,7.1l14.9,22.8h-13.2l-13.8-21.1h-1.3v21.1h-11.5V263.9z M1300.1,273.6v14.2h2.5c6,0,9-2.5,9-7.5
						c0-2.1-0.8-3.7-2.3-4.9c-1.6-1.2-3.7-1.8-6.5-1.8H1300.1z"/>
					<path class="st1" d="M1335.8,263.9h11.5v54.6h-11.5V263.9z"/>
					<path class="st1" d="M1357.7,263.9h17.5c7.3,0,12.3,1.4,15,4.2c2.7,2.8,4,6,4,9.7c0,2.4-0.5,4.3-1.5,6c-1,1.6-2.5,3.3-4.7,4.9
						c4.1,1.3,7.1,3.2,8.8,5.8c1.7,2.5,2.6,5.3,2.6,8.1c0,5-1.9,8.9-5.7,11.7c-3.8,2.8-9.1,4.2-15.9,4.2h-20.1V263.9z M1368.3,273.1
						v12h5.3c2.2,0,4-0.6,5.5-1.9c1.5-1.3,2.2-2.8,2.2-4.7c0-1.5-0.7-2.8-2.2-3.8c-1.5-1-3.3-1.6-5.5-1.6H1368.3z M1368.3,294.3
						v15.1h7c7.1,0,10.6-2.4,10.6-7.1c0-2.6-0.9-4.5-2.6-5.9c-1.7-1.4-4.2-2.1-7.4-2.1H1368.3z"/>
					<path class="st1" d="M1522.9,263.9h11.5v54.6h-11.5V263.9z"/>
					<path class="st1" d="M1542.6,291.2c0-8.1,2.6-14.7,7.8-20c5.2-5.3,11.4-7.9,18.5-7.9c7.9,0,14.4,2.6,19.6,7.9
						c5.2,5.3,7.7,12,7.7,20c0,8-2.6,14.7-7.7,20c-5.1,5.3-11.5,7.9-19.3,7.9c-7.8,0-14.1-2.6-19.2-7.9
						C1545.1,306,1542.6,299.3,1542.6,291.2z M1569.5,274.2c-4.5-0.1-8.1,1.5-10.8,4.7c-2.7,3.2-4.1,7.4-4.1,12.6
						c0,4.9,1.4,8.9,4.2,12.1c2.8,3.2,6.3,4.8,10.5,4.8c4.5,0,8.1-1.6,10.8-4.7c2.7-3.1,4.1-7.3,4.1-12.5c0-5.1-1.3-9.2-4-12.2
						C1577.5,275.9,1573.9,274.3,1569.5,274.2z"/>
					<path class="st1" d="M1639.2,263.9h11.2v54.6h-11.2l-24.3-35.4v35.4h-11.5v-54.6h11.3l24.4,35.1V263.9z"/>
					<path class="st1" d="M1659.9,263.9h30v10.8h-18.5v11h18.5v10.7h-18.5v11.3h18.5v10.8h-30V263.9z"/>
					<path class="st1" d="M1503.3,301.3c-3.4,4.1-8.7,6.7-14.8,6.7c-10.2,0-18.5-7.5-18.5-16.7s8.3-16.7,18.5-16.7
						c5.3,0,10.1,2,13.5,5.3l11-5.8c-5.7-6.6-14.5-10.8-24.4-10.8c-17.1,0-31,12.6-31,28.1s13.9,28.1,31,28.1
						c10.7,0,20.1-4.9,25.7-12.3L1503.3,301.3z"/>
					<g>
						<path class="st1" d="M1407.7,263.3h11.6v33.8c0,3.1,0.9,5.7,2.6,7.6c1.7,1.9,4,2.9,6.8,2.9c3.2,0,5.7-1,7.5-2.9
							c1.8-1.9,2.7-4.6,2.7-8.2v-33.3h11.5v35.8c0,3.1-0.8,6.4-2.4,9.8c-1.6,3.4-4.1,6-7.4,7.8c-3.3,1.8-7.1,2.7-11.2,2.7
							c-7.5,0-12.9-2.1-16.4-6.3c-3.5-4.2-5.2-8.7-5.2-13.3V263.3z"/>
					</g>
					<path class="st1" d="M1729.6,268.9l-7.1,8c-3.8-2.3-6.5-3.4-8.1-3.4c-1.3,0-2.4,0.5-3.3,1.5c-0.9,1-1.4,2.2-1.4,3.5
						c0,2.7,2.4,5,7.1,7c3.5,1.5,6.1,2.9,7.9,4.1c1.8,1.2,3.3,2.9,4.5,5.1c1.2,2.2,1.8,4.6,1.8,7.1c0,4.7-1.8,8.8-5.5,12.2
						c-3.7,3.5-8,5.2-13.1,5.2c-5.5,0-11-2.7-16.3-8l7.5-9c3.4,3.6,6.5,5.4,9.5,5.4c1.4,0,2.7-0.6,4-1.9c1.3-1.3,1.9-2.6,1.9-4
						c0-2.9-2.9-5.4-8.8-7.5c-3.4-1.3-5.7-2.4-7.1-3.5c-1.4-1.1-2.6-2.7-3.5-4.8c-1-2.1-1.4-4.2-1.4-6.4c0-4.9,1.5-8.8,4.6-11.8
						c3.1-3,7.1-4.5,12.1-4.5C1720.6,263.2,1725.6,265.1,1729.6,268.9z"/>
				</g>
			</g>
		</g>
		<g>
			<rect x="400" y="100.2" class="st2" width="1331" height="141.8"/>
			<g>
				<g>
					<path class="st3" d="M498.9,121.6c13.2,0,24.2,4.3,33,13c8.8,8.7,13.2,19.6,13.2,32.9c0,16.2-5.6,29.7-16.7,40.7
						c-11.1,11-25,16.5-41.7,16.5c-14.2,0-25.5-4.2-34-12.7c-8.5-8.5-12.7-19.5-12.7-33.2c0-10.5,2.5-20.2,7.6-29
						c5.1-8.8,12.1-15.7,21.2-20.7C477.8,124.1,487.8,121.6,498.9,121.6z M498.7,130.8c-9.4,0-17.8,2-25.1,6.1
						c-7.4,4.1-13.2,9.9-17.5,17.4c-4.3,7.5-6.4,15.5-6.4,24c0,7.2,1.6,13.7,4.7,19.4c3.1,5.7,7.4,10.1,12.9,13.1
						c5.5,3,12,4.5,19.4,4.5c8.8,0,17-2.1,24.5-6.4c7.5-4.3,13.4-10.2,17.7-17.7c4.3-7.5,6.4-15.7,6.4-24.5
						c0-11.6-4.1-20.8-12.2-27.7C516.3,133.7,508.2,130.8,498.7,130.8z"/>
					<path class="st3" d="M562.7,117.5h9.1l-13.5,100.7h-9.2L562.7,117.5z"/>
					<path class="st3" d="M583.7,145.6h9.1l-1.4,10.3c2.8-3.8,6.4-6.8,10.8-8.9c4.4-2.2,8.8-3.2,13.2-3.2c5.5,0,10.4,1.6,14.6,4.9
						c3.3,2.5,5.7,6.3,7.3,11.3c3.3-5.2,7.4-9.2,12.2-12c4.8-2.8,9.8-4.2,14.8-4.2c6.7,0,12.3,2.2,16.6,6.5
						c4.3,4.3,6.5,9.9,6.5,16.7c0,3.1-0.3,6.9-0.9,11.4l-5.2,39.9h-9.2l4.7-34.8c1-7.3,1.5-12.6,1.5-16c0-4.2-1.4-7.7-4.2-10.5
						c-2.8-2.8-6.4-4.1-11-4.1c-4.8,0-9.3,1.5-13.4,4.5c-4.1,3-7.1,6.5-8.8,10.6c-1.7,4.1-3,9.3-3.9,15.5l-4.8,34.8h-9.3l5.4-39.8
						c0.6-4.2,0.9-7.7,0.9-10.4c0-4.7-1.4-8.4-4.2-11.2c-2.8-2.8-6.4-4.2-10.9-4.2c-3.8,0-7.4,0.9-10.8,2.6
						c-3.5,1.8-6.3,4.1-8.5,6.9c-2.2,2.8-3.8,6.4-4.9,10.6c-1.1,4.2-1.9,8-2.3,11.4l-4.6,34.2h-9.3L583.7,145.6z"/>
					<path class="st3" d="M773.6,183.8h-64.7c-0.1,8.6,2.1,15.4,6.7,20.4c4.6,4.9,10.8,7.4,18.5,7.4c5.1,0,9.9-1,14.2-3.1
						c4.4-2.1,8-5,10.8-8.8l6.9,5.7c-3.5,4.5-8.1,8.1-13.8,10.8c-5.7,2.7-11.8,4-18.4,4c-11.4,0-19.9-3.5-25.7-10.6
						c-5.7-7.1-8.6-15-8.6-23.8c0-7.2,1.9-14.2,5.8-20.8c3.8-6.7,9-11.9,15.5-15.6c6.5-3.7,13.4-5.6,21-5.6c9.3,0,17,3.1,23.1,9.4
						c6.1,6.3,9.1,14.3,9.1,24.1C774,179,773.9,181.2,773.6,183.8z M765,175.6c-0.3-6.8-2.6-12.4-7-16.6c-4.4-4.2-9.9-6.4-16.6-6.4
						c-7.3,0-13.6,2-19.2,6.1c-5.5,4.1-9.5,9.7-11.8,16.8H765z"/>
					<path class="st3" d="M858.2,218.2h-9.4l1.5-11.3c-8.6,8.7-18.3,13.1-29.1,13.1c-9.8,0-17.9-3.2-24.2-9.5
						c-6.3-6.4-9.5-14.6-9.5-24.6c0-11.6,4.1-21.5,12.3-29.8c8.2-8.3,17.9-12.4,29-12.4c6,0,11.3,1.3,15.9,3.8
						c4.5,2.5,8.5,6.5,11.7,11.9l5.6-41.9h9.7L858.2,218.2z M822.5,211.5c6,0,11.5-1.4,16.4-4.2c4.9-2.8,8.8-6.9,11.7-12.2
						c2.9-5.3,4.3-11.1,4.3-17.3c0-7.5-2.4-13.6-7.1-18.4c-4.8-4.7-10.9-7.1-18.5-7.1c-8.9,0-16.6,3.2-22.9,9.7
						c-6.3,6.5-9.5,14.4-9.5,23.8c0,7.7,2.4,13.9,7.1,18.6C808.7,209.2,814.9,211.5,822.5,211.5z"/>
					<path class="st3" d="M917.9,143.7c6.2,0,11.9,1.5,17,4.4c5.2,3,9.2,7.1,12.1,12.3c2.9,5.3,4.3,11.2,4.3,17.9
						c0,7.6-1.8,14.7-5.5,21.2c-3.7,6.5-8.7,11.6-14.9,15.1c-6.2,3.6-13.3,5.3-21.2,5.3c-9.7,0-17.8-3.2-24.1-9.6
						c-6.3-6.4-9.4-14.5-9.4-24.4c0-7.7,1.8-14.9,5.5-21.4c3.7-6.5,8.8-11.7,15.2-15.4C903.4,145.6,910.4,143.7,917.9,143.7z
						 M917.7,152.6c-5.8,0-11.2,1.4-16.3,4.3c-5.1,2.9-9,6.9-11.8,11.9c-2.7,5.1-4.1,10.6-4.1,16.7c0,7.7,2.4,13.9,7.1,18.7
						c4.7,4.8,10.8,7.2,18.3,7.2c5.8,0,11.1-1.4,15.9-4.2c4.7-2.8,8.5-6.8,11.3-12c2.8-5.3,4.2-10.9,4.2-16.9c0-5-1-9.5-3.1-13.4
						c-2.1-3.9-5.1-6.9-8.9-9.1C926.4,153.7,922.3,152.6,917.7,152.6z"/>
				</g>
				<g>
					<path class="st3" d="M1047,120l32.9,98.2h-10.1l-10.7-32.1h-41.6l-18.4,32.1h-10.9l56.6-98.2H1047z M1043.9,140.6l-20.9,36.2
						h33L1043.9,140.6z"/>
					<path class="st3" d="M1105.3,117.5h9.1l-13.5,100.7h-9.2L1105.3,117.5z"/>
					<path class="st3" d="M1124.9,145.6h9.6l18.3,53l30.5-53h10.1l-41.8,72.6h-1.7L1124.9,145.6z"/>
					<path class="st3" d="M1266.3,218.2h-9.4l1.4-10.9c-8.4,8.5-18,12.8-28.8,12.8c-9.8,0-17.9-3.2-24.3-9.5
						c-6.3-6.4-9.5-14.6-9.5-24.6c0-11.6,4.1-21.5,12.4-29.8c8.3-8.3,18-12.4,29.2-12.4c6.1,0,11.4,1.3,15.9,3.8
						c4.6,2.5,8.4,6.5,11.5,11.9l1.7-13.8h9.7L1266.3,218.2z M1230.5,211.5c6,0,11.4-1.4,16.4-4.2c4.9-2.8,8.8-6.9,11.7-12.2
						c2.9-5.3,4.3-11.1,4.3-17.3c0-7.5-2.4-13.6-7.1-18.3c-4.7-4.7-10.9-7.1-18.5-7.1c-8.9,0-16.5,3.2-22.9,9.7
						c-6.3,6.5-9.5,14.4-9.5,23.8c0,7.7,2.4,13.9,7.1,18.6C1216.8,209.2,1223,211.5,1230.5,211.5z"/>
					<path class="st3" d="M1294,145.6h9.4l-1.3,9.1c2.5-3.5,5.5-6.2,9-8.1c3.5-1.9,7.1-2.9,10.8-2.9c2.6,0,5.4,0.6,8.2,1.9l-4.4,8.5
						c-2.3-0.9-4.2-1.4-5.8-1.4c-3.2,0-6.5,1.1-9.6,3.4c-3.2,2.3-5.8,5.6-7.7,9.9c-2,4.3-3.6,11.5-5,21.4l-4.2,30.8h-9.2L1294,145.6
						z"/>
					<path class="st3" d="M1406.6,183.8h-64.7c-0.1,8.6,2.1,15.4,6.7,20.4c4.6,4.9,10.8,7.4,18.5,7.4c5.1,0,9.9-1,14.2-3.1
						c4.4-2.1,8-5,10.8-8.8l6.9,5.7c-3.5,4.5-8.1,8.1-13.8,10.8c-5.7,2.7-11.8,4-18.4,4c-11.4,0-19.9-3.5-25.7-10.6
						c-5.7-7.1-8.6-15-8.6-23.8c0-7.2,1.9-14.2,5.8-20.8c3.8-6.7,9-11.9,15.5-15.6c6.5-3.7,13.4-5.6,21-5.6c9.3,0,17,3.1,23.1,9.4
						c6.1,6.3,9.1,14.3,9.1,24.1C1407,179,1406.9,181.2,1406.6,183.8z M1398,175.6c-0.3-6.8-2.6-12.4-7-16.6
						c-4.4-4.2-9.9-6.4-16.6-6.4c-7.3,0-13.6,2-19.2,6.1c-5.5,4.1-9.5,9.7-11.8,16.8H1398z"/>
					<path class="st3" d="M1422.6,145.6h49.9l-43.3,64.3h39.4l-1.1,8.3h-54.9l43.5-64.5h-34.6L1422.6,145.6z"/>
				</g>
				<g>
					<path class="st3" d="M1593.9,209c1.5,0,2.7,0.5,3.7,1.5c1,1,1.5,2.3,1.5,3.7c0,1.4-0.5,2.7-1.5,3.7c-1,1-2.2,1.5-3.7,1.5
						s-2.7-0.5-3.7-1.5s-1.5-2.3-1.5-3.7c0-1.4,0.5-2.7,1.5-3.7S1592.5,209,1593.9,209z"/>
					<path class="st3" d="M1645.4,155.3l21.1,62.9h-6.5l-6.9-20.6h-26.7l-11.8,20.6h-7l36.3-62.9H1645.4z M1643.4,168.5l-13.4,23.2
						h21.2L1643.4,168.5z"/>
					<path class="st3" d="M1685.9,209c1.5,0,2.7,0.5,3.7,1.5c1,1,1.5,2.3,1.5,3.7c0,1.4-0.5,2.7-1.5,3.7c-1,1-2.2,1.5-3.7,1.5
						s-2.7-0.5-3.7-1.5s-1.5-2.3-1.5-3.7c0-1.4,0.5-2.7,1.5-3.7S1684.5,209,1685.9,209z"/>
					<path class="st3" d="M1574,200.5c-2.8,3.5-6.6,6.4-11,8.4c-13.9,6.2-29.5,1.1-35.1-11.2c-5.5-12.4,1.3-27.4,15.1-33.6
						c10.8-4.8,22.8-2.8,30.1,4.2l4.9-4.8c-9.3-9-24.5-11.6-38.4-5.5c-17.6,7.8-26.2,26.9-19.2,42.6c7,15.7,26.9,22.1,44.5,14.2
						c5.5-2.4,10.1-6,13.6-10.1L1574,200.5z"/>
				</g>
			</g>
		</g>
	</g>
</g>
</svg>
