<?xml version="1.0" encoding="utf-8"?>
<!-- Generator: Adobe Illustrator 24.0.2, SVG Export Plug-In . SVG Version: 6.00 Build 0)  -->
<svg version="1.1" id="Capa_1" xmlns="http://www.w3.org/2000/svg" xmlns:xlink="http://www.w3.org/1999/xlink" x="0px" y="0px"
	 viewBox="0 0 1437.9 1370.4" style="enable-background:new 0 0 1437.9 1370.4;" xml:space="preserve">
<style type="text/css">
	.st0{fill:#FFFFFF;}
	.st1{fill:#0B0C0C;}
	.st2{fill:#020303;}
</style>
<g>
	<g>
		<g>
			<path d="M158.1,1054.1c2.7-0.4-6.6,2.1-15.9,8.8c-8.2,6-16.2,15.6-21,25.1c-10.2,20.2-9.1,42.9-4.4,57.5
				c2.5,7.7,8.1,18.7,18.2,26.7c14.2,11.3,23.4,12.8,36.7,12.9c9.9,0.1,27.1-3.7,39.5-18c12.8-14.7,15.2-27.3,14.9-42.3
				c-0.1-7-5.2-21.6-14.1-30.7c-7.4-7.5-17.5-12.1-28.3-13.4c-12-1.5-22,1.2-33.1,8.2c-11.9,7.5-19,20.9-19,20.3
				c0.4-4.4,10.3-24.7,27.4-34.4c13.3-7.5,24.6-7.5,29.7-7.5c6.3,0.1,23.6,3.6,37.3,15.8c14.1,12.6,19.9,29.1,19.9,43.2
				c0,16.6-2.1,33.5-19,53.2c-15.2,17.7-37.7,25.3-50.4,25.8c-15.8,0.6-29.1-0.9-47.6-12.8c-13.3-8.5-27.3-24.8-31.8-44.9
				c-4.3-19.4-2.2-41.5,9.1-59C118.9,1069.3,137.5,1056.4,158.1,1054.1z"/>
			<g>
				<path d="M305.3,1071.2c-0.6,10.6,0,132.4,0,132.4h20V1154h31.1l35.8,49.6h26.2l-37.4-49.1c0,0-3.9-3.2,2.4-4.8
					c3.9-1,30.3-12.4,28-41.6c-1.6-20.1-17.2-33.1-32.1-36.9C369.8,1068.7,305.3,1071.2,305.3,1071.2z"/>
				<path class="st0" d="M324.7,1094.6c0.2,4.7,0.3,31.6,0.2,35.6c-0.2,5.5-0.8,6.7,7.8,6.7c27.8,0.1,56.9,3,56.7-26.6
					c-0.1-24.6-32.3-20.3-52-20.2C326.7,1090.1,324.6,1090,324.7,1094.6z"/>
			</g>
			<rect x="477.9" y="1070.1" width="20" height="133.6"/>
			<g>
				<polygon class="st1" points="592.9,1089.7 592.9,1129.7 660.4,1129.7 660.4,1148.6 592.9,1148.6 592.9,1203.6 572.3,1203.6 
					572.3,1070.1 669.8,1070.1 669.8,1089.7 				"/>
			</g>
			<g>
				<polygon class="st1" points="821.2,1184.1 821.2,1203.6 731.3,1203.6 731.3,1070.1 751.3,1070.1 751.3,1184.1 				"/>
			</g>
			<g>
				<path class="st1" d="M936.8,1070.1h-16.4l-59.9,133.6h21.1l14.4-34.9h64.7l14.3,34.9h22.3L936.8,1070.1z M903.4,1151l25.2-61
					l24.9,61H903.4z"/>
			</g>
			<g>
				<polygon class="st1" points="1172.7,1070.1 1172.7,1203.6 1153.1,1203.6 1153.1,1105.9 1110.4,1171.7 1110.2,1171.3 
					1109.9,1171.7 1066.5,1105.9 1066.5,1203.6 1046.6,1203.6 1046.6,1070.1 1066.5,1070.1 1110.2,1139.9 1153.1,1070.1 				"/>
			</g>
			<g>
				<polygon class="st1" points="1263.7,1086 1263.7,1128.9 1332.9,1128.9 1332.9,1144.8 1263.7,1144.8 1263.7,1185 1340.6,1185 
					1340.6,1203.6 1245.5,1203.6 1245.5,1070.1 1340.6,1070.1 1340.6,1086 				"/>
			</g>
		</g>
		<g>
			<g>
				<g>
					<g>
						<path class="st1" d="M474.3,1285.5l2.2-2.5c3.5,2.7,7.3,4.8,13.2,4.8c6.6,0,10-3.5,10-7.4c0-4.7-5.4-6.8-10.2-8.3
							c-6.3-2-13.3-4.3-13.3-10.7c0-5.4,4.8-10,13.4-10c4.5,0,8.9,1.7,11.9,3.9l-2.1,2.5c-2.8-1.9-5.8-3.4-9.9-3.4
							c-6.5,0-9.4,3.4-9.4,6.8c0,4.3,4.9,5.9,9.9,7.6c6.5,2.2,13.6,4.1,13.6,11.4c0,5.7-5,10.6-14,10.6
							C483.4,1290.7,478.1,1288.4,474.3,1285.5z"/>
					</g>
					<g>
						<path class="st1" d="M555.5,1251.3h3.7l6.3,22c1.2,4.1,2.3,8.1,3.5,12.2h0.3c1.2-4.1,2.5-8.1,3.8-12.2l7.9-22h3.6l7.9,22
							c1.3,4,2.7,8.1,4,12.2h0.3c1.2-4.1,2.2-8.1,3.3-12.2l6.3-22h3.4l-11.3,37.4h-3.9l-9.2-25.7c-0.9-2.9-1.8-5.5-2.7-8.4h-0.3
							c-0.9,2.9-1.9,5.5-2.8,8.4l-9,25.7h-3.8L555.5,1251.3z"/>
					</g>
					<g>
						<path class="st1" d="M669.8,1251.3h24.6v2.2h-21.4v14.2h18v2.2h-18v16.5H695v2.2h-25.2V1251.3z"/>
					</g>
					<g>
						<path class="st1" d="M763.5,1251.3h10.9c14.6,0,21.5,7.3,21.5,18.6s-6.9,18.8-21.4,18.8h-11V1251.3z M774.1,1286.5
							c12.8,0,18.4-6.8,18.4-16.6c0-9.7-5.6-16.4-18.4-16.4h-7.3v32.9H774.1z"/>
					</g>
					<g>
						<path class="st1" d="M864,1251.3h25.7v2.2h-22.4v14.2h18.8v2.2h-18.8v16.5h23.1v2.2H864V1251.3z"/>
					</g>
				</g>
				<g>
					<path class="st1" d="M962.5,1251.3h3.3l18.9,26.3l5.1,7.5h0.3c-0.2-3.7-0.4-7.3-0.4-10.9v-22.9h3v37.4h-3.3l-18.9-26.4
						l-5.1-7.5h-0.3c0.2,3.6,0.4,7,0.4,10.6v23.2h-3V1251.3z"/>
				</g>
			</g>
			<rect x="108.1" y="1268.4" class="st2" width="298.7" height="3.7"/>
			<rect x="1065" y="1268.1" class="st2" width="277.6" height="3.7"/>
		</g>
	</g>
	<path d="M1120.5,444.7c-5.3-24.4-43-184.2-196.5-253.3c-31.4-14.1-137.6-55.9-256-7.2C528.1,241.9,486.9,378.6,482,396.1
		c71.4-135.2,229-194.3,358.8-143.7c130,50.7,187.6,194.2,171.2,314C993.9,698,889,783.1,799.4,814.3c-71.8,25-136.2,16.4-162,11.6
		c-10.3-1.9-89.6-17.4-154.1-74.4c-116.1-102.4-137.2-297.3-77.5-444c50.5-124.1,149.4-190.2,200.6-218.3c7.2-3.9,13.4-7.1,18.4-9.6
		c-10.8,2.2-71.1,15.5-139.4,55.4c-0.1,0.1-0.2,0.1-0.4,0.2c-131,74.1-219.4,214.6-219.4,375.9c0,232.7,184.2,422.4,414.8,431.2
		c0.2,0,0.4,0,0.6,0c33.6,1.5,67.1-1,99.6-7.4c20.1-4,39.1-9.3,56.8-15.6c0.1,0,0.1,0,0.2-0.1C979,870.7,1087,750.8,1119,602.6
		c6.3-27,10-55.9,9.6-86.5c0-0.2,0-0.4,0-0.6C1128.3,492.7,1125.8,469.1,1120.5,444.7z"/>
</g>
</svg>
