<?xml version="1.0" encoding="utf-8"?>
<!-- Generator: Adobe Illustrator 24.0.2, SVG Export Plug-In . SVG Version: 6.00 Build 0)  -->
<svg version="1.1" id="Capa_1" xmlns="http://www.w3.org/2000/svg" xmlns:xlink="http://www.w3.org/1999/xlink" x="0px" y="0px"
	 viewBox="0 0 1800 1132.5" style="enable-background:new 0 0 1800 1132.5;" xml:space="preserve">
<style type="text/css">
	.st0{fill:#DD2220;}
	.st1{fill:#124993;}
</style>
<g>
	<g>
		<g>
			<path class="st0" d="M1222.4,71.7l-16.7,45.3c-6.7-0.2-13.5-0.2-20.4-0.2c-99.8,0-189.2,16.6-249.9,42.9
				c-12.5,5.4-23.7,11.2-33.6,17.4c-9.9-6.2-21.1-12-33.6-17.4c-60.7-26.3-150.1-42.9-249.9-42.9c-8.1,0-16.2,0.1-24.2,0.3
				l-16.7-45.2c13.4-0.6,27.1-0.9,40.9-0.9c120.3,0,225.6,24.1,283.5,60.2C959.7,95.1,1065,71,1185.2,71
				C1197.8,71,1210.2,71.2,1222.4,71.7z"/>
			<path class="st0" d="M1195.3,145.1l-16.9,45.8c-90.5,0.7-172.2,15.1-230.9,37.8v0c-4.2,1.6-8.3,3.3-12.2,5
				c-0.3-0.4-0.7-0.9-1-1.3c-0.8,0.9-1.6,1.9-2.4,2.8c-11.1,5-21.2,10.3-30.2,15.8c-9-5.6-19.1-10.9-30.2-15.8
				c-0.8-0.9-1.6-1.9-2.4-2.8c-0.4,0.4-0.7,0.9-1,1.3c-3.9-1.7-8-3.4-12.2-5c-59.5-23.1-142.6-37.5-234.7-37.8l-16.9-45.8
				c4.6-0.1,9.3-0.1,13.9-0.1c93.3,0,177.5,14.5,237.7,37.9c8.5,3.3,16.4,6.7,23.9,10.4c7.9,3.8,15.2,7.8,21.9,12
				c6.7-4.2,14-8.2,21.9-12c7.5-3.6,15.4-7.1,23.9-10.3v0c60.2-23.3,144.4-37.9,237.7-37.9C1188.6,145,1192,145.1,1195.3,145.1z"/>
		</g>
		<path class="st0" d="M896.4,619.9c43.2,26.4,112.9,43.5,191.6,43.5c76.7,0,144.9-16.3,188.3-41.5c42.8,24.9,109.7,41.1,185,41.5
			l17.2-45.1c-4.6,0.1-9.2,0.2-13.9,0.2c-76.7,0-144.9-16.3-188.3-41.5c-10.3,6-22.1,11.5-35,16.4c-41.4,15.7-94.9,25.1-153.3,25.1
			c-60.8,0-116.3-10.2-158.3-27.1c-12.3-4.9-23.5-10.4-33.3-16.4c-9.8,6-21,11.5-33.3,16.4c-42,16.8-97.5,27.1-158.3,27.1
			c-6.2,0-12.3-0.1-18.4-0.3l-22.6-57.4c19.8,2.7,40.6,4,61.9,4c69.2,0,132.5-15.4,178.9-41.4c46.3,26.1,110.3,41.4,181.1,41.4
			c17,0,33.7-0.9,49.8-2.7l-5.1,12.9h147.9l35.2-89.5l0,0l29.4-74.7v0l62.8-159.7H1258l-14,35.7h0c-43.7-22.1-98.7-35.7-158.1-35.7
			c-69.3,0-132.2,19.3-178.3,49.2c-46.7-30-111.1-49.2-181.8-49.2c-63.9,0-122.3,16.4-167,42.3l-16.7-42.3H394.2L524,581
			c-1.9-1-3.8-2.1-5.7-3.1c-10.6,6-22.7,11.5-35.9,16.4c-41,15.1-93.4,24.1-150.6,24.1c-3.4,0-6.8,0-10.2-0.1l17.1,45
			c72.8-0.9,137.5-16.6,179.6-40.5c8.3,4.7,17.4,9.1,27.3,13.1l15.8,40.3c-2.4-0.8-4.9-1.7-7.2-2.5c-13.3-4.9-16.5-14.8-27.1-20.8
			c-10.6,6-31.5,16-44.8,20.8c-36.4,13.4-81.9,22-131.7,23.8l16.8,44.1c61-4.1,120.5-16.8,157.1-37.6c16.5,9.4,35.6,17.2,57.1,23.4
			l27.9,70.8h147.8L735.1,742c66.1-3.8,123.7-19.7,161.2-42.6c43.2,26.4,112.9,43.5,191.6,43.5c76.7,0,144.9-14.5,188.3-39.8
			c37.3,21.7,92.8,35,156.2,38.8l16.8-44.2c-52.5-1.5-100.3-10.6-138-24.9c-12.9-4.9-24.7-12.2-35-18.2c-10.3,6-22.1,11.5-35,16.4
			c-41.4,15.7-94.9,26.9-153.3,26.9c-60.8,0-116.3-10.2-158.3-27.1c-12.3-4.9-23.5-10.4-33.3-16.4c-9.8,6-21,11.5-33.3,16.4
			c-39,15.6-89.7,25.6-145.4,26.9l-13.5-34.2h0.6C783.5,663.4,853.2,646.3,896.4,619.9z M977.1,380.3
			c19.6-20.9,58.4-35.1,103.1-35.1c61.9,0,112.6,27.3,116.4,61.9c0,0,0,0,0,0c0.2,1.4,0.2,2.8,0.2,4.2c0,11.6-5.2,22.5-14.5,31.9
			l0,0c-19.9,20.4-58.2,34.2-102.2,34.2c-43.7,0-81.8-13.6-101.8-33.8c-9.5-9.6-14.9-20.6-14.9-32.3
			C963.5,400.2,968.4,389.6,977.1,380.3z M617.5,442.9c-9-9.4-14.1-20.1-14.1-31.6c0-1.3,0.1-2.6,0.2-3.8
			c3.5-34.7,54.3-62.3,116.5-62.3c54.2,0,99.9,21,112.9,49.4c2.5,5.3,3.8,10.9,3.8,16.7c0,7-1.9,13.7-5.5,20
			c-15,26.7-59.1,46.1-111.2,46.1C675.8,477.5,637.3,463.5,617.5,442.9z"/>
	</g>
	<g>
		<g>
			<path class="st1" d="M340,891.7h-49.4l-77.4,95.5h24.6l10.8-13.3h74l5.2,13.3h49.4L340,891.7z M261.9,957.4l36.7-45.2l17.6,45.2
				H261.9z"/>
			<polygon class="st1" points="574.4,891.7 544,971.9 538.3,987.1 497.1,987.1 442.7,909.7 413.3,987.1 393.9,987.1 430,891.7 
				487.7,891.7 531.4,953.9 554.9,891.7 			"/>
			<polygon class="st1" points="891.7,891.7 884.6,910.4 841,910.4 812,987.1 757.5,987.1 786.5,910.4 742.9,910.4 750.1,891.7 			
				"/>
			<polygon class="st1" points="1001.6,969.1 994.4,987.1 882.4,987.1 889.2,969.1 911.4,910.4 918.6,891.7 973.4,891.7 966,910.4 
				943.8,969.1 			"/>
			<polygon class="st1" points="1602,892.5 1566.1,987.1 1512.2,987.1 1548,892.5 			"/>
			<path class="st1" d="M693.8,891.7h-49.4L567,987.1h24.6l10.8-13.3h74l5.2,13.3H731L693.8,891.7z M615.7,957.4l36.7-45.2
				l17.6,45.2H615.7z"/>
			<path class="st1" d="M1137.8,891.7h-49.4l-77.4,95.5h24.6l10.8-13.3h74l5.2,13.3h49.4L1137.8,891.7z M1059.7,957.4l36.7-45.2
				l17.6,45.2H1059.7z"/>
			<polygon class="st1" points="1372.2,891.7 1341.8,971.9 1336,987.1 1294.9,987.1 1240.4,909.7 1211.1,987.1 1191.6,987.1 
				1227.8,891.7 1285.4,891.7 1329.2,953.9 1352.7,891.7 			"/>
			<polygon class="st1" points="1526.6,891.7 1519.5,910.4 1476,910.4 1447,987.1 1392.4,987.1 1421.4,910.4 1377.9,910.4 
				1385,891.7 			"/>
			<path class="st1" d="M1646,953.7c0.4,2.2,1.1,4.5,1.9,6.7c0.4,0.9,0.8,1.7,1.2,2.6c3.1,6,9.3,8.2,16.8,8.2h0.4c0.3,0,0.5,0,0.8,0
				h54.5c-2.2,6.2-4.1,11.9-6.4,17.5c-0.3,0.8-2.5,1.5-3.8,1.5c-14.9,0.1-29.9,0.1-44.8,0.1c-3.3,0-6.6,0-9.9,0c-2.4,0-4.8,0-7.2,0
				h-10.2c-4.5,0-9,0-13.5-0.1c-0.7,0-1.3,0-2-0.1c0,0,0,0-0.1,0c-8.2-0.8-15.2-5.2-19.6-11.4c-1.2-1.7-2.3-3.6-3.1-5.6
				c-0.6-2-1-4.3-1.1-6.5c-0.1-0.9-0.1-1.7-0.1-2.6c0,0,0-0.1,0-0.1c0.1-2.3,0.4-5.1,0.8-7.6c0,0,2.1-9,3.9-14
				c0.1-0.2,0.1-0.3,0.2-0.5l3-8l3.9-10.3l0,0c3.6-9.6,10-17.5,18.1-23.1c3.8-2.6,8-4.7,12.5-6.2c5.6-1.3,11.4-1.7,17.3-1.7
				c28.6,0,57.1,0,85.7,0c0.8,0,1.5,0.1,2.7,0.2c-1.5,4.4-3.1,8.7-4.6,13.1l-53.7,0c-9.9,0-18.6,3.3-25.5,8.8
				C1653.3,923.2,1643.2,939.4,1646,953.7z"/>
			<path class="st1" d="M202.8,891.7h-111l0,0h-1.6l-32.4,80.9l-5.8,14.6h58.7l5.8-14.6l0,0h57.2c19.9-0.4,38.3-10.3,45.7-25.4
				l1.5-3.9l6.2-15.5C234.2,910.5,221.5,891.7,202.8,891.7z M177.3,929.3l-4.9,12.2l-2.2,5.6c-2.5,6.3-8.6,10.4-15.4,10.4h-32.2
				l20.3-50.8h18.9C173.6,906.6,181.6,918.4,177.3,929.3z"/>
		</g>
		<g>
			<g>
				<path class="st1" d="M1269,1049.7l16.9-40.8h7.5l-15.6,36.2h29.2l-1.3,4.6H1269z"/>
				<path class="st1" d="M1313.4,1038.5c0-5.8,2.3-10.6,7-14.3c3.9-3.1,8.9-4.7,15.2-4.7c4.9,0,8.9,1.1,11.9,3.3
					c3,2.2,4.5,5.2,4.5,9c0,3.4-0.9,6.6-2.8,9.5c-1.9,2.9-4.6,5.2-8.1,6.7c-3.5,1.6-7.2,2.3-11,2.3c-3.2,0-6.1-0.5-8.7-1.5
					s-4.6-2.4-6-4.2C1314.1,1042.9,1313.4,1040.8,1313.4,1038.5z M1320.4,1038c0,2.8,0.9,4.9,2.8,6.3c1.8,1.4,4.2,2.2,7,2.2
					c1.5,0,3-0.2,4.4-0.7c1.5-0.4,2.8-1.1,4.1-2c1.3-0.9,2.3-1.9,3.2-3.1c0.9-1.1,1.6-2.4,2.1-3.7c0.8-1.8,1.2-3.6,1.2-5.3
					c0-2.7-0.9-4.7-2.8-6.2c-1.9-1.5-4.2-2.2-7-2.2c-2.2,0-4.2,0.4-6,1.1c-1.8,0.8-3.4,1.9-4.9,3.3c-1.4,1.4-2.5,3.1-3.2,5.1
					C1320.7,1034.7,1320.4,1036.5,1320.4,1038z"/>
				<path class="st1" d="M1355.6,1052.4l7,0.5c-0.1,1.2,0.1,2,0.6,2.6c0.4,0.6,1.1,1,2.1,1.3c1.3,0.4,2.9,0.6,4.9,0.6
					c4.2,0,7.2-0.8,9.1-2.4c1.2-1.1,2.3-3.4,3.3-6.9l0.7-2.4c-3.6,2.7-7.4,4-11.5,4c-4.1,0-7.6-1.1-10.3-3.3
					c-2.8-2.2-4.2-5.3-4.2-9.3c0-3.3,1.1-6.4,3.3-9.2c2.2-2.8,4.8-4.9,7.8-6.3c3-1.4,6.1-2.1,9.3-2.1c5.4,0,9.5,1.8,12.4,5.5
					l1.4-4.8h6.4l-8.2,28.6c-0.9,3.1-2.1,5.6-3.5,7.3s-3.5,3.1-6.1,4.1c-2.6,1-5.6,1.4-9,1.4c-3.3,0-6.1-0.3-8.5-0.9
					c-2.4-0.6-4.1-1.5-5.3-2.7c-1.2-1.2-1.7-2.5-1.7-4.1C1355.4,1053.4,1355.4,1052.9,1355.6,1052.4z M1364.2,1036.6
					c0,2,0.3,3.5,0.8,4.6c0.8,1.4,1.9,2.5,3.3,3.3c1.4,0.8,3,1.1,4.7,1.1c2.3,0,4.5-0.6,6.8-1.7c2.3-1.2,4.1-3,5.5-5.4
					c1.4-2.4,2.1-4.8,2.1-7c0-2.4-0.9-4.4-2.8-5.8c-1.9-1.4-4.2-2.2-6.9-2.2c-1.7,0-3.3,0.3-4.9,1c-1.6,0.7-3.1,1.7-4.4,3
					c-1.4,1.3-2.4,3-3.1,4.8C1364.6,1034.2,1364.2,1035.6,1364.2,1036.6z"/>
				<path class="st1" d="M1401.5,1049.7l8.5-29.6h7l-8.5,29.6H1401.5z M1411.6,1014.6l1.7-5.7h6.9l-1.7,5.7H1411.6z"/>
				<path class="st1" d="M1417.8,1039.6l7-0.3c0,1.4,0.3,2.7,0.9,3.7c0.6,1,1.7,1.9,3.4,2.5c1.7,0.7,3.6,1,5.8,1
					c3.1,0,5.4-0.4,6.9-1.3c1.5-0.9,2.3-1.9,2.3-3.1c0-0.9-0.5-1.7-1.4-2.5c-0.9-0.8-3.3-1.7-6.9-2.9c-3.7-1.1-6-1.9-7-2.4
					c-1.7-0.8-3-1.7-3.9-2.7c-0.9-1-1.3-2.2-1.3-3.6c0-2.3,1.3-4.3,3.8-6c2.6-1.7,6.1-2.5,10.8-2.5c5.1,0,9,0.9,11.7,2.6
					c2.7,1.7,4.1,4,4.2,6.8l-6.8,0.3c-0.1-1.8-1-3.2-2.6-4.2c-1.6-1-4-1.6-7-1.6c-2.4,0-4.3,0.4-5.6,1.2c-1.3,0.8-2,1.7-2,2.6
					s0.6,1.7,1.7,2.5c0.8,0.5,2.8,1.2,6,2.2c5.3,1.7,8.7,3,10.1,4c2.2,1.5,3.3,3.4,3.3,5.6c0,1.5-0.6,2.9-1.9,4.3
					c-1.2,1.4-3.1,2.5-5.7,3.4c-2.5,0.8-5.5,1.3-9,1.3c-4.7,0-8.7-0.8-12-2.5C1419.2,1046.1,1417.6,1043.4,1417.8,1039.6z"/>
				<path class="st1" d="M1476.9,1045.6l-1.2,4.1c-1.7,0.3-3.3,0.5-4.8,0.5c-2.8,0-5-0.5-6.6-1.5c-1.2-0.7-1.8-1.8-1.8-3
					c0-0.6,0.3-2.1,1-4.5l5-17.2h-5.5l1.1-3.9h5.5l2.1-7.3l7.9-3.5l-3.1,10.8h6.8l-1.2,3.9h-6.8l-4.7,16.4c-0.6,2.1-0.9,3.3-0.9,3.7
					c0,0.6,0.2,1,0.7,1.4c0.5,0.3,1.2,0.5,2.3,0.5C1474.3,1045.9,1475.7,1045.8,1476.9,1045.6z"/>
				<path class="st1" d="M1484.3,1049.7l8.5-29.6h7l-8.5,29.6H1484.3z M1494.4,1014.6l1.7-5.7h6.9l-1.7,5.7H1494.4z"/>
				<path class="st1" d="M1531.2,1038.9l7,0.5c-1.7,3.7-4.2,6.4-7.4,8.2c-3.2,1.8-6.9,2.7-11,2.7c-4.4,0-8-1-10.8-3.1
					c-2.8-2.1-4.1-5-4.1-8.7c0-3.2,0.9-6.4,2.6-9.5c1.8-3.1,4.3-5.5,7.6-7.1c3.3-1.6,7-2.4,11.3-2.4c4.4,0,7.8,0.9,10.4,2.7
					c2.6,1.8,3.8,4.2,3.8,7.1l-6.8,0.3c0-1.9-0.8-3.3-2.2-4.4c-1.5-1.1-3.4-1.6-5.8-1.6c-2.8,0-5.2,0.6-7.3,1.9
					c-2,1.3-3.7,3.2-4.8,5.8c-1.2,2.6-1.7,5.1-1.7,7.5c0,2.5,0.8,4.4,2.3,5.7c1.5,1.3,3.4,1.9,5.7,1.9c2.3,0,4.4-0.6,6.5-1.9
					C1528.4,1043.4,1530,1041.5,1531.2,1038.9z"/>
				<path class="st1" d="M1542,1039.6l7-0.3c0,1.4,0.3,2.7,0.9,3.7c0.6,1,1.7,1.9,3.4,2.5c1.7,0.7,3.6,1,5.8,1
					c3.1,0,5.4-0.4,6.9-1.3c1.5-0.9,2.3-1.9,2.3-3.1c0-0.9-0.5-1.7-1.4-2.5c-0.9-0.8-3.3-1.7-6.9-2.9c-3.7-1.1-6-1.9-7-2.4
					c-1.7-0.8-3-1.7-3.9-2.7c-0.9-1-1.3-2.2-1.3-3.6c0-2.3,1.3-4.3,3.8-6c2.6-1.7,6.1-2.5,10.8-2.5c5.1,0,9,0.9,11.7,2.6
					c2.7,1.7,4.1,4,4.2,6.8l-6.8,0.3c-0.1-1.8-1-3.2-2.6-4.2c-1.6-1-4-1.6-7-1.6c-2.4,0-4.3,0.4-5.6,1.2c-1.3,0.8-2,1.7-2,2.6
					s0.6,1.7,1.7,2.5c0.8,0.5,2.8,1.2,6,2.2c5.3,1.7,8.7,3,10.1,4c2.2,1.5,3.3,3.4,3.3,5.6c0,1.5-0.6,2.9-1.9,4.3
					c-1.2,1.4-3.1,2.5-5.7,3.4c-2.5,0.8-5.5,1.3-9,1.3c-4.7,0-8.7-0.8-12-2.5C1543.4,1046.1,1541.8,1043.4,1542,1039.6z"/>
			</g>
			<g>
				<path class="st1" d="M1604.4,1036.5l7.4-0.5l-0.1,1.4c0,1.6,0.5,3,1.5,4.3c1,1.3,2.7,2.3,5,3c2.3,0.7,5,1.1,8.2,1.1
					c4.5,0,7.9-0.7,10.3-2.1c2.4-1.4,3.6-3.1,3.6-4.9c0-1.3-0.6-2.5-1.9-3.5c-1.3-1-4.8-2.5-10.5-4.2c-4.4-1.4-7.4-2.5-9.1-3.2
					c-2.5-1.2-4.4-2.5-5.6-3.9c-1.2-1.4-1.8-3-1.8-4.9c0-2.1,0.8-4,2.4-5.7c1.6-1.7,3.9-3,7-3.9s6.5-1.3,10.3-1.3
					c4.6,0,8.4,0.6,11.6,1.7c3.1,1.1,5.4,2.6,6.9,4.5c1.4,1.9,2.1,3.6,2.1,5.3c0,0.2,0,0.4,0,0.8l-7.3,0.4c0-1.2-0.1-2.1-0.4-2.7
					c-0.5-1.1-1.3-2.1-2.4-2.9c-1.1-0.8-2.6-1.4-4.4-1.9c-1.9-0.5-4-0.7-6.3-0.7c-4.1,0-7.3,0.7-9.6,2c-1.7,1-2.6,2.4-2.6,4.1
					c0,1,0.4,1.9,1.1,2.7c0.7,0.8,2,1.6,3.9,2.3c1.3,0.5,4.5,1.6,9.5,3.2c4,1.3,6.8,2.3,8.4,3.1c2,1,3.6,2.2,4.7,3.6
					c1.1,1.4,1.7,3,1.7,4.8c0,2.2-0.9,4.2-2.8,6.1c-1.9,1.9-4.4,3.3-7.7,4.3c-3.3,1-7,1.5-11.3,1.5c-6.4,0-11.6-1-15.6-3
					C1606.4,1045.4,1604.4,1041.7,1604.4,1036.5z"/>
				<path class="st1" d="M1650.7,1049.7l1.7-5.7h7.9l-1.7,5.7H1650.7z"/>
			</g>
			<g>
				<path class="st1" d="M1664.4,1049.7l31.9-40.8h8.9l9.3,40.8h-7.3l-2.7-11.8h-22.8l-9,11.8H1664.4z M1684.9,1033.7h18.6
					l-2.2-10.3c-0.8-4.1-1.4-7.5-1.6-10.2c-1.3,2.3-3.1,5.1-5.6,8.3L1684.9,1033.7z"/>
				<path class="st1" d="M1725,1049.7l1.7-5.7h7.9l-1.7,5.7H1725z"/>
			</g>
		</g>
	</g>
</g>
</svg>
