<?xml version="1.0" encoding="utf-8"?>
<!-- Generator: Adobe Illustrator 24.0.2, SVG Export Plug-In . SVG Version: 6.00 Build 0)  -->
<svg version="1.1" id="Capa_1" xmlns="http://www.w3.org/2000/svg" xmlns:xlink="http://www.w3.org/1999/xlink" x="0px" y="0px"
	 viewBox="0 0 1800 773" style="enable-background:new 0 0 1800 773;" xml:space="preserve">
<style type="text/css">
	.st0{fill:#1367AB;}
	.st1{fill:#FFFFFF;}
	.st2{fill:#FEFAFD;}
	.st3{fill:#4D4D4D;}
</style>
<g>
	<g>
		<g>
			<path class="st0" d="M74.6,390.1v147H223v-147H74.6z M176.1,464.4c-5.2,5.7-9.1,8.5-22.8,8.5h-19.2v39.3h-12.8v-96.6h30.9
				c6.4,0,6.9,0.3,10.2,0.9c4.7,0.8,7.6,2.3,10.8,4.5s5.8,5.3,7.8,9.3c1.9,4,2.9,8.4,2.9,13.2C184,451.7,181.3,458.7,176.1,464.4z"
				/>
			<path class="st1" d="M181,430.3c-2-4-4.5-7.1-7.8-9.3s-6.1-3.7-10.8-4.5c-3.4-0.6-3.8-0.9-10.2-0.9h-30.9v96.6h12.8v-39.3h19.2
				c13.7,0,17.5-2.8,22.8-8.5c5.2-5.7,7.8-12.6,7.8-20.9C184,438.7,183,434.3,181,430.3z M165.6,456.9c-3.5,3.1-3.8,4.6-12,4.6
				h-19.4V427h19.1c5.8,0,4.2,0.3,6.4,0.8c3.3,0.9,6,2.8,8.1,5.7c2,2.9,3.1,6.3,3.1,10.4C170.8,449.5,169,453.8,165.6,456.9z"/>
			<path class="st0" d="M170.8,443.9c0,5.6-1.7,9.9-5.2,13c-3.5,3.1-3.8,4.6-12,4.6h-19.4V427h19.1c5.8,0,4.2,0.3,6.4,0.8
				c3.3,0.9,6,2.8,8.1,5.7C169.8,436.4,170.8,439.8,170.8,443.9z"/>
		</g>
		<path class="st0" d="M74.6,546v147H223V546H74.6z M186.1,627.4c0,10.2-1,18.2-3.1,24.2c-2.1,6-5.8,10.8-11.3,14.6
			c-5.4,3.8-12.6,5.6-21.4,5.6c-8.6,0-15.6-1.6-21.1-4.9c-5.5-3.3-9.4-8-11.7-14.2c-2.3-6.2-3.5-14.6-3.5-25.4V569h12.1v58.4
			c0,8.8,0.7,15.3,2.2,19.4c1.5,4.2,4,7.4,7.6,9.6c3.6,2.3,8,3.4,13.2,3.4c8.9,0,15.3-2.2,19.1-6.7c3.8-4.5,5.7-13,5.7-25.7V569
			h12.1V627.4z"/>
		<path class="st1" d="M186.1,569v58.4c0,10.2-1,18.2-3.1,24.2c-2.1,6-5.8,10.8-11.3,14.6c-5.4,3.8-12.6,5.6-21.4,5.6
			c-8.6,0-15.6-1.6-21.1-4.9c-5.5-3.3-9.4-8-11.7-14.2c-2.3-6.2-3.5-14.6-3.5-25.4V569h12.1v58.4c0,8.8,0.7,15.3,2.2,19.4
			c1.5,4.2,4,7.4,7.6,9.6c3.6,2.3,8,3.4,13.2,3.4c8.9,0,15.3-2.2,19.1-6.7c3.8-4.5,5.7-13,5.7-25.7V569H186.1z"/>
		<g>
			<path class="st0" d="M230.6,546v147H379V546H230.6z M348.9,640.6c-1.8,6-4.1,11-6.9,15c-2.8,4-5.8,7.1-9.2,9.3
				c-3.3,2.3-7.3,4-12,5.2c-4.7,1.2-10.1,1.7-16.2,1.7h-36.3V569h34.6c7.8,0,13.8,0.5,17.9,1.5c5.8,1.4,10.7,3.8,14.7,7.4
				c5.3,4.6,9.3,10.4,11.9,17.6c2.6,7.1,3.9,15.3,3.9,24.5C351.6,627.6,350.7,634.6,348.9,640.6z"/>
			<path class="st1" d="M347.6,595.4c-2.6-7.1-6.6-13-11.9-17.6c-4.1-3.6-9-6-14.7-7.4c-4.1-1-10.1-1.5-17.9-1.5h-34.6v102.9h36.3
				c6.1,0,11.5-0.6,16.2-1.7c4.7-1.2,8.7-2.9,12-5.2c3.3-2.3,6.4-5.4,9.2-9.3c2.8-4,5.1-8.9,6.9-15c1.8-6,2.7-13,2.7-20.8
				C351.6,610.7,350.3,602.5,347.6,595.4z M332,638.1c-1.7,5.1-4,9.2-6.9,12.2c-2.1,2.2-4.9,3.8-8.5,5c-3.5,1.2-8.4,1.8-14.7,1.8
				h-20.2v-73.8h19.9c7.4,0,12.8,0.7,16.2,2c4.6,1.8,8.6,5.5,11.8,10.9c3.2,5.4,4.9,13.2,4.9,23.3C334.5,626.8,333.6,633,332,638.1z
				"/>
			<path class="st0" d="M334.5,619.5c0,7.3-0.8,13.5-2.5,18.6c-1.7,5.1-4,9.2-6.9,12.2c-2.1,2.2-4.9,3.8-8.5,5
				c-3.5,1.2-8.4,1.8-14.7,1.8h-20.2v-73.8h19.9c7.4,0,12.8,0.7,16.2,2c4.6,1.8,8.6,5.5,11.8,10.9
				C332.8,601.7,334.5,609.4,334.5,619.5z"/>
		</g>
		<g>
			<path class="st0" d="M230.6,390.1v147H379v-147H230.6z M340.6,514.1h-12.4l-48.1-77.4v77.4h-11.6v-98.5h12.4l48.1,77.3v-77.3
				h11.6V514.1z"/>
			<polygon class="st1" points="340.6,415.5 340.6,514.1 328.1,514.1 280.1,436.6 280.1,514.1 268.4,514.1 268.4,415.5 280.9,415.5 
				328.9,492.9 328.9,415.5 			"/>
		</g>
		<g>
			<rect x="74.6" y="80" class="st0" width="304.4" height="302.2"/>
			<g>
				<path class="st2" d="M230,133.9c0.3,0,0.6,0.1,0.9,0.1c7.6,0.1,15.1,1.3,22.4,3.6c4.6,1.4,9.1,3.2,13.4,5.4
					c6.4,3.3,12.3,7.2,17.8,12c7.4,6.5,13.6,14.1,18.3,22.8c5.3,9.6,8.6,19.9,9.9,30.9c0.5,3.9,0.7,7.9,0.6,11.9
					c-0.2,7.3-1.3,14.4-3.4,21.4c-1.5,4.8-3.3,9.5-5.7,14c-3,5.7-6.5,11-10.7,15.8c-5,5.7-10.6,10.6-17,14.8
					c-5.2,3.4-10.7,6.1-16.5,8.2c-6.2,2.3-12.6,3.7-19.2,4.4c-2,0.2-4.1,0.3-6.2,0.4c-2.3,0.1-4.5,0.1-6.8,0
					c-4.8-0.2-9.5-0.9-14.2-1.9c-7.1-1.6-13.9-4.1-20.3-7.5c-5.9-3.1-11.4-6.8-16.5-11.2c-5.9-5.1-11-10.9-15.3-17.5
					c-5.1-7.7-8.7-16-11.1-25c-1.3-4.8-2.1-9.7-2.5-14.6c-0.8-10.4,0.3-20.6,3.3-30.6c1.4-4.5,3.1-8.8,5.3-13
					c3-5.9,6.7-11.4,11-16.4c4.8-5.5,10.2-10.3,16.3-14.3c9.5-6.3,19.9-10.4,31.1-12.3c4.5-0.8,8.9-1.2,13.5-1.2
					c0.3,0,0.7-0.1,1-0.1C229.7,133.9,229.9,133.9,230,133.9z M229.4,143.5c0-1.9,0-3.9,0-5.8c0-0.6-0.2-0.8-0.8-0.8
					c-0.6,0-1.2,0.1-1.8,0.1c-3.2,0.3-6.4,0.4-9.5,0.9c-9.9,1.4-19.2,4.7-27.9,9.7c-5.6,3.2-10.7,7.1-15.3,11.7
					c-0.6,0.6-0.6,0.6,0,1.2c2.9,2.9,5.7,5.8,8.6,8.6c0.6,0.6,0.7,0.6,1.3,0c0.9-0.8,1.7-1.7,2.6-2.4c4.9-4.3,10.3-7.8,16.2-10.5
					c8.1-3.7,16.6-5.7,25.5-6c0.8,0,1-0.2,1-1C229.4,147.3,229.4,145.4,229.4,143.5z M300.4,218.2c0,0,0,0.1,0,0.1
					c-0.8,0-1.5,0-2.3,0c-0.7,0-0.8,0.1-0.9,0.8c-0.1,1.7-0.2,3.5-0.4,5.2c-0.6,5.2-1.8,10.2-3.6,15.1c-2.1,5.6-4.8,10.9-8.3,15.8
					c-2,2.8-4.2,5.4-6.6,7.9c-0.3,0.4-0.3,0.6,0,0.9c0.8,0.8,1.7,1.6,2.5,2.5c2.1,2.1,4.2,4.2,6.4,6.4c0.5,0.5,0.7,0.5,1.1,0
					c0.7-0.8,1.4-1.5,2.1-2.2c2.4-2.7,4.7-5.5,6.7-8.5c4.2-6.3,7.4-13,9.7-20.2c2.3-7.4,3.5-14.9,3.6-22.7c0-1-0.1-1-1.1-1
					C306.4,218.2,303.4,218.2,300.4,218.2z M160.8,215.3c0.6-0.4,0.6-0.4,1.2-0.1c0.1,0.1,0.3,0,0.5,0.1c0-0.2,0-0.4,0-0.5
					c-0.2-0.4-0.4-0.7-0.5-1.1c0-0.2,0.1-0.4,0.2-0.5c0.1-0.1,0.4,0,0.5,0.1c0.3,0.2,0.5,0.4,0.8,0.6c0.3,0.2,0.4,0.1,0.5-0.2
					c0-0.2,0-0.4,0.1-0.6c0.1-1.3,0.2-2.5,0.3-3.8c0.6-5.2,1.8-10.3,3.6-15.2c1.5-4.2,3.4-8.2,5.7-12c2.2-3.7,4.8-7,7.6-10.2
					c0.3-0.4,0.4-0.6,0-1c-3-3-6-5.9-8.9-8.9c-0.4-0.4-0.7-0.4-1,0c-1.6,1.9-3.2,3.8-4.7,5.7c-3.6,4.6-6.5,9.6-8.9,14.9
					c-2.2,4.7-3.8,9.6-5,14.7c-1,4.2-1.6,8.4-1.9,12.7c-0.1,1.6-0.1,3.2-0.1,4.8c0,0.5,0.2,0.8,0.8,0.8c0.7,0,1.3,0,2,0
					c0.4,0,0.6-0.2,0.7-0.6c0.1-0.5,0.2-0.9,0.3-1.4c0.2-0.5,0.5-0.8,1-0.8c0.6,0,1-0.3,1.4-0.8c0.2-0.3,0.4-0.5,0.7-0.7
					c0.5-0.5,0.8-0.4,1,0.2c0.1,0.3,0.2,0.6,0.4,1c0.8-0.3,0.8-0.3,1.1,0.4c0.1,0.4,0.2,0.8,0.3,1.2
					C160.6,214.6,160.7,214.9,160.8,215.3z M229.4,290c0-1.9,0-3.8,0-5.7c0-0.5-0.2-0.8-0.8-0.8c-1.8-0.1-3.6-0.2-5.3-0.4
					c-5.4-0.6-10.7-1.9-15.8-3.7c-5.5-2-10.5-4.7-15.3-8c-2.8-2-5.5-4.2-8-6.6c-0.4-0.3-0.6-0.3-1,0c-2.6,2.6-5.2,5.2-7.8,7.8
					c-0.4,0.4-0.4,0.6,0,1c1,0.9,2,1.9,3.1,2.8c4.8,4.2,10.1,7.8,15.7,10.8c7.2,3.8,14.8,6.5,22.8,8c3.8,0.7,7.6,1.2,11.5,1.3
					c0.8,0,0.9-0.1,0.9-0.9C229.4,293.8,229.4,291.9,229.4,290z M303.8,215.9C303.8,215.9,303.8,215.9,303.8,215.9
					c1.9,0,3.9,0,5.8,0c0.5,0,0.8-0.1,0.8-0.7c-0.2-2.5-0.4-5-0.7-7.5c-1.1-8.6-3.6-16.8-7.4-24.6c-2.6-5.4-5.8-10.5-9.6-15.2
					c-1.6-2-3.3-3.8-5-5.7c-0.3-0.4-0.6-0.5-1-0.1c-2.6,2.6-5.3,5.2-7.9,7.8c-0.4,0.4-0.4,0.7,0,1.1c0.9,1,1.8,1.9,2.7,2.9
					c4.1,5,7.5,10.4,10.1,16.3c3.4,7.9,5.3,16.2,5.6,24.8c0,0.8,0.1,0.9,0.9,0.9C300,215.9,301.9,215.9,303.8,215.9z M231.8,290
					c0,1.9,0,3.7,0,5.6c0,0.9,0.1,1.1,1,1c2.9-0.2,5.8-0.3,8.7-0.6c8.6-1,16.8-3.4,24.6-7.1c5.1-2.4,9.9-5.4,14.4-8.9
					c1.8-1.4,3.4-2.9,5.2-4.4c0.4-0.3,0.4-0.6,0.1-1c-3-3-6-6-9-9c-0.3-0.3-0.6-0.3-0.9,0c-0.6,0.6-1.2,1.2-1.9,1.7
					c-1.8,1.3-3.1,2.9-4.1,4.9c-0.8,1.7-2.1,3.1-3.8,4.1c-2.2,1.4-4.5,2.6-6.8,3.9c-0.7,0.4-1.5,0.6-2.3,0.8c-0.3,0.1-0.7-0.1-1-0.3
					c-1.2-0.9-2.5-1.3-4-0.9c-3.8,1.3-7.7,2.3-11.6,2.8c-2.5,0.3-5.1,0.5-7.7,0.7c-0.8,0.1-0.9,0.1-0.9,1
					C231.8,286.3,231.8,288.2,231.8,290z M239.9,150.7c0.2,0,0.4,0.1,0.6,0.1c6.8,1,13.2,3,19.4,6c6,2.9,11.5,6.7,16.3,11.3
					c0.4,0.4,0.7,0.4,1.1,0c2.6-2.6,5.2-5.2,7.8-7.8c0.4-0.4,0.4-0.7,0-1c-1.2-1-2.3-2.1-3.5-3.1c-5.6-4.7-11.7-8.6-18.4-11.7
					c-6.6-3.1-13.4-5.3-20.6-6.4c-3.3-0.5-6.7-0.7-10-1.1c-0.7-0.1-0.8,0.1-0.8,0.8c0,3.8,0,7.7,0,11.5c0,0.7,0.2,0.8,0.8,0.9
					c0.9,0,1.9,0,2.8,0c1.1,0,2.1-0.1,3.1-0.6c1.3-0.6,2.6-0.5,3.9,0c0.2,0.1,0.4,0.2,0.6,0.4c0,0.1,0,0.2,0,0.2
					C241.9,150.3,240.9,150.5,239.9,150.7z M155.5,222.4c-0.1-0.2-0.1-0.3-0.2-0.4c-1,2-1.4,4.1-1.3,6.4c-0.2-0.5-0.3-1-0.4-1.5
					c-0.1-0.7-0.2-1.5-0.4-2.2c-0.3-1.5-0.4-3-0.1-4.5c0.1-0.5,0.2-1.1,0.3-1.6c0.1-0.4-0.1-0.6-0.4-0.6c-0.6,0-1.1,0-1.7,0
					c-0.4,0-0.6,0.2-0.6,0.6c0.1,1.3,0.2,2.6,0.3,3.9c0.9,9.4,3.3,18.4,7.3,27c3.6,7.8,8.4,14.9,14.3,21.2c0.4,0.5,0.6,0.5,1,0
					c2-2,3.9-3.9,5.9-5.9c0.6-0.6,1.3-1.3,2-1.9c0.4-0.3,0.4-0.6,0-1c-0.6-0.6-1.1-1.3-1.7-1.9c-4.3-5-7.8-10.6-10.4-16.6
					c-1.5-3.4-2.7-7-3.6-10.6c-0.1-0.3-0.2-0.6-0.4-0.7c-0.7-0.3-0.9-0.8-1-1.5c-0.1-0.8-0.2-1.5-0.3-2.3c0-0.1-0.2-0.2-0.3-0.3
					c-0.1,0.1-0.3,0.2-0.4,0.3c-0.1,0.2-0.1,0.5-0.1,0.7c0,0.3,0,0.5,0,0.8c-0.2-0.3-0.3-0.7-0.5-0.8c-1-0.9-1.8-2-2.1-3.3
					c-0.1-0.2-0.1-0.5-0.2-0.7c-0.1-0.2-0.3-0.3-0.5-0.5c-0.1,0.2-0.3,0.4-0.4,0.6c-0.1,0.4,0,0.8-0.1,1.2c0,0.3-0.2,0.5-0.3,0.8
					c-0.2-0.2-0.5-0.4-0.6-0.6c-0.2-0.3-0.2-0.6-0.4-0.9c-0.2-0.4-0.4-0.7-0.6-1.1c-0.3-0.6-0.6-1.1-0.8-1.7
					c-0.4-1.2-0.6-1.3-1.5-0.4C155.7,222.4,155.6,222.4,155.5,222.4z M229.4,159.1c0-1.8,0-3.7,0-5.5c0-0.6-0.2-0.8-0.8-0.7
					c-1.5,0.1-3,0.2-4.5,0.3c-9.3,1-18,3.8-26.1,8.6c-4.4,2.6-8.5,5.7-12.1,9.3c-0.5,0.5-0.5,0.6,0,1.1c2.6,2.6,5.2,5.2,7.8,7.8
					c0.5,0.5,0.6,0.5,1.1,0c1-0.9,2-1.9,3.1-2.8c3.4-2.8,7.2-5.2,11.2-7c6.1-2.8,12.5-4.4,19.3-4.6c0.9,0,1-0.1,1-1
					C229.4,162.6,229.4,160.9,229.4,159.1z M235.8,226.4c0.4,0,1,0,1.5,0c0.4,0,0.8,0.1,1.2,0.1c0.9,0.1,1.8,0,2.5,0.7
					c0.2,0.2,0.3,0.7,0.3,0.9c-0.1,0.2-0.5,0.4-0.8,0.5c-0.2,0.1-0.5,0.1-0.9,0.1c0.6,0.4,1.1,0.7,1.6,0.9c0.1,0.1,0.4,0.1,0.5,0
					c0.3-0.2,0.6-0.5,1-0.7c-0.1,0-0.2-0.1-0.3-0.1c-0.2-0.4-0.5-0.8-0.4-1.2c0.1-0.6-0.1-0.9-0.5-1.2c-0.4-0.3-0.8-0.5-1.2-0.8
					c-0.1-0.1-0.2-0.2-0.4-0.3c0-0.1,0.1-0.1,0.1-0.2c0.3,0.1,0.5,0.3,0.8,0.4c0.2,0.1,0.6,0.1,0.7,0c0.5-0.4,1-1,1.4-1.5
					c0,0,0.1-0.1,0.1-0.2c0-0.5,0.3-0.5,0.7-0.5c0.6,0,1.1-0.3,1.6-0.6c-0.2-0.1-0.4-0.2-0.5-0.2c-1.2,0.1-2.2-0.5-3.2-1
					c-0.2-0.1-0.2-0.3-0.3-0.5c0.2,0,0.4-0.2,0.5-0.1c0.9,0.2,1.8,0.3,2.6,0.5c0.8,0.1,1.6,0.3,2.4,0.4c0-0.2-0.1-0.4-0.2-0.4
					c-0.6-0.1-1.1-0.8-1.9-0.3c-0.1,0.1-0.3,0-0.4,0c-0.4-0.1-0.9-0.1-1.3-0.2c-0.4-0.1-0.7-0.2-1.2-0.4c0.5-0.1,0.8-0.2,1.2-0.3
					c-0.4-0.2-0.8-0.2-0.8-0.4c0-0.3,0.2-0.6,0.3-0.9c-0.3,0.1-0.6,0.2-0.9,0.2c-0.5,0.1-0.9,0.1-1.3-0.2c-0.3-0.2-0.7-0.4-1.1-0.5
					c-0.7-0.3-1.4-0.5-2.2-0.8c-0.3-0.1-0.5-0.3-0.8-0.3c-0.4,0-0.9,0.1-1.2,0.2c0.3-0.4,0.6-0.8,1-1.1c0.7-0.6,1.4-1,2.3-1
					c0.3,0,0.7-0.2,0.7-0.4c0.1-0.6,0.1-1.2,0-1.8c0-0.1-0.3-0.2-0.4-0.2c-0.1,0-0.3,0-0.4,0.1c-0.1-0.9,0-1.2,0.7-1.7
					c0.4-0.3,0.7-0.6,0.7-1.3c-0.4,0.2-0.8,0.2-1-0.2c-0.2-0.5-0.5-0.4-0.8-0.1c-0.1,0.1-0.3,0.2-0.4,0.3c-0.3,0.3-0.7,0.2-0.8-0.1
					c-0.2-0.5-0.4-1.1-0.4-1.7c-0.1-0.4-0.1-0.7-0.6-0.9c-0.5-0.1-0.7-0.4-0.6-1c0.1-0.5-0.2-0.8-0.7-0.9c-0.5-0.1-0.9-0.2-1.2-0.7
					c0,0-0.1-0.1-0.3-0.1c-0.1,0.2-0.1,0.4-0.2,0.6c-0.1,0.1-0.3,0.3-0.4,0.3c-0.7,0-1.5-0.6-1.6-1.3c-0.1-0.9-0.2-1.7-0.3-2.6
					c0-0.2,0.1-0.6,0.2-0.7c0.7-0.5,0-0.9-0.1-1.4c-0.1-0.4-0.5-0.4-0.8-0.4c-2.9,0.2-5.6,1-8,2.5c-0.1,0.1-0.3,0.3-0.3,0.4
					c0,0.2,0.2,0.3,0.4,0.4c0.3,0.2,0.7,0.3,1,0.5c1.1,0.8,2.1,0.8,3-0.2c0.1-0.1,0.2-0.2,0.2-0.2c0.7,0,0.8-0.5,1.2-0.9
					c0.6-0.7,1.2-1.2,2.2-1.6c-0.6,0.5-1,0.9-1.5,1.4c1.1,0.4,1.3,1.1,0.5,1.9c-0.2,0.2-0.4,0.4-0.6,0.6c0.6,0.5,0.6,0.6,0,1
					c-0.2,0.1-0.3,0.4-0.3,0.6c-0.1,0.7-1,1.9-1.6,2c-0.5,0.2-1.1,0.3-1.6,0.5c-0.3,0.1-0.5,0.3-0.7,0.5c-0.3,0.3-0.6,0.6-0.9,0.8
					c-0.5,0.3-1.1,0.6-1.6,0.9c-0.2,0.1-0.3,0.3-0.4,0.4c-0.1,0.3-0.3,0.6-0.3,0.9c0,0.3,0,0.7,0.1,1c0,0.1,0.5,0.1,0.8,0.1
					c0.4-0.1,0.5,0,0.4,0.4c-0.1,0.2-0.1,0.4-0.3,0.7c-0.6-0.8-1.2-0.6-1.9-0.5c-0.7,0.2-1.3,0.3-2.1,0.4c0.1-0.1,0.1-0.4,0.3-0.5
					c0.4-0.3,0.4-0.6,0.2-0.9c-0.1-0.3-0.2-0.5-0.4-0.8c-0.5-0.9-1.5-1-2.2-0.2c-0.2,0.2-0.3,0.4-0.5,0.5c-0.6,0.4-0.8,1-0.8,1.7
					c0,0.6,0.1,0.8,0.7,0.8c0.5,0,1,0.1,1.6,0.1c0.4,0,0.5,0.3,0.3,0.6c-0.3,0.4-0.7,0.8-1.1,1.1c-0.4,0.3-0.7,0.5-0.3,1
					c0.1,0.1,0,0.3,0,0.4c-0.1,0.2-0.3,0.3-0.5,0.4c-0.6,0.3-0.7,0.8-0.6,1.4c0.7,3.5,2.3,6.6,4.9,9.1c4.3,4.1,9.4,5.5,15.2,4.5
					c1.1-0.2,1.2-0.4,1.2-1.6c0-1.2,0.1-2.5,0.2-3.7c0-0.2,0.1-0.4,0.2-0.6C235.6,227.2,235.7,226.8,235.8,226.4z M229.4,274.5
					c0-1.7,0-3.3,0-5c0-1.3-0.1-1.3-1.3-1.4c0,0-0.1,0-0.1,0c-4.5-0.2-8.9-1-13.2-2.4c-5.9-1.9-11.2-4.7-16-8.5
					c-0.2-0.2-0.5-0.3-0.8-0.4c-0.6-0.2-1.2-0.4-1.8-0.6c-0.8-0.3-1.6-0.7-2.3-1.1c-0.5-0.2-0.9-0.1-1.3,0.3
					c-2.1,2.1-4.1,4.2-6.2,6.2c-0.6,0.6-0.6,0.6,0,1.2c2.6,2.6,5.4,4.8,8.5,6.9c5.2,3.5,10.9,6.2,16.9,8.1
					c5.5,1.7,11.1,2.6,16.8,2.9c0.9,0,1-0.1,1-0.9C229.4,278,229.4,276.2,229.4,274.5z M171.8,215.8c1.4,0,2.9,0,4.3,0
					c0.5,0,0.8-0.2,0.9-0.7c0.1-0.5,0.2-0.9,0.3-1.4c0.3-0.9,0.6-1.7,1.4-2.2c0.5-0.3,0.7-0.8,0.8-1.4c0.6-5,2.1-9.9,4.1-14.5
					c2.1-4.7,4.8-9,8.3-12.8c0.5-0.6,0.5-0.7,0-1.2c-2.6-2.6-5.1-5.1-7.7-7.7c-0.5-0.5-0.6-0.5-1.1,0c-3.5,3.8-6.5,8.1-9,12.7
					c-2.8,5.3-4.9,10.9-6.1,16.7c-0.8,3.7-1.3,7.5-1.4,11.3c0,1.1,0,1.1,1.1,1.1C169.2,215.8,170.5,215.8,171.8,215.8z M283.2,252.7
					c0.1,0,0.1,0,0.2,0c0.1-0.2,0.3-0.3,0.4-0.5c1.5-2.6,3-5.1,4.4-7.8c2.8-5.6,4.6-11.5,5.5-17.6c0.4-2.5,0.5-5.1,0.8-7.7
					c0.1-0.7-0.1-0.8-0.8-0.8c-3.7,0-7.3,0-11,0c-0.5,0-0.7,0.2-0.8,0.7c-0.1,1.1-0.1,2.2-0.3,3.3c-0.9,7.9-3.5,15.3-7.7,22
					c-0.6,1-1,2-1.3,3.1c-0.5,2-1.2,4-1.8,6c-0.2,0.6-0.3,1.3-0.3,1.9c0,0.3,0.2,0.7,0.3,0.8c0.5,0.2,1,0.3,1.5,0.2
					c0.7-0.1,1.2,0.1,1.7,0.6c0.8,0.7,0.9,0.9,0.4,1.8c-0.1,0.2-0.2,0.3-0.2,0.5c-0.2,0.3-0.2,0.6,0.1,0.8c0.4,0.4,0.8,0.8,1.2,1.2
					c0.3,0.3,0.5,0.3,0.8,0c1-1.1,2.1-2.3,3.1-3.4c0.1-0.1,0.2-0.3,0.2-0.5c-0.1-0.5-0.2-1-0.3-1.6c0-0.2-0.1-0.4-0.3-0.5
					c-0.8-0.7-0.9-0.9-0.3-1.8c0.8-1.2,1-2.5,1.1-3.9c0-0.3,0-0.5,0.1-0.8c0.1-0.5,0.5-0.9,1.1-0.9c0.5,0,0.7,0.2,0.7,0.7
					c0,0.2,0,0.4,0.1,0.5c0.3,0.6,0.6,1.2,0.8,1.9C282.9,251.7,283,252.2,283.2,252.7z M288.2,215.9c1.8,0,3.5,0,5.3,0
					c0.9,0,1-0.1,0.9-0.9c-0.1-1.7-0.2-3.3-0.3-5c-1.1-9.9-4.3-19.1-9.6-27.5c-0.2-0.3-0.4-0.5-0.7-0.6c-0.4-0.2-0.7-0.1-0.8,0.4
					c-0.1,0.5-0.2,1-0.4,1.5c-0.1,0.3-0.3,0.6-0.6,0.8c-0.6,0.4-1,0.3-1.7-0.4c-1-1-2-2-3-2.9c-0.5-0.5-1.1-0.9-1.7-1.2
					c-0.4-0.3-0.9-0.5-1.4-0.8c-0.3-0.2-0.6-0.3-0.9-0.5c-0.5-0.3-1.1-0.6-1.6-0.9c-0.3-0.2-0.5-0.3-0.8,0c-1,1-2,2-3,3
					c-0.3,0.3-0.2,0.5,0,0.8c0.3,0.3,0.6,0.6,0.9,1c3.6,4,6.5,8.6,8.7,13.5c2.7,6,4.1,12.4,4.4,19c0,0.7,0.1,0.8,0.9,0.8
					C284.6,215.9,286.4,215.9,288.2,215.9z M229.4,174.2c0-1.7,0-3.4,0-5.1c0-0.8,0-0.9-0.8-0.8c-0.7,0-1.4,0.1-2.1,0.1
					c-6.2,0.5-12.2,2.2-17.7,5c-4.4,2.2-8.3,5-11.9,8.4c-0.6,0.5-0.6,0.6,0,1.2c2.3,2.4,4.7,4.7,7.1,7.1c1,1,0.7,1,1.8,0
					c3-2.8,6.3-5,10.1-6.7c4.1-1.8,8.4-2.9,12.8-3.1c0.7,0,0.8-0.1,0.8-0.9C229.4,177.7,229.4,175.9,229.4,174.2z M257.1,158.8
					c-2.4-2.3-20.9-6.8-22.9-5.7c0.1,0.2,0.2,0.3,0.3,0.6c-0.2,0-0.3,0-0.4,0c-0.5-0.2-0.9-0.4-1.4-0.6c-0.8-0.3-1-0.2-1,0.6
					c0,3.6,0,7.2,0,10.8c0,0.8,0.2,0.9,0.9,0.9c1,0,1.9,0.1,2.9,0.2c11.4,1.2,21.5,5.7,30,13.5c0.4,0.3,0.6,0.3,0.9,0
					c0.9-0.9,1.8-1.8,2.8-2.8c0.1-0.1,0.2-0.3,0.2-0.3c-0.5-0.1-0.9-0.1-1.2-0.4c-1.2-0.9-2.4-1.9-3.6-2.9c-0.1-0.1-0.2-0.2-0.3-0.4
					c1-0.6,1-0.7,0.2-1.5c-0.4-0.4-0.9-0.8-1.3-1.3c-0.4-0.4-1-0.5-1.5-0.3c-0.4,0.1-0.8,0.3-1.2,0.4c-0.4,0.1-0.7,0-0.9-0.4
					c-0.3-0.6-0.7-1.1-1-1.6c-0.2-0.3-0.5-0.7-0.6-1.1c-0.1-0.5-0.3-0.8-0.7-1.2c-0.5-0.5-1.1-1-1.6-1.5c-0.8-0.8-1.6-1.7-2.4-2.5
					c-0.8-0.9-0.6-1.5,0.5-1.8c0.6-0.2,1.2-0.2,1.8-0.3C256,159.1,256.5,159,257.1,158.8z M233.2,168.2c-0.1,0-0.2,0-0.3,0
					c-1.1,0-1.1,0-1.1,1c0,2.2,0,4.4,0,6.6c0,1.2,0,2.5,0,3.7c0,0.5,0.2,0.7,0.7,0.7c0.5,0,1,0,1.5,0.1c8,0.8,15,3.8,21,9.2
					c0.3,0.3,0.6,0.3,0.9,0c2.1-2.2,4.3-4.3,6.4-6.4c0.2-0.2,0.3-0.5,0.3-0.7c-0.1-0.2-0.4-0.4-0.7-0.5c-0.2-0.1-0.4,0-0.5-0.1
					c-0.8-0.7-1.5-1.3-2.3-2c-0.4-0.4-0.4-0.9-0.1-1.4c0.4-0.8,0.4-0.8-0.3-1.4c-4.1-2.9-8.6-5.1-13.3-6.6
					C241.3,169.2,237.3,168.4,233.2,168.2z M184.6,208.1c0.7-0.8,1-0.8,1.4,0.3c0.3,0.9,0.6,1.8,0.8,2.7c0.2,0.8,0.3,0.9,1.2,0.8
					c0.4-0.1,0.8-0.1,1.2,0c0.4,0.1,0.7,0.2,1-0.2c0.3-0.3,0.4-0.7,0.1-1.1c-0.4-0.5-0.3-1,0-1.6c0.2-0.3,0.4-0.7,0.6-1
					c0.8-0.9,1.4-2,2.6-2.5c0.4-0.2,1-0.6,1.1-1c0.5-1.1,1.3-2,2.2-2.8c0.4-0.4,0.9-0.9,1.1-1.4c1.3-2.6,2.8-5,4.7-7.2
					c0.5-0.6,0.5-0.7-0.1-1.3c-2.4-2.4-4.8-4.8-7.1-7.1c-0.7-0.7-0.7-0.9-1.5,0.1c-0.1,0.2-0.3,0.3-0.5,0.5
					c-4.8,5.7-8.1,12.2-9.9,19.4c-0.2,0.7-0.3,1.4-0.5,2.1C183.9,206.8,183.9,206.8,184.6,208.1z M229.3,244.1
					c-0.8-0.5-0.8-0.5-0.1-1.3c0,0,0.1-0.1,0.1-0.1c0-0.3,0.1-0.6,0-0.9c-0.1-0.3-0.4-0.6-0.6-0.9c-0.4-0.6-0.4-1.1,0.2-1.4
					c0.5-0.3,0.6-0.6,0.6-1.1c0-0.3,0-0.7,0-1.1c0-0.7-0.1-0.8-0.8-0.9c-4.2-0.5-7.9-2-11.1-4.8c-0.6-0.6-0.7-0.6-1.3,0
					c-2.8,2.8-5.6,5.6-8.4,8.4c-1,1-1,1,0,1.9c4.7,4.2,10.2,6.9,16.4,8.1c1,0.2,1.2,0.1,1.4-0.9c0.1-0.6,0.5-0.9,1.1-0.8
					c0.7,0.1,1.4,0.2,2.1,0.3c0.2,0,0.6-0.1,0.6-0.2c0-0.8,0.3-1.5-0.2-2.2c-0.1-0.1-0.1-0.3,0-0.4c0.5-0.9,0.5-1.1-0.6-1.3
					C228.8,244.4,229,244.3,229.3,244.1z M226.6,253.3c-0.1-0.1-0.2-0.2-0.2-0.2c-0.2-0.1-0.5-0.1-0.7-0.1
					c-5.9-0.8-11.4-2.9-16.3-6.4c-1.4-1-2.7-2.1-4-3.2c-0.3-0.3-0.6-0.3-0.9,0c-2.5,2.5-5.1,5.1-7.6,7.6c-0.4,0.4-0.3,0.7,0,1
					c0.5,0.4,1,0.9,1.5,1.3c5.4,4.7,11.6,8.1,18.5,10.2c0.2,0.1,0.4,0.1,0.8,0.2c-0.5-0.9-1.1-1.4-1.7-2c-0.6-0.5-0.7-1.1-0.2-1.7
					c0.2-0.2,0.3-0.3,0.5-0.5c0.5-0.4,0.7-1,0.6-1.7c-0.1-0.4,0-0.7,0.4-0.8c1.7-0.6,3.2-1.5,5.1-1.4c0.5,0,0.9-0.2,1.2-0.7
					c0.2-0.3,0.5-0.5,0.8-0.7c0.4-0.2,0.9-0.3,1.3-0.4C226.1,253.7,226.3,253.5,226.6,253.3z M210.6,218.2c-0.1,0-0.1,0-0.2,0
					c0,0.5-0.2,0.8-0.8,0.8c-0.1,0-0.1,0.1-0.2,0.1c-0.4,0.4-0.7,0.2-1-0.2c-0.2-0.5-0.6-0.7-1.1-0.7c-3.3,0-6.6,0-9.9,0
					c-0.7,0-0.8,0.2-0.8,0.9c0.2,3.3,0.9,6.5,2,9.6c1.4,3.7,3.4,7.1,5.9,10.2c0.5,0.7,0.7,0.7,1.3,0c2.9-2.9,5.9-5.9,8.8-8.8
					c0.4-0.4,0.5-0.7,0.1-1.2c-2.2-2.9-3.5-6.2-4-9.8C210.8,218.7,210.7,218.5,210.6,218.2z M271.5,190.7c0-0.1,0-0.2-0.1-0.2
					c-1.6-2.5-3.4-4.8-5.4-6.9c-0.3-0.4-0.6-0.3-0.9,0c-0.4,0.5-0.9,0.9-1.3,1.4c-2.1,2.1-4.2,4.2-6.3,6.3c-0.3,0.3-0.3,0.5,0,0.9
					c1.2,1.6,2.4,3.2,3.7,4.7c0.2,0.3,0.6,0.5,1,0.6c1.2,0.3,2.2,0.8,3,1.7c0.4,0.5,0.8,1,1.1,1.5c0.4,0.6,0.8,1.2,1.6,1
					c0.1,0,0.2,0,0.3,0.1c0.1,0.2,0.2,0.3,0.3,0.5c-0.1,0.1-0.3,0.2-0.4,0.2c-0.4,0.1-0.4,0.3-0.3,0.6c0.2,0.4,0.5,0.7,0.8,1
					c0.5,0.4,0.9,0.3,1.1-0.4c0.1-0.5,0.1-0.9,0.2-1.4c0.1-0.9,0.8-1.1,1.4-0.5c0.4,0.4,0.8,0.8,1.2,1.3c0.4,0.4,0.4,0.9,0.3,1.5
					c-0.1,0.8-0.1,1.7-0.2,2.5c0,0.5,0.3,0.8,0.8,0.9c0.5,0.1,0.7-0.3,0.8-0.6c0.1-0.5,0.2-1.1,0.2-1.7c0.1-0.4,0.1-0.9,0.3-1.2
					c0.1-0.2,0.4-0.4,0.6-0.4c0.2,0,0.4,0.3,0.4,0.5c0.1,0.7,0,1.4-0.4,2c-0.3,0.5-0.5,1-0.7,1.5c-0.2,0.4-0.4,0.6-0.8,0.6
					c-1.5,0.2-2,1.1-1.5,2.5c0.2,0.5,0.1,0.7-0.3,1c-0.3,0.2-0.5,0.5-0.7,0.8c-0.2,0.3-0.3,0.7-0.5,1c-0.3,0.4-0.3,0.9,0,1.3
					c0.2,0.4,0.6,0.4,1,0.4c2.1,0,4.2,0,6.4,0c0.8,0,1-0.1,0.9-1c-0.1-3-0.5-6-1.2-8.9c0-0.1-0.1-0.3-0.2-0.4c-0.1,0-0.1,0-0.2,0
					c-0.4,1.6-0.9,3.3-1.3,4.9c-0.1,0-0.1,0-0.2,0c0-0.4-0.1-0.9-0.1-1.3c0-1.3,0.1-2.7,0.1-4c0-0.5,0.2-1,0.2-1.5
					c0.1-0.9,0.4-1.9,0.1-2.7c-1-3.2-2.5-6.2-4.2-9.1c-0.1-0.2-0.2-0.3-0.4-0.5c-0.1,0.2-0.2,0.3-0.2,0.4c-0.5,0.8-1.2,0.9-1.9,0.4
					c-0.3-0.2-0.5-0.5-0.7-0.8c-0.4-0.5-0.8-1-1.2-1.5c-0.1-0.1-0.2-0.2-0.3-0.4c1.2,0.3,1.3,1.7,2.4,2.2c0.1-0.8-0.8-1.1-1-1.6
					c0.3,0,0.6,0.1,0.8,0c0.2-0.2,0.2-0.5,0.3-0.8c0.1,0,0.1,0,0.2,0c0.1,0.3,0.2,0.6,0.2,1C270.6,190.9,270.8,191,271.5,190.7z
					 M229.4,189.8c0-2.1,0-4.2,0-6.3c0-0.5-0.1-0.8-0.7-0.7c-0.3,0.1-0.7,0-1,0.1c-5.5,0.5-10.7,2.2-15.3,5.2
					c-1.9,1.2-3.6,2.7-5.3,4.2c-0.2,0.1-0.3,0.5-0.2,0.6c0.5,0.5,0.9,1.1,1.7,1.2c0.9,0.2,2-0.2,2.8,0.6c0,0,0.2,0,0.2,0
					c0.5,0.2,1.1,0.3,1.6,0.5c0.5,0.3,1,0.4,1.6,0.3c0.4,0,0.9-0.1,1.2,0.1c1.4,0.7,2.4,1.8,2.6,3.5c0,0.2,0,0.3,0.1,0.5
					c0.2,0.8,0.4,0.9,1.1,0.5c2.7-1.8,5.7-2.9,9-3.2c0.8-0.1,0.8-0.2,0.8-1C229.4,194,229.4,191.9,229.4,189.8z M253.4,191.8
					c0,0,0.1-0.1,0.1-0.1c-0.1-0.1-0.2-0.3-0.4-0.4c-1-0.8-1.9-1.6-3-2.4c-5.3-3.7-11.1-5.8-17.6-6.1c-0.8,0-0.9,0-0.9,0.8
					c0,2.8,0,5.7,0,8.5c0,1.3,0,2.7,0,4c0,0.4,0.1,0.7,0.6,0.8c1.1,0.2,2.2,0.4,3.3,0.6c0.7,0.1,0.9,0,1-0.7c0-0.3,0-0.7,0.2-0.9
					c0.6-1,1.8-1.4,2.7-2c0.1,0,0.4,0.1,0.4,0.2c0.3,1.1-0.3,2.5-1.3,3.1c-0.4,0.2-0.8,0.5-1.2,0.7c0,0.1,0,0.2,0,0.2
					c0.6,0.2,1.2,0.3,1.8,0.5c0.3,0.1,0.6,0.1,0.8,0.2c0.7,0.4,1.3,0.7,1.9,1.2c1.3,1,2.9,0.7,4-0.8c0.1-0.1,0.1-0.5,0-0.6
					c-0.4-0.5-0.2-0.9,0.1-1.2c0.2-0.2,0.4-0.3,0.6-0.6c0.4-0.7,1-1,1.8-1c0.7,0,1.3-0.3,1.7-0.8c0.5-0.5,1-1,1.5-1.5
					c0.2-0.2,0.4-0.6,0.3-0.7c-0.2-0.2-0.5-0.4-0.8-0.4c-0.5,0-0.9,0.2-1.4,0.3c-0.2,0-0.6,0-0.6-0.1c-0.1-0.2,0-0.5,0.1-0.7
					c0.8-0.9,1.7-1.1,2.8-0.6c0.2,0.1,0.5,0.2,0.7,0.4C253.1,191.8,253.2,191.8,253.4,191.8z M189.7,218.1c1.1,0.8,1.2,1.4,0.8,2.5
					c-0.2,0.5-0.3,1-0.2,1.5c0.1,1.2,0.3,2.3,0.5,3.5c0,0.3,0.1,0.6,0,0.9c-0.1,1.7-0.3,3.3-0.4,5c0,0.6,0,1.3,0.2,1.8
					c0.3,1.1,0.7,2.1,1.1,3.2c0.3,0.9,0.5,1.8,0,2.7c-0.5,1-0.5,1.1-1.5,0.5c0,0-0.1,0-0.1,0.1c0.8,0.7,1.3,1.6,1.6,2.6
					c0,0-0.1,0.1-0.1,0.1c-0.4-0.3-0.8-0.6-1.1-0.8c0.1,0.3,0.3,0.6,0.6,0.8c0.8,0.5,1.2,1.2,1.5,2c0.5,1.5,1.1,3,2.1,4.3
					c0.6,0.7,0.6,0.8,1.3,0.1c2.3-2.3,4.6-4.6,6.9-6.9c0.8-0.8,0.8-0.8,0.1-1.6c-3.6-4.3-6.2-9.1-7.5-14.5c-0.6-2.3-0.8-4.7-1.2-7.1
					c-0.1-0.4-0.2-0.7-0.7-0.7C192.2,218.1,191,218.1,189.7,218.1z M261.2,246.8c0.2,0.2,0.3,0.4,0.4,0.5c0.5,0.5,1,1,1.5,1.5
					c0.4,0.4,0.8,0.5,1.4,0.2c0.7-0.4,1.4-0.8,2-1.1c0.2-0.1,0.5-0.2,0.7-0.2c0.5,0.1,0.9-0.1,1.2-0.5c1.1-1.4,2-2.9,2.7-4.5
					c0.2-0.4,0.4-0.9,0.8-1c0.4-0.2,0.7-0.5,0.9-0.8c3-5.4,5-11.1,5.9-17.2c0.2-1.5,0.3-2.9,0.5-4.4c0-0.4,0-0.9-0.6-0.9
					c-2,0-4,0-6,0c-0.4,0-0.5,0.2-0.3,0.5c0.3,0.8,0.6,1.6,0.9,2.3c0.2,0.7,0.7,1,1.4,1.2c1.2,0.3,1.7,2,0.7,2.8
					c-1.2,1-2.4,2.1-4.1,1.9c-0.4,0-0.6,0.2-0.6,0.6c0,0.3,0,0.5-0.1,0.7c-0.1,0.2-0.3,0.4-0.5,0.6c-0.1,0.1-0.3,0.2-0.5,0.3
					c-0.2,0.2-0.3,0.5-0.5,0.7c-0.7,0.6-1.1,1.5-1.4,2.4c-0.1,0.5-0.3,1-0.5,1.5c-0.4,0.8-0.9,1.5-1.4,2.2c-0.2,0.4-0.6,0.7-0.8,1
					c-0.4,0.8-0.9,1.4-1.7,1.7c-0.3,0.2-0.7,0.3-1,0.5c-0.2,0.1-0.2,0.4-0.3,0.6c0.2,0.1,0.4,0.3,0.7,0.2c0.5-0.1,1.1-0.1,1.5-0.4
					c0.4-0.2,0.8-0.7,1-1.1c0.2-0.3,0.2-0.8,0.3-1.2c0.1-0.2,0.1-0.5,0.3-0.7c0.5-0.4,1-0.8,1.5-1.2c0.3-0.3,0.6-0.2,0.7,0.2
					c0.1,1,0.4,2,0.2,2.9c-0.4,2.2-1.2,4.3-2.1,6.3c-0.2,0.3-0.4,0.7-0.6,1c-0.4,0.5-0.9,0.7-1.5,0.4
					C263,246.2,262.2,246.4,261.2,246.8z M249.2,277.8c0-0.1,0-0.1,0-0.2c-0.2-0.1-0.5-0.2-0.7-0.3c-0.8-0.3-1.6-0.5-2.4-0.8
					c-0.8-0.3-1-0.8-0.5-1.6c0.3-0.5,0.7-1,1.1-1.5c0.2-0.3,0.4-0.5,0.1-0.9c-1-1.1-2.1-2-3.6-2.3c-0.5-0.1-1-0.2-1.4-0.3
					c-0.7-0.2-0.9-0.5-0.6-1.3c0-0.1,0.1-0.2,0.1-0.3c0.3-0.8-0.1-1.3-0.9-1.2c-0.4,0-0.7,0.2-1.1,0.2c-2.2,0.2-4.4,0.4-6.6,0.6
					c-0.6,0.1-0.9,0.3-0.8,0.9c0,1.1,0,2.2,0,3.3c0,2.5,0,5,0,7.5c0,0.8,0.1,0.9,0.9,0.9c0.4,0,0.8-0.1,1.2-0.1
					c4.9-0.2,9.7-1.1,14.5-2.4C248.7,278.1,248.9,277.9,249.2,277.8z M173,244C173,244.1,173,244.1,173,244c-0.1,0.2,0,0.3,0,0.4
					c0.7,1.4,1.4,2.8,2.2,4.1c2.3,4.1,5.1,7.9,8.3,11.4c0.4,0.5,0.6,0.5,1.1,0c1.3-1.3,2.6-2.6,3.9-3.9c0.1-0.1,0.2-0.3,0.3-0.4
					c-0.6-0.3-1.2-0.4-1.6-0.8c-1.4-1.4-2.6-2.8-4-4.2c-0.8-0.8-1.6-1.5-2.4-2.2c-0.3-0.3-0.7-0.3-1-0.1c-0.4,0.3-0.8,0.3-1.2,0
					c-1.3-1-2.6-2-3.8-3C174.2,245,173.6,244.5,173,244z M205.9,215.7c0-0.1,0-0.1,0.1-0.2c-0.4-0.2-0.7-0.4-1.1-0.5
					c-0.8-0.2-1.2-0.6-1.5-1.3c-0.1-0.3-0.2-0.5-0.3-0.8c-0.4-1.3-0.9-1.5-2.2-1.2c-0.4,0.1-0.7,0.2-1.1,0.2c-0.2,0-0.4-0.2-0.5-0.4
					c0-0.1,0.1-0.4,0.3-0.5c0.4-0.2,0.8-0.4,1.3-0.4c0.6-0.1,1.1-0.3,1.3-1c0.2-0.5,0.5-0.9,0.7-1.4c0.1-0.3,0.3-0.6,0.2-0.9
					c-0.2-0.9,0.2-1.6,0.7-2.4c0.6-0.8,0.5-1.8,0.2-2.6c-0.3-0.7-1-1.3-1.6-1.7c-1.1-0.6-1.8-0.4-2.2,0.6c-0.2,0.5-0.4,0.9-0.6,1.3
					c-0.4,0.8-0.7,1.6-0.6,2.6c0.1,0.6-0.1,1.4-0.9,1.7c-0.1,0.1-0.2,0.3-0.2,0.4c-0.1,0.5-0.3,0.9-0.4,1.4
					c-0.2,1.1-0.4,2.3-0.7,3.4c0.1,0,0.1,0,0.2,0.1c0.3-0.5,0.6-1,0.7-1.5c0.2-0.6,0.3-1.1,0.5-1.9c0.3,0.7,0.3,1.2,0.1,1.8
					c-0.3,0.8-0.7,1.6-1.1,2.4c-0.2,0.5-0.5,1.1-0.6,1.6c-0.2,0.9,0,1.1,0.9,1.1c2.6,0,5.2,0,7.8,0
					C205.6,215.8,205.7,215.7,205.9,215.7z M243.7,253.6c0,0.1,0,0.1,0,0.2c0.6-0.1,1.1-0.2,1.7-0.3c0.4-0.1,0.7-0.3,0.8-0.8
					c0.1-0.7,0.6-1.1,1.2-1.3c0.4-0.1,0.8-0.1,1.2-0.3c1.3-0.5,2.6-1,3.8-1.6c1-0.5,1.8-1.3,2.6-2c0.4-0.3,0.6-0.8,0.5-1.3
					c-0.1-0.5-0.2-1-0.4-1.5c-0.1-0.5-0.4-0.5-0.8-0.2c-0.3,0.2-0.6,0.5-0.9,0.8c-4,3.1-8.4,5.4-13.3,6.7c-0.5,0.1-0.9,0.3-1.1,0.9
					c-0.2,0.7-0.2,0.8,0.6,0.8C241,253.7,242.4,253.6,243.7,253.6z M232,245.2c0.7-0.7,1.4-1.3,2.1-2c0.3-0.2,0.6-0.5,0.9-0.7
					c0.9-0.5,0.9-0.5,0.5-1.5c-0.1-0.3-0.2-0.7-0.1-1c0-0.2,0.3-0.3,0.5-0.4c0.1,0.2,0.3,0.4,0.3,0.6c0.1,0.2,0,0.4,0,0.6
					c-0.1,0.7,0.3,1.1,1,0.9c0.3-0.1,0.5-0.1,0.8-0.1c0.3-0.1,0.7-0.2,1-0.3c0.4-0.2,0.7-0.5,1.1-0.7c1-0.4,1.2-0.8,0.9-1.8
					c-0.1-0.5-0.1-0.9,0.4-1.1c0.4-0.1,0.4-0.4,0.1-0.7c-0.6-0.7-0.6-0.8,0.2-1.4c0.3-0.3,0.6-0.6,0.8-0.9c-0.1-0.1-0.1-0.2-0.2-0.2
					c-0.3,0.1-0.5,0.2-0.8,0.3c-0.3,0.2-0.4,0.4-0.7,0.6c-0.5,0.5-1.1,0.5-1.6-0.1c-0.4-0.5-0.9-0.5-1.4,0c-0.4,0.4,0,0.7,0.2,1
					c0,0.1,0.1,0.1,0.2,0.2c0.4,0.3,0.4,0.7,0.3,1.2c-0.1,0.4-0.1,0.8-0.1,1.1c0.1,0.6-0.1,1.1-0.5,1.5c-0.3,0.4-0.6,0.4-0.9,0
					c-0.3-0.4-0.5-0.9-0.8-1.3c-0.5-0.9-0.5-0.9-1.2-0.2c0,0-0.1,0.1-0.1,0.1c-0.3,0.1-0.6,0.3-0.8,0.2c-0.2,0-0.3-0.4-0.4-0.6
					c-0.2-0.5-0.3-1.1-0.5-1.6c0-0.1-0.2-0.3-0.4-0.3c-0.9-0.2-1.3,0.1-1.3,1c0,1.2,0.1,2.5,0,3.7c-0.1,1.2,0.6,2.4,0.1,3.7
					C231.8,244.9,231.8,245,232,245.2z M195.1,208.1c0,0-0.1-0.1-0.1-0.1c-0.5,0.7-1,0.5-1.6,0.2c-0.9-0.5-1.7-0.3-2.2,0.7
					c-0.3,0.6-0.4,1.3-0.5,2c-0.1,0.7-0.1,1.4-0.7,1.9c-0.3,0.3-0.3,0.5-0.1,0.9c0.2,0.5,0.3,0.9,0.5,1.4c0.1,0.4,0.3,0.6,0.8,0.6
					c0.7,0,1.4,0,2.1,0c0.6,0,0.8-0.2,0.8-0.8c0.2-1.8,0.5-3.7,0.7-5.5C194.9,209,195,208.6,195.1,208.1z M258.1,199.1
					c0.1,0,0.1-0.1,0.2-0.1c0.2,0.1,0.4,0.2,0.6,0.3c0.2,0.1,0.5,0.1,0.7,0.1c-0.1-0.2,0-0.5-0.2-0.6c-1-1.4-2-2.8-3-4.1
					c-0.6-0.8-1.5-0.8-2.2-0.1c-0.4,0.4-0.9,0.8-1.3,1.3c-0.2,0.2-0.2,0.4-0.4,0.6c0.2,0.1,0.5,0.3,0.7,0.4c0.4,0.1,0.9,0.1,1.3,0.2
					c0.7,0.2,0.7,0.2,0.8-0.6c0-0.1,0-0.2,0-0.3c0.1-0.7,0.4-0.8,1-0.5c0.2,0.1,0.3,0.2,0.5,0.3c0.3,0.2,0.3,0.4,0.1,0.7
					c-0.2,0.2-0.4,0.4-0.4,0.6c-0.2,0.9-0.3,1.7,0.8,2.2c0,0,0.1,0.1,0.1,0.2c-0.1,0.1-0.2,0.3-0.4,0.5c0.5,0.3,1,0.6,1.5,0.9
					c0.1,0.1,0.4,0.1,0.4,0c0.1-0.1,0.1-0.3,0-0.5c-0.1-0.2-0.2-0.3-0.4-0.5C258.5,199.7,258.3,199.4,258.1,199.1z M248.3,244.2
					c0.1,0.2,0.2,0.5,0.5,0.7c0.3,0.2,0.7,0.3,1,0c0.5-0.5,1-0.9,1.5-1.4c0.3-0.3,0.6-0.7,0.9-1c0.7-0.6,0.7-0.5,0.1-1.2
					c-0.1-0.1-0.1-0.1-0.2-0.2c-0.3-0.4-0.6-0.5-1,0c-0.2,0.2-0.7,0.4-0.9,0.3c-0.7-0.2-1.2-0.1-1.4,0.6
					C248.6,242.7,248.5,243.4,248.3,244.2z M240.2,249.4c0-0.1,0-0.1,0-0.2c-0.3-0.1-0.6-0.1-0.9-0.2c-0.4-0.1-0.9-0.2-1.3-0.5
					c-0.6-0.4-1.2-0.4-1.8,0c-0.5,0.4-1.1,0.6-1.8,0.5c-0.4-0.1-0.7,0.2-0.9,0.5c-0.2,0.3-0.5,0.5-0.8,0.8c-0.2,0.1-0.4,0.2-0.6,0.3
					C234.9,250.7,237.5,250.1,240.2,249.4z M267.8,164.9c-0.1,0.1-0.1,0.1-0.2,0.2c0.2,0.3,0.4,0.8,0.8,0.9c0.8,0.3,1.2,0.9,1.5,1.6
					c0.1,0.2,0.3,0.5,0.5,0.7c1.1,1,2.2,2,3.2,3c0.2,0.2,0.5,0.2,0.7,0c0.5-0.4,0.5-0.7-0.1-1.2c-2-1.6-3.9-3.2-5.9-4.9
					C268.2,165,268,165,267.8,164.9z M259.8,249c-0.8-0.8-1.3-1.5-2-2.1c-0.2-0.2-0.7-0.1-1,0c-0.2,0.1-0.2,0.5-0.3,0.7
					c0,0.2,0,0.4,0,0.5c-0.1,0.4,0.1,0.5,0.4,0.6c0.6,0.1,1.2,0.3,1.8,0.3C259.1,249.2,259.4,249.1,259.8,249z M242.3,248.6
					c0.5-0.2,0.8-0.2,1.1-0.4c0.2-0.1,0.3-0.2,0.4-0.4c-0.1-0.1-0.3-0.2-0.5-0.3c-0.1-0.1-0.2,0-0.3-0.1c-1-0.2-2.1-0.3-3.1-0.5
					c-0.3-0.1-0.6-0.2-0.7,0.2c0,0.2,0.2,0.5,0.4,0.6C240.5,248.1,241.4,248.4,242.3,248.6z M272.6,264.5c0.6,0.1,0.9-0.4,1.3-0.7
					c0.3-0.2,0.3-0.5,0-0.7c-0.3-0.3-0.5-0.5-0.8-0.8c-0.3-0.3-0.5-0.3-0.7,0.1c-0.3,0.5-0.5,0.9-0.8,1.4c-0.2,0.4,0,0.7,0.4,0.7
					C272.2,264.4,272.4,264.4,272.6,264.5z M171.4,218.1c0,0.1-0.1,0.2-0.1,0.3c0.3,0.1,0.6,0.3,1,0.4c0.5,0.2,1,0.2,1.6,0.4
					c0.7,0.2,1.6,0.1,2-0.4c0.1-0.1,0.1-0.3,0.2-0.5c-0.2-0.1-0.3-0.1-0.5-0.2c-0.8,0-1.6,0-2.4,0
					C172.6,218.1,172,218.1,171.4,218.1z M281,177.8c0.1-0.1,0.1-0.1,0.2-0.2c-1.4-1.6-2.8-3.2-4.2-4.9c-0.3-0.3-0.6-0.4-0.9-0.1
					c-0.4,0.5,0,0.7,0.3,0.8c1.7,0.8,2.9,2.1,4,3.6C280.5,177.4,280.8,177.6,281,177.8z M263.1,182.2c0.2-0.2,0.4-0.3,0.5-0.6
					c0.1-0.1,0-0.4-0.1-0.5c-0.5-0.5-1-1-1.6-1.4c-0.2-0.1-0.4-0.1-0.7-0.1c0,0.2-0.1,0.5,0.1,0.7c0.4,0.6,0.9,1.2,1.4,1.8
					C262.9,182.1,263,182.1,263.1,182.2z M208.8,194.7c0.6,0.9,2.3,1.5,3.3,1.1C211,195.1,209.8,195.2,208.8,194.7z M206.3,195.6
					c-0.4-0.3-0.7-0.6-1.1-0.9c-0.1-0.1-0.4,0-0.5,0.1c-0.1,0.1-0.2,0.4-0.1,0.5C204.7,195.9,205.5,196.1,206.3,195.6z M254.8,239
					c-0.3,0.2-0.5,0.4-0.8,0.6c0.3,0.3,0.5,0.5,0.8,0.8c0.2-0.3,0.4-0.5,0.5-0.8C255.3,239.4,255,239.2,254.8,239z M238.2,232.2
					c0.3-0.3,0.4-0.5,0.6-0.7c-0.2-0.1-0.3-0.4-0.4-0.3c-0.2,0-0.3,0.3-0.4,0.4C237.8,231.8,238,232,238.2,232.2z"/>
				<path class="st2" d="M235.9,309.2c0.2,0.1,0.5,0.3,0.7,0.4c5.6,2.7,11,5.9,15.9,9.7c2.7,2.1,5.3,4.5,8,6.7
					c0.1,0.1,0.2,0.2,0.3,0.3c1,0.9,1.1,0.9,0.1,1.8c-1.1,1-2.2,1.9-3.3,2.9c-0.4,0.3-0.6,0.3-1-0.1c-2.6-2.6-5.1-5.3-7.8-7.8
					c-4.6-4.4-9.6-8.3-15.2-11.4c-0.4-0.2-0.9-0.4-1.3-0.7c-0.8-0.5-1.5-0.5-2.3-0.2c-2.1,0.8-4,1.9-5.9,3.2
					c-5.5,3.6-10.5,7.8-15,12.6c-1.4,1.4-2.6,3-3.8,4.5c-0.5,0.6-0.6,0.6-1.1,0.1c-1.2-1-2.4-2-3.7-3c-0.4-0.3-0.4-0.6,0-1
					c4.8-4.7,10-9.1,15.7-12.6c3-1.8,6.1-3.4,9.2-5.1c0.2-0.1,0.4-0.2,0.7-0.5c-0.3-0.1-0.6-0.2-0.9-0.3c-3.2-0.8-6.3-0.3-9.2,1.1
					c-2.7,1.2-5,3-7.4,4.7c-3.1,2.3-6.3,4.5-9.8,6.2c-5.4,2.7-11,3.9-17,3.7c-3.5-0.2-6.9-1.1-10.2-2.5c-3.4-1.5-6.6-3.2-9.3-5.6
					c-1-0.9-1.9-1.9-2.9-2.9c0,0-0.1-0.1-0.2-0.3c0.2,0.1,0.4,0.2,0.5,0.2c3.6,2.1,7.6,3.3,11.8,3.7c5.2,0.5,10.2,0,15.1-1.8
					c2.5-0.9,4.9-2.1,7.3-3.2c4.2-1.8,8.5-3.6,12.9-4.9c4.6-1.3,9.2-2,14-1.7c2.9,0.2,5.8,0.5,8.5,1.5c1.3,0.5,2.5,0.5,3.8-0.3
					c0.7-0.4,1.7-0.5,2.5-0.7c3.6-0.7,7.3-0.9,11-0.6c5.4,0.4,10.5,1.5,15.4,3.7c4,1.8,8.2,3.5,12.3,5.1c3.6,1.5,7.4,2.2,11.3,2.2
					c3.5,0,7-0.4,10.4-1.4c2-0.6,3.9-1.4,5.7-2.5c0.2-0.1,0.5-0.3,0.8-0.4c-0.2,0.3-0.4,0.6-0.7,0.8c-5.9,6-12.9,9.7-21.3,10.5
					c-5.1,0.5-10-0.5-14.8-2.3c-4.3-1.6-8.2-3.9-11.9-6.6c-2.2-1.6-4.5-3.1-6.8-4.6c-1.7-1.1-3.6-1.6-5.6-1.5
					c-1.6,0.1-3.1,0.2-4.7,0.3c-0.3,0-0.6,0.1-0.9,0.2C235.9,309.1,235.9,309.1,235.9,309.2z"/>
				<path class="st2" d="M313.6,253.2c-0.2,0.6-0.5,1.3-0.7,1.9c-1.3,3.5-1.8,7.1-2.3,10.8c-0.5,3.2-1,6.3-1.6,9.4
					c-1,4.9-3.2,9.2-6.5,13c-1.4,1.6-2.9,3.1-4.4,4.7c-0.2,0.2-0.3,0.3-0.5,0.5c0,0.1,0.1,0.1,0.1,0.2c0.4-0.2,0.9-0.3,1.3-0.6
					c1.1-0.8,2.1-1.6,3.1-2.5c2.6-2.3,5.4-4.2,8.4-5.9c3.6-1.9,7.2-3.7,10.8-5.6c3-1.6,6.1-3.2,8.8-5.3c3.7-2.8,6.8-6.2,8.9-10.4
					c0.1-0.1,0.1-0.2,0.3-0.3c0,0.2-0.1,0.4-0.1,0.6c-0.9,4.7-2.9,8.8-5.6,12.7c-1.6,2.3-3.4,4.5-5.4,6.5c-3.9,3.8-8.2,7-13,9.4
					c-4,2.1-8.3,3.1-12.7,3.9c-4.6,0.8-9.2,1.6-13.6,3c-0.1,0-0.3,0.1-0.5,0.1c0.7-0.7,1.3-1.4,2-2.1c1.7-1.8,3.1-3.9,4.4-6.1
					c1.7-3.1,2.9-6.3,4.1-9.6c1.4-3.9,2.7-7.9,4.1-11.8c1.3-3.5,3.1-6.7,5.4-9.7c1.7-2.3,3.3-4.5,5-6.8c0.1-0.1,0.1-0.1,0.2-0.2
					C313.5,253.2,313.6,253.2,313.6,253.2z"/>
				<path class="st2" d="M147.6,254.7c0.8,1,1.7,2,2.5,3.1c2.9,3.7,5.5,7.5,7.5,11.7c1,2,1.7,4.2,2.5,6.3c1.5,4,2.8,8.1,4.4,12.1
					c1.6,4.1,4,7.8,7.2,10.9c0.4,0.4,0.9,0.8,1.2,1.3c-0.1,0-0.2,0-0.3,0c-5-1.5-10.3-2.1-15.4-3c-3.3-0.6-6.6-1.4-9.7-2.6
					c-2.6-1-4.9-2.6-7.2-4.1c-2.5-1.7-4.8-3.5-6.9-5.6c-5.4-5.4-9.7-11.5-11.5-19.1c0-0.2-0.1-0.3-0.1-0.5c0-0.1,0-0.1,0-0.3
					c0.1,0.2,0.2,0.3,0.3,0.5c2,4.1,5.1,7.3,8.8,10c3.4,2.4,7.1,4.3,10.9,6.1c4.7,2.2,9.4,4.4,13.7,7.5c1,0.8,2,1.7,3.1,2.4
					c1.5,1,3.1,2,4.6,3c0.2,0.1,0.4,0.2,0.6,0.2c0,0,0.1-0.1,0.1-0.1c-0.2-0.2-0.3-0.4-0.5-0.5c-2-1.8-3.9-3.6-5.5-5.7
					c-2.5-3.2-4.4-6.8-5.3-10.8c-0.7-3.5-1.3-7-1.9-10.4c-0.7-4.1-1.3-8.2-3-12.1c0,0,0-0.1,0-0.2
					C147.6,254.7,147.6,254.7,147.6,254.7z"/>
				<path class="st2" d="M139.7,231.2c0.3,0.7,0.6,1.5,0.9,2.2c1.5,4.2,2.4,8.6,2.9,13.1c0.6,5.2,1,10.4,1.6,15.6
					c0.4,3.8,0.8,7.5,1.8,11.2c0.6,2,1.5,3.8,2.4,5.7c0.4,0.9,0.8,1.7,1.1,2.7c-0.1-0.1-0.2-0.1-0.3-0.2c-4.8-3.1-9.6-6.1-14.3-9.3
					c-4.1-2.7-8-5.8-11.5-9.4c-5.1-5.3-8.5-11.5-9.8-18.9c-0.3-1.6-0.4-3.2-0.4-4.8c-0.1-1.5,0-3.1,0-4.6c0-0.2,0-0.5,0.1-0.7
					c0,0.1,0.1,0.2,0.1,0.3c0.6,3.6,2.1,6.8,4.2,9.6c1.8,2.3,3.7,4.5,5.7,6.7c2.1,2.3,4.5,4.5,6.6,6.8c1.7,1.9,3.3,4,4.9,6.1
					c1.6,2.1,3,4.3,4.5,6.5c0.4,0.5,0.9,0.9,1.3,1.4c0.1,0,0.1-0.1,0.2-0.1c-0.1-0.2-0.1-0.5-0.3-0.7c-0.7-1.3-1.5-2.6-2.2-4
					c-1.5-3.1-2.2-6.5-2.5-9.9c-0.4-4.6,0.6-9.1,1.5-13.5c0.7-3.3,1.4-6.7,1.3-10.2c0-0.3,0-0.6-0.1-0.9c0-0.3,0-0.5-0.1-0.8
					C139.6,231.2,139.7,231.2,139.7,231.2z"/>
				<path class="st2" d="M321.4,229.7c0,0.9,0,1.7,0,2.6c0,3.2,0.6,6.4,1.2,9.5c0.5,2.6,1,5.2,1.4,7.9c1,7-0.5,13.6-4.3,19.6
					c-0.1,0.2-0.3,0.5-0.4,0.7c0.1,0.1,0.1,0.1,0.2,0.2c0.2-0.2,0.5-0.3,0.7-0.6c1.3-1.7,2.5-3.5,3.8-5.3c2-2.8,4.1-5.6,6.2-8.3
					c0.9-1.2,2.1-2.2,3.2-3.3c3.4-3.4,6.8-6.8,9.4-10.8c2.1-3.1,3.6-6.5,4.2-10.3c0,0.3,0.1,0.6,0.1,1c0,0.3,0.1,0.7,0.1,1
					c0.2,4.7-0.3,9.3-1.9,13.8c-1.8,4.9-4.4,9.3-7.8,13.2c-3.9,4.5-8.5,8.1-13.5,11.3c-4.3,2.7-8.4,5.6-12.6,8.5
					c-0.2,0.1-0.3,0.2-0.7,0.5c0.1-0.3,0.1-0.4,0.2-0.6c3-5.3,4.4-11.1,5-17.1c0.4-3.8,0.7-7.6,1-11.3c0.4-5.3,0.8-10.5,2.3-15.6
					c0.6-2.2,1.4-4.3,2.1-6.5C321.3,229.7,321.4,229.7,321.4,229.7z"/>
				<path class="st2" d="M272.9,304.5c0.6,0,1.2,0.1,1.7,0c1.7-0.3,3.4-0.5,5.1-0.9c3.9-0.8,7.8-1.2,11.7-1.5c5-0.4,10-0.7,14.9-1.7
					c3.9-0.8,7.7-2.1,11-4.4c1.5-1.1,2.9-2.4,4.3-3.7c0.1,0,0.1-0.1,0.3-0.1c-0.4,0.8-0.9,1.5-1.3,2.3c-2.4,3.7-5.5,6.8-9,9.3
					c-4.9,3.5-10.2,5.9-16.1,6.8c-4.2,0.6-8.4,0.5-12.5-0.2c-3.9-0.7-7.8-1.6-11.7-2.4c-3.2-0.7-6.3-1.4-9.5-2.1
					c-0.8-0.2-1.7-0.3-2.5-0.4c-0.2,0-0.4-0.1-0.6-0.2c0.9-0.2,1.8-0.5,2.7-0.7c2.8-0.7,5.5-1.6,8.1-2.9c2.5-1.2,4.8-2.8,6.8-4.7
					c3.2-3.2,6.4-6.4,9.7-9.5c3.4-3.3,7-6.5,10.9-9.3c0.2-0.1,0.3-0.2,0.6-0.3c0,0.1-0.1,0.2-0.2,0.3c-1.9,2.7-3.2,5.8-4.6,8.8
					c-1.1,2.3-2.2,4.6-3.5,6.8c-2,3.4-4.8,5.9-8.3,7.6c-1.6,0.8-3.3,1.3-5,1.9c-0.9,0.3-1.8,0.6-2.7,0.9
					C272.9,304.4,272.9,304.5,272.9,304.5z"/>
				<path class="st2" d="M139.7,293.6c1.7,1.6,3.5,3,5.5,4.2c3,1.7,6.2,2.8,9.6,3.5c3.6,0.7,7.2,1.1,10.9,1.3
					c5,0.3,10.1,0.5,15.1,1.4c2.1,0.4,4.3,0.8,6.4,1.2c0.5,0.1,1,0,1.6,0c0-0.1,0-0.2,0-0.2c-0.2-0.1-0.3-0.2-0.5-0.3
					c-0.7-0.2-1.4-0.5-2.2-0.6c-3.4-0.8-6.6-2.2-9.2-4.5c-2-1.7-3.5-3.7-4.8-6c-1.2-2.2-2.3-4.4-3.5-6.6c-1.4-2.6-2.8-5.1-4.2-7.6
					c-0.1-0.2-0.2-0.3-0.2-0.5c0.2,0.1,0.4,0.2,0.5,0.3c2.6,2.1,5.3,4.1,7.8,6.3c3.7,3.3,7.3,6.8,10.9,10.3c2.8,2.7,5.8,5,9.3,6.6
					c3.1,1.4,6.4,2.4,9.8,3.2c0.2,0.1,0.5,0.1,0.7,0.2c0,0.1,0,0.1,0,0.2c-0.4,0.1-0.8,0.2-1.2,0.2c-2.8,0.2-5.5,1-8.2,1.7
					c-5.3,1.4-10.6,2.8-16,3.6c-5.3,0.7-10.5,0.7-15.7-0.7c-5.6-1.5-10.6-4.2-15-8c-2.8-2.5-5.3-5.2-7.2-8.5
					C139.8,294,139.8,293.8,139.7,293.6z"/>
				<path class="st2" d="M331.5,242.6c0.6-0.2,0.8-0.7,0.9-1.1c0.6-2.6,1.3-5.3,1.8-7.9c1-4.9,2.7-9.6,4.8-14.1
					c1.8-3.8,3.4-7.7,4.3-11.9c0.7-3.2,1-6.4,0.6-9.7c0-0.1,0-0.2,0.1-0.4c0.1,0.2,0.2,0.3,0.2,0.5c1.4,3.6,2.2,7.3,2.5,11.1
					c0.5,6.8-0.3,13.4-2.6,19.8c-1.2,3.6-2.9,6.8-5.3,9.8c-3.1,3.9-6.1,7.9-9.2,11.9c-0.6,0.7-1.1,1.5-1.6,2.3c-0.1,0-0.1,0-0.2,0
					c0-0.3,0-0.6,0-0.9c0.1-1.9,0.2-3.9,0.3-5.8c0.1-3.4-0.7-6.7-1.8-9.9c-2.2-6.5-4.1-13.1-5.4-19.9c-0.6-3.3-1-6.7-1.4-10
					c-0.1-1.2,0-2.4,0-3.5c0.1,0,0.1,0,0.2,0c0.1,0.1,0.1,0.3,0.2,0.5c0.9,3.2,2.5,6.2,4.2,9c1.9,3.3,4,6.5,5.7,9.8
					c3,5.7,3.6,11.7,2,18c-0.1,0.6-0.3,1.1-0.4,1.7C331.5,242.1,331.5,242.3,331.5,242.6z"/>
				<path class="st2" d="M116.8,199.4c0,0.5-0.1,1-0.1,1.4c-0.3,3.4,0.2,6.8,1.2,10.1c1.1,3.7,2.7,7.2,4.4,10.7
					c2.2,4.6,3.9,9.4,4.8,14.5c0.5,2.5,1.2,4.9,1.9,7.4c0.1,0.3,0.4,0.5,0.6,0.7c0-0.3,0.1-0.6,0-0.9c-1.7-5.4-1.4-10.7,0.3-16
					c1.4-4.5,3.6-8.5,6.1-12.5c1.3-2,2.7-4,3.5-6.3c0.4-1.2,0.8-2.4,1.2-3.6c0.1-0.2,0.1-0.4,0.3-0.6c0,0.2,0,0.4,0,0.6
					c0.2,4.2-0.5,8.4-1.1,12.5c-0.9,6-2.7,11.8-4.3,17.6c-0.6,2.2-1.3,4.4-1.9,6.7c-0.8,3.1-0.9,6.2-0.7,9.4
					c0.1,1.1,0.2,2.2,0.3,3.2c0,0.1,0,0.2,0,0.5c-0.2-0.3-0.4-0.4-0.6-0.6c-2.3-4-5.4-7.5-8.3-11c-2.1-2.5-4.1-5.1-5.7-8
					c-1.2-2.1-1.9-4.5-2.5-6.8c-1-3.9-1.8-7.8-2-11.8c-0.2-4,0.1-8,1.1-12c0.4-1.6,0.9-3.2,1.3-4.8c0-0.1,0.1-0.3,0.2-0.4
					C116.7,199.4,116.7,199.4,116.8,199.4z"/>
				<path class="st2" d="M333.9,222.8c0-0.2-0.1-0.3-0.1-0.5c-0.8-4.3-2.6-8.2-5.1-11.8c-1.9-2.8-4-5.6-6.1-8.3
					c-2.3-3.2-4.7-6.3-6.4-9.9c-1.6-3.5-2.9-7.2-3.6-11c0-0.1,0-0.3-0.1-0.6c0.2,0.3,0.3,0.4,0.4,0.6c1.6,2.5,3.6,4.5,5.7,6.4
					c2.7,2.5,5.5,4.9,8.1,7.5c3.3,3.3,5.1,7.3,5.9,11.9c0.1,0.9,0.3,1.7,0.5,2.6c0,0.2,0.2,0.4,0.2,0.6c0.1,0,0.1,0,0.2,0
					c0-0.3,0.1-0.6,0.1-0.8c-0.1-1.6-0.3-3.2-0.5-4.8c-0.1-0.8-0.1-1.6-0.2-2.4c-0.2-4.8-0.1-9.5,0.3-14.3c0.2-2.4,0.6-4.8,0.7-7.3
					c0.1-1.6-0.1-3.2-0.2-4.8c-0.3-3.2-1-6.2-2.7-9c0,0,0.1-0.1,0.1-0.1c0.3,0.3,0.6,0.6,0.9,0.9c5,6.3,8.2,13.4,8.9,21.6
					c0.4,5.1,0,10.1-1.5,15c-0.5,1.5-1.1,2.9-1.7,4.3c-1.7,4.3-3,8.8-3.7,13.3c0,0.2-0.1,0.5-0.1,0.7
					C333.9,222.8,333.9,222.8,333.9,222.8z"/>
				<path class="st2" d="M128.9,168.4c-0.4,0.7-0.8,1.4-1.1,2.2c-1.2,2.6-1.6,5.3-1.7,8.1c-0.1,4.4,0.6,8.7,1.1,13.1
					c0.3,2.4,0.6,4.8,0.6,7.2c0,2.1-0.2,4.2-0.4,6.3c-0.1,1.9-0.3,3.8-0.4,5.7c0,0.3,0.1,0.6,0.1,0.9c0.1,0,0.1,0,0.2,0
					c0.1-0.2,0.2-0.4,0.3-0.6c0.2-0.9,0.3-1.8,0.5-2.7c0.7-4.6,2.9-8.4,5.8-11.8c2.6-3.1,5.6-5.9,8.7-8.6c1.9-1.7,3.6-3.5,4.7-5.8
					c0-0.1,0.1-0.1,0.1-0.2c0.1,0,0.1,0,0.2,0c-0.4,1.7-0.8,3.4-1.2,5c-1.4,5.5-4.2,10.4-7.4,15c-2.6,3.6-5.1,7.3-7.5,11
					c-2.1,3.3-3.6,6.8-4.3,10.6c0,0.1,0,0.1-0.1,0.2c-0.1-0.2-0.1-0.3-0.1-0.4c-0.5-4-1.9-7.7-3.3-11.5c-1.1-3-2.2-6-3.2-9.1
					c-1-3.2-1.3-6.5-1.3-9.8c0.1-3.3,0.4-6.6,1.3-9.7c1.1-3.8,2.8-7.3,5-10.6c1-1.5,2-2.9,3-4.3
					C128.6,168.6,128.7,168.5,128.9,168.4C128.9,168.3,128.9,168.4,128.9,168.4z"/>
				<path class="st2" d="M326.8,184.6c0-0.2-0.1-0.4-0.1-0.5c-1.5-3.3-2.6-6.8-3.5-10.3c-1.1-4.1-2.1-8.3-3.2-12.4
					c-1-3.7-3.1-6.7-6.1-9.1c-0.2-0.1-0.3-0.2-0.4-0.4c0,0,0-0.1,0-0.2c1,0.4,2.1,0.7,3,1.2c3.8,1.8,6.7,4.6,9.1,8
					c2.8,4,4.2,8.4,4.4,13.3c0.2,3.2-0.1,6.4-0.2,9.7c-0.2,3.5-0.3,6.9,0.3,10.4c0,0.2,0,0.3,0,0.5c-0.2-0.3-0.4-0.6-0.5-0.9
					c-1.8-3-4-5.5-6.7-7.7c-3.4-2.8-6.9-5.5-10.3-8.3c-3.2-2.6-6-5.6-7.8-9.4c-1.3-2.7-2.1-5.5-2.6-8.4c0-0.1,0-0.1,0-0.4
					c0.4,0.6,0.6,1.1,0.9,1.6c1.8,2.9,4.3,5,7,7c2.6,1.9,5.3,3.7,7.9,5.6c1.7,1.2,3,2.8,4.5,4.4c1.4,1.6,2.4,3.4,3.3,5.3
					c0.2,0.4,0.5,0.9,0.8,1.3C326.6,184.7,326.7,184.7,326.8,184.6z"/>
				<path class="st2" d="M133.8,186.3c0.1-0.2,0.2-0.3,0.3-0.5c2-4.6,5.1-8.5,9.2-11.5c1.9-1.4,3.8-2.8,5.8-4.2
					c3.5-2.6,6.8-5.4,8.7-9.5c0,0.2,0,0.4,0,0.6c-0.4,4.6-2.3,8.7-5,12.4c-2.7,3.6-6,6.7-9.5,9.4c-1.6,1.3-3.3,2.5-4.8,3.8
					c-2.9,2.5-5.4,5.3-7.3,8.7c-0.1,0.2-0.2,0.3-0.3,0.4c0,0-0.1,0-0.2,0.1c0-0.7-0.1-1.4,0-2.1c0.3-3.2,0.2-6.3-0.1-9.5
					c-0.4-4.7-0.5-9.4,0.4-14c0.8-3.9,2.4-7.4,5.1-10.4c2.2-2.5,4.7-4.7,7.8-6.1c0.6-0.3,1.2-0.5,1.8-0.7c0.1,0,0.2,0,0.4,0
					c-0.3,0.2-0.5,0.5-0.8,0.7c-1.9,1.6-3.3,3.7-4.3,6c-1.1,2.6-1.8,5.3-2.4,8c-0.8,3.8-1.5,7.6-2.8,11.3c-0.7,2-1.4,4-2,6
					c-0.1,0.2-0.1,0.5-0.1,0.8C133.6,186.3,133.7,186.3,133.8,186.3z"/>
				<path class="st2" d="M319,170.9c-0.7-0.5-1.5-1.1-2.2-1.6c-3.5-2.7-6.7-5.7-9.7-8.9c-3.6-3.8-6.8-7.9-9.7-12.3
					c-0.2-0.3-0.5-0.7-0.8-1c-1.8-1.9-3.7-3.8-5.5-5.6c-0.1-0.1-0.2-0.2-0.3-0.4c0.2,0,0.2,0,0.3,0c3.6,1.5,7.3,2.8,10.9,4.5
					c5.4,2.5,9.2,6.7,12.1,11.9c1.8,3.3,3,6.8,3.9,10.4c0.2,0.8,0.6,1.7,0.8,2.5c0.1,0.2,0.1,0.4,0.2,0.5
					C319.1,170.8,319,170.9,319,170.9z"/>
				<path class="st2" d="M140.8,172.2c0.2-0.6,0.5-1.1,0.6-1.6c0.7-2.3,1.4-4.7,2.1-7c2-6.8,6-12,12.1-15.7
					c3.6-2.2,7.6-3.7,11.5-5.3c0.4-0.2,0.8-0.3,1.4-0.5c-0.2,0.3-0.2,0.4-0.3,0.5c-4.1,3.7-7.3,8.2-10.5,12.7
					c-1.4,2-2.8,4.1-4.4,5.9c-1.5,1.7-3.2,3.2-4.8,4.7c-2.3,2-4.7,4-7.1,6C141.1,172,141,172.1,140.8,172.2z"/>
				<path class="st2" d="M238.2,232.2c-0.1-0.3-0.3-0.5-0.3-0.6c0.1-0.2,0.2-0.4,0.4-0.4c0.1,0,0.3,0.2,0.4,0.3
					C238.6,231.8,238.4,232,238.2,232.2z"/>
				<path class="st2" d="M157.7,235.9c1,1.2,1.8,3.9,1.6,4.9C158.1,239.3,158.5,237.4,157.7,235.9z"/>
				<path class="st2" d="M223.3,217.8c-0.2,0.7-0.3,1.4-0.9,1.9c-0.3,0.3-0.6,0.6-0.9,0.9c-0.3,0.3-0.6,0.6-0.9,0.8
					c-0.1,0.1-0.2,0.3-0.3,0.5c-0.3,0.7-0.6,0.8-1.3,0.4c-0.8-0.4-1.6-0.7-2.4-0.2c-0.2,0.1-0.4,0.1-0.7,0.1c0-0.2,0-0.5,0-0.7
					c0.5-1.3,1.2-2.3,2.8-2.5c0.2,0,0.4-0.1,0.5-0.2c0.7-0.7,1.5-1.3,2.1-2.1c0.6-0.7,1.2-0.4,1.8,0.3
					C223.2,217.3,223.2,217.6,223.3,217.8z"/>
				<path class="st2" d="M219.3,215c-0.3-0.2-0.6-0.3-0.9-0.4c0-0.1,0-0.1,0-0.2c0.7,0,1.4-0.1,2.1,0c0.4,0.1,0.4,0.9,0,1.2
					c-0.5,0.4-1,0.8-1.6,1.2c-0.2,0.2-0.5,0.4-0.7,0.6c-0.2,0.1-0.4,0.2-0.6,0.3c-0.1-0.2-0.2-0.4-0.3-0.6c-0.2,0.1-0.4,0.2-0.6,0.3
					c-0.2,0-0.4,0-0.5-0.1c-0.1-0.1-0.1-0.4,0-0.5c0.3-0.4,0.6-0.8,0.9-1.1c0.1-0.1,0.3-0.1,0.4,0C218.5,216.1,219,215.9,219.3,215z
					"/>
				<path class="st2" d="M223.5,216.1c0,0.1-0.1,0.4-0.2,0.5c-0.1,0.1-0.4-0.1-0.6-0.2c-0.4-0.3-0.8-0.6-1.2-1
					c-0.1-0.1-0.1-0.4-0.1-0.4c0.2-0.1,0.4-0.2,0.6-0.2c0.3,0,0.7,0.2,1,0.3C223.4,215.1,223.4,215.5,223.5,216.1z"/>
				<path class="st2" d="M221.4,212.6c-0.7,0-0.9-0.3-0.7-0.7c0.4-0.9,0.8-1.1,1.4-0.7c0.3,0.2,0.4,0.5,0.1,0.8
					C221.9,212.2,221.5,212.4,221.4,212.6z"/>
				<path class="st2" d="M228.5,230.3c0.4,0.3,0.9,0.5,0.6,1.1c-0.1,0.1-0.4,0.2-0.6,0.2C228.1,231.5,228.1,230.9,228.5,230.3z"/>
				<path class="st2" d="M223,212.3c0.1,0.3,0.3,0.5,0.2,0.5c-0.2,0.2-0.4,0.4-0.6,0.5c-0.1-0.1-0.2-0.2-0.2-0.3
					C222.6,212.8,222.8,212.6,223,212.3z"/>
				<path class="st2" d="M222.9,210.9c0.4,0.5,0.3,0.6,0,1C222.5,211.5,222.5,211.3,222.9,210.9z"/>
				<path class="st2" d="M226.5,243.4c-0.7,0-0.8-0.2-0.6-0.9c0.2-0.7,0.8-0.9,1.3-1.1c0.2-0.1,0.6,0.1,0.8,0.2
					c0.1,0.1,0.1,0.5,0.1,0.7C227.7,243.2,227.5,243.3,226.5,243.4z"/>
				<path class="st2" d="M269.2,193.9c0.2,0,0.4,0.1,0.5,0.1c0.3,0.1,0.5,0,0.7-0.3c0.1-0.1,0.3-0.2,0.5-0.2c0,0,0,0,0.1,0
					c1.6,0.3,2.7,1.1,3.1,2.7c0.1,0.4,0.3,0.8,0.5,1.2c0.5,0.7,0.3,1.4,0,2.2c-0.2,0.4-0.5,0.4-0.7,0.1c-1-1.6-2.5-2.8-3.9-3.9
					C269.5,195.3,269.2,194.7,269.2,193.9z"/>
				<path class="st2" d="M262.6,196c0.2,0.1,0.5,0.2,0.7,0.3c-0.1,0.1-0.1,0.3-0.2,0.3c-0.2-0.1-0.5-0.2-0.7-0.3
					C262.5,196.2,262.6,196.1,262.6,196z"/>
				<path class="st2" d="M244.8,197.2c0.2-0.6,0.4-1.1,0.6-1.6c0-0.1,0.2-0.1,0.3-0.2c0.2-0.2,0.5-0.4,0.7-0.6
					c0.1-0.1,0.3-0.2,0.4-0.3c0,0.2,0.2,0.4,0.1,0.5c-0.4,0.8-0.9,1.5-1.4,2.3c-0.1,0.1-0.3,0.2-0.5,0.2
					C245,197.6,244.9,197.4,244.8,197.2z"/>
				<path class="st2" d="M246.7,192.7c1.1-0.3,1.9,0.1,2.7,0.8c-0.6,0.2-1.1,0.4-1.6,0.6c-0.1,0-0.3-0.1-0.3-0.2
					C247.3,193.5,247,193.1,246.7,192.7z"/>
				<path class="st2" d="M276.9,221.9c-0.3,0.3-0.5,0.5-0.7,0.8c-0.2-0.2-0.5-0.4-0.5-0.6c0.1-0.3,0.3-0.5,0.5-0.7
					C276.4,221.5,276.6,221.6,276.9,221.9z"/>
			</g>
		</g>
	</g>
	<g>
		<path class="st3" d="M701.2,183.4c2.8-3.3,5-7.1,6.6-11.4c1.5-4.2,2.3-8.7,2.3-13.3c0-4.2-0.8-8.5-2.5-12.7c-1.6-4.2-4-8-6.9-11.4
			c-2.9-3.3-6.5-6.1-10.5-8.1c-4-2-8.5-3-13.3-3h-46.7v113.4h8.6v-42.6H678c4.8,0,9.2-1,13.1-3C695,189.4,698.4,186.7,701.2,183.4z
			 M638.8,131.3h37.8c3.3,0,6.5,0.7,9.5,2.2c3,1.5,5.6,3.5,7.9,6c2.2,2.5,4.1,5.5,5.4,8.8c1.3,3.3,2,6.8,2,10.5
			c0,3.6-0.6,7-1.7,10.3c-1.1,3.3-2.7,6.3-4.7,8.8c-2,2.6-4.6,4.6-7.5,6.1c-2.9,1.5-6.3,2.3-9.9,2.3h-38.7V131.3z"/>
		<path class="st3" d="M763,153.5c-0.8,0.1-1.8,0.1-2.9,0.1c-5.4,0.5-10.6,2.7-15.3,6.3c-4.5,3.5-8.2,8-11,13.5v-19.6h-7.9v83.2h8.4
			v-51.9c2.2-7.2,6.1-13,11.5-17.1c5.4-4.1,12-6.3,19.4-6.6l0.2,0v-7.9h-0.2C764.6,153.5,763.9,153.5,763,153.5z"/>
		<path class="st3" d="M826.4,235.1c5-2.3,9.4-5.4,13-9.4c3.6-3.9,6.5-8.6,8.6-13.8c2.1-5.2,3.1-10.7,3.1-16.5
			c0-5.8-1-11.4-3.1-16.6c-2.1-5.2-5-9.8-8.6-13.8c-3.7-3.9-8-7.1-13-9.4c-4.9-2.3-10.4-3.4-16.1-3.4c-5.7,0-11.1,1.2-16,3.4
			c-4.9,2.3-9.2,5.4-12.9,9.4c-3.7,3.9-6.6,8.6-8.6,13.8c-2.1,5.2-3.1,10.8-3.1,16.6c0,5.7,1,11.3,3,16.5c2,5.2,4.9,9.8,8.5,13.8
			c3.6,3.9,7.9,7.1,12.9,9.4c4.9,2.3,10.4,3.4,16.2,3.4C816,238.5,821.4,237.4,826.4,235.1z M810.2,160c4.4,0,8.6,1,12.5,2.8
			c3.9,1.9,7.3,4.5,10.2,7.7c2.9,3.2,5.2,7,7,11.2c1.7,4.2,2.6,8.9,2.6,13.7c0,4.9-0.9,9.6-2.6,13.8c-1.7,4.3-4.1,8.1-7,11.3
			c-2.9,3.3-6.3,5.8-10.2,7.7c-3.9,1.8-8.1,2.8-12.5,2.8c-4.4,0-8.6-0.9-12.5-2.8c-3.9-1.8-7.3-4.4-10.2-7.5
			c-2.9-3.1-5.2-6.9-6.9-11.1c-1.7-4.2-2.5-8.8-2.5-13.7c0-4.8,0.9-9.5,2.5-13.8c1.7-4.4,4-8.2,7-11.5c2.9-3.3,6.4-5.9,10.3-7.7
			C801.8,160.9,806,160,810.2,160z"/>
		<path class="st3" d="M930.1,263.9c3.6-2.8,6.4-6.4,8.6-10.7c2.1-4.3,3.2-9.3,3.2-14.9v-84.5h-7.6v17.5c-3.7-5.2-8.2-9.6-13.4-13.2
			c-5.4-3.8-11.8-5.7-19-5.7c-5.6,0-10.9,1.2-15.6,3.5c-4.7,2.3-8.8,5.5-12.2,9.5c-3.4,4-6.1,8.6-7.9,13.8
			c-1.9,5.2-2.8,10.7-2.8,16.3c0,5.4,1,10.7,2.9,15.8c1.9,5.1,4.7,9.7,8.2,13.7c3.5,4,7.7,7.2,12.5,9.6c4.8,2.4,10.1,3.6,15.9,3.6
			c6.1,0,12-1.7,17.6-5c5.4-3.2,9.8-7.3,13.2-12.3v17.4c0,4.5-0.8,8.5-2.4,11.8c-1.6,3.3-3.8,6.2-6.6,8.4c-2.8,2.2-6.1,4-9.8,5.1
			c-3.7,1.2-7.7,1.7-11.9,1.7c-6.3,0-12.3-1.3-17.9-3.9c-5.6-2.6-10-6.7-13.3-12.2l-0.1-0.2l-5.8,3.9l0.1,0.2c1.7,2.9,3.7,5.5,6,7.9
			c2.3,2.4,4.9,4.4,7.8,6.1c2.9,1.6,6.3,2.9,10.2,3.8c3.8,0.9,8.2,1.4,12.9,1.4c5.2,0,10.2-0.7,14.9-2.2
			C922.3,268.8,926.5,266.7,930.1,263.9z M904.6,230.9c-4.6,0-8.9-1-12.9-2.8c-3.9-1.9-7.4-4.5-10.4-7.7c-3-3.3-5.4-7-7-11.2
			c-1.7-4.2-2.5-8.7-2.5-13.4c0-4.3,0.7-8.6,2.1-12.9c1.4-4.2,3.5-8.1,6.2-11.5c2.7-3.4,6-6.1,9.9-8.2c3.9-2.1,8.3-3.2,13.3-3.2
			c3.1,0,6.3,0.6,9.4,1.7c3.1,1.1,6,2.6,8.7,4.5c2.7,1.9,5.1,4.2,7.2,6.9c2.1,2.7,3.8,5.6,5,8.7l0,27.1c-0.3,2.6-1.4,5.2-3.1,7.9
			c-1.8,2.6-4,5-6.7,7.1c-2.7,2.1-5.7,3.8-8.9,5.1C911.4,230.3,908,230.9,904.6,230.9z"/>
		<path class="st3" d="M1004.9,161.4v-7.9h-0.2c-0.6,0-1.4,0-2.2,0.1c-0.8,0.1-1.8,0.1-2.9,0.1c-5.4,0.5-10.6,2.7-15.3,6.3
			c-4.5,3.5-8.2,8-11,13.5v-19.6h-7.9v83.2h8.4v-51.9c2.2-7.2,6.1-13,11.5-17.1c5.4-4.1,12-6.3,19.4-6.6L1004.9,161.4z"/>
		<path class="st3" d="M1082.3,236.9l0.2,0v-7.6h-0.2c-2.1,0-3.1-1.2-3.1-3.7v-40.4c0-10.2-2.9-18.3-8.7-24.1
			c-5.8-5.8-13.8-8.7-23.8-8.7c-9.4,0-19.7,3.7-30.4,10.9l-0.2,0.1l3.4,5.8l0.2-0.1c4.5-3.2,9.1-5.6,13.6-7.3
			c4.5-1.7,8.8-2.5,12.9-2.5c7.5,0,13.6,2.3,18,6.9c4.4,4.5,6.6,10.8,6.6,18.5v7.8c-3.5-1.3-7.6-2.4-12-3.2
			c-4.6-0.8-9.1-1.2-13.6-1.2c-5.1,0-9.8,0.6-14,1.8c-4.2,1.2-7.9,2.9-11,5.1c-3.1,2.2-5.5,4.8-7.2,7.8c-1.7,3-2.6,6.3-2.6,10
			c0,3.6,0.7,7.1,2.1,10.2c1.4,3.1,3.4,5.9,5.9,8.2c2.5,2.3,5.5,4.1,8.8,5.5c3.4,1.3,7,2,10.8,2c6.9,0,13.4-1.3,19.3-4
			c5.7-2.6,10.5-6.3,14.2-11v6.2c0,2.2,0.8,4,2.5,5.3c1.6,1.4,3.4,2,5.4,2h1.4C1081.3,237.1,1081.8,237.1,1082.3,236.9z
			 M1039.6,231.7c-2.9,0-5.7-0.5-8.3-1.5c-2.6-1-4.8-2.4-6.7-4.1c-1.9-1.7-3.4-3.8-4.4-6.2c-1-2.4-1.6-5-1.6-7.7
			c0-5.4,2.5-9.8,7.5-13.2c5-3.4,11.7-5.1,19.9-5.1c8.4,0,16.6,1.5,24.6,4.4v14.5c0,2.1-0.9,4.1-2.7,6.2c-2.5,3.9-6.4,7-11.5,9.2
			C1051.4,230.6,1045.7,231.7,1039.6,231.7z"/>
		<path class="st3" d="M1196.5,160.1c6.6,0,11.5,2.5,14.7,7.4c3.2,4.9,4.8,12.7,4.8,23.1v46.4h8.4v-47.8c0-11.5-2-20.7-5.8-27.1
			c-3.9-6.5-10.5-9.7-19.7-9.7c-13.4,0-24.3,7.4-32.3,21.9c-0.9-6.4-3.5-11.7-7.7-15.7c-4.3-4.2-10.1-6.3-17.1-6.3
			c-6.7,0-12.9,1.9-18.4,5.6c-5.3,3.6-9.7,8.6-13.2,14.9v-19h-7.8v83.2h8.4v-51.4c1-3.8,2.5-7.2,4.4-10.3c1.9-3.1,4.1-5.8,6.6-8.1
			c2.5-2.3,5.3-4,8.4-5.2c3-1.2,6.3-1.8,9.6-1.8c6.6,0,11.5,2.5,14.6,7.3c3.1,4.9,4.7,12.7,4.7,23.2v46.4h8.4v-51.3
			c1-3.8,2.5-7.2,4.3-10.3c1.8-3.1,4-5.8,6.5-8.1c2.5-2.3,5.2-4,8.3-5.3C1189.8,160.7,1193,160.1,1196.5,160.1z"/>
		<path class="st3" d="M1248,231.1c2.5,2.3,5.5,4.1,8.8,5.5c3.4,1.3,7,2,10.8,2c6.9,0,13.4-1.3,19.3-4c5.7-2.6,10.5-6.3,14.2-11v6.2
			c0,2.2,0.8,4,2.5,5.3c1.6,1.4,3.4,2,5.4,2h1.4c0.5,0,1-0.1,1.6-0.2l0.2,0v-7.6h-0.2c-2.1,0-3.1-1.2-3.1-3.7v-40.4
			c0-10.2-2.9-18.3-8.7-24.1c-5.8-5.8-13.8-8.7-23.8-8.7c-9.4,0-19.7,3.7-30.4,10.9l-0.2,0.1l3.4,5.8l0.2-0.1
			c4.5-3.2,9.1-5.6,13.6-7.3c4.5-1.7,8.8-2.5,12.9-2.5c7.5,0,13.6,2.3,18,6.9c4.4,4.5,6.6,10.8,6.6,18.5v7.8
			c-3.5-1.3-7.6-2.4-12-3.2c-4.6-0.8-9.1-1.2-13.6-1.2c-5.1,0-9.8,0.6-14,1.8c-4.2,1.2-7.9,2.9-11,5.1c-3.1,2.2-5.5,4.8-7.2,7.8
			c-1.7,3-2.6,6.3-2.6,10c0,3.6,0.7,7.1,2.1,10.2C1243.5,226,1245.5,228.8,1248,231.1z M1269.2,231.7c-2.9,0-5.7-0.5-8.3-1.5
			c-2.6-1-4.8-2.4-6.7-4.1c-1.9-1.7-3.4-3.8-4.4-6.2c-1-2.4-1.6-5-1.6-7.7c0-5.4,2.5-9.8,7.5-13.2c5-3.4,11.7-5.1,19.9-5.1
			c8.4,0,16.6,1.5,24.6,4.4v14.5c0,2.1-0.9,4.1-2.7,6.2c-2.5,3.9-6.4,7-11.5,9.2C1281,230.6,1275.3,231.7,1269.2,231.7z"/>
		<path class="st3" d="M1438.4,221v8.8c0,1.9,0.7,3.6,2.2,5.1c1.5,1.5,3.4,2.3,5.8,2.3h1.3c0.4,0,0.9-0.1,1.5-0.2l0.2,0v-7.6h-0.2
			c-2.1,0-3.1-1.2-3.1-3.7V120.4h-8.4v50.8c-1.5-2.4-3.3-4.7-5.3-6.8c-2.2-2.3-4.7-4.4-7.4-6.2c-2.7-1.7-5.7-3.2-9-4.2
			c-3.3-1.1-6.7-1.6-10.3-1.6c-5.5,0-10.7,1.2-15.3,3.5c-4.6,2.3-8.7,5.5-12.1,9.4c-3.4,3.9-6.1,8.6-8,13.8
			c-1.9,5.2-2.9,10.7-2.9,16.5c0,5.5,1,10.9,3,16.1c2,5.1,4.8,9.8,8.3,13.8c3.6,4,7.8,7.2,12.7,9.6c4.9,2.4,10.3,3.6,16,3.6
			c6.2,0,12.2-1.7,17.9-5C1430.6,230.4,1435,226.2,1438.4,221z M1408.7,230.9c-4.6,0-8.9-1-12.9-2.8c-3.9-1.9-7.4-4.5-10.4-7.7
			c-3-3.3-5.4-7-7-11.2c-1.7-4.2-2.5-8.7-2.5-13.4c0-4.5,0.7-9,2.2-13.2c1.5-4.2,3.6-8.1,6.4-11.4c2.8-3.3,6.1-6,10-8.1
			c3.8-2,8.1-3.1,12.9-3.1c2.9,0,6,0.6,9.1,1.7c3.1,1.2,6.1,2.7,8.9,4.7c2.7,1.9,5.2,4.3,7.4,7c2.1,2.7,3.8,5.5,5,8.4l0,27.1
			c-0.3,3-1.4,5.9-3.4,8.5c-1.9,2.6-4.4,5-7.2,7c-2.8,2-5.9,3.7-9.2,4.8C1414.6,230.3,1411.5,230.9,1408.7,230.9z"/>
		<path class="st3" d="M1476.4,225.7c3.7,4,8.1,7.2,13,9.4c5,2.3,10.5,3.4,16.3,3.4c3.8,0,7.6-0.5,11.2-1.5c3.6-1,7-2.4,10-4.2
			c3-1.8,5.7-4,8-6.5c2.3-2.5,4.1-5.3,5.4-8.3l0.1-0.2l-7.4-2l-0.1,0.2c-1,2.3-2.5,4.4-4.3,6.4c-1.8,1.9-4,3.6-6.3,5
			c-2.4,1.4-5,2.5-7.7,3.2c-2.8,0.8-5.6,1.2-8.4,1.2c-4.3,0-8.4-0.8-12.2-2.5c-3.8-1.7-7.1-4-10-7c-2.9-2.9-5.3-6.5-7.2-10.5
			c-1.9-4-3-8.3-3.3-13h72.7v-0.2c0-0.2,0-0.8,0.1-1.5c0.1-0.8,0.1-1.5,0.1-2c0-5.7-1-11.2-3.1-16.4c-2.1-5.1-4.9-9.7-8.6-13.6
			c-3.6-3.9-7.9-7-12.9-9.3c-4.9-2.3-10.4-3.4-16.2-3.4c-5.7,0-11.2,1.1-16.2,3.4c-5,2.2-9.3,5.3-13,9.2c-3.6,3.9-6.5,8.4-8.6,13.6
			c-2.1,5.1-3.1,10.7-3.1,16.5c0,5.9,1,11.6,3.1,16.8C1469.8,217,1472.7,221.7,1476.4,225.7z M1505.4,159.3c4.3,0,8.4,0.8,12.2,2.4
			c3.8,1.6,7.1,3.9,10,6.8c2.9,2.9,5.3,6.4,7.1,10.4c1.8,3.9,2.9,8.3,3.2,13h-64.7c0.3-4.6,1.4-9,3.1-13c1.7-4,4.1-7.5,7-10.4
			c2.9-2.9,6.3-5.2,10-6.8C1497,160.1,1501.1,159.3,1505.4,159.3z"/>
		<polygon class="st3" points="491.6,330.6 569.1,427.8 569.2,427.9 577,427.9 577,314.6 568.5,314.6 568.5,413.5 489.6,314.5 
			489.6,314.4 483,314.4 483,427.9 491.6,427.9 		"/>
		<path class="st3" d="M658,414.4v6.2c0,2.2,0.8,4,2.5,5.3c1.6,1.4,3.4,2,5.4,2h1.4c0.5,0,1-0.1,1.6-0.2l0.2,0v-7.6h-0.2
			c-2.1,0-3.1-1.2-3.1-3.7v-40.4c0-10.2-2.9-18.3-8.7-24.1c-5.8-5.8-13.8-8.7-23.8-8.7c-9.4,0-19.7,3.7-30.4,10.9l-0.2,0.1l3.4,5.8
			l0.2-0.1c4.5-3.2,9.1-5.6,13.6-7.3c4.5-1.7,8.8-2.5,12.9-2.5c7.5,0,13.6,2.3,18,6.9c4.4,4.5,6.6,10.8,6.6,18.5v7.8
			c-3.5-1.3-7.6-2.4-12-3.2c-4.6-0.8-9.1-1.2-13.6-1.2c-5.1,0-9.8,0.6-14,1.8c-4.2,1.2-7.9,2.9-11,5.1c-3.1,2.2-5.5,4.8-7.2,7.8
			c-1.7,3-2.6,6.3-2.6,10c0,3.6,0.7,7.1,2.1,10.2c1.4,3.1,3.4,5.9,5.9,8.2c2.5,2.3,5.5,4.1,8.8,5.5c3.4,1.3,7,2,10.8,2
			c6.9,0,13.4-1.3,19.3-4C649.5,422.9,654.3,419.2,658,414.4z M626.1,422.6c-2.9,0-5.7-0.5-8.3-1.5c-2.6-1-4.8-2.4-6.7-4.1
			c-1.9-1.7-3.4-3.8-4.4-6.2c-1-2.4-1.6-5-1.6-7.7c0-5.4,2.5-9.8,7.5-13.2c5-3.4,11.7-5.1,19.9-5.1c8.4,0,16.6,1.5,24.6,4.4v14.5
			c0,2.1-0.9,4.1-2.7,6.2c-2.5,3.9-6.4,7-11.5,9.2C637.9,421.5,632.2,422.6,626.1,422.6z"/>
		<path class="st3" d="M750.6,406.7c-0.6,2-1.8,3.9-3.5,5.7c-1.7,1.8-3.8,3.5-6.2,4.8c-2.4,1.4-5,2.5-7.7,3.3
			c-2.8,0.8-5.6,1.3-8.4,1.3c-4.4,0-8.6-1-12.5-2.8c-3.9-1.9-7.3-4.5-10.2-7.7c-2.9-3.2-5.2-7-7-11.4c-1.7-4.4-2.6-9.1-2.6-14
			c0-4.9,0.8-9.6,2.5-13.8c1.6-4.2,3.9-8,6.8-11.1c2.9-3.1,6.3-5.6,10.2-7.4c3.9-1.8,8.1-2.7,12.6-2.7c5.3,0,10.3,1.3,14.8,3.9
			c4.5,2.6,8,6.1,10.4,10.6l0.1,0.2l8.2-2.7l-0.1-0.2c-3-6.1-7.4-10.9-13.1-14.3c-5.7-3.4-12.4-5.1-19.9-5.1
			c-5.9,0-11.5,1.1-16.5,3.4c-5,2.2-9.4,5.3-13,9.1c-3.7,3.8-6.5,8.4-8.6,13.6c-2,5.2-3,10.8-3,16.6c0,5.9,1.1,11.6,3.2,16.8
			c2.1,5.2,5.1,9.8,8.7,13.8c3.7,4,8.1,7.2,13,9.4c5,2.3,10.5,3.4,16.3,3.4c3.8,0,7.6-0.5,11.1-1.5c3.6-1,6.9-2.4,9.8-4.2
			c3-1.8,5.6-4,7.8-6.5c2.2-2.5,3.8-5.2,4.9-8.1l0.1-0.2l-8.2-2.4L750.6,406.7z"/>
		<rect x="776.4" y="344.7" class="st3" width="8.4" height="83.2"/>
		<rect x="776.4" y="311.3" class="st3" width="8.4" height="15.1"/>
		<path class="st3" d="M827.6,426c4.9,2.3,10.4,3.4,16.2,3.4c5.7,0,11.2-1.2,16.2-3.4c5-2.3,9.3-5.4,13-9.4
			c3.6-3.9,6.5-8.6,8.6-13.8c2.1-5.2,3.1-10.7,3.1-16.5c0-5.8-1-11.4-3.1-16.6c-2.1-5.2-5-9.8-8.6-13.8c-3.7-3.9-8-7.1-13-9.4
			c-4.9-2.3-10.4-3.4-16.1-3.4c-5.7,0-11.1,1.2-16,3.4c-4.9,2.3-9.2,5.4-12.9,9.4c-3.7,3.9-6.6,8.6-8.6,13.8
			c-2.1,5.2-3.1,10.8-3.1,16.6c0,5.7,1,11.3,3,16.5c2,5.2,4.9,9.8,8.5,13.8C818.4,420.6,822.7,423.7,827.6,426z M843.9,350.9
			c4.4,0,8.6,1,12.5,2.8c3.9,1.9,7.3,4.5,10.2,7.7c2.9,3.2,5.2,7,7,11.2c1.7,4.2,2.6,8.8,2.6,13.7c0,4.9-0.9,9.6-2.6,13.8
			c-1.7,4.3-4.1,8.1-7,11.3c-2.9,3.3-6.3,5.8-10.2,7.7c-3.9,1.8-8.1,2.8-12.5,2.8c-4.4,0-8.6-0.9-12.5-2.8
			c-3.9-1.8-7.3-4.4-10.2-7.5c-2.9-3.1-5.2-6.9-6.9-11.1c-1.7-4.2-2.5-8.8-2.5-13.7c0-4.8,0.9-9.5,2.5-13.8c1.7-4.4,4-8.2,7-11.5
			c2.9-3.3,6.4-5.9,10.3-7.7C835.5,351.8,839.6,350.9,843.9,350.9z"/>
		<path class="st3" d="M946.2,343.2c-3.7,0-7.4,0.5-11,1.5c-3.6,1-6.9,2.5-10,4.3c-3.1,1.9-5.9,4.1-8.5,6.7c-2.3,2.4-4.4,5.1-6,7.9
			v-19.1H903v83.2h8.4v-51.4c1-3.5,2.7-6.9,4.9-10c2.2-3.1,4.8-5.8,7.7-8.1c2.9-2.3,6.1-4.1,9.5-5.4c3.4-1.3,6.9-1.9,10.3-1.9
			c6.6,0,11.4,2.4,14.4,7.2c3,4.8,4.5,12.6,4.5,23.3v46.4h8.4v-47.8c0-11.8-1.9-20.9-5.6-27.2C961.7,346.5,955.2,343.2,946.2,343.2z
			"/>
		<path class="st3" d="M1000.3,416.6c3.7,4,8,7.2,13,9.4c5,2.3,10.5,3.4,16.3,3.4c3.8,0,7.6-0.5,11.2-1.5c3.6-1,7-2.4,10-4.2
			c3-1.8,5.7-4,8-6.5c2.3-2.5,4.1-5.3,5.4-8.3l0.1-0.2l-7.4-2l-0.1,0.2c-1,2.3-2.5,4.4-4.3,6.4c-1.8,1.9-4,3.6-6.3,5
			c-2.4,1.4-5,2.5-7.7,3.2c-2.8,0.8-5.6,1.2-8.4,1.2c-4.3,0-8.4-0.8-12.2-2.5c-3.8-1.7-7.1-4-10-7c-2.9-2.9-5.3-6.5-7.2-10.5
			c-1.9-4-3-8.3-3.3-13h72.7v-0.2c0-0.2,0-0.8,0.1-1.5c0.1-0.8,0.1-1.5,0.1-2c0-5.7-1-11.2-3.1-16.4c-2.1-5.1-4.9-9.7-8.6-13.6
			c-3.6-3.9-7.9-7-12.9-9.3c-4.9-2.3-10.4-3.4-16.2-3.4c-5.7,0-11.2,1.1-16.2,3.4c-5,2.2-9.3,5.3-13,9.2c-3.6,3.9-6.5,8.4-8.6,13.6
			c-2.1,5.1-3.1,10.7-3.1,16.5c0,5.9,1,11.6,3.1,16.8C993.8,407.9,996.7,412.6,1000.3,416.6z M1029.4,350.2c4.3,0,8.4,0.8,12.2,2.4
			c3.8,1.6,7.1,3.9,10,6.8c2.9,2.9,5.3,6.4,7.1,10.4c1.8,3.9,2.9,8.3,3.2,13h-64.7c0.3-4.6,1.4-9,3.1-13c1.7-4,4.1-7.5,7-10.4
			c2.9-2.9,6.3-5.2,10-6.8C1021,351,1025.1,350.2,1029.4,350.2z"/>
		<path class="st3" d="M1113.7,429.4c9.7,0,17.5-2.2,23.3-6.6c5.8-4.4,8.8-10.5,8.8-17.9c0-3.6-0.7-6.7-2.2-9
			c-1.4-2.4-3.6-4.4-6.3-6.1c-2.7-1.7-6.1-3.2-10.2-4.3c-4-1.2-8.7-2.4-13.8-3.7c-3.8-1-7.1-1.8-9.9-2.6c-2.7-0.8-5-1.7-6.7-2.8
			c-1.7-1-3-2.3-3.7-3.7c-0.8-1.4-1.2-3.4-1.2-5.8c0-2.9,0.6-5.5,1.7-7.6c1.1-2.1,2.7-3.9,4.7-5.2c2-1.4,4.3-2.4,7-3
			c2.7-0.6,5.6-0.9,8.6-0.9c4.9,0,9.6,0.8,14,2.4c4.3,1.6,7.9,4,10.6,7.1l0.2,0.2l4.8-4.6l-0.1-0.2c-2.8-3.4-6.7-6.2-11.7-8.4
			c-5-2.2-10.8-3.3-17.3-3.3c-4.1,0-8.1,0.5-11.8,1.5c-3.7,1-7,2.5-9.8,4.6c-2.8,2-5.1,4.6-6.7,7.7c-1.6,3.1-2.4,6.8-2.4,10.9
			c0,3.3,0.6,6.1,1.7,8.2c1.1,2.1,2.8,4,5.1,5.5c2.2,1.5,5.1,2.8,8.6,3.8c3.5,1.1,7.6,2.1,12.2,3.2c4.3,1.1,8.2,2.1,11.4,3
			c3.3,0.9,6,2,8.2,3.2c2.2,1.2,3.8,2.7,4.9,4.4c1.1,1.7,1.6,3.8,1.6,6.3c0,5.3-2.2,9.5-6.5,12.5c-4.3,3-10.2,4.5-17.3,4.5
			c-5.7,0-10.9-1-15.7-2.8c-4.7-1.9-9.4-4.9-13.8-8.9l-0.2-0.2l-4.2,5.8l0.1,0.1c4.4,4.2,9.5,7.5,15.4,9.6
			C1101.2,428.4,1107.3,429.4,1113.7,429.4z"/>
		<path class="st3" d="M1290.5,411.4c3.7-5.3,6.4-11.4,8.1-18.3c1.6-6.9,2.5-14.2,2.5-21.7v-57h-8.6v57c0,6-0.6,12-1.8,17.9
			c-1.2,5.9-3.3,11.2-6.3,15.8c-2.9,4.6-6.9,8.4-11.9,11.2c-5,2.8-11.3,4.3-18.9,4.3c-7.5,0-13.7-1.4-18.7-4.2
			c-4.9-2.8-8.9-6.5-11.9-11.1c-2.9-4.6-5-9.9-6.3-15.8c-1.2-5.9-1.8-12-1.8-18.2v-57h-8.6v57c0,7.2,0.8,14.3,2.3,21
			c1.5,6.8,4.2,12.9,7.8,18.3c3.7,5.4,8.6,9.7,14.6,13c6,3.2,13.6,4.9,22.5,4.9c8.7,0,16.1-1.6,22.1-4.6
			C1281.8,420.9,1286.7,416.7,1290.5,411.4z"/>
		<path class="st3" d="M1380.4,358.2c3,4.8,4.5,12.6,4.5,23.3v46.4h8.4v-47.8c0-11.8-1.9-20.9-5.6-27.2c-3.7-6.4-10.2-9.6-19.3-9.6
			c-3.7,0-7.4,0.5-11,1.5c-3.6,1-6.9,2.5-10,4.3c-3.1,1.9-5.9,4.1-8.5,6.7c-2.3,2.4-4.4,5.1-6,7.9v-19.1h-7.8v83.2h8.4v-51.4
			c1-3.5,2.7-6.9,4.9-10c2.2-3.1,4.8-5.8,7.7-8.1c2.9-2.3,6.1-4.1,9.5-5.4c3.4-1.3,6.9-1.9,10.3-1.9
			C1372.6,351,1377.4,353.4,1380.4,358.2z"/>
		<rect x="1416.7" y="311.3" class="st3" width="8.4" height="15.1"/>
		<rect x="1416.7" y="344.7" class="st3" width="8.4" height="83.2"/>
		<path class="st3" d="M1483.9,429.4c6.2,0,12.2-1.7,17.9-5c5.4-3.2,9.9-7.4,13.3-12.6v8.8c0,1.9,0.7,3.6,2.2,5.1
			c1.5,1.5,3.4,2.3,5.8,2.3h1.3c0.4,0,0.9-0.1,1.5-0.2l0.2,0v-7.6h-0.2c-2.1,0-3.1-1.2-3.1-3.7V311.3h-8.4v50.8
			c-1.5-2.4-3.3-4.7-5.3-6.8c-2.2-2.3-4.7-4.4-7.4-6.2c-2.7-1.7-5.7-3.2-9-4.2c-3.2-1.1-6.7-1.6-10.3-1.6c-5.5,0-10.7,1.2-15.3,3.5
			c-4.6,2.3-8.7,5.5-12.1,9.4c-3.4,3.9-6.1,8.6-8,13.8c-1.9,5.2-2.9,10.7-2.9,16.5c0,5.5,1,10.9,3,16.1c2,5.1,4.8,9.8,8.3,13.8
			c3.6,4,7.8,7.2,12.7,9.6C1472.8,428.2,1478.1,429.4,1483.9,429.4z M1485.3,421.8c-4.6,0-8.9-1-12.9-2.8c-3.9-1.9-7.4-4.5-10.4-7.7
			c-3-3.3-5.4-7-7-11.2c-1.7-4.2-2.5-8.7-2.5-13.4c0-4.5,0.7-9,2.2-13.2c1.5-4.2,3.6-8.1,6.4-11.4c2.8-3.3,6.1-6,10-8.1
			c3.8-2,8.1-3.1,12.9-3.1c2.9,0,6,0.6,9.1,1.7c3.1,1.2,6.1,2.7,8.9,4.7c2.7,1.9,5.2,4.3,7.4,7c2.1,2.7,3.8,5.5,5,8.4l0,27.1
			c-0.3,3-1.4,5.9-3.4,8.5c-1.9,2.6-4.4,5-7.2,7c-2.8,2-5.9,3.7-9.2,4.8C1491.2,421.2,1488.1,421.8,1485.3,421.8z"/>
		<path class="st3" d="M1611.2,428c0.5,0,1-0.1,1.6-0.2l0.2,0v-7.6h-0.2c-2.1,0-3.1-1.2-3.1-3.7v-40.4c0-10.2-2.9-18.3-8.7-24.1
			c-5.8-5.8-13.8-8.7-23.8-8.7c-9.4,0-19.7,3.7-30.4,10.9l-0.2,0.1l3.4,5.8l0.2-0.1c4.5-3.2,9.1-5.6,13.6-7.3
			c4.5-1.7,8.8-2.5,12.9-2.5c7.5,0,13.6,2.3,18,6.9c4.4,4.5,6.6,10.8,6.6,18.5v7.8c-3.5-1.3-7.6-2.4-12-3.2
			c-4.6-0.8-9.1-1.2-13.6-1.2c-5.1,0-9.8,0.6-14,1.8c-4.2,1.2-7.9,2.9-11,5.1c-3.1,2.2-5.5,4.8-7.2,7.8c-1.7,3-2.6,6.3-2.6,10
			c0,3.6,0.7,7.1,2.1,10.2c1.4,3.1,3.4,5.9,5.9,8.2c2.5,2.3,5.5,4.1,8.8,5.5c3.4,1.3,7,2,10.8,2c6.9,0,13.4-1.3,19.3-4
			c5.7-2.6,10.5-6.3,14.2-11v6.2c0,2.2,0.8,4,2.5,5.3c1.6,1.4,3.4,2,5.4,2H1611.2z M1570.1,422.6c-2.9,0-5.7-0.5-8.3-1.5
			c-2.6-1-4.8-2.4-6.7-4.1c-1.9-1.7-3.4-3.8-4.4-6.2c-1-2.4-1.6-5-1.6-7.7c0-5.4,2.5-9.8,7.5-13.2c5-3.4,11.7-5.1,19.9-5.1
			c8.4,0,16.6,1.5,24.6,4.4v14.5c0,2.1-0.9,4.1-2.7,6.2c-2.5,3.9-6.4,7-11.5,9.2C1581.9,421.5,1576.2,422.6,1570.1,422.6z"/>
		<path class="st3" d="M1683.7,422.8c5.8-4.4,8.8-10.5,8.8-17.9c0-3.6-0.7-6.7-2.2-9c-1.4-2.4-3.6-4.4-6.3-6.1
			c-2.7-1.7-6.1-3.2-10.2-4.3c-4-1.2-8.7-2.4-13.8-3.7c-3.8-1-7.1-1.8-9.9-2.6c-2.7-0.8-5-1.7-6.7-2.8c-1.7-1-3-2.3-3.7-3.7
			c-0.8-1.4-1.2-3.4-1.2-5.8c0-2.9,0.6-5.5,1.7-7.6c1.1-2.1,2.7-3.9,4.7-5.2c2-1.4,4.3-2.4,7-3c2.7-0.6,5.6-0.9,8.6-0.9
			c4.9,0,9.6,0.8,14,2.4c4.3,1.6,7.9,4,10.6,7.1l0.2,0.2l4.8-4.6l-0.1-0.2c-2.8-3.4-6.7-6.2-11.7-8.4c-5-2.2-10.8-3.3-17.3-3.3
			c-4.1,0-8.1,0.5-11.8,1.5c-3.7,1-7,2.5-9.8,4.6c-2.8,2-5.1,4.6-6.7,7.7c-1.6,3.1-2.4,6.8-2.4,10.9c0,3.3,0.6,6.1,1.7,8.2
			c1.1,2.1,2.8,4,5.1,5.5c2.2,1.5,5.1,2.8,8.6,3.8c3.5,1.1,7.6,2.1,12.2,3.2c4.3,1.1,8.2,2.1,11.4,3c3.3,0.9,6,2,8.2,3.2
			c2.2,1.2,3.8,2.7,4.9,4.4c1.1,1.7,1.6,3.8,1.6,6.3c0,5.3-2.2,9.5-6.5,12.5c-4.3,3-10.2,4.5-17.3,4.5c-5.7,0-10.9-1-15.7-2.8
			c-4.7-1.9-9.4-4.9-13.8-8.9l-0.2-0.2l-4.2,5.8l0.1,0.1c4.4,4.2,9.5,7.5,15.4,9.6c5.8,2.1,12,3.2,18.4,3.2
			C1670.1,429.4,1678,427.2,1683.7,422.8z"/>
		<path class="st3" d="M514.4,547.5c-3.5-4-7.7-7.2-12.6-9.7c-4.8-2.4-10.2-3.7-15.9-3.7c-6.4,0-12.5,1.7-18.1,5
			c-5.4,3.2-9.8,7.4-13.2,12.4v-16H447v117.1h8.4v-51.2c3.3,5.1,7.7,9.6,13,13.2c5.5,3.8,11.9,5.7,19.1,5.7c5.6,0,10.9-1.2,15.5-3.4
			c4.7-2.3,8.7-5.4,12.1-9.4c3.3-3.9,6-8.6,7.8-13.8c1.8-5.2,2.7-10.7,2.7-16.5c0-5.4-1-10.8-3-16
			C520.6,556.1,517.9,551.5,514.4,547.5z M484.3,541.8c4.5,0,8.8,1,12.8,2.9c4,1.9,7.5,4.6,10.4,7.8c2.9,3.3,5.3,7.1,7,11.3
			c1.7,4.3,2.5,8.8,2.5,13.5c0,4.4-0.7,8.8-2.2,13c-1.5,4.3-3.6,8.1-6.3,11.4c-2.7,3.3-6.1,6-9.9,8c-3.8,2-8.1,3-12.9,3
			c-3.2,0-6.5-0.6-9.5-1.7c-3.1-1.1-6-2.7-8.6-4.7c-2.6-2-5-4.3-7.1-7c-2.1-2.6-3.8-5.5-5-8.5l0-27.1c0.3-2.9,1.4-5.7,3.4-8.3
			c1.9-2.6,4.4-5,7.2-7c2.8-2,5.9-3.7,9.2-4.9C478.4,542.4,481.5,541.8,484.3,541.8z"/>
		<path class="st3" d="M608,607.4V567c0-10.2-2.9-18.3-8.7-24.1c-5.8-5.8-13.8-8.7-23.8-8.7c-9.4,0-19.7,3.7-30.4,10.9l-0.2,0.1
			l3.4,5.8l0.2-0.1c4.5-3.2,9.1-5.6,13.6-7.3c4.5-1.7,8.8-2.5,12.9-2.5c7.5,0,13.6,2.3,18,6.9c4.4,4.5,6.6,10.8,6.6,18.5v7.8
			c-3.5-1.3-7.6-2.4-12-3.2c-4.6-0.8-9.1-1.2-13.6-1.2c-5.1,0-9.8,0.6-14,1.8c-4.2,1.2-7.9,2.9-11,5.1c-3.1,2.2-5.5,4.8-7.2,7.8
			c-1.7,3-2.6,6.3-2.6,10c0,3.6,0.7,7.1,2.1,10.2c1.4,3.1,3.4,5.9,5.9,8.2c2.5,2.3,5.5,4.1,8.8,5.5c3.4,1.3,7,2,10.8,2
			c6.9,0,13.4-1.3,19.3-4c5.7-2.6,10.5-6.3,14.2-11v6.2c0,2.2,0.8,4,2.5,5.3c1.6,1.4,3.4,2,5.4,2h1.4c0.5,0,1-0.1,1.6-0.2l0.2,0
			v-7.6h-0.2C609,611.1,608,609.9,608,607.4z M568.4,613.5c-2.9,0-5.7-0.5-8.3-1.5c-2.6-1-4.8-2.4-6.7-4.1c-1.9-1.7-3.4-3.8-4.4-6.2
			c-1-2.4-1.6-5-1.6-7.7c0-5.4,2.5-9.8,7.5-13.2c5-3.4,11.7-5.1,19.9-5.1c8.4,0,16.6,1.5,24.6,4.4v14.5c0,2.1-0.9,4.1-2.7,6.2
			c-2.5,3.9-6.4,7-11.5,9.2C580.2,612.4,574.5,613.5,568.4,613.5z"/>
		<path class="st3" d="M670.9,535.3c-0.8,0.1-1.8,0.1-2.9,0.1c-5.4,0.5-10.6,2.7-15.3,6.3c-4.5,3.5-8.2,8-11,13.5v-19.6h-7.9v83.2
			h8.4v-51.9c2.2-7.2,6.1-13,11.5-17.1c5.4-4.1,12-6.3,19.4-6.6l0.2,0v-7.9h-0.2C672.5,535.3,671.8,535.3,670.9,535.3z"/>
		<path class="st3" d="M750.2,607.4V567c0-10.2-2.9-18.3-8.7-24.1c-5.8-5.8-13.8-8.7-23.8-8.7c-9.4,0-19.7,3.7-30.4,10.9l-0.2,0.1
			l3.4,5.8l0.2-0.1c4.5-3.2,9.1-5.6,13.6-7.3c4.5-1.7,8.8-2.5,12.9-2.5c7.5,0,13.6,2.3,18,6.9c4.4,4.5,6.6,10.8,6.6,18.5v7.8
			c-3.5-1.3-7.6-2.4-12-3.2c-4.6-0.8-9.1-1.2-13.6-1.2c-5.1,0-9.8,0.6-14,1.8c-4.2,1.2-7.9,2.9-11,5.1c-3.1,2.2-5.5,4.8-7.2,7.8
			c-1.7,3-2.6,6.3-2.6,10c0,3.6,0.7,7.1,2.1,10.2c1.4,3.1,3.4,5.9,5.9,8.2c2.5,2.3,5.5,4.1,8.8,5.5c3.4,1.3,7,2,10.8,2
			c6.9,0,13.4-1.3,19.3-4c5.7-2.6,10.5-6.3,14.2-11v6.2c0,2.2,0.8,4,2.5,5.3c1.6,1.4,3.4,2,5.4,2h1.4c0.5,0,1-0.1,1.6-0.2l0.2,0
			v-7.6h-0.2C751.2,611.1,750.2,609.9,750.2,607.4z M710.7,613.5c-2.9,0-5.7-0.5-8.3-1.5c-2.6-1-4.8-2.4-6.7-4.1
			c-1.9-1.7-3.4-3.8-4.4-6.2c-1-2.4-1.6-5-1.6-7.7c0-5.4,2.5-9.8,7.5-13.2c5-3.4,11.7-5.1,19.9-5.1c8.4,0,16.6,1.5,24.6,4.4v14.5
			c0,2.1-0.9,4.1-2.7,6.2c-2.5,3.9-6.4,7-11.5,9.2C722.5,612.4,716.8,613.5,710.7,613.5z"/>
		<path class="st3" d="M883.7,546.9c-3.6-3.9-7.9-7-12.9-9.3c-4.9-2.3-10.4-3.4-16.2-3.4c-5.7,0-11.2,1.1-16.2,3.4
			c-5,2.2-9.3,5.3-13,9.2c-3.6,3.9-6.5,8.4-8.6,13.6c-2.1,5.1-3.1,10.7-3.1,16.5c0,5.9,1,11.6,3.1,16.8c2.1,5.2,5,9.9,8.6,13.8
			c3.7,4,8.1,7.2,13,9.4c5,2.3,10.5,3.4,16.3,3.4c3.8,0,7.6-0.5,11.2-1.5c3.6-1,7-2.4,10-4.2c3-1.8,5.7-4,8-6.5
			c2.3-2.5,4.1-5.3,5.4-8.3l0.1-0.2l-7.4-2l-0.1,0.2c-1,2.3-2.5,4.4-4.3,6.4c-1.8,1.9-4,3.6-6.3,5c-2.4,1.4-5,2.5-7.7,3.2
			c-2.8,0.8-5.6,1.2-8.4,1.2c-4.3,0-8.4-0.8-12.2-2.5c-3.8-1.7-7.1-4-10-7c-2.9-2.9-5.3-6.5-7.2-10.5c-1.9-4-3-8.3-3.3-13h72.7v-0.2
			c0-0.2,0-0.8,0.1-1.5c0.1-0.8,0.1-1.5,0.1-2c0-5.7-1-11.2-3.1-16.4C890.2,555.3,887.4,550.7,883.7,546.9z M854.6,541.1
			c4.3,0,8.4,0.8,12.2,2.4c3.8,1.6,7.1,3.9,10,6.8c2.9,2.9,5.3,6.4,7.1,10.4c1.8,3.9,2.9,8.3,3.2,13h-64.7c0.3-4.6,1.4-9,3.1-13
			c1.7-4,4.1-7.5,7-10.4c2.9-2.9,6.3-5.2,10-6.8C846.2,541.9,850.3,541.1,854.6,541.1z"/>
		<path class="st3" d="M941.6,610.4c-1.4,0.5-2.9,0.9-4.5,1.2c-1.6,0.3-3,0.4-4.2,0.4c-3,0-5.4-0.9-7.1-2.6
			c-1.7-1.8-2.6-4.2-2.6-7.2v-100h-8.6v102.4c0,4.6,1.4,8.3,4.1,11.1c2.7,2.7,6.4,4.1,10.9,4.1c1.9,0,4.2-0.2,6.9-0.7
			c2.7-0.5,4.9-1.1,6.7-1.8l0.2-0.1l-1.7-6.8L941.6,610.4z"/>
		<path class="st3" d="M1067.7,607.4V502.2h-8.4V553c-1.5-2.4-3.3-4.7-5.3-6.8c-2.2-2.3-4.7-4.4-7.4-6.2c-2.7-1.7-5.7-3.2-9-4.2
			c-3.2-1.1-6.7-1.6-10.3-1.6c-5.5,0-10.7,1.2-15.3,3.5c-4.6,2.3-8.7,5.5-12.1,9.4c-3.4,3.9-6.1,8.6-8,13.8
			c-1.9,5.2-2.9,10.7-2.9,16.5c0,5.5,1,10.9,3,16.1c2,5.1,4.8,9.8,8.3,13.8c3.6,4,7.8,7.2,12.7,9.6c4.9,2.4,10.3,3.6,16,3.6
			c6.2,0,12.2-1.7,17.9-5c5.4-3.2,9.9-7.4,13.3-12.6v8.8c0,1.9,0.7,3.6,2.2,5.1c1.5,1.5,3.4,2.3,5.8,2.3h1.3c0.4,0,0.9-0.1,1.5-0.2
			l0.2,0v-7.6h-0.2C1068.7,611.1,1067.7,609.9,1067.7,607.4z M1030.4,612.7c-4.6,0-8.9-1-12.9-2.8c-3.9-1.9-7.4-4.5-10.4-7.7
			c-3-3.3-5.4-7-7-11.2c-1.7-4.2-2.5-8.7-2.5-13.4c0-4.5,0.7-9,2.2-13.2c1.5-4.2,3.6-8.1,6.4-11.4c2.8-3.3,6.1-6,10-8.1
			c3.8-2,8.1-3.1,12.9-3.1c2.9,0,6,0.6,9.1,1.7c3.1,1.2,6.1,2.7,8.9,4.7c2.7,1.9,5.2,4.3,7.4,7c2.1,2.7,3.8,5.5,5,8.4l0,27.1
			c-0.3,3-1.4,5.9-3.4,8.5c-1.9,2.6-4.4,5-7.2,7c-2.8,2-5.9,3.7-9.2,4.8C1036.3,612.1,1033.2,612.7,1030.4,612.7z"/>
		<path class="st3" d="M1159.6,546.9c-3.6-3.9-7.9-7-12.9-9.3c-4.9-2.3-10.4-3.4-16.2-3.4c-5.7,0-11.2,1.1-16.2,3.4
			c-5,2.2-9.3,5.3-13,9.2c-3.6,3.9-6.5,8.4-8.6,13.6c-2.1,5.1-3.1,10.7-3.1,16.5c0,5.9,1,11.6,3.1,16.8c2.1,5.2,5,9.9,8.6,13.8
			c3.7,4,8,7.2,13,9.4c5,2.3,10.5,3.4,16.3,3.4c3.8,0,7.6-0.5,11.2-1.5c3.6-1,7-2.4,10-4.2c3-1.8,5.7-4,8-6.5
			c2.3-2.5,4.1-5.3,5.4-8.3l0.1-0.2l-7.4-2l-0.1,0.2c-1,2.3-2.5,4.4-4.3,6.4c-1.8,1.9-4,3.6-6.3,5c-2.4,1.4-5,2.5-7.7,3.2
			c-2.8,0.8-5.6,1.2-8.4,1.2c-4.3,0-8.4-0.8-12.2-2.5c-3.8-1.7-7.1-4-10-7c-2.9-2.9-5.3-6.5-7.2-10.5c-1.9-4-3-8.3-3.3-13h72.7v-0.2
			c0-0.2,0-0.8,0.1-1.5c0.1-0.8,0.1-1.5,0.1-2c0-5.7-1-11.2-3.1-16.4C1166.1,555.3,1163.2,550.7,1159.6,546.9z M1130.5,541.1
			c4.3,0,8.4,0.8,12.2,2.4c3.8,1.6,7.1,3.9,10,6.8c2.9,2.9,5.3,6.4,7.1,10.4c1.8,3.9,2.9,8.3,3.2,13h-64.7c0.3-4.6,1.4-9,3.1-13
			c1.7-4,4.1-7.5,7-10.4c2.9-2.9,6.3-5.2,10-6.8C1122.1,541.9,1126.2,541.1,1130.5,541.1z"/>
		<path class="st3" d="M1241.1,580.6c-2.7-1.7-6.1-3.2-10.2-4.3c-4-1.2-8.7-2.4-13.8-3.7c-3.8-1-7.1-1.8-9.9-2.6
			c-2.7-0.8-5-1.7-6.7-2.8c-1.7-1-3-2.3-3.7-3.7c-0.8-1.4-1.2-3.4-1.2-5.8c0-2.9,0.6-5.5,1.7-7.6c1.1-2.1,2.7-3.9,4.7-5.2
			c2-1.4,4.3-2.4,7-3c2.7-0.6,5.6-0.9,8.6-0.9c4.9,0,9.6,0.8,14,2.4c4.3,1.6,7.9,4,10.6,7.1l0.2,0.2l4.8-4.6l-0.1-0.2
			c-2.8-3.4-6.7-6.2-11.7-8.4c-5-2.2-10.8-3.3-17.3-3.3c-4.1,0-8.1,0.5-11.8,1.5c-3.7,1-7,2.5-9.8,4.6c-2.8,2-5.1,4.6-6.7,7.7
			c-1.6,3.1-2.4,6.8-2.4,10.9c0,3.3,0.6,6.1,1.7,8.2c1.1,2.1,2.8,4,5.1,5.5c2.2,1.5,5.1,2.8,8.6,3.8c3.5,1.1,7.6,2.1,12.2,3.2
			c4.3,1.1,8.2,2.1,11.4,3c3.3,0.9,6,2,8.2,3.2c2.2,1.2,3.8,2.7,4.9,4.4c1.1,1.7,1.6,3.8,1.6,6.3c0,5.3-2.2,9.5-6.5,12.5
			c-4.3,3-10.2,4.5-17.3,4.5c-5.7,0-10.9-1-15.7-2.8c-4.7-1.9-9.4-4.9-13.8-8.9l-0.2-0.2l-4.2,5.8l0.1,0.1c4.4,4.2,9.5,7.5,15.4,9.6
			c5.8,2.1,12,3.2,18.4,3.2c9.7,0,17.5-2.2,23.3-6.6c5.8-4.4,8.8-10.5,8.8-17.9c0-3.6-0.7-6.7-2.2-9
			C1245.9,584.4,1243.8,582.3,1241.1,580.6z"/>
		<path class="st3" d="M1331.9,607.4V567c0-10.2-2.9-18.3-8.7-24.1c-5.8-5.8-13.8-8.7-23.8-8.7c-9.4,0-19.7,3.7-30.4,10.9l-0.2,0.1
			l3.4,5.8l0.2-0.1c4.5-3.2,9.1-5.6,13.6-7.3c4.5-1.7,8.8-2.5,12.9-2.5c7.5,0,13.6,2.3,18,6.9c4.4,4.5,6.6,10.8,6.6,18.5v7.8
			c-3.5-1.3-7.6-2.4-12-3.2c-4.6-0.8-9.1-1.2-13.6-1.2c-5.1,0-9.8,0.6-14,1.8c-4.2,1.2-7.9,2.9-11,5.1c-3.1,2.2-5.5,4.8-7.2,7.8
			c-1.7,3-2.6,6.3-2.6,10c0,3.6,0.7,7.1,2.1,10.2c1.4,3.1,3.4,5.9,5.9,8.2c2.5,2.3,5.5,4.1,8.8,5.5c3.4,1.3,7,2,10.8,2
			c6.9,0,13.4-1.3,19.3-4c5.7-2.6,10.5-6.3,14.2-11v6.2c0,2.2,0.8,4,2.5,5.3c1.6,1.4,3.4,2,5.4,2h1.4c0.5,0,1-0.1,1.6-0.2l0.2,0
			v-7.6h-0.2C1333,611.1,1331.9,609.9,1331.9,607.4z M1292.4,613.5c-2.9,0-5.7-0.5-8.3-1.5c-2.6-1-4.8-2.4-6.7-4.1
			c-1.9-1.7-3.4-3.8-4.4-6.2c-1-2.4-1.6-5-1.6-7.7c0-5.4,2.5-9.8,7.5-13.2c5-3.4,11.7-5.1,19.9-5.1c8.4,0,16.6,1.5,24.6,4.4v14.5
			c0,2.1-0.9,4.1-2.7,6.2c-2.5,3.9-6.4,7-11.5,9.2C1304.2,612.4,1298.5,613.5,1292.4,613.5z"/>
		<path class="st3" d="M1395.7,535.3c-0.8,0.1-1.8,0.1-2.9,0.1c-5.4,0.5-10.6,2.7-15.3,6.3c-4.5,3.5-8.2,8-11,13.5v-19.6h-7.9v83.2
			h8.4v-51.9c2.2-7.2,6.1-13,11.5-17.1c5.4-4.1,12-6.3,19.4-6.6l0.2,0v-7.9h-0.2C1397.3,535.3,1396.5,535.3,1395.7,535.3z"/>
		<path class="st3" d="M1452.6,535.3c-0.8,0.1-1.8,0.1-2.9,0.1c-5.4,0.5-10.6,2.7-15.3,6.3c-4.5,3.5-8.2,8-11,13.5v-19.6h-7.9v83.2
			h8.4v-51.9c2.2-7.2,6.1-13,11.5-17.1c5.4-4.1,12-6.3,19.4-6.6l0.2,0v-7.9h-0.2C1454.2,535.3,1453.5,535.3,1452.6,535.3z"/>
		<path class="st3" d="M1532.2,546.9c-3.7-3.9-8-7.1-13-9.4c-4.9-2.3-10.4-3.4-16.1-3.4c-5.7,0-11.1,1.2-16,3.4
			c-4.9,2.3-9.2,5.4-12.9,9.4c-3.7,3.9-6.6,8.6-8.6,13.8c-2.1,5.2-3.1,10.8-3.1,16.6c0,5.7,1,11.3,3,16.5c2,5.2,4.9,9.8,8.5,13.8
			c3.6,3.9,7.9,7.1,12.9,9.4c4.9,2.3,10.4,3.4,16.2,3.4c5.7,0,11.2-1.2,16.2-3.4c5-2.3,9.3-5.4,13-9.4c3.6-3.9,6.5-8.6,8.6-13.8
			c2.1-5.2,3.1-10.7,3.1-16.5c0-5.8-1-11.4-3.1-16.6C1538.8,555.5,1535.9,550.9,1532.2,546.9z M1503.2,612.7
			c-4.4,0-8.6-0.9-12.5-2.8c-3.9-1.8-7.3-4.4-10.2-7.5c-2.9-3.1-5.2-6.9-6.9-11.1c-1.7-4.2-2.5-8.8-2.5-13.7c0-4.8,0.9-9.5,2.5-13.8
			c1.7-4.4,4-8.2,7-11.5c2.9-3.3,6.4-5.9,10.3-7.7c3.9-1.9,8-2.8,12.3-2.8c4.4,0,8.6,1,12.5,2.8c3.9,1.9,7.3,4.5,10.2,7.7
			c2.9,3.2,5.2,7,7,11.2s2.6,8.8,2.6,13.7c0,4.9-0.9,9.6-2.6,13.8c-1.7,4.3-4.1,8.1-7,11.3c-2.9,3.3-6.3,5.8-10.2,7.7
			C1511.8,611.8,1507.6,612.7,1503.2,612.7z"/>
		<path class="st3" d="M1592.4,610.4c-1.4,0.5-2.9,0.9-4.5,1.2c-1.6,0.3-3,0.4-4.2,0.4c-3,0-5.4-0.9-7.1-2.6
			c-1.7-1.8-2.6-4.2-2.6-7.2v-100h-8.6v102.4c0,4.6,1.4,8.3,4.1,11.1c2.7,2.7,6.4,4.1,10.9,4.1c1.9,0,4.2-0.2,6.9-0.7
			c2.7-0.5,4.9-1.1,6.7-1.8l0.2-0.1l-1.7-6.8L1592.4,610.4z"/>
		<path class="st3" d="M1634.7,610.4c-1.4,0.5-2.9,0.9-4.5,1.2c-1.6,0.3-3,0.4-4.2,0.4c-3,0-5.4-0.9-7.1-2.6
			c-1.7-1.8-2.6-4.2-2.6-7.2v-100h-8.6v102.4c0,4.6,1.4,8.3,4.1,11.1c2.7,2.7,6.4,4.1,10.9,4.1c1.9,0,4.2-0.2,6.9-0.7
			c2.7-0.5,4.9-1.1,6.7-1.8l0.2-0.1l-1.7-6.8L1634.7,610.4z"/>
		<path class="st3" d="M1722.2,560.7c-2.1-5.2-5-9.8-8.6-13.8c-3.7-3.9-8-7.1-13-9.4c-4.9-2.3-10.4-3.4-16.1-3.4
			c-5.7,0-11.1,1.2-16,3.4c-4.9,2.3-9.2,5.4-12.9,9.4c-3.7,3.9-6.6,8.6-8.6,13.8c-2.1,5.2-3.1,10.8-3.1,16.6c0,5.7,1,11.3,3,16.5
			c2,5.2,4.9,9.8,8.5,13.8c3.6,3.9,7.9,7.1,12.9,9.4c4.9,2.3,10.4,3.4,16.2,3.4c5.7,0,11.2-1.2,16.2-3.4c5-2.3,9.3-5.4,13-9.4
			c3.6-3.9,6.5-8.6,8.6-13.8c2.1-5.2,3.1-10.7,3.1-16.5C1725.4,571.5,1724.3,565.9,1722.2,560.7z M1684.6,612.7
			c-4.4,0-8.6-0.9-12.5-2.8c-3.9-1.8-7.3-4.4-10.2-7.5c-2.9-3.1-5.2-6.9-6.9-11.1c-1.7-4.2-2.5-8.8-2.5-13.7c0-4.8,0.9-9.5,2.5-13.8
			c1.7-4.4,4-8.2,7-11.5c2.9-3.3,6.4-5.9,10.3-7.7c3.9-1.9,8-2.8,12.3-2.8c4.4,0,8.6,1,12.5,2.8c3.9,1.9,7.3,4.5,10.2,7.7
			c2.9,3.2,5.2,7,7,11.2s2.6,8.8,2.6,13.7c0,4.9-0.9,9.6-2.6,13.8c-1.7,4.3-4.1,8.1-7,11.3c-2.9,3.3-6.3,5.8-10.2,7.7
			C1693.2,611.8,1689,612.7,1684.6,612.7z"/>
	</g>
</g>
</svg>
