<?xml version="1.0" encoding="utf-8"?>
<!-- Generator: Adobe Illustrator 24.0.2, SVG Export Plug-In . SVG Version: 6.00 Build 0)  -->
<svg version="1.1" id="Capa_1" xmlns="http://www.w3.org/2000/svg" xmlns:xlink="http://www.w3.org/1999/xlink" x="0px" y="0px"
	 viewBox="0 0 1800 1800" style="enable-background:new 0 0 1800 1800;" xml:space="preserve">
<style type="text/css">
	.st0{fill:#1A1819;}
	.st1{fill:url(#SVGID_1_);}
	.st2{fill:url(#SVGID_2_);}
	.st3{fill:url(#SVGID_3_);}
	.st4{fill:url(#SVGID_4_);}
	.st5{fill:url(#SVGID_5_);}
	.st6{fill:url(#SVGID_6_);}
	.st7{fill:url(#SVGID_7_);}
	.st8{fill:url(#SVGID_8_);}
	.st9{fill:url(#SVGID_9_);}
	.st10{fill:url(#SVGID_10_);}
	.st11{fill:url(#SVGID_11_);}
	.st12{fill:url(#SVGID_12_);}
	.st13{fill:url(#SVGID_13_);}
	.st14{fill:url(#SVGID_14_);}
	.st15{fill:url(#SVGID_15_);}
	.st16{fill:url(#SVGID_16_);}
	.st17{fill:url(#SVGID_17_);}
	.st18{fill:url(#SVGID_18_);}
	.st19{fill:url(#SVGID_19_);}
	.st20{fill:url(#SVGID_20_);}
	.st21{fill:url(#SVGID_21_);}
	.st22{fill:url(#SVGID_22_);}
	.st23{fill:url(#SVGID_23_);}
	.st24{fill:url(#SVGID_24_);}
	.st25{fill:#2E302F;}
	.st26{fill:#F8F9F3;}
	.st27{fill:#F8F6F7;}
	.st28{fill:#918F92;}
</style>
<g>
	<g>
		<path class="st0" d="M1617.2,781.8L1461,627.3V485.1c0-37.6-31.1-68.4-69-68.4h-144.1L932.2,104.5c-19.2-19-50.2-19-69.3-0.1
			L547.5,416.7H415c-38,0-69,30.8-69,68.4v131.1L182.6,778c-19.1,18.9-19.1,49.7,0.1,68.7L346,1009.4v632c0,37.6,31.1,68.4,69,68.4
			h977c38,0,69-30.8,69-68.4v-635.7l156.4-155.1C1636.5,831.7,1636.4,800.8,1617.2,781.8z"/>
		<g>
			<g>
				<g>
					<linearGradient id="SVGID_1_" gradientUnits="userSpaceOnUse" x1="416.4319" y1="820.1114" x2="822.6135" y2="820.1114">
						<stop  offset="0" style="stop-color:#E99E3D"/>
						<stop  offset="0.37" style="stop-color:#EAA03D"/>
						<stop  offset="0.5602" style="stop-color:#EBA83E"/>
						<stop  offset="0.7093" style="stop-color:#EEB540"/>
						<stop  offset="0.8371" style="stop-color:#F3C842"/>
						<stop  offset="0.9502" style="stop-color:#F8E144"/>
						<stop  offset="1" style="stop-color:#FBEE46"/>
					</linearGradient>
					<polygon class="st1" points="813.9,687.2 822.6,595.9 416.4,1016.7 444,1044.3 					"/>
					<linearGradient id="SVGID_2_" gradientUnits="userSpaceOnUse" x1="218.0389" y1="505.4942" x2="862.7811" y2="505.4942">
						<stop  offset="0" style="stop-color:#E99E3D"/>
						<stop  offset="0.37" style="stop-color:#EAA03D"/>
						<stop  offset="0.5602" style="stop-color:#EBA83E"/>
						<stop  offset="0.7093" style="stop-color:#EEB540"/>
						<stop  offset="0.8371" style="stop-color:#F3C842"/>
						<stop  offset="0.9502" style="stop-color:#F8E144"/>
						<stop  offset="1" style="stop-color:#FBEE46"/>
					</linearGradient>
					<polygon class="st2" points="856.4,240.4 862.8,173.6 218,817.4 237.9,837.4 					"/>
					<linearGradient id="SVGID_3_" gradientUnits="userSpaceOnUse" x1="364.9236" y1="735.9558" x2="833.7019" y2="735.9558">
						<stop  offset="0" style="stop-color:#E99E3D"/>
						<stop  offset="0.37" style="stop-color:#EAA03D"/>
						<stop  offset="0.5602" style="stop-color:#EBA83E"/>
						<stop  offset="0.7093" style="stop-color:#EEB540"/>
						<stop  offset="0.8371" style="stop-color:#F3C842"/>
						<stop  offset="0.9502" style="stop-color:#F8E144"/>
						<stop  offset="1" style="stop-color:#FBEE46"/>
					</linearGradient>
					<polygon class="st3" points="824.6,575.5 833.7,479.3 364.9,964.9 392.5,992.6 					"/>
					<linearGradient id="SVGID_4_" gradientUnits="userSpaceOnUse" x1="313.4155" y1="651.8003" x2="844.7903" y2="651.8003">
						<stop  offset="0" style="stop-color:#E99E3D"/>
						<stop  offset="0.37" style="stop-color:#EAA03D"/>
						<stop  offset="0.5602" style="stop-color:#EBA83E"/>
						<stop  offset="0.7093" style="stop-color:#EEB540"/>
						<stop  offset="0.8371" style="stop-color:#F3C842"/>
						<stop  offset="0.9502" style="stop-color:#F8E144"/>
						<stop  offset="1" style="stop-color:#FBEE46"/>
					</linearGradient>
					<polygon class="st4" points="835.2,463.8 844.8,362.7 313.4,913.2 341,940.9 					"/>
					<linearGradient id="SVGID_5_" gradientUnits="userSpaceOnUse" x1="261.9072" y1="567.6447" x2="855.8787" y2="567.6447">
						<stop  offset="0" style="stop-color:#E99E3D"/>
						<stop  offset="0.37" style="stop-color:#EAA03D"/>
						<stop  offset="0.5602" style="stop-color:#EBA83E"/>
						<stop  offset="0.7093" style="stop-color:#EEB540"/>
						<stop  offset="0.8371" style="stop-color:#F3C842"/>
						<stop  offset="0.9502" style="stop-color:#F8E144"/>
						<stop  offset="1" style="stop-color:#FBEE46"/>
					</linearGradient>
					<polygon class="st5" points="261.9,861.5 289.5,889.1 845.8,352.1 855.9,246.1 					"/>
					<linearGradient id="SVGID_6_" gradientUnits="userSpaceOnUse" x1="621.8385" y1="1155.486" x2="778.4119" y2="1155.486">
						<stop  offset="0" style="stop-color:#E99E3D"/>
						<stop  offset="0.37" style="stop-color:#EAA03D"/>
						<stop  offset="0.5602" style="stop-color:#EBA83E"/>
						<stop  offset="0.7093" style="stop-color:#EEB540"/>
						<stop  offset="0.8371" style="stop-color:#F3C842"/>
						<stop  offset="0.9502" style="stop-color:#F8E144"/>
						<stop  offset="1" style="stop-color:#FBEE46"/>
					</linearGradient>
					<polyline class="st6" points="649.5,1250.4 771.6,1132.5 778.4,1060.6 621.8,1222.8 					"/>
					<linearGradient id="SVGID_7_" gradientUnits="userSpaceOnUse" x1="673.4573" y1="1239.5862" x2="767.3235" y2="1239.5862">
						<stop  offset="0" style="stop-color:#E99E3D"/>
						<stop  offset="0.37" style="stop-color:#EAA03D"/>
						<stop  offset="0.5602" style="stop-color:#EBA83E"/>
						<stop  offset="0.7093" style="stop-color:#EEB540"/>
						<stop  offset="0.8371" style="stop-color:#F3C842"/>
						<stop  offset="0.9502" style="stop-color:#F8E144"/>
						<stop  offset="1" style="stop-color:#FBEE46"/>
					</linearGradient>
					<polyline class="st7" points="701.1,1302 761,1244.2 767.3,1177.2 673.5,1274.4 					"/>
					<linearGradient id="SVGID_8_" gradientUnits="userSpaceOnUse" x1="725.0762" y1="1323.0762" x2="756.2351" y2="1323.0762">
						<stop  offset="0" style="stop-color:#E99E3D"/>
						<stop  offset="0.37" style="stop-color:#EAA03D"/>
						<stop  offset="0.5602" style="stop-color:#EBA83E"/>
						<stop  offset="0.7093" style="stop-color:#EEB540"/>
						<stop  offset="0.8371" style="stop-color:#F3C842"/>
						<stop  offset="0.9502" style="stop-color:#F8E144"/>
						<stop  offset="1" style="stop-color:#FBEE46"/>
					</linearGradient>
					<polyline class="st8" points="750.7,1352.4 756.2,1293.8 725.1,1326.1 					"/>
					<linearGradient id="SVGID_9_" gradientUnits="userSpaceOnUse" x1="570.2511" y1="1071.3856" x2="789.5004" y2="1071.3856">
						<stop  offset="0" style="stop-color:#E99E3D"/>
						<stop  offset="0.37" style="stop-color:#EAA03D"/>
						<stop  offset="0.5602" style="stop-color:#EBA83E"/>
						<stop  offset="0.7093" style="stop-color:#EEB540"/>
						<stop  offset="0.8371" style="stop-color:#F3C842"/>
						<stop  offset="0.9502" style="stop-color:#F8E144"/>
						<stop  offset="1" style="stop-color:#FBEE46"/>
					</linearGradient>
					<polyline class="st9" points="597.9,1198.7 782.2,1020.8 789.5,944 570.3,1171.2 					"/>
					<linearGradient id="SVGID_10_" gradientUnits="userSpaceOnUse" x1="518.7427" y1="987.2697" x2="800.5887" y2="987.2697">
						<stop  offset="0" style="stop-color:#E99E3D"/>
						<stop  offset="0.37" style="stop-color:#EAA03D"/>
						<stop  offset="0.5602" style="stop-color:#EBA83E"/>
						<stop  offset="0.7093" style="stop-color:#EEB540"/>
						<stop  offset="0.8371" style="stop-color:#F3C842"/>
						<stop  offset="0.9502" style="stop-color:#F8E144"/>
						<stop  offset="1" style="stop-color:#FBEE46"/>
					</linearGradient>
					<polygon class="st10" points="792.8,909.1 800.6,827.5 518.7,1119.4 546.3,1147.1 					"/>
					<linearGradient id="SVGID_11_" gradientUnits="userSpaceOnUse" x1="467.9401" y1="903.9126" x2="811.5252" y2="903.9126">
						<stop  offset="0" style="stop-color:#E99E3D"/>
						<stop  offset="0.37" style="stop-color:#EAA03D"/>
						<stop  offset="0.5602" style="stop-color:#EBA83E"/>
						<stop  offset="0.7093" style="stop-color:#EEB540"/>
						<stop  offset="0.8371" style="stop-color:#F3C842"/>
						<stop  offset="0.9502" style="stop-color:#F8E144"/>
						<stop  offset="1" style="stop-color:#FBEE46"/>
					</linearGradient>
					<polygon class="st11" points="803.4,797.4 811.5,712.5 467.9,1068.4 494.8,1095.4 					"/>
				</g>
				<g>
					<linearGradient id="SVGID_12_" gradientUnits="userSpaceOnUse" x1="983.5699" y1="563.4438" x2="1235.5398" y2="563.4438">
						<stop  offset="0" style="stop-color:#EB993B"/>
						<stop  offset="0.1945" style="stop-color:#EDA03C"/>
						<stop  offset="0.4814" style="stop-color:#F1B440"/>
						<stop  offset="0.8239" style="stop-color:#F8D447"/>
						<stop  offset="1" style="stop-color:#FCE84B"/>
					</linearGradient>
					<polygon class="st12" points="1184.1,418.9 1176.3,427.1 1177.5,426 1154.7,449.7 983.6,628.6 991.2,708 1235.5,470.5 					"/>
					<linearGradient id="SVGID_13_" gradientUnits="userSpaceOnUse" x1="965.293" y1="419.4069" x2="1132.8578" y2="419.4069">
						<stop  offset="0" style="stop-color:#EB993B"/>
						<stop  offset="0.1945" style="stop-color:#EDA03C"/>
						<stop  offset="0.4814" style="stop-color:#F1B440"/>
						<stop  offset="0.8239" style="stop-color:#F8D447"/>
						<stop  offset="1" style="stop-color:#FCE84B"/>
					</linearGradient>
					<polygon class="st13" points="1081.7,316.3 965.3,438 973.4,522.5 1132.9,367.5 					"/>
					<linearGradient id="SVGID_14_" gradientUnits="userSpaceOnUse" x1="974.4569" y1="491.2406" x2="1183.9155" y2="491.2406">
						<stop  offset="0" style="stop-color:#EB993B"/>
						<stop  offset="0.1945" style="stop-color:#EDA03C"/>
						<stop  offset="0.4814" style="stop-color:#F1B440"/>
						<stop  offset="0.8239" style="stop-color:#F8D447"/>
						<stop  offset="1" style="stop-color:#FCE84B"/>
					</linearGradient>
					<polygon class="st14" points="1133.1,367.8 1123.4,377.8 1126.5,374.8 1066.5,437.4 974.5,533.6 982.2,614.7 1183.9,418.7 
											"/>
					<linearGradient id="SVGID_15_" gradientUnits="userSpaceOnUse" x1="1038.8562" y1="999.0703" x2="1546.0649" y2="999.0703">
						<stop  offset="0" style="stop-color:#EB993B"/>
						<stop  offset="0.1945" style="stop-color:#EDA03C"/>
						<stop  offset="0.4814" style="stop-color:#F1B440"/>
						<stop  offset="0.8239" style="stop-color:#F8D447"/>
						<stop  offset="1" style="stop-color:#FCE84B"/>
					</linearGradient>
					<polygon class="st15" points="1493.9,729.4 1474.4,749.8 1487.2,737.4 1413.8,813.7 1240.6,994.1 1038.9,1205 1045,1268.7 
						1546.1,781.7 					"/>
					<linearGradient id="SVGID_16_" gradientUnits="userSpaceOnUse" x1="946.8391" y1="274.5533" x2="1029.8215" y2="274.5533">
						<stop  offset="0" style="stop-color:#EB993B"/>
						<stop  offset="0.1945" style="stop-color:#EDA03C"/>
						<stop  offset="0.4814" style="stop-color:#F1B440"/>
						<stop  offset="0.8239" style="stop-color:#F8D447"/>
						<stop  offset="1" style="stop-color:#FCE84B"/>
					</linearGradient>
					<polygon class="st16" points="978.3,212.7 946.8,245.6 955.6,336.4 1029.8,264.3 					"/>
					<linearGradient id="SVGID_17_" gradientUnits="userSpaceOnUse" x1="956.066" y1="347.14" x2="1081.5166" y2="347.14">
						<stop  offset="0" style="stop-color:#EB993B"/>
						<stop  offset="0.1945" style="stop-color:#EDA03C"/>
						<stop  offset="0.4814" style="stop-color:#F1B440"/>
						<stop  offset="0.8239" style="stop-color:#F8D447"/>
						<stop  offset="1" style="stop-color:#FCE84B"/>
					</linearGradient>
					<polygon class="st17" points="1030,264.5 956.1,341.8 964.5,429.8 1081.5,316.1 					"/>
					<linearGradient id="SVGID_18_" gradientUnits="userSpaceOnUse" x1="1011.2385" y1="780.8484" x2="1390.2712" y2="780.8484">
						<stop  offset="0" style="stop-color:#EB993B"/>
						<stop  offset="0.1945" style="stop-color:#EDA03C"/>
						<stop  offset="0.4814" style="stop-color:#F1B440"/>
						<stop  offset="0.8239" style="stop-color:#F8D447"/>
						<stop  offset="1" style="stop-color:#FCE84B"/>
					</linearGradient>
					<polygon class="st18" points="1339.1,574.3 1329.2,584.7 1332.3,581.7 1272.3,644.2 1011.2,917.1 1018,987.4 1390.3,625.6 
											"/>
					<linearGradient id="SVGID_19_" gradientUnits="userSpaceOnUse" x1="1029.7557" y1="926.1991" x2="1493.6615" y2="926.1991">
						<stop  offset="0" style="stop-color:#EB993B"/>
						<stop  offset="0.1945" style="stop-color:#EDA03C"/>
						<stop  offset="0.4814" style="stop-color:#F1B440"/>
						<stop  offset="0.8239" style="stop-color:#F8D447"/>
						<stop  offset="1" style="stop-color:#FCE84B"/>
					</linearGradient>
					<polygon class="st19" points="1442.9,678.3 1423.5,698.6 1436.3,686.2 1362.9,762.6 1189.7,943 1029.8,1110.2 1035.9,1174.1 
						1493.7,729.2 					"/>
					<linearGradient id="SVGID_20_" gradientUnits="userSpaceOnUse" x1="939.6736" y1="208.4908" x2="978.1264" y2="208.4908">
						<stop  offset="0" style="stop-color:#EB993B"/>
						<stop  offset="0.1945" style="stop-color:#EDA03C"/>
						<stop  offset="0.4814" style="stop-color:#F1B440"/>
						<stop  offset="0.8239" style="stop-color:#F8D447"/>
						<stop  offset="1" style="stop-color:#FCE84B"/>
					</linearGradient>
					<polygon class="st20" points="939.7,173.9 939.8,175.3 940,174.4 946.6,243.1 978.1,212.4 					"/>
					<linearGradient id="SVGID_21_" gradientUnits="userSpaceOnUse" x1="1048.2097" y1="1067.2939" x2="1583.5388" y2="1067.2939">
						<stop  offset="0" style="stop-color:#EB993B"/>
						<stop  offset="0.1945" style="stop-color:#EDA03C"/>
						<stop  offset="0.4814" style="stop-color:#F1B440"/>
						<stop  offset="0.8239" style="stop-color:#F8D447"/>
						<stop  offset="1" style="stop-color:#FCE84B"/>
					</linearGradient>
					<polygon class="st21" points="1583.5,819.3 1546.3,781.9 1526.7,802.4 1539.5,790 1466.2,866.3 1293,1046.7 1048.2,1302.6 
						1053,1352.6 1053,1352.7 					"/>
					<linearGradient id="SVGID_22_" gradientUnits="userSpaceOnUse" x1="1002.0241" y1="708.6171" x2="1338.9302" y2="708.6171">
						<stop  offset="0" style="stop-color:#EB993B"/>
						<stop  offset="0.1945" style="stop-color:#EDA03C"/>
						<stop  offset="0.4814" style="stop-color:#F1B440"/>
						<stop  offset="0.8239" style="stop-color:#F8D447"/>
						<stop  offset="1" style="stop-color:#FCE84B"/>
					</linearGradient>
					<polygon class="st22" points="1287.5,522.6 1279.5,530.9 1280.7,529.8 1258,553.5 1002,821 1009.1,894.7 1338.9,574.1 					"/>
					<linearGradient id="SVGID_23_" gradientUnits="userSpaceOnUse" x1="1020.4022" y1="853.897" x2="1442.6746" y2="853.897">
						<stop  offset="0" style="stop-color:#EB993B"/>
						<stop  offset="0.1945" style="stop-color:#EDA03C"/>
						<stop  offset="0.4814" style="stop-color:#F1B440"/>
						<stop  offset="0.8239" style="stop-color:#F8D447"/>
						<stop  offset="1" style="stop-color:#FCE84B"/>
					</linearGradient>
					<polygon class="st23" points="1390.5,625.8 1371.1,646 1383.9,633.6 1310.6,709.9 1137.3,890.4 1020.4,1012.6 1027.1,1082 
						1442.7,678.1 					"/>
					<linearGradient id="SVGID_24_" gradientUnits="userSpaceOnUse" x1="992.7845" y1="636.059" x2="1287.3059" y2="636.059">
						<stop  offset="0" style="stop-color:#EB993B"/>
						<stop  offset="0.1945" style="stop-color:#EDA03C"/>
						<stop  offset="0.4814" style="stop-color:#F1B440"/>
						<stop  offset="0.8239" style="stop-color:#F8D447"/>
						<stop  offset="1" style="stop-color:#FCE84B"/>
					</linearGradient>
					<polygon class="st24" points="1235.7,470.7 1226,480.9 1229.1,477.9 1169,540.5 992.8,724.7 1000.1,801.4 1287.3,522.4 					
						"/>
				</g>
			</g>
			<g>
				<g>
					<g>
						<polygon class="st25" points="919.1,173.9 887.1,173.9 771.4,1377.9 1034.8,1377.9 						"/>
					</g>
				</g>
				<g>
					<rect x="893.8" y="373.1" class="st26" width="12.4" height="122"/>
					<rect x="893.8" y="551.1" class="st26" width="12.4" height="123"/>
					<rect x="893.8" y="733.1" class="st26" width="12.4" height="123"/>
					<rect x="893.8" y="896.1" class="st26" width="12.4" height="124"/>
					<rect x="893.8" y="1057.1" class="st26" width="12.4" height="122"/>
					<rect x="893.8" y="1212.1" class="st26" width="12.4" height="123"/>
				</g>
			</g>
		</g>
	</g>
	<g>
		<g>
			<path class="st27" d="M424.2,1451.6c9.7-1.4,22.3-2.7,38.4-2.7c19.8,0,34.3,4.1,43.5,11.6c8.5,6.6,13.6,16.8,13.6,29.2
				c0,12.6-4.1,22.6-12,29.8c-10.6,10.1-27.8,15.3-47.4,15.3c-6,0-11.5-0.2-16.1-1.2v55.9h-20V1451.6z M444.2,1518.9
				c4.4,1,9.9,1.4,16.6,1.4c24.1,0,38.9-10.6,38.9-29.8c0-18.4-14.5-27.3-36.6-27.3c-8.7,0-15.4,0.6-18.9,1.4V1518.9z"/>
			<path class="st27" d="M682,1518.3c0,48-32.4,73.5-72,73.5c-40.9,0-69.7-28.6-69.7-70.8c0-44.3,30.6-73.3,72-73.3
				C654.6,1447.7,682,1476.9,682,1518.3z M561.7,1520.6c0,29.8,17.9,56.5,49.4,56.5c31.7,0,49.7-26.3,49.7-58
				c0-27.7-16.1-56.7-49.4-56.7C578.3,1462.4,561.7,1489.9,561.7,1520.6z"/>
			<path class="st27" d="M711,1450h20v124.4h66.2v15.1H711V1450z"/>
			<path class="st27" d="M902.8,1524.1h-60.3v50.3h67.2v15.1h-87.2V1450h83.7v15.1h-63.7v44.1h60.3V1524.1z"/>
			<path class="st27" d="M974.8,1589.5L924.2,1450h21.6l24.2,68.7c6.7,18.8,12.4,35.8,16.6,52.2h0.5c4.4-16.1,10.8-33.7,17.7-52
				l26.2-68.9h21.4l-55.4,139.5H974.8z"/>
			<path class="st27" d="M1092.1,1450v139.5h-20V1450H1092.1z"/>
			<path class="st27" d="M1238.4,1584.9c-7.4,3.3-22.1,6.6-40.9,6.6c-43.7,0-76.6-24.8-76.6-70.6c0-43.7,32.9-73.3,81-73.3
				c19.3,0,31.5,3.7,36.8,6.2l-4.8,14.7c-7.6-3.3-18.4-5.8-31.3-5.8c-36.3,0-60.5,20.9-60.5,57.5c0,34.2,21.8,56.1,59.6,56.1
				c12.2,0,24.6-2.3,32.7-5.8L1238.4,1584.9z"/>
			<path class="st27" d="M1266.4,1450h20v67.3h0.7c4.1-5.4,8.3-10.4,12.2-14.9l47.4-52.4h24.8l-56.1,59.2l60.5,80.3h-23.7
				l-51.1-68.5l-14.7,15.3v53.2h-20V1450z"/>
		</g>
		<g>
			<path class="st28" d="M1013.6,1618.7c0.3,0.3,0.8,0.5,0.8,0.8c0.1,1.5-1.6,2.9-3.5,2.5c-1.4-0.3-2.8-0.8-4.1-1.4
				c-2.1-0.9-2.6-0.8-4,0.8c-0.2,0.2-0.6,0.3-0.9,0.4c-0.1-0.2-0.2-0.5-0.2-0.7c0.4-2.5,2-3.2,4.8-2.1c0.8,0.3,1.5,0.7,2.3,1
				C1011.3,1621.1,1012.1,1620.9,1013.6,1618.7z"/>
			<g>
				<path class="st28" d="M1015.8,1649.9c0-8.4,0-16.8,0-25.2c1.3,0,2.6,0,3.9,0c0,9.5,0,19,0,28.6c-1.2,0-2.4,0.1-3.5,0
					c-0.4,0-0.7-0.6-0.9-0.9c-4.6-7.5-9.2-15-13.9-22.5c-0.3-0.5-0.6-0.9-1.1-1.3c0,8.2,0,16.5,0,24.7c-1.4,0-2.6,0-3.9,0
					c0-9.5,0-18.9,0-28.6c1.1,0,2.2-0.1,3.2,0c0.4,0.1,0.8,0.6,1.1,1c4.7,7.7,9.4,15.5,14.1,23.2c0.2,0.4,0.5,0.8,0.8,1.2
					C1015.7,1649.9,1015.8,1649.9,1015.8,1649.9z"/>
				<path class="st28" d="M1209.8,1634.1c-1.8,0-3.3,0-5,0c0-1.7,0.1-3.3,0-4.8c-0.1-2.6-1-3.2-4.2-3.3c-0.8,0-1.6,0-2.5,0
					c-2.3,0.1-3.1,0.8-3.3,2.6c0,0.4-0.1,0.7-0.1,1.1c0,6.5,0,13,0,19.6c0,0.6,0.1,1.2,0.3,1.7c0.2,0.9,0.9,1.4,2,1.4
					c1.5,0,3,0.1,4.5,0c2.1-0.1,2.9-0.6,3-2.4c0.2-1.7,0.1-3.4,0.2-5.1c0-0.5,0-1,0-1.6c1.6,0,3.1,0,4.9,0c-0.3,2.4-0.4,4.7-0.9,6.9
					c-0.3,1.6-1.8,2.8-3.9,2.9c-3.4,0.2-6.9,0.3-10.2,0.1c-3.3-0.2-5-1.7-5.1-4.6c-0.2-6.4-0.2-12.9,0-19.3c0.1-3.1,2.1-4.7,5.9-5
					c2.9-0.2,5.9-0.1,8.8,0.1c2.7,0.2,4.2,1.3,4.7,3.5C1209.5,1630,1209.5,1632,1209.8,1634.1z"/>
				<path class="st28" d="M945.6,1632.4c-1.4,0-2.6,0-4,0c0-1.1,0-2.1,0-3.1c0-1.5-0.1-3.2-2.2-3.8c-2.3-0.6-4.7-0.7-6.7,0.7
					c-0.7,0.5-1.1,1.5-1.2,2.3c-0.2,1.7,0,3.4,0,5.1c0,1.2,0.7,2.1,2.1,2.6c1.7,0.5,3.4,1,5.2,1.4c6.1,1.3,7.7,2.9,7.7,8
					c0,1.4-0.1,2.9-0.4,4.3c-0.5,2.3-1.8,3.4-4.6,3.6c-3.3,0.2-6.6,0.1-9.8-0.1c-2.3-0.1-3.7-1.3-4.1-3.2c-0.3-1.6-0.3-3.3-0.5-5
					c1.5,0,2.7,0,4.1,0c0,0.4,0.1,0.7,0.1,1c0,0.9,0,1.7,0,2.6c0.2,3.2,1.3,4,5.2,4c4.7,0,5.5-0.6,5.5-4.4c0-1.1,0-2.3,0-3.4
					c0-1.6-0.8-2.7-2.7-3.3c-1.9-0.6-3.7-1.1-5.6-1.5c-4.9-1.2-6.3-2.7-6.5-6.8c0-1-0.1-2,0-2.9c0.1-3.8,2-5.6,6.6-5.9
					c2.4-0.2,4.9,0,7.4,0.2c2.7,0.3,4,1.5,4.3,3.8C945.4,1629.7,945.5,1630.9,945.6,1632.4z"/>
				<path class="st28" d="M1101.8,1624.7c5.1,0,10.2,0,15.3,0c0,0.4,0,0.8,0,1.3c-3.4,0-6.7,0-10.2,0c0,4,0,7.9,0,11.9
					c3.1,0,6.2,0,9.4,0c0,0.5,0,0.8,0,1.3c-3.1,0-6.2,0-9.4,0c0,4.3,0,8.5,0,12.8c3.6,0,7.1,0,10.8,0c0,0.5,0,0.9,0.1,1.3
					c-5.3,0-10.6,0-16,0C1101.8,1643.7,1101.8,1634.2,1101.8,1624.7z"/>
				<path class="st28" d="M961.8,1624.6c5.1,0,10.2,0,15.3,0c0,0.4,0,0.8,0,1.3c-3.4,0-6.8,0-10.3,0c0,4,0,7.8,0,11.8
					c3.1,0,6.1,0,9.3,0c0,0.5,0.1,0.8,0.1,1.3c-3.2,0-6.3,0-9.4,0c0,4.3,0,8.4,0,12.7c3.6,0,7.2,0,10.8,0c0,0.5,0,0.9,0,1.4
					c-5.2,0-10.5,0-15.9,0C961.8,1643.7,961.8,1634.3,961.8,1624.6z"/>
				<path class="st28" d="M1146.1,1653.2c-1.8,0-3.3,0-5,0c0-9.1,0-18.2,0-27.4c-2.3,0-4.4,0-6.6,0c0-0.5,0-0.8,0-1.2
					c3.5,0,6.8,0,10.2,0c2.3,0,4.6,0,7,0c1,0,1.4,0.2,1,1.2c-2.1,0-4.2,0-6.5,0C1146.1,1635,1146.1,1644.1,1146.1,1653.2z"/>
				<path class="st28" d="M1070.1,1624.6c1.1,0,2.2,0,3.2,0c0.5,0,1,0,1.7,0c0,9.1,0,18.1,0,27.3c3.1,0,6.2,0,9.3,0
					c0,0.5,0.1,0.9,0.1,1.3c-4.8,0-9.5,0-14.3,0C1070.1,1643.7,1070.1,1634.2,1070.1,1624.6z"/>
				<path class="st28" d="M1167.5,1624.6c1.7,0,3.2,0,4.9,0c0,9.5,0,19,0,28.6c-1.6,0-3.2,0-4.9,0
					C1167.5,1643.7,1167.5,1634.3,1167.5,1624.6z"/>
				<path class="st28" d="M1056.6,1652.8c-2.6-9.2-5.2-18.4-7.9-27.6c-0.1-0.3-0.7-0.6-1.1-0.6c-1.7-0.1-3.4,0.1-5.1-0.1
					c-1.4-0.1-1.9,0.3-2.2,1.4c-1.9,6.9-3.8,13.7-5.7,20.5c-0.6,2.2-1.2,4.5-1.9,6.8c1.8,0,3.4,0,5,0c0.5-2,0.9-4,1.4-6
					c0.1-0.3,0.2-0.7,0.5-0.7c3.4-0.1,7,0,10.4,0c0.5,2.3,1.1,4.5,1.6,6.8c1.7,0,3.2,0,4.8,0
					C1056.6,1653.1,1056.6,1653,1056.6,1652.8z M1039.7,1645c1.6-5.8,3.2-11.5,4.8-17.2c0.1,0,0.2,0,0.3,0
					c1.6,5.7,3.2,11.4,4.9,17.1C1046.4,1645,1043.2,1645,1039.7,1645z"/>
				<path class="st28" d="M1245.4,1652.8c-2.6-9.2-5.2-18.3-7.8-27.5c-0.1-0.3-0.7-0.7-1.2-0.7c-1.6-0.1-3.3,0-4.9-0.1
					c-1.4-0.1-2,0.3-2.3,1.4c-1.5,5.8-3.2,11.6-4.9,17.4c-0.9,3.2-1.8,6.5-2.8,9.8c1.7,0,3.4,0,5,0c0.5-2,0.9-4,1.4-5.9
					c0.1-0.3,0.2-0.8,0.4-0.8c3.4-0.1,7.1,0,10.5,0c0.5,2.3,1.1,4.6,1.6,6.8c1.7,0,3.2,0,4.8,0
					C1245.4,1653,1245.5,1652.9,1245.4,1652.8z M1228.5,1645c1.6-5.8,3.2-11.5,4.8-17.1c0.1,0,0.2,0,0.3,0
					c1.6,5.7,3.2,11.3,4.9,17.1C1235.2,1645,1231.9,1645,1228.5,1645z"/>
			</g>
			<g>
				<path class="st28" d="M1287,1653.2c-2.3-9.5-4.6-19-6.9-28.6c1.9,0,3.5,0,5.3,0c2.1,8.3,4.2,16.7,6.3,25c0.1,0,0.2,0,0.4,0
					c2.1-8.3,4.2-16.7,6.3-25c1.7,0,3.4,0,5.3,0c-2.3,9.6-4.7,19.1-7,28.6C1293.4,1653.2,1290.3,1653.2,1287,1653.2z"/>
				<path class="st28" d="M1375.8,1624.7c1.7,0,3.2,0,4.9,0c0,9.1,0,18.1,0,27.2c3.1,0,6.2,0,9.3,0c0,0.5,0.1,0.9,0.1,1.3
					c-4.8,0-9.5,0-14.3,0C1375.8,1643.7,1375.8,1634.2,1375.8,1624.7z"/>
				<path class="st28" d="M1323.1,1653.2c-1.7,0-3.3,0-4.9,0c0-9.5,0-19,0-28.6c1.7,0,3.2,0,4.9,0
					C1323.1,1634.2,1323.1,1643.7,1323.1,1653.2z"/>
				<path class="st28" d="M1361.3,1652.7c-2.6-9.1-5.2-18.3-7.8-27.4c-0.1-0.3-0.7-0.7-1.1-0.7c-1.7-0.1-3.5,0-5.2-0.1
					c-1.3-0.1-1.7,0.3-2,1.3c-2.4,8.9-5,17.7-7.5,26.6c-0.1,0.2-0.1,0.5-0.1,0.8c1.7,0,3.3,0,4.9,0c0.5-2,0.9-4,1.4-6
					c0.1-0.3,0.2-0.7,0.5-0.7c3.4-0.1,7,0,10.4,0c0.5,2.3,1.1,4.6,1.6,6.8c1.7,0,3.3,0,4.8,0
					C1361.3,1653,1361.4,1652.9,1361.3,1652.7z M1344.4,1645c1.6-5.8,3.2-11.5,4.8-17.2c0.1,0,0.2,0,0.3,0
					c1.6,5.7,3.2,11.4,4.9,17.2C1351,1645,1347.8,1645,1344.4,1645z"/>
			</g>
			<g>
				<path class="st28" d="M424.5,1631.1c0.2-0.8,0.3-1.7,0.5-2.5c0.6-2.4,2.3-3.8,5.3-4c3-0.2,6-0.2,8.9,0c3.1,0.2,4.5,1.3,5.1,3.8
					c0.2,0.9,0.3,1.8,0.4,2.7c0.1,1,0,2,0,3.1c-1.4,0-2.7,0-4,0c-0.2,0-0.6-0.5-0.6-0.8c-0.1-1.5-0.1-3-0.2-4.5
					c-0.2-2-1.1-2.7-3.5-2.8c-1.3,0-2.5,0-3.8,0.1c-1.5,0.1-2.3,0.8-2.5,1.9c-0.1,0.5-0.1,0.9-0.1,1.4c0,6.6,0,13.3,0,19.9
					c0,0.5,0.1,1.1,0.3,1.6c0.2,0.9,0.9,1.4,2,1.4c1.5,0,3,0.1,4.5,0c2.1-0.1,2.9-0.6,3-2.4c0.2-1.7,0.1-3.4,0.2-5.1
					c0-0.5,0-1,0-1.6c1.6,0,3,0,4.7,0c0.1,2.7,0.3,5.3-1,7.8c-0.6,1.2-1.8,2-3.3,2c-3.5,0.1-7,0.3-10.4,0.1
					c-3.3-0.2-4.8-1.8-5.2-4.7c-0.1-0.7-0.2-1.3-0.3-2C424.5,1641.5,424.5,1636.3,424.5,1631.1z"/>
				<path class="st28" d="M640,1624.6c1.7,0,3.2,0,5,0c0,0.5,0,0.9,0,1.3c0,7,0,13.9,0,20.9c0,1.1,0.1,2.3,0.3,3.4
					c0.3,1.5,1.2,2.1,3.1,2.2c1.3,0.1,2.7,0,4.1,0c1.4,0,2.4-0.7,2.7-1.8c0.3-1.4,0.5-2.8,0.5-4.2c0.1-6.8,0-13.5,0-20.3
					c0-0.5,0-0.9,0-1.4c1.7,0,3.3,0,4.9,0c0,0.4,0.1,0.7,0.1,1c0,6.6,0,13.3,0,19.9c0,1.2-0.1,2.4-0.4,3.6c-0.6,2.6-2,4-5.2,4.2
					c-3.2,0.2-6.6,0.2-9.8,0c-3-0.2-4.5-1.6-4.9-4.1c-0.3-1.5-0.4-3-0.4-4.6c0-6.3,0-12.6,0-19C639.9,1625.3,639.9,1625,640,1624.6z
					"/>
				<path class="st28" d="M518.2,1624.6c1.4,0,2.6,0,3.9,0c0,9.5,0,19,0,28.6c-1.1,0-2.2,0.1-3.3,0c-0.4,0-0.9-0.5-1.1-0.9
					c-4.7-7.6-9.4-15.3-14.1-22.9c-0.2-0.3-0.4-0.7-0.9-0.9c0,8.2,0,16.4,0,24.7c-1.4,0-2.6,0-3.9,0c0-9.5,0-19,0-28.6
					c1.1,0,2.2-0.1,3.2,0c0.5,0.1,0.9,0.6,1.2,1c4.7,7.7,9.3,15.4,14,23.1c0.2,0.4,0.5,0.8,1,1.2
					C518.2,1641.5,518.2,1633.2,518.2,1624.6z"/>
				<path class="st28" d="M812.1,1653.2c-1.4,0-2.6,0-3.9,0c0-9.5,0-19,0-28.6c1.1,0,2.1-0.1,3.1,0c0.5,0.1,1,0.5,1.2,0.9
					c4.7,7.7,9.4,15.5,14.1,23.2c0.2,0.4,0.5,0.8,1,1.1c0-8.4,0-16.7,0-25.2c1.3,0,2.6,0,3.9,0c0,9.5,0,19,0,28.6
					c-1.1,0-2.2,0.1-3.3,0c-0.4,0-0.9-0.5-1.1-0.9c-4.7-7.6-9.4-15.3-14.1-22.9c-0.2-0.3-0.4-0.7-0.9-0.9
					C812.1,1636.7,812.1,1644.9,812.1,1653.2z"/>
				<path class="st28" d="M698.3,1634.1c-1.7,0-3.2,0-4.9,0c0-1.4,0.1-2.7,0-4.1c-0.2-3.6-0.8-4-5.2-4c-4.1,0-4.8,0.5-4.8,3.8
					c-0.1,6.5,0,13,0,19.6c0,0.6,0,1.3,0.4,1.8c0.4,0.5,1.1,1.1,1.7,1.2c1.8,0.2,3.7,0.1,5.5,0c1.7-0.1,2.1-1.2,2.2-2.2
					c0.2-1.5,0.2-3.1,0.2-4.6c0-0.7,0-1.3,0-2.1c1.6,0,3.1,0,4.7,0c0,2.4,0.2,4.9-0.7,7.2c-0.6,1.5-1.8,2.5-3.7,2.6
					c-3.4,0.2-6.9,0.3-10.2,0.1c-3.4-0.2-5.1-1.8-5.2-4.7c-0.2-6.4-0.2-12.8,0-19.2c0.1-3.1,2.1-4.7,6-5c2.9-0.2,5.9-0.1,8.8,0.1
					c2.8,0.2,4.3,1.5,4.7,3.9C698.1,1630.3,698.1,1632.1,698.3,1634.1z"/>
				<path class="st28" d="M730.2,1643.4c1.6,0,3.1,0,4.7,0c0,2.5,0.2,5-0.8,7.5c-0.6,1.4-1.8,2.3-3.6,2.4c-3.4,0.2-6.9,0.3-10.2,0.1
					c-3.4-0.2-5.1-1.8-5.2-4.6c-0.2-6.4-0.2-12.8,0-19.2c0.1-3.1,2.1-4.8,6-5c2.9-0.2,5.9-0.1,8.8,0.1c2.7,0.2,4.1,1.3,4.6,3.5
					c0.4,1.9,0.5,3.9,0.7,6c-1.8,0-3.2,0-4.8,0c0-0.4-0.1-0.8-0.1-1.2c-0.1-1.5,0-2.9-0.2-4.4c-0.2-1.7-1.1-2.4-3.2-2.5
					c-1.2-0.1-2.5-0.1-3.8,0c-2,0.1-2.7,0.8-2.9,2.4c-0.1,0.4-0.1,0.9-0.1,1.3c0,6.5,0,13,0,19.4c0,0.5,0.1,0.9,0.2,1.4
					c0.2,1.2,1,1.8,2.5,1.8c1.3,0,2.6,0.1,3.9,0c2.4-0.1,3.1-0.7,3.3-2.7c0.1-1.6,0.1-3.2,0.2-4.8
					C730.2,1644.5,730.2,1644,730.2,1643.4z"/>
				<path class="st28" d="M556.7,1632.4c-1.5,0-2.7,0-4,0c0-1.2,0-2.4,0-3.5c-0.1-2.6-1.4-3.7-4.6-3.7c-4,0-5.5,1-5.6,3.7
					c0,1.5,0,3,0,4.5c0,1.3,0.7,2.2,2.1,2.7c1.5,0.5,3.1,0.9,4.6,1.3c0.3,0.1,0.7,0.1,1,0.2c5.6,1.2,7.2,2.9,7.2,7.6
					c0,1.6-0.1,3.1-0.4,4.7c-0.3,2.1-1.9,3.4-4.5,3.6c-3.3,0.1-6.6,0.1-10-0.1c-2.3-0.1-3.7-1.4-4-3.2c-0.3-1.6-0.3-3.2-0.5-5
					c1.5,0,2.7,0,4,0c0.1,1.6,0.1,3.2,0.3,4.7c0.3,2.1,1.3,2.8,3.9,2.9c1.3,0,2.7,0,4-0.1c1.2-0.1,2.2-0.8,2.2-1.7
					c0.2-2.3,0.2-4.7,0.1-7c0-1.1-1.1-1.7-2.3-2.1c-1.9-0.6-3.9-1.1-5.9-1.6c-4.9-1.2-6.3-2.7-6.5-6.8c0-1,0-2,0-2.9
					c0.1-3.8,2.1-5.6,6.7-5.9c2.4-0.2,4.8,0,7.2,0.2c2.8,0.3,4.1,1.5,4.4,3.8C556.6,1629.7,556.6,1631,556.7,1632.4z"/>
				<path class="st28" d="M574.5,1625.8c-2.4,0-4.5,0-6.6,0c0-0.4,0-0.8,0-1.2c3.4,0,6.6,0,9.9,0c2.4,0,4.8,0,7.2,0
					c1,0,1.4,0.2,1,1.2c-2.1,0-4.2,0-6.5,0c0,9.2,0,18.3,0,27.5c-1.7,0-3.3,0-5,0C574.5,1644.1,574.5,1635.1,574.5,1625.8z"/>
				<path class="st28" d="M756.2,1653.2c-1.7,0-3.3,0-4.9,0c0-9.5,0-19,0-28.6c1.7,0,3.2,0,4.9,0
					C756.2,1634.2,756.2,1643.7,756.2,1653.2z"/>
				<path class="st28" d="M793,1629.5c-0.4-3-2.1-4.6-5.8-5c-2.8-0.3-5.6-0.3-8.4-0.1c-4.3,0.4-6.2,2.1-6.4,5.7
					c-0.2,3.2,0,6.4,0,9.5c0,0,0,0,0,0c0,2.8-0.1,5.7,0,8.5c0.2,3.6,2.3,5.3,6.7,5.4c2.3,0.1,4.6,0.1,6.9,0c4.6-0.2,6.7-1.7,6.9-5.4
					c0.2-4.7,0.2-9.5,0.3-14.2C793.3,1632.4,793.2,1630.9,793,1629.5z M788.1,1638.9C788,1638.9,788.2,1638.9,788.1,1638.9
					c0.1,3.5-0.1,6.9-0.2,10.4c-0.1,2.4-1.3,3.1-4.2,3.2c-0.7,0-1.4,0-2,0c-2.6-0.1-3.7-0.9-3.9-3c-0.2-1.7-0.2-3.4-0.2-5.1
					c0-5.2,0-10.4,0.2-15.7c0.1-2.7,1.2-3.3,4.5-3.3c4.2,0,5.7-0.2,5.9,4.7C788.2,1633,788.1,1636,788.1,1638.9z"/>
				<path class="st28" d="M623.2,1648c0-2.9-0.9-5.5-4.7-6.8c0.5-0.4,0.9-0.6,1.4-0.9c1.8-1.1,3-2.6,3.1-4.4
					c0.1-2.5,0.1-5.1-0.1-7.6c-0.2-1.8-1.6-3.1-3.9-3.3c-5-0.3-10-0.4-15.1-0.6c0,9.8,0,19.3,0,28.8c1.6,0,3.1,0,4.7,0
					c0-3.8,0-7.6,0-11.4c1.9,0,3.6-0.1,5.3,0c2.4,0.1,3.6,1,3.8,2.9c0.2,2.2,0.2,4.5,0.3,6.7c0,0.6,0,1.2,0,1.8c1.9,0,3.6,0,5.3,0
					C623.2,1651.4,623.2,1649.7,623.2,1648z M617.6,1637.7c-0.2,2.1-1.6,2.8-4.1,2.9c-1.6,0-3.2,0-4.8,0c0-5,0-9.9,0-15.1
					c2.3,0.1,4.5,0.1,6.8,0.3c1.1,0.1,1.9,0.8,2.1,1.7c0.2,0.6,0.3,1.2,0.3,1.9C617.8,1632.1,617.9,1634.9,617.6,1637.7z"/>
				<path class="st28" d="M482.1,1629.6c-0.4-3.1-2.1-4.8-5.9-5.1c-2.7-0.3-5.5-0.3-8.2-0.1c-4.3,0.4-6.2,2.1-6.4,5.7
					c0,0.6-0.1,1.3-0.1,1.9l0,0l0,0.2c0,0.4,0,0.7,0,1.1l-0.1,12c0,0.1,0,0.3,0,0.4c0,0.8,0.1,1.6,0.2,2.3c0.3,3.8,2.3,5.4,6.9,5.6
					c2.3,0.1,4.5,0.1,6.8,0c4.6-0.2,6.7-1.7,6.9-5.4c0.2-4.7,0.2-9.5,0.3-14.2C482.4,1632.4,482.3,1631,482.1,1629.6z M476.9,1649.3
					c-0.1,2.4-1.3,3.1-4.3,3.2c-0.7,0-1.4,0-2,0c-2.6-0.1-3.8-0.9-3.8-3c-0.1-3.4,0-6.7,0-10.1c0,0,0,0,0,0c0-3.5-0.1-7.1,0-10.6
					c0.1-2.6,1.2-3.3,4.3-3.3c0.2,0,0.4,0,0.6,0c4.3,0,5.3,0.5,5.4,4C477.2,1636,477.1,1642.7,476.9,1649.3z"/>
			</g>
			<polygon class="st28" points="787.6,1618.2 793,1618.2 784.6,1625.4 779.8,1625.4 			"/>
			<path class="st28" d="M883.5,1624.3c-0.2,0.3-0.3,0.8-0.5,1.4c-1.6,4.8-3.3,7.6-5,12.7c-0.2-0.6-0.4-0.9-0.5-1.3
				c-1.7-4.9-3.4-7.8-5.1-12.7c0-0.1-0.1-0.1-0.1-0.2h-4.6c0.1,0.2,0.1,0.3,0.2,0.5c2.4,5.9,4.7,11.8,7.1,17.7
				c0.3,0.8,0.5,1.7,0.5,2.5c0.1,2.7,0,5.4,0,8.2c1.8,0,3.4,0,5.2,0c0-2.6-0.1-5.1,0-7.6c0.1-1.3,0.3-2.7,0.8-3.9
				c2.2-5.7,4.4-11.3,6.6-16.9c0.1-0.1,0.1-0.3,0.2-0.4H883.5z"/>
		</g>
	</g>
</g>
</svg>
