<?xml version="1.0" encoding="utf-8"?>
<!-- Generator: Adobe Illustrator 24.0.2, SVG Export Plug-In . SVG Version: 6.00 Build 0)  -->
<svg version="1.1" id="Capa_1" xmlns="http://www.w3.org/2000/svg" xmlns:xlink="http://www.w3.org/1999/xlink" x="0px" y="0px"
	 viewBox="0 0 1800 625.9" style="enable-background:new 0 0 1800 625.9;" xml:space="preserve">
<style type="text/css">
	.st0{fill:#DB2239;}
	.st1{fill:#104A8E;}
</style>
<g>
	<g>
		<g>
			<polygon class="st0" points="1709.8,571.4 1737.2,585.3 1733.6,555.9 1757.4,535.1 1724.5,534.8 1709.8,504 1695.2,534.8 
				1662.3,535.1 1686.1,555.9 1682.5,585.3 			"/>
			<rect x="1120.5" y="542.7" class="st0" width="516.9" height="18.7"/>
		</g>
		<g>
			<path d="M73,525.3v50.2h-6.7v-50.2H45.6v-6.8h48.3v6.8H73z"/>
			<path d="M156.9,575.5c-2.1,0-4.6-1.6-5.5-3.6l-5.7-12.2c-0.9-2-3.5-3.6-5.7-3.6h-19.4c-2.2,0-4.8,1.6-5.7,3.6l-5.8,12.2
				c-0.9,2-3.4,3.6-5.4,3.6s-2.9-1.6-2-3.6l23.7-49.7c0.9-2,3.2-3.6,5.1-3.6s4.2,1.6,5.1,3.6l23.6,49.7
				C159.9,573.8,159,575.5,156.9,575.5z M132,530.8c-0.9-2-2.5-2-3.4,0l-7,14.8c-0.9,2,0.1,3.6,2.3,3.6h12.9c2.2,0,3.2-1.6,2.3-3.6
				L132,530.8z"/>
			<path d="M180,575.5c-2.2,0-5.2-1.3-6.8-2.9l-1.2-1.2c-1.5-1.6-2.8-4.7-2.8-6.9v-34.9c0-2.2,1.2-5.3,2.7-7l1-1.1
				c1.5-1.6,4.5-3,6.7-3h33.7c2.2,0,4,1.5,4,3.4c0,1.9-1.8,3.4-4,3.4h-30.7c-2.2,0-4.6,0.7-5.4,1.6c-0.8,0.9-1.4,3.4-1.4,5.6v29.7
				c0,2.2,0.5,4.6,1.2,5.3c0.7,0.7,3,1.3,5.2,1.3h31c2.2,0,4,1.5,4,3.4c0,1.9-1.8,3.4-4,3.4H180z"/>
			<path d="M254.5,525.3v50.2h-6.7v-50.2h-20.7v-6.8h48.3v6.8H254.5z"/>
			<path d="M291.5,575.5v-56.9h6.7v56.9H291.5z"/>
			<path d="M322.1,575.5c-2.2,0-5.2-1.3-6.8-2.9l-1.2-1.2c-1.5-1.6-2.8-4.7-2.8-6.9v-34.9c0-2.2,1.2-5.3,2.7-7l1-1.1
				c1.5-1.6,4.5-3,6.7-3h33.7c2.2,0,4,1.5,4,3.4c0,1.9-1.8,3.4-4,3.4h-30.7c-2.2,0-4.6,0.7-5.4,1.6s-1.4,3.4-1.4,5.6v29.7
				c0,2.2,0.5,4.6,1.2,5.3s3,1.3,5.2,1.3h31c2.2,0,4,1.5,4,3.4s-1.8,3.4-4,3.4H322.1z"/>
			<path d="M428.4,575.5c-2.1,0-4.6-1.6-5.5-3.6l-5.7-12.2c-0.9-2-3.5-3.6-5.7-3.6h-19.4c-2.2,0-4.8,1.6-5.7,3.6l-5.8,12.2
				c-0.9,2-3.4,3.6-5.4,3.6s-2.9-1.6-2-3.6l23.7-49.7c0.9-2,3.2-3.6,5.1-3.6s4.2,1.6,5.1,3.6l23.6,49.7
				C431.5,573.8,430.5,575.5,428.4,575.5z M403.6,530.8c-0.9-2-2.5-2-3.4,0l-7,14.8c-0.9,2,0.1,3.6,2.3,3.6h12.9
				c2.2,0,3.2-1.6,2.3-3.6L403.6,530.8z"/>
			<path d="M444.9,575.5v-56.9h6.6v50.2h35.8v6.7H444.9z"/>
		</g>
		<g>
			<path d="M706.8,572.5c-1.5,1.6-4.5,2.9-6.7,2.9h-28.3c-2.2,0-5.3-1.3-6.8-2.8l-1-1c-1.6-1.6-2.8-4.6-2.8-6.8v-42.2
				c0-2.2,1.5-4,3.3-4s3.3,1.8,3.3,4V562c0,2.2,0.6,4.6,1.4,5.3c0.8,0.7,3.2,1.3,5.4,1.3h22.4c2.2,0,4.6-0.7,5.4-1.5
				c0.8-0.8,1.4-3.3,1.4-5.5v-39.1c0-2.2,1.5-4,3.3-4s3.3,1.8,3.3,4v41.9c0,2.2-1.2,5.3-2.7,6.9L706.8,572.5z"/>
			<path d="M733.3,575.5v-56.9h6.7v56.9H733.3z"/>
			<path d="M806.9,521.3c-1.6-1.5-4.7-2.8-6.9-2.8h-33.3c-2.2,0-4,1.8-4,4v48.9c0,2.2,1.5,4,3.4,4s3.4-1.8,3.4-4v-17
				c0-2.2,1.8-4,4-4H800c2.2,0,5.3-1.3,6.8-2.8l1.2-1.2c1.5-1.6,2.8-4.6,2.8-6.8v-10.5c0-2.2-1.3-5.2-2.9-6.8L806.9,521.3z
				 M804.2,536.9c0,2.2-0.7,4.6-1.4,5.4s-3.2,1.4-5.4,1.4h-23.8c-2.2,0-4-1.8-4-4v-10.5c0-2.2,1.8-4,4-4h24c2.2,0,4.6,0.6,5.3,1.3
				c0.7,0.7,1.3,3.1,1.3,5.3V536.9z"/>
			<path d="M880.6,575.5c-1.9,0-3.4-1.8-3.4-4v-34.9c0-2.2-0.9-2.4-2-0.5l-17.7,31.3c-1.1,1.9-2.8,1.9-3.9,0l-17.3-31.5
				c-1.1-1.9-1.9-1.7-1.9,0.5v35.2c0,2.2-1.5,4-3.3,4s-3.3-1.8-3.3-4v-48.9c0-2.2,1.5-4,3.4-4s4.3,1.6,5.3,3.5l17.4,31.5
				c1.1,1.9,2.8,1.9,3.9,0l17.6-31.5c1.1-1.9,3.5-3.5,5.3-3.5s3.3,1.8,3.3,4v48.9C884,573.7,882.5,575.5,880.6,575.5z"/>
			<path d="M1018.2,575.5c-1.8,0-4.4-1.4-5.8-3.1l-32.3-39.7c-1.4-1.7-2.5-1.3-2.5,0.9v37.9c0,2.2-1.5,4-3.3,4s-3.3-1.8-3.3-4v-48.9
				c0-2.2,1.5-4,3.3-4s4.4,1.4,5.8,3.1l32.2,39.9c1.4,1.7,2.5,1.3,2.5-0.9v-38.1c0-2.2,1.5-4,3.3-4s3.3,1.8,3.3,4v48.9
				C1021.5,573.7,1020.1,575.5,1018.2,575.5z"/>
			<path d="M1065,525.3v50.2h-6.7v-50.2h-20.7v-6.8h48.3v6.8H1065z"/>
			<path d="M534.5,527.2v15.5h21v6.8h-21v17.2c0.8,1,1.9,1.7,3.2,1.9c0.3,0,0.5,0.1,0.8,0.1h27c0.3,0,0.5,0,0.8-0.1h8.3v6.9h-41.8
				c-2.8,0-5-2.3-5-5.1v-46.8c0-2.8,2.3-5.1,5-5.1h41.8v6.6h-36.1C536.8,525.2,535.4,525.9,534.5,527.2z"/>
			<path d="M639.6,522.6l-1.1-1.2c-1.5-1.6-4.5-2.9-6.7-2.9h-32.3c-2.2,0-5.2,1.3-6.7,2.9l-1,1c-1.5,1.6-2.7,4.7-2.7,6.9v35.1
				c0,2.2,1.3,5.3,2.8,6.9l1.2,1.3c1.5,1.6,4.6,2.9,6.8,2.9h21.3l0,0l4,6.5h7.6l-3.6-6.4l0-0.1h2.5c2.2,0,5.2-1.3,6.8-2.9l1.1-1.1
				c1.5-1.6,2.8-4.7,2.8-6.9v-35C642.3,527.3,641.1,524.2,639.6,522.6z M635.8,561.7c0,2.2-0.6,4.7-1.4,5.5
				c-0.8,0.8-3.2,1.5-5.4,1.5h-3.6l-4.7-8.4H613l4.7,8.5l-1.5,0h-13.6c-2.2,0-4.7-0.7-5.5-1.5c-0.8-0.8-1.5-3.3-1.5-5.5V532
				c0-2.2,0.6-4.6,1.3-5.4c0.7-0.8,3.1-1.4,5.3-1.4h26.6c2.2,0,4.7,0.6,5.5,1.4c0.8,0.8,1.5,3.2,1.5,5.4V561.7z"/>
			<path d="M912.3,527.2v15.5h21v6.8h-21v17.2c0.8,1,1.9,1.7,3.2,1.9c0.3,0,0.5,0.1,0.8,0.1h27c0.3,0,0.5,0,0.8-0.1h8.3v6.9h-41.8
				c-2.8,0-5-2.3-5-5.1v-46.8c0-2.8,2.3-5.1,5-5.1h41.8v6.6h-36.1C914.7,525.2,913.2,525.9,912.3,527.2z"/>
		</g>
	</g>
	<g>
		<g>
			<rect x="719.3" y="40.6" class="st1" width="104.6" height="422.9"/>
			<rect x="838.6" y="372.4" class="st1" width="130.4" height="91.2"/>
		</g>
		<rect x="998.3" y="40.6" class="st1" width="113.6" height="422.9"/>
		<g>
			<polygon class="st1" points="1690.4,201.3 1599.5,201.3 1599.5,40.6 1496.6,40.6 1496.6,463.5 1599.5,463.5 1599.5,283.1 
				1690.4,283.1 			"/>
			<rect x="1614.7" y="380.2" class="st1" width="144" height="83.4"/>
			<rect x="1614.7" y="40.6" class="st1" width="144" height="86.4"/>
		</g>
		<g>
			<path class="st1" d="M1452.5,117.9v81.8h-116.7v-64.4c0-10.5-8.5-18.9-18.9-18.9h-35.6V40.6h94
				C1417.9,40.6,1452.5,75.2,1452.5,117.9z"/>
			<path class="st1" d="M1452.5,314.1v72.1c0,42.7-34.6,77.3-77.3,77.3h-94v-75.8h35.6c10.5,0,18.9-8.5,18.9-18.9v-54.7H1452.5z"/>
			<path class="st1" d="M1264.5,40.6v422.9h-27.3c-42.7,0-77.3-34.6-77.3-77.3V117.9c0-42.7,34.6-77.3,77.3-77.3H1264.5z"/>
		</g>
		<path class="st1" d="M264.1,40.6H41.3v71.2h0.1c0,1-0.1,2-0.1,3V174h121.3v-48.8h47.6c6.4,0,11.5,5.2,11.5,11.5v99
			c0,6.4-5.2,11.5-11.5,11.5h-47.6v-55H41.3v271.3h121.3V328.6h101.6c41,0,74.3-33.3,74.3-74.3V114.9
			C338.4,73.9,305.1,40.6,264.1,40.6z"/>
		<g>
			<g>
				<path class="st1" d="M428.8,206.6c-6,0.2-11,6.5-9.7,12.4c0.2,0.7,0.4,1.4,0.9,1.9c1.2,1.3,3.5,0.9,5,0
					c4.2-2.5,5.9-8.4,3.8-12.8"/>
			</g>
			<g>
				<path class="st1" d="M411.8,240.8c-1.5,2.2-2.9,4.4-3.4,7c-0.5,2.6,0.3,5.5,2.4,7c2.5,1.8,6.4,0.9,8.2-1.6
					c1.8-2.5,1.5-6.2-0.3-8.7c-1.8-2.5-4.9-3.9-8-4"/>
			</g>
			<g>
				<path class="st1" d="M405.4,298.4c-0.1,0.9-0.3,2-1.1,2.6c-1.3,0.9-3-0.4-3.9-1.8c-2.1-3.6-2.3-8-1.3-12.1
					c1-3.9,2.9-7.5,4.9-11.1c1.3,2.6,2.1,5.5,2.4,8.4C406.8,289.1,406.1,293.8,405.4,298.4z"/>
			</g>
			<path class="st1" d="M573,229.7c-0.2,1.1-0.3,2.2-0.7,3.3c-0.1,0.2-0.3,0.7-0.5,0.7c-0.4,0.1-1.3-0.7-1.7-0.9
				c-1.8-1.2-3.5-2.7-5-4.2c-3.1-3.2-5.6-7.2-7.1-11.4c-0.7-2-1.8-4.7-0.9-6.8c1-2.3,4.2-1.8,6.2-1.5c0.5,0.1,1-0.1,1.3-0.4h0
				c3.4,0.3,6.3,3.1,7.8,6C574.7,219.1,573.9,224.8,573,229.7z"/>
			<path class="st1" d="M597.6,260.6c-0.8,2.2-1.7,4.3-2.6,6.5c-3.6,8.7-7.6,17.4-12.9,25.4c-4.1,6.2-9.4,12.4-16.7,15.9
				c4.7-7.4,9.2-14.9,12.6-22.8c1.9-4.5,3.4-9.2,5.4-13.7c1.9-4.4,4.3-8.6,7.1-12.6c1.1-1.7,2.4-3.7,4.4-4.6c1.6-0.7,3-0.2,3.3,1.3
				C598.5,257.5,598.1,259.2,597.6,260.6z"/>
			<path class="st1" d="M571.2,426.5c2.2,12.2,2,24.8-0.3,37h-94.8c2.7-17.1,8.4-33.6,14.1-50c2-5.8,4-11.6,7.3-16.7
				c7-10.9,19-17.8,31.6-21.1c12.5-3.3,25.6-3.5,38.6-3.6c1.9,0,4,0,5.3,1.4c1.1,1.1,1.3,2.9,1.5,4.5c0.5,8-0.3,16.1-2.3,23.8
				c-1,3.9-2.3,7.7-2.6,11.7C569.4,417.9,570.4,422.2,571.2,426.5z"/>
			<path class="st1" d="M661.9,112.6v79.3c-4.6,0.1-9.2-0.2-13.7-1c-1.1-2,1.3-4.1,3.5-4.9c2.1-0.8,4.8-1.6,5.2-3.8
				c0.3-1.7-0.8-2.9-2.4-3.7h-28.2c-5.7,1-11.3,2.4-16.7,4.4c-4.2,1.5-8.3,3.3-12.7,3.8c-4.4,0.5-9.3-0.7-12-4.2
				c-1.8-2.3-2.2-5.7-1.1-8.3h6.5v-4.3h-10.6c-12.9-1.6-26-1-38.7,1.8c-0.5,0.7-0.5,1.5,0,2.2v2.1l4.9,0.6c1.8,0.6,3.6,1.5,3.6,3.3
				c0,0.9-0.6,1.7-1.2,2.4c-4.2,4.8-11.1,7-17.3,5.5c-1.1-15.8,16.4-26.5,21-41.7c0.6-1.9,0.9-4,0.3-5.9c-0.7-1.9-2.3-3.3-4-4.4
				c-8.9-5.7-21.7-4.6-29.6-10.8V40.6H590C629.7,40.6,661.9,72.8,661.9,112.6z"/>
			<path class="st1" d="M502.9,40.6V125c-0.1,0-0.3,0-0.4,0c-6.9-1.2-14.1,0.2-20.2,3.6c-5.4,3.1-9.6,7.8-12.2,13.4
				c-1.3,2.9-2.2,6-2.6,9.1c-0.3,2.9,0,5.7,0,8.6c0,2.4-0.2,5.1-1.7,7.1c-1.9,2.5-4.9,2.6-7.8,2.6c-7.2,0-14.3,0-21.5,0.1
				c-0.9,5.3-6.3,8.3-10,11.8c-4.9,4.5-8.4,10.1-11.4,16c-2.8,5.6-5.2,11.3-7.6,17.1c-2.8,6.5-5.6,13.1-8.2,19.7
				c-5.1,12.9-9.4,26.1-12.5,39.6c-3.1,13.5-5.2,27.2-6.1,41c-0.5,6.6-1.1,13.6,1,20c1.5,4.5,4.7,8.5,9.2,10.1
				c0.4-6.9,0.8-13.8,1.2-20.7c0.1-2.2,0.2-5.3,2.8-6.2c1.3-0.5,2.6,0.1,3.7,0.7c1.4,0.8,2.9,1.6,4.3,2.4c8.9,5.3,17.9,12.9,18,24.2
				c0,2.5-0.5,4.9-1.5,7.1c-0.5,1.1-1.2,2.1-1.9,3c-0.8,1-1.8,2-2.2,3.2c-0.5,1.5,0.5,2.8,1.2,4.1c0.7,1.2,1.4,2.3,2,3.5
				c1.2,2.4,2.3,4.8,3.3,7.3c7.9,19.7,7.7,42.5-0.7,62c-1-0.2-2-0.4-3-0.7c-16-3.8-29.9-9.6-41.6-16.2c-3.3-8.3-5.2-17.4-5.2-26.9
				v-279c0-39.8,32.2-72,72-72H502.9z"/>
			<path class="st1" d="M573,229.7c-0.2,1.1-0.3,2.2-0.7,3.3c-0.1,0.2-0.3,0.7-0.5,0.7c-0.4,0.1-1.3-0.7-1.7-0.9
				c-1.8-1.2-3.5-2.7-5-4.2c-3.1-3.2-5.6-7.2-7.1-11.4c-0.7-2-1.8-4.7-0.9-6.8c1-2.3,4.2-1.8,6.2-1.5c0.5,0.1,1-0.1,1.3-0.4h0
				c3.4,0.3,6.3,3.1,7.8,6C574.7,219.1,573.9,224.8,573,229.7z"/>
			<path class="st1" d="M661.9,219.1v172.4c0,31.3-20,57.9-47.9,67.9c-1.2-3.3-2.9-6.4-5.1-9.1c-2.5-3.2-5.8-6.6-5.1-10.7
				c0.5-3,3.1-5.2,5.2-7.5c6.8-7.4,9.3-17.7,11.6-27.6c0.7-3.1,1.4-6.2,2.1-9.3c1.6-7.1,3.3-14.3,4.8-21.5c0.9,0.4,2.2,0,2.2-1.3
				c0.2-9.5,0.1-19.1-0.4-28.6c-0.2-4.8-0.5-9.5-0.9-14.3c-0.2-2-0.2-4.1-1.1-5.9c-0.9-1.7-2.6-2.9-4.2-4.1
				c-6.5-4.8-14.2-8.2-22.2-9.7c-4-0.8-8.1-1.1-12.1-1c-1.6,0-3.7,0.4-5.2-0.6c-1.5-1-1.2-3.2-0.5-4.6c0.9-1.9,2.4-3.4,3.7-5
				c1.2-1.6,2.4-3.3,3.4-5.1c2.1-3.5,3.9-7.2,5.4-10.9c1.6-3.8,2.9-7.7,4.2-11.6c0.6-2,1.2-4,1.8-5.9c0.6-2,1.4-4,1.6-6.1
				c0.2-2-0.6-3.6-1.8-5.1c-1.3-1.6-2.3-3-2.8-5c-0.4-1.8-0.3-3.8-0.1-5.6c0.2-1.9,0.2-4.3,1.1-6c0.8-1.6,2.5-2.5,3.8-3.5
				c1.4-1.1,2.7-2.3,4-3.6c2.2-2.1,4.6-4.8,7.8-5.2c2.5-0.3,6.6,0.9,7.7-2.4c0.4-1.3-0.6-2.9,0.9-3.6c1.6-0.7,3.5-0.4,5.1-0.4
				c9.6,0.1,19.1,0.3,28.7,0.4C659.2,219.1,660.6,219.1,661.9,219.1z"/>
			<g>
				<path class="st1" d="M567.4,278.2L567.4,278.2l-10.6,7.3l-3.6,2.4c0,0,0.7,6.6-4.1,13.4l2.5-3.2c-1.3,2-2.8,4-4.6,5.8
					c3.1-0.2,9.2-0.4,12.3-0.6c2-0.1,4.2-0.2,5.7-1.7c1.3-1.4,2.1-3.4,2.9-5.2c2.1-4.4,4.1-8.8,6.2-13.2c1.1-2.3,2.1-4.6,3.2-6.9
					c0.5-1.1,1-2.2,1.5-3.3c0.1-0.2,0.4-0.6,0.6-1.1C575.4,273.1,571.2,275.4,567.4,278.2z"/>
				<path class="st1" d="M547.1,303.9c0.8-0.9,1.5-1.7,2.1-2.6L547.1,303.9z"/>
			</g>
		</g>
	</g>
</g>
</svg>
