<?xml version="1.0" encoding="utf-8"?>
<!-- Generator: Adobe Illustrator 24.0.2, SVG Export Plug-In . SVG Version: 6.00 Build 0)  -->
<svg version="1.1" id="Capa_1" xmlns="http://www.w3.org/2000/svg" xmlns:xlink="http://www.w3.org/1999/xlink" x="0px" y="0px"
	 viewBox="0 0 1800 444" style="enable-background:new 0 0 1800 444;" xml:space="preserve">
<style type="text/css">
	.st0{fill:url(#SVGID_1_);}
</style>
<linearGradient id="SVGID_1_" gradientUnits="userSpaceOnUse" x1="119.2832" y1="222" x2="1680.7168" y2="222">
	<stop  offset="0" style="stop-color:#2A6254"/>
	<stop  offset="1" style="stop-color:#5B9F6D"/>
</linearGradient>
<path class="st0" d="M526.9,283.8c-16.2,14.7-37,22-62.6,22c-25.6,0-46.5-7.3-62.7-22c-16.3-14.7-24.4-34.9-24.4-60.8v-5.5
	c0-25.9,8.1-46.2,24.4-61.1c16.3-14.9,37.2-22.3,62.7-22.3c25.5,0,46.4,7.4,62.6,22.3c16.2,14.9,24.3,35.2,24.3,61.1v5.5
	C551.2,248.9,543.1,269.2,526.9,283.8z M440.2,255.6c6.6,7.2,14.6,10.8,24.1,10.8c9.5,0,17.5-3.6,24-10.8c6.5-7.2,9.8-16.1,9.8-26.7
	v-17.1c0-10.8-3.3-19.8-9.8-27c-6.5-7.2-14.5-10.8-24-10.8c-9.6,0-17.7,3.6-24.3,10.7c-6.5,7.1-9.8,16.2-9.8,27.2v17.1
	C430.3,239.4,433.6,248.3,440.2,255.6z M673.4,138c16.2,0,29.1,6,38.6,17.9c9.5,11.9,14.3,28.7,14.3,50.3v98.7h-49.4v-90.1
	c0-11.2-2.2-19.6-6.6-25.1c-4.4-5.5-10.1-8.2-17.3-8.2c-7,0-13.3,2.6-18.9,7.8c-5.6,5.2-9.6,11.5-11.9,18.8v96.8h-49.2V142.3h43.5
	l3.2,26C633.3,148.1,651.2,138,673.4,138z M1164.9,172.2c5.9-10,17-17.7,26.1-23.2c9.1-5.5,18.7-8,28.8-7.6v37.3
	c-12.9-1.4-23.7,3.4-32.6,10.8c-8.8,7.4-14.6,18.2-17.2,32.2v84h-44V143.2h38.9L1164.9,172.2z M354.3,131.4
	c-4.1-10.1-9.9-17.9-17.3-23.5c-7.4-5.6-15.6-9.7-24.5-12.2c-8.9-2.5-18.7-3.8-29.5-3.8h-87.8v213.8h48.1v-0.1h-0.2V184.1h0.2v-47.4
	h34.2c11.4,0,20.1,2.5,26,7.6c5.9,5.1,8.9,13.6,8.9,25.7v3.7c0,21.4-11.6,32.1-34.9,32.1h-26.8v44.9h33.7c13.8,0,26.3-2.6,37.5-7.9
	c11.2-5.3,20.4-14,27.7-26.1c7.3-12.1,10.9-26.9,10.9-44.4v-4.9C360.5,153.5,358.4,141.5,354.3,131.4z M1672.7,267.2
	c-20.9,7.6-25.2-8.7-25.9-18.9v-7.4v-157h-44.1v151.4c0,0-0.3,4.9,0,12c0.4,10.2,2,25,7.3,36c1.7,3.6,3.8,6.8,6.4,9.3l0,0
	c8.8,9.9,19.9,13,30.4,13c17.9,0,33.9-9,33.9-9L1672.7,267.2z M1578.1,225.4c0-14.1-2.2-26.7-6.5-37.7c-4.4-11-10.2-19.6-17.5-25.9
	c-7.3-6.3-15.3-11-24-14.1c-8.7-3.1-17.9-4.7-27.6-4.7c-15,0-28.5,2.9-40.6,8.7c-12.1,5.8-21.9,14.9-29.6,27.2
	c-7.6,12.4-11.5,27.2-11.5,44.4v5.3c0,24.7,7.8,44.2,23.5,58.4c7.8,7.1,16.5,11.5,26,14.2l0,0c0,0,68.9,22.4,101.8-35.3l-31.5-10.5
	c-5.1,10.9-17.9,16.9-33,16.9c-13.7,0-23.8-4.1-29.7-13.3c-5.4-6-8.7-13.5-9.8-22.6h110V225.4z M1468.4,209.3
	c1.1-10.6,4.8-18.9,10.8-24.9c6.1-6,13.7-9,22.9-9c9,0,16.4,2.9,21.9,8.8c5.6,5.9,8.9,14.2,9.9,25H1468.4z M869.1,143l-1.1,21.3
	c-13.8-15.8-30.3-25.4-49.3-25.4c-18.7,0-34.6,6.9-47.7,20.7c-13.1,13.8-19.7,33-19.7,57.7v3.8c0,13.4,2,25.3,6,35.6
	c4,10.4,9.3,18.7,16.1,25c5.2,4.8,10.7,8.7,16.7,11.7c1,0.3,53,13.7,79.6-17.3V292c0,11.3-4.1,19.3-9,25c-2.7,2.8-6,5.7-10,8.2l0,0
	c-27.4,15.5-65.4-7.2-71.3-11c0.1,0,0.3,0.1,0.4,0.1l-0.7-0.4l0,0c-0.3-0.2-0.4-0.3-0.4-0.3c0.1,0.2,0.1,0.3,0.2,0.5L757.4,335
	l-0.4,0.9c9,6.9,20.3,12.7,34,17.3c13.7,4.6,27.4,6.9,41.2,6.9c24.9,0,45.2-7.4,60.8-22.3c15.6-14.9,23.5-35.1,23.5-60.8V143H869.1z
	 M865.2,246.2c-8.6,10.8-18.4,16.3-29.3,16.3c-9,0-16.8-3.7-23.3-11.1c-6.6-7.4-9.9-17-9.9-28.8v-5.9c0-11.8,2.9-21.3,8.8-28.5
	c5.9-7.2,13.4-10.8,22.6-10.8c6.4,0,12.4,1.9,17.9,5.8c5.5,3.8,9.9,9,13.2,15.5V246.2z M1384.3,161.5c-13-13.8-28.7-20.7-47.2-20.7
	c-17.3,0-32.5,6.8-45.7,20.4V87.5h-50.8v217.4h44.3l1.7-23.1c0.1,0.1,0.2,0.2,0.3,0.3c0.5,3.9,5.4,24.9,47.4,24.3
	c19.2,0,35.5-6.8,49.1-20.4c13.6-13.6,20.4-33.4,20.4-59.4v-7.4C1403.8,194.5,1397.3,175.3,1384.3,161.5z M1353,228
	c0,11.8-3.3,21.4-9.8,28.8c-6.5,7.4-14.2,11.1-23.1,11.1c-10.8,0-20.4-5.3-28.7-16v-52.1c7.9-13.8,18.1-20.7,30.8-20.7
	c8.9,0,16.3,3.6,22.1,10.8c5.8,7.2,8.7,16.7,8.7,28.5V228z M161.3,93.9c-3.3,0-6.5,0.8-9.3,2.3l-30.6,14.1c-1.3,0.6-2.1,1.9-2.1,3.2
	c0,1.4,0.8,2.7,2.1,3.2l30.6,14.1c2.8,1.5,5.9,2.3,9.3,2.3c10.9,0,19.7-8.8,19.7-19.7S172.1,93.9,161.3,93.9z M1095.3,249.5v-29.6
	c0-17.6-3.6-32.3-10.8-44c-7.2-11.7-16.4-19.9-27.6-24.7c-11.2-4.8-24-7.2-38.6-7.2c-13.6,0-26.5,2.2-38.7,6.5
	c-12.2,4.3-22.3,10.7-30.1,19.1l18.2,25.3c5.1-4.6,11.6-8.4,19.4-11.5c3.6-1.4,7.2-2.5,10.8-3.2l0,0c0.1,0,0.1,0,0.2,0
	c3.4-0.7,6.8-1.1,10.3-1.3c14-1.1,23,1.6,28.6,5.4c0.5,0.3,10,7.2,10,22.6v6.5l-0.4-0.3c0,0.1,0,0.1,0,0.2
	c-11.3-5.4-24.5-8.1-39.6-8.1c-20.2,0.2-36.5,5-49,14.4c-12.5,9.4-18.7,21.5-18.7,36.2v2.6c0,14.4,5.8,25.8,17.5,34.4
	c11.6,8.5,26.2,12.8,43.8,12.8c21.5,0,38.3-12.2,50.4-26.6v0.3c0,0,2.7,22.5,35.1,25.7c1.7,0.2,3.5,0.4,5.3,0.4
	c1.7,0.1,3.5,0.1,5.4,0.1c0,0,0.1-0.8,0.1-0.8l0,0.8c4-0.1,4.8-0.4,9.5-1v-36.2C1106.3,268.4,1097.4,266.6,1095.3,249.5z
	 M1046.6,255c-3.3,5.6-7.8,10.1-13.7,13.5c-5.8,3.5-12.3,5.2-19.6,5.2c-7.2,0-13.3-1.8-18.2-5.3c-4.9-3.5-7.4-8.1-7.4-13.7v-1.4
	c0-6.3,2.7-11.6,8.1-15.7c5.4-4.1,12.6-6.2,21.6-6.2c10.7,0,20.3,2.7,29,8.1V255z"/>
</svg>
