<?xml version="1.0" encoding="utf-8"?>
<!-- Generator: Adobe Illustrator 24.0.2, SVG Export Plug-In . SVG Version: 6.00 Build 0)  -->
<svg version="1.1" id="Capa_1" xmlns="http://www.w3.org/2000/svg" xmlns:xlink="http://www.w3.org/1999/xlink" x="0px" y="0px"
	 viewBox="0 0 1800 909.8" style="enable-background:new 0 0 1800 909.8;" xml:space="preserve">
<style type="text/css">
	.st0{fill:#D21519;}
	.st1{fill:#3A579B;}
</style>
<g>
	<g>
		<path class="st0" d="M1195.4,376.7c-0.8,3.7-1.8,7.5-3,11.3c-8.2,24.9-26.3,50.2-51.1,73.9c-50.1,47.8-127.2,88.9-203.3,106.2
			c0,0,0,0,0,0c-2.4,0.5-4.8,1.1-7.2,1.6c-28.6,5.3-87.1,8.1-87.1,8.1H243l139.2-201H1195.4z"/>
		<path class="st1" d="M1194.4,228.7H484.6l122.5-177h280.5C1029.7,51.7,1150.4,125.6,1194.4,228.7z"/>
		<polygon class="st1" points="629.1,681.7 629.1,857.7 49.1,857.7 171,681.7 		"/>
	</g>
	<g>
		<path class="st0" d="M797.8,724.7c-5.9-5.9-14.1-9.6-23.2-9.6h-92.3v143h32.8v-53.6h59.5c18.1,0,32.8-14.7,32.8-32.8v-23.9
			C807.4,738.9,803.7,730.7,797.8,724.7z M771.1,768.8h-56v-17.9h56c6.5,0,11.9,4,11.9,8.9C783,764.8,777.7,768.8,771.1,768.8z"/>
		<polygon class="st0" points="1195.4,714.7 1195.4,750.4 1160.2,750.4 1160.2,857.7 1125,857.7 1125,750.4 1089.9,750.4 
			1089.9,714.7 		"/>
		<path class="st0" d="M910.2,714.7h-59.6c-19.2,0-34.7,15.5-34.7,34.7V823c0,19.2,15.5,34.7,34.7,34.7h59.6
			c19.2,0,34.7-15.5,34.7-34.7v-73.6C944.9,730.2,929.3,714.7,910.2,714.7z M916.4,762.3v15.9v15.9V810v4.6c0,6.2-5,11.3-11.3,11.3
			h-3.1h-14.4h-14.4H859h-3.1c-6.2,0-11.3-5-11.3-11.3V810v-15.9v-15.9v-15.9v-4.6c0-6.2,5-11.3,11.3-11.3h3.1h14.4h14.4h14.4h3.1
			c6.2,0,11.3,5,11.3,11.3V762.3z"/>
		<path class="st0" d="M1081.4,853.9l-10.8-14.2l-7.7-10.1l-5.9-7.7l-12.6-16.6l-1-1.3l-0.3-0.4h5c5.3,0,10.3-1.2,14.8-3.4
			c6.3-3.1,11.5-8,14.8-14.1c1.8-3.2,3-6.7,3.7-10.4v-33.1c-0.6-3.6-1.8-7-3.4-10c-3.3-6.3-8.6-11.4-15-14.5
			c-4.5-2.2-9.5-3.4-14.8-3.4h-96.1v143h37v-54h10.1l0.3,0.4l10,13.2l3.5,4.6l9.9,13l3.7,4.8l1.4,1.8l3.3,4.4l8.9,11.7h44
			L1081.4,853.9z M989,768.3v-17.9h55.4v0.4c5.2,1.1,8.9,4.5,8.9,8.6v0c0,4.1-3.8,7.5-8.9,8.6v0.4H989z"/>
		<path class="st0" d="M1411.9,714.7l-97.3,115.9l-0.7-0.9l-5.9-7.7l-12.6-16.6l-1-1.3l-0.3-0.4h5c5.3,0,10.3-1.2,14.8-3.4
			c6.3-3.1,11.5-8,14.8-14.1c1.8-3.2,3-6.7,3.7-10.4v-33.1c-0.6-3.6-1.8-7-3.4-10c-3.3-6.3-8.6-11.4-15-14.5
			c-4.5-2.2-9.5-3.4-14.8-3.4h-96.1v143h37v-54h10.1l0.3,0.4l10,13.2l3.5,4.6l9.9,13l3.7,4.8l1.4,1.8l3.3,4.4l8.9,11.7h0.7h43.3h4.1
			l72.6-86.5v86.5h39v-143H1411.9z M1240,768.3v-17.9h55.4v0.4c5.2,1.1,8.9,4.5,8.9,8.6v0c0,4.1-3.8,7.5-8.9,8.6v0.4H1240z"/>
		<polygon class="st0" points="1609.9,714.7 1609.9,857.7 1571,857.7 1569.9,856.3 1500.9,776.9 1500.9,857.7 1460.9,857.7 
			1460.9,714.7 1499.7,714.7 1500.9,715.9 1569.9,795.3 1569.9,714.7 		"/>
		<path class="st0" d="M1750.9,714.7v35.8h-87.6c-2.3,0-4.4,0.8-5.9,2.3c-1.8,1.6-3,4-3,6.7v0c0,2.7,1.2,5,3,6.7
			c1.6,1.4,3.7,2.3,5.9,2.3h59.9c11.8,0,22,7.4,25.9,17.9c1.2,3.1,1.8,6.4,1.8,9.9v33.9c0,15.3-12.4,27.7-27.7,27.7h-103.3v-35.8
			h84.6c4.9,0,8.9-4,8.9-8.9v0c0-4.9-4-8.9-8.9-8.9h-56.9c-11.8,0-22-7.4-25.9-17.9c-1.2-3.1-1.8-6.4-1.8-9.9v-33.9
			c0-15.3,12.4-27.7,27.7-27.7H1750.9z"/>
	</g>
</g>
</svg>
