<?xml version="1.0" encoding="utf-8"?>
<!-- Generator: Adobe Illustrator 24.0.2, SVG Export Plug-In . SVG Version: 6.00 Build 0)  -->
<svg version="1.1" id="Capa_1" xmlns="http://www.w3.org/2000/svg" xmlns:xlink="http://www.w3.org/1999/xlink" x="0px" y="0px"
	 viewBox="0 0 1800 252.1" style="enable-background:new 0 0 1800 252.1;" xml:space="preserve">
<style type="text/css">
	.st0{fill:#5896CC;}
</style>
<g>
	<g>
		<path class="st0" d="M1206.9,157.4c0.8,1.3,0.8,2.7,0.2,4.3c-0.5,0.5-0.9,1-1.5,1.6c-3.4,3.5-7.8,6.5-13.3,9
			c-0.6,0.3-1.3,0.5-1.9,0.8c-0.4,0.1-0.8,0.3-1.2,0.4c-4.8,1.7-10.5,2.5-16.9,2.5c-3,0-6.2-0.2-9.4-0.5c-3.2-0.4-6.4-1-9.5-1.8
			c-3.1-0.9-6.2-2-9.1-3.5c-2.9-1.5-5.6-3.4-8.1-5.6c-5-4.7-8.8-10.4-11.3-17.3c-2.6-6.8-3.9-13.9-3.9-21.2c0-7.6,1.2-14.4,3.7-20.6
			c2.5-6.2,5.9-11.4,10.4-15.7c4.5-4.3,9.8-7.7,16-10.1c6.2-2.4,13-3.6,20.4-3.6c5.3,0,10,0.6,14.2,1.8c0.9,0.3,1.8,0.5,2.6,0.8
			c0,0,0,0,0.1,0c1.1,0.4,2.2,0.8,3.3,1.2c0.1,0,0.1,0,0.2,0.1c1.8,0.7,3.5,1.5,5,2.3c3.2,1.8,5.9,3.7,8.1,5.9
			c0.7,0.7,1.3,1.3,1.9,2l0,0c0.8,1.6,0.8,3.1-0.1,4.5c-0.8,1.4-1.9,2.4-3.2,3c-1.9,0.9-3.5,1-4.8,0.3c-1.3-0.7-2.5-1.5-3.5-2.4
			c-4.7-4.3-9.4-6.9-14.7-8.2c0,0,0,0-0.1,0c-2.3-0.6-5.1-0.9-8.4-0.9c-3.8,0-7.9,0.6-12.2,1.8c-4.3,1.2-8.2,3.3-11.8,6.3
			c-3.6,3-6.6,7.1-9,12.3c-2.4,5.2-3.6,11.7-3.6,19.6s1.2,14.4,3.5,19.4c2.3,5,5.3,9,8.8,12c3.5,2.9,7.3,4.9,11.5,6
			c4.2,1.1,8,1.6,11.6,1.6c2.5,0,4.8-0.2,7-0.5c0.4-0.1,0.9-0.1,1.3-0.2c0.3-0.1,0.7-0.1,1.1-0.2c0.3-0.1,0.7-0.2,1-0.3
			c0.3-0.1,0.6-0.2,0.9-0.3c2.1-0.6,4-1.4,5.8-2.4c0.3-0.2,0.6-0.3,0.9-0.5c2.2-1.3,4.4-2.8,6.4-4.7c1-0.9,2.2-1.7,3.5-2.4
			c1.3-0.7,2.9-0.6,4.8,0.3C1205,155,1206,156,1206.9,157.4z"/>
		<path class="st0" d="M1240.2,165.3c0,2.3-0.1,4.2-0.2,5.5c-0.1,1.3-0.7,2.4-1.6,3.2c-0.5,0.4-1.1,0.9-1.9,1.4
			c-0.8,0.4-1.8,0.7-2.8,0.7c-0.8,0-1.6-0.2-2.5-0.5c-0.9-0.3-1.6-0.8-2.2-1.4c-0.9-0.9-1.4-2-1.6-3.3c-0.1-1.3-0.2-3.1-0.2-5.5
			V86.7c0-2.3,0.1-4.2,0.2-5.5c0.1-1.3,0.7-2.4,1.6-3.2c0.4-0.4,1.1-0.9,1.8-1.4c0.8-0.4,1.7-0.7,2.9-0.7c0.8,0,1.6,0.2,2.5,0.5
			c0.9,0.3,1.6,0.8,2.2,1.6c0.9,0.8,1.4,1.9,1.6,3.2c0.1,1.3,0.2,3.2,0.2,5.4V165.3z"/>
		<path class="st0" d="M1276,153.4l-5.4,14.6c-1,2.6-1.9,4.6-2.8,5.9c-0.9,1.4-2.4,2-4.7,2c-1.8,0-3.3-0.6-4.5-1.8
			c-1.2-1.2-1.8-2.5-1.8-3.8c0-1,0.2-2,0.5-3c0.3-1,0.8-2.2,1.4-3.8l30.6-76c0.7-1.9,1.4-3.6,2-5c0.6-1.4,1.3-2.6,2.1-3.6
			c0.8-0.9,1.7-1.7,2.7-2.2c1-0.5,2.3-0.7,3.8-0.7c1.3,0,2.5,0.2,3.6,0.7c1.2,0.5,2.1,1.1,2.8,2c0.7,0.7,1.5,2,2.2,3.7
			c0.8,1.8,1.5,3.4,2.1,4.9l31.7,75.6c0.7,1.7,1.2,3.1,1.6,4c0.3,1,0.5,2,0.5,3c0,1.3-0.6,2.6-1.8,3.9c-1.2,1.4-2.7,2-4.7,2
			c-2.3,0-3.8-0.7-4.7-2.1c-0.9-1.4-1.8-3.4-2.9-6.1l-5.6-14.3H1276z M1321.1,143L1300,90.8l-20.4,52.2H1321.1z"/>
	</g>
	<g>
		<path class="st0" d="M1450.5,163.9c1,0,2,0,3.1,0.1c1.1,0,2,0.2,2.9,0.5c0.9,0.3,1.6,0.8,2.2,1.6c0.6,0.7,0.9,1.8,0.9,3.1
			c0,1.3-0.3,2.4-0.8,3.1c-0.5,0.7-1.3,1.2-2.2,1.5c-0.9,0.3-1.9,0.4-2.9,0.5c-1,0-2.1,0.1-3.2,0.1h-43.1c-2.4,0-4.4-0.1-5.8-0.3
			c-1.4-0.2-2.5-0.7-3.2-1.4c-0.7-0.7-1.2-1.8-1.4-3.2c-0.2-1.4-0.3-3.4-0.3-5.8V86.7c0-2.3,0.1-4.2,0.2-5.5
			c0.1-1.3,0.6-2.4,1.4-3.2c0.4-0.4,1.1-0.9,1.9-1.4c0.8-0.4,1.8-0.7,2.8-0.7c2,0,3.6,0.7,4.9,2c0.9,0.8,1.4,1.9,1.6,3.2
			c0.1,1.3,0.2,3.2,0.2,5.4v77.2H1450.5z"/>
		<path class="st0" d="M1500.6,165.3c0,2.2-0.1,4-0.2,5.4c-0.1,1.4-0.7,2.6-1.6,3.4c-0.5,0.4-1.1,0.9-1.9,1.3
			c-0.8,0.4-1.8,0.6-2.8,0.6c-1.8,0-3.3-0.6-4.6-1.9c-1-0.8-1.6-1.9-1.7-3.3c-0.1-1.4-0.2-3.2-0.2-5.5V88.1h-21.9
			c-2,0-3.6-0.1-4.7-0.2c-1.2-0.1-2.1-0.6-2.8-1.3c-0.5-0.4-0.9-1-1.2-1.6c-0.4-0.6-0.5-1.3-0.5-2c0-0.6,0.2-1.3,0.5-2
			c0.3-0.7,0.7-1.2,1.1-1.7c0.7-0.8,1.7-1.3,2.9-1.4c1.2-0.1,2.8-0.2,4.8-0.2h56.8c2,0,3.6,0.1,4.7,0.2c1.2,0.1,2.1,0.6,2.8,1.4
			c0.4,0.5,0.9,1,1.2,1.6c0.4,0.6,0.5,1.3,0.5,2c0,0.6-0.2,1.3-0.5,2c-0.4,0.7-0.8,1.2-1.2,1.7c-0.7,0.7-1.7,1.1-2.8,1.3
			c-1.2,0.1-2.7,0.2-4.7,0.2h-22V165.3z"/>
		<path class="st0" d="M1560.9,174.3c-2.6,0-4.6-0.1-6.1-0.4c-1.5-0.3-2.6-0.9-3.3-1.8c-0.7-0.9-1.1-2.2-1.3-3.8
			c-0.1-1.6-0.2-3.8-0.2-6.5V88.5c0-2.4,0.1-4.4,0.3-5.8c0.2-1.4,0.7-2.5,1.5-3.2c0.8-0.7,1.9-1.2,3.3-1.4c1.4-0.2,3.4-0.3,5.8-0.3
			h23.4c2.6,0,5.4,0.1,8.3,0.3c2.9,0.2,5.9,0.7,8.9,1.5c3,0.8,6,2.1,8.9,3.8c3,1.8,5.7,4.2,8.3,7.4c4,4.9,6.8,10.4,8.3,16.5
			c1.5,6.1,2.3,12.4,2.3,18.8c0,3.2-0.2,6.6-0.7,10.4c-0.4,3.8-1.3,7.5-2.5,11.3c-1.2,3.7-2.9,7.3-5.1,10.8c-2.2,3.5-5.1,6.5-8.7,9
			c-2.3,1.6-4.7,2.9-7.2,3.8c-2.5,0.9-4.9,1.7-7.4,2.2c-2.5,0.5-4.8,0.8-7.1,0.9c-2.3,0.1-4.4,0.1-6.3,0.1H1560.9z M1562,163.9h21.2
			c3.3,0,6.2-0.1,8.9-0.4c2.6-0.3,5.1-0.8,7.2-1.5c2.2-0.7,4.2-1.7,6.1-2.9c1.9-1.2,3.7-2.8,5.4-4.8c2.1-2.3,3.7-5,4.8-7.9
			c1.1-2.9,1.9-5.8,2.5-8.5c0.5-2.7,0.8-5.2,0.9-7.3c0.1-2.1,0.1-3.5,0.1-4.1c0-6.5-0.8-12.2-2.5-17.1c-1.7-4.9-3.6-8.8-5.8-11.5
			c-1.5-1.9-3.2-3.5-4.8-4.7c-1.7-1.3-3.6-2.3-5.8-3c-2.2-0.8-4.7-1.3-7.6-1.6c-2.8-0.3-6.2-0.5-10-0.5H1562V163.9z"/>
		<path class="st0" d="M1658.3,152.4l-6.4,15.6c-1,2.6-1.9,4.6-2.8,5.9c-0.9,1.4-2.4,2-4.7,2c-1.8,0-3.3-0.6-4.5-1.8
			c-1.2-1.2-1.8-2.5-1.8-3.8c0-1,0.2-2,0.5-3c0.3-1,0.8-2.2,1.4-3.8l30.6-76c0.7-1.9,1.4-3.6,2-5c0.6-1.4,1.3-2.6,2.1-3.6
			c0.8-0.9,1.7-1.7,2.7-2.2c1-0.5,2.3-0.7,3.8-0.7c1.3,0,2.5,0.2,3.6,0.7c1.2,0.5,2.1,1.1,2.8,2c0.7,0.7,1.5,2,2.2,3.7
			c0.8,1.8,1.5,3.4,2.1,4.9L1724,163c0.7,1.7,1.2,3.1,1.6,4c0.3,1,0.5,2,0.5,3c0,1.3-0.6,2.6-1.8,3.9c-1.2,1.4-2.7,2-4.7,2
			c-2.3,0-3.8-0.7-4.7-2.1c-0.9-1.4-1.8-3.4-2.9-6.1l-6.6-15.3H1658.3z M1701.4,143l-20.1-52.2l-19.4,52.2H1701.4z"/>
	</g>
	<g>
		<path class="st0" d="M86.9,165.3c0,1.5,0,2.9-0.1,4.1c-0.1,1.2-0.4,2.3-0.8,3.3c-0.4,0.7-1.1,1.4-2.1,2.2c-1,0.7-2.2,1.1-3.4,1.1
			c-1.9,0-3.5-0.7-4.9-2c-0.8-0.8-1.3-1.9-1.4-3.4c-0.1-1.4-0.2-3.2-0.2-5.3V88.5c0-2.6,0.1-4.7,0.4-6.1c0.3-1.5,0.8-2.6,1.7-3.2
			c0.9-0.7,2.1-1.1,3.6-1.2c1.6-0.1,3.6-0.2,6.1-0.2h23c4,0,8,0.3,11.9,1c3.9,0.7,7.5,2.2,10.7,4.7c3.2,2.4,5.7,5.6,7.5,9.5
			c1.8,3.9,2.7,8.2,2.7,13c0,2.3-0.2,7.6-0.7,10c-0.5,2.4-1.3,4.7-2.4,6.9c-1.1,2.2-2.4,4.2-4.1,6.1c-1.7,1.8-3.6,3.4-5.8,4.5
			c-0.7,0.4-1.6,0.8-2.7,1.3c-1.1,0.5-2.4,1-4,1.5c-1.6,0.5-3.4,0.9-5.6,1.2c-2.1,0.3-4.7,0.5-7.5,0.5H86.9V165.3z M86.9,88.1v39.2
			h18.6c1.8,0,4-0.1,6.7-0.4c2.7-0.3,5.2-1,7.6-2.2s4.5-3,6.2-5.5c1.7-2.4,2.6-8.8,2.6-13.1c0-2.3-0.4-4.7-1.1-7
			c-0.8-2.3-2-4.3-3.6-6c-1.2-1.2-2.5-2.1-4-2.8c-1.5-0.7-3.1-1.2-4.8-1.6c-1.7-0.4-3.3-0.6-5-0.6c-1.7,0-3.2-0.1-4.5-0.1H86.9z"/>
		<path class="st0" d="M252.9,144c-1.8,6-4.8,11.3-8.9,16.1c-4.1,4.7-9.4,8.6-15.8,11.5c-6.5,2.9-14.3,4.4-23.5,4.4
			c-7.1,0-13.3-0.8-18.6-2.4c-5.3-1.6-9.9-3.7-13.7-6.3c-3.8-2.6-7-5.6-9.5-9c-2.5-3.4-4.5-7-6.1-10.7c-1.5-3.7-2.6-7.4-3.2-11.1
			c-0.6-3.7-0.9-7.2-0.9-10.5c0-5.2,0.8-10.8,2.3-16.6c1.6-5.8,4.3-11.3,8.3-16.2c3.9-4.9,9.2-9,15.8-12.3c6.6-3.2,15-4.9,25.2-4.9
			c9.7,0,17.8,1.6,24.4,4.7c6.6,3.1,11.8,7.1,15.8,11.9c3.9,4.9,6.8,10.2,8.5,16.1c1.7,5.9,2.6,11.6,2.6,17.2
			C255.7,132,254.8,138,252.9,144z M239.3,111.8c-1.2-4-2.8-7.5-4.9-10.5c-2-2.9-4.3-5.4-6.9-7.3c-2.6-1.9-5.3-3.5-8-4.6
			c-2.7-1.1-5.4-1.9-8.1-2.4c-2.6-0.4-5-0.7-7.2-0.7c-5.3,0-10.1,0.9-14.3,2.8c-4.3,1.8-8,4.2-11.1,7c-2.3,2-4.2,4.3-5.6,7
			c-1.4,2.7-2.6,5.4-3.4,8.3c-0.9,2.9-1.5,5.7-1.8,8.6c-0.3,2.8-0.5,5.4-0.5,7.6c0,5.9,1,11.3,2.9,15.9c1.9,4.7,4.6,8.6,7.9,11.9
			c3.4,3.2,7.3,5.7,11.7,7.5s9.2,2.6,14.2,2.6c2.1,0,4.5-0.2,7.2-0.7c2.6-0.4,5.3-1.2,8.1-2.4c2.7-1.1,5.4-2.7,8-4.6
			c2.6-1.9,4.9-4.4,6.9-7.3c2-2.9,3.7-6.4,4.9-10.5c1.2-4,1.8-8.8,1.8-14.2C241.1,120.6,240.5,115.9,239.3,111.8z"/>
		<path class="st0" d="M367.3,85c0.5-2.5,1.2-4.6,2-6.3c0.8-1.7,2.4-2.6,4.7-2.6c2,0,3.5,0.6,4.5,1.9c1,1.3,1.5,2.5,1.5,3.8
			c0,1-0.2,2.1-0.5,3.4c-0.3,1.3-0.5,2.2-0.6,2.6L359.5,165c-0.4,1.6-0.8,3.1-1.2,4.5c-0.4,1.4-0.9,2.5-1.5,3.4
			c-0.6,0.9-1.4,1.7-2.3,2.2c-0.9,0.5-2.1,0.8-3.5,0.8c-1.5,0-2.7-0.2-3.6-0.7c-0.9-0.5-1.7-1.2-2.3-2.1c-0.6-0.9-1.1-2-1.6-3.4
			c-0.4-1.4-0.9-2.8-1.3-4.5l-19.1-72.6l-19.1,72.6c-0.4,1.6-0.9,3.1-1.3,4.4c-0.4,1.3-1,2.4-1.6,3.4c-0.6,0.9-1.4,1.7-2.3,2.2
			c-0.9,0.5-2.1,0.7-3.6,0.7c-1.5,0-2.7-0.2-3.5-0.7c-0.9-0.5-1.6-1.2-2.2-2.2c-0.6-0.9-1.1-2.1-1.5-3.4c-0.4-1.4-0.8-2.9-1.2-4.6
			l-19.5-77.2c-0.1-0.4-0.3-1.2-0.6-2.6c-0.3-1.4-0.5-2.5-0.5-3.5c0-1.3,0.5-2.5,1.6-3.8c1-1.3,2.5-1.9,4.3-1.9c2.4,0,4,0.8,4.8,2.5
			c0.8,1.7,1.4,3.8,2,6.4l16.7,70.9l17.9-68.3c0.3-1.6,0.7-3.1,1.1-4.3c0.4-1.3,0.9-2.3,1.6-3.2c0.7-0.9,1.5-1.5,2.5-2
			c1-0.5,2.3-0.7,3.9-0.7c1.8,0,3.3,0.2,4.4,0.6c1.1,0.4,2,1,2.7,1.8c0.7,0.8,1.2,1.9,1.6,3.2c0.4,1.3,0.9,2.9,1.3,4.7l17.9,68.3
			L367.3,85z"/>
		<path class="st0" d="M410,119.1h37.3c1,0,2,0,3,0.1c1,0,2,0.2,2.8,0.5c0.8,0.3,1.5,0.8,2,1.6c0.5,0.7,0.8,1.7,0.8,3
			c0,1.3-0.3,2.4-0.8,3c-0.5,0.7-1.2,1.2-2,1.6c-0.8,0.4-1.7,0.6-2.8,0.6c-1,0-2,0.1-3,0.1H410v34.4h50.8c1,0,2,0,3,0.1
			c1,0,2,0.2,2.9,0.5c0.9,0.3,1.6,0.8,2.2,1.5s0.8,1.7,0.8,3c0,1.3-0.3,2.4-0.8,3.1c-0.5,0.7-1.2,1.2-2.1,1.6
			c-0.9,0.3-1.8,0.5-2.9,0.5c-1.1,0-2.1,0.1-3.1,0.1h-53c-1.4,0-2.7,0-3.6,0c-0.9,0-1.6-0.1-2.2-0.2c-0.6-0.1-1.1-0.3-1.6-0.6
			c-0.5-0.3-0.9-0.6-1.5-1.1c-1-0.9-1.6-1.9-1.7-3.1c-0.1-1.2-0.2-3.1-0.2-5.8V88.5c0-2.3,0-4.1,0.1-5.4c0.1-1.3,0.6-2.4,1.6-3.4
			c0.9-1,1.9-1.6,3-1.8c1.1-0.2,3.1-0.3,6-0.3h51.1c1,0,2,0,3,0.1c1,0,2,0.2,2.9,0.5c0.9,0.3,1.6,0.8,2.2,1.5c0.5,0.7,0.8,1.7,0.8,3
			c0,1.4-0.3,2.4-0.8,3.1c-0.5,0.7-1.2,1.2-2.1,1.6c-0.9,0.3-1.8,0.5-2.9,0.5c-1.1,0-2.1,0.1-3.1,0.1h-49V119.1z"/>
		<path class="st0" d="M500.1,165.2c0,2,0,3.4-0.1,4.3c-0.1,0.9-0.2,1.6-0.4,2.4c-0.4,1.4-1.1,2.5-2.2,3.2c-1.1,0.7-2.1,1-3.2,1
			c-1.1,0-2.2-0.4-3.2-1.1c-1-0.8-1.7-1.8-2.1-3c-0.2-0.6-0.3-1.6-0.3-2.9c0-1.3-0.1-2.5-0.1-3.7V88.5c0-2.4,0.1-4.4,0.3-5.8
			c0.2-1.4,0.6-2.5,1.3-3.2c0.6-0.7,1.6-1.2,2.9-1.4c1.3-0.2,3-0.3,5.1-0.3h27.3c0.3,0,1.1,0,2.4,0.1c1.3,0,2.7,0.2,4.4,0.4
			c1.6,0.2,3.3,0.6,5.1,1.1c1.8,0.5,3.4,1.3,4.8,2.3c3.4,2.3,6.1,5.4,8,9.3c1.9,3.9,2.9,8.2,2.9,13.1s-0.9,11.9-2.6,15.2
			c-1.7,3.2-3.4,5.6-5.2,7c-2.9,2.4-5.6,4-8.3,4.9c-2.7,0.8-4.9,1.4-6.7,1.8c1.1,0.7,2.5,1.7,4.2,3c1.7,1.3,3.3,3.1,4.9,5.5
			c0.9,1.3,1.8,2.7,2.9,4.4c1.1,1.7,1.8,2.8,2.1,3.3l7.7,11.7c0.9,1.7,1.6,3.1,2.1,4.1c0.5,1,0.9,1.9,1.2,2.6
			c0.3,0.7,0.5,1.2,0.5,1.6c0.1,0.4,0.1,0.9,0.1,1.4c0,1.8-0.5,3.2-1.6,4.2c-1.1,1-2.3,1.5-3.6,1.5c-0.9,0-1.6-0.1-2.3-0.4
			c-0.6-0.3-1.3-0.7-1.8-1.4c-0.6-0.7-1.2-1.6-1.8-2.7c-0.6-1.1-1.4-2.5-2.4-4.3l-8.1-11.6c-2.9-5.2-5.5-9.3-7.6-12.2
			c-2.1-2.9-4-5.1-5.8-6.5c-1.8-1.4-3.5-2.2-5.2-2.6c-1.7-0.3-3.6-0.5-5.7-0.5h-10V165.2z M500.1,87.7v35.9h20
			c1.4,0,3.2-0.1,5.6-0.3c2.4-0.2,4.8-0.8,7.1-1.8c2.4-1,4.4-2.7,6.2-4.9c1.8-2.2,2.6-8.5,2.6-12.7c0-5.2-1.8-9.4-5.5-12.6
			c-1-0.9-2.1-1.6-3.5-2.1c-1.4-0.5-2.8-0.9-4.2-1.1c-1.4-0.2-2.9-0.4-4.3-0.4c-1.4,0-2.7-0.1-3.7-0.1H500.1z"/>
		<path class="st0" d="M674.7,138.2c0,2.1,0.1,4.7,0.4,7.8c0.3,3.1,1.3,6.1,3,9c1.7,2.9,4.5,5.4,8.3,7.5c3.8,2.1,9.2,3.1,16.3,3.1
			c6.2,0,11.2-0.9,14.9-2.7c3.7-1.8,6.4-4.1,8.3-6.8c1.9-2.7,3.1-5.7,3.6-8.9c0.5-3.2,0.8-6.1,0.8-8.8V86.9c0-2.3,0.1-4.2,0.2-5.5
			c0.1-1.3,0.7-2.4,1.7-3.3c0.5-0.4,1.2-0.9,2.1-1.4c0.9-0.4,1.9-0.7,3.1-0.7c2.1,0,3.8,0.7,5.2,2c1,0.9,1.6,2,1.7,3.3
			c0.1,1.3,0.2,3.1,0.2,5.5v50.2c0,5-0.6,9.7-1.8,14.4c-1.2,4.6-3.3,8.8-6.3,12.4c-3,3.6-7.2,6.6-12.5,8.8
			c-5.3,2.2-12.1,3.3-20.3,3.3c-7.1,0-13.4-0.7-18.8-2c-5.4-1.3-9.9-3.6-13.5-6.6c-3.6-3.1-6.4-7.1-8.3-12c-1.9-4.9-2.8-11-2.8-18.1
			V86.9c0-2.3,0.1-4.2,0.2-5.5c0.1-1.3,0.7-2.4,1.7-3.3c0.5-0.4,1.2-0.9,2.1-1.4c0.9-0.4,1.9-0.7,3.1-0.7c2.1,0,3.8,0.7,5.2,2
			c1,0.9,1.6,2,1.7,3.3c0.1,1.3,0.2,3.1,0.2,5.5V138.2z"/>
		<path class="st0" d="M987.5,163.9c1,0,2,0,3.1,0.1c1.1,0,2,0.2,2.9,0.5c0.9,0.3,1.6,0.8,2.2,1.6c0.6,0.7,0.9,1.8,0.9,3.1
			c0,1.3-0.3,2.4-0.8,3.1c-0.5,0.7-1.3,1.2-2.2,1.5c-0.9,0.3-1.9,0.4-2.9,0.5c-1,0-2.1,0.1-3.2,0.1h-43.1c-2.4,0-4.4-0.1-5.8-0.3
			c-1.4-0.2-2.5-0.7-3.2-1.4c-0.7-0.7-1.2-1.8-1.4-3.2c-0.2-1.4-0.3-3.4-0.3-5.8V86.7c0-2.3,0.1-4.2,0.2-5.5
			c0.1-1.3,0.6-2.4,1.4-3.2c0.4-0.4,1.1-0.9,1.9-1.4c0.8-0.4,1.8-0.7,2.8-0.7c2,0,3.6,0.7,4.9,2c0.9,0.8,1.4,1.9,1.6,3.2
			c0.1,1.3,0.2,3.2,0.2,5.4v77.2H987.5z"/>
		<path class="st0" d="M993.6,89.7c-1.8-2.7-2.9-4.5-3.2-5.5c-0.3-0.9-0.5-1.7-0.5-2.2c0-1.4,0.6-2.8,1.7-4c1.2-1.3,2.8-1.9,5-1.9
			c0.9,0,1.6,0.1,2.2,0.3c0.6,0.2,1.2,0.6,1.8,1.1s1.2,1.3,1.8,2.2c0.6,0.9,1.4,2.1,2.4,3.5l25.8,38.2l26.5-38.6
			c1-1.3,1.8-2.5,2.4-3.4c0.6-0.9,1.2-1.6,1.8-2.1c0.6-0.5,1.2-0.8,1.7-1c0.6-0.2,1.3-0.3,2.2-0.3c1.7,0,3.2,0.5,4.5,1.6
			c1.2,1.1,1.9,2.4,1.9,4c0,1.2-0.3,2.3-1,3.4c-0.7,1.1-1.5,2.4-2.6,3.8l-30.9,43.9v32.4c0,2.2-0.1,4-0.2,5.4
			c-0.1,1.4-0.7,2.6-1.8,3.4c-1.3,1.3-3,1.9-4.9,1.9c-1.8,0-3.5-0.6-5-1.9c-1-0.8-1.5-1.9-1.7-3.4c-0.1-1.4-0.2-3.2-0.2-5.4v-32.4
			L993.6,89.7z"/>
		<path class="st0" d="M782.7,165.3c0,1.5,0,2.9-0.1,4.1c-0.1,1.2-0.4,2.3-0.8,3.3c-0.4,0.7-1.1,1.4-2.1,2.2c-1,0.7-2.2,1.1-3.4,1.1
			c-1.9,0-3.5-0.7-4.9-2c-0.8-0.8-1.3-1.9-1.4-3.4c-0.1-1.4-0.2-3.2-0.2-5.3V88.5c0-2.6,0.1-4.7,0.4-6.1c0.3-1.5,0.8-2.6,1.7-3.2
			c0.9-0.7,2.1-1.1,3.6-1.2c1.6-0.1,3.6-0.2,6.1-0.2h23c4,0,8,0.3,11.9,1c3.9,0.7,7.5,2.2,10.7,4.7c3.2,2.4,5.7,5.6,7.5,9.5
			c1.8,3.9,2.7,8.2,2.7,13c0,2.3-0.2,7.6-0.7,10c-0.5,2.4-1.3,4.7-2.4,6.9c-1.1,2.2-2.4,4.2-4.1,6.1c-1.7,1.8-3.6,3.4-5.8,4.5
			c-0.7,0.4-1.6,0.8-2.7,1.3c-1.1,0.5-2.4,1-4,1.5c-1.6,0.5-3.4,0.9-5.6,1.2c-2.1,0.3-4.7,0.5-7.5,0.5h-21.9V165.3z M782.7,88.1
			v39.2h18.6c1.8,0,4-0.1,6.7-0.4c2.7-0.3,5.2-1,7.6-2.2s4.5-3,6.2-5.5c1.7-2.4,2.6-8.8,2.6-13.1c0-2.3-0.4-4.7-1.1-7
			c-0.8-2.3-2-4.3-3.6-6c-1.2-1.2-2.5-2.1-4-2.8c-1.5-0.7-3.1-1.2-4.8-1.6c-1.7-0.4-3.3-0.6-5-0.6c-1.7,0-3.2-0.1-4.5-0.1H782.7z"/>
		<path class="st0" d="M864.7,165.3c0,1.5,0,2.9-0.1,4.1c-0.1,1.2-0.4,2.3-0.8,3.3c-0.4,0.7-1.1,1.4-2.1,2.2c-1,0.7-2.2,1.1-3.4,1.1
			c-1.9,0-3.5-0.7-4.9-2c-0.8-0.8-1.3-1.9-1.4-3.4c-0.1-1.4-0.2-3.2-0.2-5.3V88.5c0-2.6,0.1-4.7,0.4-6.1c0.3-1.5,0.8-2.6,1.7-3.2
			c0.9-0.7,2.1-1.1,3.6-1.2c1.6-0.1,3.6-0.2,6.1-0.2h23c4,0,8,0.3,11.9,1c3.9,0.7,7.5,2.2,10.7,4.7c3.2,2.4,5.7,5.6,7.5,9.5
			c1.8,3.9,2.7,8.2,2.7,13c0,2.3-0.2,7.6-0.7,10c-0.5,2.4-1.3,4.7-2.4,6.9c-1.1,2.2-2.4,4.2-4.1,6.1c-1.7,1.8-3.6,3.4-5.8,4.5
			c-0.7,0.4-1.6,0.8-2.7,1.3c-1.1,0.5-2.4,1-4,1.5c-1.6,0.5-3.4,0.9-5.6,1.2c-2.1,0.3-4.7,0.5-7.5,0.5h-21.9V165.3z M864.7,88.1
			v39.2h18.6c1.8,0,4-0.1,6.7-0.4c2.7-0.3,5.2-1,7.6-2.2s4.5-3,6.2-5.5c1.7-2.4,2.6-8.8,2.6-13.1c0-2.3-0.4-4.7-1.1-7
			c-0.8-2.3-2-4.3-3.6-6c-1.2-1.2-2.5-2.1-4-2.8c-1.5-0.7-3.1-1.2-4.8-1.6c-1.7-0.4-3.3-0.6-5-0.6c-1.7,0-3.2-0.1-4.5-0.1H864.7z"/>
		<path class="st0" d="M640.6,141.6c-0.4-1.8-1-3.5-1.8-5.2c-0.8-1.7-1.8-3.3-3.1-4.9c-1.3-1.6-2.7-2.9-4.3-4
			c-1.4-0.9-3-1.8-4.6-2.6c-1.6-0.8-3.6-1.6-5.9-2.4c-2.3-0.8-5-1.5-8.2-2.3c-3.2-0.8-5-1.6-9.4-2.6c-2.7-0.5-3.4-1.2-6.3-1.9
			c-2.9-0.7-4.5-1.7-6.9-2.9c-2.3-1.2-4.3-2.8-5.8-4.6c-1.5-1.8-2.3-4.2-2.3-7.1c0-2,0.5-3.9,1.5-5.7c1-1.8,2.5-3.5,4.5-4.9
			c2-1.4,4.4-2.5,7.2-3.4c2.8-0.9,6-1.3,9.5-1.3c1.7,0,3.4,0.1,5,0.3c0,0,0.1,0,0.1,0c2.7,0.3,4.6,0.5,6.6,1.5c0,0,0,0,0,0
			c2.3,1.2,4.8,2.4,6.1,3.9c1.4,1.5,2.4,2.7,3,3.7c0.5,0.6,0.9,1.1,1.3,1.7c1.5,1.8,2.7,3.1,3.6,3.9c1.2,1,2.7,1.2,4.7,0.7
			c1.8-0.5,3.1-1.4,4-2.8c0.9-1.4,1.1-2.8,0.8-4.2c-0.8-2.8-2.3-4.7-4.9-7.6c-2.6-3-4.5-4.8-8.2-6.7c-0.1-0.1-0.2-0.1-0.3-0.2
			c-1.1-0.5-2.2-0.9-3.3-1.3c-0.4-0.1-0.8-0.2-1.1-0.4c-0.3-0.1-0.6-0.2-0.9-0.3c-0.2-0.1-0.5-0.1-0.7-0.2c-0.7-0.2-1.4-0.3-2-0.5
			c-0.3-0.1-0.6-0.1-0.9-0.2c-0.3-0.1-0.5-0.1-0.8-0.2c-0.9-0.2-1.8-0.3-2.7-0.4c-3.1-0.4-6.1-0.6-8.9-0.6c-4.9,0-9.6,0.5-14.1,1.6
			c-4.5,1.1-8.5,2.7-11.9,4.9c-3.4,2.2-6.1,5-8.2,8.3c-2,3.3-3,7.2-3,11.6c0,2.6,0.4,4.9,1.1,7c0.7,2,1.6,3.8,2.6,5.4
			c1,1.6,2.1,2.9,3.4,4c1.2,1.1,2.3,1.9,3.2,2.6c1.6,1.2,3.3,2.1,5,2.9c1.7,0.8,3.7,1.5,6,2.2c2.3,0.7,3.2,1.4,6.5,2.1
			c3.3,0.7,6.5,1.6,11.6,2.6c1.9,0.4,2.1,0.9,4.6,1.5c2.5,0.6,4.9,1.6,7.2,2.8c2.3,1.3,4.2,2.9,5.8,4.9c1.6,2,2.4,4.6,2.4,7.8
			c0,3-0.8,5.6-2.4,7.8c-1.6,2.3-3.6,4.1-6.2,5.7c-2.5,1.5-3.4,2.7-6.7,3.4c-3.3,0.8-3.6,1.2-6.9,1.2c-4.9,0-8.9-0.6-12-1.8
			c-3.2-1.2-5.7-2.7-7.6-4.4c-0.7-0.6-1.3-1.2-1.8-1.8c-0.9-1-1.6-2-2.2-3c-0.2-0.3-0.3-0.5-0.5-0.7c-1.9-2.8-3.4-4.8-4.5-5.9
			c-1.1-1.1-2.6-1.4-4.6-1c-1.8,0.4-3.2,1.2-4.2,2.5c-1,1.3-1.3,2.7-1.1,4.1c0,0.2,0.1,0.5,0.2,0.7c0.3,0.7,0.6,1.4,1,2.2
			c0.5,1,1,2,1.7,3c0,0,0,0,0,0c0.5,0.7,1,1.4,1.6,2.1c2.4,3.2,5.3,5.8,8.8,8c0.3,0.2,0.6,0.4,0.9,0.5c0.1,0,0.1,0.1,0.2,0.1
			c0.3,0.1,0.5,0.3,0.8,0.4c1.5,0.7,3.1,1.4,4.7,1.9c0,0,0,0,0,0c1,0.4,2.1,0.7,3.2,1c2.8,0.7,5.5,1.2,8.2,1.5
			c2.8,0.3,5.4,0.4,8.1,0.4c6.6,0,7.4,0.2,12.5-1.4c5-1.6,9.2-4.7,12.6-7.4c3.4-2.7,5.9-5.9,7.6-9.5c1.7-3.6,2.6-7.4,2.6-11.5
			C641.2,145,641,143.4,640.6,141.6z"/>
	</g>
</g>
</svg>
