<?xml version="1.0" encoding="utf-8"?>
<!-- Generator: Adobe Illustrator 24.0.2, SVG Export Plug-In . SVG Version: 6.00 Build 0)  -->
<svg version="1.1" id="Layer_1" xmlns="http://www.w3.org/2000/svg" xmlns:xlink="http://www.w3.org/1999/xlink" x="0px" y="0px"
	 viewBox="0 0 595.3 387" style="enable-background:new 0 0 595.3 387;" xml:space="preserve">
<style type="text/css">
	.st0{fill:#FFFFFF;}
	.st1{fill:#E42313;}
	.st2{fill:none;stroke:#FFFFFF;stroke-width:0.679;stroke-linecap:round;stroke-linejoin:round;}
	.st3{fill:#80BA27;}
	.st4{fill:#4DA32F;}
</style>
<g>
	<path class="st0" d="M96.4,115.1c-13.4,1.9-16.3,7.3-14.5,20.7l23.2,175.7c1.8,13.4,7.3,17.4,20.7,15.5L496.3,275
		c13.4-1.9,17.7-8.1,17.5-21.7l-3.2-177.8c-0.3-13.5-5.4-17.4-18.8-15.5L96.4,115.1z"/>
	<path class="st1" d="M130.2,321.3c-13.4,1.9-18.9-2.1-20.7-15.5L87.7,140.2c-1.8-13.4,1.1-18.9,14.5-20.7l384.7-53.7
		c13.4-1.9,18.5,2,18.7,15.5l3,167.6c0.3,13.5-4.1,19.8-17.5,21.7L130.2,321.3z"/>
	<path class="st0" d="M133.5,191.8c1.3,0.1,2.2,0.2,5,0.2c4,0,12.5,0,12.5-9.6c0-7.3-3.9-10.2-12-10.2h-2c-3.2,0-3.4,1.7-3.4,3.6
		V191.8z M133.5,213.5c0,1.9-1.5,3.5-3.5,3.5h-4.1c-1.9,0-3.5-1.5-3.5-3.5v-43.7c0-1.9,1.6-3.5,3.5-3.6c0,0,8.9-0.3,15-0.3
		c5.4,0,12.2,0.3,17,4.6c2.9,2.6,4.7,6.7,4.7,11.4c0,6.1-3.3,10.2-6.9,12.7c-5.5,3.8-13.6,3.8-16.7,3.8h-2.1
		c-1.9-0.1-3.4,1.4-3.4,3.3V213.5z"/>
	<path class="st0" d="M177.8,189.9c5.8,0.1,7.7,0.2,10.6-0.2c5.3-0.9,7.4-4.4,7.4-9.1c0-5.3-2.7-8.5-11.4-8.5h-3
		c-3,0-3.5,1.6-3.5,3.5V189.9z M177.8,213.5c0,1.9-1.6,3.5-3.5,3.5h-4.1c-1.9,0-3.5-1.5-3.5-3.5v-43.7c0-1.9,1.6-3.5,3.5-3.6
		c0,0,13.6-0.3,15.3-0.3c8.7,0,13.3,0.6,17.4,4c3.7,3.1,4.5,6.9,4.5,10c0,6-3.5,11.2-11.9,13.6c4.6,9.9,9.5,16.2,12.6,17.9
		c2.2,1.2,4.7,1.1,5.7,1.2c0.6,0.1-0.3,3.9-1,4.3c-1.2,0.6-3.6,0.9-5.8,0.9c-10.8,0-15.6-7.9-22.5-22.4c-2.4,0.2-3.2,0.2-3.2,0.2
		c-1.9,0-3.5,1.5-3.5,3.4V213.5z"/>
	<path class="st0" d="M223.6,191c0,12.6,8.3,19.9,17.6,19.9c6.1,0,16.1-4,16.1-18.4c0-12.7-8.3-20.1-17.5-20.1
		C229,172.4,223.6,181.2,223.6,191 M260.8,171.4c3.3,2.7,8.8,8.8,8.8,19.8c0,18.2-14.9,26.7-30.1,26.7c-20.4,0-28.2-14-28.2-26
		c0-9,3.9-15.3,9.8-19.9c7-5.6,14.2-6.7,21.3-6.7C244.2,165.3,253.9,165.8,260.8,171.4"/>
	<path class="st0" d="M277.9,165.7c-2.2,0-4.1,1.8-4.1,4.1l-0.2,43.6c0,1.1,0.4,2.2,1.2,2.9c0.8,0.8,1.8,1.2,2.9,1.2h2.5
		c1.1,0,2.1-0.4,2.9-1.2c0.7-0.8,1.2-1.8,1.1-2.9l-0.5-26.4c0-0.4,0-0.8,0-1.2c0-0.8-0.1-2.2,0-2.5c0,0-0.1,0.1-0.2,0.1
		c-0.1,0-0.2,0-0.2,0c0,0,0.1,0.1,0.2,0.2l29.4,32.2c1.5,1.6,4.2,2.4,6.2,1.9c2.1-0.5,3.7-2.7,3.7-4.9l0.1-43.1
		c0-1.1-0.4-2.2-1.2-2.9c-0.8-0.8-1.8-1.2-2.9-1.2h-2.5c-1.1,0-2.1,0.4-2.9,1.2c-0.7,0.7-1.2,1.8-1.2,2.9l0.5,25
		c0,0.3,0,0.7,0.1,1.1c0,1,0.1,2.9-0.1,3.2c0.1-0.1,0.3-0.2,0.4-0.1c0,0,0,0-0.1-0.1l-27.7-30.4l-0.2-0.3c-1.2-1.3-2.3-2.6-6.1-2.5
		H277.9z"/>
	<path class="st0" d="M402.5,171.9c-7.9,0-14.5,6.3-14.5,17.8c0,14,8.5,21.8,18.5,21.8c5.5,0,9.1-2.1,10.5-2.9
		c1.7-1,2.1-1.3,3.2-1.3c1.4,0,2.7,1,2.7,2.3c0,3.1-6.7,9.2-19.2,9.2c-19.4,0-28.1-12.9-28.1-26.7c0-14.3,10.1-26.1,27.9-26.1
		c12.6,0,20.2,6.2,20.2,10.4c0,2.4-2.3,4.2-5.2,4.2c-2.2,0-3.5-0.8-4.6-2.2C411.3,175.3,408.7,171.9,402.5,171.9"/>
	<path class="st2" d="M402.5,171.9c-7.9,0-14.5,6.3-14.5,17.8c0,14,8.5,21.8,18.5,21.8c5.5,0,9.1-2.1,10.5-2.9
		c1.7-1,2.1-1.3,3.2-1.3c1.4,0,2.7,1,2.7,2.3c0,3.1-6.7,9.2-19.2,9.2c-19.4,0-28.1-12.9-28.1-26.7c0-14.3,10.1-26.1,27.9-26.1
		c12.6,0,20.2,6.2,20.2,10.4c0,2.4-2.3,4.2-5.2,4.2c-2.2,0-3.5-0.8-4.6-2.2C411.3,175.3,408.7,171.9,402.5,171.9z"/>
	<path class="st0" d="M456.5,195.6H449c-1.9,0-2.2-1.5-1.5-3.3l4.4-11.8c0.7-1.8,1.4-1.8,2,0l4.9,11.7
		C459.8,194.6,458.5,195.6,456.5,195.6 M435.9,212.2c-2.7,5.8-13,18.4-33.3,18.5c-21.4,0.1-32.8-18.6-32.8-18.6
		c-0.6-0.7-0.6-1.7,0-2.3c0.7-0.7,1.7-0.6,2.2,0c3.9,4.4,12.4,17.4,30.5,17.4c18.5,0,28.7-13.4,30.8-17c0.5-0.7,1.5-0.9,2.2-0.3
		C436.3,210.4,436.3,211.4,435.9,212.2 M355,195.6h-7.6c-1.9,0-2.2-1.5-1.4-3.3l4.3-11.8c0.7-1.8,1.4-1.8,2.1,0l4.9,11.7
		C358.3,194.6,357,195.6,355,195.6 M479.1,213.7l-19.9-44.8c-0.8-1.8-3-3.3-4.9-3.3h-1.3c-2,0-4.3,1.5-5.1,3.2L431.9,205
		c-4.2,9.5-13.1,18.3-29.2,18.3c-17.7,0-26.7-13.5-29.1-18.1l-15.9-36.3c-0.8-1.8-2.9-3.3-4.9-3.3h-1.3c-1.9,0-4.2,1.5-5,3.2
		l-20.1,45c-0.8,1.8,0.1,3.2,2,3.2h4.1c1.9,0,3.9-0.5,4.8-3.2l3.5-8.8c0.7-1.8,2.9-3.3,4.9-3.3h11.6c1.9,0,4.1,1.5,4.8,3.3
		c0,0,10.8,28.2,39.9,28.4c31.2,0.3,40.3-28.4,40.3-28.4c0.7-1.8,2.9-3.3,4.8-3.3h11.6c1.9,0,4.1,1.5,4.8,3.3l3.2,8.7
		c0.9,2.8,2.8,3.3,4.8,3.3h5.3C478.9,216.9,479.9,215.5,479.1,213.7"/>
	<path class="st3" d="M429.6,172.3c-5.9-7-9.7-26.6,1.3-37.8c13-13.2,38-14,42.6-34.1c0.4,5.1,0.6,9.5-1.2,14.3
		c-4.3,17.9-28.6,50.2-20.8,18C428.2,145.8,429.6,172.3,429.6,172.3"/>
	<path class="st4" d="M468,117c6.1-7.9,5.5-16.7,5.5-16.7c2.9,10.4,2.6,33.1-10.6,49.4c-13.9,17.2-25.8,13.6-29.5,35
		c-4.6-16.7-0.7-31.7,10.8-46.3C450.8,130,460.1,127.4,468,117"/>
	<path class="st3" d="M467.4,136.1c0,0-2.6,10.3-11.5,18.5c-8.8,8-12,8.4-12,8.4s5.1-3.9,11.4-10.4
		C463.3,144.5,467.4,136.1,467.4,136.1"/>
</g>
</svg>
