<?xml version="1.0" encoding="utf-8"?>
<!-- Generator: Adobe Illustrator 24.0.2, SVG Export Plug-In . SVG Version: 6.00 Build 0)  -->
<svg version="1.1" id="Capa_2" xmlns="http://www.w3.org/2000/svg" xmlns:xlink="http://www.w3.org/1999/xlink" x="0px" y="0px"
	 viewBox="0 0 1800 1800" style="enable-background:new 0 0 1800 1800;" xml:space="preserve">
<style type="text/css">
	.st0{fill:#FFFFFF;stroke:#000000;stroke-miterlimit:10;}
	.st1{fill:#FFFFFF;}
	.st2{fill:#EC7914;}
</style>
<g>
	<g>
		<path d="M477.5,423.7l-74.3-47.1l-19,28.1l73,46.2c17.8,11.5,27.9,28.2,19.4,41.4c-4.3,6.7-9.4,11.9-13.4,15.2l11.6,11.8
			c5-4,12.2-12.1,17-19.5C509.1,473.1,511.8,446,477.5,423.7z"/>
		<path d="M1402.1,422.2c-11.9-15.4-25.9-27.7-37.7-34.5l-6.7,10.7c9.9,5.9,21.1,15.9,29.6,27.2c19.5,25.9,7.7,36.1,0.1,40l-1.9,1
			c-34.1-47.9-62.2-66.1-81.1-54.8c-11,6.6-14.4,24.4,0.4,47.9c10.9,17.3,25.3,27.7,36.5,31.4l0.5,0.8l-9.5,7.3l13.9,21.9
			c4.9-4.6,12-8.8,19.7-12.6l34.5-16.9C1419.9,482.3,1432.8,461.9,1402.1,422.2z M1359,480.9c-1.6,0.8-3.8,1.2-5.9,1.3
			c-9.8,0.1-23.5-6.7-33.9-22.7c-7.2-11.1-8.7-22.7,0.6-28.1c15.7-9,37.5,16.3,54.7,41.6L1359,480.9z"/>
		<path d="M634,288.6c-4-12.9,2.5-28.4,19-39.5c3.2-2.1,5.7-3.6,8.3-4.9l-9.1-13.5c-2.3,1.1-4.3,2.2-7,4
			c-15.7,10.6-25.3,26.7-24,41.2l-1.1,0.7L609,261.8l-20.4,13.8c5.7,6.8,11.3,14.5,17.6,23.8l36.4,54l23.1-15.6l-28.2-41.8
			C635.8,293.5,634.8,290.9,634,288.6z"/>
		<path d="M791.7,147.3l-23.7,5l8.7,41.5l4.2,19.9c-10.5-8.2-27.6-12.1-47.4-7.9c-29.4,6.2-45.7,24.8-46.8,47
			c0.2,1.2,0.4,2.3,0.7,3.5c7,32.8,35.9,49.8,67.4,43.1c21.3-4.5,35.2-17,39.9-30.6l0.5-0.1l0.2,0.7l4.9,17.8l21.3-4.5
			c-2.4-7.2-5-18.1-7-27.7L791.7,147.3z M786,257.7c-1.6,11.9-13.7,21.3-28.4,24.4c-23.7,5-38.5-5.9-42-22.3
			c-3.8-17.9,6.8-34.1,29.5-38.9c16.5-3.5,30,1.6,35.3,10.3c1.1,1.7,1.9,4.1,2.3,6l3,14C786.2,253.4,786.4,255.5,786,257.7z"/>
		<polygon points="855.8,278.4 880,278.4 880,183 845.8,183 		"/>
		<path d="M861.5,139.4c-12.6,0-21.7,5.6-21.7,12.8c0,7,8.7,12.5,20.9,12.5c13.8,0,22.4-5.6,22-12.5
			C882.7,144.9,874.5,139.4,861.5,139.4z"/>
		<path d="M993.8,189.3c-24.9-1.5-42.7,7.6-50.2,17l-0.6,0l-0.7-17.6l-23.2-1.4c0.9,8.9,1.1,17.6,1.1,28l-0.1,63.1l22,2.2l2.5-51.1
			c0.1-2.9,0.9-5.9,2.1-8c4.9-9.7,18.8-17.5,36.2-16.4c25.4,1.7,31.9,16.2,29.1,31.9l-8.9,49.5l23.5,2.3l12-51.7
			C1046.6,201.8,1015.1,190.6,993.8,189.3z"/>
		<path d="M1086.6,256.5l85.4,38c1-1.5,2.6-3.9,4.1-7.2c7.3-16.4,8.1-46.6-31.6-64.3c-35.4-15.8-66.4-4.2-78.4,22.6
			c-12,26.8,2.4,54.8,39.8,71.5c19.3,8.6,34,8.6,42.9,9.5l1.4-13.3c-9.4-1.1-19.9-0.3-35.7-7.4
			C1092.4,296.1,1077.3,278.6,1086.6,256.5z M1137.6,233.9c24.9,11.1,23.8,29.8,18.9,39.9l-64.6-28.7
			C1098.7,234.6,1115.2,223.9,1137.6,233.9z"/>
		<path d="M1278.7,319.3c3.4,2.5,5.8,4.5,8.1,6.6l9.7-13.3c-2-2-3.9-3.6-6.7-5.6c-16.7-12.1-36.4-16.4-50.3-10.5l-1.1-0.8l10.2-15.9
			l-21.8-15.8c-4.4,7.8-9.8,15.9-16.5,25.1l-38.9,53.5l24.6,17.9l30.1-41.5c1.8-2.4,4-4.2,5.9-5.8
			C1243.3,305.1,1261.2,306.6,1278.7,319.3z"/>
		<polygon points="1393.8,333.1 1372.2,308.9 1326,309.2 1343,325.7 		"/>
		<polygon points="1316.3,327.9 1245.8,397.6 1262.6,415 1336.1,348.3 		"/>
		<path d="M596.9,352.6l-22.5-27.8c-12.1-14.9-32.9-23.7-66.9,3.8c-14,11.4-25.2,24.8-31.2,36.2l11.8,5.2c5.1-9.7,14.1-20.6,24.5-29
			c22.8-18.4,34.2-9.4,39.2-3.3l1.2,1.5c-43.1,34.7-56.1,60.8-41.5,78.8c8.7,10.8,25.8,15,48.3-3.2c15.9-12.8,23.6-27.7,25.1-38.6
			l0.7-0.6l9.2,8.1l18.4-14.9C607.7,365,602.1,359,596.9,352.6z M557,400.6c-10.3,8.4-22.4,11.3-29.5,2.5
			c-11.7-14.4,11.3-37.3,33.6-54.9l10.4,12.9c1.1,1.4,1.9,3.3,2.3,5.2C575.7,375.3,571.5,388.9,557,400.6z"/>
	</g>
	<g>
		<g>
			<path class="st0" d="M1377,1396.1c0,0.3,0,0.6,0,0.9c-0.2,2.8-1.4,6.2-4.5,9.6c0,0,0,0-0.1,0.1c-1.8,1.9-4.1,3.8-7.2,5.5
				c0,0,3,8.2,0.9,17.2c0,0,0,0.1,0,0.1c-1.1,4.6-3.6,9.4-8.5,13.4c-7.2,5.9-14,12-18.9,16.7c-5.1,4.8-8.3,8.1-8.3,8.1l0.1,0.1
				l5.2,8l1.7,2.6l0.8,1.2v0l-1,14.5l0,0.4c0,0,3.5-0.4,7.6,0.4c0,0,0.1,0,0.1,0c0.8,0.2,1.6,0.4,2.5,0.6c5,1.6,10,5.3,10.1,13.6
				c0,2.7-0.4,5.8-1.5,9.5c-0.1,0.2-0.1,0.5-0.2,0.7c0,0,12.6,15.8,13.1,28.4c0.3,8.2-4.4,15-20.8,15.4c-41.9,1-108.1,6-108.1,6
				s-55.3,6.3-111.3,12.3c-18.3,2-36.7,3.9-53.3,5.6c-23.1,2.4-42.6,4.2-53.6,5c-15.1,1.1-44.6,1.4-76.6,1.3
				c-58.9-0.1-126-1.3-126-1.3s-0.5,0.1-1.4,0.2c0,0,0,0,0,0c-5.5,0.6-26.1,2.7-49.6,3.8c-11.1,0.5-22.8,0.9-33.8,0.7c0,0,0,0-0.1,0
				c-7.6-0.1-14.9-0.4-21.5-1c-6.6-0.6-12.4-1.5-17.2-2.7c0,0-1.2,0.5-3.4,1.4c-10.4,4-42.7,15.3-76.5,14.1
				c-9.7-0.3-19.6-1.7-29.1-4.6c0,0-16.9-2.9-34.7-2.3h0c-11.5,0.4-23.5,2.2-31.5,7.3c0,0-8.2,2.4-20.9,1.6
				c-3.7-0.2-7.8-0.7-12.2-1.6c-4.3-0.9-9.2-1-14.3-0.6c-18.1,1.3-38.3,8.6-38.3,8.6s-4.9,3.2-11.9,0.9c-4.7-1.6-10.5-5.6-16.3-14.8
				l-11.3-15l-7-9.6l-0.2-0.3l10.6-0.6l7-0.4c0,0,7.1-0.8,9.3-4.7c1.2-2.1,1-5-2.4-9.2c-2.8-3.4-3.5-6.5-3.2-9.1
				c0.8-6.8,8.6-10.9,8.6-10.9s0,0,0,0c-0.7-0.8-9-9.7-4.9-16.1c0,0,0,0,0,0c1.3-2,3.7-3.7,8-4.8c0,0,14.5-4.5,15.1-10.9
				c0.3-3.5-3.4-7.5-15.7-11.7c-13-4.4-18.1-13.4-19.4-22.8c-0.3-2.2-0.4-4.4-0.3-6.5c0.4-13.4,6.5-26.2,7-27.3c0,0,0-0.1,0-0.1
				s0,0,0,0c-0.2-0.5-1.4-5.8,30.3-9.2c0.1,0,0.1,0,0.2,0c13.1-1.4,31.7-2.5,58.2-2.7l68.8-1.1l37.3-0.6l22.5-0.4l215.7-18.4
				l246.4-16.9h63.3l25.3-8l75.8-2l31.1-0.8l73.5-1.9l9.5-0.3h0.1c0,0,0.2,0.1,0.5,0.3c0,0,0,0,0,0c0.7,0.4,1.9,1.2,3.3,2.3
				c0.1,0.1,0.2,0.2,0.4,0.3c0.3,0.3,0.7,0.5,1,0.8c1,0.8,2,1.8,2.9,2.9c0.2,0.2,0.4,0.4,0.6,0.6c0.1,0.1,0.2,0.3,0.3,0.4
				c0.3,0.4,0.5,0.7,0.8,1.1c0.1,0.2,0.2,0.3,0.3,0.5c0.1,0.1,0.2,0.3,0.2,0.4c0.1,0.1,0.2,0.3,0.3,0.4c0,0.1,0.1,0.2,0.1,0.2
				c0.1,0.2,0.2,0.4,0.3,0.6c0.1,0.2,0.2,0.5,0.3,0.7c0.1,0.2,0.2,0.5,0.3,0.7c0,0,0,0,0,0c0.1,0.2,0.1,0.4,0.2,0.6
				c0,0.1,0,0.1,0,0.2c0.1,0.2,0.1,0.5,0.1,0.7c0,0.3,0.1,0.5,0.1,0.7c0,0.1,0,0.1,0,0.2C1377,1395.6,1377,1395.9,1377,1396.1z"/>
			<g>
				<path d="M564.5,1429.8l37.3-0.6c-63.2-104.6-101.4-241.3-101.4-390.9c0-172.7,51-328.2,132.5-437
					c54.7,50.8,102.5,52.2,131.5,56.8v1.6c-0.7,3.7-3.5,8.3-13,8.3c-7.2,0-14.4,5.7-20.3,12c-4.3,4.1-8.7,9.4-12.2,16.4
					c0,0.1-0.1,0.1-0.1,0.1h0c-0.9,1.7-1.7,3.6-2.5,5.5c-11,28-15,21-15,21c-2.1,0.8-15.9,7.9,2,24c0,0,10,14,23,20c0,0,11,11,0,15
					s-30,0-30,0l-20-11c0,0,0,12,9,19s18,6,18,6s7-1,0,8c-5.1,6.6-14.1,9.5-18.5,10.6c-0.8,0.2-1.7,0.3-2.6,0.5
					c-12,2.7-29.9,8.6-46.1,21.7c-16.2,13-30.6,33.1-35.8,64.2c0,0,1,43,14,64c0,0,21.8,27,25.9,63.5c1.7,28.1,9.8,93.9,49,140.8
					c51.1,61.1,64.6,86.5,79.6,130.1c11.4,33.2,12.9,87.7,81.8,89.1c51.1,1,72.9-40.2,72.9-40.2s13.4-69.6,50.6-106.9
					c37.3-37.3,99.1-107.8,104.4-190.7l1.3-18.5c2.3-31.6,3.3-48,3.6-56c2.8-0.5,9.9-6.6,13.8-53.1c5-59-38-79-38-79l1-5.9
					c12.1,2.7,21,1.9,21,1.9s17,1,27-8c9.7-8.7,17.5-12.8,18-13c-0.6,0.1-12.5,3-34,5c-22,2-13-6-13-6s15-8,29-7s16-5,16-5
					s-10,2-8-5s14-9,14-9s8-6-2-5s-9-3-9-3s-4-3,8-10s15-15,15-15s-4-2-20,3s-9-22-9-22s7-2,3-27c-3.2-20.2-18.8-35.1-24.7-40.2
					c98.8-7.2,78-42.8,80.1-72.3c1.8-25.5-12-12.3-12-12.3c-15.3,35.2-71.6,35.4-100.5,33.3c-1.3-0.5-2.8-0.8-4.3-0.9l-15.2-0.2
					l-6.1-0.1c-4.7-0.8-10.1-3.5-8.3-12.4c3-15,0-23,0-23s-5-6-11,9s-9,7-9,7s4-7-11-7s-11-9-11-9c4-23-8-27-8-27s-10,4-6-6
					s-4-15-4-15c-9-14-12,4-12,4s-2,12-8,2s-15-1-15-1s-8,11-12,8s-7-13-7-13s1,12-15,13c-15.7,1-17.9,11.6-18,12
					c0.1-0.2,3.3-3.9,18,0c15,4-3,15-8,14s-19-13-19-13s-14-7-23,3s-22,0-22,0s-19-31-8,0s-4,28-4,28l-41.4,0.4
					c-2.1-0.2-4.1-0.3-5.8-0.3c-3.8,0-6.3,0.3-6.3,0.3c-44.5-1.7-72.8-16.4-90.8-35.3c68.7-73.3,153.7-116.7,245.8-116.7
					c228.4,0,413.5,266.7,413.5,595.7c0,128.7-28.3,247.9-76.5,345.2l31.1-0.8c47-98.6,74.4-217.1,74.4-344.4
					c0-343.7-199.5-622.2-445.5-622.2c-97.3,0-187.2,43.5-260.5,117.4c-16.4-33.8-12.5-68.9-12.5-68.9c0-25,17-62-1-66
					c-4.6-1-4.7-0.7-8.1,0.5c-2.5,0.5-5,2-7.5,4.2c-4.7,3.8-7,8.4-7,8.4C601,431.4,591,467,591,467c-9.8,49.7,7.6,88.5,21.1,109.7
					C522,690.6,465.3,855.2,465.3,1038.4C465.3,1186.7,502.5,1322.9,564.5,1429.8z"/>
				<path d="M1348.6,1495.7c-0.5,0-0.9-0.1-1.4-0.1h0c-0.2,0-0.3,0-0.5,0c6.5,2.4,13,8.4,8,24.1c0,0,19.9,23.2,11.7,35
					c-0.1,0.1-0.2,0.3-0.3,0.4c-0.1,0.1-0.2,0.3-0.3,0.4c-2,2.4-5.2,4.2-10.2,5.2c-0.4,0.1-0.8,0.2-1.2,0.2c0,0-0.1,0-0.1,0
					c-0.8,0.1-1.5,0.2-2.4,0.3c0,0-0.1,0-0.1,0c-0.8,0.1-1.6,0.1-2.5,0.2c-0.5,0-1.1,0-1.6,0.1c-41.9,1-108.1,5.8-108.1,5.8
					s-53.2,5.9-108.1,11.7c-17.7,1.9-35.7,3.7-52,5.4c-25,2.5-46.4,4.5-58,5.3c-15.1,1-44.6,1.3-76.6,1.3
					c-48.6,0.1-106.1-0.8-127.4-1.1c0,0,0,0,0,0c-5.9,0.6-28.6,2.9-53.8,3.9h0c-2,0.1-4.1,0.2-6.2,0.2c-1.4,0-2.9,0.1-4.4,0.1
					c-1.7,0-3.3,0.1-4.9,0.1c-1,0-2,0-3,0.1h-0.1c-1,0-2.1,0-3.1,0c-1.1,0-2.1,0-3.2,0c-1.6,0-3.2,0-4.8,0c0,0,0,0-0.1,0
					c-8.4,0.1-16.7,0-24.4-0.5c-6.5-0.4-12.5-0.9-17.8-1.8c-10.4,3.9-42.7,14.9-76.5,13.8c-10.7,0.4-21.8-0.4-32.5-2.8
					c-2.2-0.5-4.4-1-6.6-1.7c0,0-3.5-0.6-9.1-1.2c-4.3-0.5-9.7-0.9-15.6-1.1h0c-11.5,0.4-23.4,2.2-31.5,7.2c0,0-8.2,2.3-20.9,1.6
					c-5.7,0.3-13.4,0.2-22.2-1.6c-1.4-0.3-2.8-0.5-4.3-0.6c-18.1,1.3-38.3,8.4-38.3,8.4s-4.9,3.1-11.9,0.9
					c-4.7-1.5-10.5-5.5-16.3-14.5l-11.3-14.6l-5.2-6.8l17.5-1c0,0,5.1-1.7,7.3-5.5c1.5-2.6,1.6-6.3-2.4-11c-2.3-2.7-3.2-5.1-3.2-7.3
					v0c-0.1-6.1,6.6-10,8.5-10.9c0.3-0.2,0.5-0.2,0.5-0.2s-8.6-9.2-5.4-15.8c0,0,0,0,0,0c1.1-2.3,3.6-4.3,8.3-5.5
					c0,0,13.3-4.2,14.7-10.2v0c0.8-3.6-2.6-7.8-15.7-12.2c-13-4.3-18.1-13.1-19.4-22.3c-0.1-0.9-0.2-1.9-0.3-2.8
					c0-0.4,0-0.8-0.1-1.1c0-0.4,0-0.8,0-1.3c0-0.7,0-1.3,0.1-2c0-0.4,0-0.9,0.1-1.3c0.9-12.9,6.9-24.7,6.9-24.7s-0.1-0.2,0-0.6
					c0,0,0-0.1,0-0.1c0,0,0,0,0,0c0.7-2.4,9.2-10.1,88.7-11l69.4-1.1l37.3-0.6l21.9-0.3l215.7-18l246.8-18.2L830,1411.9l-215.7,18
					l-12,0.2l-37.3,0.6l-79.3,1.2c-20.4,0.2-36.1,0.9-48.2,1.8c-0.1,0-0.1,0-0.2,0c-43.9,3.3-40.3,9.9-40.3,9.9
					s-22.4,43.8,12.7,55.5c35.1,11.7,1,22.4,1,22.4c-18.5,4.9-2.9,21.4-2.9,21.4s-15.6,6.8-5.8,18.5c8.1,9.7-0.7,14.7-3.8,16.1h0
					c-0.6,0.3-1,0.4-1,0.4l-9.3,0.5l-8.2,0.5l16.6,21.4c3.1,4.7,6.1,8.1,9,10.4c14.3,19.7,27.2,11.4,27.2,11.4s34-12,54-8s34,0,34,0
					c21-13,68-5,68-5c51,15,112-11,112-11c5.5,1.4,12.4,2.4,20.1,2.9c0,0,0,0,0,0c57.8,38.2,122.3,59.5,190.4,59.5
					c74.8,0,145.4-25.8,207.3-71.3c65.3-6.7,141.2-15.2,141.2-15.2s53-8,96-9s8-44,8-44C1370.2,1499.8,1355.9,1496.2,1348.6,1495.7z
					 M913.8,1634.1c-47.8,0-93.7-11.7-136.3-33.1c27.1-1.4,49.8-3.9,49.8-3.9s164,3,208,0c6.3-0.4,15.4-1.2,26.4-2.2
					C1015.8,1620.3,965.9,1634.1,913.8,1634.1z"/>
				<path d="M1365.4,1380.9C1365.4,1380.9,1365.4,1380.9,1365.4,1380.9c-0.4-0.2-0.6-0.3-0.6-0.3l3.9,4.5c0.1,0.1,0.2,0.2,0.4,0.3
					c0.3,0.3,0.7,0.5,1,0.8c1,0.8,2,1.8,2.9,2.8c0.2,0.2,0.4,0.4,0.6,0.6c0.1,0.1,0.2,0.3,0.3,0.4c0.3,0.3,0.5,0.7,0.8,1.1
					c0.1,0.2,0.2,0.3,0.3,0.5c0.1,0.1,0.2,0.2,0.2,0.4c0.1,0.1,0.2,0.3,0.3,0.4c0,0.1,0.1,0.2,0.1,0.2c0.1,0.2,0.2,0.4,0.3,0.6
					c0.1,0.2,0.2,0.5,0.3,0.7c0.1,0.2,0.2,0.5,0.3,0.7c0,0,0,0,0,0.1c0.1,0.2,0.1,0.4,0.2,0.6c0,0.1,0,0.1,0,0.2
					c0.1,0.2,0.1,0.5,0.1,0.7c0,0.2,0.1,0.5,0.1,0.7c0,0,0,0.1,0,0.1c0,0,0,0,0,0v0c0,0.2,0,0.5,0,0.7c0,2.8-1.2,5.8-4.5,8.8
					c0,0,0,0-0.1,0.1c-1.8,1.7-4.3,3.5-7.6,5.2c0,0,3,8.2,1.3,17.2c0,0.1,0,0.3-0.1,0.4c-1,4.9-3.4,10-8.5,14.1
					c-1.4,1.1-2.7,2.2-4.1,3.3c-5.6,4.6-10.8,9.1-14.9,12.7c0,0,0,0,0,0c-5.4,4.8-8.9,8.1-8.9,8.1l7.5,10.7l0.1,0.1l0.8,1.1v0.1
					l-1,14.5c0,0,0,0,0,0c0.4,0,3.7-0.2,7.6,0.8h0c0,0,0,0,0.1,0v0l0-0.4l0.5-13.4l-8-12c0,0,13-13,28-25s7.5-32.5,7.5-32.5
					C1398.6,1397.8,1370.1,1383.2,1365.4,1380.9z"/>
			</g>
			<g>
				<path d="M1091.1,1512c0,0.3-0.1,0.6-0.2,0.9c0,0.2-0.1,0.4-0.1,0.5c-0.1,0.4-0.2,0.8-0.3,1.2c-0.1,0.3-0.2,0.7-0.3,1
					c0,0,0,0.1,0,0.1c-0.1,0.3-0.2,0.7-0.4,1c0,0.1-0.1,0.2-0.1,0.3c-0.1,0.3-0.3,0.6-0.4,0.9c-0.3,0.6-0.5,1.1-0.8,1.7
					c0,0-0.1,0.1-0.1,0.2c-0.1,0.2-0.2,0.4-0.3,0.6c-0.1,0.3-0.3,0.5-0.4,0.7c-0.1,0.2-0.3,0.4-0.4,0.6c-0.1,0.2-0.2,0.4-0.4,0.6
					c-0.2,0.3-0.3,0.5-0.5,0.8c-0.2,0.3-0.4,0.6-0.7,0.9c-0.1,0.2-0.3,0.3-0.4,0.5c-0.6,0.7-1.2,1.4-1.9,2.1
					c-0.2,0.2-0.3,0.3-0.5,0.5c-2.5,2.4-5.3,4.2-7.9,5.2c-0.3,0.1-0.5,0.2-0.7,0.3c-0.3,0.1-0.6,0.2-0.9,0.3
					c-0.3,0.1-0.6,0.2-0.9,0.2c-0.3,0.1-0.6,0.1-0.9,0.2c-0.2,0-0.5,0.1-0.7,0.1c-0.1,0-0.2,0-0.3,0c-0.2,0-0.4,0-0.6,0
					c-7.1,0-13.1-7.8-14.9-18.3c3.2,0.9,6.8,1.3,10.4,1.3c8.9,0,18.6-6.6,25.1-14.2c4.8-5.5,7.9-11.5,7.9-15.8c0-0.1,0-0.1,0-0.2
					c-0.5-1.5-1.1-2.9-1.7-4.3c-5.5-12.4-15.4-21-26.6-21c-17.3,0-34.3,18.6-34.3,41.5c0,22.9,17,41.5,34.3,41.5
					c9.8,0,18.5-5.3,24.2-14.1c0,0,0,0,0,0c0.3-0.5,3.3-6.3-0.5-14.9C1092.9,1512.3,1092,1511.7,1091.1,1512z M1053.5,1507.2
					c-3.6-9.8,3.8-20.4,5.5-22.6c2.3-3.8,6.8-6.4,12-6.4c7.5,0,13.5,5.4,13.5,12c0,1.5-0.3,2.9-0.9,4.3c-1.3,6.1-15.2,13-17.8,14.2
					c-0.1,0.1-0.2,0.1-0.3,0.1c-0.1,0-0.1,0.1-0.1,0.1c-0.3,0.1-0.6,0.3-0.9,0.4C1059.7,1511.3,1055.1,1511.7,1053.5,1507.2z"/>
				<path d="M590.7,1549.2C590.7,1549.2,590.7,1549.2,590.7,1549.2c-0.3-0.7-0.7-1.5-1-2.2c0,0,0,0,0,0c-3.1-5.6-10.4-14.6-10.7-15
					v0c-5.9-5.6-15.3-15.2-14.8-19.7c0.1-1.1,0.5-2,0.5-2c0.7-1.6,2.4-3.6,7.8-6.1c22-10,16-29,16-29s-7-19-40-22s-58,22-58,22
					c-6.7,8.8-11.3,13.4-8.6,16.1c11.6,11.9,36.6-8.1,36.6-8.1s-3,46-10,54s-9,12-9,12c-8,35,16,30,16,30s22-1,19-34s4-32,4-32
					c3,1.4,14.2,6.9,20,19.9c2.2,4.9,3,9.6,3.3,13.5v0.1c0,0.1,0,0.2,0,0.3c0.2,1.8,1.1,8.7,5,13.9c0.7,0.8,1.4,1.6,2.1,2.3
					c0,0,0,0,0,0c7.4,7.8,14.9,11.8,20.5,9.9c0.6-0.2,1.9-0.7,3.1-1.9C596.2,1567.5,595.2,1559.3,590.7,1549.2z M556.5,1496.2
					c-17,16-24-13-24-13s-6-14,5-17c7.8-2.1,17.2,3.8,21.9,7.4c0,0,0,0,0.1,0.1c0.7,0.6,6.6,6.2,6,10.6c-0.2,0.7-0.5,1.4-0.9,2.2v0
					C563.1,1489.1,560.6,1492.3,556.5,1496.2z"/>
				<path d="M665,1492.7c0,0,1,68,15,69s11-26,11-26s-5.5-25.5,2.5-32.5s10,24,10,24s-3,32,9,31s5-47,5-47s-3-22-14-25s-11,5-11,5
					s-3,3-9-3S664.5,1483.2,665,1492.7z"/>
				<path d="M660.4,1514.5c0,0-8-34-27-34s-29,15-29,15s-10,11,0,18c5,3.5,10,0.3,13.7-3.8c0,0,1.5-2.1,3.6-4.6c0,0,0-0.1,0.1-0.1
					c2.3-2.8,5.1-5.9,7-7c0.3-0.2,0.5-0.3,0.8-0.3c0,0,0.1,0,0.1,0c11.5-4.4,12.3,10.4,12.3,10.4s1,8-22,13s-17.5,22.5-17.5,26.5
					s3,18,11,20s15,0,22-6c3.8-3.3,7.6-4.2,10.3-4.3c0,0,0,0,0,0c0.1,0.1,0.6,0.4,2.7,2.8v0c0.3,0.3,0.5,0.6,0.9,1l0,0
					c0.4,0.2,0.9,0.4,1.6,0.5c1.2,0.2,3,0.3,5.5,0.1C668.4,1560.5,660.4,1514.5,660.4,1514.5z M641.3,1546c-5.5,4.3-12,5-14.7,1.6
					c-2.7-3.4-0.4-9.6,5.1-13.9c5.5-4.3,12-5,14.7-1.6C649,1535.5,646.8,1541.7,641.3,1546z"/>
				<path d="M1031,1443.7c0-13.8-5.6-25-12.5-25s-12.5,11.2-12.5,25c0,2.3,0.2,4.6,0.5,6.7c1.7,23.9,8,103.1,16.5,96.3
					C1033,1538.7,1031,1443.7,1031,1443.7z"/>
				<path d="M994.9,1496c0,0-8-34-27-34c-19,0-29,15-29,15s-10,11,0,18c5,3.5,10,0.3,13.7-3.8c0,0,1.5-2.1,3.6-4.6
					c0,0,0-0.1,0.1-0.1c2.3-2.8,5.1-5.9,7-7c0.3-0.2,0.5-0.3,0.8-0.3c0,0,0.1,0,0.1,0c11.5-4.4,12.3,10.4,12.3,10.4s1,8-22,13
					c-23,5-17.5,22.5-17.5,26.5s3,18,11,20c8,2,15,0,22-6c3.8-3.3,7.6-4.2,10.3-4.3c0,0,0,0,0,0c0.1,0.1,0.6,0.4,2.7,2.8v0
					c0.3,0.3,0.5,0.6,0.9,1l0,0c0.4,0.2,0.9,0.4,1.6,0.5c1.2,0.2,3,0.3,5.5,0.1C1002.9,1542,994.9,1496,994.9,1496z M975.8,1527.5
					c-5.5,4.3-12,5-14.7,1.6c-2.7-3.4-0.4-9.6,5.1-13.9c5.5-4.3,12-5,14.7-1.6C983.5,1517,981.3,1523.2,975.8,1527.5z"/>
				<path d="M1286.1,1499.5c0,0.3-0.1,0.6-0.2,0.9c0,0.2-0.1,0.4-0.1,0.5c-0.1,0.4-0.2,0.8-0.3,1.2c-0.1,0.3-0.2,0.7-0.3,1
					c0,0,0,0.1,0,0.1c-0.1,0.3-0.2,0.7-0.4,1c0,0.1-0.1,0.2-0.1,0.3c-0.1,0.3-0.3,0.6-0.4,0.9c-0.3,0.6-0.5,1.1-0.8,1.7
					c0,0-0.1,0.1-0.1,0.2c-0.1,0.2-0.2,0.4-0.3,0.6c-0.1,0.3-0.3,0.5-0.4,0.7c-0.1,0.2-0.3,0.4-0.4,0.6c-0.1,0.2-0.2,0.4-0.4,0.6
					c-0.2,0.3-0.3,0.5-0.5,0.8c-0.2,0.3-0.4,0.6-0.7,0.9c-0.1,0.2-0.3,0.3-0.4,0.5c-0.6,0.7-1.2,1.4-1.9,2.1
					c-0.2,0.2-0.3,0.3-0.5,0.5c-2.5,2.4-5.3,4.2-7.9,5.2c-0.3,0.1-0.5,0.2-0.7,0.3c-0.3,0.1-0.6,0.2-0.9,0.3
					c-0.3,0.1-0.6,0.2-0.9,0.2c-0.3,0.1-0.6,0.1-0.9,0.2c-0.2,0-0.5,0.1-0.7,0.1c-0.1,0-0.2,0-0.3,0c-0.2,0-0.4,0-0.6,0
					c-7.1,0-13.1-7.8-14.9-18.3c3.2,0.9,6.8,1.3,10.4,1.3c8.9,0,18.6-6.6,25.1-14.2c4.8-5.5,7.9-11.5,7.9-15.8c0-0.1,0-0.1,0-0.2
					c-0.5-1.5-1.1-2.9-1.7-4.3c-5.5-12.4-15.4-21-26.6-21c-17.3,0-34.3,18.6-34.3,41.5c0,22.9,17,41.5,34.3,41.5
					c9.8,0,18.5-5.3,24.2-14.1c0,0,0,0,0,0c0.3-0.5,3.3-6.3-0.5-14.9C1287.9,1499.9,1286.9,1499.2,1286.1,1499.5z M1248.4,1494.7
					c-3.6-9.8,3.8-20.4,5.5-22.6c2.3-3.8,6.8-6.4,12-6.4c7.5,0,13.5,5.4,13.5,12c0,1.5-0.3,2.9-0.9,4.3c-1.3,6.1-15.2,13-17.8,14.2
					c-0.1,0.1-0.2,0.1-0.3,0.1c-0.1,0-0.1,0.1-0.1,0.1c-0.3,0.1-0.6,0.3-0.9,0.4C1254.6,1498.8,1250.1,1499.2,1248.4,1494.7z"/>
				<path d="M1227.5,1465.2c-6-18-25-5-25-5s-7,9-16,0s-13,0-13,0s-4,6-0.5,9.5c0,0,14,8,7,40s11,23,11,23s5.9,0,7.1-14l0,0
					c2.1-9-1.7-17.7-1.7-17.7c-1-5-1.5-12.7,2.1-19.8c6-12,16-6,16-6S1233.5,1483.2,1227.5,1465.2z"/>
				<path d="M1156.5,1455.2c-6.4,0.6-6.7,4.2-6,6.6c0,0,0,0.5,0,1.3c0,1.7-0.1,4.6-0.9,5.6c-1,0.4-2.6,0-5.1-2.5c-7-7-14-6-14-6
					s-32,6-28,38s20,33,20,33s9,3,21-6s8,11,8,11s-8,19-29,3c-16.4-12.5-12.1,3.7-9.4,11.4c0,0,0,0,0,0.1c0.4,1,5.4,7.5,11.5,10.3
					c1.9,0.6,2.2,1,5,1.2h3c2,0.1,2.2,0.2,4.7,0c21-1,28-21.3,28-28C1165.5,1522.2,1166.5,1454.2,1156.5,1455.2z M1139,1518.7
					c-7.2,0-16-8.9-16-20s-0.2-23,15-23c7.2,0,13,11.9,13,23S1146.1,1518.7,1139,1518.7z"/>
				<path d="M895.6,1509.7c-3.5-22.4-20.7-39.7-34.6-37.5s-22.3,26.1-18.8,48.5s18.7,38.7,32.6,36.5S899.2,1532.1,895.6,1509.7z
					 M878.8,1539.1c-6.3,1.9-14.7-7.2-18.8-20.4c-4-13.2-2.2-25.5,4.2-27.4s14.7,7.2,18.8,20.4
					C887,1524.9,885.1,1537.1,878.8,1539.1z"/>
				<path d="M786,1471.7c0,0,6,38,0,58s3,28,3,28s11,6,12-14c0,0-5.5-41.5,10.5-45.5s6,25,6,25s-9,29,3,30s12-19,12-19s8-49-11-54
					c0,0-7-2-12,6s-6-3-6-3s5-50-9-51S786,1471.7,786,1471.7z"/>
				<path d="M756,1476.7c0,0-32,4-29,49s32,36,32,36s18.5-5.5,17.5-22.5c0,0,1-13-16,0c0,0-19,8-18-22s23-22,23-22s13,2,9-9
					S756,1476.7,756,1476.7z"/>
			</g>
		</g>
		<g>
			<path class="st1" d="M929.3,1225.1c0-1.2-0.2-2.3-0.5-3.4c-2.2-25.3-39.2-16.9-39.2-16.9c-2.6,0.4-5.1,1.1-7.4,1.9
				c-15.1,2.5-30.9,34.5-30.9,34.5c14-41-25-34-25-34c-35-2-23,40-23,40s0.4,6.5,5.6,14.3c0,0,6.2,30.7,61.1,25
				c29.3-2,45.5-26.9,53.3-44.3c2-1.5,3.7-4.8,4.8-10.5c0.8-1.9,1.2-3.9,1.2-5.9C929.3,1225.5,929.3,1225.4,929.3,1225.1
				C929.3,1225.2,929.3,1225.1,929.3,1225.1L929.3,1225.1z"/>
			<path class="st1" d="M847.8,1173.6v-65c-63-12-94-31-94-31s-6-19-5,37s49,73,71,74S847.8,1173.6,847.8,1173.6z"/>
			<path class="st1" d="M950.3,1087.1c-32,13-38,16-66,16c0,0-14,0-13.5,8.5c0,0,0,53,10,70c0,0-2,10,37,3s49-31,49-31s13-25,12-66
				C978.8,1087.6,982.3,1074.1,950.3,1087.1z"/>
			<path class="st1" d="M977.3,763.1c-12-17-23-4-23-4s-10,4-7,32c0,0,1,18,11,9c0,0-4-19,4-19s10,12,19,7
				C981.3,788.1,989.3,780.1,977.3,763.1z"/>
		</g>
		<g>
			<path class="st2" d="M1157.8,602.6c-9,25.4-54.6,28.5-75,28.4c-1-0.3-2-0.4-3-0.4h-39c-6.6,0-12,5.4-12,12v12c0,6.6,5.4,12,12,12
				h39c1.4,0,2.8-0.3,4.1-0.7c81.1-6.4,82.9-38.1,82.9-55.3C1166.8,592.6,1157.8,602.6,1157.8,602.6z"/>
			<path class="st2" d="M767.8,649.6c26,7,26-19,26-19c6-27-16-22-16-22c-88-11-102-32-102-32s-56-35-46-106s4-65,4-65
				c-19-1-36,65-36,65c-14,71,32,118,32,118C689.8,648.6,741.8,642.6,767.8,649.6z"/>
			<path class="st2" d="M812.2,654.2c4.1,1.5,10.9-7,15.3-19c4.4-12,4.6-22.9,0.5-24.4c-4.1-1.5-10.9,7-15.3,19
				S808.2,652.7,812.2,654.2z"/>
			
				<ellipse transform="matrix(0.342 -0.9397 0.9397 0.342 -39.0496 1210.8746)" class="st2" cx="845.1" cy="633.3" rx="23.1" ry="7.8"/>
			<path class="st2" d="M860.2,654.8c4.1,1.5,10.9-7,15.3-19s4.6-22.9,0.5-24.4c-4.1-1.5-10.9,7-15.3,19S856.1,653.4,860.2,654.8z"
				/>
			<path class="st2" d="M954,663.1c4.1,1.5,10.9-7,15.3-19c4.4-12,4.6-22.9,0.5-24.4c-4.1-1.5-10.9,7-15.3,19S949.9,661.6,954,663.1
				z"/>
			
				<ellipse transform="matrix(0.342 -0.9397 0.9397 0.342 44.4941 1348.0226)" class="st2" cx="984.8" cy="642.2" rx="23.1" ry="7.8"/>
			
				<ellipse transform="matrix(0.342 -0.9397 0.9397 0.342 58.8633 1370.1495)" class="st2" cx="1007.8" cy="643" rx="23.1" ry="7.8"/>
			
				<ellipse transform="matrix(0.2924 -0.9563 0.9563 0.2924 52.4884 1226.2147)" class="st2" cx="854.8" cy="577.6" rx="11" ry="5"/>
			<path class="st2" d="M862.8,593c2.3,0.7,5.5-2.9,7-8s0.9-9.8-1.4-10.5c-2.3-0.7-5.5,2.9-7,8C859.8,587.5,860.4,592.3,862.8,593z"
				/>
			<path class="st2" d="M875.4,596.7c1.8,0.6,4.4-2.3,5.6-6.3s0.8-7.8-1.1-8.4s-4.4,2.3-5.6,6.3
				C873.1,592.4,873.6,596.1,875.4,596.7z"/>
			<path class="st2" d="M946,593.9c1.6-0.4,2.1-3.6,1.2-7.1c-0.9-3.5-3-5.9-4.6-5.5c-1.6,0.4-2.1,3.6-1.2,7.1
				C942.3,591.9,944.4,594.3,946,593.9z"/>
			<path class="st2" d="M959.2,591.6c2.2-0.6,2.9-4.9,1.7-9.6s-4.1-8.1-6.3-7.5c-2.2,0.6-2.9,4.9-1.7,9.6S957,592.1,959.2,591.6z"/>
			<path class="st2" d="M971.7,584.4c2.4-0.8,2.9-5.7,1.1-10.9c-1.8-5.2-5.2-8.7-7.6-7.9s-2.9,5.7-1.1,10.9
				C965.9,581.7,969.3,585.2,971.7,584.4z"/>
			<path class="st2" d="M979.4,576.2c1.6-0.6,1.9-3.9,0.7-7.6c-1.2-3.6-3.6-6.1-5.2-5.5c-1.6,0.6-1.9,3.9-0.7,7.6
				C975.4,574.2,977.7,576.7,979.4,576.2z"/>
			<path class="st2" d="M731.3,693.1c0,0-15,15-17.5,30.5c0,0-13,23,14,35c0,0,34.5,7.5,44.5-9.5s17-20,17-20s13,22,18-5
				c0,0,3-57-25-57S731.3,693.1,731.3,693.1z M793.3,701.1c0,0,3,15-11,2s-28,11-28,11s-8,27-22,23s-7-9-7-9s22-42,42-42
				S793.3,701.1,793.3,701.1z"/>
			<path class="st2" d="M1091.3,695.1c-24-41-68-5-68-5s-19,27,11,10s41,6,41,6s17,24,8,48s-20,22-13,0c0,0,16-54-22-50
				s-26,46-26,46s16,38,51,41s32-13,32-13S1115.3,736.1,1091.3,695.1z"/>
			<path class="st2" d="M861.4,708.1c5.3,5.5,12.6,7,16.2,3.5c3.7-3.6,2.4-10.9-2.9-16.3c-5.3-5.5-12.6-7-16.2-3.5
				S856.1,702.6,861.4,708.1z"/>
			<ellipse class="st2" cx="830.8" cy="710.6" rx="4" ry="9"/>
			<ellipse class="st2" cx="830.8" cy="685.6" rx="4" ry="10"/>
			<path class="st2" d="M1069.8,1003.6c0,0-16.6,9.3-17.3,44.6v0c-0.7,34.2-14.8,55.8-15.7,57.2c0,0,0,0.1,0,0.1
				c-11.2,22.2-34.9,66.1-55.4,83.6c-28,24-48,66-48,66s-32,69-75,62s-55-32-55-32s-33-71-49-86s-59-67-59-67s-32-55-36-98
				c-4-43-10.5-20.5-10.5-20.5s5,90,53,149s63.5,83.5,77.5,125.5s26,85,74,86s60-34,60-34s21-72,56-108s93-104,98-184l3-44
				c0,0-0.2,0.1-0.7,0.6L1069.8,1003.6z"/>
			<path class="st2" d="M1030.3,841.1c0,0-38-10-68,0s-73,50-73,50s0-28,47-47c0,0,2-6-15-9s-101-4-120,6c0,0,12-34,131-31
				c0,0,6,2,5-8s1-32,1-32c0-14,11-23,22-23s29-23,29-23s-11-16-23-16s-15-8-15-8c-11-26-15-8-15-8c-1,20,6,15,17,32s-11,14-11,14
				s-19-11-27-27s-14,0-14,0s-7,16-2,23s6,13,6,13s3,16-6,15s-17-27-17-27s-8-9-17,3s-20,0-20,0s-12-11-21-11s-23,16-23,16h-11
				c0,0,0,9-6,20s1,19,5,19s6-5,6-5c11-10,22-6,22-6c24,14,17,32,17,32s-25,3-31,7s-18,6-18,6s-19,0-18,12s44,32,54,46s4,14,4,14
				s-18-20-64-52s-101-8-101-8s-45,17-47,88s84,102,84,102l51,28c0,0,6-2,6,11s10,17,10,17s94,52,197,0c103-52,125-124,125-124
				s12-31,0-62S1030.3,841.1,1030.3,841.1z M789.3,997.1c-0.8-5.1-1.6-9.4-2.6-13c-3.9-14.1-9.3-17.7-13.2-18.2
				c-5.4,2-11.2,3.1-17.2,3.1c-30.9,0-53-29.3-53-65.5c0-4.1,0.3-8.2,0.9-12.1c0,0,0,0,0,0c0.4-2.5,0.9-4.9,1.5-7.2
				c0.9-12.5-12.4-4.7-12.9-4.4c0,0,0,0,0,0c-9.2,7.4-15.1,21.7-15.1,46.2c0,40.3,42.9,78,73.5,78c4.7,0,9.1-0.8,13.3-2.2l2.7-5.8
				c-0.5,2.3-1.5,4.2-2.7,5.8c-5.5,7.2-16.3,7.2-16.3,7.2s-38,3-71-27s-16-88-16-88s12-37,42-36c4,0.1,7.8,0.8,11.3,1.7
				c12,3.3,21.7,10.5,28.5,16.8c6.5,6.1,10.2,11.5,10.2,11.5s22.2,42,32.7,71c1.3,3.6,2.4,6.9,3.3,10c0.8,2.7,1.4,5.1,1.9,7.3
				C795.8,997.1,789.3,997.1,789.3,997.1z M1058.3,935.1c-0.6,17.1-13.5,35.6-23.4,47.5l0,0c-16.9,25-33,21-33,21l0,0
				c-1.2,0.2-2.4,0.4-3.6,0.5c-12,1-30-10-30-10s-21-11-31-12s-6-8-6-8s1-5,11-5s11,5,19,11s28,16,37,17s18-7,18-7
				c25-30,13-61,13-61s-5-12-17,9s-35,16-35,16s-14-3-25-17s-21,0-21,0c-22,29-17,57-17,57s2,14-3,14s-7-16-7-16c0-24,8-40,8-40
				c18-33,52-57,52-57s26-18,49-17s34,17,34,17S1059.3,907.1,1058.3,935.1z"/>
			<path class="st2" d="M821.3,784.1c0,0-8-20-26,3c0,0,0,8,17,8C829.6,795.1,829.1,789.5,821.3,784.1z"/>
			<path class="st2" d="M1007.8,754.6c0,0-0.5,9.5-9.5-3.5s-8,3-8,3s11,10,1,22s-6,22-6,22s-7,0-8,18s-31,4-31,4s-53-6-70.5-2.5
				c0,0-28,2-55,13c0,0,83-7,117,4c0,0,30,6,50-5c0,0,32,9,30-17S1021.8,737.6,1007.8,754.6z"/>
			<ellipse class="st2" cx="749.8" cy="818.1" rx="8.5" ry="6"/>
		</g>
	</g>
</g>
</svg>
