<?xml version="1.0" encoding="utf-8"?>
<!-- Generator: Adobe Illustrator 24.0.2, SVG Export Plug-In . SVG Version: 6.00 Build 0)  -->
<svg version="1.1" id="Capa_1" xmlns="http://www.w3.org/2000/svg" xmlns:xlink="http://www.w3.org/1999/xlink" x="0px" y="0px"
	 viewBox="0 0 1800 742" style="enable-background:new 0 0 1800 742;" xml:space="preserve">
<style type="text/css">
	.st0{opacity:0.75;}
	.st1{fill:#979EA6;}
	.st2{fill:#73767C;}
	.st3{fill:#F28830;}
	.st4{fill:#A1491F;}
	.st5{fill:#92381A;}
	.st6{fill:#353B37;}
	.st7{fill:#FFFFFF;}
</style>
<g>
	<g>
		<g>
			
				<image style="overflow:visible;opacity:0.75;" width="913" height="594" xlink:href="79B1DFC7.png"  transform="matrix(1 0 0 1 158 173)">
			</image>
			<g>
				<g>
					<g>
						<g class="st0">
							<path d="M943.4,521.8c-3.2-1.4-6.5-2.9-9.7-4.3c-11.5-5.1-23.1-10.3-34.6-15.4c-15.6-6.9-31.2-13.8-46.7-20.8
								c-12.9-5.8-25.9-11.6-38.8-17.3c-18.2-8-36.4-16.3-54.4-24.9c-10-4.8-20-9.6-30-14.2c-13.3-6.2-26.7-12.2-40.1-18.4
								c-11.4-5.2-22.8-10.4-34.2-15.6c-0.4-0.2-1-0.3-1.1-1.1c62.2-23.9,124.5-47.8,186.8-71.7c-0.2-0.7-0.6-0.7-0.9-0.9
								c-11.5-5.5-23.1-10.9-34.7-16.3c-13.4-6.3-26.7-12.6-40.1-18.9c-16.4-7.7-32.7-15.5-49.1-23.2c-9.3-4.4-18.7-8.8-28-13.3
								c-0.9-0.4-1.7-0.6-2.7-0.2c-9.9,3.8-19.8,7.6-29.8,11.4c-16.6,6.3-33.2,12.7-49.8,19c-17,6.5-33.9,12.9-50.9,19.4
								c-17.5,6.7-35,13.4-52.5,20.1c-21.9,8.4-43.9,16.7-65.8,25.1c-19,7.3-37.9,14.6-56.8,21.8c-24.2,9.3-48.4,18.5-72.6,27.8
								c-20.9,8-41.9,16.1-62.8,24.1c-4.3,1.6-8.5,3.3-13.3,5.1c1.8,0.8,3.2,1.4,4.5,2.1c16.4,7.8,32.8,15.5,49.3,23.3
								c13.3,6.3,26.6,12.5,39.9,18.8c16.4,7.7,32.7,15.5,49.1,23.2c10.9,5.1,21.8,10.3,32.6,15.4c16.4,7.8,32.8,15.5,49.3,23.3
								c13.3,6.3,26.6,12.5,39.9,18.8c15.2,7.2,30.4,14.4,45.6,21.6c18.3,8.6,36.6,17.3,54.9,25.9c9.3,4.4,18.7,8.9,28,13.3
								c17.4,8.2,34.8,16.4,52.3,24.7c6.7,3.2,13.4,6.3,20,9.5c1.2,0.6,2.2,0.7,3.5,0c3.5-1.8,7.2-3.4,10.8-5.1
								c16.6-7.9,33.2-15.7,49.8-23.6c10.8-5.1,21.6-10.2,32.4-15.3c14.2-6.7,28.4-13.5,42.6-20.2c11.1-5.2,22.2-10.5,33.2-15.7
								c15.6-7.4,31.2-14.8,46.8-22.2c9.3-4.4,18.6-8.8,27.8-13.2c0.6-0.3,1.2-0.4,1.6-1C944.4,522.1,943.9,522,943.4,521.8z
								 M673.8,484c-18.2,7-36.5,14-54.8,21c-8.3,3.2-16.6,6.6-25.1,9.4c-7.1,2.3-14.4,3.9-21.8,4.7c-4.8,0.5-9.5,0.9-14.3,0.8
								c-11.2-0.2-22.2-1.8-32.9-5.2c-8.3-2.6-16.3-6.1-23.6-11c-2.8-1.9-5.3-4.1-7.2-6.8c-3.4-4.7-3.3-9.4,0.4-13.8
								c2.3-2.8,5.1-4.8,8.2-6.6c5.1-2.9,10.7-5,16.2-7.1c16.3-6.2,32.5-12.5,48.8-18.7c8.3-3.2,16.7-6.4,25-9.6
								c1.1-0.4,1.9-0.3,2.9,0.2c8.5,4.1,16.9,8,25.4,12c16.3,7.7,32.7,15.5,49,23.2c3.3,1.5,6.5,3.1,10.3,4.9
								C677.8,482.4,675.8,483.2,673.8,484z"/>
						</g>
						<g>
							<path class="st1" d="M943.4,521.8c-3.2-1.4-6.5-2.9-9.7-4.3c-11.5-5.1-23.1-10.3-34.6-15.4c-15.6-6.9-31.2-13.8-46.7-20.8
								c-12.9-5.8-25.9-11.6-38.8-17.3c-18.2-8-36.4-16.3-54.4-24.9c-10-4.8-20-9.6-30-14.2c-13.3-6.2-26.7-12.2-40.1-18.4
								c-11.4-5.2-22.8-10.4-34.2-15.6c-0.4-0.2-1-0.3-1.1-1.1c62.2-23.9,124.5-47.8,186.8-71.7c-0.2-0.7-0.6-0.7-0.9-0.9
								c-11.5-5.5-23.1-10.9-34.7-16.3c-13.4-6.3-26.7-12.6-40.1-18.9c-16.4-7.7-32.7-15.5-49.1-23.2c-9.3-4.4-18.7-8.8-28-13.3
								c-0.9-0.4-1.7-0.6-2.7-0.2c-9.9,3.8-19.8,7.6-29.8,11.4c-16.6,6.3-33.2,12.7-49.8,19c-17,6.5-33.9,12.9-50.9,19.4
								c-17.5,6.7-35,13.4-52.5,20.1c-21.9,8.4-43.9,16.7-65.8,25.1c-19,7.3-37.9,14.6-56.8,21.8c-24.2,9.3-48.4,18.5-72.6,27.8
								c-20.9,8-41.9,16.1-62.8,24.1c-4.3,1.6-8.5,3.3-13.3,5.1c1.8,0.8,3.2,1.4,4.5,2.1c16.4,7.8,32.8,15.5,49.3,23.3
								c13.3,6.3,26.6,12.5,39.9,18.8c16.4,7.7,32.7,15.5,49.1,23.2c10.9,5.1,21.8,10.3,32.6,15.4c16.4,7.8,32.8,15.5,49.3,23.3
								c13.3,6.3,26.6,12.5,39.9,18.8c15.2,7.2,30.4,14.4,45.6,21.6c18.3,8.6,36.6,17.3,54.9,25.9c9.3,4.4,18.7,8.9,28,13.3
								c17.4,8.2,34.8,16.4,52.3,24.7c6.7,3.2,13.4,6.3,20,9.5c1.2,0.6,2.2,0.7,3.5,0c3.5-1.8,7.2-3.4,10.8-5.1
								c16.6-7.9,33.2-15.7,49.8-23.6c10.8-5.1,21.6-10.2,32.4-15.3c14.2-6.7,28.4-13.5,42.6-20.2c11.1-5.2,22.2-10.5,33.2-15.7
								c15.6-7.4,31.2-14.8,46.8-22.2c9.3-4.4,18.6-8.8,27.8-13.2c0.6-0.3,1.2-0.4,1.6-1C944.4,522.1,943.9,522,943.4,521.8z
								 M673.8,484c-18.2,7-36.5,14-54.8,21c-8.3,3.2-16.6,6.6-25.1,9.4c-7.1,2.3-14.4,3.9-21.8,4.7c-4.8,0.5-9.5,0.9-14.3,0.8
								c-11.2-0.2-22.2-1.8-32.9-5.2c-8.3-2.6-16.3-6.1-23.6-11c-2.8-1.9-5.3-4.1-7.2-6.8c-3.4-4.7-3.3-9.4,0.4-13.8
								c2.3-2.8,5.1-4.8,8.2-6.6c5.1-2.9,10.7-5,16.2-7.1c16.3-6.2,32.5-12.5,48.8-18.7c8.3-3.2,16.7-6.4,25-9.6
								c1.1-0.4,1.9-0.3,2.9,0.2c8.5,4.1,16.9,8,25.4,12c16.3,7.7,32.7,15.5,49,23.2c3.3,1.5,6.5,3.1,10.3,4.9
								C677.8,482.4,675.8,483.2,673.8,484z"/>
						</g>
					</g>
					<g>
						<g class="st0">
							<path d="M943.4,521.8c-3.2-1.4-6.5-2.9-9.7-4.3c-11.5-5.1-23.1-10.3-34.6-15.4c-15.6-6.9-31.2-13.8-46.7-20.8
								c-12.9-5.8-25.9-11.6-38.8-17.3c-18.2-8-36.4-16.3-54.4-24.9c-10-4.8-20-9.6-30-14.2c-13.3-6.2-26.7-12.2-40.1-18.4
								c-11.4-5.2-22.8-10.4-34.2-15.6c-0.4-0.2-1-0.3-1.1-1.1c62.2-23.9,124.5-47.8,186.8-71.7c-0.2-0.7-0.6-0.7-0.9-0.9
								c-11.5-5.5-23.1-10.9-34.7-16.3c-13.4-6.3-26.7-12.6-40.1-18.9c-16.4-7.7-32.7-15.5-49.1-23.2c-9.3-4.4-18.7-8.8-28-13.3
								c-0.9-0.4-1.7-0.6-2.7-0.2c-9.9,3.8-19.8,7.6-29.8,11.4c-16.6,6.3-33.2,12.7-49.8,19c-17,6.5-33.9,12.9-50.9,19.4
								c-17.5,6.7-35,13.4-52.5,20.1c-21.9,8.4-43.9,16.7-65.8,25.1c-19,7.3-37.9,14.6-56.8,21.8c-24.2,9.3-48.4,18.5-72.6,27.8
								c-20.9,8-41.9,16.1-62.8,24.1c-4.3,1.6-8.5,3.3-13.3,5.1c1.8,0.8,3.2,1.4,4.5,2.1c16.4,7.8,32.8,15.5,49.3,23.3
								c13.3,6.3,26.6,12.5,39.9,18.8c16.4,7.7,32.7,15.5,49.1,23.2c10.9,5.1,21.8,10.3,32.6,15.4c16.4,7.8,32.8,15.5,49.3,23.3
								c13.3,6.3,26.6,12.5,39.9,18.8c15.2,7.2,30.4,14.4,45.6,21.6c18.3,8.6,36.6,17.3,54.9,25.9c9.3,4.4,18.7,8.9,28,13.3
								c17.4,8.2,34.8,16.4,52.3,24.7c6.7,3.2,13.4,6.3,20,9.5c1.2,0.6,2.2,0.7,3.5,0c3.5-1.8,7.2-3.4,10.8-5.1
								c16.6-7.9,33.2-15.7,49.8-23.6c10.8-5.1,21.6-10.2,32.4-15.3c14.2-6.7,28.4-13.5,42.6-20.2c11.1-5.2,22.2-10.5,33.2-15.7
								c15.6-7.4,31.2-14.8,46.8-22.2c9.3-4.4,18.6-8.8,27.8-13.2c0.6-0.3,1.2-0.4,1.6-1C944.4,522.1,943.9,522,943.4,521.8z
								 M615.3,513c-47.4,21.1-119.1,9.8-129.3-13.1c-3-6.8,1.4-12.9,10.3-18.7c1.9-1.9,4.1-3.4,6.5-4.7c5.1-2.9,10.7-5,16.2-7.1
								c2.3-0.9,4.6-1.8,6.9-2.6c2.6-1.1,5.2-2.2,7.9-3.3c-0.3,0.2-0.6,0.4-1,0.6c11.6-4.5,23.3-8.9,34.9-13.4
								c8.3-3.2,16.7-6.4,25-9.6c1.1-0.4,1.9-0.3,2.9,0.2c8.5,4.1,16.9,8,25.4,12c12.7,6,25.3,12,38,17.9c0,0,0.1,0,0.1-0.1l13,6.2
								c2.6,1.2,5.3,2.5,8.3,3.9c0,0-0.1,0-0.1,0l1.3,0.6C662.1,493.4,630.7,506.2,615.3,513z"/>
						</g>
						<g>
							<path class="st1" d="M943.4,521.8c-3.2-1.4-6.5-2.9-9.7-4.3c-11.5-5.1-23.1-10.3-34.6-15.4c-15.6-6.9-31.2-13.8-46.7-20.8
								c-12.9-5.8-25.9-11.6-38.8-17.3c-18.2-8-36.4-16.3-54.4-24.9c-10-4.8-20-9.6-30-14.2c-13.3-6.2-26.7-12.2-40.1-18.4
								c-11.4-5.2-22.8-10.4-34.2-15.6c-0.4-0.2-1-0.3-1.1-1.1c62.2-23.9,124.5-47.8,186.8-71.7c-0.2-0.7-0.6-0.7-0.9-0.9
								c-11.5-5.5-23.1-10.9-34.7-16.3c-13.4-6.3-26.7-12.6-40.1-18.9c-16.4-7.7-32.7-15.5-49.1-23.2c-9.3-4.4-18.7-8.8-28-13.3
								c-0.9-0.4-1.7-0.6-2.7-0.2c-9.9,3.8-19.8,7.6-29.8,11.4c-16.6,6.3-33.2,12.7-49.8,19c-17,6.5-33.9,12.9-50.9,19.4
								c-17.5,6.7-35,13.4-52.5,20.1c-21.9,8.4-43.9,16.7-65.8,25.1c-19,7.3-37.9,14.6-56.8,21.8c-24.2,9.3-48.4,18.5-72.6,27.8
								c-20.9,8-41.9,16.1-62.8,24.1c-4.3,1.6-8.5,3.3-13.3,5.1c1.8,0.8,3.2,1.4,4.5,2.1c16.4,7.8,32.8,15.5,49.3,23.3
								c13.3,6.3,26.6,12.5,39.9,18.8c16.4,7.7,32.7,15.5,49.1,23.2c10.9,5.1,21.8,10.3,32.6,15.4c16.4,7.8,32.8,15.5,49.3,23.3
								c13.3,6.3,26.6,12.5,39.9,18.8c15.2,7.2,30.4,14.4,45.6,21.6c18.3,8.6,36.6,17.3,54.9,25.9c9.3,4.4,18.7,8.9,28,13.3
								c17.4,8.2,34.8,16.4,52.3,24.7c6.7,3.2,13.4,6.3,20,9.5c1.2,0.6,2.2,0.7,3.5,0c3.5-1.8,7.2-3.4,10.8-5.1
								c16.6-7.9,33.2-15.7,49.8-23.6c10.8-5.1,21.6-10.2,32.4-15.3c14.2-6.7,28.4-13.5,42.6-20.2c11.1-5.2,22.2-10.5,33.2-15.7
								c15.6-7.4,31.2-14.8,46.8-22.2c9.3-4.4,18.6-8.8,27.8-13.2c0.6-0.3,1.2-0.4,1.6-1C944.4,522.1,943.9,522,943.4,521.8z
								 M615.3,513c-47.4,21.1-119.1,9.8-129.3-13.1c-3-6.8,1.4-12.9,10.3-18.7c1.9-1.9,4.1-3.4,6.5-4.7c5.1-2.9,10.7-5,16.2-7.1
								c2.3-0.9,4.6-1.8,6.9-2.6c2.6-1.1,5.2-2.2,7.9-3.3c-0.3,0.2-0.6,0.4-1,0.6c11.6-4.5,23.3-8.9,34.9-13.4
								c8.3-3.2,16.7-6.4,25-9.6c1.1-0.4,1.9-0.3,2.9,0.2c8.5,4.1,16.9,8,25.4,12c12.7,6,25.3,12,38,17.9c0,0,0.1,0,0.1-0.1l13,6.2
								c2.6,1.2,5.3,2.5,8.3,3.9c0,0-0.1,0-0.1,0l1.3,0.6C662.1,493.4,630.7,506.2,615.3,513z"/>
						</g>
					</g>
					<g>
						<g class="st0">
							<path d="M659.1,471.2c-14.3,8.4-37.2,15.9-48.5,20.9c-35.3,15.7-86.7,10-94.3-7c-3.4-7.6,4.9-13.9,17.4-21.6
								C504,475.7,479.9,486.2,486,500c10.2,22.9,81.9,34.2,129.3,13.1c15.4-6.8,46.9-19.6,66.3-31L659.1,471.2z"/>
						</g>
						<g>
							<g>
								<path class="st2" d="M659.1,471.2c-14.3,8.4-37.2,15.9-48.5,20.9c-35.3,15.7-86.7,10-94.3-7c-3.4-7.6,4.9-13.9,17.4-21.6
									C504,475.7,479.9,486.2,486,500c10.2,22.9,81.9,34.2,129.3,13.1c15.4-6.8,46.9-19.6,66.3-31L659.1,471.2z"/>
							</g>
						</g>
					</g>
				</g>
			</g>
		</g>
		<g>
			
				<image style="overflow:visible;opacity:0.75;" width="935" height="538" xlink:href="79B1DFC5.png"  transform="matrix(1 0 0 1 719 217)">
			</image>
			<g>
				<g>
					<g>
						<g class="st0">
							<path d="M1524.1,490.6c-11.8-5.6-23.7-11.1-35.5-16.7c-12.6-5.9-25.1-11.8-37.7-17.7c-12.2-5.8-24.5-11.5-36.7-17.2
								c-15.2-7.1-30.3-14.3-45.5-21.4c-12.2-5.7-24.3-11.4-36.5-17.2c-14.9-7-29.8-14-44.7-21c-12.4-5.8-24.9-11.7-37.3-17.5
								c-17.4-8.2-34.9-16.4-52.3-24.6c-12.1-5.7-24.2-11.3-36.3-17.1c-16.6-7.8-33.1-15.6-49.7-23.4c-6.4-3-12.6-6.8-19.7-8.3
								c-0.1,0-0.3,0-0.4,0c-2.2,0.7-4.5,0.7-6.6,1.7c-8.8,3.8-17.7,7.4-26.6,11.1c-15.5,6.5-30.9,12.9-46.4,19.4
								c-18.7,7.9-37.5,15.7-56.2,23.5c-16.3,6.8-32.6,13.6-48.9,20.4c-20.5,8.6-41,17.1-61.5,25.7c-17.2,7.2-34.3,14.4-51.5,21.5
								c-1,0.4-2.1,0.8-2.4,2c0,0,0,0.1,0,0.1c0.1,0,0.2,0,0.4,0c0,0.1,0,0.3,0,0.4c-0.1,0-0.3,0-0.4,0c0,0,0,0.1,0,0.1
								c0.3,1.2,1.3,1.5,2.3,1.9c12.7,5.9,25.3,11.7,38,17.6c9,4.2,18.1,8.4,27.1,12.6c13.5,6.3,27.1,12.5,40.6,18.8
								c8.5,3.9,17,7.9,25.5,11.8c13.2,6,26.3,12.2,39.4,18.2c8.8,4.1,17.7,8.2,26.5,12.3c13.6,6.3,27.2,12.6,40.8,18.9
								c8.4,3.9,16.9,7.9,25.3,11.7c13.5,6.2,26.9,12.5,40.4,18.7c8.6,4,17.1,8,25.7,11.9c13.1,6.1,26.3,12.1,39.4,18.2
								c8.8,4.1,17.7,8.2,26.5,12.3c13.3,6.1,26.5,12.4,39.8,18.4c7.5,3.4,14.7,7.6,22.7,9.8c0.3,0,0.6,0,0.9,0
								c2.6-0.9,5.2-1.6,7.7-2.8c10-4.9,20.2-9.5,30.2-14.3c17.6-8.4,35.2-16.7,52.9-25c7-3.3,14-6.6,21-9.9
								c4.4-2.1,8.9-4.1,13.2-6.3c1-0.5,2.2-0.9,2-2.3c-0.1-1.2-1.2-1.6-2.1-2c-1.9-0.9-3.8-1.7-5.7-2.5
								c-12.3-5.5-24.6-10.9-36.9-16.4c-12.7-5.6-25.4-11.3-38.1-16.9c-12.3-5.4-24.6-10.9-36.9-16.4c-12.5-5.6-25-11-37.5-16.6
								c-7.5-3.3-15-6.7-22.5-9.9c-1.6-0.7-3.1-0.7-4.7,0.1c-2.1,1.1-4.3,2-6.4,3c-11.8,5.8-23.7,11.5-35.5,17.3
								c-5.3,2.6-10.6,5.1-15.8,7.6c-8.8,5.5-23.2,9.1-39.6,9.1c-16.1,0-30.4-3.5-39.2-8.9c0,0-0.1,0-0.1-0.1
								c-0.5-0.3-0.9-0.6-1.4-0.9c-0.1-0.1-0.1-0.1-0.2-0.2c-0.4-0.3-0.8-0.6-1.1-0.8c-0.1-0.1-0.2-0.1-0.2-0.2
								c-0.4-0.3-0.7-0.6-1-0.9c-0.1-0.1-0.1-0.1-0.2-0.2c-0.4-0.3-0.7-0.7-1.1-1c0,0,0,0,0,0c-0.4-0.4-0.7-0.7-1-1.1c0,0,0,0,0-0.1
								c-0.3-0.3-0.5-0.7-0.8-1c-0.1-0.1-0.1-0.2-0.2-0.3c-0.2-0.3-0.3-0.5-0.5-0.8c-0.1-0.1-0.1-0.3-0.2-0.4
								c-0.1-0.2-0.2-0.5-0.3-0.7c-0.1-0.1-0.1-0.3-0.2-0.4c-0.1-0.2-0.2-0.5-0.2-0.7c0-0.1-0.1-0.3-0.1-0.4
								c-0.1-0.3-0.1-0.5-0.2-0.8c0-0.1,0-0.3-0.1-0.4c0-0.4-0.1-0.8-0.1-1.2c0-0.4,0-0.8,0.1-1.2c0-0.1,0-0.2,0.1-0.4
								c0-0.3,0.1-0.6,0.2-0.9c0-0.1,0.1-0.3,0.1-0.4c0.1-0.3,0.2-0.6,0.3-0.9c0-0.1,0.1-0.2,0.1-0.3c0.1-0.3,0.3-0.6,0.4-0.9
								c0-0.1,0.1-0.1,0.1-0.2c0.9-1.6,2.2-3.2,3.8-4.6c1-1.3,2.4-2.4,4.2-3.3c5.1-2.5,10.3-4.9,15.4-7.3
								c15.1-7.2,30.1-14.3,45.2-21.5c11.3-5.4,22.7-10.8,34-16.2c15.1-7.2,30.3-14.4,45.4-21.6c9.7-4.6,19.4-9.1,29-13.8
								c8.9-4.8,22.3-7.8,37.3-7.8c26.8,0,48.5,9.7,48.5,21.7c0,3.1-1.5,6.1-4.2,8.8c-1,1.8-2.7,3.2-5.2,4.3c-1.5,0.7-3,1.4-4.5,2.1
								c-0.2,0.1-0.3,0.1-0.5,0.2c-11.2,5.1-22.2,10.4-33.4,15.6c-6,2.8-12,5.7-18.1,8.4c-2.9,1.3-5.8,2.6-8.6,4.1
								c-2,1.1-1.9,2.5,0.1,3.6c1.2,0.6,2.4,1.2,3.6,1.8c12.4,5.7,24.8,11.5,37.2,17.2c8,3.7,16.1,7.5,24.1,11.2
								c13.4,6.1,26.7,12.3,40,18.5c9,4.2,17.9,8.4,26.9,12.5c13.4,6.2,26.8,12.4,40.2,18.7c2.4,1.1,4.5,1.2,6.9,0
								c35.1-17.6,70.3-35.2,105.5-52.8c1.2-0.6,2.3-1.3,3-2.5c0-0.1,0-0.3,0-0.4C1526.5,492,1525.4,491.2,1524.1,490.6z"/>
						</g>
						<g>
							<path class="st3" d="M1524.1,490.6c-11.8-5.6-23.7-11.1-35.5-16.7c-12.6-5.9-25.1-11.8-37.7-17.7
								c-12.2-5.8-24.5-11.5-36.7-17.2c-15.2-7.1-30.3-14.3-45.5-21.4c-12.2-5.7-24.3-11.4-36.5-17.2c-14.9-7-29.8-14-44.7-21
								c-12.4-5.8-24.9-11.7-37.3-17.5c-17.4-8.2-34.9-16.4-52.3-24.6c-12.1-5.7-24.2-11.3-36.3-17.1c-16.6-7.8-33.1-15.6-49.7-23.4
								c-6.4-3-12.6-6.8-19.7-8.3c-0.1,0-0.3,0-0.4,0c-2.2,0.7-4.5,0.7-6.6,1.7c-8.8,3.8-17.7,7.4-26.6,11.1
								c-15.5,6.5-30.9,12.9-46.4,19.4c-18.7,7.9-37.5,15.7-56.2,23.5c-16.3,6.8-32.6,13.6-48.9,20.4c-20.5,8.6-41,17.1-61.5,25.7
								c-17.2,7.2-34.3,14.4-51.5,21.5c-1,0.4-2.1,0.8-2.4,2c0,0,0,0.1,0,0.1c0.1,0,0.2,0,0.4,0c0,0.1,0,0.3,0,0.4
								c-0.1,0-0.3,0-0.4,0c0,0,0,0.1,0,0.1c0.3,1.2,1.3,1.5,2.3,1.9c12.7,5.9,25.3,11.7,38,17.6c9,4.2,18.1,8.4,27.1,12.6
								c13.5,6.3,27.1,12.5,40.6,18.8c8.5,3.9,17,7.9,25.5,11.8c13.2,6,26.3,12.2,39.4,18.2c8.8,4.1,17.7,8.2,26.5,12.3
								c13.6,6.3,27.2,12.6,40.8,18.9c8.4,3.9,16.9,7.9,25.3,11.7c13.5,6.2,26.9,12.5,40.4,18.7c8.6,4,17.1,8,25.7,11.9
								c13.1,6.1,26.3,12.1,39.4,18.2c8.8,4.1,17.7,8.2,26.5,12.3c13.3,6.1,26.5,12.4,39.8,18.4c7.5,3.4,14.7,7.6,22.7,9.8
								c0.3,0,0.6,0,0.9,0c2.6-0.9,5.2-1.6,7.7-2.8c10-4.9,20.2-9.5,30.2-14.3c17.6-8.4,35.2-16.7,52.9-25c7-3.3,14-6.6,21-9.9
								c4.4-2.1,8.9-4.1,13.2-6.3c1-0.5,2.2-0.9,2-2.3c-0.1-1.2-1.2-1.6-2.1-2c-1.9-0.9-3.8-1.7-5.7-2.5
								c-12.3-5.5-24.6-10.9-36.9-16.4c-12.7-5.6-25.4-11.3-38.1-16.9c-12.3-5.4-24.6-10.9-36.9-16.4c-12.5-5.6-25-11-37.5-16.6
								c-7.5-3.3-15-6.7-22.5-9.9c-1.6-0.7-3.1-0.7-4.7,0.1c-2.1,1.1-4.3,2-6.4,3c-11.8,5.8-23.7,11.5-35.5,17.3
								c-5.3,2.6-10.6,5.1-15.8,7.6c-8.8,5.5-23.2,9.1-39.6,9.1c-16.1,0-30.4-3.5-39.2-8.9c0,0-0.1,0-0.1-0.1
								c-0.5-0.3-0.9-0.6-1.4-0.9c-0.1-0.1-0.1-0.1-0.2-0.2c-0.4-0.3-0.8-0.6-1.1-0.8c-0.1-0.1-0.2-0.1-0.2-0.2
								c-0.4-0.3-0.7-0.6-1-0.9c-0.1-0.1-0.1-0.1-0.2-0.2c-0.4-0.3-0.7-0.7-1.1-1c0,0,0,0,0,0c-0.4-0.4-0.7-0.7-1-1.1c0,0,0,0,0-0.1
								c-0.3-0.3-0.5-0.7-0.8-1c-0.1-0.1-0.1-0.2-0.2-0.3c-0.2-0.3-0.3-0.5-0.5-0.8c-0.1-0.1-0.1-0.3-0.2-0.4
								c-0.1-0.2-0.2-0.5-0.3-0.7c-0.1-0.1-0.1-0.3-0.2-0.4c-0.1-0.2-0.2-0.5-0.2-0.7c0-0.1-0.1-0.3-0.1-0.4
								c-0.1-0.3-0.1-0.5-0.2-0.8c0-0.1,0-0.3-0.1-0.4c0-0.4-0.1-0.8-0.1-1.2c0-0.4,0-0.8,0.1-1.2c0-0.1,0-0.2,0.1-0.4
								c0-0.3,0.1-0.6,0.2-0.9c0-0.1,0.1-0.3,0.1-0.4c0.1-0.3,0.2-0.6,0.3-0.9c0-0.1,0.1-0.2,0.1-0.3c0.1-0.3,0.3-0.6,0.4-0.9
								c0-0.1,0.1-0.1,0.1-0.2c0.9-1.6,2.2-3.2,3.8-4.6c1-1.3,2.4-2.4,4.2-3.3c5.1-2.5,10.3-4.9,15.4-7.3
								c15.1-7.2,30.1-14.3,45.2-21.5c11.3-5.4,22.7-10.8,34-16.2c15.1-7.2,30.3-14.4,45.4-21.6c9.7-4.6,19.4-9.1,29-13.8
								c8.9-4.8,22.3-7.8,37.3-7.8c26.8,0,48.5,9.7,48.5,21.7c0,3.1-1.5,6.1-4.2,8.8c-1,1.8-2.7,3.2-5.2,4.3c-1.5,0.7-3,1.4-4.5,2.1
								c-0.2,0.1-0.3,0.1-0.5,0.2c-11.2,5.1-22.2,10.4-33.4,15.6c-6,2.8-12,5.7-18.1,8.4c-2.9,1.3-5.8,2.6-8.6,4.1
								c-2,1.1-1.9,2.5,0.1,3.6c1.2,0.6,2.4,1.2,3.6,1.8c12.4,5.7,24.8,11.5,37.2,17.2c8,3.7,16.1,7.5,24.1,11.2
								c13.4,6.1,26.7,12.3,40,18.5c9,4.2,17.9,8.4,26.9,12.5c13.4,6.2,26.8,12.4,40.2,18.7c2.4,1.1,4.5,1.2,6.9,0
								c35.1-17.6,70.3-35.2,105.5-52.8c1.2-0.6,2.3-1.3,3-2.5c0-0.1,0-0.3,0-0.4C1526.5,492,1525.4,491.2,1524.1,490.6z"/>
						</g>
					</g>
					<g>
						<g class="st0">
							<path d="M1411.7,549.1c-13.4-6.3-26.8-12.5-40.2-18.7c-9-4.1-17.9-8.3-26.9-12.5c-13.3-6.2-26.7-12.4-40-18.5
								c-8.1-3.7-16.1-7.5-24.1-11.2c-12.4-5.7-24.8-11.5-37.2-17.2c-1.2-0.6-2.4-1.1-3.6-1.8c-2-1.1-2.1-2.5-0.1-3.6
								c2.8-1.5,5.7-2.8,8.6-4.1c6.1-2.8,12-5.7,18.1-8.4c11.1-5.1,22.2-10.4,33.4-15.6c0.2-0.1,0.3-0.1,0.5-0.2
								c1.5-0.7,3-1.4,4.5-2.1c2.5-1.1,4.2-2.5,5.2-4.3c2.7-2.7,4.2-5.7,4.2-8.8c0-12-21.7-21.7-48.5-21.7c-15,0-28.4,3.1-37.3,7.8
								c-9.6,4.7-19.3,9.2-29,13.8c-15.1,7.2-30.3,14.4-45.4,21.6c-11.3,5.4-22.7,10.8-34,16.2c-15.1,7.1-30.2,14.3-45.2,21.5
								c-5.1,2.5-10.3,4.8-15.4,7.3c-1.8,0.9-3.2,2-4.2,3.3c-1.6,1.5-2.9,3-3.8,4.6c0,0.1-0.1,0.1-0.1,0.2c-0.2,0.3-0.3,0.6-0.4,0.9
								c0,0.1-0.1,0.2-0.1,0.3c-0.1,0.3-0.2,0.6-0.3,0.9c0,0.1-0.1,0.3-0.1,0.4c-0.1,0.3-0.1,0.6-0.2,0.9c0,0.1,0,0.2-0.1,0.4
								c-0.1,0.4-0.1,0.8-0.1,1.2c0,0.4,0,0.8,0.1,1.2c0,0.1,0,0.3,0.1,0.4c0,0.3,0.1,0.5,0.2,0.8c0,0.1,0.1,0.3,0.1,0.4
								c0.1,0.3,0.2,0.5,0.2,0.7c0.1,0.1,0.1,0.3,0.2,0.4c0.1,0.2,0.2,0.5,0.3,0.7c0.1,0.1,0.1,0.3,0.2,0.4c0.1,0.3,0.3,0.5,0.5,0.8
								c0.1,0.1,0.1,0.2,0.2,0.3c0.2,0.3,0.5,0.7,0.8,1c0,0,0,0,0,0.1c0.3,0.4,0.6,0.8,1,1.1c0,0,0,0,0,0c0.3,0.4,0.7,0.7,1.1,1
								c0.1,0.1,0.1,0.1,0.2,0.2c0.3,0.3,0.7,0.6,1,0.9c0.1,0.1,0.2,0.1,0.2,0.2c0.4,0.3,0.7,0.6,1.1,0.8c0.1,0.1,0.1,0.1,0.2,0.2
								c0.4,0.3,0.9,0.6,1.4,0.9c0,0,0.1,0,0.1,0.1c8.8,5.4,23.1,8.9,39.2,8.9c16.3,0,30.8-3.6,39.6-9.1c5.3-2.6,10.6-5,15.8-7.6
								c11.8-5.8,23.7-11.5,35.5-17.3c2.1-1,4.3-1.9,6.4-3c1.6-0.8,3.1-0.8,4.7-0.1c7.5,3.2,15,6.6,22.5,9.9
								c12.5,5.5,25,11,37.5,16.6c12.3,5.5,24.6,10.9,36.9,16.4c12.7,5.6,25.4,11.3,38.1,16.9c12.3,5.4,24.6,10.9,36.9,16.4
								c1.9,0.8,3.8,1.7,5.7,2.5c1,0.4-0.8-2.9-0.7-1.7c0,0-42.3-23.1-43.7-23.7c-9.4-4.1-18.8-9.2-28.2-13.3
								c-9.7-4.2-19.4-9.4-29.1-13.7c-9.4-4.1-18.8-8.2-28.1-12.3c-9.5-4.2-19.1-8.3-28.6-12.5c-5.7-2.5-11.4-5.1-17.2-7.5
								c-1.2-0.5-2.4-0.5-3.6,0.1c-1.6,0.8-3.3,1.5-4.9,2.3c-9,4.4-18.1,8.7-27.1,13.1c-4,1.9-8.1,3.8-12.1,5.8
								c-6.7,4.2-17.7,6.9-30.2,6.9c2.5,0-23.2-2.7-30-6.8c0,0,0,0-0.1,0c-0.4-0.2-0.7-0.4-1-0.7c-0.1,0-0.1-0.1-0.2-0.1
								c-0.3-0.2-0.6-0.4-0.9-0.6c-0.1,0-0.1-0.1-0.2-0.1c-0.3-0.2-0.5-0.4-0.8-0.7c0,0-0.1-0.1-0.2-0.1c-0.3-0.3-0.6-0.5-0.8-0.8
								c0,0,0,0,0,0c-0.3-0.3-0.5-0.6-0.8-0.9c0,0,0,0,0,0c-0.2-0.3-0.4-0.5-0.6-0.8c-0.1-0.1-0.1-0.2-0.2-0.2
								c-0.1-0.2-0.3-0.4-0.4-0.6c-0.1-0.1-0.1-0.2-0.2-0.3c-0.1-0.2-0.2-0.4-0.3-0.6c0-0.1-0.1-0.2-0.1-0.3
								c-0.1-0.2-0.1-0.4-0.2-0.6c0-0.1-0.1-0.2-0.1-0.3c-0.1-0.2-0.1-0.4-0.1-0.6c0-0.1,0-0.2,0-0.3c0-0.3-0.1-0.6-0.1-0.9
								c0-0.3,0-0.6,0.1-0.9c0-0.1,0-0.2,0-0.3c0-0.2,0.1-0.4,0.1-0.7c0-0.1,0.1-0.2,0.1-0.3c0.1-0.2,0.1-0.4,0.2-0.6
								c0-0.1,0.1-0.2,0.1-0.3c0.1-0.2,0.2-0.5,0.3-0.7c0-0.1,0.1-0.1,0.1-0.2c0.7-1.2,1.7-2.4,2.9-3.5c0.7-1,1.8-1.8,3.2-2.5
								c3.9-1.9,7.9-3.7,11.8-5.5c11.5-5.4,23-10.8,34.5-16.2c8.7-4.1,17.3-8.1,26-12.2c11.6-5.4,23.1-10.9,34.7-16.3
								c7.4-3.5,14.8-6.9,22.1-10.4c6.8-3.6,17-5.9,28.5-5.9c20.5,0,37.1,7.3,37.1,16.4c0,2.4-1.1,4.6-3.2,6.6
								c-0.7,1.4-2.1,2.4-3.9,3.3c-1.2,0.5-2.3,1-3.5,1.6c-0.1,0.1-0.2,0.1-0.4,0.2c-8.5,3.9-17,7.9-25.5,11.7
								c-4.6,2.1-9.2,4.3-13.8,6.4c-2.2,1-4.4,2-6.6,3.1c-1.5,0.8-1.5,2.8,0.1,3.6c0.9,0.5,1.8,0.9,2.7,1.3
								c9.5,4.3,18.9,8.7,28.4,13c6.1,2.8,12.3,5.6,18.4,8.4c10.2,4.6,20.4,9.3,30.6,14c6.9,3.1,13.7,6.3,20.6,9.4
								c10.2,4.7,20.5,9.4,30.7,14.1C1365.5,529.4,1414.2,550.2,1411.7,549.1z"/>
						</g>
						<g>
							<path class="st4" d="M1411.7,549.1c-13.4-6.3-26.8-12.5-40.2-18.7c-9-4.1-17.9-8.3-26.9-12.5c-13.3-6.2-26.7-12.4-40-18.5
								c-8.1-3.7-16.1-7.5-24.1-11.2c-12.4-5.7-24.8-11.5-37.2-17.2c-1.2-0.6-2.4-1.1-3.6-1.8c-2-1.1-2.1-2.5-0.1-3.6
								c2.8-1.5,5.7-2.8,8.6-4.1c6.1-2.8,12-5.7,18.1-8.4c11.1-5.1,22.2-10.4,33.4-15.6c0.2-0.1,0.3-0.1,0.5-0.2
								c1.5-0.7,3-1.4,4.5-2.1c2.5-1.1,4.2-2.5,5.2-4.3c2.7-2.7,4.2-5.7,4.2-8.8c0-12-21.7-21.7-48.5-21.7c-15,0-28.4,3.1-37.3,7.8
								c-9.6,4.7-19.3,9.2-29,13.8c-15.1,7.2-30.3,14.4-45.4,21.6c-11.3,5.4-22.7,10.8-34,16.2c-15.1,7.1-30.2,14.3-45.2,21.5
								c-5.1,2.5-10.3,4.8-15.4,7.3c-1.8,0.9-3.2,2-4.2,3.3c-1.6,1.5-2.9,3-3.8,4.6c0,0.1-0.1,0.1-0.1,0.2c-0.2,0.3-0.3,0.6-0.4,0.9
								c0,0.1-0.1,0.2-0.1,0.3c-0.1,0.3-0.2,0.6-0.3,0.9c0,0.1-0.1,0.3-0.1,0.4c-0.1,0.3-0.1,0.6-0.2,0.9c0,0.1,0,0.2-0.1,0.4
								c-0.1,0.4-0.1,0.8-0.1,1.2c0,0.4,0,0.8,0.1,1.2c0,0.1,0,0.3,0.1,0.4c0,0.3,0.1,0.5,0.2,0.8c0,0.1,0.1,0.3,0.1,0.4
								c0.1,0.3,0.2,0.5,0.2,0.7c0.1,0.1,0.1,0.3,0.2,0.4c0.1,0.2,0.2,0.5,0.3,0.7c0.1,0.1,0.1,0.3,0.2,0.4c0.1,0.3,0.3,0.5,0.5,0.8
								c0.1,0.1,0.1,0.2,0.2,0.3c0.2,0.3,0.5,0.7,0.8,1c0,0,0,0,0,0.1c0.3,0.4,0.6,0.8,1,1.1c0,0,0,0,0,0c0.3,0.4,0.7,0.7,1.1,1
								c0.1,0.1,0.1,0.1,0.2,0.2c0.3,0.3,0.7,0.6,1,0.9c0.1,0.1,0.2,0.1,0.2,0.2c0.4,0.3,0.7,0.6,1.1,0.8c0.1,0.1,0.1,0.1,0.2,0.2
								c0.4,0.3,0.9,0.6,1.4,0.9c0,0,0.1,0,0.1,0.1c8.8,5.4,23.1,8.9,39.2,8.9c16.3,0,30.8-3.6,39.6-9.1c5.3-2.6,10.6-5,15.8-7.6
								c11.8-5.8,23.7-11.5,35.5-17.3c2.1-1,4.3-1.9,6.4-3c1.6-0.8,3.1-0.8,4.7-0.1c7.5,3.2,15,6.6,22.5,9.9
								c12.5,5.5,25,11,37.5,16.6c12.3,5.5,24.6,10.9,36.9,16.4c12.7,5.6,25.4,11.3,38.1,16.9c12.3,5.4,24.6,10.9,36.9,16.4
								c1.9,0.8,3.8,1.7,5.7,2.5c1,0.4-0.8-2.9-0.7-1.7c0,0-42.3-23.1-43.7-23.7c-9.4-4.1-18.8-9.2-28.2-13.3
								c-9.7-4.2-19.4-9.4-29.1-13.7c-9.4-4.1-18.8-8.2-28.1-12.3c-9.5-4.2-19.1-8.3-28.6-12.5c-5.7-2.5-11.4-5.1-17.2-7.5
								c-1.2-0.5-2.4-0.5-3.6,0.1c-1.6,0.8-3.3,1.5-4.9,2.3c-9,4.4-18.1,8.7-27.1,13.1c-4,1.9-8.1,3.8-12.1,5.8
								c-6.7,4.2-17.7,6.9-30.2,6.9c2.5,0-23.2-2.7-30-6.8c0,0,0,0-0.1,0c-0.4-0.2-0.7-0.4-1-0.7c-0.1,0-0.1-0.1-0.2-0.1
								c-0.3-0.2-0.6-0.4-0.9-0.6c-0.1,0-0.1-0.1-0.2-0.1c-0.3-0.2-0.5-0.4-0.8-0.7c0,0-0.1-0.1-0.2-0.1c-0.3-0.3-0.6-0.5-0.8-0.8
								c0,0,0,0,0,0c-0.3-0.3-0.5-0.6-0.8-0.9c0,0,0,0,0,0c-0.2-0.3-0.4-0.5-0.6-0.8c-0.1-0.1-0.1-0.2-0.2-0.2
								c-0.1-0.2-0.3-0.4-0.4-0.6c-0.1-0.1-0.1-0.2-0.2-0.3c-0.1-0.2-0.2-0.4-0.3-0.6c0-0.1-0.1-0.2-0.1-0.3
								c-0.1-0.2-0.1-0.4-0.2-0.6c0-0.1-0.1-0.2-0.1-0.3c-0.1-0.2-0.1-0.4-0.1-0.6c0-0.1,0-0.2,0-0.3c0-0.3-0.1-0.6-0.1-0.9
								c0-0.3,0-0.6,0.1-0.9c0-0.1,0-0.2,0-0.3c0-0.2,0.1-0.4,0.1-0.7c0-0.1,0.1-0.2,0.1-0.3c0.1-0.2,0.1-0.4,0.2-0.6
								c0-0.1,0.1-0.2,0.1-0.3c0.1-0.2,0.2-0.5,0.3-0.7c0-0.1,0.1-0.1,0.1-0.2c0.7-1.2,1.7-2.4,2.9-3.5c0.7-1,1.8-1.8,3.2-2.5
								c3.9-1.9,7.9-3.7,11.8-5.5c11.5-5.4,23-10.8,34.5-16.2c8.7-4.1,17.3-8.1,26-12.2c11.6-5.4,23.1-10.9,34.7-16.3
								c7.4-3.5,14.8-6.9,22.1-10.4c6.8-3.6,17-5.9,28.5-5.9c20.5,0,37.1,7.3,37.1,16.4c0,2.4-1.1,4.6-3.2,6.6
								c-0.7,1.4-2.1,2.4-3.9,3.3c-1.2,0.5-2.3,1-3.5,1.6c-0.1,0.1-0.2,0.1-0.4,0.2c-8.5,3.9-17,7.9-25.5,11.7
								c-4.6,2.1-9.2,4.3-13.8,6.4c-2.2,1-4.4,2-6.6,3.1c-1.5,0.8-1.5,2.8,0.1,3.6c0.9,0.5,1.8,0.9,2.7,1.3
								c9.5,4.3,18.9,8.7,28.4,13c6.1,2.8,12.3,5.6,18.4,8.4c10.2,4.6,20.4,9.3,30.6,14c6.9,3.1,13.7,6.3,20.6,9.4
								c10.2,4.7,20.5,9.4,30.7,14.1C1365.5,529.4,1414.2,550.2,1411.7,549.1z"/>
						</g>
					</g>
				</g>
			</g>
		</g>
		<g>
			
				<image style="overflow:visible;opacity:0.75;" width="893" height="447" xlink:href="79B1DFCB.png"  transform="matrix(1 0 0 1 665 31)">
			</image>
			<g>
				<g>
					<g>
						<g class="st0">
							<path d="M1129.2,268.1l28.2-10.6c-7,2.6,79.4-20.2,12-47.1c0,0-33.3-17.6-89.6,7.4l-183.8,71.1l200-68.8
								c0,0,37.9-11.1,59.1,1.8C1176.3,234.9,1182.7,240.4,1129.2,268.1z"/>
						</g>
						<g>
							<path class="st5" d="M1129.2,268.1l28.2-10.6c-7,2.6,79.4-20.2,12-47.1c0,0-33.3-17.6-89.6,7.4l-183.8,71.1l200-68.8
								c0,0,37.9-11.1,59.1,1.8C1176.3,234.9,1182.7,240.4,1129.2,268.1z"/>
						</g>
					</g>
					<g>
						<g class="st0">
							<path d="M1415.3,282.5c-6.5-3.1-13.1-6.2-19.6-9.3c-6.4-3-12.8-6.1-19.2-9.1c-6.4-3-12.9-6.1-19.3-9.1
								c-6.4-3-12.8-6-19.2-9.1c-6.4-3-12.9-6.1-19.3-9.1c-6.6-3.1-13.2-6.2-19.7-9.3c-6.4-3-12.8-6.1-19.2-9.1
								c-6.5-3-12.9-6.1-19.3-9.1c-6.4-3-12.8-6-19.2-9.1c-7.9-3.7-15.8-7.4-23.6-11.1c-6.4-3-12.8-6-19.1-9
								c-6.5-3-12.9-6.1-19.3-9.1c-6.4-3-12.8-6.1-19.2-9.1c-6.4-3-12.9-6.1-19.3-9.1c-6.6-3.1-13.2-6.2-19.7-9.3
								c-6.4-3-12.8-6-19.2-9.1c-7.7-3.6-15.4-7.3-23.1-10.9c-6.4-3-12.8-6-19.1-9c-7.3-3.5-14.7-6.9-22-10.4
								c-1.5-0.7-3-1.5-4.7-1.5c-0.9,0.2-1.9,0.2-2.8,0.6c-1.9,0.8-3.8,1.5-5.7,2.2c-12.8,5-25.6,9.9-38.3,14.8
								c-15.4,6-30.7,11.9-46.1,17.8c-15.4,6-30.8,11.9-46.2,17.9c-10.8,4.2-21.6,8.3-32.5,12.5c-15,5.8-30,11.5-45,17.3
								c-10.8,4.1-21.6,8.3-32.4,12.4c-14.8,5.7-29.5,11.3-44.3,17c-0.5,0.2-0.9,0.3-1.1,0.9c0,0.7,0.6,1,1.1,1.2
								c2.4,1.1,4.8,2.3,7.2,3.4c6.7,3.2,13.4,6.3,20.1,9.5c6.9,3.3,13.8,6.5,20.6,9.8c6.7,3.2,13.5,6.4,20.2,9.6
								c6.7,3.2,13.4,6.3,20.1,9.5c8.1,3.9,16.3,7.7,24.4,11.6c6.7,3.2,13.4,6.3,20.1,9.5c7.2,3.4,14.4,6.8,21.6,10.3
								c0.8,0.4,1.6,0.4,2.4,0.1c2.5-1,5-1.9,7.4-2.9c9.8-3.7,19.6-7.5,29.3-11.2l-36.9,12.7l183.8-71.1
								c56.4-24.9,89.6-7.4,89.6-7.4c67.4,27-19,49.7-12,47.1l-20.5,7.7l-0.2,0.1l0,0c-2,0.8-4,1.5-6,2.3c-0.5,0.2-1.1,0.4-1.1,1
								c0,0.7,0.6,0.8,1.1,1.1c5.1,2.4,10.2,4.8,15.3,7.2c6.1,2.8,12.1,5.7,18.1,8.5c8.7,4.1,17.4,8.2,26.2,12.3
								c6,2.8,12.1,5.7,18.1,8.5c7.4,3.5,14.9,7,22.4,10.5c6.1,2.9,12.2,5.7,18.2,8.6c8.7,4.1,17.4,8.2,26.2,12.3
								c6.1,2.8,12.1,5.7,18.1,8.5c3.2,1.5,6.4,3,9.6,4.5l128.1-60.9C1425.8,287.5,1420.5,285,1415.3,282.5z"/>
						</g>
						<g>
							<path class="st3" d="M1415.3,282.5c-6.5-3.1-13.1-6.2-19.6-9.3c-6.4-3-12.8-6.1-19.2-9.1c-6.4-3-12.9-6.1-19.3-9.1
								c-6.4-3-12.8-6-19.2-9.1c-6.4-3-12.9-6.1-19.3-9.1c-6.6-3.1-13.2-6.2-19.7-9.3c-6.4-3-12.8-6.1-19.2-9.1
								c-6.5-3-12.9-6.1-19.3-9.1c-6.4-3-12.8-6-19.2-9.1c-7.9-3.7-15.8-7.4-23.6-11.1c-6.4-3-12.8-6-19.1-9
								c-6.5-3-12.9-6.1-19.3-9.1c-6.4-3-12.8-6.1-19.2-9.1c-6.4-3-12.9-6.1-19.3-9.1c-6.6-3.1-13.2-6.2-19.7-9.3
								c-6.4-3-12.8-6-19.2-9.1c-7.7-3.6-15.4-7.3-23.1-10.9c-6.4-3-12.8-6-19.1-9c-7.3-3.5-14.7-6.9-22-10.4
								c-1.5-0.7-3-1.5-4.7-1.5c-0.9,0.2-1.9,0.2-2.8,0.6c-1.9,0.8-3.8,1.5-5.7,2.2c-12.8,5-25.6,9.9-38.3,14.8
								c-15.4,6-30.7,11.9-46.1,17.8c-15.4,6-30.8,11.9-46.2,17.9c-10.8,4.2-21.6,8.3-32.5,12.5c-15,5.8-30,11.5-45,17.3
								c-10.8,4.1-21.6,8.3-32.4,12.4c-14.8,5.7-29.5,11.3-44.3,17c-0.5,0.2-0.9,0.3-1.1,0.9c0,0.7,0.6,1,1.1,1.2
								c2.4,1.1,4.8,2.3,7.2,3.4c6.7,3.2,13.4,6.3,20.1,9.5c6.9,3.3,13.8,6.5,20.6,9.8c6.7,3.2,13.5,6.4,20.2,9.6
								c6.7,3.2,13.4,6.3,20.1,9.5c8.1,3.9,16.3,7.7,24.4,11.6c6.7,3.2,13.4,6.3,20.1,9.5c7.2,3.4,14.4,6.8,21.6,10.3
								c0.8,0.4,1.6,0.4,2.4,0.1c2.5-1,5-1.9,7.4-2.9c9.8-3.7,19.6-7.5,29.3-11.2l-36.9,12.7l183.8-71.1
								c56.4-24.9,89.6-7.4,89.6-7.4c67.4,27-19,49.7-12,47.1l-20.5,7.7l-0.2,0.1l0,0c-2,0.8-4,1.5-6,2.3c-0.5,0.2-1.1,0.4-1.1,1
								c0,0.7,0.6,0.8,1.1,1.1c5.1,2.4,10.2,4.8,15.3,7.2c6.1,2.8,12.1,5.7,18.1,8.5c8.7,4.1,17.4,8.2,26.2,12.3
								c6,2.8,12.1,5.7,18.1,8.5c7.4,3.5,14.9,7,22.4,10.5c6.1,2.9,12.2,5.7,18.2,8.6c8.7,4.1,17.4,8.2,26.2,12.3
								c6.1,2.8,12.1,5.7,18.1,8.5c3.2,1.5,6.4,3,9.6,4.5l128.1-60.9C1425.8,287.5,1420.5,285,1415.3,282.5z"/>
						</g>
					</g>
				</g>
			</g>
		</g>
	</g>
	<g>
		<g>
			<rect x="91.8" y="562.2" width="1071" height="7"/>
			<rect x="1547.8" y="562.2" width="163" height="7"/>
		</g>
		<g>
			<path d="M1234.1,548.4c-2.6-2.9-5.4-5-8.4-6.4c-3-1.4-6.3-2.1-9.9-2.1c-2.9,0-5.7,0.6-8.5,1.8s-5.2,2.8-7.2,5
				c-2.1,2.2-3.7,4.7-4.7,7.4s-1.6,5.7-1.6,9c0,2.6,0.3,5,0.9,7.1c0.6,2.2,1.6,4.2,2.8,6c2.2,3.2,4.9,5.6,8.1,7.3
				c3.2,1.7,6.7,2.6,10.4,2.6c3.5,0,6.8-0.7,9.8-2.2c3-1.5,5.8-3.7,8.2-6.6v8.8c-2.7,2-5.7,3.5-8.8,4.5c-3.1,1-6.4,1.5-9.8,1.5
				c-2.9,0-5.7-0.4-8.5-1.3c-2.8-0.9-5.3-2.1-7.7-3.8c-4-2.8-7.1-6.3-9.2-10.4c-2.1-4.1-3.2-8.6-3.2-13.5c0-4.3,0.7-8.2,2.1-11.7
				c1.4-3.5,3.6-6.7,6.5-9.5c2.8-2.7,5.9-4.8,9.3-6.1s7.1-2,11.2-2c3.2,0,6.3,0.5,9.2,1.5s5.9,2.5,8.8,4.5V548.4z"/>
			<path d="M1243.1,590.7v-55.6h6.5v55.6H1243.1z"/>
			<path d="M1278.2,532.9l25,57.8h-7.1l-7.1-17.1h-21.5l-7.1,17.1h-7.1L1278.2,532.9z M1278.2,547.6l-8.8,20.5h17.5L1278.2,547.6z"
				/>
			<path d="M1309.3,587c0-1.2,0.4-2.3,1.3-3.2c0.9-0.9,1.9-1.3,3.2-1.3c1.3,0,2.3,0.4,3.2,1.3s1.3,1.9,1.3,3.2
				c0,1.2-0.4,2.3-1.3,3.1c-0.9,0.8-2,1.3-3.2,1.3c-1.3,0-2.3-0.4-3.2-1.3C1309.7,589.3,1309.3,588.2,1309.3,587z"/>
			<path d="M1350,590.7v-55.6h6.5v49.3h20.8v6.3H1350z"/>
			<path d="M1388.3,590.7v-49.3h-15.6v-6.3h37.7v6.3H1395v49.3H1388.3z"/>
			<path d="M1415.5,590.7v-55.6h10.6c7.8,0,13.3,0.4,16.5,1.2c3.2,0.8,6,2.1,8.4,4c3.2,2.5,5.6,5.6,7.2,9.4
				c1.6,3.8,2.4,8.2,2.4,13.2c0,5-0.8,9.3-2.4,13.2c-1.6,3.8-4,6.9-7.2,9.4c-2.4,1.9-5.1,3.2-8.2,4c-3.1,0.8-7.9,1.2-14.3,1.2h-2.4
				H1415.5z M1422.1,584.5h4.2c6.8,0,11.5-0.3,14.1-0.9c2.6-0.6,4.8-1.6,6.5-3.1c2.3-1.9,4-4.3,5.2-7.3c1.2-3,1.8-6.4,1.8-10.3
				c0-3.9-0.6-7.3-1.7-10.3c-1.2-2.9-2.9-5.4-5.2-7.3c-1.7-1.5-3.9-2.5-6.6-3.1c-2.7-0.6-7.3-0.9-14-0.9h-4.2V584.5z"/>
			<path d="M1485.2,532.9l25,57.8h-7.1l-7.1-17.1h-21.5l-7.1,17.1h-7.1L1485.2,532.9z M1485.2,547.6l-8.8,20.5h17.5L1485.2,547.6z"
				/>
			<path d="M1516.3,587c0-1.2,0.4-2.3,1.3-3.2c0.9-0.9,1.9-1.3,3.2-1.3c1.3,0,2.3,0.4,3.2,1.3c0.9,0.9,1.3,1.9,1.3,3.2
				c0,1.2-0.4,2.3-1.3,3.1c-0.9,0.8-2,1.3-3.2,1.3c-1.3,0-2.3-0.4-3.2-1.3C1516.7,589.3,1516.3,588.2,1516.3,587z"/>
		</g>
	</g>
	<g>
		<g>
			<g>
				<g>
					
						<image style="overflow:visible;opacity:0.75;" width="175" height="183" xlink:href="79B1DFCD.png"  transform="matrix(1 0 0 1 122 322)">
					</image>
					<g>
						<path class="st6" d="M164.2,394.3c1.5-25.4,24.3-33.1,46.4-33.1c19.7,0,43.4,4.4,43.4,28.1v51.4c0,9,1,18,3.4,22h-27.5
							c-1-3.1-1.7-6.3-1.9-9.6c-8.6,9-21.2,12.2-33.3,12.2c-18.7,0-33.6-9.4-33.6-29.6c0-22.4,16.8-27.7,33.6-30
							c16.6-2.5,32.1-1.9,32.1-13c0-11.7-8-13.4-17.6-13.4c-10.3,0-17,4.2-18,14.9H164.2z M226.9,411.5c-4.6,4-14.1,4.2-22.6,5.7
							c-8.4,1.7-16.1,4.6-16.1,14.5c0,10.1,7.8,12.6,16.6,12.6c21.2,0,22-16.8,22-22.7V411.5z"/>
					</g>
				</g>
				<g>
					
						<image style="overflow:visible;opacity:0.75;" width="141" height="180" xlink:href="79B1DFCF.png"  transform="matrix(1 0 0 1 49 322)">
					</image>
					<g>
						<path class="st6" d="M88.2,363.9H113v18.3h0.4c5-12.4,18.3-21,31.5-21c1.9,0,4.2,0.4,5.9,1v29c-2.5-0.6-6.5-1-9.7-1
							c-19.9,0-24.9,10.6-24.9,28v44.5H88.2V363.9z"/>
					</g>
				</g>
				<g>
					
						<image style="overflow:visible;opacity:0.75;" width="172" height="212" xlink:href="79B1DFCC.png"  transform="matrix(1 0 0 1 241 293)">
					</image>
					<g>
						<path class="st6" d="M373.4,462.7h-25.8v-13.8H347c-6.9,11.1-18.7,16.4-30.2,16.4c-28.9,0-36.1-16.2-36.1-40.7v-60.8h27.1V415
							c0,16.2,4.8,23.3,17.4,23.3c14.7,0,21-7.3,21-27.3v-47.1h27.1V462.7z M332.5,359.2h-18.9l18.3-27.1h30L332.5,359.2z"/>
					</g>
				</g>
				<g>
					
						<image style="overflow:visible;opacity:0.75;" width="106" height="215" xlink:href="79B1DFC4.png"  transform="matrix(1 0 0 1 367 287)">
					</image>
					<g>
						<path class="st6" d="M406.1,326.2h27.1v136.5h-27.1V326.2z"/>
					</g>
				</g>
			</g>
			<g>
				<g>
					
						<image style="overflow:visible;opacity:0.75;" width="176" height="183" xlink:href="79B1DFC6.png"  transform="matrix(1 0 0 1 125 317)">
					</image>
					<g>
						<path class="st7" d="M167.9,392.6c1.5-25.4,24.3-36.1,46.4-36.1c19.7,0,43.4,4.4,43.4,28.1V436c0,9,1,18,3.4,22h-27.5
							c-1-3.1-1.7-6.3-1.9-9.6c-8.6,9-21.2,12.2-33.3,12.2c-18.7,0-33.6-9.4-33.6-29.6c0-22.4,16.8-27.7,33.6-30
							c16.6-2.5,32.1,0.1,32.1-11c0-11.7-8-12.4-17.6-12.4c-10.3,0-17,4.2-18,14.9H167.9z M230.6,406.8c-4.6,4-14.1,4.2-22.6,5.7
							c-8.4,1.7-16.1,4.6-16.1,14.5c0,10.1,7.8,12.6,16.6,12.6c21.2,0,22-16.8,22-22.7V406.8z"/>
					</g>
				</g>
				<g>
					
						<image style="overflow:visible;opacity:0.75;" width="142" height="180" xlink:href="79B1DFC2.png"  transform="matrix(1 0 0 1 52 317)">
					</image>
					<g>
						<path class="st7" d="M91.9,359.2h24.9v18.3h0.4c5-12.4,18.3-21,31.5-21c1.9,0,4.2,0.4,5.9,1v29c-2.5-0.6-6.5-1-9.7-1
							c-19.9,0-24.9,10.6-24.9,28V458H91.9V359.2z"/>
					</g>
				</g>
				<g>
					
						<image style="overflow:visible;opacity:0.75;" width="172" height="212" xlink:href="96B557C4.png"  transform="matrix(1 0 0 1 245 288)">
					</image>
					<g>
						<path class="st7" d="M377.1,458h-25.8v-13.8h-0.6c-6.9,11.1-18.7,16.4-30.2,16.4c-28.9,0-36.1-16.2-36.1-40.7v-60.8h27.1v51.1
							c0,16.2,4.8,23.3,17.4,23.3c14.7,0,21-7.3,21-27.3v-47.1h27.1V458z M336.2,354.5h-18.9l18.3-27.1h30L336.2,354.5z"/>
					</g>
				</g>
				<g>
					
						<image style="overflow:visible;opacity:0.75;" width="106" height="215" xlink:href="96B557C3.png"  transform="matrix(1 0 0 1 370 282)">
					</image>
					<g>
						<path class="st7" d="M409.8,321.5H437V458h-27.1V321.5z"/>
					</g>
				</g>
			</g>
		</g>
		<g>
			<g>
				<g>
					
						<image style="overflow:visible;opacity:0.75;" width="175" height="183" xlink:href="96B557DC.png"  transform="matrix(1 0 0 1 823 322)">
					</image>
					<g>
						<path class="st6" d="M865.4,397.3c1.5-25.4,24.3-36.1,46.4-36.1c19.7,0,43.4,4.4,43.4,28.1v51.4c0,9,1,18,3.4,22h-27.5
							c-1-3.1-1.7-6.3-1.9-9.6c-8.6,9-21.2,12.2-33.3,12.2c-18.7,0-33.6-9.4-33.6-29.6c0-22.4,16.8-27.7,33.6-30
							c16.6-2.5,32.1,1.1,32.1-10c0-11.7-8-13.4-17.6-13.4c-10.3,0-17,4.2-18,14.9H865.4z M928.1,410.6c-4.6,4-14.1,4.2-22.6,5.7
							c-8.4,1.7-16.1,4.6-16.1,14.5c0,10.1,7.8,12.6,16.6,12.6c21.2,0,22-16.8,22-22.7V410.6z"/>
					</g>
				</g>
				<g>
					
						<image style="overflow:visible;opacity:0.75;" width="176" height="183" xlink:href="96B557DF.png"  transform="matrix(1 0 0 1 476 322)">
					</image>
					<g>
						<path class="st6" d="M585.4,398.7c-1.7-11.1-8.8-15.1-20.1-15.1c-17.4,0-23.1,15.7-23.1,30.2c0,14.1,5.5,27.4,22.6,27.4
							c12.6,0,19.9-4.3,21.6-16.3h26.2c-3.4,26.2-21.6,40.5-47.6,40.5c-29.8,0-49.9-21-49.9-50.6c0-30.8,18.3-53.5,50.5-53.5
							c23.3,0,44.7,12.2,46.4,37.5H585.4z"/>
					</g>
				</g>
				<g>
					
						<image style="overflow:visible;opacity:0.75;" width="184" height="183" xlink:href="96B557DD.png"  transform="matrix(1 0 0 1 590 322)">
					</image>
					<g>
						<path class="st6" d="M682,361.2c32.1,0,52.7,20.6,52.7,52.2c0,31.3-20.6,52-52.7,52c-31.9,0-52.5-20.6-52.5-52
							C629.5,381.9,650.1,361.2,682,361.2z M682,437.9c19.1,0,24.8-13.2,24.8-26.3c0-13.2-5.7-26.4-24.8-26.4
							c-18.9,0-24.6,13.2-24.6,26.4C657.4,424.7,663.1,437.9,682,437.9z"/>
					</g>
				</g>
				<g>
					
						<image style="overflow:visible;opacity:0.75;" width="177" height="215" xlink:href="96B557C2.png"  transform="matrix(1 0 0 1 719 287)">
					</image>
					<g>
						<path class="st6" d="M758.4,326.2h27.1v73.2l34.2-35.6h32.1l-37.3,36.3l41.5,62.5h-32.9L796,418.6l-10.5,10.1v34h-27.1V326.2z
							"/>
					</g>
				</g>
			</g>
			<g>
				<g>
					
						<image style="overflow:visible;opacity:0.75;" width="177" height="183" xlink:href="96B557C5.png"  transform="matrix(1 0 0 1 827 317)">
					</image>
					<g>
						<path class="st7" d="M869.2,392.6c1.5-25.4,24.3-36.1,46.4-36.1c19.7,0,43.4,4.4,43.4,28.1V436c0,9,3,18,5.4,22h-27.5
							c-1-3.1-3.7-6.3-3.9-9.6c-8.6,9-21.2,12.2-33.3,12.2c-18.7,0-33.6-9.4-33.6-29.6c0-22.4,16.8-27.7,33.6-30
							c16.6-2.5,32.1,1.1,32.1-10c0-11.7-8-13.4-17.6-13.4c-10.3,0-17,4.2-18,14.9H869.2z M931.9,405.9c-4.6,4-14.1,4.2-22.6,5.7
							c-8.4,1.7-16.1,4.6-16.1,14.5c0,10.1,7.8,12.6,16.6,12.6c21.2,0,22-16.8,22-22.7V405.9z"/>
					</g>
				</g>
				<g>
					
						<image style="overflow:visible;opacity:0.75;" width="177" height="183" xlink:href="96B557C7.png"  transform="matrix(1 0 0 1 479 317)">
					</image>
					<g>
						<path class="st7" d="M589.2,394c-1.7-11.1-8.8-15.1-20.1-15.1c-17.4,0-23.1,15.7-23.1,30.2c0,14.1,5.5,27.4,22.6,27.4
							c12.6,0,19.9-4.3,21.6-16.3h26.2c-3.4,26.2-21.6,40.5-47.6,40.5c-29.8,0-49.9-21-49.9-50.6c0-30.8,18.3-53.5,50.5-53.5
							c23.3,0,44.7,12.2,46.4,37.5H589.2z"/>
					</g>
				</g>
				<g>
					
						<image style="overflow:visible;opacity:0.75;" width="184" height="183" xlink:href="96B557C0.png"  transform="matrix(1 0 0 1 594 317)">
					</image>
					<g>
						<path class="st7" d="M685.7,356.5c32.1,0,52.7,20.6,52.7,52.2c0,31.3-20.6,52-52.7,52c-31.9,0-52.5-20.6-52.5-52
							C633.2,377.1,653.9,356.5,685.7,356.5z M685.7,433.2c19.1,0,24.8-13.2,24.8-26.3c0-13.2-5.7-26.4-24.8-26.4
							c-18.9,0-24.6,13.2-24.6,26.4C661.2,420,666.9,433.2,685.7,433.2z"/>
					</g>
				</g>
				<g>
					
						<image style="overflow:visible;opacity:0.75;" width="176" height="215" xlink:href="96B557C1.png"  transform="matrix(1 0 0 1 723 282)">
					</image>
					<g>
						<path class="st7" d="M762.1,321.5h27.1v73.2l34.2-35.6h32.1l-37.3,36.3l41.5,62.5h-32.9l-27.1-44.2L789.3,424v34h-27.1V321.5z
							"/>
					</g>
				</g>
			</g>
		</g>
		<g>
			<g>
				<g>
					
						<image style="overflow:visible;opacity:0.75;" width="176" height="183" xlink:href="96B557E7.png"  transform="matrix(1 0 0 1 1570 322)">
					</image>
					<g>
						<path class="st6" d="M1612.8,397.3c1.5-25.4,24.3-36.1,46.4-36.1c19.7,0,43.4,4.4,43.4,28.1v51.4c0,9,1,18,3.4,22h-27.5
							c-1-3.1-1.7-6.3-1.9-9.6c-8.6,9-21.2,12.2-33.3,12.2c-18.7,0-33.6-9.4-33.6-29.6c0-22.4,16.8-27.7,33.6-30
							c16.6-2.5,32.1,1.1,32.1-10c0-11.7-8-13.4-17.6-13.4c-10.3,0-17,4.2-18,14.9H1612.8z M1675.5,410.6c-4.6,4-14.1,4.2-22.6,5.7
							c-8.4,1.7-16.1,4.6-16.1,14.5c0,10.1,7.8,12.6,16.6,12.6c21.2,0,22-16.8,22-22.7V410.6z"/>
					</g>
				</g>
				<g>
					
						<image style="overflow:visible;opacity:0.75;" width="175" height="183" xlink:href="96B557E1.png"  transform="matrix(1 0 0 1 1117 322)">
					</image>
					<g>
						<path class="st6" d="M1159.1,397.3c1.5-25.4,24.3-36.1,46.4-36.1c19.7,0,43.4,4.4,43.4,28.1v51.4c0,9,1,18,3.4,22h-27.5
							c-1-3.1-1.7-6.3-1.9-9.6c-8.6,9-21.2,12.2-33.3,12.2c-18.7,0-33.6-9.4-33.6-29.6c0-22.4,16.8-27.7,33.6-30
							c16.6-2.5,32.1,1.1,32.1-10c0-11.7-8-13.4-17.6-13.4c-10.3,0-17,4.2-18,14.9H1159.1z M1221.8,410.6c-4.6,4-14.1,4.2-22.6,5.7
							c-8.4,1.7-16.1,4.6-16.1,14.5c0,10.1,7.8,12.6,16.6,12.6c21.2,0,22-16.8,22-22.7V410.6z"/>
					</g>
				</g>
				<g>
					
						<image style="overflow:visible;opacity:0.75;" width="179" height="218" xlink:href="96B557E3.png"  transform="matrix(1 0 0 1 1000 287)">
					</image>
					<g>
						<path class="st6" d="M1039.7,326.2h27.1v49.7h0.4c6.7-10.1,18.9-14.7,31.2-14.7c19.7,0,40.9,15.9,40.9,52
							c0,36.3-21.2,52.2-40.9,52.2c-14.5,0-26.6-4.4-32.5-15.3h-0.4v12.6h-25.8V326.2z M1089,385.2c-16.1,0-23.1,12.8-23.1,26.9
							c0,13.9,7.1,26.8,23.1,26.8c16.1,0,23.1-12.8,23.1-26.8C1112.2,398,1105.1,385.2,1089,385.2z"/>
					</g>
				</g>
				<g>
					
						<image style="overflow:visible;opacity:0.75;" width="143" height="180" xlink:href="96B557EE.png"  transform="matrix(1 0 0 1 1237 322)">
					</image>
					<g>
						<path class="st6" d="M1276.6,363.9h25.8v18.3h0.4c5-12.4,18.3-21,31.5-21c1.9,0,4.2,0.4,5.9,1v25.2c-2.5-0.6-6.5-1-9.7-1
							c-19.9,0-26.8,14.3-26.8,31.7v44.5h-27.1V363.9z"/>
					</g>
				</g>
				<g>
					
						<image style="overflow:visible;opacity:0.75;" width="143" height="180" xlink:href="96B557EF.png"  transform="matrix(1 0 0 1 1318 322)">
					</image>
					<g>
						<path class="st6" d="M1357.5,363.9h25.8v18.3h0.4c5-12.4,18.3-21,31.5-21c1.9,0,4.2,0.4,5.9,1v25.2c-2.5-0.6-6.5-1-9.7-1
							c-19.9,0-26.8,14.3-26.8,31.7v44.5h-27.1V363.9z"/>
					</g>
				</g>
				<g>
					
						<image style="overflow:visible;opacity:0.75;" width="106" height="206" xlink:href="96B557E2.png"  transform="matrix(1 0 0 1 1399 296)">
					</image>
					<g>
						<path class="st6" d="M1465.4,358h-27.1v-22.4h27.1V358z M1438.3,363.9h27.1v98.8h-27.1V363.9z"/>
					</g>
				</g>
				<g>
					
						<image style="overflow:visible;opacity:0.75;" width="177" height="218" xlink:href="96B557E5.png"  transform="matrix(1 0 0 1 1453 322)">
					</image>
					<g>
						<path class="st6" d="M1590.3,456.4c0,16.2-5.7,43.8-51.2,43.8c-19.5,0-42.2-9.2-43.6-31.7h26.9c2.5,10.1,10.7,8.9,20.3,8.9
							c15.1,0,22-5.6,21.8-19.8v-13h-0.4c-5.9,10.3-17.8,15.3-29.6,15.3c-29.6,0-42.2-22.6-42.2-49.7c0-25.6,14.7-48.9,42.4-48.9
							c13,0,22.9,4.4,29.4,15.9h0.4v-13.2h25.8V456.4z M1563.5,413.4c0-13.9-5.5-26.3-23.1-26.3c-15.3,0-22,11.6-22,24.3
							c0,12.2,5.4,25.6,22,25.6C1555.9,437,1563.5,425.6,1563.5,413.4z"/>
					</g>
				</g>
			</g>
			<g>
				<g>
					
						<image style="overflow:visible;opacity:0.75;" width="177" height="183" xlink:href="96B557E6.png"  transform="matrix(1 0 0 1 1574 317)">
					</image>
					<g>
						<path class="st7" d="M1616.6,392.6c1.5-25.4,24.3-36.1,46.4-36.1c19.7,0,43.4,4.4,43.4,28.1V436c0,9,3,18,5.4,22h-27.5
							c-1-3.1-3.7-6.3-3.9-9.6c-8.6,9-21.2,12.2-33.3,12.2c-18.7,0-33.6-9.4-33.6-29.6c0-22.4,16.8-27.7,33.6-30
							c16.6-2.5,32.1,1.1,32.1-10c0-11.7-8-13.4-17.6-13.4c-10.3,0-17,4.2-18,14.9H1616.6z M1679.3,405.9c-4.6,4-14.1,4.2-22.6,5.7
							c-8.4,1.7-16.1,4.6-16.1,14.5c0,10.1,7.8,12.6,16.6,12.6c21.2,0,22-16.8,22-22.7V405.9z"/>
					</g>
				</g>
				<g>
					
						<image style="overflow:visible;opacity:0.75;" width="176" height="183" xlink:href="96B557E4.png"  transform="matrix(1 0 0 1 1120 317)">
					</image>
					<g>
						<path class="st7" d="M1162.9,392.6c1.5-25.4,24.3-36.1,46.4-36.1c19.7,0,43.4,4.4,43.4,28.1V436c0,9,1,18,3.4,22h-27.5
							c-1-3.1-1.7-6.3-1.9-9.6c-8.6,9-21.2,12.2-33.3,12.2c-18.7,0-33.6-9.4-33.6-29.6c0-22.4,16.8-27.7,33.6-30
							c16.6-2.5,32.1,1.1,32.1-10c0-11.7-8-13.4-17.6-13.4c-10.3,0-17,4.2-18,14.9H1162.9z M1225.6,405.9c-4.6,4-14.1,4.2-22.6,5.7
							c-8.4,1.7-16.1,4.6-16.1,14.5c0,10.1,7.8,12.6,16.6,12.6c21.2,0,22-16.8,22-22.7V405.9z"/>
					</g>
				</g>
				<g>
					
						<image style="overflow:visible;opacity:0.75;" width="179" height="218" xlink:href="96B557DE.png"  transform="matrix(1 0 0 1 1004 282)">
					</image>
					<g>
						<path class="st7" d="M1043.5,321.5h27.1v49.7h0.4c6.7-10.1,18.9-14.7,31.2-14.7c19.7,0,40.9,15.9,40.9,52
							c0,36.3-21.2,52.2-40.9,52.2c-14.5,0-26.6-4.4-32.5-15.3h-0.4V458h-25.8V321.5z M1092.8,380.5c-16.1,0-23.1,12.8-23.1,26.9
							c0,13.9,7.1,26.8,23.1,26.8s23.1-12.8,23.1-26.8C1115.9,393.3,1108.9,380.5,1092.8,380.5z"/>
					</g>
				</g>
				<g>
					
						<image style="overflow:visible;opacity:0.75;" width="142" height="180" xlink:href="96B55806.png"  transform="matrix(1 0 0 1 1241 317)">
					</image>
					<g>
						<path class="st7" d="M1280.3,359.2h25.8v18.3h0.4c5-12.4,18.3-21,31.5-21c1.9,0,4.2,0.4,5.9,1v25.2c-2.5-0.6-6.5-1-9.7-1
							c-19.9,0-26.8,14.3-26.8,31.7V458h-27.1V359.2z"/>
					</g>
				</g>
				<g>
					
						<image style="overflow:visible;opacity:0.75;" width="142" height="180" xlink:href="96B55839.png"  transform="matrix(1 0 0 1 1322 317)">
					</image>
					<g>
						<path class="st7" d="M1361.3,359.2h25.8v18.3h0.4c5-12.4,18.3-21,31.5-21c1.9,0,4.2,0.4,5.9,1v25.2c-2.5-0.6-6.5-1-9.7-1
							c-19.9,0-26.8,14.3-26.8,31.7V458h-27.1V359.2z"/>
					</g>
				</g>
				<g>
					
						<image style="overflow:visible;opacity:0.75;" width="106" height="206" xlink:href="96B5583A.png"  transform="matrix(1 0 0 1 1403 291)">
					</image>
					<g>
						<path class="st7" d="M1469.2,353.3H1442v-22.4h27.1V353.3z M1442,359.2h27.1V458H1442V359.2z"/>
					</g>
				</g>
				<g>
					
						<image style="overflow:visible;opacity:0.75;" width="177" height="218" xlink:href="96B55838.png"  transform="matrix(1 0 0 1 1457 317)">
					</image>
					<g>
						<path class="st7" d="M1594,451.7c0,16.2-5.7,43.8-51.2,43.8c-19.5,0-42.2-9.2-43.6-31.7h26.9c2.5,10.1,10.7,10.9,20.3,10.9
							c15.1,0,22-7.6,21.8-21.8v-13h-0.4c-5.9,10.3-17.8,15.3-29.6,15.3c-29.6,0-42.2-22.6-42.2-49.7c0-25.6,14.7-48.9,42.4-48.9
							c13,0,22.9,4.4,29.4,15.9h0.4v-13.2h25.8V451.7z M1567.3,408.7c0-13.9-5.5-26.3-23.1-26.3c-15.3,0-22,11.6-22,24.3
							c0,12.2,5.4,25.6,22,25.6C1559.7,432.3,1567.3,420.9,1567.3,408.7z"/>
					</g>
				</g>
			</g>
		</g>
	</g>
	<g>
		<path d="M144.2,224.8c-2.5-2.7-5.2-4.7-8-6c-2.8-1.3-6-2-9.4-2c-2.8,0-5.5,0.6-8.1,1.7c-2.6,1.1-4.9,2.7-6.9,4.7
			c-2,2.1-3.5,4.4-4.5,7c-1,2.6-1.5,5.4-1.5,8.5c0,2.4,0.3,4.7,0.9,6.7c0.6,2.1,1.5,3.9,2.7,5.7c2.1,3,4.7,5.3,7.8,6.9
			c3.1,1.6,6.4,2.4,10,2.4c3.3,0,6.5-0.7,9.3-2.1c2.9-1.4,5.5-3.5,7.9-6.2v8.3c-2.6,1.9-5.4,3.3-8.4,4.3c-3,1-6.1,1.5-9.3,1.5
			c-2.8,0-5.5-0.4-8.1-1.2c-2.6-0.8-5.1-2-7.4-3.6c-3.8-2.7-6.7-5.9-8.8-9.8c-2-3.9-3-8.1-3-12.8c0-4,0.7-7.7,2-11
			c1.4-3.3,3.4-6.3,6.2-9c2.7-2.6,5.6-4.5,8.9-5.8c3.3-1.3,6.8-1.9,10.6-1.9c3,0,6,0.5,8.8,1.4c2.8,0.9,5.7,2.3,8.4,4.3V224.8z"/>
		<path d="M215.6,238.6c0,3.8-0.7,7.3-2.1,10.6s-3.4,6.3-6.1,8.9c-2.7,2.6-5.7,4.6-9.2,6c-3.5,1.4-7,2.1-10.7,2.1
			c-3.7,0-7.3-0.7-10.7-2.1c-3.4-1.4-6.5-3.4-9.1-6c-2.7-2.6-4.7-5.6-6.1-8.9c-1.4-3.3-2.1-6.8-2.1-10.6c0-3.8,0.7-7.3,2.1-10.6
			c1.4-3.3,3.4-6.3,6.1-8.9c2.6-2.6,5.7-4.5,9.1-5.9c3.4-1.4,7-2.1,10.7-2.1c3.7,0,7.3,0.7,10.8,2.1c3.5,1.4,6.5,3.4,9.1,5.9
			c2.7,2.6,4.7,5.5,6.1,8.9S215.6,234.8,215.6,238.6z M187.5,260.2c2.9,0,5.6-0.5,8.2-1.6c2.6-1.1,4.9-2.7,7-4.8
			c2.1-2.1,3.6-4.4,4.7-7c1.1-2.6,1.6-5.4,1.6-8.3c0-2.9-0.5-5.7-1.6-8.4c-1.1-2.7-2.6-5-4.7-7c-2.1-2.1-4.4-3.6-7-4.7
			c-2.6-1.1-5.3-1.6-8.2-1.6c-2.9,0-5.7,0.5-8.3,1.6c-2.6,1.1-4.9,2.6-6.9,4.7c-2.1,2.1-3.6,4.4-4.7,7.1c-1.1,2.6-1.6,5.4-1.6,8.4
			c0,2.9,0.5,5.7,1.6,8.2c1.1,2.6,2.6,4.9,4.7,7c2.1,2.1,4.4,3.7,7,4.8C181.9,259.7,184.6,260.2,187.5,260.2z"/>
		<path d="M257.2,266.7L240.9,229l-6.6,35.7h-6.1l10.7-54.6l18.4,43.4l18.4-43.4l10.6,54.6h-6.1l-6.7-35.7L257.2,266.7z"/>
		<path d="M301.3,264.7v-52.5h27.7v5.7h-21.4V233h21.4v5.8h-21.4v20.1h21.4v5.8H301.3z"/>
		<path d="M346.5,264.7v-52.5h12.3c3.5,0,6.1,0.2,7.7,0.6c1.6,0.4,3.1,1.1,4.3,2c1.6,1.2,2.8,2.9,3.6,4.9c0.9,2,1.3,4.3,1.3,6.8
			c0,4.3-1.2,7.6-3.6,9.8c-2.4,2.2-5.9,3.4-10.6,3.4h-1.1l20,25h-7.9l-19.1-25h-0.9v25H346.5z M352.6,217.5V235h4.8
			c4.9,0,8.1-0.6,9.8-1.9s2.5-3.4,2.5-6.6c0-3.4-0.8-5.7-2.5-7.1s-4.9-2-9.7-2H352.6z"/>
		<path d="M435.4,224.8c-2.5-2.7-5.2-4.7-8-6c-2.8-1.3-6-2-9.4-2c-2.8,0-5.5,0.6-8.1,1.7c-2.6,1.1-4.9,2.7-6.9,4.7
			c-2,2.1-3.5,4.4-4.5,7c-1,2.6-1.5,5.4-1.5,8.5c0,2.4,0.3,4.7,0.9,6.7c0.6,2.1,1.5,3.9,2.7,5.7c2.1,3,4.7,5.3,7.8,6.9
			c3.1,1.6,6.4,2.4,10,2.4c3.3,0,6.5-0.7,9.3-2.1c2.9-1.4,5.5-3.5,7.9-6.2v8.3c-2.6,1.9-5.4,3.3-8.4,4.3c-3,1-6.1,1.5-9.3,1.5
			c-2.8,0-5.5-0.4-8.1-1.2c-2.6-0.8-5.1-2-7.4-3.6c-3.8-2.7-6.7-5.9-8.8-9.8c-2-3.9-3-8.1-3-12.8c0-4,0.7-7.7,2-11
			c1.4-3.3,3.4-6.3,6.2-9c2.7-2.6,5.6-4.5,8.9-5.8c3.3-1.3,6.8-1.9,10.6-1.9c3,0,6,0.5,8.8,1.4c2.8,0.9,5.7,2.3,8.4,4.3V224.8z"/>
		<path d="M453.1,264.7v-52.5h6.2v52.5H453.1z"/>
		<path d="M495.6,210.1l23.9,54.6h-6.8l-6.8-16.1h-20.5l-6.8,16.1h-6.8L495.6,210.1z M495.6,223.9l-8.4,19.3h16.7L495.6,223.9z"/>
		<path d="M531.9,264.7v-52.5h6.2v46.5h19.8v6H531.9z"/>
		<path d="M617.6,210.1l23.9,54.6h-6.8l-6.8-16.1h-20.5l-6.8,16.1h-6.8L617.6,210.1z M617.6,223.9l-8.4,19.3h16.7L617.6,223.9z"/>
		<path d="M653.8,264.7v-52.5h10.1c7.5,0,12.7,0.4,15.8,1.1s5.7,2,8,3.8c3,2.3,5.3,5.3,6.8,8.9c1.6,3.6,2.3,7.8,2.3,12.5
			c0,4.7-0.8,8.8-2.3,12.4s-3.8,6.6-6.9,8.9c-2.3,1.8-4.9,3-7.8,3.8c-2.9,0.8-7.5,1.1-13.7,1.1h-2.3H653.8z M660.1,258.8h4
			c6.5,0,10.9-0.3,13.4-0.8c2.5-0.6,4.6-1.5,6.2-2.9c2.2-1.8,3.8-4.1,4.9-6.9c1.1-2.8,1.7-6.1,1.7-9.7c0-3.7-0.6-6.9-1.7-9.7
			s-2.8-5.1-4.9-6.9c-1.6-1.4-3.7-2.4-6.3-3s-7-0.9-13.3-0.9h-4V258.8z"/>
		<path d="M713.8,212.2h6.3v32.7c0,5.3,1.1,9.2,3.4,11.7c2.3,2.5,5.8,3.7,10.6,3.7c4.8,0,8.4-1.2,10.6-3.7c2.3-2.5,3.4-6.4,3.4-11.7
			v-32.7h6.3v32.7c0,7.1-1.7,12.4-5.1,15.9c-3.4,3.5-8.5,5.3-15.3,5.3c-6.8,0-11.9-1.8-15.3-5.3c-3.4-3.5-5.1-8.8-5.1-15.9V212.2z"
			/>
		<path d="M789.2,210.1l23.9,54.6h-6.8l-6.8-16.1H779l-6.8,16.1h-6.8L789.2,210.1z M789.2,223.9l-8.4,19.3h16.7L789.2,223.9z"/>
		<path d="M825.5,264.7v-54.6l38.4,42v-39.9h6v54.5l-38.4-41.5v39.4H825.5z"/>
		<path d="M889.4,264.7v-52.5h27.7v5.7h-21.4V233h21.4v5.8h-21.4v20.1h21.4v5.8H889.4z"/>
		<path d="M934.6,264.7v-52.5H947c3.5,0,6.1,0.2,7.7,0.6s3.1,1.1,4.3,2c1.6,1.2,2.8,2.9,3.6,4.9c0.9,2,1.3,4.3,1.3,6.8
			c0,4.3-1.2,7.6-3.6,9.8c-2.4,2.2-5.9,3.4-10.6,3.4h-1.1l20,25h-7.9l-19.1-25h-0.9v25H934.6z M940.7,217.5V235h4.8
			c4.9,0,8.1-0.6,9.8-1.9s2.5-3.4,2.5-6.6c0-3.4-0.8-5.7-2.5-7.1s-4.9-2-9.7-2H940.7z"/>
		<path d="M997.5,210.1l23.9,54.6h-6.8l-6.8-16.1h-20.5l-6.8,16.1h-6.8L997.5,210.1z M997.5,223.9l-8.4,19.3h16.7L997.5,223.9z"/>
		<path d="M1062.5,264.7v-52.5h6.2v52.5H1062.5z"/>
		<path d="M1088.4,264.7v-54.6l38.4,42v-39.9h6v54.5l-38.4-41.5v39.4H1088.4z"/>
		<path d="M1161.5,264.7v-46.5h-14.8v-6h35.9v6h-14.8v46.5H1161.5z"/>
		<path d="M1196.5,264.7v-52.5h27.7v5.7h-21.4V233h21.4v5.8h-21.4v20.1h21.4v5.8H1196.5z"/>
		<path d="M1241.7,264.7v-52.5h12.3c3.5,0,6.1,0.2,7.7,0.6c1.6,0.4,3.1,1.1,4.3,2c1.6,1.2,2.8,2.9,3.6,4.9s1.3,4.3,1.3,6.8
			c0,4.3-1.2,7.6-3.6,9.8s-5.9,3.4-10.6,3.4h-1.1l20,25h-7.9l-19.1-25h-0.9v25H1241.7z M1247.8,217.5V235h4.8c4.9,0,8.1-0.6,9.8-1.9
			s2.5-3.4,2.5-6.6c0-3.4-0.8-5.7-2.5-7.1s-4.9-2-9.7-2H1247.8z"/>
		<path d="M1288,264.7v-54.6l38.4,42v-39.9h6v54.5l-38.4-41.5v39.4H1288z"/>
		<path d="M1368.5,210.1l23.9,54.6h-6.8l-6.8-16.1h-20.5l-6.8,16.1h-6.8L1368.5,210.1z M1368.5,223.9l-8.4,19.3h16.7L1368.5,223.9z"
			/>
		<path d="M1446.1,224.8c-2.5-2.7-5.2-4.7-8-6c-2.8-1.3-6-2-9.4-2c-2.8,0-5.5,0.6-8.1,1.7c-2.6,1.1-4.9,2.7-6.9,4.7
			c-2,2.1-3.5,4.4-4.5,7c-1,2.6-1.5,5.4-1.5,8.5c0,2.4,0.3,4.7,0.9,6.7c0.6,2.1,1.5,3.9,2.7,5.7c2.1,3,4.7,5.3,7.8,6.9
			c3.1,1.6,6.4,2.4,10,2.4c3.3,0,6.5-0.7,9.3-2.1c2.9-1.4,5.5-3.5,7.9-6.2v8.3c-2.6,1.9-5.4,3.3-8.4,4.3s-6.1,1.5-9.3,1.5
			c-2.8,0-5.5-0.4-8.1-1.2c-2.6-0.8-5.1-2-7.4-3.6c-3.8-2.7-6.7-5.9-8.8-9.8c-2-3.9-3-8.1-3-12.8c0-4,0.7-7.7,2-11
			c1.4-3.3,3.4-6.3,6.2-9c2.7-2.6,5.6-4.5,8.9-5.8s6.8-1.9,10.7-1.9c3,0,6,0.5,8.8,1.4c2.8,0.9,5.7,2.3,8.4,4.3V224.8z"/>
		<path d="M1463.8,264.7v-52.5h6.2v52.5H1463.8z"/>
		<path d="M1543.4,238.6c0,3.8-0.7,7.3-2.1,10.6c-1.4,3.3-3.4,6.3-6.1,8.9c-2.7,2.6-5.7,4.6-9.2,6s-7,2.1-10.7,2.1
			c-3.7,0-7.3-0.7-10.7-2.1s-6.5-3.4-9.1-6c-2.7-2.6-4.7-5.6-6.1-8.9c-1.4-3.3-2.1-6.8-2.1-10.6c0-3.8,0.7-7.3,2.1-10.6
			c1.4-3.3,3.4-6.3,6.1-8.9c2.6-2.6,5.7-4.5,9.1-5.9c3.4-1.4,7-2.1,10.7-2.1c3.7,0,7.3,0.7,10.8,2.1c3.5,1.4,6.5,3.4,9.1,5.9
			c2.7,2.6,4.7,5.5,6.1,8.9C1542.7,231.2,1543.4,234.8,1543.4,238.6z M1515.3,260.2c2.9,0,5.6-0.5,8.2-1.6c2.6-1.1,4.9-2.7,7-4.8
			c2.1-2.1,3.6-4.4,4.7-7c1.1-2.6,1.6-5.4,1.6-8.3c0-2.9-0.5-5.7-1.6-8.4c-1.1-2.7-2.6-5-4.7-7c-2.1-2.1-4.4-3.6-7-4.7
			c-2.6-1.1-5.3-1.6-8.2-1.6c-2.9,0-5.7,0.5-8.3,1.6c-2.6,1.1-4.9,2.6-6.9,4.7c-2.1,2.1-3.6,4.4-4.7,7.1c-1.1,2.6-1.6,5.4-1.6,8.4
			c0,2.9,0.5,5.7,1.6,8.2s2.6,4.9,4.7,7c2.1,2.1,4.4,3.7,7,4.8C1509.7,259.7,1512.4,260.2,1515.3,260.2z"/>
		<path d="M1560.6,264.7v-54.6l38.4,42v-39.9h6v54.5l-38.4-41.5v39.4H1560.6z"/>
		<path d="M1641,210.1l23.9,54.6h-6.8l-6.8-16.1h-20.5l-6.8,16.1h-6.8L1641,210.1z M1641,223.9l-8.4,19.3h16.7L1641,223.9z"/>
		<path d="M1677.3,264.7v-52.5h6.2v46.5h19.8v6H1677.3z"/>
	</g>
</g>
</svg>
