<?xml version="1.0" encoding="utf-8"?>
<!-- Generator: Adobe Illustrator 24.0.2, SVG Export Plug-In . SVG Version: 6.00 Build 0)  -->
<svg version="1.1" id="Capa_1" xmlns="http://www.w3.org/2000/svg" xmlns:xlink="http://www.w3.org/1999/xlink" x="0px" y="0px"
	 viewBox="0 0 1800 1177.4" style="enable-background:new 0 0 1800 1177.4;" xml:space="preserve">
<style type="text/css">
	.st0{opacity:0.79;fill:url(#SVGID_1_);}
	.st1{opacity:0.93;fill:url(#SVGID_2_);}
	.st2{opacity:0.79;fill:url(#SVGID_3_);}
	.st3{opacity:0.79;fill:url(#SVGID_4_);}
	.st4{opacity:0.98;fill:url(#SVGID_5_);}
	.st5{fill:#1C264C;}
</style>
<g>
	<g>
		
			<linearGradient id="SVGID_1_" gradientUnits="userSpaceOnUse" x1="1214.5369" y1="480.1581" x2="891.8255" y2="393.2462" gradientTransform="matrix(1 -6.674791e-03 6.674791e-03 1 -2.8913 11.1865)">
			<stop  offset="0" style="stop-color:#49B7E2"/>
			<stop  offset="1" style="stop-color:#2580C3;stop-opacity:0"/>
		</linearGradient>
		<polygon class="st0" points="1197.5,379.8 1198.9,586.4 864.1,490.1 862.7,283.6 		"/>
		<linearGradient id="SVGID_2_" gradientUnits="userSpaceOnUse" x1="1118.2197" y1="251.7175" x2="795.3812" y2="341.0872">
			<stop  offset="0" style="stop-color:#48B5E1"/>
			<stop  offset="2.461022e-02" style="stop-color:#47B3E0;stop-opacity:0.9754"/>
			<stop  offset="0.6627" style="stop-color:#2E8ECB;stop-opacity:0.3373"/>
			<stop  offset="1" style="stop-color:#2580C3;stop-opacity:0"/>
		</linearGradient>
		<polygon class="st1" points="1110.1,143.5 1110.1,352.8 775.1,457.2 775.1,247.9 		"/>
		<linearGradient id="SVGID_3_" gradientUnits="userSpaceOnUse" x1="1088.2483" y1="545.2695" x2="758.2868" y2="603.0356">
			<stop  offset="0" style="stop-color:#1BB3E4"/>
			<stop  offset="1" style="stop-color:#2580C3;stop-opacity:0"/>
		</linearGradient>
		<polygon class="st2" points="1133.6,410.1 1133.6,618.8 798.6,723.2 798.6,514.6 		"/>
		<linearGradient id="SVGID_4_" gradientUnits="userSpaceOnUse" x1="1054.543" y1="197.5548" x2="577.7371" y2="361.2717">
			<stop  offset="0" style="stop-color:#14B3E6"/>
			<stop  offset="1" style="stop-color:#2580C3;stop-opacity:0"/>
		</linearGradient>
		<polygon class="st3" points="1105.2,292.9 773.2,396.4 601.1,240.5 933.1,137 		"/>
		<linearGradient id="SVGID_5_" gradientUnits="userSpaceOnUse" x1="935.0978" y1="495.56" x2="603.0688" y2="431.5636">
			<stop  offset="0" style="stop-color:#3DB8E5"/>
			<stop  offset="0.3289" style="stop-color:#37A9DC;stop-opacity:0.6711"/>
			<stop  offset="0.9562" style="stop-color:#2683C5;stop-opacity:4.380351e-02"/>
			<stop  offset="1" style="stop-color:#2580C3;stop-opacity:0"/>
		</linearGradient>
		<polygon class="st4" points="959.5,455.5 959.5,663.3 621.4,563.6 621.4,359 793.7,305.3 		"/>
	</g>
	<g>
		<g>
			<path class="st5" d="M402.4,1028.5c0,1.1-0.3,2.4-0.8,3.7c-0.6,1.3-1.4,2.6-2.6,3.9c-1.2,1.3-2.7,2.3-4.6,3.1
				c-1.9,0.8-4,1.2-6.5,1.2c-1.9,0-3.6-0.2-5.1-0.5c-1.5-0.4-2.9-0.9-4.2-1.7s-2.4-1.7-3.5-3c-0.9-1.1-1.7-2.4-2.4-3.8
				c-0.7-1.4-1.2-2.9-1.5-4.4c-0.3-1.6-0.5-3.2-0.5-5c0-2.9,0.4-5.4,1.3-7.7s2-4.2,3.6-5.8c1.6-1.6,3.4-2.8,5.5-3.7
				c2.1-0.8,4.3-1.3,6.7-1.3c2.9,0,5.5,0.6,7.7,1.7c2.3,1.2,4,2.6,5.2,4.3s1.8,3.3,1.8,4.8c0,0.8-0.3,1.6-0.9,2.2
				c-0.6,0.6-1.3,1-2.1,1c-0.9,0-1.6-0.2-2.1-0.7s-1-1.2-1.5-2.3c-0.9-1.8-2.1-3.1-3.3-4c-1.3-0.9-2.8-1.3-4.7-1.3
				c-3,0-5.3,1.1-7.1,3.4c-1.8,2.3-2.6,5.5-2.6,9.6c0,2.8,0.4,5.1,1.2,6.9c0.8,1.8,1.9,3.2,3.3,4.1c1.4,0.9,3.1,1.4,5,1.4
				c2.1,0,3.8-0.5,5.3-1.5s2.5-2.5,3.3-4.5c0.3-0.9,0.7-1.7,1.1-2.3c0.5-0.6,1.2-0.9,2.2-0.9c0.9,0,1.6,0.3,2.2,0.9
				C402.1,1026.9,402.4,1027.7,402.4,1028.5z"/>
			<path class="st5" d="M468.1,1003.5c3.7,0,6.9,0.8,9.5,2.3c2.7,1.5,4.7,3.6,6,6.4c1.4,2.8,2,6,2,9.8c0,2.8-0.4,5.3-1.1,7.5
				c-0.7,2.3-1.9,4.2-3.4,5.9c-1.5,1.7-3.3,2.9-5.5,3.8c-2.2,0.9-4.7,1.3-7.5,1.3c-2.8,0-5.3-0.5-7.5-1.4s-4.1-2.2-5.5-3.8
				c-1.5-1.6-2.6-3.6-3.3-5.9c-0.8-2.3-1.1-4.8-1.1-7.5c0-2.7,0.4-5.3,1.2-7.6c0.8-2.3,1.9-4.2,3.4-5.8c1.5-1.6,3.3-2.8,5.5-3.7
				S465.3,1003.5,468.1,1003.5z M478.3,1021.9c0-2.6-0.4-4.9-1.3-6.8c-0.8-1.9-2.1-3.4-3.6-4.3c-1.6-1-3.4-1.5-5.4-1.5
				c-1.4,0-2.8,0.3-4,0.8c-1.2,0.5-2.3,1.3-3.2,2.4c-0.9,1-1.6,2.4-2.1,4c-0.5,1.6-0.8,3.4-0.8,5.4c0,2,0.3,3.9,0.8,5.5
				c0.5,1.6,1.2,3,2.2,4.1c0.9,1.1,2,1.9,3.2,2.4c1.2,0.5,2.5,0.8,4,0.8c1.9,0,3.6-0.5,5.1-1.4c1.6-0.9,2.8-2.4,3.7-4.3
				C477.9,1027.1,478.3,1024.7,478.3,1021.9z"/>
			<path class="st5" d="M544.7,1007.8l13.9,21v-21.2c0-1.4,0.3-2.4,0.9-3.1c0.6-0.7,1.4-1,2.4-1c1,0,1.9,0.3,2.5,1
				c0.6,0.7,0.9,1.7,0.9,3.1v28.1c0,3.1-1.3,4.7-3.9,4.7c-0.6,0-1.2-0.1-1.8-0.3c-0.5-0.2-1-0.5-1.5-0.9c-0.5-0.4-0.9-0.9-1.3-1.4
				s-0.8-1.1-1.2-1.7l-13.6-20.8v20.9c0,1.4-0.3,2.4-0.9,3.1s-1.4,1-2.4,1c-1,0-1.8-0.4-2.5-1.1c-0.6-0.7-0.9-1.7-0.9-3.1v-27.5
				c0-1.2,0.1-2.1,0.4-2.8c0.3-0.7,0.8-1.3,1.5-1.8c0.7-0.5,1.5-0.7,2.3-0.7c0.6,0,1.2,0.1,1.7,0.3c0.5,0.2,0.9,0.5,1.2,0.9
				c0.3,0.4,0.7,0.8,1.1,1.4C543.9,1006.6,544.3,1007.2,544.7,1007.8z"/>
			<path class="st5" d="M643.7,1029.1c0,2.2-0.6,4.1-1.7,5.8c-1.1,1.7-2.7,3.1-4.9,4s-4.7,1.5-7.6,1.5c-3.5,0-6.4-0.7-8.7-2
				c-1.6-1-2.9-2.2-4-3.8s-1.5-3.2-1.5-4.7c0-0.9,0.3-1.6,0.9-2.3s1.4-0.9,2.3-0.9c0.8,0,1.4,0.2,1.9,0.7c0.5,0.5,1,1.2,1.4,2.2
				c0.5,1.1,0.9,2.1,1.5,2.8c0.5,0.8,1.3,1.4,2.2,1.9c1,0.5,2.2,0.7,3.8,0.7c2.1,0,3.9-0.5,5.2-1.5s2-2.2,2-3.7
				c0-1.2-0.4-2.1-1.1-2.9c-0.7-0.7-1.7-1.3-2.8-1.7c-1.1-0.4-2.7-0.8-4.6-1.2c-2.6-0.6-4.7-1.3-6.4-2.1c-1.7-0.8-3.1-1.9-4.1-3.3
				c-1-1.4-1.5-3.1-1.5-5.2c0-2,0.5-3.7,1.6-5.2c1.1-1.5,2.6-2.7,4.7-3.5c2-0.8,4.4-1.2,7.2-1.2c2.2,0,4.1,0.3,5.7,0.8
				s2.9,1.3,4,2.2c1.1,0.9,1.8,1.8,2.3,2.8c0.5,1,0.7,2,0.7,2.9c0,0.9-0.3,1.6-0.9,2.3c-0.6,0.7-1.4,1-2.3,1c-0.8,0-1.5-0.2-1.9-0.6
				s-0.9-1.1-1.4-2c-0.6-1.3-1.4-2.4-2.3-3.2c-0.9-0.8-2.4-1.1-4.4-1.1c-1.9,0-3.4,0.4-4.5,1.2c-1.1,0.8-1.7,1.8-1.7,3
				c0,0.7,0.2,1.3,0.6,1.9c0.4,0.5,0.9,1,1.6,1.3c0.7,0.4,1.4,0.7,2.1,0.9c0.7,0.2,1.9,0.5,3.5,0.9c2,0.5,3.8,1,5.5,1.6
				c1.6,0.6,3,1.3,4.2,2.1c1.1,0.8,2,1.8,2.7,3.1C643.4,1025.8,643.7,1027.3,643.7,1029.1z"/>
			<path class="st5" d="M716.4,1010.1h-7.9v25.9c0,1.5-0.3,2.6-1,3.3c-0.7,0.7-1.5,1.1-2.6,1.1c-1.1,0-1.9-0.4-2.6-1.1
				c-0.7-0.7-1-1.8-1-3.3v-25.9h-7.9c-1.2,0-2.2-0.3-2.8-0.8c-0.6-0.5-0.9-1.3-0.9-2.2c0-0.9,0.3-1.7,0.9-2.2
				c0.6-0.5,1.5-0.8,2.7-0.8h23c1.3,0,2.2,0.3,2.8,0.8c0.6,0.6,0.9,1.3,0.9,2.2c0,0.9-0.3,1.6-0.9,2.2
				C718.6,1009.8,717.7,1010.1,716.4,1010.1z"/>
			<path class="st5" d="M777.5,1024.5H775v11.5c0,1.5-0.3,2.6-1,3.3c-0.7,0.7-1.5,1.1-2.6,1.1c-1.2,0-2-0.4-2.7-1.1
				c-0.6-0.7-0.9-1.8-0.9-3.3v-27.5c0-1.6,0.3-2.7,1-3.4c0.7-0.7,1.8-1,3.4-1H784c1.6,0,3,0.1,4.2,0.2c1.2,0.1,2.2,0.4,3.1,0.8
				c1.1,0.5,2.1,1.1,3,2s1.5,1.9,2,3.1c0.4,1.2,0.7,2.4,0.7,3.7c0,2.7-0.8,4.8-2.3,6.4s-3.8,2.7-6.8,3.4c1.3,0.7,2.5,1.7,3.7,3
				c1.2,1.3,2.2,2.7,3.1,4.3c0.9,1.5,1.6,2.9,2.1,4.1c0.5,1.2,0.8,2,0.8,2.5c0,0.5-0.2,0.9-0.5,1.4c-0.3,0.5-0.7,0.8-1.2,1.1
				c-0.5,0.3-1.1,0.4-1.8,0.4c-0.8,0-1.5-0.2-2-0.6c-0.6-0.4-1-0.9-1.4-1.4c-0.4-0.6-0.9-1.4-1.6-2.6l-2.9-4.8c-1-1.8-2-3.1-2.8-4
				c-0.8-0.9-1.7-1.6-2.5-1.9C779.9,1024.7,778.8,1024.5,777.5,1024.5z M781.7,1009.5H775v9.8h6.5c1.7,0,3.2-0.1,4.4-0.5
				c1.2-0.3,2.1-0.8,2.7-1.5c0.6-0.7,0.9-1.7,0.9-3c0-1-0.3-1.9-0.8-2.6c-0.5-0.8-1.2-1.3-2.1-1.7
				C785.8,1009.7,784.2,1009.5,781.7,1009.5z"/>
			<path class="st5" d="M845.9,1025.1v-17.2c0-1.5,0.3-2.6,1-3.3s1.5-1.1,2.6-1.1c1.1,0,2,0.4,2.7,1.1s1,1.8,1,3.3v17.6
				c0,2,0.2,3.7,0.7,5c0.4,1.3,1.2,2.4,2.4,3.1c1.1,0.7,2.7,1.1,4.8,1.1c2.8,0,4.8-0.8,6-2.3c1.2-1.5,1.8-3.8,1.8-6.8v-17.7
				c0-1.5,0.3-2.6,1-3.3c0.6-0.7,1.5-1.1,2.6-1.1s2,0.4,2.6,1.1c0.7,0.7,1,1.8,1,3.3v17.2c0,2.8-0.3,5.1-0.8,7
				c-0.5,1.9-1.6,3.5-3.1,4.9c-1.3,1.2-2.8,2.1-4.5,2.6c-1.7,0.6-3.7,0.8-6,0.8c-2.7,0-5.1-0.3-7.1-0.9c-2-0.6-3.6-1.5-4.8-2.8
				s-2.2-2.8-2.8-4.8C846.2,1030.1,845.9,1027.8,845.9,1025.1z"/>
			<path class="st5" d="M957.6,1028.5c0,1.1-0.3,2.4-0.8,3.7c-0.6,1.3-1.4,2.6-2.6,3.9c-1.2,1.3-2.7,2.3-4.6,3.1
				c-1.9,0.8-4,1.2-6.5,1.2c-1.9,0-3.6-0.2-5.1-0.5c-1.5-0.4-2.9-0.9-4.2-1.7s-2.4-1.7-3.5-3c-0.9-1.1-1.7-2.4-2.4-3.8
				s-1.2-2.9-1.5-4.4s-0.5-3.2-0.5-5c0-2.9,0.4-5.4,1.3-7.7c0.8-2.3,2-4.2,3.6-5.8c1.6-1.6,3.4-2.8,5.5-3.7c2.1-0.8,4.3-1.3,6.7-1.3
				c2.9,0,5.5,0.6,7.7,1.7c2.3,1.2,4,2.6,5.2,4.3c1.2,1.7,1.8,3.3,1.8,4.8c0,0.8-0.3,1.6-0.9,2.2c-0.6,0.6-1.3,1-2.1,1
				c-0.9,0-1.6-0.2-2.1-0.7s-1-1.2-1.5-2.3c-0.9-1.8-2-3.1-3.3-4c-1.3-0.9-2.8-1.3-4.7-1.3c-3,0-5.3,1.1-7.1,3.4
				c-1.8,2.3-2.6,5.5-2.6,9.6c0,2.8,0.4,5.1,1.2,6.9c0.8,1.8,1.9,3.2,3.3,4.1c1.4,0.9,3.1,1.4,5,1.4c2.1,0,3.8-0.5,5.3-1.5
				c1.4-1,2.5-2.5,3.3-4.5c0.3-0.9,0.7-1.7,1.1-2.3c0.5-0.6,1.2-0.9,2.2-0.9c0.9,0,1.6,0.3,2.2,0.9S957.6,1027.7,957.6,1028.5z"/>
			<path class="st5" d="M1037.9,1028.5c0,1.1-0.3,2.4-0.8,3.7c-0.6,1.3-1.4,2.6-2.6,3.9c-1.2,1.3-2.7,2.3-4.6,3.1
				c-1.9,0.8-4,1.2-6.5,1.2c-1.9,0-3.6-0.2-5.1-0.5c-1.5-0.4-2.9-0.9-4.2-1.7s-2.4-1.7-3.5-3c-0.9-1.1-1.7-2.4-2.4-3.8
				s-1.2-2.9-1.5-4.4s-0.5-3.2-0.5-5c0-2.9,0.4-5.4,1.3-7.7c0.8-2.3,2-4.2,3.6-5.8c1.6-1.6,3.4-2.8,5.5-3.7c2.1-0.8,4.3-1.3,6.7-1.3
				c2.9,0,5.5,0.6,7.7,1.7c2.3,1.2,4,2.6,5.2,4.3c1.2,1.7,1.8,3.3,1.8,4.8c0,0.8-0.3,1.6-0.9,2.2c-0.6,0.6-1.3,1-2.1,1
				c-0.9,0-1.6-0.2-2.1-0.7s-1-1.2-1.5-2.3c-0.9-1.8-2-3.1-3.3-4c-1.3-0.9-2.8-1.3-4.7-1.3c-3,0-5.3,1.1-7.1,3.4
				c-1.8,2.3-2.6,5.5-2.6,9.6c0,2.8,0.4,5.1,1.2,6.9c0.8,1.8,1.9,3.2,3.3,4.1c1.4,0.9,3.1,1.4,5,1.4c2.1,0,3.8-0.5,5.3-1.5
				c1.4-1,2.5-2.5,3.3-4.5c0.3-0.9,0.7-1.7,1.1-2.3c0.5-0.6,1.2-0.9,2.2-0.9c0.9,0,1.6,0.3,2.2,0.9S1037.9,1027.7,1037.9,1028.5z"/>
			<path class="st5" d="M1088.1,1036v-28.1c0-1.5,0.3-2.6,1-3.3c0.7-0.7,1.5-1.1,2.6-1.1c1.1,0,2,0.4,2.6,1.1c0.7,0.7,1,1.8,1,3.3
				v28.1c0,1.5-0.3,2.6-1,3.3s-1.6,1.1-2.6,1.1c-1,0-1.9-0.4-2.6-1.1C1088.4,1038.6,1088.1,1037.5,1088.1,1036z"/>
			<path class="st5" d="M1162.5,1003.5c3.7,0,6.9,0.8,9.5,2.3s4.7,3.6,6,6.4s2,6,2,9.8c0,2.8-0.4,5.3-1.1,7.5
				c-0.7,2.3-1.9,4.2-3.4,5.9s-3.3,2.9-5.5,3.8c-2.2,0.9-4.7,1.3-7.5,1.3c-2.8,0-5.3-0.5-7.5-1.4s-4.1-2.2-5.5-3.8
				c-1.5-1.6-2.6-3.6-3.3-5.9c-0.8-2.3-1.1-4.8-1.1-7.5c0-2.7,0.4-5.3,1.2-7.6c0.8-2.3,1.9-4.2,3.4-5.8s3.3-2.8,5.5-3.7
				S1159.8,1003.5,1162.5,1003.5z M1172.8,1021.9c0-2.6-0.4-4.9-1.3-6.8c-0.8-1.9-2.1-3.4-3.6-4.3c-1.6-1-3.4-1.5-5.4-1.5
				c-1.4,0-2.8,0.3-4,0.8c-1.2,0.5-2.3,1.3-3.2,2.4c-0.9,1-1.6,2.4-2.1,4c-0.5,1.6-0.8,3.4-0.8,5.4c0,2,0.3,3.9,0.8,5.5
				c0.5,1.6,1.2,3,2.2,4.1c0.9,1.1,2,1.9,3.2,2.4c1.2,0.5,2.5,0.8,4,0.8c1.9,0,3.6-0.5,5.1-1.4c1.6-0.9,2.8-2.4,3.7-4.3
				C1172.3,1027.1,1172.8,1024.7,1172.8,1021.9z"/>
			<path class="st5" d="M1239.1,1007.8l13.9,21v-21.2c0-1.4,0.3-2.4,0.9-3.1s1.4-1,2.4-1c1,0,1.9,0.3,2.5,1s0.9,1.7,0.9,3.1v28.1
				c0,3.1-1.3,4.7-3.9,4.7c-0.6,0-1.2-0.1-1.8-0.3c-0.5-0.2-1-0.5-1.5-0.9c-0.5-0.4-0.9-0.9-1.3-1.4s-0.8-1.1-1.2-1.7l-13.6-20.8
				v20.9c0,1.4-0.3,2.4-1,3.1c-0.6,0.7-1.4,1-2.4,1c-1,0-1.8-0.4-2.5-1.1c-0.6-0.7-0.9-1.7-0.9-3.1v-27.5c0-1.2,0.1-2.1,0.4-2.8
				c0.3-0.7,0.8-1.3,1.5-1.8s1.5-0.7,2.3-0.7c0.6,0,1.2,0.1,1.7,0.3s0.9,0.5,1.2,0.9c0.3,0.4,0.7,0.8,1.1,1.4
				S1238.8,1007.2,1239.1,1007.8z"/>
			<path class="st5" d="M1334.6,1009.7h-16.3v8.8h15c1.1,0,1.9,0.2,2.5,0.7s0.8,1.1,0.8,2c0,0.8-0.3,1.5-0.8,2
				c-0.5,0.5-1.4,0.8-2.5,0.8h-15v10.2h16.9c1.1,0,2,0.3,2.6,0.8c0.6,0.5,0.9,1.2,0.9,2.1c0,0.8-0.3,1.5-0.9,2.1
				c-0.6,0.5-1.4,0.8-2.6,0.8h-19.7c-1.6,0-2.7-0.3-3.4-1c-0.7-0.7-1-1.8-1-3.4v-26.8c0-1,0.2-1.9,0.5-2.5c0.3-0.7,0.8-1.1,1.4-1.4
				c0.7-0.3,1.5-0.5,2.5-0.5h19.1c1.2,0,2,0.3,2.6,0.8s0.8,1.2,0.8,2c0,0.8-0.3,1.5-0.8,2S1335.7,1009.7,1334.6,1009.7z"/>
			<path class="st5" d="M1414.8,1029.1c0,2.2-0.6,4.1-1.7,5.8c-1.1,1.7-2.7,3.1-4.9,4s-4.7,1.5-7.6,1.5c-3.5,0-6.4-0.7-8.7-2
				c-1.6-1-2.9-2.2-4-3.8c-1-1.6-1.5-3.2-1.5-4.7c0-0.9,0.3-1.6,0.9-2.3c0.6-0.6,1.4-0.9,2.3-0.9c0.8,0,1.4,0.2,1.9,0.7
				s1,1.2,1.4,2.2c0.5,1.1,0.9,2.1,1.5,2.8c0.5,0.8,1.3,1.4,2.2,1.9c1,0.5,2.2,0.7,3.8,0.7c2.1,0,3.9-0.5,5.2-1.5s2-2.2,2-3.7
				c0-1.2-0.4-2.1-1.1-2.9c-0.7-0.7-1.7-1.3-2.8-1.7c-1.1-0.4-2.7-0.8-4.6-1.2c-2.6-0.6-4.7-1.3-6.4-2.1c-1.7-0.8-3.1-1.9-4.1-3.3
				c-1-1.4-1.5-3.1-1.5-5.2c0-2,0.5-3.7,1.6-5.2c1.1-1.5,2.6-2.7,4.7-3.5c2-0.8,4.4-1.2,7.2-1.2c2.2,0,4.1,0.3,5.7,0.8
				c1.6,0.5,2.9,1.3,4,2.2c1.1,0.9,1.8,1.8,2.3,2.8s0.7,2,0.7,2.9c0,0.9-0.3,1.6-0.9,2.3c-0.6,0.7-1.4,1-2.3,1
				c-0.8,0-1.5-0.2-1.9-0.6c-0.4-0.4-0.9-1.1-1.4-2c-0.6-1.3-1.4-2.4-2.3-3.2s-2.4-1.1-4.4-1.1c-1.9,0-3.4,0.4-4.5,1.2
				c-1.1,0.8-1.7,1.8-1.7,3c0,0.7,0.2,1.3,0.6,1.9c0.4,0.5,0.9,1,1.6,1.3c0.7,0.4,1.4,0.7,2.1,0.9s1.9,0.5,3.5,0.9
				c2,0.5,3.8,1,5.5,1.6s3,1.3,4.2,2.1c1.1,0.8,2,1.8,2.7,3.1C1414.5,1025.8,1414.8,1027.3,1414.8,1029.1z"/>
		</g>
		<g>
			<g>
				<path class="st5" d="M558.3,787.6v52.5c-1-4.9-2.6-9.7-4.8-14.1c-4.1-8.4-10-15.7-17.6-21.6c-5-3.8-10.6-7.1-16.9-9.6
					c-2.7-1.1-5.6-2.1-8.5-2.9c-9-2.6-18.9-3.9-29.6-3.9H356.1L319,830.8h144.1c2.8,0,5.5,0.1,8.1,0.2c21.8,1,34.1,5.9,36.8,14.8
					c0.8,2.5,0.8,5.1,0.8,7.4v0.6c0,2.3,0,4.9-0.8,7.4l-0.1,0.2c-0.9,3.5-2.1,5.1-3.3,6.2l-0.6,0.6c-5.5,5-16,7.8-29.5,7.8h-3.2
					l-0.2,0c-2.6,0.1-5.3,0.2-8.1,0.2H317.2v91.4H369v-48.5h84.4l46.8,48.5h106.9V787.6H558.3z M558.3,956.7l-41-43.9
					c0.6-0.2,1.2-0.5,1.8-0.7c6.2-2.5,11.9-5.8,16.8-9.6c7.6-5.9,13.5-13.2,17.6-21.6c2.1-4.5,3.7-9.2,4.8-14.1V956.7z"/>
			</g>
			<path class="st5" d="M1368.8,800.8c-14.3-21.4-47.1-13.8-51.8-6.7c-1.8,2.6-19.5,26.2-41.3,55.2h-154.3v-13.7h105.6l36.6-48h-193
				v65.2c-6-14.3-17.6-29.4-38.9-42.4c-12-7.4-26-13.1-41.7-17c-11.1-2.8-22.9-4.5-35.1-5.3v-0.4H649.5l-38.3,47.9v0.1h71.3v131.8
				h48.8V835.6h89.4c-12.5,16.4-15.9,33.2-15.9,46.3c0,20.4,7.7,49.3,44.5,71.8c11.8,7.2,25.7,12.9,41.4,16.8
				c15.3,3.8,32.1,5.8,49.9,5.8s34.6-1.9,49.8-5.8c15.6-3.9,29.5-9.5,41.2-16.8c21.2-12.9,32.8-28,38.7-42.4v56.1h50.8v-70.2h118.4
				c-27.2,36.4-51,69-51,71c0,0,63.4,0,71.1,0c6.5-10,75.4-108.8,78.5-112c3.2,3.4,31,50.2,38.1,61.1c-7.1,0-59.3,0-65.9,0
				c-5.3,7.2-35.5,46.6-35.5,51c6-0.1,205.4,0,207.9-0.1C1475.2,956.5,1383,822.2,1368.8,800.8z M1015.9,899.2
				c-3.4,5.6-8.1,10.3-14.4,14.4c-6.8,4.5-15.4,8-25.5,10.6c-10.5,2.7-22.4,4.1-35.6,4.1c-13.2,0-25.2-1.3-35.7-4
				c-10-2.5-18.5-6.1-25.3-10.5c-6.3-4.1-10.9-8.9-14.2-14.4c-3.1-5.2-4.6-10.9-4.6-17.5c0-8.5,2.3-21.2,22.6-33.1
				c7-4.1,15.5-7.4,25.2-9.8c6.8-1.7,14-2.8,21.4-3.3h21.3c7.4,0.5,14.6,1.6,21.4,3.3c9.7,2.4,18.2,5.7,25.2,9.8
				c20.5,12.1,22.9,24.7,22.9,33.1C1020.6,888.3,1019.1,894,1015.9,899.2z"/>
		</g>
	</g>
</g>
</svg>
