<?xml version="1.0" encoding="utf-8"?>
<!-- Generator: Adobe Illustrator 24.0.2, SVG Export Plug-In . SVG Version: 6.00 Build 0)  -->
<svg version="1.1" id="Capa_1" xmlns="http://www.w3.org/2000/svg" xmlns:xlink="http://www.w3.org/1999/xlink" x="0px" y="0px"
	 viewBox="0 0 1800 1800" style="enable-background:new 0 0 1800 1800;" xml:space="preserve">
<style type="text/css">
	.st0{fill:#E4BF45;}
</style>
<g>
	<rect x="135.6" y="124.5" width="1551.8" height="1551.8"/>
	<g>
		<g>
			<path class="st0" d="M1528.4,1158.1h-16.1v-0.7h-40.6v0.7h-13.4c-0.1,1.3-0.2,2.7-0.2,4.1c0,12.8,5.2,24.4,13.5,32.8v264
				l-58.5-257.3l-5.3-23.4l-4.6-20.3h-60.8v11.9c2.1,12.1,8.8,22.7,18.3,29.7v358.9c-10.7,8.6-17.6,21.7-17.6,36.5c0,0.7,0,1.4,0,2
				h75.7c0-0.7,0-1.4,0-2c0-12.1-10-29.9-17.6-38.2v-241.4l59.9,281.6h2.4h8.1h2.1h29.2h1.2h8.1v-105.5v-294.1
				c9.9-8.6,16.2-21.2,16.2-35.4C1528.5,1160.8,1528.5,1159.5,1528.4,1158.1z"/>
			<g>
				<path class="st0" d="M1222.4,1491.1h74c-0.8-17.9-7.5-29.4-16.6-36.2l-1-0.7l-37.8-195.4h0l-0.4-1.8l-9-46.4l-2.8-14.5
					c-0.1-0.5-0.2-0.9-0.3-1.4c-0.1-0.6-0.2-1.1-0.3-1.6c-6.3-30.4-19.5-34.3-24.3-34.8h-54.5v17.5c0,0,1.9,12.7,13.7,20.1h2.4
					l-0.2,1.2l-7,36.3l-42.8,221l-0.9,0.6c-9.2,6.8-16,18.4-16.7,36.2h74.4c-0.4-17.9-4-29.4-10.3-36.2c-1-1.1-2.1-2-3.3-2.9
					l7.5-44.1h64.8l4.9,44.2c-1.1,0.8-2.1,1.7-3.1,2.8C1226.4,1461.6,1222.8,1473.2,1222.4,1491.1z M1171.2,1367.5l20.9-131.5
					l1.3-8.4l2.1-13.1l1.6-10.1l1.5,9.7l3.5,21.8l20.9,131.5H1171.2z"/>
				<path class="st0" d="M1160.7,1123.4c-6.1,0-11.2,5-11.2,11.2v9.5h69.7c6.1,0,11.2-5,11.2-11.2v-9.5H1160.7z"/>
			</g>
			<path class="st0" d="M1053.1,1174.6v-16.4H999l-21.3,41.6l-62,121l-0.1-0.2l-0.1,0.2l-0.4-1.1l-61.4-119.9l-21.3-41.6h-53v16.4
				c0,10.4,6.3,19.3,15.3,23.2v255.4c-5.1,3-9.3,7.5-12,13.1c0,0,0,0.1-0.1,0.1c-2,4-3.2,8.5-3.2,13.2c0,0.1,0,0.3,0,0.4v0.7v10.4
				h1.7h72.5V1480c0-11.4-6.4-21.5-15.7-26.7v-188.9l52.4,101.1c0,0,0.2,0.4,0.7,1.1c3.9,6.2,23.6,34,47.9-1.1l56-106.1l0.5,6
				l-0.5,0.8v183.2h0.5v3.6c-9.6,5.2-16.2,15.3-16.2,27v11.1h74.1V1480c0-11.3-6.2-21.2-15.3-26.5v-255.8
				C1046.8,1193.9,1053.1,1184.9,1053.1,1174.6z"/>
			<path class="st0" d="M652.7,1158.1h-40c-31.5,0-57.2,25.8-57.2,57.2v218.5c0,31.5,25.8,57.2,57.2,57.2h40
				c31.5,0,57.2-25.8,57.2-57.2v-218.5C710,1183.9,684.2,1158.1,652.7,1158.1z M638,1459.8h-11c-31.5,0-31.5-25.8-31.5-57.2v-153.1
				c0-31.5,0-57.2,31.5-57.2h9.6c31.5,0,31.5,25.8,31.5,57.2v153.1C668.1,1434,669.4,1459.8,638,1459.8z"/>
			<path class="st0" d="M481.9,1569.4c-0.4-0.2-0.8-0.4-1.2-0.7c0,0-0.1,0-0.1,0c-4.7-2.7-7.8-7.8-7.8-13.6v-131
				c0-8.8-2.8-16.9-7.6-23.6c-4.9-6.8-11.7-12-19.8-14.8c16-10,26.6-27.8,26.6-48v-123c0-9.3-2.3-18.2-6.4-26
				c-9.4-18.1-28.4-30.6-50.2-30.6H310.8v15.1c0,9.7,6.3,18,15,21v370.3c-3.8,1.9-7.1,4.7-9.6,8.1c-3.1,4.3-5,9.6-5,15.3v13.6h73.7
				v-13.6c0-10.2-6-19.1-14.6-23.4v-159.9h34c13.9,0,25.3,11.4,25.3,25.3v147c0,1.6,0.1,3.2,0.4,4.7c1.7,8.6,7.9,15.7,16,18.6
				c2.5,0.9,5.3,1.4,8.1,1.4h36.9v-15.9C491.2,1578.7,487.4,1572.6,481.9,1569.4z M429.7,1340.7c0,14.8-12.2,27-27,27h-32.3v-172.3
				h32.3c14.8,0,27,12.1,27,27V1340.7z"/>
		</g>
		<g>
			<path class="st0" d="M1033.1,625.8c40.9,19.1,52.8,71.2,56.3,97c0.9,5.5,1.4,10.5,1.4,14.8V968l-71.1,32.6V791.5l-0.2-54.1
				c-3.8-20.2-15-44.8-33.4-57.1c0,0-30.3-13.3-30.3-74.8h-0.4V399.1c0-11.7-9.5-21.2-21.2-21.2h-23.6c-11.7,0-21.2,9.5-21.2,21.2
				v206.4c0,61.5-30.3,74.8-30.3,74.8c-18.3,12.2-29.5,36.9-33.4,57.1l0.2,54.1v210.3l-71.4-32.8V244.6h197.9
				c21.4,0,41.7,4.9,59.8,13.7c46.4,22.4,78.6,70,78.6,124.7v132.9C1090.7,552.8,1066.4,606.1,1033.1,625.8z"/>
			<path class="st0" d="M1126.4,186.1H721.9c-15,0-27.2,12.2-27.2,27.2l0.1,776v3c-0.1-0.6-0.1-1.2-0.1-1.6v5
				c0,4.9,2.3,9.3,6.2,12.6l108.4,49.7l93.7,43l8.5,3.9c9.8,4.5,21.2,4.5,31,0l20.3-9.3l0,0L1123,1017c0-0.2,0-0.4,0-0.4
				c0.4-0.2,1.8-0.7,4-1.6l0.1,0l5.1-2.5l0.1-0.1c9-4.9,21.3-14.7,21.3-32V213.3C1153.5,198.3,1141.3,186.1,1126.4,186.1z
				 M1124.6,978c0,1.4-0.1,2.9-0.4,4.1c-1,3.6-3.3,6.6-6.3,8.6l-4,1.8l-5.7,2.6l-125.4,57.5l-40.3,18.5c-5.8,2.7-12.1,3.7-18.3,3.3
				c-6.2,0.5-12.5-0.6-18.3-3.3l-40.3-18.5l-130.5-59.9c-1.4-0.4-2.8-1-4-1.8c-4.4-2.8-7.3-7.8-7.3-13.5V233.8
				c0-9.6,7.6-17.5,17.2-17.9c0.3,0,0.6,0,0.9,0h364.8c0.3,0,0.5,0,0.8,0c9.5,0.4,17.2,8.3,17.2,17.9V978z"/>
		</g>
		<g>
			<rect x="546.3" y="1511.8" class="st0" width="745.5" height="8.2"/>
			<rect x="546.3" y="1593" class="st0" width="745.5" height="8.2"/>
			<g>
				<path class="st0" d="M561.9,1574.7v-43.9h-4.2v-4.2h13.2v4.2h-4v43.9h12.6v-6.5h4.5v13.4h-26.3v-6.9H561.9z"/>
				<path class="st0" d="M677.7,1574.7v-43.9h-3.5v-4.2h11.8v4.2h-3.5v43.9h3.5v6.9h-11.8v-6.9H677.7z"/>
				<path class="st0" d="M904.8,1530.8v30.2c0,4.3,0.1,7.2,0.4,8.9c0.3,1.6,0.9,3,1.9,4.2c1,1.1,2.3,1.7,3.9,1.7
					c1.9,0,3.4-0.5,4.4-1.5c1-1,1.7-2.3,2-4c0.3-1.7,0.5-4.6,0.5-8.9v-30.6h-3.7v-4.2h12.6v4.2h-4v31.5c0,3.9-0.1,6.7-0.3,8.4
					c-0.2,1.8-0.7,3.6-1.6,5.5c-0.8,1.9-2,3.4-3.6,4.6c-1.5,1.1-3.4,1.7-5.6,1.7c-2.4,0-4.5-0.5-6.1-1.6c-1.6-1.1-2.8-2.5-3.7-4.3
					c-0.8-1.8-1.4-3.7-1.6-5.7c-0.3-2-0.4-5.2-0.4-9.4v-30.6h-4v-4.2h12.6v4.2H904.8z"/>
				<path class="st0" d="M1142.9,1574.7v-43.9h-4.4v-4.2h13.1c2.7,0,4.9,0.4,6.5,1.1c1.6,0.7,2.9,2.3,4,4.6c1,2.3,1.6,5.2,1.6,8.7
					c0,7.3-2.2,11.8-6.6,13.7l5.7,20h3.9v6.9h-7l-7.3-25.7h-4.5v18.8h4.1v6.9h-13.4v-6.9H1142.9z M1147.8,1549h3.8
					c1.8,0,3.2-0.2,4.1-0.6c0.9-0.4,1.6-1.2,2.1-2.5c0.6-1.3,0.8-4.3,0.8-6.4c0-1.8-0.3-4.7-0.8-5.9c-0.6-1.2-1.3-2-2.1-2.4
					c-0.8-0.3-2.1-0.5-3.8-0.5h-4.1V1549z"/>
				<path class="st0" d="M1256.5,1581.6v-20h5.1v4.9c2.5,6,5.7,9,9.7,9c2,0,3.7-0.8,5.1-2.5c1.4-1.7,2.1-3.8,2.1-6.5
					c0-2.6-0.6-4.5-1.7-5.6c-1.1-1.1-3.3-2.3-6.5-3.4c-3.7-1.3-6.4-2.6-8.2-3.7c-1.8-1.2-3.2-2.8-4.2-5c-1.1-2.2-1.6-4.8-1.6-7.7
					c0-4.6,1.1-8.3,3.4-11.1c2.3-2.8,5.2-4.1,8.6-4.1c3.3,0,6.3,1.4,9.2,4.3v-3.7h5v16.7h-5v-3.8c-2.1-4.2-5-6.4-8.7-6.4
					c-2.2,0-4,0.7-5.2,2.1c-1.2,1.4-1.8,3-1.8,5c0,1.5,0.3,2.8,0.9,3.9c0.6,1.1,1.4,1.9,2.3,2.5c0.9,0.5,2.8,1.3,5.6,2.2
					c3.6,1.3,6.3,2.4,7.9,3.5s3,2.9,4.2,5.5c1.2,2.6,1.8,5.5,1.8,8.8c0,4.7-1.2,8.6-3.7,11.6c-2.5,3.1-5.5,4.6-9.2,4.6
					c-3.7,0-7.1-1.8-10.1-5.4v4.5H1256.5z"/>
				<path class="st0" d="M799,1525.8h-14.6c-3.8,0-6.9,3.1-6.9,6.9v40.6c0,3.7,3,6.8,6.7,6.9c0.1,0,0.2,0,0.3,0h9.4
					c1.3,1,1.6,2.5,2.1,4.6c0,0,1.4,4.1,6.5,4.1v-5c0,0-2.8,0-3-3.1c0,0,0-0.2-0.2-0.6c3.7-0.1,6.7-3.2,6.7-6.9v-40.6
					C805.9,1528.9,802.8,1525.8,799,1525.8z M783.9,1568.5v-31c0-3.7,2-6.8,4.4-6.8h6.3c0.2,0,0.3,0,0.4,0c0.1,0,0.3,0,0.4,0.1
					c0.3,0.1,0.6,0.3,0.9,0.4c0.1,0.1,0.2,0.2,0.3,0.3c0.2,0.1,0.3,0.3,0.4,0.4c0.1,0.1,0.3,0.3,0.4,0.5c0.1,0.1,0.1,0.2,0.2,0.3
					c0.1,0.1,0.1,0.2,0.2,0.3c0.1,0.1,0.2,0.3,0.2,0.4c0,0.1,0.1,0.1,0.1,0.2c0,0.1,0.1,0.1,0.1,0.2c0.1,0.1,0.1,0.3,0.2,0.4
					c0,0,0,0,0,0c0,0.1,0.1,0.3,0.1,0.4c0.1,0.2,0.1,0.3,0.1,0.5c0,0.1,0.1,0.3,0.1,0.4c0.1,0.2,0.1,0.5,0.1,0.7
					c0,0.2,0,0.3,0.1,0.5c0,0.2,0,0.4,0,0.7v31c0,3.7-2,6.8-4.4,6.8h-6.3C785.9,1575.2,783.9,1572.2,783.9,1568.5z"/>
				<path class="st0" d="M1041.2,1525.8h-14.6c-3.8,0-6.9,3.1-6.9,6.9v40.6c0,3.7,3,6.8,6.7,6.9c0.1,0,0.2,0,0.3,0h2.6l12.2,0
					c3.7-0.1,6.8-3.2,6.8-6.9v-40.6C1048.1,1528.9,1045,1525.8,1041.2,1525.8z M1026.1,1568.5v-31c0-3.7,2-6.8,4.4-6.8h6.3
					c0.2,0,0.3,0,0.4,0c0.1,0,0.3,0,0.4,0.1c0.3,0.1,0.6,0.3,0.9,0.4c0.1,0.1,0.2,0.1,0.3,0.2c0.2,0.1,0.3,0.3,0.4,0.4
					c0.1,0.1,0.3,0.3,0.4,0.5c0.1,0.1,0.1,0.2,0.2,0.3c0.1,0.1,0.1,0.2,0.2,0.3c0.1,0.1,0.2,0.3,0.2,0.4c0,0.1,0.1,0.1,0.1,0.2
					c0,0.1,0.1,0.1,0.1,0.2c0.1,0.1,0.1,0.3,0.2,0.4c0,0,0,0,0,0c0,0.1,0.1,0.3,0.1,0.4c0.1,0.1,0.1,0.3,0.1,0.5
					c0,0.1,0.1,0.3,0.1,0.4c0.1,0.2,0.1,0.5,0.1,0.7c0,0.2,0.1,0.3,0.1,0.5c0,0.2,0,0.4,0,0.7v31c0,3.7-2,6.8-4.4,6.8h-6.3
					C1028,1575.2,1026.1,1572.2,1026.1,1568.5z"/>
			</g>
		</g>
	</g>
</g>
</svg>
