<?xml version="1.0" encoding="utf-8"?>
<!-- Generator: Adobe Illustrator 24.0.2, SVG Export Plug-In . SVG Version: 6.00 Build 0)  -->
<svg version="1.1" id="Capa_1" xmlns="http://www.w3.org/2000/svg" xmlns:xlink="http://www.w3.org/1999/xlink" x="0px" y="0px"
	 viewBox="0 0 1800 928.2" style="enable-background:new 0 0 1800 928.2;" xml:space="preserve">
<style type="text/css">
	.st0{fill:url(#SVGID_1_);}
	.st1{fill:#FAFCFA;}
	.st2{opacity:0.45;}
	.st3{fill:#FCFDFB;}
</style>
<g>
	<linearGradient id="SVGID_1_" gradientUnits="userSpaceOnUse" x1="898.8061" y1="76.031" x2="901.2007" y2="861.4689">
		<stop  offset="0" style="stop-color:#03264D"/>
		<stop  offset="1" style="stop-color:#004386"/>
	</linearGradient>
	<rect x="78.5" y="78.5" class="st0" width="1643" height="778.2"/>
	<g>
		
			<image style="overflow:visible;opacity:0.67;" width="532" height="530" xlink:href="CE63018B.png"  transform="matrix(1 0 0 1 200 183.1277)">
		</image>
		<g>
			<g>
				<path class="st1" d="M272.8,619c-2.6-1.9-5.6-4.3-8.8-7.3C266.8,614.8,269.7,617.3,272.8,619z"/>
				<path class="st1" d="M683.1,414.1c1.1-31.6-5.8-58.5-11.6-75.3c-37.2-98.9-126.1-168.9-234-168.9c-81,0-154.2,39.4-202.5,100.9
					l0.2-0.2c0,0-6.5,7.4-14.7,20.2c-2.8,4.4-5.9,9.5-8.9,15c-10.8,19.8-21.9,46.6-24.4,76.4c1.6-5.6,3.4-11.2,5.2-16.6
					c3.9-20.4,17.4-45.5,34.2-68.8c13.3-16.6,30.4-35.5,55.6-52.3c1,5.3,2.4,10.7,4.1,16c-30.6,21.5-56,49.6-74,82.3
					c-0.4-1.3-0.7-2.6-1-3.8c-0.1,1.9-0.1,3.9-0.1,5.8c-18.2,33.7-28.4,72.1-28.4,112.9c0,2.2,0,4.3,0.1,6.5
					c-0.2-0.3-0.2-0.4-0.2-0.4c0.1,0.2,0.2,0.5,0.3,0.7c0.2,8.8,1,17.6,2.2,26.1c-0.1-3.5-0.2-7-0.2-10.5c0-3.3,0.1-6.7,0.2-10
					c3.9,9.6,8.6,18.5,14,26.8c7.5,13.8,18.3,26.8,32.3,38.9c2.5,38.9,19.1,63,32.8,76.1c-10.6-12.4-17.3-35.5-18.1-64.6
					c22.4,15.9,50.8,29.5,84.4,39.8c-0.6,44,7.3,73.9,22.7,78.6c1.4,0.4,2.8,0.6,4.2,0.6c-7.1-5-12.7-33.7-12-74.9
					c9.3,2.5,19,4.7,29.1,6.7c40.2,8.8,70.3,10.2,70.3,10.2v-1.2c6.9,0.5,13.8,0.8,20.5,1c-10.6,34.8-24.4,56-38.9,60.2
					c1.4,0.5,2.8,0.7,4.2,0.8c15.3,0.5,31.1-22.6,44-60.8c14.2,0.2,28-0.3,41.3-1.3c-6.6-3.6-23.3-6.5-38.2-8.4
					c8.1-26.5,14.7-59,18.9-95.3c17.5,0.2,34.3-0.5,50.4-2c-4.9-3.8-11.2-6.6-18.5-8.6c-10,0.1-20.2-0.1-30.7-0.6
					c1.6-16,2.8-32.7,3.4-49.8c0.7-20.3,0-43.1-1.5-65.9c24.4-1.9,47.8-6.8,68.5-14.5c15.4,44.6,21,81.3,16.4,113.9
					c16-20.2,15.8-64.7-4.7-118.6c14.9-6.5,28-14.5,38.8-23.8c22.2,39.9,38.3,88.2,36.2,106.5c8.2-12.3,12.1-49.6-27.2-115.1
					c6.2-6.6,11.2-13.8,14.9-21.4C663.2,335.7,677.3,373.4,683.1,414.1z M290.9,272.8c6.9,16.1,17.1,31.7,30.5,45.7
					c-20.8,25.5-40.1,54.2-55.6,84.5c-1.7,3.3-3.3,6.6-4.8,9.8c-20.2-17.1-34.9-35.9-43.5-55.3C235.9,324.9,261,295.9,290.9,272.8z
					 M348.4,462.2c-29.7-11.2-55.2-24.9-76-40.4c2.7-6.3,5.7-12.5,8.9-18.8c13.2-25.8,30.2-51.9,48.9-76
					c14.6,13.1,32.2,24.4,52.8,32.8c-9.1,20.9-17.6,43.5-24.9,67.3C354.6,439,351.3,450.7,348.4,462.2z M190.9,475.7l-0.6-0.3
					c-2.2-3.1-3.9-5.6-5.2-7.6c1.9-36.3,12.1-71.3,28.7-103.2c5.4,22.4,19.3,44,40.5,63.2c-15.3,35.3-21.9,65-23.1,89.7
					C211.8,501.3,198.6,485.8,190.9,475.7z M246.2,529.3c1.4-27.6,7.6-59.1,19.8-91.7c20.9,16.1,47.3,30.2,78.5,41
					c-7.7,34.2-12.2,66.2-13.7,93.8C296.1,561.1,268.1,545.3,246.2,529.3z M468.4,597.2c-9.9-1.1-17.2-1.8-17.2-1.8
					c-20.2-2-41.1-5.2-62.4-9.8c-15.3-2.1-29.6-5.1-43-8.8c1.4-27.6,5.5-59.7,13.6-93.4c22.5,6.8,47.1,12,73.7,15.3
					c3.9,0.5,7.7,0.9,11.6,1.3c13.1,1.4,26.1,2.2,38.8,2.7C480.5,539.7,475.2,571.5,468.4,597.2z M485.8,463.6
					c-0.3,9.4-0.8,18.5-1.4,27.3c-0.8-0.1-1.5-0.1-2.3-0.2c-20.3-1.7-41.2-4.5-62.5-8.7c-19.9-3.9-38.6-8.8-56.1-14.5
					c1.3-4.7,2.7-9.5,4.1-14.2c9.6-31.5,20.3-61,30.9-87.8c5.2,1.7,10.6,3.1,16.2,4.4c23.8,5.5,48.3,7.6,72.2,6.9
					C487.2,406.4,486.8,435.8,485.8,463.6z M623.2,317.1c-2.8-4.5-5.8-9.1-9.1-13.8c-32.1-40-68.2-67.6-92.8-71.4
					c25.8,13.8,55.7,39,82.8,77.6c3.5,5,6.9,10.3,10.2,15.8c-10.6,8.9-23.5,16.5-38,22.5c-1.9-4.5-3.9-9.1-6-13.7
					c-12-25.8-26.7-48.5-41.9-66.4c-10-9.5-19.9-16.6-29.1-20.7c24.8,22.1,48.6,59.5,65.6,105.2c-20,6.8-42.4,10.8-66.1,11.6
					c-4.2-52.5-12.7-102.1-19.1-116.5c4.1,36,6.3,76.2,7,116.6c-18.5-0.2-37.6-2.4-56.7-6.8c-8.7-2-17.1-4.4-25.2-7.2
					c20-48.6,39-86.5,49-107.6c-18.7,20.1-42.5,56.2-63.9,101.9c-19-8-35.9-18-50.2-29.3c30.7-37.5,64.5-69.1,91.6-85.6
					c-13,3.3-26,10.2-38,18.4c-20.5,15.6-42.1,36-62.6,59.6c-13.7-12.3-24.7-25.9-32.5-40.1c36.8-26.5,80.2-44.2,126.5-49.1
					c-45-7.4-107.7,23.9-114.2,27.2c-6.1,3.3-12,6.8-17.8,10.6c-2.1-5-3.9-10-5.2-15.1c28.8-17.9,67.6-33,122.3-39.4
					c0,0-51.2-4.1-105.5,17.7c32.8-19,77.4-32.7,117.4-34.6c11.9-4.2,24.5-6.5,37.7-6.5c28,0,52.9,10.4,73.7,27.9
					c42.4,19.4,78.5,50.8,105.1,90.3C634.4,303.7,629.4,310.7,623.2,317.1z"/>
			</g>
		</g>
	</g>
	<g>
		<g class="st2">
			
				<image style="overflow:visible;" width="1095" height="132" xlink:href="CE630189.png"  transform="matrix(1 0 0 1 540 719.1277)">
			</image>
		</g>
		<g>
			<path class="st3" d="M567,799v-56h5.4v56H567z"/>
			<path class="st3" d="M584.4,799v-56h5.6l21.6,44v-44h5.2v56h-5.6l-21.6-44v44H584.4z"/>
			<path class="st3" d="M640,799v-49.4h-13.6V743H659v6.6h-13.6V799H640z"/>
			<path class="st3" d="M668.2,799v-56H698v6.6h-24.3v17.1h22.8v6.6h-22.8v19.1h25.3v6.6H668.2z"/>
			<path class="st3" d="M728.2,777v-6.6l17.4,0v20.8c-2.7,2.9-5.4,5.1-8.3,6.5c-2.8,1.5-5.8,2.2-8.8,2.2c-4,0-7.7-1.2-11-3.5
				c-3.3-2.4-5.8-5.8-7.5-10.2c-1.7-4.5-2.5-9.4-2.5-14.9c0-5.4,0.8-10.5,2.5-15.3c1.7-4.7,4.1-8.2,7.2-10.5
				c3.1-2.3,6.8-3.4,10.9-3.4c3,0,5.7,0.7,8.1,2c2.4,1.3,4.3,3.1,5.7,5.5c1.4,2.3,2.4,5.4,3.1,9.2l-4.9,1.8
				c-0.6-2.9-1.4-5.1-2.3-6.7c-0.9-1.6-2.2-2.9-3.9-3.9c-1.7-1-3.6-1.5-5.7-1.5c-2.5,0-4.6,0.5-6.5,1.5c-1.8,1-3.3,2.4-4.4,4.1
				c-1.1,1.7-2,3.5-2.6,5.5c-1,3.5-1.6,7.2-1.6,11.3c0,5,0.6,9.2,1.9,12.5c1.3,3.4,3.1,5.9,5.5,7.5c2.4,1.6,5,2.4,7.7,2.4
				c2.4,0,4.7-0.6,6.9-1.9c2.2-1.2,3.9-2.6,5.1-4V777H728.2z"/>
			<path class="st3" d="M755.2,799v-56h18.3c3.7,0,6.5,0.5,8.4,1.5s3.4,2.8,4.6,5.3c1.1,2.5,1.7,5.4,1.7,8.4c0,4-0.9,7.3-2.8,10
				c-1.9,2.7-4.8,4.5-8.8,5.2c1.4,0.9,2.5,1.9,3.3,2.8c1.6,2,3.1,4.5,4.5,7.4l7.2,15.2h-6.9l-5.4-11.6c-1.6-3.4-2.9-5.9-3.9-7.7
				c-1-1.8-2-3-2.8-3.7s-1.6-1.2-2.5-1.5c-0.6-0.2-1.6-0.3-3-0.3h-6.3V799H755.2z M760.7,767.7h11.7c2.5,0,4.4-0.3,5.8-1.1
				c1.4-0.7,2.5-1.8,3.2-3.4c0.7-1.5,1.1-3.2,1.1-5c0-2.6-0.7-4.8-2.1-6.5c-1.4-1.7-3.6-2.6-6.7-2.6h-13V767.7z"/>
			<path class="st3" d="M795.6,799l15.8-56h5.9l16.8,56h-6.2l-4.8-17h-17.2l-4.5,17H795.6z M807.5,776h14l-4.3-15.5
				c-1.3-4.7-2.3-8.6-2.9-11.6c-0.5,3.6-1.3,7.2-2.2,10.7L807.5,776z"/>
			<path class="st3" d="M846.2,799v-49.4h-13.6V743h32.6v6.6h-13.6V799H846.2z"/>
			<path class="st3" d="M873.4,799v-56h29.8v6.6h-24.3v17.1h22.8v6.6h-22.8v19.1h25.3v6.6H873.4z"/>
			<path class="st3" d="M914.1,799v-56h14.2c3.2,0,5.6,0.3,7.3,0.8c2.4,0.7,4.4,2.1,6,4c2.2,2.5,3.8,5.7,4.9,9.6
				c1.1,3.9,1.6,8.3,1.6,13.3c0,4.3-0.4,8-1.1,11.3c-0.7,3.3-1.7,6-2.8,8.2c-1.1,2.2-2.4,3.8-3.7,5.1c-1.4,1.2-3,2.2-4.9,2.8
				c-1.9,0.6-4.1,1-6.6,1H914.1z M919.6,792.4h8.8c2.7,0,4.8-0.3,6.4-1c1.5-0.7,2.8-1.7,3.7-2.9c1.3-1.8,2.3-4.1,3-7.1
				c0.7-3,1.1-6.6,1.1-10.8c0-5.9-0.7-10.4-2.1-13.5c-1.4-3.1-3.1-5.3-5.2-6.3c-1.5-0.8-3.8-1.1-7-1.1h-8.6V792.4z"/>
			<path class="st3" d="M972,743h12.7v42.2h19.9V799H972V743z"/>
			<path class="st3" d="M1008.1,771c0-9.1,1.9-16.3,5.6-21.3s9-7.6,15.6-7.6c6.9,0,12.1,2.5,15.8,7.5c3.7,5,5.6,12,5.6,21
				c0,6.5-0.8,11.9-2.4,16.1c-1.6,4.2-4,7.4-7,9.8c-3.1,2.3-6.9,3.5-11.4,3.5c-4.6,0-8.5-1-11.5-3c-3-2-5.5-5.2-7.4-9.5
				C1009.1,783,1008.1,777.5,1008.1,771z M1020.9,771.1c0,5.7,0.8,9.7,2.3,12.2c1.5,2.5,3.6,3.7,6.3,3.7c2.7,0,4.8-1.2,6.3-3.6
				s2.2-6.8,2.2-13c0-5.3-0.8-9.1-2.3-11.6c-1.6-2.4-3.7-3.6-6.4-3.6c-2.6,0-4.6,1.2-6.2,3.7S1020.9,765.4,1020.9,771.1z"/>
			<path class="st3" d="M1080,778.7V767h19.7v23.9c-3.8,3.5-7.1,5.9-10,7.1c-2.9,1.3-6.3,1.9-10.3,1.9c-4.9,0-8.9-1.1-11.9-3.4
				c-3.1-2.3-5.5-5.6-7.2-10.1c-1.7-4.5-2.5-9.6-2.5-15.4c0-6.1,0.9-11.4,2.8-15.9c1.9-4.5,4.6-7.9,8.1-10.3
				c2.8-1.8,6.5-2.7,11.3-2.7c4.5,0,8,0.6,10.2,1.7c2.3,1.1,4.1,2.9,5.6,5.2c1.5,2.4,2.6,5.3,3.4,9l-12.3,3
				c-0.5-2.1-1.4-3.7-2.6-4.9c-1.2-1.1-2.7-1.7-4.6-1.7c-2.8,0-5,1.3-6.7,4c-1.7,2.6-2.5,6.8-2.5,12.5c0,6.1,0.8,10.4,2.5,13
				c1.7,2.6,4,3.9,7,3.9c1.4,0,2.8-0.3,4.1-0.8c1.3-0.6,2.8-1.5,4.4-2.9v-5.3H1080z"/>
			<path class="st3" d="M1105.4,743h12.7v56h-12.7V743z"/>
			<path class="st3" d="M1123.4,780.4l12.1-1c0.3,2.7,0.8,4.7,1.6,6.1c1.3,2.3,3.2,3.4,5.6,3.4c1.8,0,3.2-0.6,4.2-1.7
				c1-1.2,1.5-2.5,1.5-4c0-1.5-0.5-2.7-1.4-3.9c-0.9-1.1-3.1-2.2-6.5-3.2c-5.6-1.7-9.6-4-11.9-6.8c-2.4-2.8-3.6-6.4-3.6-10.8
				c0-2.9,0.6-5.6,1.8-8.2c1.2-2.6,3.1-4.6,5.5-6c2.5-1.5,5.8-2.2,10.1-2.2c5.3,0,9.3,1.3,12,4c2.8,2.7,4.4,6.9,4.9,12.7l-12,1
				c-0.3-2.5-1-4.4-2-5.5c-1-1.1-2.4-1.7-4.2-1.7c-1.5,0-2.6,0.4-3.3,1.3c-0.7,0.9-1.1,1.9-1.1,3.1c0,0.9,0.3,1.7,0.9,2.4
				c0.6,0.7,2,1.4,4.3,2.1c5.6,1.6,9.5,3.3,11.9,4.9c2.4,1.7,4.2,3.7,5.3,6.2c1.1,2.5,1.6,5.2,1.6,8.3c0,3.6-0.7,6.9-2.2,9.9
				c-1.5,3-3.5,5.3-6.1,6.9c-2.6,1.6-5.9,2.3-9.9,2.3c-7,0-11.8-1.8-14.5-5.5C1125.3,790.7,1123.8,786.1,1123.4,780.4z"/>
			<path class="st3" d="M1163,743h38.7v13.8h-13V799H1176v-42.2h-13V743z"/>
			<path class="st3" d="M1209.9,743h12.7v56h-12.7V743z"/>
			<path class="st3" d="M1259.1,776l11.1,4.6c-0.7,4.3-1.9,7.8-3.5,10.7c-1.6,2.9-3.6,5-6,6.5c-2.4,1.5-5.4,2.2-9.1,2.2
				c-4.5,0-8.1-0.9-11-2.7c-2.8-1.8-5.3-4.9-7.3-9.3c-2.1-4.5-3.1-10.2-3.1-17.1c0-9.3,1.8-16.4,5.4-21.4c3.6-5,8.7-7.5,15.4-7.5
				c5.2,0,9.3,1.4,12.2,4.3c3,2.9,5.2,7.2,6.6,13.1l-11.2,3.4c-0.4-1.7-0.8-3-1.2-3.7c-0.7-1.3-1.6-2.3-2.6-3.1
				c-1-0.7-2.2-1.1-3.5-1.1c-2.9,0-5.1,1.6-6.6,4.7c-1.2,2.3-1.7,6-1.7,11c0,6.2,0.7,10.5,2.1,12.8c1.4,2.3,3.3,3.5,5.8,3.5
				c2.4,0,4.3-0.9,5.5-2.8C1257.7,782.3,1258.6,779.6,1259.1,776z"/>
			<path class="st3" d="M1297.3,776.9l5.1-0.6c0.2,2.6,0.8,4.7,1.7,6.3c0.9,1.6,2.3,3,4.1,4c1.9,1,4,1.5,6.3,1.5
				c2.1,0,3.9-0.4,5.5-1.2c1.6-0.8,2.8-1.8,3.6-3.2c0.8-1.3,1.2-2.8,1.2-4.4c0-1.6-0.4-3-1.1-4.2c-0.7-1.2-2-2.2-3.7-3
				c-1.1-0.5-3.5-1.4-7.3-2.5s-6.4-2.2-7.9-3.2c-2-1.3-3.4-2.9-4.4-4.8c-1-1.9-1.4-4-1.4-6.4c0-2.6,0.6-5,1.8-7.3
				c1.2-2.3,2.9-4,5.2-5.1c2.3-1.2,4.8-1.8,7.6-1.8c3.1,0,5.7,0.6,8.1,1.8c2.3,1.2,4.1,3,5.4,5.4c1.3,2.4,1.9,5.1,2,8.1l-5.2,0.5
				c-0.3-3.3-1.2-5.7-2.8-7.4c-1.6-1.7-4-2.5-7.2-2.5c-3.3,0-5.7,0.8-7.2,2.3c-1.5,1.5-2.3,3.3-2.3,5.5c0,1.8,0.5,3.4,1.6,4.6
				c1,1.2,3.8,2.4,8.2,3.7c4.4,1.3,7.5,2.3,9.1,3.3c2.4,1.4,4.2,3.1,5.3,5.2c1.1,2.1,1.7,4.6,1.7,7.3c0,2.7-0.6,5.3-1.9,7.7
				c-1.3,2.4-3.1,4.3-5.4,5.7c-2.4,1.3-5,2-7.9,2c-3.7,0-6.8-0.7-9.4-2c-2.5-1.4-4.5-3.4-5.9-6.1
				C1298.1,783.4,1297.3,780.3,1297.3,776.9z"/>
			<path class="st3" d="M1339.8,793.4V742h29.8v6.1h-24.3v15.8h22.8v6h-22.8v17.5h25.3v6.1H1339.8z"/>
			<path class="st3" d="M1378.2,793.4V742h18.3c3.7,0,6.5,0.5,8.4,1.4c1.9,0.9,3.4,2.6,4.6,4.9c1.1,2.3,1.7,4.9,1.7,7.8
				c0,3.7-0.9,6.7-2.8,9.2c-1.9,2.5-4.8,4.1-8.8,4.8c1.4,0.9,2.5,1.7,3.3,2.6c1.6,1.8,3.1,4.1,4.5,6.8l7.2,14h-6.9l-5.4-10.7
				c-1.6-3.1-2.9-5.5-3.9-7.1c-1-1.6-2-2.8-2.8-3.4c-0.8-0.7-1.6-1.1-2.5-1.4c-0.6-0.2-1.6-0.2-3-0.2h-6.3v22.9H1378.2z
				 M1383.7,764.7h11.7c2.5,0,4.4-0.3,5.8-1c1.4-0.6,2.5-1.7,3.2-3.1c0.7-1.4,1.1-3,1.1-4.6c0-2.4-0.7-4.4-2.1-6
				c-1.4-1.6-3.6-2.4-6.7-2.4h-13V764.7z"/>
			<path class="st3" d="M1432.5,793.4l-15.9-51.5h5.9l10.7,37.4c0.9,3,1.6,5.8,2.2,8.4c0.6-2.8,1.4-5.6,2.2-8.4l11.1-37.4h5.6
				l-16.1,51.5H1432.5z"/>
			<path class="st3" d="M1461.2,793.4V742h5.4v51.5H1461.2z"/>
			<path class="st3" d="M1505.8,775.4l5.4,1.7c-1.1,5.6-3.2,9.9-6.2,12.8c-3,2.9-6.6,4.4-10.9,4.4c-4.4,0-8-1.1-10.8-3.4
				c-2.8-2.3-4.9-5.5-6.3-9.8c-1.5-4.3-2.2-8.9-2.2-13.8c0-5.4,0.8-10,2.5-14c1.6-4,4-7,7-9.1c3-2.1,6.4-3.1,10-3.1
				c4.1,0,7.6,1.3,10.4,3.9c2.8,2.6,4.8,6.3,5.9,11.1l-5.4,1.6c-1-3.7-2.3-6.5-4.2-8.2c-1.8-1.7-4.1-2.6-6.9-2.6
				c-3.2,0-5.8,0.9-7.9,2.8c-2.1,1.9-3.6,4.4-4.5,7.6c-0.9,3.2-1.3,6.5-1.3,9.9c0,4.4,0.5,8.2,1.5,11.5c1,3.3,2.6,5.7,4.8,7.3
				c2.2,1.6,4.5,2.4,7,2.4c3.1,0,5.6-1.1,7.8-3.3C1503.6,783,1505,779.7,1505.8,775.4z"/>
			<path class="st3" d="M1518.2,793.4V742h29.8v6.1h-24.3v15.8h22.8v6h-22.8v17.5h25.3v6.1H1518.2z"/>
			<path class="st3" d="M1556.7,776.9l5.1-0.6c0.2,2.6,0.8,4.7,1.7,6.3c0.9,1.6,2.3,3,4.1,4c1.9,1,4,1.5,6.3,1.5
				c2.1,0,3.9-0.4,5.5-1.2c1.6-0.8,2.8-1.8,3.6-3.2c0.8-1.3,1.2-2.8,1.2-4.4c0-1.6-0.4-3-1.1-4.2c-0.7-1.2-2-2.2-3.7-3
				c-1.1-0.5-3.5-1.4-7.3-2.5s-6.4-2.2-7.9-3.2c-2-1.3-3.4-2.9-4.4-4.8c-1-1.9-1.4-4-1.4-6.4c0-2.6,0.6-5,1.8-7.3
				c1.2-2.3,2.9-4,5.2-5.1c2.3-1.2,4.8-1.8,7.6-1.8c3.1,0,5.7,0.6,8.1,1.8c2.3,1.2,4.1,3,5.4,5.4c1.3,2.4,1.9,5.1,2,8.1l-5.2,0.5
				c-0.3-3.3-1.2-5.7-2.8-7.4c-1.6-1.7-4-2.5-7.2-2.5c-3.3,0-5.7,0.8-7.2,2.3c-1.5,1.5-2.3,3.3-2.3,5.5c0,1.8,0.5,3.4,1.6,4.6
				c1,1.2,3.8,2.4,8.2,3.7c4.4,1.3,7.5,2.3,9.1,3.3c2.4,1.4,4.2,3.1,5.3,5.2c1.1,2.1,1.7,4.6,1.7,7.3c0,2.7-0.6,5.3-1.9,7.7
				c-1.3,2.4-3.1,4.3-5.4,5.7c-2.3,1.3-5,2-7.9,2c-3.7,0-6.8-0.7-9.4-2c-2.5-1.4-4.5-3.4-5.9-6.1
				C1557.5,783.4,1556.8,780.3,1556.7,776.9z"/>
		</g>
	</g>
	<g>
		
			<image style="overflow:visible;opacity:0.88;" width="1075" height="279" xlink:href="CE63018F.png"  transform="matrix(1 0 0 1 564 471.1277)">
		</image>
		<g>
			<g>
				<path class="st3" d="M589.4,626v13.3c0,17.7,3.7,31.1,17.8,31.1c14.4,0,18.6-14.4,18.6-27.8c0-50.4-74.9-22.2-74.9-109.6
					c0-37.3,14.9-68.7,57.1-68.7c41,0,55.7,27.8,55.7,63.8v9.7H624c0-11.1-1-23.4-3.4-28.7c-2.4-5.6-6.3-8.2-12.5-8.2
					c-10.3,0-16.4,8.2-16.4,25.2c0,48.7,74.9,24.2,74.9,106.6c0,53-22,74.3-59.6,74.3c-29.8,0-57.4-12.1-57.4-60.8V626H589.4z"/>
				<path class="st3" d="M755,550c0-34-1.1-49.1-16-49.1c-17.8,0-19.4,20.9-19.4,82.1c0,69.4,1.9,87.3,20.5,87.3
					c16.5,0,16.3-23.2,16.6-59.5h43.1v8.2c0,50.4-9.4,88-64.7,88c-57.2,0-61.7-52.7-61.7-123c0-59.9,2.7-119.7,66-119.7
					c39.4,0,58.8,20.9,58.8,75.9v9.8H755z"/>
				<path class="st3" d="M816.1,468.9h43.1v87.3h34.3v-87.3h43.1v233.6h-43.1v-99.8h-34.3v99.8h-43.1V468.9z"/>
				<path class="st3" d="M954,468.9h69.9c35.5,0,47.6,28.8,47.6,60.8c0,34-10.4,50.7-29.8,56.9v0.7c26.5,4.9,28,26.8,28.5,58.2
					c0.7,46.1,2,50.7,7.9,54v2.9h-44.9c-3.2-7.9-4.5-20.9-4.5-47.4c0-40.6-4.2-49.1-17.4-49.1h-15.9v96.5H954V468.9z M995.7,567.4
					h12.9c16.9,0,21.3-16.7,21.3-30.4c0-17.7-5-29.4-21.6-29.4h-12.6V567.4z"/>
				<path class="st3" d="M1112.8,610.6l-45.5-141.6h46.8l20.1,86.7h0.5l20.6-86.7h45.3l-45.5,141.6v91.9h-42.3V610.6z"/>
				<path class="st3" d="M1200.6,468.9h44.7l21.6,163.1l21.3-163.1h44.7l-40.2,233.6h-53.1L1200.6,468.9z"/>
				<path class="st3" d="M1339.7,468.9h101.7v44.5h-56.6v46.8h53v44.5h-53V658h59.3v44.5h-104.4V468.9z"/>
				<path class="st3" d="M1463,468.9h69.9c35.5,0,47.6,28.8,47.6,60.8c0,34-10.4,50.7-29.8,56.9v0.7c26.5,4.9,28,26.8,28.5,58.2
					c0.7,46.1,2,50.7,7.9,54v2.9h-44.9c-3.2-7.9-4.5-20.9-4.5-47.4c0-40.6-4.2-49.1-17.4-49.1h-15.9v96.5H1463V468.9z M1504.6,567.4
					h12.9c16.9,0,21.3-16.7,21.3-30.4c0-17.7-5-29.4-21.6-29.4h-12.6V567.4z"/>
			</g>
		</g>
	</g>
</g>
</svg>
