<?xml version="1.0" encoding="utf-8"?>
<!-- Generator: Adobe Illustrator 24.0.2, SVG Export Plug-In . SVG Version: 6.00 Build 0)  -->
<svg version="1.1" id="Capa_1" xmlns="http://www.w3.org/2000/svg" xmlns:xlink="http://www.w3.org/1999/xlink" x="0px" y="0px"
	 viewBox="0 0 1080 800" style="enable-background:new 0 0 1080 800;" xml:space="preserve">
<style type="text/css">
	.st0{fill-rule:evenodd;clip-rule:evenodd;fill:#E30613;}
	.st1{fill-rule:evenodd;clip-rule:evenodd;fill:#FDC300;}
</style>
<g>
	<polygon class="st0" points="540.2,92.3 185,707.7 895,707.7 540.2,92.3 	"/>
	<path class="st0" d="M839.4,549.8c0-14.5,10.5-25.6,25.1-25.6c14,0,25.1,11,25.1,25.6c0,15-11,26.6-25.1,26.6
		C849.9,576.4,839.4,564.9,839.4,549.8L839.4,549.8z M833.9,549.8c0,18,14,31.1,30.6,31.1c16.5,0,30.6-13,30.6-31.1
		c0-17-14-30.1-30.6-30.1C847.9,519.8,833.9,532.8,833.9,549.8L833.9,549.8z M852.4,567.9l5.5,0v-15h6l10,15l5.5,0l-10-15.5
		c5.5-0.5,9.5-3.5,9.5-10c0-6.5-4-10-12.5-10h-14V567.9L852.4,567.9z M857.9,536.8l7.5,0c4,0,8,0.5,8,5.5c0,5.5-4.5,6-9.5,6h-6
		V536.8L857.9,536.8z"/>
	<path class="st1" d="M702.6,582.4c-15-0.5-27.6,6.5-28.1,15c-0.5,9,11.5,16.5,27.1,17c15,0.5,27.6-6,28.1-15
		C730.2,590.4,718.1,582.9,702.6,582.4L702.6,582.4z M770.8,644.5c-3.5,0.5-11.5,1-18.5-1.5c-4.5-1.5-18-5.5-22-5.5
		c-5,0-21.5,7.5-42.6,7.5c-23,0-28.6-11-35.6-11c-3.5,0-21,11-35.6,11c-32.6,0-35.6-56.6-59.6-56.6c-6.5,0-9.5,2-11.5,7.5v-0.5
		l-7.5,41.6c-0.5,3-4,6-7.5,6h-24.1c-3,0-5.5-3-5-6l58.1-318.2c0.5-3,4-6,7-6l24.1,0c3.5,0,6,3,5,6c0,0-40.1,222-41.1,226
		c-2.5,12.5,32.6,14.5,46.6-18c3.5-6.5,7-7,10-7c2.5,0,17,0,20.5,0c5.5,0,5,7,4.5,9.5c-7.5,29.1-38.6,44.6-38.6,48.1
		c0,4,18,26.1,22,32.6c4,6,19,2.5,19-6.5c0-34.1,23.1-42.1,37.6-46.1c18-4,49.6,5,49.6,5c3.5,1.5,7,0,7.5-3c0,0,1-7,1.5-9.5
		c0.5-3-2.5-9.5-19-8.5c-16.5,1-17.5,1.5-32.1,3c-5,0.5-9.5-0.5-9.5-0.5c-4,0-6.5-2.5-6-5.5l3-13c0-3,3.5-5.5,7.5-5.5h54.1
		c0,0,13-1,20,2c19.5,7.5,17.5,25.1,16,35.1c-1,10.5-7,53.6-7,55.6c-0.5,4.5,2.5,12,15,7.5c1.5-0.5,3.5,1.5,3.5,3l-3,15.5
		C776.8,642,774.8,644,770.8,644.5L770.8,644.5z M474.6,480.2c-3,0-5.5-3-5-6.5l4-21c0.5-3,4-6,7-6h24.1c3.5,0,6,3,5,6l-3.5,21
		c-0.5,3.5-4,6.5-7.5,6.5L474.6,480.2L474.6,480.2z M496.7,525.8l-20,111.2c-1,3-4,6-7.5,6H445c-3.5,0-5.5-3-5-6l20-111.2
		c1-3.5,4-6,7.5-6h24.1C495.2,519.8,497.2,522.3,496.7,525.8L496.7,525.8z M335.3,641.5L335.3,641.5c-2-0.5-3.5-0.5-4.5,0
		c-0.5,0.5-2,1.5-3.5,2.5l-0.5,0c-1.5,1-4.5,2-8.5,1.5c-3-0.5-9-1-12.5-1.5c-3.5-0.5-5-3-5-5c0.5-4.5,2.5-27.1,3.5-31.6
		c0.5-6,5-9.5,17-4c72.2,31.1,68.6-30.1,70.2-36.6l20-207.5c5.5-35.6,42.1-42.1,48.1-42.1c10.5,0,17.5,1.5,19.5,0.5c2-1,4-6,13-5
		c11.5,2,17.5,0,17.5,7.5l-4.5,26.6c-0.5,1-1.5,8-15,4c-40.6-11.5-43.6,17.5-44.1,20c0,0.5-21,216.5-21,216.5
		C414,658.6,352.3,645.5,335.3,641.5L335.3,641.5z"/>
</g>
</svg>
