<?xml version="1.0" encoding="utf-8"?>
<!-- Generator: Adobe Illustrator 24.0.2, SVG Export Plug-In . SVG Version: 6.00 Build 0)  -->
<svg version="1.1" id="Capa_2" xmlns="http://www.w3.org/2000/svg" xmlns:xlink="http://www.w3.org/1999/xlink" x="0px" y="0px"
	 viewBox="0 0 1800 411.5" style="enable-background:new 0 0 1800 411.5;" xml:space="preserve">
<style type="text/css">
	.st0{fill:#C00000;}
	.st1{fill:#FFFFFF;}
</style>
<g>
	<path class="st0" d="M1741.6,383.6H58.4c-19.3,0-34.9-15.6-34.9-34.9v-286c0-19.3,15.6-34.9,34.9-34.9h1683.2
		c19.3,0,34.9,15.6,34.9,34.9v286C1776.5,368,1760.9,383.6,1741.6,383.6z"/>
	<g>
		<g>
			<g>
				
					<image style="overflow:visible;opacity:0.75;" width="136" height="168" xlink:href="3FE79A45.png"  transform="matrix(1 0 0 1 210.6163 75.6163)">
				</image>
				<g>
					<path class="st1" d="M229.6,130.4c0-12.5,0-25,0-37.5c0-7.8,3.6-11.6,10.9-11.7c3.7-0.1,7.4,0,11.1,0c8.6,0,12.3,3.9,12.3,13.2
						c0.1,21.2,0,42.4,0,63.5c0,3.1,0,6.2,0.2,9.2c0.5,8.8,5.6,14.7,13,15.3c9.5,0.7,15-3.5,16.7-13.1c0.6-3.3,0.6-6.8,0.6-10.3
						c0.1-21.5,0-43.1,0-64.6c0-9.5,3.5-13.2,12.1-13.3c3.2,0,6.4,0,9.6,0c7.5,0.1,11.2,3.8,11.4,11.9c0.2,8.5,0.1,17,0.1,25.5
						c0,14.5,0,29,0,43.5c0,30.9-17.5,49.8-46.3,49.5c-7.8-0.1-15.8-1-23.3-3.3c-17.3-5.4-28-21.6-28.3-41
						C229.4,155,229.6,142.7,229.6,130.4z"/>
				</g>
			</g>
			<g>
				
					<image style="overflow:visible;opacity:0.75;" width="128" height="172" xlink:href="3FE79A47.png"  transform="matrix(1 0 0 1 65.6163 73.6163)">
				</image>
				<g>
					<path class="st1" d="M156,204.8c-9.2,5-19,6.9-29.2,6.7c-11.8-0.1-23.4-2-34.5-6.5c-7-2.8-9.2-7.9-6.5-15.4
						c0.2-0.7,0.6-1.3,0.8-2c5.7-13.4,8.6-14.2,21.5-9.6c6.5,2.4,13.7,3.2,20.6,3.9c4,0.4,7.7-1.7,9-6.3c1.4-4.8-0.7-8.7-4.5-11
						c-4.5-2.8-9.3-4.9-14-7.3c-4.8-2.5-9.9-4.5-14.5-7.4c-12.7-7.7-18.3-19.6-17.3-35.2c1-15.2,8-26.2,20.7-32.2
						c15.4-7.2,30.5-6.8,45.3-1.9c17.2,8.5,16.5,21.5,15.8,25.7c-0.2,0.9-0.3,1.4-0.3,1.4c-1.8,12.9-16.4,5.4-19.9,3.4
						c-5.4-2.4-11.5-3.3-17.3-4.3c-3.7-0.6-7,1.3-8.1,5.7c-1.1,4.3,0.4,7.7,3.8,9.7c4.7,2.8,9.7,5,14.5,7.5
						c5.9,3.1,11.8,6.1,17.5,9.6C181.5,153.2,178.8,192.5,156,204.8z"/>
				</g>
			</g>
			<g>
				
					<image style="overflow:visible;opacity:0.75;" width="112" height="168" xlink:href="3FE79A42.png"  transform="matrix(1 0 0 1 630.6163 75.6163)">
				</image>
				<g>
					<path class="st1" d="M684.1,111.4c0,8.1,0,15.6,0,23.8c7.3,0,14.5,0.1,21.6,0c4.8-0.1,9.3,0.7,11.5,5.9
						c2.3,5.7,2.8,12-0.7,17.1c-1.8,2.6-5.8,4.4-8.9,4.6c-7.6,0.7-15.3,0.2-23.8,0.2c0,8.2,0,16,0,23.7c0,4.3,0.1,8.7,0,13
						c-0.2,7.7-3.9,11.7-11,11.8c-3.9,0.1-7.7,0-11.6,0c-8-0.1-11.7-4-11.8-12.6c-0.1-20.4,0-40.9,0-61.3c0-14.1,0-28.2,0-42.3
						c0-9.2,3.2-13.1,11.7-13.2c17.1-0.2,34.2-0.2,51.3,0c8.2,0.1,11.3,4,11.4,12.9c0.1,13.3-2.7,16.4-15,16.4
						C700.8,111.4,692.6,111.4,684.1,111.4z"/>
				</g>
			</g>
			<g>
				
					<image style="overflow:visible;opacity:0.75;" width="140" height="172" xlink:href="3FE79A43.png"  transform="matrix(1 0 0 1 1205.6163 71.6163)">
				</image>
				<g>
					<path class="st1" d="M1301.7,202.1c-7.8,5.6-17.3,8.6-28.1,9.1c-12.4,0.6-24.8,0.2-37.3,0.1c-6.5,0-10.2-3.1-11.1-9.2H1301.7z
						 M1224.9,191.2c0,2,0,4,0,5.9h82.6c1.8-1.8,3.4-3.8,5-5.9H1224.9z M1283.2,173.6c-4.4,7.4-11.7,9.6-23.6,8v-8h-34.7
						c0,3.3,0,6.7,0,10h92.2c0.7-1.4,1.3-2.8,2-4.3c0.8-1.9,1.5-3.8,2.2-5.8H1283.2z M1324.1,124c-5-27-19.9-43-45.1-45.8
						c-14.4-1.6-29.1,0-43.7,1c-7.7,0.6-10.5,5.2-10.5,13.7c0,17.4,0,34.8,0,52.1c0,6.7,0,13.4,0,20.1h34.7v-57.8
						c16.8-3.1,25.3,3,28.5,20.5c2.2,11.8,1.7,23.8-1,35.5c-0.1,0.6-0.3,1.2-0.5,1.8h37C1326.8,151.8,1326.7,138,1324.1,124z"/>
				</g>
			</g>
			<g>
				
					<image style="overflow:visible;opacity:0.75;" width="139" height="172" xlink:href="3FE79A4D.png"  transform="matrix(1 0 0 1 425.6163 71.6163)">
				</image>
				<g>
					<path class="st1" d="M544.8,129.5c-2.6-27.5-18.7-47.4-44-50.7c-15-1.9-30.5-0.4-45.7,0.6c-7.7,0.5-10.5,5.2-10.5,13.7
						c0,17.6,0,35.1,0,52.7c0,17.4,0,34.8,0,52.1c0,9.7,3.6,13.6,12.4,13.6c11.8,0,23.5,0.1,35.3,0c22.5-0.2,40.8-14.2,48.4-37.1
						C545.6,159.9,546.3,144.8,544.8,129.5z M505.6,167.5c-4,12.8-12.7,17.1-26.3,14c0-24.4,0-48.9,0-73.4
						c12.4-4.5,23.4,0.9,27.1,14.2C510.5,137.2,510.2,152.6,505.6,167.5z"/>
				</g>
			</g>
			<g>
				
					<image style="overflow:visible;opacity:0.75;" width="149" height="167" xlink:href="3FE79A4F.png"  transform="matrix(1 0 0 1 1561.6163 76.6163)">
				</image>
				<g>
					<path class="st1" d="M1613.9,203.4c-1.8,5.3-5.5,8-10.8,8.1c-3.9,0.1-7.7,0-11.6,0c-6.9,0-10.6-2.8-11-8.1H1613.9z
						 M1655.4,203.4c2.6,7.6,5.6,8.2,16.6,8.2h6c8.9,0,13-2.3,13.1-8.2H1655.4z M1689.6,194.4c-0.2-0.7-0.4-1.3-0.6-2h-36.6
						c0.3,1,0.6,2.2,1,3.7c0.2,0.8,0.4,1.5,0.6,2.2h36.7C1690.4,197.2,1690,195.9,1689.6,194.4z M1582.7,192.5
						c-0.4,1.5-0.9,2.9-1.3,4.4c-0.2,0.5-0.3,1.1-0.4,1.6h34.3c0.5-2,1-3.9,1.4-5.9H1582.7z M1683.3,174.8h-95
						c-1.1,3.3-2.1,6.7-3.2,10h101.4C1685.4,181.5,1684.3,178.2,1683.3,174.8z M1680.5,166.5h-89.6c0.3-0.8,0.5-1.7,0.8-2.5
						c7.3-23.1,14.7-46.1,22-69.2c3.4-10.5,6.1-12.7,16.6-12.7c4,0,8.1,0,12.1,0c7.7,0,11.3,2.6,13.9,10.6c8,24.3,16,48.7,24,73.1
						C1680.4,166,1680.5,166.3,1680.5,166.5z M1641.8,150.9c-2.5-9.7-5-19.2-7.5-28.6c-0.3,0-0.5,0-0.8,0.1
						c-2.3,9.4-4.6,18.9-6.9,28.6H1641.8z"/>
				</g>
			</g>
			<g>
				
					<image style="overflow:visible;opacity:0.75;" width="152" height="172" xlink:href="3FE79A40.png"  transform="matrix(1 0 0 1 768.6163 71.6163)">
				</image>
				<g>
					<path class="st1" d="M901.7,139.1c-0.9-37.9-22.4-61.3-56.3-61.3c-29.6,0-48.6,15.3-55.1,44.7c-3.5,15.8-3.2,31.6,0.8,47.2
						c5,19.4,15.8,33.7,34.3,39c8.1,2.3,16.9,3.2,25.3,2.7c21.8-1.3,37.7-12.6,46-35.1C901.1,164.4,902,151.8,901.7,139.1z
						 M845,182.4c-8.6,0-14.7-5.1-17.5-15.5c-3.9-14.7-4.3-29.7,0.1-44.3c1.4-4.8,4.7-9.8,8.5-12.8c8.1-6.4,20.1-2.8,24.1,7.6
						c1.4,3.7,2.4,7.5,3.2,11.3c0,0.1,2.2,13.1,1.3,24c-0.7,5-1.3,9.5-2.4,14C859.7,177.1,853.4,182.4,845,182.4z"/>
				</g>
			</g>
			<g>
				
					<image style="overflow:visible;opacity:0.75;" width="151" height="172" xlink:href="3FE79A41.png"  transform="matrix(1 0 0 1 986.6163 71.6163)">
				</image>
				<g>
					<path class="st1" d="M1118.9,139.1c-0.9-37.9-22.4-61.3-56.3-61.3c-29.6,0-48.6,15.3-55.1,44.7c-3.5,15.8-3.2,31.6,0.8,47.2
						c5,19.4,15.8,33.7,34.3,39c8.1,2.3,16.9,3.2,25.3,2.7c21.8-1.3,37.7-12.6,46-35.1C1118.3,164.4,1119.2,151.8,1118.9,139.1z
						 M1062.2,182.4c-8.6,0-14.7-5.1-17.5-15.5c-3.9-14.7-4.3-29.7,0.1-44.3c1.4-4.8,4.7-9.8,8.5-12.8c8.1-6.4,20.1-2.8,24.1,7.6
						c1.4,3.7,2.4,7.5,3.2,11.3c0,0.1,2.2,13.1,1.3,24c-0.7,5-1.3,9.5-2.4,14C1076.9,177.1,1070.6,182.4,1062.2,182.4z"/>
				</g>
			</g>
			<g>
				
					<image style="overflow:visible;opacity:0.75;" width="128" height="172" xlink:href="3FE79A46.png"  transform="matrix(1 0 0 1 1402.6163 71.6163)">
				</image>
				<g>
					<path class="st1" d="M1475,173.9c-0.1,0.7-0.2,1.5-0.4,2.2c-1.3,4.6-5.1,6.6-9.1,6.2c-6.8-0.7-13.7-1.5-20.1-3.8
						c-11.8-4.3-15.5-4.1-20,5.4h84.2c1-3.2,1.7-6.6,1.9-10H1475z M1422.4,191.5c-0.6,2.2-0.8,4.2-0.6,5.9h80.4
						c1.6-1.8,2.9-3.8,4.1-5.9H1422.4z M1424.3,202.5c1.3,1.2,3,2.2,5.2,2.8c5.5,1.6,11,2.9,16.6,4.2c0,0,0,0,0,0
						c0.8,0.1,14.8,2.5,24.9,2.1c2.1-0.2,4.2-0.5,6.3-0.9c5.4-1.1,10.7-2.9,15.9-5.7c1.3-0.7,2.6-1.6,3.8-2.5H1424.3z M1511.4,165.6
						h-40.3c-0.4-0.3-0.8-0.6-1.2-0.8c-4.5-2.7-9.4-4.8-14.1-7.2c-4.8-2.5-9.9-4.6-14.5-7.4c-12.5-7.6-18-19.5-17-34.9
						c1-15.1,7.9-26.2,20.4-32.2c0.4-0.2,0.7-0.3,1.1-0.5c9.4-4.2,18.7-5.6,27.8-4.9c0.2,0,0.4,0,0.6,0.1c5.3,0.5,10.5,1.6,15.7,3.3
						c17.2,8.5,16.5,21.5,15.8,25.7c-0.1,0.5-0.2,0.8-0.2,1c-0.9,1.2-1.9,2.3-2.8,3.5c-3.4,4.1-8.1,3.6-12.7,1.9
						c-4.6-1.8-9.1-3.7-13.8-5.2c-2.5-0.8-5.3-0.9-8-0.8c-0.1,0-0.1,0-0.2,0c-3.5,0.1-6.5,1.5-7.6,5.6c-1.1,4.2,0.2,7.7,3.5,9.9
						c3.6,2.3,7.4,4.1,11.2,6.1c6.9,3.7,14,6.9,20.7,11C1505.2,145.2,1510.2,155,1511.4,165.6z"/>
				</g>
			</g>
		</g>
		<g>
			<path class="st1" d="M1291.5,259.1c0,2.1-1.4,3.9-3,3.9h-6.1c-1.7,0-3-1.7-3.1-3.9c0,0-0.1-4,0.1-7.9c0.2-3.1-1.3-4.9-3.7-4.7
				c-2.8,0.3-5.7,0-8.6,0.1c-1.5,0-1.5,0-1.5,0c-0.6,1.8-1.1,5.1-1.1,7.2l-0.1,5.6c0,2.1,0.1,4.8,0.3,5.9c0.2,1.1,2.9,4.3,4.3,5.5
				l16.1,14.6c1.4,1.2,3.3,3.4,4.4,4.9c1,1.4,1.9,8.3,1.9,10.4l0,19.7c0,2.1-0.1,4.3-0.2,4.9s-1.5,3-2.4,4.6c-1,1.6-5.2,4.2-6.6,4.2
				c-1.4,0.1-6.5,0.2-8.2,0.2l-10.7,0c-1.7,0-3.4-0.1-3.8-0.3c-0.5-0.1-2.1-1.8-3-3s-3.4-4.5-3.6-4.9c-0.2-0.4-0.4-3-0.4-5.2l0-14.1
				c0-2.1,0-3.9,0.1-4s1.5-0.5,3.1-0.5h6c1.7,0,3,1.7,3,3.9c0,0,0,3.2,0,6.6c0,1.4,0,1.4,0,1.4c0,1.5,0.3,3.4,0.6,4.3
				c0.3,0.9,3.3,1.6,5,1.6c0,0,3.4,0,6.6,0c1.6,0,1.6,0,1.6,0c0.6-1.9,1-5.3,1-7.4l0-6.8c0-2.1-0.1-4.7-0.3-5.7
				c-0.2-1-2.8-4.1-4.2-5.3l-16-14.5c-1.4-1.2-3.4-3.5-4.5-5c-1.1-1.5-2-8.8-2-10.9l0-17.8c0-2.1,0-4.4,0.1-5.1
				c0.1-0.7,1.7-3.4,2.7-5c1-1.5,5.3-4.1,7-4.2c0,0,2-0.1,4.6-0.1c5.6,0,11.3,0,16.9,0c1,0,1,0,1,0c0.8,0.7,2.1,2.2,3,3.3
				c0.9,1.1,3.3,4.4,3.5,4.7c0.2,0.3,0.4,2.9,0.4,5L1291.5,259.1z"/>
			<path class="st1" d="M883.8,330.4c0,2.1-1.4,3.9-3,3.9h-6.2c-1.7,0-3-1.7-3-3.9v-94c0-2.1,1.4-3.9,3-3.9h29.7c1.7,0,3,1.7,3,3.9
				v6.5c0,2.1-1.4,3.9-3,3.9h-17.4c-1.7,0-3,1.7-3,3.9v23c0,2.1,1.4,3.9,3,3.9h13.9c1.7,0,3,1.7,3,3.9v6.5c0,2.1-1.4,3.9-3,3.9h-14
				c-1.7,0-3,1.7-3,3.9V330.4z"/>
			<path class="st1" d="M1622.7,314.2c0-1.6,1.4-3,3-3h5.3c1.7,0,3.1,0.1,3.1,0.3c0,0.2,0.1,2.1,0.1,3.8l0,7.7
				c0,1.8-0.1,3.5-0.2,3.8c-0.1,0.3-0.5,1.1-0.5,1.2c0,0-0.9,1.2-1.9,2.6c0,0-1.4,1.9-3.6,2.9c-2.1,1-4.3,0.7-4.3,0.7
				c-1.6-0.2-4.3-0.4-6-0.4c0,0-6.3,0-11,0c-0.7,0-0.7,0-0.7,0c-0.7-0.5-2.2-1.6-3.4-2.6c-1.1-1-3.1-5.2-3.1-6.6
				c-0.1-1.4-0.1-6.6-0.1-8.4l0-35.4c0-1.8,0.1-3.7,0.1-4.2s1.5-2.5,2.3-3.3c0.7-0.8,3.1-3,3.5-3.3c0.4-0.3,2.9-0.5,4.6-0.5l13.9,0
				c1.7,0,3.4,0.1,3.8,0.2c0.5,0.1,2.3,1.5,3.4,2.5c1.1,0.9,3,5.1,3.1,6.5c0.1,1.4,0.1,6.3,0.1,7.7s-0.3,5.4-0.6,5.4c0,0,0,0-0.2,0
				c-3.5,0-7.6,0-7.6,0c-1.7,0-3-1.5-3-3.2c0,0,0-2.3,0-5c0-2.2-0.8-3.1-2.8-3.1c-2.2,0-4.3,0-6.5,0c-1.6,0-1.6,0-1.6,0
				c-0.5,1.5-0.9,4.2-0.9,6l0,30.2c0,1.8,0.2,3.9,0.5,4.7c0.3,0.8,3.5,1.4,5.2,1.4c0,0,1.4,0,3.6,0c1.6,0,1.6,0,1.6,0
				C1622.2,321.3,1622.7,315.8,1622.7,314.2z"/>
			<path class="st1" d="M1553.2,273.3c0-1.8,1.4-3.2,3-3.2h5.2c1.7,0,3,1.5,3,3.2V331c0,1.8-1.4,3.2-3,3.2h-5.2c-1.7,0-3-1.5-3-3.2
				V273.3z"/>
			<path class="st1" d="M1553.2,250.5c0-0.4,1.4-0.6,3-0.6h5.2c1.7,0,3,0.3,3,0.6V262c0,0.4-1.4,0.6-3,0.6h-5.2c-1.7,0-3-0.3-3-0.6
				V250.5z"/>
			<path class="st1" d="M1263.7,252.5c0,1.8-1.4,3.2-3,3.2h-5.2c-1.7,0-3-1.5-3-3.2V246c0-1.8,1.4-3.2,3-3.2h5.2c1.7,0,3,1.5,3,3.2
				V252.5z"/>
			<path class="st1" d="M1125.1,233.2h-5.3c-1.7,0-3,1.5-3,3.2l-0.2,35.4c0,1.8-0.4,2.9-0.9,2.5c0,0,0,0-0.2-0.3
				c-2.1-3.6-5.1-4.6-9-4.1c-2.4,0.3-5.1-0.6-7.1,0.3c-2.1,1-3.6,3.5-5.3,5.4c-0.5,0.5-0.8,1.4-0.8,2.1c0,16.3,0,32.5,0,48.8
				c0,0.7,0.3,1.6,0.8,2.1c1.5,1.7,3,3.3,4.6,4.9c0.5,0.4,1.2,0.8,1.8,0.8c3.4,0.1,6.8,0.1,10.2,0c0.7,0,1.4-0.4,1.9-0.9
				c1.3-1.3,1.8-1.9,1.8-1.9c1.1-1.3,2.3-1.6,2.5-0.6c0.3,1,2.3,3.4,4,3.4h4c1.7,0,3-1.5,3-3.2l0.2-94.4
				C1128.2,234.7,1126.8,233.2,1125.1,233.2z M1108.4,323.2c-3.5,0-6.4-2.2-6.4-4.9v-32.7c0-2.7,2.9-4.9,6.4-4.9
				c0.4,0,0.8,0,1.2,0.1c1.3,0.2,2.4,0.7,3.3,1.3c1.2,0.9,1.9,2.1,1.9,3.4v32.7c0,2.6-2.8,4.8-6.3,4.9
				C1108.5,323.2,1108.5,323.2,1108.4,323.2z"/>
			<path class="st1" d="M1352.8,313.4c-0.1-0.5-1.5-0.9-3.1-0.9h-5.3c-1.7,0-3,1.5-3,3.2c0,0,0,2.2,0,4.9c0,2-0.9,3-2.7,3
				c-2.2,0-4.3,0-6.5,0c-1.8,0-2.7-1-2.7-3c0-4.1,0-8.3,0-12.4c0-0.7,0-0.7,0-0.7c0-0.8,1.4-1.5,3-1.5h17.3c1.7,0,3-1.5,3-3.2
				c0,0,0-11.4,0-18.5c0-2.6,0.6-5.5-0.3-7.7c-0.9-2.3-3.2-3.9-5-5.7c-0.5-0.5-1.4-0.9-2.1-0.9c-4.7-0.1-9.4-0.1-14.2,0
				c-2.4,0-5.1-0.6-7.1,0.3c-2,0.9-3.4,3.4-5.1,5.1c-0.8,0.8-1,1.6-1,2.7c0,13.9,0,27.9,0,41.8c0,2.6-0.6,5.6,0.3,7.8
				c0.9,2.3,3.3,3.8,5,5.7c0,0,0.1,0.1,0.1,0.1c0.6,0.3,1.1,0.7,1.7,0.7c6.9,0.1,13.8,0,20.6,0c0.5,0,1.2-0.3,1.6-0.7
				c1.6-1.6,3.2-3.3,4.7-5c0.4-0.5,0.8-1.4,0.8-2.1c0.1-4.2,0-8.4,0-12.6C1352.8,313.4,1352.8,313.4,1352.8,313.4z M1329.5,282.6
				c0-1.1,0.9-2,2.1-2c2.5,0,5-0.2,7.5,0.1c0.8,0.1,2,1.2,2.1,2c0.2,4.3,0.1,9.9,0.1,9.9c0,1.8-1.4,3.2-3.1,3.2h-5.9
				c-1.7,0-3-1.5-3-3.2C1329.4,292.5,1329.4,287,1329.5,282.6z"/>
			<path class="st1" d="M1428,278c-0.4-1.6-0.9-3.2-2.2-4.1c-4.2-3.1-8.9-3.9-13.8-2.5c-0.5,0.1-0.9,0.2-1.3,0
				c-0.1-0.1-0.3-0.2-0.4-0.3c0,0,0,0-0.1-0.1c-0.5-0.3-1-0.5-1.6-0.5h-3.3c-0.8,0-1.6,0-2.4,0c-1.1,0.1-2,0.9-2.3,1.9
				c-0.1,0.8-0.1,1.6-0.1,2.4v0.3l-0.1,28.6c0,2-0.1,4.1-0.1,6.1v9.3c0,2.3-0.1,4.6,0,6.9c0,0.7,0,1.4,0,2v3.1c0,0.3,0,0.5,0.1,0.8
				v0.4c0,1.1,0.8,2,1.9,2h1h4.2h0.1h1h0.1h0.4h0.6c1,0,1.9-0.9,1.9-2v-0.6v-42.8v-2.1c0-0.1,0-0.3,0-0.4c0-0.6,0-1.1,0-1.7
				c0-0.4,0-0.9,0-1.3c0-0.4,0-0.7,0.4-0.8c1.6-0.4,3.2-0.6,4.9-0.2c0.9,0.2,1.3,0.8,1.3,1.9c0,2-0.3,4,0,6c0.2,1.4,0.7,2.6,2,3.1
				c2.1,0.8,4.1,1,6.2-0.1c1.1-0.5,1.9-1.3,2-2.7c0.1-1.2,0.2-2.4,0.2-3.6C1428.3,284,1428.7,280.9,1428,278z"/>
			<path class="st1" d="M1511.4,271.1c1.2,0,2,1,1.8,2.2l-6.7,56.3c-0.1,1.2-0.6,2.8-0.9,3.5c-0.3,0.7-2.9,1.2-4,1.2h-4
				c-1.2,0-2.7-0.2-3.3-0.5c-0.7-0.3-1.5-2.9-1.6-4.1l-6.3-53.1c-0.1-1.2-0.4-2.9-0.5-3.8c-0.1-0.9,0.8-1.6,1.9-1.6h6.2
				c1.2,0,2.2,0.5,2.3,1.2c0.1,0.7,0.1,1.2,0.1,1.2c0,0,0.1,1,0.3,2.3l2.7,22.8c0.1,1.2,0.4,1.2,0.5,0l3-25.2
				c0.1-1.2,1.2-2.2,2.4-2.2H1511.4z"/>
			<path class="st1" d="M963.3,313.9l0.2-33.2c0-0.8,0.1-1.6,0-2.4l0,0l0,0c-0.1-0.7-0.2-1.4-0.4-2c-0.9-2.3-3.2-3.9-5-5.7
				c-0.5-0.5-1.4-0.9-2.1-0.9c-4.7-0.1-9.4-0.1-14.2,0c-2.4,0-5.1-0.6-7.1,0.3c-2.1,1-3.6,3.5-5.3,5.4c-0.5,0.5-0.8,1.4-0.8,2.1
				c0,16.3,0,32.5,0,48.8c0,0.8,0.4,1.6,0.9,2.2c1.4,1.6,2.8,3.2,4.4,4.7c0.5,0.5,1.4,0.9,2.1,0.9c4.7,0.1,9.3,0,14,0
				c2.4,0,5.1,0.7,7.2-0.2c2.1-1,3.6-3.5,5.4-5.3c0.7-0.7,0.9-1.5,0.9-2.5C963.3,321.9,963.3,317.9,963.3,313.9L963.3,313.9z
				 M951.9,320.1c0,1.8-1,2.9-2.6,2.9c-2.2,0-4.4,0-6.6,0c-1.7,0-2.6-1-2.6-2.9c0-12.2,0-24.3,0-36.5c0-2,0.9-2.9,2.7-2.9
				c2.2,0,4.4,0,6.6,0c1.6,0,2.5,1,2.5,2.8c0,6.1,0,12.3,0,18.4C951.9,308,951.9,314,951.9,320.1z"/>
			<path class="st1" d="M1040.8,313.9l0.2-33.2c0-0.8,0.1-1.6,0-2.4l0,0l0,0c-0.1-0.7-0.2-1.4-0.4-2c-0.9-2.3-3.2-3.9-5-5.7
				c-0.5-0.5-1.4-0.9-2.1-0.9c-4.7-0.1-9.4-0.1-14.2,0c-2.4,0-5.1-0.6-7.1,0.3c-2.1,1-3.6,3.5-5.3,5.4c-0.5,0.5-0.8,1.4-0.8,2.1
				c0,16.3,0,32.5,0,48.8c0,0.8,0.4,1.6,0.9,2.2c1.4,1.6,2.8,3.2,4.4,4.7c0.5,0.5,1.4,0.9,2.1,0.9c4.7,0.1,9.3,0,14,0
				c2.4,0,5.1,0.7,7.2-0.2c2.1-1,3.6-3.5,5.4-5.3c0.7-0.7,0.9-1.5,0.9-2.5C1040.9,321.9,1040.8,317.9,1040.8,313.9L1040.8,313.9z
				 M1029.4,320.1c0,1.8-1,2.9-2.6,2.9c-2.2,0-4.4,0-6.6,0c-1.7,0-2.6-1-2.6-2.9c0-12.2,0-24.3,0-36.5c0-2,0.9-2.9,2.7-2.9
				c2.2,0,4.4,0,6.6,0c1.6,0,2.5,1,2.5,2.8c0,6.1,0,12.3,0,18.4C1029.4,308,1029.4,314,1029.4,320.1z"/>
			<path class="st1" d="M1715.3,318.6c0-2,0-2.2,0-2.2c0-2.1-1.6-3.9-3.6-3.9h-4.2c-2,0-3.6,1.7-3.6,3.9c0,0,0,1.7,0,4.4
				c0,1.8-0.9,2.9-2.7,2.9c-2.2,0-4.3,0-6.5,0c-1.8,0-2.8-1-2.8-2.9c0-4.4,0-8.7,0-13.1c0-0.5,0-0.5,0-0.5c0.1-0.6,1.7-1.1,3.7-1.1
				h15.8c2,0,3.7-0.2,3.8-0.4c0,0,0,0,0-0.1c0-9.4,0-18.7,0-28.1c0-0.6-0.4-1.2-0.7-1.6c-1.4-1.6-2.8-3.2-4.4-4.7
				c-0.6-0.6-1.5-1-2.3-1.1c-4.7-0.1-9.3-0.1-14,0c-2.4,0-5.1-0.7-7.1,0.3c-2.1,1-3.6,3.5-5.3,5.4c-0.5,0.5-0.8,1.4-0.8,2.1
				c0,16.3,0,32.6,0,49c0,0.7,0.3,1.5,0.8,2c1.5,1.7,3,3.3,4.6,4.9c0.5,0.5,1.2,0.8,1.8,0.8c6.8,0.1,13.6,0.1,20.3,0
				c0.6,0,1.4-0.3,1.8-0.8c1.6-1.6,3.2-3.3,4.7-5c0.4-0.5,0.7-1.3,0.7-2C1715.4,323.9,1715.3,321.2,1715.3,318.6z M1692,284.5
				c0-2.1,1.6-3.9,3.6-3.9h4.7c2,0,3.6,1.7,3.6,3.9v7.4c0,2.1-1.6,3.9-3.6,3.9h-4.7c-2,0-3.6-1.7-3.6-3.9V284.5z"/>
		</g>
	</g>
</g>
</svg>
