<?xml version="1.0" encoding="utf-8"?>
<!-- Generator: Adobe Illustrator 24.0.2, SVG Export Plug-In . SVG Version: 6.00 Build 0)  -->
<svg version="1.1" id="Capa_1" xmlns="http://www.w3.org/2000/svg" xmlns:xlink="http://www.w3.org/1999/xlink" x="0px" y="0px"
	 viewBox="0 0 1800 548.3" style="enable-background:new 0 0 1800 548.3;" xml:space="preserve">
<style type="text/css">
	.st0{fill:#771B1D;}
	.st1{opacity:0.7;}
	.st2{fill:#FFFFFF;}
	.st3{fill:#F5FF5B;}
	.st4{fill:#FCFCFA;}
</style>
<g>
	<rect x="23.2" y="23.3" class="st0" width="1753.6" height="501.7"/>
	<g>
		<g>
			<g>
				<g class="st1">
					<path d="M1431,457c-11.3,0-21.3-4.8-28.9-13.9c-7.2-8.6-10.8-19.2-10.7-31.4v-13.9h27.1c-6.1-2.3-11.6-6.2-16.2-11.7
						c-7.2-8.6-10.8-19.2-10.7-31.4l0-22.7c0-11.7,2.8-21.9,8.4-30.4c6.5-9.8,16.3-15,28.1-15h59.3c11.3,0,21.3,4.8,28.9,14
						c7.1,8.6,10.7,19.1,10.7,31.3v13.9h-27.1c6.1,2.3,11.6,6.2,16.2,11.7c7.2,8.6,10.8,19.2,10.7,31.4l0,10.1h34.1l30.2-112.9h68.1
						l26.5,99.1l6.1,22.7l0-8.9h50.1l0,57.7h-37l0,0h-58.5l-9.6-35.7h-23.3l-9.6,35.7h-58.5l0,0h-30.7l0-9.6c-6,6.4-14,9.8-23.6,9.8
						H1431z"/>
				</g>
				<g>
					<path class="st2" d="M1425,451c-11.3,0-21.3-4.8-28.9-13.9c-7.2-8.6-10.8-19.2-10.7-31.4v-13.9h27.1
						c-6.1-2.3-11.6-6.2-16.2-11.7c-7.2-8.6-10.8-19.2-10.7-31.4l0-22.7c0-11.7,2.8-21.9,8.4-30.4c6.5-9.8,16.3-15,28.1-15h59.3
						c11.3,0,21.3,4.8,28.9,14c7.1,8.6,10.7,19.1,10.7,31.3v13.9h-27.1c6.1,2.3,11.6,6.2,16.2,11.7c7.2,8.6,10.8,19.2,10.7,31.4
						l0,10.1h34.1l30.2-112.9h68.1l26.5,99.1l6.1,22.7l0-8.9h50.1l0,57.7h-37l0,0h-58.5l-9.6-35.7h-23.3l-9.6,35.7h-58.5l0,0h-30.7
						l0-9.6c-6,6.4-14,9.8-23.6,9.8H1425z"/>
				</g>
			</g>
			<g>
				<g class="st1">
					<path d="M1730,411h-26.3l0,33.9h26.3L1730,411z M1552.8,411h-26.3l0,33.9h26.3L1552.8,411z M1436.7,336.6l0,16.3
						c0,1.8,0.8,2.6,2.3,2.6h48.2c7.8,0,14.4,3.2,19.8,9.7c5.4,6.4,8,14.4,7.9,23.7l0,22.8c-0.1,9.4-2.2,17.3-6.1,23.7
						c-4,6.4-9.8,9.7-17.7,9.7H1431c-7.8,0-14.4-3.2-19.8-9.7c-5.4-6.4-8-14.4-7.9-23.7v-2h76.1c1.5,0,2.2-0.9,2.1-2.6l0.1-16.3
						c0.1-1.8-0.6-2.6-2.1-2.6h-48.2c-7.8,0-14.4-3.2-19.8-9.7c-5.4-6.4-8-14.4-7.9-23.7l0-22.8c0-9.4,2.1-17.3,6.4-23.7
						c4.3-6.4,10.4-9.7,18.2-9.7h59.3c7.8,0,14.4,3.2,19.7,9.7c5.3,6.5,8,14.4,8,23.7v2H1439
						C1437.5,333.9,1436.8,334.8,1436.7,336.6z M1679.8,409.2l-5.6-20.8l-24.2-90.3h-49.8l-24.2,90.3l-5.6,20.8l-9.6,35.7h33.9
						l9.6-35.7h41.6l9.6,35.7h33.9L1679.8,409.2z M1610,388.4l15.2-56.8l15.2,56.8H1610z"/>
				</g>
				<g>
					<path class="st3" d="M1724,405h-26.3l0,33.9h26.3L1724,405z M1546.8,405h-26.3l0,33.9h26.3L1546.8,405z M1430.7,330.5l0,16.3
						c0,1.8,0.8,2.6,2.3,2.6h48.2c7.8,0,14.4,3.2,19.8,9.7s8,14.4,7.9,23.7l0,22.8c-0.1,9.4-2.2,17.3-6.1,23.7
						c-4,6.4-9.8,9.7-17.7,9.7H1425c-7.8,0-14.4-3.2-19.8-9.7c-5.4-6.4-8-14.4-7.9-23.7v-2h76.1c1.5,0,2.2-0.9,2.1-2.6l0.1-16.3
						c0.1-1.8-0.6-2.6-2.1-2.6h-48.2c-7.8,0-14.4-3.2-19.8-9.7c-5.4-6.4-8-14.4-7.9-23.7l0-22.8c0-9.4,2.1-17.3,6.4-23.7
						c4.3-6.4,10.4-9.7,18.2-9.7h59.3c7.8,0,14.4,3.2,19.7,9.7c5.3,6.5,8,14.4,8,23.7v2H1433
						C1431.5,327.9,1430.7,328.8,1430.7,330.5z M1673.8,403.2l-5.6-20.8l-24.2-90.3h-49.8l-24.2,90.3l-5.6,20.8l-9.6,35.7h33.9
						l9.6-35.7h41.6l9.6,35.7h33.9L1673.8,403.2z M1603.9,382.3l15.2-56.8l15.2,56.8H1603.9z"/>
				</g>
			</g>
		</g>
		<g>
			<g>
				<g class="st1">
					<path d="M1693.1,104h-73.4l-28.6,78.2l-14.9,40.6v-23.6c0-10.1,0.5-21.5,0.5-22.8l0-0.6v-0.2c0-2.3-0.6-4.6-1.7-6.8l0.7-2.8
						c0.2-0.5,0.4-1.1,0.5-1.6l0.2-0.9V163l0-0.1c0.2-0.9,0.2-1.6,0.2-1.9l0-1.1l-0.3-7.5l-0.1-12.8c0-9.7-4.6-18.2-13.6-25.1
						c-9-7-20.8-10.7-34-10.7l-118.7,0l0,18.3c-2-2.8-4.6-5.3-7.7-7.7c-9.1-7-20.5-10.6-33.9-10.6l-78,0c-13.7,0-25,3.9-32.8,11.3
						c-4.8,4.6-7.9,9.8-9.5,15.7c-2-6.2-6.1-11.7-12.2-16.5c-9.1-7-20.5-10.5-33.9-10.5l-113.1,0l0.1,117.7l-8.4-23l-34.6-94.6
						h-73.4l-10.6,29l0-29.1l-169.6,0l0,11.2c-0.2-0.2-0.4-0.4-0.7-0.5c-9-7-20.8-10.7-34-10.7l-118.7,0l0,16.5
						c-1.8-2.1-3.9-4.1-6.4-6c-9.1-7-20.6-10.6-33.9-10.6l-78.1,0c-13.7,0-25.1,3.9-32.8,11.3c-2,1.9-3.7,4-5.2,6.2
						c-3.5-4.4-8.2-8.2-13.9-11.2c-7.9-4.2-17-6.3-26.9-6.3l-117.1,0v0l-58.3,0l-35.8,48l-39.4-48l-55.3,0v0l-65.7,0L71,238.5h65.7
						h1.5h65.7l-0.1-23.9l0.8,0.9l27.2,30.6l27-30.6l1-1.1l0.1,24.2h65.7h1.5h65.7l-0.2-33.2l54,0c12.9,0,23.7-3.5,31.4-10.1l0,7.6
						c-0.1,9.9,4.5,18.4,13.6,25.3c9.2,7,20.7,10.5,34,10.5h78.1c13.8,0,25.1-3.9,32.7-11.4c1.2-1.1,2.3-2.3,3.2-3.6l0,15h66.9
						v-33.2h30.7l0.3,33.2h67.8v-39.4c0-9.9,0.4-20.7,0.5-22.8l0-0.6v-0.2c0-2.3-0.6-4.5-1.6-6.7l0.7-3.1c0.2-0.4,0.3-0.9,0.4-1.4
						l0.2-0.9v-0.6l0-0.2c0.2-0.7,0.2-1.3,0.2-1.8l0-1.1l-0.3-7.5l0-1.8l38.3,0l0.2,87.9h67.1l-0.1-87.9l44.7,0l-11.6,31.6
						l-20.6,56.4h63.1l10.3-28.2h25.1l10.3,28.2h63.1l0-0.1h111.1c13.7,0,25-3.9,32.7-11.4c4.7-4.6,7.8-9.8,9.4-15.6
						c1.9,6.2,6,11.7,12.3,16.5c9.2,7,20.6,10.5,33.9,10.5h78c13.7,0,25-3.9,32.7-11.4c1.8-1.8,3.4-3.7,4.8-5.7l0,17.1h66.9v-33.2
						h30.7l0.3,33.2h62l0,0h63.1l10.3-28.2h25.1l10.3,28.2h63.1L1693.1,104z M392.4,159.9l0-9.4l30.2,0l0,9.4L392.4,159.9z
						 M544,191.8l0.7-41.2l34.8,0l0.1,41.2H544z M706.7,159.9l0-9.4l30.2,0l0,9.4L706.7,159.9z M1156.5,191.8l-0.1-41.2l26.3,0
						l0,41.2H1156.5z M1314.4,191.8l0-41.2l34.6,0l0,41.2H1314.4z M1477.5,160l0-9.4l30.2,0l0,9.4L1477.5,160z"/>
				</g>
				<g>
					<g>
						<path class="st2" d="M1686.7,97.6h-73.4l-28.6,78.2l-14.9,40.6v-23.6c0-10.1,0.5-21.5,0.5-22.8l0-0.6v-0.2
							c0-2.3-0.6-4.6-1.7-6.8l0.7-2.8c0.2-0.5,0.4-1.1,0.5-1.6l0.2-0.9v-0.6l0-0.1c0.2-0.9,0.2-1.6,0.2-1.9l0-1.1l-0.3-7.5
							l-0.1-12.8c0-9.7-4.6-18.2-13.5-25.1c-9-7-20.8-10.7-34-10.7l-118.7,0l0,18.3c-2-2.8-4.6-5.3-7.7-7.7
							c-9.1-7-20.5-10.6-33.9-10.6l-78,0c-13.7,0-25,3.9-32.8,11.3c-4.8,4.6-7.9,9.8-9.5,15.7c-2-6.2-6.1-11.7-12.2-16.5
							c-9.1-7-20.5-10.5-33.9-10.5l-113.1,0l0.1,117.7l-8.4-23l-34.6-94.6h-73.4l-10.6,29l0-29.1l-169.6,0l0,11.2
							c-0.2-0.2-0.4-0.4-0.7-0.5c-9-7-20.8-10.7-34-10.7l-118.7,0l0,16.5c-1.8-2.1-3.9-4.1-6.4-6c-9.1-7-20.6-10.6-33.9-10.6
							l-78.1,0c-13.7,0-25.1,3.9-32.8,11.3c-2,1.9-3.7,4-5.2,6.2c-3.5-4.4-8.2-8.2-13.9-11.2c-7.9-4.2-17-6.3-26.9-6.3l-117.1,0v0
							l-58.3,0l-35.8,48l-39.4-48l-55.3,0v0l-65.7,0l0.5,134.7h65.7h1.5h65.7l-0.1-23.9l0.8,0.9l27.2,30.6l27-30.6l1-1.1l0.1,24.2
							h65.7h1.5h65.7l-0.2-33.2l54,0c12.9,0,23.7-3.5,31.4-10.1l0,7.6c-0.1,9.9,4.5,18.4,13.6,25.3c9.2,7,20.7,10.5,34,10.5h78.1
							c13.8,0,25.1-3.9,32.7-11.4c1.2-1.1,2.3-2.3,3.2-3.6l0,15h66.9v-33.2h30.7l0.3,33.2H799v-39.4c0-9.9,0.4-20.7,0.5-22.8l0-0.6
							v-0.2c0-2.3-0.6-4.5-1.6-6.7l0.7-3.1c0.2-0.4,0.3-0.9,0.4-1.4l0.2-0.9v-0.6l0-0.2c0.2-0.7,0.2-1.3,0.2-1.8l0-1.1l-0.3-7.5
							l0-1.8l38.3,0l0.2,87.9h67.1l-0.1-87.9l44.7,0l-11.6,31.6l-20.6,56.4h63.1l10.3-28.2h25.1l10.3,28.2h63.1l0-0.1h111.1
							c13.7,0,25-3.9,32.7-11.4c4.7-4.6,7.8-9.8,9.4-15.6c1.9,6.2,6,11.7,12.3,16.5c9.2,7,20.6,10.5,33.9,10.5h78
							c13.7,0,25-3.9,32.7-11.4c1.8-1.8,3.4-3.7,4.8-5.7l0,17.1h66.9v-33.2h30.7l0.3,33.2h62l0,0h63.1l10.3-28.2h25.1l10.3,28.2
							h63.1L1686.7,97.6z M386,153.5l0-9.4l30.2,0l0,9.4L386,153.5z M537.6,185.4l0.7-41.2l34.8,0l0.1,41.2H537.6z M700.3,153.5
							l0-9.4l30.2,0l0,9.4L700.3,153.5z M1150,185.4l-0.1-41.2l26.3,0l0,41.2H1150z M1308,185.4l0-41.2l34.6,0l0,41.2H1308z
							 M1471.1,153.5l0-9.4l30.2,0l0,9.4L1471.1,153.5z"/>
					</g>
				</g>
			</g>
			<g>
				<g>
					<g class="st1">
						<polygon points="948.4,138.1 948.4,110 804.5,110 804.5,138 855.7,138 855.9,225.9 897.4,225.9 897.2,138 						"/>
					</g>
					<g>
						<polygon class="st3" points="943.1,134.8 943,106.8 799.1,106.8 799.2,134.8 850.4,134.8 850.5,222.7 892,222.7 891.9,134.8 
													"/>
					</g>
				</g>
				<g>
					<g class="st1">
						<path d="M790.9,168.4c-0.8-1.3-2-2.5-3.5-3.4c2.2-1.4,3.8-3.3,4.4-5.5V158h0.2c0,0,0-0.1,0-0.1v-0.1l0-0.8l-0.3-7.6l-0.1-12.9
							c0-7.3-3.3-13.5-10-18.7c-6.7-5.2-14.9-7.7-24.7-7.7l-105.8,0l0.3,115.9h41.3v-33.2h48.4c4.4,0,7.9,2.6,7.9,5.8l0.2,27.4h42.2
							v-30.1c0-9.7,0.4-20.5,0.5-23c0-0.4,0-0.5,0-0.5C792.1,170.9,791.6,169.6,790.9,168.4z M746,166l-53.2,0l-0.1-28l53.2,0
							c1.1,0,1.9,0.4,2.4,1.3c0.2,0.3,0.3,0.6,0.2,0.8l0,23.8C748.6,165.3,747.7,166,746,166z"/>
					</g>
					<g>
						<path class="st3" d="M785.5,165.1c-0.8-1.3-2-2.5-3.5-3.4c2.2-1.4,3.8-3.3,4.4-5.5v-1.5h0.2c0,0,0-0.1,0-0.1v-0.1l0-0.8
							l-0.3-7.6l-0.1-12.9c0-7.3-3.3-13.5-10-18.7c-6.7-5.2-14.9-7.7-24.7-7.7l-105.8,0l0.3,115.9h41.3v-33.2h48.4
							c4.4,0,7.9,2.6,7.9,5.8l0.2,27.4h42.2v-30.1c0-9.7,0.4-20.5,0.5-23c0-0.4,0-0.5,0-0.5C786.7,167.7,786.3,166.4,785.5,165.1z
							 M740.7,162.8l-53.2,0l-0.1-28l53.2,0c1.1,0,1.9,0.4,2.4,1.3c0.2,0.3,0.3,0.6,0.2,0.8l0,23.8
							C743.2,162.1,742.4,162.8,740.7,162.8z"/>
					</g>
				</g>
				<g>
					<g class="st1">
						<polygon points="122.8,109.9 81.3,109.9 81.7,225.9 123.2,225.9 						"/>
					</g>
					<g>
						<polygon class="st3" points="117.5,106.7 75.9,106.7 76.3,222.7 117.9,222.7 						"/>
					</g>
				</g>
				<g>
					<g class="st1">
						<polygon points="310.9,225.9 269.4,225.9 269.3,179.7 244.8,207.2 228.5,225.6 212.1,207.1 187.6,179.9 187.8,225.9 
							146.3,225.9 145.9,109.9 181.1,109.9 228.3,167.5 271.2,109.9 310.6,109.9 						"/>
					</g>
					<g>
						<polygon class="st3" points="305.6,222.7 264.1,222.7 263.9,176.5 239.4,203.9 223.1,222.4 206.8,203.9 182.2,176.6 
							182.5,222.7 140.9,222.7 140.5,106.7 175.7,106.7 222.9,164.3 265.8,106.7 305.2,106.7 						"/>
					</g>
				</g>
				<g>
					<g class="st1">
						<path d="M632.8,136.4c-0.1-7.4-3.4-13.7-10.1-18.8c-6.7-5.1-14.9-7.7-24.6-7.7l-78.1,0c-9.7,0-17.3,2.6-22.6,7.6
							c-5.3,5.1-8,11.4-7.9,18.8l0.3,63.1c-0.1,7.4,3.3,13.7,10,18.8c6.7,5.1,15,7.6,24.7,7.6h78.1c9.7,0,17.2-2.6,22.5-7.6
							c5.3-5.1,7.9-11.4,8-18.8L632.8,136.4z M588.8,197.9h-55.9c-1.8,0-2.8-1.5-2.9-2.9l0.9-54.9c0.1-1.4,1-2.1,2.8-2.1l54.9,0
							c1.8,0,2.7,0.7,2.7,2.1l0.1,55.7C591.5,197.2,590.6,197.9,588.8,197.9z"/>
					</g>
					<g>
						<path class="st3" d="M627.4,133.2c-0.1-7.4-3.4-13.7-10.1-18.8c-6.7-5.1-14.9-7.7-24.6-7.7l-78.1,0c-9.7,0-17.3,2.6-22.6,7.6
							c-5.3,5.1-8,11.4-7.9,18.8l0.3,63.1c-0.1,7.4,3.3,13.7,10,18.8c6.7,5.1,15,7.6,24.7,7.6h78.1c9.7,0,17.2-2.6,22.5-7.6
							c5.3-5.1,7.9-11.4,8-18.8L627.4,133.2z M583.4,194.7h-55.9c-1.8,0-2.8-1.5-2.9-2.9l0.9-54.9c0.1-1.4,1-2.1,2.8-2.1l54.9,0
							c1.8,0,2.7,0.7,2.7,2.1l0.1,55.7C586.1,194,585.2,194.7,583.4,194.7z"/>
					</g>
				</g>
				<g>
					<g class="st1">
						<path d="M1235.9,136.5c-0.1-7.4-3.4-13.7-10.1-18.8c-6.7-5.1-14.8-7.6-24.6-7.6l-100.2,0l0.1,115.9h104.4
							c9.7,0,17.2-2.5,22.5-7.6c5.2-5.1,7.9-11.3,8-18.7L1235.9,136.5z M1191.8,197.9h-49.3l-0.1-59.9l49.3,0c1.8,0,2.7,0.7,2.7,2.1
							l0.1,55.7C1194.5,197.2,1193.6,197.9,1191.8,197.9z"/>
					</g>
					<g>
						<path class="st3" d="M1230.5,133.3c-0.1-7.4-3.4-13.7-10.1-18.8c-6.7-5.1-14.8-7.6-24.6-7.6l-100.2,0l0.1,115.9h104.4
							c9.7,0,17.2-2.5,22.5-7.6c5.2-5.1,7.9-11.3,8-18.7L1230.5,133.3z M1186.5,194.7h-49.3l-0.1-59.9l49.3,0c1.8,0,2.7,0.7,2.7,2.1
							l0.1,55.7C1189.2,194,1188.3,194.7,1186.5,194.7z"/>
					</g>
				</g>
				<g>
					<g class="st1">
						<path d="M1402.2,136.5c-0.1-7.4-3.4-13.7-10-18.7c-6.6-5.1-14.8-7.6-24.6-7.7l-78,0c-9.7,0-17.2,2.5-22.6,7.6
							s-8,11.3-7.9,18.7l0.2,63.1c-0.1,7.4,3.2,13.7,9.9,18.7c6.7,5.1,14.9,7.6,24.7,7.6h78c9.7,0,17.2-2.5,22.5-7.6
							c5.3-5.1,7.9-11.3,8-18.7L1402.2,136.5z M1358.1,198h-54.7c-1.8,0-2.8-0.7-2.9-2.1l-0.1-55.7c0.1-1.4,1-2.1,2.8-2.1l54.7,0
							c1.8,0,2.7,0.7,2.6,2.1l0,55.7C1360.8,197.3,1360,198,1358.1,198z"/>
					</g>
					<g>
						<path class="st3" d="M1396.8,133.3c-0.1-7.4-3.4-13.7-10-18.7c-6.6-5.1-14.8-7.6-24.6-7.7l-78,0c-9.7,0-17.2,2.5-22.6,7.6
							c-5.3,5.1-8,11.3-7.9,18.7l0.2,63.1c-0.1,7.4,3.2,13.7,9.9,18.7c6.7,5.1,14.9,7.6,24.7,7.6h78c9.7,0,17.2-2.5,22.5-7.6
							c5.3-5.1,7.9-11.3,8-18.7L1396.8,133.3z M1352.8,194.7H1298c-1.8,0-2.8-0.7-2.9-2.1l-0.1-55.7c0.1-1.4,1-2.1,2.8-2.1l54.7,0
							c1.8,0,2.7,0.7,2.6,2.1l0,55.7C1355.5,194,1354.6,194.7,1352.8,194.7z"/>
					</g>
				</g>
				<g>
					<g class="st1">
						<path d="M1067.5,197.8l-6-16.5l-26.1-71.3h-53.7l-26.1,71.3l-6,16.5L939.3,226h36.5l10.3-28.2h44.8l10.3,28.2h36.5
							L1067.5,197.8z M992.1,181.4l16.4-44.8l16.4,44.8H992.1z"/>
					</g>
					<g>
						<path class="st3" d="M1062.1,194.6l-6-16.5l-26.1-71.3h-53.7l-26.1,71.3l-6,16.5l-10.3,28.2h36.5l10.3-28.2h44.8l10.3,28.2
							h36.5L1062.1,194.6z M986.8,178.2l16.4-44.8l16.4,44.8H986.8z"/>
					</g>
				</g>
				<g>
					<g class="st1">
						<path d="M1714.3,197.8l-6-16.5l-26.1-71.3h-53.7l-26.1,71.3l-6,16.5l-10.3,28.2h36.5l10.3-28.2h44.8L1688,226h36.5
							L1714.3,197.8z M1638.9,181.4l16.4-44.8l16.4,44.8H1638.9z"/>
					</g>
					<g>
						<path class="st3" d="M1708.9,194.6l-6-16.5l-26.1-71.3h-53.7l-26.1,71.3l-6,16.5l-10.3,28.2h36.5l10.3-28.2h44.8l10.3,28.2
							h36.5L1708.9,194.6z M1633.6,178.2l16.4-44.8l16.4,44.8H1633.6z"/>
					</g>
				</g>
				<g>
					<g class="st1">
						<path d="M472.7,135.3c0.1-3.4-0.9-6.8-2.7-10.2c-2.7-4.8-6.9-8.8-12.6-11.8c-5.7-3-12.2-4.5-19.4-4.5l-104.2,0l0.3,116h41.5
							l-0.2-33.2l66.9,0c9.7,0,17.3-2.6,22.6-7.7c5.3-5.2,7.9-11.4,7.9-18.7L472.7,135.3z M431.7,166l-53.2,0l-0.1-28l53.2,0
							c1.1,0,1.9,0.4,2.4,1.3c0.2,0.3,0.3,0.6,0.2,0.8l0,23.8C434.3,165.3,433.4,166,431.7,166z"/>
					</g>
					<g>
						<path class="st3" d="M467.3,132.1c0.1-3.4-0.9-6.8-2.7-10.2c-2.7-4.8-6.9-8.8-12.6-11.8c-5.7-3-12.2-4.5-19.4-4.5l-104.2,0
							l0.3,116h41.5l-0.2-33.2l66.9,0c9.7,0,17.3-2.6,22.6-7.7c5.3-5.2,7.9-11.4,7.9-18.7L467.3,132.1z M426.4,162.8l-53.2,0
							l-0.1-28l53.2,0c1.1,0,1.9,0.4,2.4,1.3c0.2,0.3,0.3,0.6,0.2,0.8l0,23.8C428.9,162.1,428.1,162.8,426.4,162.8z"/>
					</g>
				</g>
				<g>
					<g class="st1">
						<path d="M1561.7,168.4c-0.8-1.3-2-2.5-3.5-3.4c2.2-1.4,3.8-3.3,4.4-5.5V158h0.2c0,0,0-0.1,0-0.1v-0.1l0-0.8l-0.3-7.6
							l-0.1-12.9c0-7.3-3.3-13.5-10-18.7c-6.7-5.2-14.9-7.7-24.7-7.7l-105.8,0l0.3,115.9h41.3v-33.2h48.4c4.4,0,7.9,2.6,7.9,5.8
							l0.2,27.4h42.2v-30.1c0-9.7,0.4-20.5,0.5-23c0-0.4,0-0.5,0-0.5C1562.9,171,1562.4,169.6,1561.7,168.4z M1516.8,166.1l-53.2,0
							l-0.1-28l53.2,0c1.1,0,1.9,0.4,2.4,1.3c0.2,0.3,0.3,0.6,0.2,0.8l0,23.8C1519.4,165.4,1518.5,166.1,1516.8,166.1z"/>
					</g>
					<g>
						<path class="st3" d="M1556.3,165.2c-0.8-1.3-2-2.5-3.5-3.4c2.2-1.4,3.8-3.3,4.4-5.5v-1.5h0.2c0,0,0-0.1,0-0.1v-0.1l0-0.8
							l-0.3-7.6l-0.1-12.9c0-7.3-3.3-13.5-10-18.7c-6.7-5.2-14.9-7.7-24.7-7.7l-105.8,0l0.3,115.9h41.3v-33.2h48.4
							c4.4,0,7.9,2.6,7.9,5.8l0.2,27.4h42.2v-30.1c0-9.7,0.4-20.5,0.5-23c0-0.4,0-0.5,0-0.5C1557.5,167.8,1557.1,166.4,1556.3,165.2
							z M1511.5,162.9l-53.2,0l-0.1-28l53.2,0c1.1,0,1.9,0.4,2.4,1.3c0.2,0.3,0.3,0.6,0.2,0.8l0,23.8
							C1514,162.2,1513.2,162.9,1511.5,162.9z"/>
					</g>
				</g>
			</g>
		</g>
		<g>
			<g>
				<g class="st1">
					<path d="M1079.5,457c-11.3,0-21.3-4.8-28.9-13.9c-3.5-4.3-6.2-9-8-14.1c-1.4,4.7-3.4,9.1-6,13c-6.5,9.8-16.2,15-28,15h-62.7
						c-11.3,0-21.3-4.8-28.9-13.9c-1.9-2.3-3.6-4.8-5-7.4c-1.2,4.2-3.3,8-6.1,11.3c-5.5,6.5-12.6,9.9-20.7,9.9h-70.8
						c-9.5,0-18.1-3.4-25.1-9.9l0,9.9H674.8l0-24.3c-1,3-2.3,5.9-3.8,8.6c-5.8,10.1-15.6,15.7-27.6,15.7h-64.9
						c-11.3,0-21.3-4.8-28.9-13.9c-3.8-4.5-6.6-9.6-8.4-15.2c-1.2,6-3.1,11-5.7,15.2c-5.7,9.1-14.7,13.9-25.9,13.9H383.8l-13.3-26.2
						l-12,26.2H196.4l-0.2-111.2h-27l0.3,111.2h-57.1l-0.3-111.2H70.9l-0.2-59.3h286l12.8,25.8l11.8-25.8h69.1l-46.1,85.2l17.5,32.2
						l-0.1-19.2h56.5l0,12.9h7.3l0-111.2h110.5l-0.1,111.2H621l0.1-111.2h111L732,397.8h42.6l0-65.9c0-11.4,2.4-21.4,7.1-29.7
						c5.8-10.1,15.6-15.6,27.6-15.6h76c8.1,0,15.3,3.5,20.7,10c2.5,3.1,4.4,6.4,5.7,10.1c0.9-1.8,1.9-3.5,3-5.2
						c6.5-9.8,16.2-15,28.1-15h62.7c11.3,0,21.3,4.8,28.9,14c3.5,4.3,6.2,9,8,14.1c1.4-4.8,3.4-9.2,6.1-13.1
						c6.5-9.8,16.3-15,28.1-15h59.3c11.3,0,21.3,4.8,28.9,14c7.1,8.6,10.7,19.1,10.7,31.3v13.9h-27.1c6.1,2.3,11.6,6.2,16.2,11.7
						c7.2,8.6,10.8,19.2,10.7,31.4l0,2.1l28.1-104.9h68.1l26.5,99.1l19.2,71.5h-58.5l-9.6-35.7h-23.3l-9.6,35.7h-58.5l1.6-6
						c-5.4,4.1-12.1,6.2-19.7,6.2H1079.5z M1066.9,397.8c-6.1-2.3-11.6-6.2-16.2-11.7c-2.2-2.7-4.1-5.5-5.7-8.6l0,20.3H1066.9z
						 M987.8,397.8l0.1-52h-24.6l-0.1,52H987.8z M906.2,397.8l0.1-52h-74.6l-0.1,52H906.2z M321.7,397.8l14.5-27.1l-14.2-25.6l0,0.7
						h-7.6l0.1,52H321.7z"/>
				</g>
				<g>
					<path class="st4" d="M1073.4,451c-11.3,0-21.3-4.8-28.9-13.9c-3.5-4.3-6.2-9-8-14.1c-1.4,4.7-3.4,9.1-6,13
						c-6.5,9.8-16.2,15-28,15h-62.7c-11.3,0-21.3-4.8-28.9-13.9c-1.9-2.3-3.6-4.8-5-7.4c-1.2,4.2-3.3,8-6.1,11.3
						c-5.5,6.5-12.6,9.9-20.7,9.9h-70.8c-9.5,0-18.1-3.4-25.1-9.9l0,9.9H668.8l0-24.3c-1,3-2.3,5.9-3.8,8.6
						c-5.8,10.1-15.6,15.7-27.6,15.7h-64.9c-11.3,0-21.3-4.8-28.9-13.9c-3.8-4.5-6.6-9.6-8.4-15.2c-1.2,6-3.1,11-5.7,15.2
						c-5.7,9.1-14.7,13.9-25.9,13.9H377.8l-13.3-26.2l-12,26.2H190.4l-0.2-111.2h-27l0.3,111.2h-57.1L106,339.8H64.9l-0.2-59.3h286
						l12.8,25.8l11.8-25.8h69.1l-46.1,85.2l17.5,32.2l-0.1-19.2h56.5l0,12.9h7.3l0-111.2h110.5l-0.1,111.2h25.1l0.1-111.2h111
						l-0.1,111.2h42.6l0-65.9c0-11.4,2.4-21.4,7.1-29.7c5.8-10.1,15.6-15.6,27.6-15.6h76c8.1,0,15.3,3.5,20.7,10
						c2.5,3.1,4.4,6.4,5.7,10.1c0.9-1.8,1.9-3.5,3-5.2c6.5-9.8,16.2-15,28.1-15h62.7c11.3,0,21.3,4.8,28.9,14c3.5,4.3,6.2,9,8,14.1
						c1.4-4.8,3.4-9.2,6.1-13.1c6.5-9.8,16.3-15,28.1-15h59.3c11.3,0,21.3,4.8,28.9,14c7.1,8.6,10.7,19.1,10.7,31.3v13.9h-27.1
						c6.1,2.3,11.6,6.2,16.2,11.7c7.2,8.6,10.8,19.2,10.7,31.4l0,2.1l28.1-104.9h68.1l26.5,99.1l19.2,71.5h-58.5l-9.6-35.7h-23.3
						l-9.6,35.7h-58.5l1.6-6c-5.4,4.1-12.1,6.2-19.7,6.2H1073.4z M1060.9,391.8c-6.1-2.3-11.6-6.2-16.2-11.7
						c-2.2-2.7-4.1-5.5-5.7-8.6l0,20.3H1060.9z M981.8,391.8l0.1-52h-24.6l-0.1,52H981.8z M900.2,391.8l0.1-52h-74.6l-0.1,52H900.2z
						 M315.6,391.8l14.5-27.1l-14.2-25.6l0,0.7h-7.6l0.1,52H315.6z"/>
				</g>
			</g>
			<g>
				<g class="st1">
					<path d="M1025.2,308.2c-5.3-6.4-11.9-9.7-19.7-9.7h-62.7c-7.8,0-13.9,3.2-18.2,9.7c-4.3,6.5-6.4,14.4-6.4,23.7l-0.1,79.8
						c-0.1,9.4,2.5,17.3,7.9,23.7c5.4,6.4,12,9.7,19.8,9.7h62.7c7.8,0,13.8-3.2,18.1-9.7c4.2-6.4,6.4-14.4,6.5-23.7l0.1-79.8
						C1033.2,322.5,1030.5,314.6,1025.2,308.2z M999.7,407c0.1,1.8-0.7,2.6-2.1,2.6h-44c-1.5,0-2.2-0.9-2.3-2.6l0.2-70.5
						c0.1-1.8,0.8-2.6,2.3-2.6h44c1.5,0,2.2,0.9,2.1,2.6L999.7,407z M720,409.7l0.1-111.2h-33.3l-0.1,146.6h90.5l0.1-35.4H720z
						 M633,298.5L632.8,407c0.1,1.8-0.7,2.6-2.1,2.6h-44.5c-1.5,0-2.2-0.9-2.3-2.6l0.1-108.6h-33.3l0.1,113.2
						c-0.1,9.4,2.6,17.3,8,23.7c5.4,6.4,12,9.7,19.8,9.7h64.9c7.8,0,13.5-3.2,17.2-9.7c3.7-6.4,5.5-14.4,5.6-23.7l0-113.2H633z
						 M530.7,298.5h-33.3l0,108.6c0.1,1.8-0.7,2.6-2.1,2.6h-27.5c-0.9,0-1.4-0.5-1.4-1.6l0-11.3h-32.6l0.1,28.8
						c0,5.4,1.6,10,4.7,13.8c3.2,3.8,7,5.7,11.5,5.7h59.6c14,0,21.1-11.1,21.1-33.4L530.7,298.5z M390.7,371.8l39.7-73.3H389
						l-19,41.6l-20.6-41.6h-39.8l0.3,0.6l39.8,71.5l-39.5,73.9l-0.3,0.6h41.1l19.1-41.7l21.1,41.7h39.4L390.7,371.8z M310.1,409.7
						h-68.6l0-23h61l-0.1-29.7h-61l0-23H310l0-34.9v-0.6H208l0.3,146.6h101.9v-0.6L310.1,409.7z M198.3,298.5H82.7l0.1,35.5h41.1
						l0.3,111.2h33.3l-0.3-111.2h40.1L198.3,298.5z M819.8,336.6l-0.1,70.5c0,1.8,0.8,2.6,2.3,2.6h79.5v15.9c0,5.4-1.6,10-4.8,13.8
						c-3.2,3.8-7.1,5.7-11.6,5.7h-70.8c-7.8,0-14.4-3.2-19.8-9.7c-5.4-6.4-8-14.4-8-23.7l0-79.8c0-9.4,1.8-17.3,5.6-23.7
						c3.7-6.4,9.5-9.7,17.3-9.7h76c4.5,0,8.4,1.9,11.5,5.7c3.2,3.8,4.7,8.4,4.7,13.9v15.9h-79.5
						C820.6,333.9,819.8,334.8,819.8,336.6z M1085.1,336.6l0,16.3c0,1.8,0.8,2.6,2.3,2.6h48.2c7.8,0,14.4,3.2,19.8,9.7
						c5.4,6.4,8,14.4,7.9,23.7l0,22.8c-0.1,9.4-2.2,17.3-6.1,23.7c-4,6.4-9.8,9.7-17.7,9.7h-60.1c-7.8,0-14.4-3.2-19.8-9.7
						c-5.4-6.4-8-14.4-7.9-23.7v-2h76.1c1.5,0,2.2-0.9,2.1-2.6l0.1-16.3c0.1-1.8-0.6-2.6-2.1-2.6h-48.2c-7.8,0-14.4-3.2-19.8-9.7
						c-5.4-6.4-8-14.4-7.9-23.7l0-22.8c0-9.4,2.1-17.3,6.4-23.7c4.3-6.4,10.4-9.7,18.2-9.7h59.3c7.8,0,14.4,3.2,19.7,9.7
						c5.3,6.5,8,14.4,8,23.7v2h-76.1C1086,333.9,1085.2,334.8,1085.1,336.6z M1292,409.2l-5.6-20.8l-24.2-90.3h-49.8l-24.2,90.3
						l-5.6,20.8l-9.6,35.7h33.9l9.6-35.7h41.6l9.6,35.7h33.9L1292,409.2z M1222.2,388.4l15.2-56.8l15.2,56.8H1222.2z"/>
				</g>
				<g>
					<path class="st3" d="M1019.2,302.1c-5.3-6.4-11.9-9.7-19.7-9.7h-62.7c-7.8,0-13.9,3.2-18.2,9.7c-4.3,6.5-6.4,14.4-6.4,23.7
						l-0.1,79.8c-0.1,9.4,2.5,17.3,7.9,23.7c5.4,6.4,12,9.7,19.8,9.7h62.7c7.8,0,13.8-3.2,18.1-9.7c4.2-6.4,6.4-14.4,6.5-23.7
						l0.1-79.8C1027.2,316.5,1024.5,308.6,1019.2,302.1z M993.6,401c0.1,1.8-0.7,2.6-2.1,2.6h-44c-1.5,0-2.2-0.9-2.3-2.6l0.2-70.5
						c0.1-1.8,0.8-2.6,2.3-2.6h44c1.5,0,2.2,0.9,2.1,2.6L993.6,401z M714,403.7l0.1-111.2h-33.3l-0.1,146.6h90.5l0.1-35.4H714z
						 M626.9,292.4L626.8,401c0.1,1.8-0.7,2.6-2.1,2.6h-44.5c-1.5,0-2.2-0.9-2.3-2.6l0.1-108.6h-33.3l0.1,113.2
						c-0.1,9.4,2.6,17.3,8,23.7c5.4,6.4,12,9.7,19.8,9.7h64.9c7.8,0,13.5-3.2,17.2-9.7c3.7-6.4,5.5-14.4,5.6-23.7l0-113.2H626.9z
						 M524.6,292.4h-33.3l0,108.6c0.1,1.8-0.7,2.6-2.1,2.6h-27.5c-0.9,0-1.4-0.5-1.4-1.6l0-11.3h-32.6l0.1,28.8
						c0,5.4,1.6,10,4.7,13.8c3.2,3.8,7,5.7,11.5,5.7h59.6c14,0,21.1-11.1,21.1-33.4L524.6,292.4z M384.7,365.8l39.7-73.3h-41.5
						l-19,41.6l-20.6-41.6h-39.8l0.3,0.6l39.8,71.5l-39.5,73.9l-0.3,0.6h41.1l19.1-41.7l21.1,41.7h39.4L384.7,365.8z M304.1,403.7
						h-68.6l0-23h61l-0.1-29.7h-61l0-23h68.6l0-34.9v-0.6h-102l0.3,146.6h101.9v-0.6L304.1,403.7z M192.2,292.4H76.7l0.1,35.5h41.1
						l0.3,111.2h33.3l-0.3-111.2h40.1L192.2,292.4z M813.7,330.5l-0.1,70.5c0,1.8,0.8,2.6,2.3,2.6h79.5v15.9c0,5.4-1.6,10-4.8,13.8
						c-3.2,3.8-7.1,5.7-11.6,5.7h-70.8c-7.8,0-14.4-3.2-19.8-9.7c-5.4-6.4-8-14.4-8-23.7l0-79.8c0-9.4,1.8-17.3,5.6-23.7
						c3.7-6.4,9.5-9.7,17.3-9.7h76c4.5,0,8.4,1.9,11.5,5.7c3.2,3.8,4.7,8.4,4.7,13.9v15.9H816C814.5,327.9,813.8,328.8,813.7,330.5z
						 M1079.1,330.5l0,16.3c0,1.8,0.8,2.6,2.3,2.6h48.2c7.8,0,14.4,3.2,19.8,9.7c5.4,6.4,8,14.4,7.9,23.7l0,22.8
						c-0.1,9.4-2.2,17.3-6.1,23.7c-4,6.4-9.8,9.7-17.7,9.7h-60.1c-7.8,0-14.4-3.2-19.8-9.7c-5.4-6.4-8-14.4-7.9-23.7v-2h76.1
						c1.5,0,2.2-0.9,2.1-2.6l0.1-16.3c0.1-1.8-0.6-2.6-2.1-2.6h-48.2c-7.8,0-14.4-3.2-19.8-9.7c-5.4-6.4-8-14.4-7.9-23.7l0-22.8
						c0-9.4,2.1-17.3,6.4-23.7c4.3-6.4,10.4-9.7,18.2-9.7h59.3c7.8,0,14.4,3.2,19.7,9.7c5.3,6.5,8,14.4,8,23.7v2h-76.1
						C1079.9,327.9,1079.2,328.8,1079.1,330.5z M1286,403.2l-5.6-20.8l-24.2-90.3h-49.8l-24.2,90.3l-5.6,20.8l-9.6,35.7h33.9
						l9.6-35.7h41.6l9.6,35.7h33.9L1286,403.2z M1216.1,382.3l15.2-56.8l15.2,56.8H1216.1z"/>
				</g>
			</g>
		</g>
	</g>
</g>
</svg>
