<?xml version="1.0" encoding="utf-8"?>
<!-- Generator: Adobe Illustrator 24.0.2, SVG Export Plug-In . SVG Version: 6.00 Build 0)  -->
<svg version="1.1" id="Capa_1" xmlns="http://www.w3.org/2000/svg" xmlns:xlink="http://www.w3.org/1999/xlink" x="0px" y="0px"
	 viewBox="0 0 1800 538.1" style="enable-background:new 0 0 1800 538.1;" xml:space="preserve">
<style type="text/css">
	.st0{fill:#3663AD;}
	.st1{fill:#262169;}
</style>
<g>
	<g>
		<polygon class="st0" points="168.3,160.9 37.6,160.9 68.2,34.9 198.9,34.9 		"/>
		<polygon class="st0" points="1769.3,232.3 1724.8,232.3 1735.2,189.5 1779.7,189.5 		"/>
		<g>
			<path class="st1" d="M291.6,188.9l-4.9,23.5l-4.9,23.5h-48.6l-4.9,23.4l-4.9,23.4l-3.2,15.3l-1.7,8.1l-4.9,23.4l-1.8,8.6
				c0,0,0,0.1,0,0.1l-0.3,1.6c0,0,0,0.1,0,0.1c-1.3,6.7,3.9,13,10.8,13h31.2l-4.9,21.1l-1.6,7.8l-3.2,14.7h-49
				c-24.5,0-43-18.9-39.2-42.9l0.2-0.8l4.8-23.4l1.3-6l3.6-17.3l4.8-23.4l4.9-23.4l4.9-23.4H20.3l4.8-23.5l4.8-23.5h159.7l4.9-23.5
				l4.9-23.5l4.9-23.6h53.3l-4.9,23.6l-4.9,23.5l-4.9,23.5H291.6z"/>
			<path class="st1" d="M397.7,189.5c-45.8,0-85.5,30.1-97,72.8l-4.1,19.5l-0.7,3.4l-4.2,19.6l-4.9,23l-1.8,8.4c0,0,0,0.1,0,0.1
				l-0.3,1.6c0,0,0,0.1,0,0.1c0,0,0,0.1,0,0.1l-2.7,12.6l-4.9,23l-4.9,22.9h53l4.9-22.9l0-0.2l4.8-22.8l0.2-0.9l1.6-7.6l0.4-1.7
				l2.7-12.8l4.9-23l4.9-23l3.6-17.1c6.7-17.2,23.8-29,43.3-29h69.3l5-23.1l2.9-13.4l2.1-9.6H397.7z"/>
			<path class="st1" d="M666.6,244.3c0,3.6-0.4,7.2-1.1,10.9l-1.7,8.3l-1.6,7.9c-5.1,25.7-27.7,44.2-53.9,44.2c-0.4,0-0.8,0-1.1,0
				c-0.3,0-0.6,0-1,0h-77.3c-6,0-11.4,4.1-14.6,9.2c-1.2,2-2.1,4.2-2.7,6.7l-0.4,2.1c-2.6,12.3-1,20.1,10.4,20.1l116.6,0l-11.5,42.9
				H516c-24.7,0-53.4-7.7-53.4-42.1c0-0.2,0-0.5,0-0.7v0c0-2.2,0.2-4.6,0.5-7.1c1.2-14.4,4-25,6.1-31.3l0.4-2c0.6-1.5,1.3-2.9,2-4.3
				c0.2-0.4,0.3-0.6,0.3-0.6l0,0c3.5-6.9,8.2-12.9,13.7-17.8c9.6-8.5,28.7-17.3,41.7-17.3h72c6,0,11.4-3.3,14.6-8.5
				c1.2-2,2.1-4.2,2.7-6.7l0.4-2.1c2.6-12.3-2.8-20.9-14.2-20.9h-45.4l-65.8,0l0.4-1.8l9.6-44.1h-0.1v0h110.2
				C642.6,189.5,666.6,214.7,666.6,244.3z"/>
			<path class="st1" d="M1266.7,189.5l-93.9,142.9l-28.5-142.9h-55.1v0h-33.5l-79.7,0c-2.9,0-5.9,0.3-9,0.8
				c-32.2,0.5-51.2,21.8-60.8,37.5c-1.3,2.1-2.4,4.1-3.4,5.9c-0.5,0.7-0.9,1.3-1.3,2c-0.1,0.2-0.2,0.4-0.4,0.6
				c-2.1,4.4-3.5,9-4.5,13.5c-2.1,9.7-1.9,18.7-1.5,24.1c0.2,2.3,0.4,4,0.5,4.8c0,0.1,0,0.2,0,0.2c0,0.2,0,0.3,0,0.3
				c2.7,16,10.5,32,30.8,32h74.1c6.3,0,9.6,4.1,10.1,9.4c0.2,2-0.1,4.3-1,6.9l-0.7,2.1c-4.3,12.7-10.5,21-22.7,21l-91.2,0l-33.2,0
				h-13.3l0.4-1.6l26.7-99.5c0-0.1,0-0.2,0.1-0.3c6.3-24.2-20.8-59.8-49.3-59.8H711l-4.2,16l-4.2,16l-4.2,16l-4.2,16l-4.2,16
				l-4.2,15.9l-3,11.4c-0.1,0.9-0.3,1.8-0.6,2.8c0,0,0,0.1,0,0.1c0,0,0,0.1,0,0.1c-0.1,0.5-0.3,1-0.5,1.5c-0.1,0.4-0.3,0.9-0.4,1.3
				l-3.9,14.6l-4.2,15.9L669,349l-4.2,15.9l-4.2,15.9l-4.2,15.8h49.1l4.2-15.8l4.2-15.9l1.5-5.8l0.3-0.9v0l26.2-100.6
				c0,0,0-0.1,0-0.1l1.8-6.7l4.2-16h44.6c20.6,0,35.8,18.4,30.8,37.3c0,0.1,0,0.1,0,0.2l-25.2,101.6l-1.8,6.9l-4.2,15.8h210.4
				c18.3,0,34.7-11.5,41-28.7l6.7-18.4l8-21.7c7.7-21-1.8-42.9-19.4-53c-12.8-4.9-26.7-5.6-31.5-5.7h-55.3c-0.2,0-0.4,0-0.6,0
				c-5.8-0.2-9.2-3.4-9.5-8.3c-0.1-1.9,0.2-4.1,1.1-6.5l0.8-2c4.4-11.8,14.9-20,26.4-20l112.8,0l0.1-0.2h14.8l32.8,164.6h55.1
				l136.1-207.1H1266.7z"/>
			<path class="st1" d="M1556.5,254.3c-0.9,2.4-1.3,4.5-1.1,6.5c0.3,4.9,3.7,8.1,9.5,8.3c0.2,0,0.4,0,0.6,0h55.3
				c4.8,0.1,18.7,0.8,31.5,5.7c17.7,10.1,27.1,32,19.4,53l-8,21.7l-6.7,18.4c-6.3,17.2-22.7,28.7-41,28.7h-136l12.3-46l16.5,0
				l91.2,0c12.2,0,18.4-8.3,22.7-21l0.7-2.1c0.8-2.5,1.2-4.8,1-6.9c-0.5-5.3-3.8-9.4-10.1-9.4h-74.1c-20.3,0-28.1-16-30.8-32
				c0,0,0-0.1,0-0.3c0-0.1,0-0.2,0-0.2c-0.1-0.8-0.4-2.5-0.5-4.8c-0.4-5.4-0.6-14.5,1.5-24.1c1-4.4,2.4-9,4.5-13.5
				c0.1-0.2,0.2-0.4,0.4-0.6c0.4-0.7,0.9-1.3,1.3-2c1-1.8,2.1-3.8,3.4-5.9c9.7-15.7,28.7-37,60.8-37.5c3.1-0.5,6.1-0.8,9-0.8l79.7,0
				h33.5v0h2.6l-11.5,42.8l-110.3,0c-11.6,0-22,8.2-26.4,20L1556.5,254.3z"/>
			<path class="st1" d="M1486.8,244.3c0,3.6-0.4,7.2-1.1,10.9l-1.7,8.3l-1.6,7.9c-5.1,25.7-27.7,44.2-53.9,44.2c-0.4,0-0.8,0-1.1,0
				c-0.3,0-0.6,0-1,0h-77.3c-6,0-11.4,4.1-14.6,9.2c-1.2,2-2.1,4.2-2.7,6.7l-0.4,2.1c-2.6,12.3-1,20.1,10.4,20.1l116.6,0l-11.5,42.9
				h-110.8c-24.7,0-53.4-7.7-53.4-42.1c0-0.2,0-0.5,0-0.7v0c0-2.2,0.2-4.6,0.5-7.1c1.2-14.4,4-25,6.1-31.3l0.4-2
				c0.6-1.5,1.3-2.9,2-4.3c0.2-0.4,0.3-0.6,0.3-0.6l0,0c3.5-6.9,8.2-12.9,13.7-17.8c9.6-8.5,28.7-17.3,41.7-17.3h72
				c6,0,11.4-3.3,14.6-8.5c1.2-2,2.1-4.2,2.7-6.7l0.4-2.1c2.6-12.3-2.8-20.9-14.2-20.9h-45.4l-65.8,0l0.4-1.8l9.6-44.1h-0.1v0h110.2
				C1462.8,189.5,1486.8,214.7,1486.8,244.3z"/>
		</g>
	</g>
	<g>
		<g>
			<g>
				<path class="st0" d="M1337.8,469.9c-3,0-5.7,0-8.4,0c-1.7-7.4-1.9-7.8-9.7-8c-5.6-0.2-11.2-0.1-16.8,0.2c-6,0.3-8.7,2.6-9.9,8.5
					c-1.1,5.1-1.9,10.2-2.3,15.4c-0.4,5.8,2,8.5,7.8,8.8c6,0.3,12.1,0.3,18.1,0.1c8-0.3,10.1-2.6,10.4-11.3c-6.5,0-13.1,0-20.1,0
					c0.3-2.4,0.6-4.3,0.9-6.5c10,0,19.7,0,30.1,0c-0.9,5.1-1.5,10-2.5,14.8c-1.5,7-6.7,9.9-13.2,10.2c-9.7,0.4-19.4,0.6-29.1,0
					c-9-0.5-12.8-5-12.3-14.1c0.4-6.8,1.4-13.6,2.9-20.3c2-8.8,6.2-12.5,15.1-13c9.5-0.5,19.2-0.6,28.7,0
					C1336.9,455.3,1340,460.2,1337.8,469.9z"/>
				<path class="st0" d="M1229.8,503.2c-4.5-0.4-10.5-0.7-16.5-1.7c-6.3-1.1-9.6-4.5-9.2-10.7c0.6-9.1,2.1-18.2,4.2-27
					c1.5-6.4,7.4-8.8,13.4-9c10.2-0.4,20.5-0.6,30.8,0c8.8,0.5,12.6,4.9,12.1,13.8c-0.3,6.8-1.3,13.6-2.8,20.3
					c-2,9.1-6.4,12.6-15.7,13.4C1241.2,502.6,1236.3,502.8,1229.8,503.2z M1236.9,461.6C1236.9,461.5,1236.9,461.7,1236.9,461.6
					c-3.7,0.2-7.4,0.2-11.1,0.5c-4,0.4-7.8,1.8-8.7,6.2c-1.3,6.2-2.4,12.6-3,18.9c-0.4,4.1,2,7,6.2,7.1c8.2,0.2,16.4,0.1,24.5-0.3
					c3.6-0.2,6.2-2.6,6.9-6.1c1.2-5.9,2.4-11.8,2.8-17.7c0.4-5.4-2.1-7.8-7.5-8.2C1243.7,461.8,1240.3,461.6,1236.9,461.6z"/>
				<path class="st0" d="M1426.6,469.1c-3.1,0-5.9,0-8.7,0c-1.1-6.9-1.8-7.7-8.8-7.8c-5.7-0.1-11.5,0.3-17.2,0.6
					c-3.4,0.2-5.1,2.3-5.6,5.5c-0.8,4.1,0.1,5.7,4.4,6.1c5.6,0.5,11.2,0.5,16.8,0.9c4.1,0.3,8.2,0.5,12.2,1.4c5,1.1,6.8,3.8,6.5,8.9
					c-0.1,1.9-0.4,3.8-0.7,5.7c-1.6,7.8-4.7,11.3-12.6,11.7c-10.1,0.5-20.3,0.6-30.3,0c-8.8-0.5-10.9-4.4-9.2-14.7c3,0,6.1,0,9.2,0
					c0.3,7,0.9,7.8,7.9,8c6.4,0.2,12.9,0,19.3-0.5c4.8-0.4,7.6-4.4,6.4-9c-0.4-1.4-2.4-3.1-3.9-3.3c-4.3-0.6-8.7-0.5-13.1-0.9
					c-5.6-0.4-11.2-0.7-16.7-1.6c-4.9-0.9-6.3-3.3-6.1-8.2c0.1-1.9,0.4-3.8,0.7-5.7c1.4-7.6,4.3-10.9,11.8-11.4
					c9.4-0.5,18.9-0.6,28.3,0C1426,455.4,1428.7,459.9,1426.6,469.1z"/>
				<path class="st0" d="M1653.8,469.1c-3.1,0-5.9,0-8.7,0c-1.1-6.9-1.8-7.7-8.8-7.8c-5.7-0.1-11.5,0.3-17.2,0.6
					c-3.4,0.2-5.1,2.3-5.6,5.5c-0.8,4.1,0.1,5.7,4.4,6.1c5.6,0.5,11.2,0.5,16.8,0.9c4.1,0.3,8.2,0.5,12.2,1.4c5,1.1,6.8,3.8,6.5,8.9
					c-0.1,1.9-0.4,3.8-0.7,5.7c-1.6,7.8-4.7,11.3-12.6,11.7c-10.1,0.5-20.3,0.6-30.3,0c-8.8-0.5-10.9-4.4-9.2-14.7c3,0,6.1,0,9.2,0
					c0.3,7,0.9,7.8,7.9,8c6.4,0.2,12.9,0,19.3-0.5c4.8-0.4,7.6-4.4,6.4-9c-0.4-1.4-2.4-3.1-3.9-3.3c-4.3-0.6-8.7-0.5-13.1-0.9
					c-5.6-0.4-11.2-0.7-16.7-1.6c-4.9-0.9-6.3-3.3-6.1-8.2c0.1-2,0.4-4.1,0.8-6.1c1.4-7.2,4.4-10.6,11.7-11c9.4-0.5,18.9-0.6,28.3,0
					C1653.3,455.4,1655.9,459.8,1653.8,469.1z"/>
				<path class="st0" d="M1588.7,470.6c-3.1,0-5.9,0-8.7,0c-0.9-7.9-1.5-8.5-9.7-8.7c-5.3-0.1-10.7-0.1-16,0.2
					c-6.2,0.4-9,2.7-10.3,8.7c-1.1,4.9-1.9,10-2.3,15c-0.5,6.1,1.9,8.7,8,9c5.6,0.3,11.2,0.2,16.8,0.1c7.9-0.2,9.4-1.4,11.7-8.9
					c2.9,0,5.9,0,8.8,0c0.1,10.5-4.2,15.7-14.3,16.2c-9.3,0.5-18.6,0.5-27.9,0c-9.7-0.5-13.7-4.9-13.2-14.5c0.4-6.8,1.7-13.5,3-20.3
					c1.5-8,6.8-12.2,14.6-12.6c9.8-0.4,19.7-0.6,29.5-0.1C1588.1,455.3,1590.8,459.9,1588.7,470.6z"/>
				<path class="st0" d="M1444,462.3c0.4-3,0.7-5.2,1-7.6c17.2,0,34,0,51.3,0c-0.3,2.4-0.5,4.6-0.9,7.4c-5.8,0-11.5,0.2-17.2-0.1
					c-3.1-0.1-3.9,1.1-4.3,3.9c-1.5,11.9-3.3,23.9-5,36c-3.2,0-6.2,0-9.8,0c1.8-13.1,3.6-26.2,5.4-39.7
					C1457.7,462.3,1451.2,462.3,1444,462.3z"/>
				<path class="st0" d="M1152.5,454.8c3.3,0,6.3,0,9.8,0c-1.8,13.2-3.6,26.2-5.5,39.8c10.9,0,21.4,0,32.3,0c-0.4,2.8-0.6,5-1,7.5
					c-14,0-27.9,0-42.3,0C1148.1,486.2,1150.3,470.6,1152.5,454.8z"/>
				<path class="st0" d="M1361,502.1c-3.4,0-6.5,0-10,0c2.2-15.9,4.4-31.5,6.7-47.3c3.4,0,6.5,0,9.9,0
					C1365.4,470.6,1363.3,486.1,1361,502.1z"/>
				<path class="st0" d="M1510.9,454.7c3.4,0,6.4,0,9.9,0c-2.2,15.8-4.4,31.4-6.6,47.3c-3.2,0-6.3,0-10,0
					C1506.5,486.2,1508.7,470.5,1510.9,454.7z"/>
			</g>
			<g>
				<path class="st0" d="M858.6,502.1l-9.8-26.1c-1.6-4.3-3.3-8.7-4.9-13c-3.2-8.6-3.2-8.7-12.4-8.4c-1.7,0.1-4,1.1-4.9,2.5
					c-4.5,6.5-8.9,13.1-13.3,19.7l-1.4,2.1l-6.6,9.9l-7.1,10.7l-2,3h10.4l1.1-1.7h0l5.1-7.8h32.3l1.6,4.5l1.8,4.9h10.2L858.6,502.1z
					 M825,474.4c2.8-4.3,5.7-8.7,8.7-13.2c1.5,4.2,2.9,8.1,4.3,12l4.3,12h-24.5L825,474.4z"/>
				<path class="st0" d="M761,494.9h23.8c-1.9,4.3-5.8,6.7-11.9,7.1c-9.9,0.7-19.9,0.4-29.9,0.1c-6.1-0.2-10.6-3.3-12.2-9.7v-9.9
					c1-4.8,1.7-9.7,2.9-14.4c2.4-9.3,6.5-13,16.1-13.4c8.9-0.4,17.8-0.5,26.6-0.1c7.4,0.3,11.1,2.5,12,7.3h-17.6c-0.3,0-0.6,0-0.9,0
					c-4.6-0.1-9.2-0.1-13.8,0h-0.1c-0.7,0-1.4,0.1-2.1,0.1c-6.7,0.3-9.4,2.6-10.8,9.1c-1,4.8-1.8,9.7-2.2,14.6
					c-0.5,6.1,1.9,8.8,7.9,9.1C752.9,494.9,756.9,495,761,494.9z"/>
				<path class="st0" d="M999.3,465.1l-0.7,4.7c0,0,0,0,0,0.1h-8.4c-1.3-7.1-1.8-7.7-9.3-7.9c-5.7-0.2-11.5-0.1-17.2,0.2
					c-5.8,0.3-8.6,2.6-9.8,8.2c-1.1,5.1-1.9,10.2-2.3,15.4c-0.5,6.2,2,8.9,8.3,9.2c5.6,0.3,11.2,0.2,16.8,0.1
					c8.6-0.2,10.3-2,11.3-11.4h-20.3c0.3-2.4,0.6-4.4,0.9-6.5h28.9l-3,18.7v0c-1.7,4.7-6.7,6.2-11.2,6.3c-9.8,0.4-19.7,0.6-29.5,0
					c-8.8-0.5-12.6-4.9-12.2-13.8c0.4-6.9,1.7-13.8,2.9-20.7c1.4-7.9,6.6-12.4,14.4-12.8c10-0.5,20-0.7,29.9,0
					C996.2,455.3,999.6,458.8,999.3,465.1z"/>
				<path class="st0" d="M990.9,465.1c-0.1,1.4-0.3,3-0.7,4.7L990.9,465.1z"/>
				<path class="st0" d="M1039,503.2c-4.5-0.4-10.5-0.7-16.4-1.7c-6.2-1.1-9.6-4.5-9.1-10.8c0.7-9.1,2.1-18.2,4.2-27
					c1.5-6.4,7.4-8.7,13.4-8.9c10.1-0.4,20.3-0.5,30.4,0c9.1,0.5,12.9,4.8,12.4,13.9c-0.3,6.8-1.3,13.6-2.8,20.3
					c-2,9.1-6.4,12.5-15.8,13.3C1050.4,502.6,1045.4,502.8,1039,503.2z M1045.9,462C1045.9,462,1045.9,462,1045.9,462
					c-3.6,0-7.1-0.2-10.7,0.1c-4.4,0.3-8.2,2.1-9.1,6.8c-1.2,5.9-2.3,11.8-2.7,17.8c-0.4,4.9,1.7,7.5,6.5,7.7
					c8,0.4,16.1,0.1,24.1-0.3c3.8-0.2,6.4-2.7,7.1-6.4c1.2-5.9,2.3-11.8,2.7-17.8c0.4-5.1-2.1-7.5-7.3-7.9
					C1053,461.8,1049.4,462,1045.9,462z"/>
				<path class="st0" d="M928.4,466.2c0.4-6.4-2.1-9.8-8.5-10.9c-2.4-0.4-4.9-0.7-7.3-0.7c-10.4-0.1-20.8,0-31.2,0
					c-1,0-2.1,0.2-3.3,0.3c-2.2,15.9-4.4,31.5-6.6,47.2c3.6,0,6.5,0,9.7,0c0.8-5.3,1.6-10.4,2.3-15.5c9,0,17.5-0.1,26,0
					c3.6,0.1,5.5,2.1,5.2,5.9c-0.3,3.1-0.6,6.2-0.9,9.5c3.3,0,6.4,0,10,0c-0.9-7,5.6-15.2-4.8-19.8C926,479,927.8,476,928.4,466.2z
					 M908.1,478.7c-7.6,0.3-15.3,0.1-23.4,0.1c0.8-5.7,1.5-11,2.2-16.3c9.2,0,18.3-0.1,27.4,0.1c2.7,0.1,3.8,2.1,3.9,4.9
					C918.4,475.3,915.8,478.4,908.1,478.7z"/>
			</g>
		</g>
	</g>
</g>
</svg>
