<?xml version="1.0" encoding="utf-8"?>
<!-- Generator: Adobe Illustrator 24.0.2, SVG Export Plug-In . SVG Version: 6.00 Build 0)  -->
<svg version="1.1" xmlns="http://www.w3.org/2000/svg" xmlns:xlink="http://www.w3.org/1999/xlink" x="0px" y="0px"
	 viewBox="0 0 1800 672.7" style="enable-background:new 0 0 1800 672.7;" xml:space="preserve">
<style type="text/css">
	.st0{fill:#DC551E;}
	.st1{fill:#FEFEFE;}
</style>
<g id="Capa_2">
	<g>
		<rect x="9.5" y="11.3" class="st0" width="1781" height="650.1"/>
		<g>
			<g>
				<g>
					<path class="st1" d="M274.5,598v-58.6h49.9v11.8h-35.2v11.3h32.3v11.8h-32.3V598H274.5z"/>
					<path class="st1" d="M335.3,598v-58.6h52v11.8H350v9.9h33.2v11.9H350v12.6h37.3V598H335.3z"/>
					<path class="st1" d="M399.1,598v-58.6h36c7.8,0,13.6,1.3,17.3,3.8c3.7,2.6,5.5,6.5,5.5,11.9c0,3.4-0.9,6.5-2.6,9.1
						c-1.7,2.6-4.1,4.5-7.1,5.7c2.6,1.1,4.4,2.4,5.4,4c1,1.6,1.7,4.4,1.8,8.5c0,0.4,0.1,0.9,0.1,1.6c0.3,7.3,1.3,11.9,3.1,13.9
						h-16.5c-0.4-0.6-0.7-1.3-0.9-2.1c-0.2-0.8-0.3-1.6-0.3-2.5v-4c0-5.4-0.7-8.9-2.1-10.6c-1.4-1.7-4.1-2.5-8.1-2.5h-0.4h-16.6V598
						H399.1z M413.8,564.5h16.6c4.4,0,7.5-0.5,9.2-1.6c1.8-1.1,2.7-2.8,2.7-5.3c0-2.4-0.8-4-2.5-5c-1.7-1-5-1.4-10.1-1.4h-16V564.5z
						"/>
					<path class="st1" d="M470.8,598v-58.6h36c7.8,0,13.6,1.3,17.3,3.8c3.7,2.6,5.5,6.5,5.5,11.9c0,3.4-0.9,6.5-2.6,9.1
						c-1.7,2.6-4.1,4.5-7.1,5.7c2.6,1.1,4.4,2.4,5.4,4c1,1.6,1.7,4.4,1.8,8.5c0,0.4,0.1,0.9,0.1,1.6c0.3,7.3,1.3,11.9,3.1,13.9
						h-16.5c-0.4-0.6-0.7-1.3-0.9-2.1s-0.3-1.6-0.3-2.5v-4c0-5.4-0.7-8.9-2.1-10.6c-1.4-1.7-4.1-2.5-8.1-2.5H502h-16.6V598H470.8z
						 M485.4,564.5H502c4.4,0,7.5-0.5,9.2-1.6c1.8-1.1,2.7-2.8,2.7-5.3c0-2.4-0.8-4-2.5-5c-1.7-1-5-1.4-10.1-1.4h-16V564.5z"/>
					<path class="st1" d="M542.4,598v-58.6h52v11.8h-37.3v9.9h33.2v11.9h-33.2v12.6h37.3V598H542.4z"/>
					<path class="st1" d="M633.9,551.3V598h-14.6v-46.7h-20v-11.8h54.6v11.8H633.9z"/>
					<path class="st1" d="M662.3,598v-58.6h52v11.8H677v9.9h33.2v11.9H677v12.6h37.3V598H662.3z"/>
					<path class="st1" d="M726.1,598v-58.6h36c7.8,0,13.6,1.3,17.3,3.8c3.7,2.6,5.5,6.5,5.5,11.9c0,3.4-0.9,6.5-2.6,9.1
						c-1.7,2.6-4.1,4.5-7.1,5.7c2.6,1.1,4.4,2.4,5.4,4c1,1.6,1.7,4.4,1.8,8.5c0,0.4,0.1,0.9,0.1,1.6c0.3,7.3,1.3,11.9,3.1,13.9
						h-16.5c-0.4-0.6-0.7-1.3-0.9-2.1c-0.2-0.8-0.3-1.6-0.3-2.5v-4c0-5.4-0.7-8.9-2.1-10.6s-4.1-2.5-8.1-2.5h-0.4h-16.6V598H726.1z
						 M740.8,564.5h16.6c4.4,0,7.5-0.5,9.2-1.6c1.8-1.1,2.7-2.8,2.7-5.3c0-2.4-0.8-4-2.5-5c-1.7-1-5-1.4-10.1-1.4h-16V564.5z"/>
					<path class="st1" d="M798,598v-58.6h14.7V598H798z"/>
					<path class="st1" d="M818.8,598l27.8-58.6h14.1l26.7,58.6H871l-5.3-12.4h-25.8l-5.3,12.4H818.8z M844.9,573.8h15.5l-7.9-18.1
						L844.9,573.8z"/>
					<path class="st1" d="M925.4,598v-58.6h14.7V598H925.4z"/>
					<path class="st1" d="M955.6,598v-58.6h18l29.3,41.3v-41.3h14.1V598h-17.8l-29.5-41.7V598H955.6z"/>
					<path class="st1" d="M1058.9,539.5c6.3,0,11.1,0.3,14.2,0.9s6,1.6,8.5,2.9c4.3,2.3,7.7,5.7,10,10.1c2.3,4.4,3.5,9.5,3.5,15.3
						c0,5.8-1.2,10.9-3.5,15.3c-2.3,4.4-5.7,7.8-10,10.2c-2.5,1.4-5.3,2.3-8.5,2.9c-3.2,0.6-7.9,0.9-14.2,0.9h-26.4v-58.6H1058.9z
						 M1047.8,551.2v34.6h11.4c6.7,0,11.8-1.5,15.3-4.4c3.5-2.9,5.2-7.3,5.2-12.9s-1.7-10-5.2-12.9c-3.5-2.9-8.6-4.4-15.3-4.4
						H1047.8z"/>
					<path class="st1" d="M1121.9,539.5v31.5c0,5.8,1.2,9.9,3.6,12.6c2.4,2.6,6.3,3.9,11.7,3.9c2.9,0,5.3-0.4,7.4-1.2
						c2.1-0.8,3.8-2,5.1-3.6c1-1.2,1.8-2.7,2.2-4.3c0.4-1.6,0.7-4.1,0.7-7.4v-31.5h14.6v33c0,8.9-2.5,15.6-7.6,20.2
						c-5.1,4.6-12.5,6.9-22.4,6.9c-9.8,0-17.3-2.3-22.3-6.9c-5.1-4.6-7.6-11.3-7.6-20.2v-33H1121.9z"/>
					<path class="st1" d="M1180.2,577.8h15v0.6c0,3.3,1.5,5.8,4.4,7.5c2.9,1.7,7.1,2.6,12.7,2.6c4.3,0,7.6-0.6,9.9-1.9
						c2.3-1.3,3.5-3,3.5-5.3c0-1.9-0.8-3.3-2.3-4.3c-1.5-0.9-4.6-1.6-9.2-2.1l-10.4-1c-7.6-0.8-13.2-2.5-16.8-5.2
						c-3.6-2.7-5.4-6.4-5.4-11.3c0-5.8,2.6-10.4,7.7-14.1c5.2-3.6,12-5.4,20.5-5.4c9.1,0,16.3,1.7,21.4,5.1s7.7,8.1,7.7,14v0.5
						h-14.6c-0.3-2.9-1.7-5.1-4.1-6.6c-2.4-1.5-5.8-2.2-10.3-2.2c-4.1,0-7.3,0.6-9.6,1.8c-2.3,1.2-3.4,2.8-3.4,5c0,1.7,0.7,3,2,3.8
						c1.3,0.8,4.6,1.5,9.8,2.1l10.9,1.1c7.5,0.8,13,2.6,16.5,5.4c3.5,2.8,5.3,6.7,5.3,11.8c0,6.5-2.6,11.5-7.9,14.9
						c-5.3,3.4-13,5.1-23.2,5.1c-9.7,0-17.2-1.8-22.4-5.3c-5.2-3.6-7.8-8.6-7.8-15.2V577.8z"/>
					<path class="st1" d="M1282.2,551.3V598h-14.6v-46.7h-20v-11.8h54.6v11.8H1282.2z"/>
					<path class="st1" d="M1310.7,598v-58.6h36c7.8,0,13.6,1.3,17.3,3.8c3.7,2.6,5.5,6.5,5.5,11.9c0,3.4-0.9,6.5-2.6,9.1
						s-4.1,4.5-7.1,5.7c2.6,1.1,4.4,2.4,5.4,4c1,1.6,1.7,4.4,1.8,8.5c0,0.4,0.1,0.9,0.1,1.6c0.3,7.3,1.3,11.9,3.1,13.9h-16.5
						c-0.4-0.6-0.7-1.3-0.9-2.1c-0.2-0.8-0.3-1.6-0.3-2.5v-4c0-5.4-0.7-8.9-2.1-10.6s-4.1-2.5-8.1-2.5h-0.4h-16.6V598H1310.7z
						 M1325.4,564.5h16.6c4.4,0,7.5-0.5,9.2-1.6c1.8-1.1,2.7-2.8,2.7-5.3c0-2.4-0.8-4-2.5-5c-1.7-1-5-1.4-10.1-1.4h-16V564.5z"/>
					<path class="st1" d="M1382.5,598v-58.6h14.7V598H1382.5z"/>
					<path class="st1" d="M1403.3,598l27.8-58.6h14.1l26.7,58.6h-16.3l-5.3-12.4h-25.8l-5.3,12.4H1403.3z M1429.5,573.8h15.5
						l-7.9-18.1L1429.5,573.8z"/>
					<path class="st1" d="M1477.9,598v-58.6h14.7v46.2h30.1V598H1477.9z"/>
				</g>
			</g>
			<g>
				<g>
					<g>
						<polygon class="st1" points="1462.7,73.1 1457.6,89.5 1452.6,105.8 1442.4,138.6 1437.3,154.9 1427.2,187.6 1422.1,203.9 
							1417.1,220.2 1412,236.6 1406.9,252.9 1401.9,269.2 1391.8,301.8 1386.7,318.1 1381.7,334.3 1376.6,350.6 1371.6,366.9 
							1366.5,383.1 1361.5,399.4 1356.4,415.6 1351.4,431.9 1284,431.9 1354.4,203.9 1359.5,187.6 1364.5,171.2 1369.6,154.9 
							1374.7,138.6 1379.7,122.2 1384.8,105.8 1389.8,89.5 1394.9,73.1 						"/>
						<path class="st1" d="M1286.4,203.9h-240.2l-5,16.3l-5,16.3l-5,16.3l-4,12.4h180.6l-6,20.2h-184.4l-5,16.3l-9.9,32.6l-5,16.3
							l-5,16.3l-5,16.3l-5,16.2l-5,16.2l-5,16.2h178.8l2.4-8.1l5.3,8.1h89.5l19.8-65h-31.9L1286.4,203.9z M1176.7,366.9h-125.3
							l5.9-23h125.4L1176.7,366.9z"/>
						<polygon class="st1" points="268.3,262.4 237.3,366.9 392.6,366.9 373.2,431.9 150.6,431.9 155.4,415.6 160.2,399.4 
							165,383.1 169.8,366.9 174.6,350.6 179.4,334.3 184.2,318.1 189,301.8 193.8,285.5 200.6,261.5 126.2,261.5 128.1,252.9 
							132.9,236.6 137.7,220.2 142.5,203.9 217.9,203.9 222.7,187.6 227.5,171.2 232.4,154.9 237.2,138.6 246.8,105.8 251.7,89.5 
							256.5,73.1 328.2,73.1 289.4,203.9 445,203.9 426.5,262.4 						"/>
						<polygon class="st1" points="707,203.9 702.1,220.2 697.1,236.6 692.2,252.9 687.3,269.2 682.4,285.5 677.5,301.8 
							672.6,318.1 667.6,334.3 662.7,350.6 657.8,366.9 685.8,366.9 666.2,431.9 578,431.9 572.7,423.7 570.3,431.9 398.3,431.9 
							417.7,366.9 427.4,334.3 432.9,315.9 442,285.5 446.8,269.2 446.8,269.2 466.3,203.9 525.3,203.9 520.4,220.2 515.5,236.6 
							510.6,252.9 505.7,269.2 500.9,285.5 496,301.8 486.2,334.3 481.4,350.6 476.5,366.9 591.3,366.9 596.2,350.6 601.1,334.3 
							610.9,301.8 615.7,285.5 620.7,269.2 625.5,252.9 630.4,236.6 635.4,220.2 640.3,203.9 						"/>
						<polygon class="st1" points="928.6,203.9 819.2,360.6 800,203.9 732.3,203.9 762.3,431.9 774.2,431.9 831.8,431.9 
							853.1,431.9 1007.5,203.9 						"/>
					</g>
					<g>
						<path class="st1" d="M1590.4,321.7H1476l-2.4,7.9l-2.4,7.9l-2.4,7.9l-1.9,6h86l-2.8,9.7h-87.8l-2.4,7.9l-4.7,15.7l-2.4,7.9
							l-2.4,7.9l-2.4,7.9l-2.4,7.8l-2.4,7.8l-2.4,7.8h85.1l1.2-3.9l2.5,3.9h42.6l9.4-31.4h-15.2L1590.4,321.7z M1538.1,400.5h-59.7
							l2.8-11.1h59.7L1538.1,400.5z"/>
						<polygon class="st1" points="1537.3,225.5 1533.2,239 1615.2,239 1592.9,313.4 1478,313.4 1485.9,287.2 1572.8,287.2 
							1576.8,273.7 1490,273.7 1510.9,203.9 1625.8,203.9 1619.3,225.5 						"/>
						<polygon class="st1" points="1640.9,293.4 1620.9,293.4 1615.1,313.4 1635.1,313.4 						"/>
						<polygon class="st1" points="1605.3,411.8 1585.2,411.8 1579.4,431.9 1599.5,431.9 						"/>
					</g>
				</g>
				<rect x="37.9" y="471.9" class="st1" width="1724.2" height="19.8"/>
			</g>
		</g>
	</g>
</g>
<g id="Capa_4">
</g>
</svg>
