<?xml version="1.0" encoding="utf-8"?>
<!-- Generator: Adobe Illustrator 24.0.2, SVG Export Plug-In . SVG Version: 6.00 Build 0)  -->
<svg version="1.1" id="Capa_2" xmlns="http://www.w3.org/2000/svg" xmlns:xlink="http://www.w3.org/1999/xlink" x="0px" y="0px"
	 viewBox="0 0 1800 672.9" style="enable-background:new 0 0 1800 672.9;" xml:space="preserve">
<style type="text/css">
	.st0{fill:#E76B16;}
	.st1{fill:#FFFFFF;}
	.st2{fill:url(#SVGID_1_);}
	.st3{fill:url(#SVGID_2_);}
	.st4{fill:#FEFEFE;}
	.st5{fill:#775C4D;}
	.st6{fill:url(#SVGID_3_);}
	.st7{fill:url(#SVGID_4_);}
	.st8{fill:url(#SVGID_5_);}
	.st9{fill:url(#SVGID_6_);}
	.st10{fill:url(#SVGID_7_);}
	.st11{fill:url(#SVGID_8_);}
</style>
<g>
	<rect x="28.7" y="35.3" class="st0" width="1742.6" height="602.3"/>
	<g>
		<g>
			<g>
				<path class="st1" d="M182.8,550.6v-77.8h53.3v13.2h-37.6v18.4H231v13.2h-32.5v33.1H182.8z"/>
				<path class="st1" d="M252.2,550.6v-77.8h57.7v13.2h-42v17.3h39.1v13.1h-39.1v21.2h43.5v13.1H252.2z"/>
				<path class="st1" d="M327.8,550.6v-77.8h33.1c8.3,0,14.4,0.7,18.1,2.1c3.8,1.4,6.8,3.9,9.1,7.5c2.3,3.6,3.4,7.7,3.4,12.3
					c0,5.8-1.7,10.7-5.1,14.5c-3.4,3.8-8.6,6.2-15.4,7.2c3.4,2,6.2,4.2,8.4,6.5c2.2,2.4,5.2,6.6,8.9,12.6l9.5,15.2h-18.8l-11.4-16.9
					c-4-6.1-6.8-9.9-8.3-11.4c-1.5-1.6-3.1-2.7-4.7-3.2c-1.7-0.6-4.3-0.9-7.9-0.9h-3.2v32.5H327.8z M343.5,505.7h11.6
					c7.5,0,12.2-0.3,14.1-1c1.9-0.6,3.3-1.7,4.4-3.3s1.6-3.5,1.6-5.8c0-2.6-0.7-4.7-2.1-6.3c-1.4-1.6-3.4-2.6-5.9-3.1
					c-1.3-0.2-5.1-0.3-11.5-0.3h-12.3V505.7z"/>
				<path class="st1" d="M409.3,550.6v-77.8h33.1c8.3,0,14.4,0.7,18.1,2.1c3.8,1.4,6.8,3.9,9.1,7.5c2.3,3.6,3.4,7.7,3.4,12.3
					c0,5.8-1.7,10.7-5.1,14.5c-3.4,3.8-8.6,6.2-15.4,7.2c3.4,2,6.2,4.2,8.4,6.5c2.2,2.4,5.2,6.6,8.9,12.6l9.5,15.2h-18.8l-11.4-16.9
					c-4-6.1-6.8-9.9-8.3-11.4c-1.5-1.6-3.1-2.7-4.7-3.2c-1.7-0.6-4.3-0.9-7.9-0.9H425v32.5H409.3z M425,505.7h11.6
					c7.5,0,12.2-0.3,14.1-1c1.9-0.6,3.3-1.7,4.4-3.3c1.1-1.6,1.6-3.5,1.6-5.8c0-2.6-0.7-4.7-2.1-6.3c-1.4-1.6-3.4-2.6-5.9-3.1
					c-1.3-0.2-5.1-0.3-11.5-0.3H425V505.7z"/>
				<path class="st1" d="M490.8,550.6v-77.8h57.7v13.2h-42v17.3h39.1v13.1h-39.1v21.2H550v13.1H490.8z"/>
				<path class="st1" d="M583.9,550.6v-64.7h-23.1v-13.2h61.8v13.2h-23v64.7H583.9z"/>
				<path class="st1" d="M635.8,550.6v-77.8h57.7v13.2h-42v17.3h39.1v13.1h-39.1v21.2H695v13.1H635.8z"/>
				<path class="st1" d="M711.4,550.6v-77.8h33.1c8.3,0,14.4,0.7,18.1,2.1c3.8,1.4,6.8,3.9,9.1,7.5c2.3,3.6,3.4,7.7,3.4,12.3
					c0,5.8-1.7,10.7-5.1,14.5c-3.4,3.8-8.6,6.2-15.4,7.2c3.4,2,6.2,4.2,8.4,6.5c2.2,2.4,5.2,6.6,8.9,12.6l9.5,15.2h-18.8l-11.4-16.9
					c-4-6.1-6.8-9.9-8.3-11.4c-1.5-1.6-3.1-2.7-4.7-3.2c-1.7-0.6-4.3-0.9-7.9-0.9h-3.2v32.5H711.4z M727.2,505.7h11.6
					c7.5,0,12.2-0.3,14.1-1c1.9-0.6,3.3-1.7,4.4-3.3c1.1-1.6,1.6-3.5,1.6-5.8c0-2.6-0.7-4.7-2.1-6.3c-1.4-1.6-3.4-2.6-5.9-3.1
					c-1.3-0.2-5.1-0.3-11.5-0.3h-12.3V505.7z"/>
				<path class="st1" d="M792.5,550.6v-77.8h15.7v77.8H792.5z"/>
				<path class="st1" d="M896.4,550.6h-17.1l-6.8-17.7h-31.1l-6.4,17.7h-16.7l30.3-77.8h16.6L896.4,550.6z M867.4,519.8l-10.7-28.9
					l-10.5,28.9H867.4z"/>
				<path class="st1" d="M936.5,550.6v-77.8h15.7v77.8H936.5z"/>
				<path class="st1" d="M970.4,550.6v-77.8h15.3l31.9,52v-52h14.6v77.8h-15.8L985,499.8v50.7H970.4z"/>
				<path class="st1" d="M1051.7,472.8h28.7c6.5,0,11.4,0.5,14.8,1.5c4.6,1.3,8.5,3.7,11.7,7.2c3.3,3.4,5.7,7.6,7.4,12.6
					s2.5,11.1,2.5,18.4c0,6.4-0.8,11.9-2.4,16.6c-1.9,5.7-4.7,10.2-8.3,13.7c-2.7,2.7-6.4,4.7-11,6.2c-3.5,1.1-8.1,1.6-13.9,1.6
					h-29.6V472.8z M1067.4,485.9v51.5h11.7c4.4,0,7.6-0.2,9.5-0.7c2.5-0.6,4.7-1.7,6.3-3.2c1.7-1.5,3.1-4,4.1-7.5
					c1.1-3.5,1.6-8.2,1.6-14.3c0-6-0.5-10.6-1.6-13.9c-1.1-3.2-2.5-5.7-4.5-7.5c-1.9-1.8-4.3-3-7.3-3.7c-2.2-0.5-6.5-0.7-12.9-0.7
					H1067.4z"/>
				<path class="st1" d="M1133.2,472.8h15.7v42.1c0,6.7,0.2,11,0.6,13c0.7,3.2,2.3,5.7,4.8,7.7c2.5,1.9,6,2.9,10.4,2.9
					c4.5,0,7.8-0.9,10.1-2.7c2.3-1.8,3.6-4.1,4.1-6.7c0.5-2.7,0.7-7.1,0.7-13.2v-43.1h15.7v40.9c0,9.3-0.4,15.9-1.3,19.8
					c-0.8,3.9-2.4,7.1-4.7,9.8c-2.3,2.7-5.3,4.8-9.2,6.3s-8.8,2.4-15,2.4c-7.4,0-13.1-0.9-16.9-2.6c-3.8-1.7-6.9-3.9-9.1-6.7
					c-2.2-2.7-3.7-5.6-4.4-8.6c-1-4.5-1.5-11-1.5-19.7V472.8z"/>
				<path class="st1" d="M1210.9,525.3l15.3-1.5c0.9,5.1,2.8,8.9,5.6,11.3c2.8,2.4,6.6,3.6,11.4,3.6c5.1,0,8.9-1.1,11.4-3.2
					c2.6-2.1,3.8-4.6,3.8-7.5c0-1.8-0.5-3.4-1.6-4.7c-1.1-1.3-3-2.4-5.7-3.4c-1.8-0.6-6-1.8-12.6-3.4c-8.4-2.1-14.3-4.7-17.7-7.7
					c-4.8-4.3-7.2-9.5-7.2-15.7c0-4,1.1-7.7,3.4-11.1c2.2-3.5,5.5-6.1,9.7-7.9c4.2-1.8,9.3-2.7,15.3-2.7c9.8,0,17.1,2.1,22.1,6.4
					c4.9,4.3,7.5,10,7.8,17.1l-15.7,0.7c-0.7-4-2.1-6.9-4.3-8.6c-2.2-1.8-5.5-2.6-10-2.6c-4.6,0-8.1,0.9-10.7,2.8
					c-1.7,1.2-2.5,2.8-2.5,4.8c0,1.8,0.8,3.4,2.3,4.7c2,1.7,6.8,3.4,14.4,5.2c7.6,1.8,13.3,3.7,17,5.6c3.7,1.9,6.5,4.6,8.6,7.9
					c2.1,3.3,3.1,7.5,3.1,12.4c0,4.5-1.2,8.6-3.7,12.5c-2.5,3.9-6,6.8-10.5,8.7c-4.5,1.9-10.2,2.8-16.9,2.8
					c-9.8,0-17.4-2.3-22.7-6.8C1215.1,540.6,1211.9,534,1210.9,525.3z"/>
				<path class="st1" d="M1308,550.6v-64.7h-23.1v-13.2h61.8v13.2h-23v64.7H1308z"/>
				<path class="st1" d="M1359.9,550.6v-77.8h33.1c8.3,0,14.4,0.7,18.1,2.1c3.8,1.4,6.8,3.9,9.1,7.5c2.3,3.6,3.4,7.7,3.4,12.3
					c0,5.8-1.7,10.7-5.1,14.5c-3.4,3.8-8.6,6.2-15.4,7.2c3.4,2,6.2,4.2,8.4,6.5c2.2,2.4,5.2,6.6,8.9,12.6l9.5,15.2h-18.8l-11.4-16.9
					c-4-6.1-6.8-9.9-8.3-11.4c-1.5-1.6-3.1-2.7-4.7-3.2c-1.7-0.6-4.3-0.9-7.9-0.9h-3.2v32.5H1359.9z M1375.7,505.7h11.6
					c7.5,0,12.2-0.3,14.1-1c1.9-0.6,3.3-1.7,4.4-3.3s1.6-3.5,1.6-5.8c0-2.6-0.7-4.7-2.1-6.3c-1.4-1.6-3.4-2.6-5.9-3.1
					c-1.3-0.2-5.1-0.3-11.5-0.3h-12.3V505.7z"/>
				<path class="st1" d="M1441,550.6v-77.8h15.7v77.8H1441z"/>
				<path class="st1" d="M1544.9,550.6h-17.1l-6.8-17.7h-31.1l-6.4,17.7h-16.7l30.3-77.8h16.6L1544.9,550.6z M1515.9,519.8
					l-10.7-28.9l-10.5,28.9H1515.9z"/>
				<path class="st1" d="M1556.7,550.6v-77.2h15.7v64.1h39.1v13.1H1556.7z"/>
			</g>
		</g>
		<g>
			<g>
				<g>
					<linearGradient id="SVGID_1_" gradientUnits="userSpaceOnUse" x1="217.7537" y1="280.6748" x2="412.1689" y2="280.6748">
						<stop  offset="0" style="stop-color:#FFFFFF"/>
						<stop  offset="2.706033e-02" style="stop-color:#EEEAE8"/>
						<stop  offset="7.773000e-02" style="stop-color:#D2C9C4"/>
						<stop  offset="0.1348" style="stop-color:#B9ABA4"/>
						<stop  offset="0.1979" style="stop-color:#A49288"/>
						<stop  offset="0.2691" style="stop-color:#947E72"/>
						<stop  offset="0.3523" style="stop-color:#876F61"/>
						<stop  offset="0.4552" style="stop-color:#7E6456"/>
						<stop  offset="0.5995" style="stop-color:#785E4F"/>
						<stop  offset="1" style="stop-color:#775C4D"/>
					</linearGradient>
					<polygon class="st2" points="412.2,129.7 412.2,207.2 316.7,207.2 316.7,440.3 226.4,440.3 226.4,440.2 226.3,440.2 
						226.3,440.1 226.2,440.1 226.2,440 226.2,440 226.2,440 226.1,440 226.1,439.9 226,439.9 226,439.8 225.9,439.8 225.9,439.7 
						225.8,439.7 225.8,439.6 225.7,439.6 225.7,439.5 225.6,439.5 225.6,439.4 225.6,439.4 225.6,439.4 225.5,439.4 225.5,439.3 
						225.4,439.3 225.4,439.2 225.3,439.2 225.3,439.1 225.2,439.1 225.2,439 225.1,439 225.1,438.9 225,438.9 225,438.8 
						224.9,438.8 224.9,438.7 224.9,438.7 224.9,438.7 224.8,438.7 224.8,438.6 224.7,438.6 224.7,438.5 224.6,438.5 224.6,438.4 
						224.5,438.4 224.5,438.3 224.4,438.3 224.4,438.2 224.3,438.2 224.3,438.1 224.3,438.1 224.3,438.1 224.2,438.1 224.2,438 
						224.1,438 224.1,437.9 224,437.9 224,437.8 223.9,437.8 223.9,437.7 223.8,437.7 223.8,437.6 223.7,437.6 223.7,437.5 
						223.6,437.5 223.6,437.4 223.6,437.4 223.6,437.4 223.5,437.4 223.5,437.3 223.4,437.3 223.4,437.2 223.3,437.2 223.3,437.1 
						223.2,437.1 223.2,437 223.1,437 223.1,436.9 223,436.9 223,436.8 223,436.8 223,436.8 222.9,436.8 222.9,436.7 222.8,436.7 
						222.8,436.6 222.7,436.6 222.7,436.5 222.6,436.5 222.6,436.4 222.5,436.4 222.5,436.3 222.4,436.3 222.4,436.2 222.3,436.2 
						222.3,436.1 222.3,436.1 222.3,436.1 222.2,436.1 222.2,436 222.1,436 222.1,435.9 222,435.9 222,435.8 221.9,435.8 
						221.9,435.7 221.8,435.7 221.8,435.6 221.7,435.6 221.7,435.5 221.7,435.5 221.7,435.5 221.6,435.5 221.6,435.4 221.5,435.4 
						221.5,435.3 221.4,435.3 221.4,435.2 221.3,435.2 221.3,435.1 221.2,435.1 221.2,435 221.1,435 221.1,434.9 221,434.9 
						221,434.8 221,434.8 221,434.8 220.9,434.8 220.9,434.7 220.8,434.7 220.8,434.6 220.7,434.6 220.7,434.5 220.6,434.5 
						220.6,434.4 220.5,434.4 220.5,434.3 220.4,434.3 220.4,434.2 220.4,434.2 220.4,434.2 220.3,434.2 220.3,434.1 220.2,434.1 
						220.2,434 220.1,434 220.1,433.9 220,433.9 220,433.8 219.9,433.8 219.9,433.7 219.8,433.7 219.8,433.6 219.7,433.6 
						219.7,433.5 219.7,433.5 219.7,433.5 219.6,433.5 219.6,433.4 219.5,433.4 219.5,433.3 219.4,433.3 219.4,433.2 219.3,433.2 
						219.3,433.1 219.2,433.1 219.2,433 219.1,433 219.1,432.9 219.1,432.9 219.1,432.9 219,432.9 219,432.8 218.9,432.8 
						218.9,432.7 218.8,432.7 218.8,432.6 218.7,432.6 218.7,432.5 218.6,432.5 218.6,432.4 218.5,432.4 218.5,432.3 218.4,432.3 
						218.4,432.2 218.4,432.2 218.4,432.2 218.3,432.2 218.3,432.1 218.2,432.1 218.2,432 218.1,432 218.1,431.9 218,431.9 
						218,431.8 217.9,431.8 217.9,431.7 217.8,431.7 217.8,431.6 217.8,431.6 217.8,431.6 308,431.6 308,198.5 403.4,198.5 
						403.4,121 403.5,121 403.5,121.1 403.6,121.1 403.6,121.2 403.7,121.2 403.7,121.3 403.8,121.3 403.8,121.4 403.9,121.4 
						403.9,121.5 403.9,121.5 403.9,121.6 404,121.6 404,121.6 404.1,121.6 404.1,121.7 404.2,121.7 404.2,121.8 404.3,121.8 
						404.3,121.9 404.4,121.9 404.4,122 404.5,122 404.5,122.1 404.5,122.1 404.5,122.2 404.6,122.2 404.6,122.3 404.7,122.3 
						404.7,122.3 404.8,122.3 404.8,122.4 404.9,122.4 404.9,122.5 405,122.5 405,122.6 405.1,122.6 405.1,122.7 405.2,122.7 
						405.2,122.8 405.2,122.8 405.2,122.9 405.3,122.9 405.3,122.9 405.4,122.9 405.4,123 405.5,123 405.5,123.1 405.6,123.1 
						405.6,123.2 405.7,123.2 405.7,123.3 405.8,123.3 405.8,123.4 405.8,123.4 405.8,123.5 405.9,123.5 405.9,123.6 406,123.6 
						406,123.6 406.1,123.6 406.1,123.7 406.2,123.7 406.2,123.8 406.3,123.8 406.3,123.9 406.4,123.9 406.4,124 406.5,124 
						406.5,124.1 406.5,124.1 406.5,124.2 406.6,124.2 406.6,124.2 406.7,124.2 406.7,124.3 406.8,124.3 406.8,124.4 406.9,124.4 
						406.9,124.5 407,124.5 407,124.6 407.1,124.6 407.1,124.7 407.1,124.7 407.1,124.8 407.2,124.8 407.2,124.9 407.3,124.9 
						407.3,124.9 407.4,124.9 407.4,125 407.5,125 407.5,125.1 407.6,125.1 407.6,125.2 407.7,125.2 407.7,125.3 407.8,125.3 
						407.8,125.4 407.8,125.4 407.8,125.5 407.9,125.5 407.9,125.5 408,125.5 408,125.6 408.1,125.6 408.1,125.7 408.2,125.7 
						408.2,125.8 408.3,125.8 408.3,125.9 408.4,125.9 408.4,126 408.4,126 408.4,126.1 408.5,126.1 408.5,126.2 408.6,126.2 
						408.6,126.2 408.7,126.2 408.7,126.3 408.8,126.3 408.8,126.4 408.9,126.4 408.9,126.5 409,126.5 409,126.6 409,126.6 
						409,126.7 409.1,126.7 409.1,126.8 409.2,126.8 409.2,126.8 409.3,126.8 409.3,126.9 409.4,126.9 409.4,127 409.5,127 
						409.5,127.1 409.6,127.1 409.6,127.2 409.7,127.2 409.7,127.3 409.7,127.3 409.7,127.4 409.8,127.4 409.8,127.5 409.9,127.5 
						409.9,127.5 410,127.5 410,127.6 410.1,127.6 410.1,127.7 410.2,127.7 410.2,127.8 410.3,127.8 410.3,127.9 410.3,127.9 
						410.3,128 410.4,128 410.4,128.1 410.5,128.1 410.5,128.1 410.6,128.1 410.6,128.2 410.7,128.2 410.7,128.3 410.8,128.3 
						410.8,128.4 410.9,128.4 410.9,128.5 411,128.5 411,128.6 411,128.6 411,128.7 411.1,128.7 411.1,128.8 411.2,128.8 
						411.2,128.8 411.3,128.8 411.3,128.9 411.4,128.9 411.4,129 411.5,129 411.5,129.1 411.6,129.1 411.6,129.2 411.6,129.2 
						411.6,129.3 411.7,129.3 411.7,129.4 411.8,129.4 411.8,129.4 411.9,129.4 411.9,129.5 412,129.5 412,129.6 412.1,129.6 
						412.1,129.7 					"/>
					<linearGradient id="SVGID_2_" gradientUnits="userSpaceOnUse" x1="117.0347" y1="202.8737" x2="217.6662" y2="202.8737">
						<stop  offset="0" style="stop-color:#FFFFFF"/>
						<stop  offset="1" style="stop-color:#775C4D"/>
					</linearGradient>
					<polygon class="st3" points="217.7,198.5 217.7,207.2 125.7,207.2 125.7,207.2 125.6,207.2 125.6,207.1 125.5,207.1 125.5,207 
						125.4,207 125.4,206.9 125.3,206.9 125.3,206.8 125.3,206.8 125.3,206.7 125.2,206.7 125.2,206.6 125.1,206.6 125.1,206.6 
						125,206.6 125,206.5 124.9,206.5 124.9,206.4 124.8,206.4 124.8,206.3 124.7,206.3 124.7,206.2 124.7,206.2 124.7,206.1 
						124.6,206.1 124.6,206 124.5,206 124.5,205.9 124.4,205.9 124.4,205.9 124.3,205.9 124.3,205.8 124.2,205.8 124.2,205.7 
						124.1,205.7 124.1,205.6 124,205.6 124,205.5 124,205.5 124,205.4 123.9,205.4 123.9,205.3 123.8,205.3 123.8,205.3 
						123.7,205.3 123.7,205.2 123.6,205.2 123.6,205.1 123.5,205.1 123.5,205 123.4,205 123.4,204.9 123.4,204.9 123.4,204.8 
						123.3,204.8 123.3,204.7 123.2,204.7 123.2,204.6 123.1,204.6 123.1,204.6 123,204.6 123,204.5 122.9,204.5 122.9,204.4 
						122.8,204.4 122.8,204.3 122.7,204.3 122.7,204.2 122.7,204.2 122.7,204.1 122.6,204.1 122.6,204 122.5,204 122.5,204 
						122.4,204 122.4,203.9 122.3,203.9 122.3,203.8 122.2,203.8 122.2,203.7 122.1,203.7 122.1,203.6 122.1,203.6 122.1,203.5 
						122,203.5 122,203.4 121.9,203.4 121.9,203.3 121.8,203.3 121.8,203.3 121.7,203.3 121.7,203.2 121.6,203.2 121.6,203.1 
						121.5,203.1 121.5,203 121.4,203 121.4,202.9 121.4,202.9 121.4,202.8 121.3,202.8 121.3,202.7 121.2,202.7 121.2,202.7 
						121.1,202.7 121.1,202.6 121,202.6 121,202.5 120.9,202.5 120.9,202.4 120.8,202.4 120.8,202.3 120.8,202.3 120.8,202.2 
						120.7,202.2 120.7,202.1 120.6,202.1 120.6,202 120.5,202 120.5,202 120.4,202 120.4,201.9 120.3,201.9 120.3,201.8 
						120.2,201.8 120.2,201.7 120.1,201.7 120.1,201.6 120.1,201.6 120.1,201.5 120,201.5 120,201.4 119.9,201.4 119.9,201.4 
						119.8,201.4 119.8,201.3 119.7,201.3 119.7,201.2 119.6,201.2 119.6,201.1 119.5,201.1 119.5,201 119.5,201 119.5,200.9 
						119.4,200.9 119.4,200.8 119.3,200.8 119.3,200.7 119.2,200.7 119.2,200.7 119.1,200.7 119.1,200.6 119,200.6 119,200.5 
						118.9,200.5 118.9,200.4 118.8,200.4 118.8,200.3 118.8,200.3 118.8,200.2 118.7,200.2 118.7,200.1 118.6,200.1 118.6,200.1 
						118.5,200.1 118.5,200 118.4,200 118.4,199.9 118.3,199.9 118.3,199.8 118.2,199.8 118.2,199.7 118.2,199.7 118.2,199.6 
						118.1,199.6 118.1,199.5 118,199.5 118,199.4 117.9,199.4 117.9,199.4 117.8,199.4 117.8,199.3 117.7,199.3 117.7,199.2 
						117.6,199.2 117.6,199.1 117.6,199.1 117.6,199 117.5,199 117.5,198.9 117.4,198.9 117.4,198.9 117.3,198.9 117.3,198.8 
						117.2,198.8 117.2,198.7 117.1,198.7 117.1,198.6 117,198.6 117,198.5 					"/>
				</g>
				<path class="st4" d="M116.9,121v77.5h100.7v233.1H308V198.5h95.5V121H116.9z"/>
			</g>
			<g>
				<path class="st5" d="M569.6,360.4c-1.1-0.4-2.2-0.9-3.2-1.4C567.4,359.5,568.5,360,569.6,360.4z"/>
				<path class="st5" d="M573,361.5c-1.1-0.3-2.3-0.7-3.4-1.1C570.7,360.8,571.9,361.2,573,361.5z"/>
				<g>
					<linearGradient id="SVGID_3_" gradientUnits="userSpaceOnUse" x1="541.0292" y1="237.7068" x2="558.8112" y2="237.7068">
						<stop  offset="0" style="stop-color:#775C4D"/>
						<stop  offset="1" style="stop-color:#FFFFFF"/>
					</linearGradient>
					<path class="st6" d="M541,318.7V121h0.1v0.1h0.1v0.1h0.1v0.1h0.1v0.1h0.1v0.1h0.1v0.1h0.1v0.1h0.1v0.1h0.1v0.1h0.1v0.1h0.1v0.1
						h0.1v0.1h0.1v0.1h0.1v0.1h0.1v0.1h0.1v0.1h0.1v0.1h0.1v0.1h0.1v0.1h0.1v0.1h0.1v0.1h0.1v0.1h0.1v0.1h0.1v0.1h0.1v0.1h0.1v0.1
						h0.1v0.1h0.1v0.1h0.1v0.1h0.1v0.1h0.1v0.1h0.1v0.1h0.1v0.1h0.1v0.1h0.1v0.1h0.1v0.1h0.1v0.1h0.1v0.1h0.1v0.1h0.1v0.1h0.1v0.1
						h0.1v0.1h0.1v0.1h0.1v0.1h0.1v0.1h0.1v0.1h0.1v0.1h0.1v0.1h0.1v0.1h0.1v0.1h0.1v0.1h0.1v0.1h0.1v0.1h0.1v0.1h0.1v0.1h0.1v0.1
						h0.1v0.1h0.1v0.1h0.1v0.1h0.1v0.1h0.1v0.1h0.1v0.1h0.1v0.1h0.1v0.1h0.1v0.1h0.1v0.1h0.1v0.1h0.1v0.1h0.1v0.1h0.1v0.1h0.1v0.1
						h0.1v0.1h0.1v0.1h0.1v0.1h0.1v0.1h0.1v0.1h0.1v0.1h0.1v0.1h0.1v0.1h0.1v0.1h0.1v0.1h0.1v0.1h0.1v0.1h0.1v0.1h0.1v0.1h0.1v0.1
						h0.1v0.1h0.1v0.1h0.1v0.1h0.1v0.1h0.1v0.1h0.1v0.1h0.1v0.1h0.1v0.1h0.1v0.1h0.1v0.1h0.1v0.1h0.1v0.1h0.1v0.1h0.1v0.1h0.1v197.7
						c0,10.1,3.4,19.5,9,27C548,346.2,541,333.2,541,318.7z"/>
					<linearGradient id="SVGID_4_" gradientUnits="userSpaceOnUse" x1="474.6622" y1="283.3178" x2="747.6031" y2="283.3178">
						<stop  offset="0" style="stop-color:#FFFFFF"/>
						<stop  offset="2.706033e-02" style="stop-color:#EEEAE8"/>
						<stop  offset="7.773000e-02" style="stop-color:#D2C9C4"/>
						<stop  offset="0.1348" style="stop-color:#B9ABA4"/>
						<stop  offset="0.1979" style="stop-color:#A49288"/>
						<stop  offset="0.2691" style="stop-color:#947E72"/>
						<stop  offset="0.3523" style="stop-color:#876F61"/>
						<stop  offset="0.4552" style="stop-color:#7E6456"/>
						<stop  offset="0.5995" style="stop-color:#785E4F"/>
						<stop  offset="1" style="stop-color:#775C4D"/>
					</linearGradient>
					<path class="st7" d="M747.6,129.7v163.1c0,37.3-2,63.6-6,79c-4,15.4-11.5,28.4-22.3,39c-10.8,10.6-25.3,19-43.4,25.3
						c-18.1,6.3-41.8,9.4-71,9.4c-35.3,0-62-3.4-80.2-10.3c-17.1-6.4-30.9-14.7-41.2-24.7c0,0,0-0.1-0.1-0.1c0,0,0-0.1-0.1-0.1
						c0,0,0-0.1-0.1-0.1c0,0-0.1-0.1-0.1-0.1c0,0-0.1-0.1-0.1-0.1c0,0-0.1-0.1-0.1-0.1c0,0-0.1-0.1-0.1-0.1c0,0-0.1,0-0.1-0.1
						c0,0-0.1,0-0.1-0.1c0,0-0.1,0-0.1-0.1c0,0-0.1,0-0.1-0.1c0,0,0-0.1-0.1-0.1c0,0,0-0.1-0.1-0.1c0,0,0-0.1-0.1-0.1
						c0,0,0-0.1-0.1-0.1c0,0-0.1-0.1-0.1-0.1c-0.1-0.1-0.1-0.1-0.2-0.2c-0.1,0-0.1-0.1-0.2-0.2c0,0-0.1,0-0.1-0.1c0,0-0.1,0-0.1-0.1
						c0,0-0.1-0.1-0.1-0.1c0,0-0.1-0.1-0.1-0.1c0,0-0.1-0.1-0.1-0.1c0,0-0.1-0.1-0.1-0.1c0,0-0.1-0.1-0.1-0.1c0,0,0-0.1-0.1-0.1
						c0,0,0-0.1-0.1-0.1c0,0,0-0.1-0.1-0.1c0,0,0-0.1-0.1-0.1c0,0-0.1-0.1-0.1-0.1c0,0-0.1-0.1-0.1-0.1c0,0-0.1-0.1-0.1-0.1
						c0,0-0.1-0.1-0.1-0.1c0,0-0.1,0-0.1-0.1c0,0-0.1,0-0.1-0.1c-0.1,0-0.1-0.1-0.2-0.2c0,0,0-0.1-0.1-0.1c0,0,0-0.1-0.1-0.1
						c0,0,0-0.1-0.1-0.1c0,0-0.1-0.1-0.1-0.1c0,0-0.1-0.1-0.1-0.1c0,0-0.1-0.1-0.1-0.1c0,0,0-0.1-0.1-0.1c0,0-0.1-0.1-0.1-0.1
						c0,0-0.1-0.1-0.1-0.1c0,0-0.1-0.1-0.1-0.1c0,0-0.1-0.1-0.1-0.1c0,0-0.1-0.1-0.1-0.1c0,0-0.1-0.1-0.1-0.1c0,0-0.1,0-0.1-0.1
						c0,0-0.1,0-0.1-0.1c0,0-0.1-0.1-0.1-0.1c0,0,0-0.1-0.1-0.1c0-0.1-0.1-0.1-0.2-0.2c0-0.1-0.1-0.1-0.2-0.2c0,0-0.1-0.1-0.1-0.1
						c0,0-0.1-0.1-0.1-0.1c0,0-0.1-0.1-0.1-0.1c0,0-0.1-0.1-0.1-0.1c0,0-0.1,0-0.1-0.1c0,0-0.1,0-0.1-0.1c0,0-0.1,0-0.1-0.1
						c0,0-0.1-0.1-0.1-0.1c0,0-0.1-0.1-0.1-0.1c0,0,0-0.1-0.1-0.1c0,0-0.1-0.1-0.1-0.1c0,0-0.1-0.1-0.1-0.1c0,0-0.1-0.1-0.1-0.1
						c0,0,0-0.1-0.1-0.1c0,0,0-0.1-0.1-0.1c0,0-0.1-0.1-0.1-0.1c0,0-0.1-0.1-0.1-0.1c-0.1-0.1-0.1-0.1-0.2-0.2c0,0-0.1-0.1-0.1-0.1
						c0,0-0.1,0-0.1-0.1c0,0-0.1,0-0.1-0.1c0,0-0.1,0-0.1-0.1c0,0,0-0.1-0.1-0.1c0,0,0-0.1-0.1-0.1c0,0,0-0.1-0.1-0.1
						c0,0,0-0.1-0.1-0.1c0,0,0-0.1-0.1-0.1c0,0-0.1-0.1-0.1-0.1c0,0-0.1-0.1-0.1-0.1c0,0-0.1-0.1-0.1-0.1c0,0-0.1-0.1-0.1-0.1
						c0,0-0.1,0-0.1-0.1c0,0-0.1,0-0.1-0.1c0,0-0.1,0-0.1-0.1c0,0-0.1-0.1-0.1-0.1c-0.1-0.1-0.1-0.1-0.2-0.2
						c-0.1-0.1-0.1-0.1-0.2-0.2v0c10.4,10,24.1,18.2,41.2,24.7c18.2,6.8,45,10.3,80.2,10.3c29.2,0,52.9-3.1,71-9.4
						c18.1-6.3,32.6-14.7,43.4-25.3c10.8-10.6,18.3-23.6,22.3-39c4-15.4,6-41.7,6-79V121h0.1v0.1h0.1v0.1h0.1v0.1h0.1v0.1h0.1v0.1
						h0.1v0.1h0.1v0.1h0.1v0.1h0.1v0.1h0.1v0.1h0.1v0.1h0.1v0.1h0.1v0.1h0.1v0.1h0.1v0.1h0.1v0.1h0.1v0.1h0.1v0.1h0.1v0.1h0.1v0.1
						h0.1v0.1h0.1v0.1h0.1v0.1h0.1v0.1h0.1v0.1h0.1v0.1h0.1v0.1h0.1v0.1h0.1v0.1h0.1v0.1h0.1v0.1h0.1v0.1h0.1v0.1h0.1v0.1h0.1v0.1
						h0.1v0.1h0.1v0.1h0.1v0.1h0.1v0.1h0.1v0.1h0.1v0.1h0.1v0.1h0.1v0.1h0.1v0.1h0.1v0.1h0.1v0.1h0.1v0.1h0.1v0.1h0.1v0.1h0.1v0.1
						h0.1v0.1h0.1v0.1h0.1v0.1h0.1v0.1h0.1v0.1h0.1v0.1h0.1v0.1h0.1v0.1h0.1v0.1h0.1v0.1h0.1v0.1h0.1v0.1h0.1v0.1h0.1v0.1h0.1v0.1
						h0.1v0.1h0.1v0.1h0.1v0.1h0.1v0.1h0.1v0.1h0.1v0.1h0.1v0.1h0.1v0.1h0.1v0.1h0.1v0.1h0.1v0.1h0.1v0.1h0.1v0.1h0.1v0.1h0.1v0.1
						h0.1v0.1h0.1v0.1h0.1v0.1h0.1v0.1h0.1v0.1h0.1v0.1h0.1v0.1h0.1v0.1h0.1v0.1h0.1v0.1h0.1v0.1h0.1v0.1h0.1v0.1h0.1v0.1h0.1v0.1
						h0.1v0.1h0.1v0.1h0.1v0.1h0.1v0.1L747.6,129.7L747.6,129.7L747.6,129.7z"/>
				</g>
				<path class="st4" d="M738.9,121v163.1c0,37.3-2,63.6-6,79c-4,15.4-11.5,28.4-22.3,39c-10.8,10.6-25.3,19-43.4,25.3
					c-18.1,6.3-41.8,9.4-71,9.4c-35.3,0-62-3.4-80.2-10.3c-17.1-6.4-30.8-14.6-41.2-24.7c-0.7-0.7-1.4-1.3-2-2
					c-10.6-10.9-17.6-22.4-20.9-34.4c-4.9-17.8-7.3-44.1-7.3-78.8V121H541v197.7c0,14.6,7,27.5,17.8,35.7c0.1,0.1,0.1,0.1,0.2,0.1
					c0.4,0.3,0.8,0.6,1.2,0.9c1,0.7,2,1.3,3,1.9c0.5,0.3,1,0.6,1.5,0.9h0c0.5,0.3,1,0.5,1.6,0.8c0,0,0,0,0,0c1,0.5,2.1,1,3.2,1.4
					c1.1,0.4,2.2,0.8,3.4,1.1c0,0,0,0,0.1,0c0.6,0.2,1.1,0.3,1.7,0.5c0.6,0.2,1.2,0.3,1.8,0.4c0.6,0.1,1.2,0.2,1.8,0.3
					c0.6,0.1,1.1,0.2,1.7,0.3c0.1,0,0.1,0,0.2,0c1.1,0.1,2.1,0.2,3.2,0.3c0,0,0.1,0,0.1,0c0.2,0,0.4,0,0.6,0c0.5,0,1,0,1.6,0h12.8
					c24.7,0,44.7-20,44.7-44.7V121H738.9z"/>
			</g>
			<g>
				<g>
					<polygon class="st5" points="934.1,343.3 865.4,121 865.5,121 865.5,121.1 865.6,121.1 865.6,121.2 865.6,121.2 865.7,121.3 
						865.7,121.3 865.8,121.4 865.8,121.4 865.8,121.5 865.9,121.5 865.9,121.6 866,121.6 866,121.6 866.1,121.6 866.1,121.7 
						866.2,121.7 866.2,121.8 866.3,121.8 866.3,121.9 866.3,121.9 866.4,122 866.4,122 866.5,122.1 866.5,122.1 866.5,122.2 
						866.6,122.2 866.6,122.3 866.7,122.3 866.7,122.3 866.8,122.3 866.8,122.4 866.9,122.4 866.9,122.5 866.9,122.5 867,122.6 
						867,122.6 867.1,122.7 867.1,122.7 867.1,122.8 867.2,122.8 867.2,122.9 867.3,122.9 867.3,122.9 867.4,122.9 867.4,123 
						867.5,123 867.5,123.1 867.6,123.1 867.6,123.2 867.6,123.2 867.7,123.3 867.7,123.3 867.8,123.4 867.8,123.4 867.8,123.5 
						867.9,123.5 867.9,123.6 868,123.6 868,123.6 868.1,123.6 868.1,123.7 868.2,123.7 868.2,123.8 868.2,123.8 868.3,123.9 
						868.3,123.9 868.4,124 868.4,124 868.4,124.1 868.5,124.1 868.5,124.2 868.6,124.2 868.6,124.2 868.7,124.2 868.7,124.3 
						868.8,124.3 868.8,124.4 868.9,124.4 868.9,124.5 868.9,124.5 869,124.6 869,124.6 869.1,124.7 869.1,124.7 869.1,124.8 
						869.2,124.8 869.2,124.9 869.3,124.9 869.3,124.9 869.4,124.9 869.4,125 869.5,125 869.5,125.1 869.5,125.1 869.6,125.2 
						869.6,125.2 869.7,125.3 869.7,125.3 869.7,125.4 869.8,125.4 869.8,125.5 869.9,125.5 869.9,125.5 870,125.5 870,125.6 
						870.1,125.6 870.1,125.7 870.1,125.7 870.2,125.8 870.2,125.8 870.3,125.9 870.3,125.9 870.4,126 870.4,126 870.4,126.1 
						870.5,126.1 870.5,126.2 870.6,126.2 870.6,126.2 870.7,126.2 870.7,126.3 870.8,126.3 870.8,126.4 870.8,126.4 870.9,126.5 
						870.9,126.5 871,126.6 871,126.6 871,126.7 871.1,126.7 871.1,126.8 871.2,126.8 871.2,126.8 871.3,126.8 871.3,126.9 
						871.4,126.9 871.4,127 871.4,127 871.5,127.1 871.5,127.1 871.6,127.2 871.6,127.2 871.6,127.3 871.7,127.3 871.7,127.4 
						871.8,127.4 871.8,127.5 871.9,127.5 871.9,127.5 872,127.5 872,127.6 872.1,127.6 872.1,127.7 872.1,127.7 872.2,127.8 
						872.2,127.8 872.3,127.9 872.3,127.9 872.3,128 872.4,128 872.4,128.1 872.5,128.1 872.5,128.1 872.6,128.1 872.6,128.2 
						872.7,128.2 872.7,128.3 872.7,128.3 872.8,128.4 872.8,128.4 872.9,128.5 872.9,128.5 872.9,128.6 873,128.6 873,128.7 
						873.1,128.7 873.1,128.8 873.2,128.8 873.2,128.8 873.3,128.8 873.3,128.9 873.4,128.9 873.4,129 873.4,129 873.5,129.1 
						873.5,129.1 873.6,129.2 873.6,129.2 873.6,129.3 873.7,129.3 873.7,129.4 873.8,129.4 873.8,129.4 873.9,129.4 873.9,129.5 
						874,129.5 874,129.6 874,129.6 874.1,129.7 874.1,129.7 937.1,333.5 					"/>
					<linearGradient id="SVGID_5_" gradientUnits="userSpaceOnUse" x1="887.8599" y1="280.6748" x2="1109.6042" y2="280.6748">
						<stop  offset="0" style="stop-color:#FFFFFF"/>
						<stop  offset="5.737391e-02" style="stop-color:#CDC3BE"/>
						<stop  offset="0.1329" style="stop-color:#8F796D"/>
						<stop  offset="0.1676" style="stop-color:#775C4D"/>
					</linearGradient>
					<polygon class="st8" points="1109.6,129.7 994.3,440.3 896.6,440.3 896.5,440.2 896.5,440.2 896.4,440.1 896.4,440.1 
						896.3,440 896.3,440 896.3,440 896.2,440 896.2,439.9 896.1,439.9 896.1,439.8 896,439.8 896,439.7 895.9,439.7 895.9,439.6 
						895.9,439.6 895.8,439.5 895.8,439.5 895.7,439.4 895.7,439.4 895.7,439.3 895.6,439.3 895.6,439.3 895.5,439.3 895.5,439.2 
						895.4,439.2 895.4,439.1 895.3,439.1 895.3,439 895.3,439 895.2,438.9 895.2,438.9 895.1,438.8 895.1,438.8 895,438.7 
						895,438.7 895,438.7 894.9,438.7 894.9,438.6 894.8,438.6 894.8,438.5 894.7,438.5 894.7,438.4 894.6,438.4 894.6,438.3 
						894.6,438.3 894.5,438.2 894.5,438.2 894.4,438.1 894.4,438.1 894.4,438 894.3,438 894.3,438 894.2,438 894.2,437.9 
						894.1,437.9 894.1,437.8 894,437.8 894,437.7 894,437.7 893.9,437.6 893.9,437.6 893.8,437.5 893.8,437.5 893.7,437.4 
						893.7,437.4 893.7,437.4 893.6,437.4 893.6,437.3 893.5,437.3 893.5,437.2 893.4,437.2 893.4,437.1 893.3,437.1 893.3,437 
						893.3,437 893.2,436.9 893.2,436.9 893.1,436.8 893.1,436.8 893.1,436.7 893,436.7 893,436.7 892.9,436.7 892.9,436.6 
						892.8,436.6 892.8,436.5 892.7,436.5 892.7,436.4 892.7,436.4 892.6,436.3 892.6,436.3 892.5,436.2 892.5,436.2 892.4,436.1 
						892.4,436.1 892.4,436.1 892.3,436.1 892.3,436 892.2,436 892.2,435.9 892.1,435.9 892.1,435.8 892,435.8 892,435.7 892,435.7 
						891.9,435.6 891.9,435.6 891.8,435.5 891.8,435.5 891.8,435.4 891.7,435.4 891.7,435.4 891.6,435.4 891.6,435.3 891.5,435.3 
						891.5,435.2 891.4,435.2 891.4,435.1 891.4,435.1 891.3,435 891.3,435 891.2,434.9 891.2,434.9 891.1,434.8 891.1,434.8 
						891.1,434.8 891,434.8 891,434.7 890.9,434.7 890.9,434.6 890.8,434.6 890.8,434.5 890.8,434.5 890.7,434.4 890.7,434.4 
						890.6,434.3 890.6,434.3 890.5,434.2 890.5,434.2 890.5,434.1 890.4,434.1 890.4,434.1 890.3,434.1 890.3,434 890.2,434 
						890.2,433.9 890.1,433.9 890.1,433.8 890.1,433.8 890,433.7 890,433.7 889.9,433.6 889.9,433.6 889.9,433.5 889.8,433.5 
						889.8,433.5 889.7,433.5 889.7,433.4 889.6,433.4 889.6,433.3 889.5,433.3 889.5,433.2 889.5,433.2 889.4,433.1 889.4,433.1 
						889.3,433 889.3,433 889.2,432.9 889.2,432.9 889.2,432.8 889.1,432.8 889.1,432.8 889,432.8 889,432.7 888.9,432.7 
						888.9,432.6 888.8,432.6 888.8,432.5 888.8,432.5 888.7,432.4 888.7,432.4 888.6,432.3 888.6,432.3 888.6,432.2 888.5,432.2 
						888.5,432.2 888.4,432.2 888.4,432.1 888.3,432.1 888.3,432 888.2,432 888.2,431.9 888.2,431.9 888.1,431.8 888.1,431.8 
						888,431.7 888,431.7 887.9,431.6 887.9,431.6 887.9,431.6 985.5,431.6 1100.8,121 1100.9,121 1100.9,121.1 1101,121.1 
						1101,121.2 1101.1,121.2 1101.1,121.3 1101.2,121.3 1101.2,121.4 1101.3,121.4 1101.3,121.5 1101.4,121.5 1101.3,121.6 
						1101.5,121.6 1101.4,121.6 1101.5,121.6 1101.5,121.7 1101.6,121.7 1101.6,121.8 1101.7,121.8 1101.7,121.9 1101.8,121.9 
						1101.8,122 1101.9,122 1101.9,122.1 1102,122.1 1101.9,122.2 1102.1,122.2 1102,122.3 1102.2,122.3 1102.1,122.3 1102.2,122.3 
						1102.2,122.4 1102.3,122.4 1102.3,122.5 1102.4,122.5 1102.4,122.6 1102.5,122.6 1102.5,122.7 1102.6,122.7 1102.6,122.8 
						1102.7,122.8 1102.6,122.9 1102.8,122.9 1102.7,122.9 1102.8,122.9 1102.8,123 1102.9,123 1102.9,123.1 1103,123.1 1103,123.2 
						1103.1,123.2 1103.1,123.3 1103.2,123.3 1103.2,123.4 1103.3,123.4 1103.2,123.5 1103.4,123.5 1103.3,123.6 1103.5,123.6 
						1103.4,123.6 1103.5,123.6 1103.5,123.7 1103.6,123.7 1103.6,123.8 1103.7,123.8 1103.7,123.9 1103.8,123.9 1103.8,124 
						1103.9,124 1103.9,124.1 1104,124.1 1103.9,124.2 1104.1,124.2 1104,124.2 1104.1,124.2 1104.1,124.3 1104.2,124.3 
						1104.2,124.4 1104.3,124.4 1104.3,124.5 1104.4,124.5 1104.4,124.6 1104.5,124.6 1104.5,124.7 1104.6,124.7 1104.5,124.8 
						1104.7,124.8 1104.6,124.9 1104.8,124.9 1104.7,124.9 1104.8,124.9 1104.8,125 1104.9,125 1104.9,125.1 1105,125.1 1105,125.2 
						1105.1,125.2 1105.1,125.3 1105.2,125.3 1105.2,125.4 1105.3,125.4 1105.2,125.5 1105.4,125.5 1105.3,125.5 1105.4,125.5 
						1105.4,125.6 1105.5,125.6 1105.5,125.7 1105.6,125.7 1105.6,125.8 1105.7,125.8 1105.7,125.9 1105.8,125.9 1105.8,126 
						1105.9,126 1105.8,126.1 1106,126.1 1105.9,126.2 1106.1,126.2 1106,126.2 1106.1,126.2 1106.1,126.3 1106.2,126.3 
						1106.2,126.4 1106.3,126.4 1106.3,126.5 1106.4,126.5 1106.4,126.6 1106.5,126.6 1106.5,126.7 1106.6,126.7 1106.5,126.8 
						1106.7,126.8 1106.6,126.8 1106.7,126.8 1106.7,126.9 1106.8,126.9 1106.8,127 1106.9,127 1106.9,127.1 1107,127.1 1107,127.2 
						1107.1,127.2 1107.1,127.3 1107.2,127.3 1107.1,127.4 1107.3,127.4 1107.2,127.5 1107.4,127.5 1107.3,127.5 1107.4,127.5 
						1107.4,127.6 1107.5,127.6 1107.5,127.7 1107.6,127.7 1107.6,127.8 1107.7,127.8 1107.7,127.9 1107.8,127.9 1107.8,128 
						1107.9,128 1107.8,128.1 1108,128.1 1107.9,128.1 1108,128.1 1108,128.2 1108.1,128.2 1108.1,128.3 1108.2,128.3 1108.2,128.4 
						1108.3,128.4 1108.3,128.5 1108.4,128.5 1108.4,128.6 1108.5,128.6 1108.4,128.7 1108.6,128.7 1108.5,128.8 1108.7,128.8 
						1108.6,128.8 1108.7,128.8 1108.7,128.9 1108.8,128.9 1108.8,129 1108.9,129 1108.9,129.1 1109,129.1 1109,129.2 1109.1,129.2 
						1109.1,129.3 1109.2,129.3 1109.1,129.4 1109.3,129.4 1109.2,129.4 1109.3,129.4 1109.3,129.5 1109.4,129.5 1109.4,129.6 
						1109.5,129.6 1109.5,129.7 					"/>
				</g>
				<polygon class="st4" points="1100.9,121 1100.8,121 985.5,431.6 887.8,431.6 766.5,121 865.4,121 865.4,121 934.1,343.3 
					937.1,333.5 1002.4,121 				"/>
			</g>
			<g>
				<linearGradient id="SVGID_6_" gradientUnits="userSpaceOnUse" x1="1073.0654" y1="280.6748" x2="1422.0331" y2="280.6748">
					<stop  offset="0" style="stop-color:#FFFFFF"/>
					<stop  offset="0.1033" style="stop-color:#CDC3BE"/>
					<stop  offset="0.2393" style="stop-color:#8F796D"/>
					<stop  offset="0.3017" style="stop-color:#775C4D"/>
				</linearGradient>
				<path class="st9" d="M1298.7,129.7L1298.7,129.7L1298.7,129.7l-0.1-0.1l0-0.1h-0.1l0-0.1h-0.1l0-0.1h0l0-0.1h0l0-0.1h-0.1l0-0.1
					h-0.1l0-0.1h0l0-0.1h-0.1l0-0.1h-0.1l0-0.1h-0.1l0-0.1h-0.1l0-0.1h-0.1l0-0.1h-0.1l0-0.1h0l0-0.1h0l0-0.1h-0.1l0-0.1h-0.1l0-0.1
					h-0.1l0-0.1h0l0-0.1h-0.1l0-0.1h0l0-0.1h0l0-0.1h-0.1l0-0.1h-0.1l0-0.1h-0.1l0-0.1h-0.1l0-0.1h-0.1l0-0.1h0l0-0.1h0l0-0.1h-0.1
					l0-0.1h-0.1l0-0.1h0l0-0.1h0l0-0.1h-0.1l0-0.1h0l0-0.1h0l0-0.1h0l0-0.1h-0.1l0-0.1h-0.1l0-0.1h-0.1l0-0.1h-0.1l0-0.1h-0.1l0-0.1
					h0l0-0.1h0l0-0.1h-0.1l0-0.1h-0.1l0-0.1h-0.1l0-0.1h-0.1l0-0.1h-0.1l0-0.1h0l0-0.1h0l0-0.1h-0.1l0-0.1h-0.1l0-0.1h-0.1l0-0.1
					h-0.1l0-0.1h-0.1l0-0.1h-0.1l0-0.1h0l0-0.1h-0.1l0-0.1h-0.1l0-0.1h0l0-0.1h0l0-0.1h-0.1l0-0.1h-0.1l0-0.1h-0.1l0-0.1h-0.1l0-0.1
					h-0.1l0-0.1h-0.1l0-0.1h-0.1l0-0.1h-0.1l0-0.1h-0.1l0-0.1h0l0-0.1h-0.1l0-0.1h0l0-0.1h-0.1l0-0.1h0l0-0.1h-0.1l0-0.1h-0.1l0-0.1
					h0l0-0.1h0l0-0.1h-0.1l0-0.1h-0.1l0-0.1h-0.1l0-0.1h-0.1l0-0.1h0l0-0.1h0l0-0.1h0l0-0.1h-0.1l0-0.1h-0.1l0-0.1h0l0-0.1h-0.1
					l0-0.1h0l0-0.1h-0.1l0-0.1h0l0-0.1h-0.1l0-0.1h-0.1l0-0.1h-0.1l0-0.1h-0.1l0-0.1h-0.1l123.3,310.5h-104.4l0,0.1h0.1l0,0.1h0.1
					l0,0.1h0l0,0.1h0l0,0.1h0.1l0,0.1h0.1l0,0.1h0.1l0,0.1h0.1l0,0.1h0.1l0,0.1h0.1l0,0.1h0.1l0,0.1h0.1l0,0.1h0.1l0,0.1h0.1l0,0.1
					h0l0,0.1h0l0,0.1h0.1l0,0.1h0.1l0,0.1h0.1l0,0.1h0.1l0,0.1h0.1l0,0.1h0.1l0,0.1h0.1l0,0.1h0.1l0,0.1h0.1l0,0.1h0.1l0,0.1h0.1
					l0,0.1h0.1l0,0.1h0.1l0,0.1h0.1l0,0.1h0.1l0,0.1h0.1l0,0.1h0l0,0.1h0.1l0,0.1h0.1l0,0.1h0.1l0,0.1h0.1l0,0.1h0.1l0,0.1h0.1
					l0,0.1h0.1l0,0.1h0.1l0,0.1h0.1l0,0.1h0.1l0,0.1h0l0,0.1h0l0,0.1h0.1l0,0.1h0.1l0,0.1h0.1l0,0.1h0.1l0,0.1h0.1l0,0.1h0.1l0,0.1
					h0.1l0,0.1h0.1l0,0.1h0.1l0,0.1h0.1l0,0.1h0.1l0,0.1h0.1l0,0.1h0l0,0.1h0l0,0.1h0l0,0.1h0.1l0,0.1h0l0,0.1h0.1l0,0.1h0.1l0,0.1
					h0.1l0,0.1h0.1l0,0.1h0.1l0,0.1h0.1l0,0.1h0.1l0,0.1h0.1l0,0.1h0.1l0,0.1h0.1l0,0.1h0l0,0.1h0.1l0,0.1h0.1l0,0.1h0l0,0.1h0.1
					l0,0.1h0.1l0,0.1h0.1l0,0.1h0.1l0,0.1h0.1l0,0.1h0.1l0,0.1h0.1l0,0.1h0.1l0,0.1h0.1l0,0.1h0.1l0,0.1h0l0,0.1h0l0,0.1h0.1l0,0.1
					h0.1l0,0.1h0.1l0,0.1h0.1l0,0.1h0.1l0,0.1h0.1l0,0.1h0.1l0,0.1h0.1l0,0.1h0.1l0,0.1h0.1l0,0.1h0.1l0,0.1h0.1l0,0.1H1422
					L1298.7,129.7z M1186.1,378.5l-16.7,53.1h-96.3l0,0.1h0.1l0,0.1h0.1l0,0.1h0.1l0,0.1h0.1l0,0.1h0.1l0,0.1h0.1l0,0.1h0.1l0,0.1
					h0.1l0,0.1h0.1l0,0.1h0.1l0,0.1h0.1l0,0.1h0.1l0,0.1h0.1l0,0.1h0.1l0,0.1h0.1l0,0.1h0.1l0,0.1h0.1l0,0.1h0.1l0,0.1h0.1l0,0.1
					h0.1l0,0.1h0.1l0,0.1h0.1l0,0.1h0.1l0,0.1h0.1l0,0.1h0.1l0,0.1h0.1l0,0.1h0.1l0,0.1h0.1l0,0.1h0.1l0,0.1h0.1l0,0.1h0.1l0,0.1
					h0.1l0,0.1h0.1l0,0.1h0.1l0,0.1h0.1l0,0.1h0.1l0,0.1h0.1l0,0.1h0.1l0,0.1h0.1l0,0.1h0.1l0,0.1h0.1l0,0.1h0.1l0,0.1h0.1l0,0.1
					h0.1l0,0.1h0.1l0,0.1h0.1l0,0.1h0.1l0,0.1h0.1l0,0.1h0.1l0,0.1h0.1l0,0.1h0.1l0,0.1h0.1l0,0.1h0.1l0,0.1h0.1l0,0.1h0.1l0,0.1
					h0.1l0,0.1h0.1l0,0.1h0.1l0,0.1h0.1l0,0.1h0.1l0,0.1h0.1l0,0.1h0.1l0,0.1h0.1l0,0.1h0.1l0,0.1h0.1l0,0.1h0.1l0,0.1h0.1l0,0.1
					h0.1l0,0.1h0.1l0,0.1h0.1l0,0.1h0.1l0,0.1h0.1l0,0.1h0.1l0,0.1h0.1l0,0.1h0.1l0,0.1h0.1l0,0.1h0.1l0,0.1h0.1l0,0.1h0.1l0,0.1
					h0.1l0,0.1h0.1l0,0.1h0.1l0,0.1h0.1l0,0.1h0.1l0,0.1h0.1l0,0.1h0.1l0,0.1h0.1l0,0.1h0.1l0,0.1h0.1l0,0.1h0.1l0,0.1h0.1l0,0.1
					h0.1l0,0.1h0.1l0,0.1h0.1l0,0.1h0.1l0,0.1h0.1l0,0.1h0.1l0,0.1h0.1l0,0.1h0.1l0,0.1h0.1l0,0.1h96.4l16.7-53.1h99.7l-2.8-8.7
					H1186.1z M1243,217.1l-5.7-18.7l-34.7,115.3h11.4L1243,217.1z"/>
				<path class="st4" d="M1290,121L1290,121l-102.4-0.1L1073,431.6h96.4l16.7-53.1h105.6l2.8,8.7l14.3,44.3h104.5L1290,121z
					 M1202.6,313.7l34.7-115.3l5.7,18.7l29.6,96.5H1202.6z"/>
			</g>
			<g>
				<g>
					<linearGradient id="SVGID_7_" gradientUnits="userSpaceOnUse" x1="1527.0631" y1="240.1561" x2="1535.8104" y2="240.1561">
						<stop  offset="0.3575" style="stop-color:#775C4D"/>
						<stop  offset="1" style="stop-color:#FFFFFF"/>
					</linearGradient>
					<polygon class="st10" points="1535.8,356.7 1527.1,356.7 1527.1,123.6 1527.2,123.6 1527.2,123.7 1527.2,123.7 1527.2,123.8 
						1527.3,123.8 1527.3,123.8 1527.4,123.8 1527.4,123.9 1527.5,123.9 1527.5,124 1527.6,124 1527.6,124.1 1527.7,124.1 
						1527.7,124.2 1527.8,124.2 1527.8,124.3 1527.9,124.3 1527.9,124.4 1527.9,124.4 1527.9,124.5 1528,124.5 1528,124.5 
						1528.1,124.5 1528.1,124.6 1528.2,124.6 1528.2,124.7 1528.3,124.7 1528.3,124.8 1528.4,124.8 1528.4,124.9 1528.5,124.9 
						1528.5,125 1528.5,125 1528.5,125.1 1528.6,125.1 1528.6,125.1 1528.7,125.1 1528.7,125.2 1528.8,125.2 1528.8,125.3 
						1528.9,125.3 1528.9,125.4 1529,125.4 1529,125.5 1529.1,125.5 1529.1,125.6 1529.2,125.6 1529.2,125.7 1529.2,125.7 
						1529.2,125.8 1529.3,125.8 1529.3,125.8 1529.4,125.8 1529.4,125.9 1529.5,125.9 1529.5,126 1529.6,126 1529.6,126.1 
						1529.7,126.1 1529.7,126.2 1529.8,126.2 1529.8,126.3 1529.8,126.3 1529.8,126.4 1529.9,126.4 1529.9,126.4 1530,126.4 
						1530,126.5 1530.1,126.5 1530.1,126.6 1530.2,126.6 1530.2,126.7 1530.3,126.7 1530.3,126.8 1530.4,126.8 1530.4,126.9 
						1530.4,126.9 1530.4,127 1530.5,127 1530.5,127.1 1530.6,127.1 1530.6,127.1 1530.7,127.1 1530.7,127.2 1530.8,127.2 
						1530.8,127.3 1530.9,127.3 1530.9,127.4 1531,127.4 1531,127.5 1531,127.5 1531,127.6 1531.1,127.6 1531.1,127.7 1531.2,127.7 
						1531.2,127.7 1531.3,127.7 1531.3,127.8 1531.4,127.8 1531.4,127.9 1531.5,127.9 1531.5,128 1531.6,128 1531.6,128.1 
						1531.7,128.1 1531.7,128.2 1531.7,128.2 1531.7,128.3 1531.8,128.3 1531.8,128.4 1531.9,128.4 1531.9,128.4 1532,128.4 
						1532,128.5 1532.1,128.5 1532.1,128.6 1532.2,128.6 1532.2,128.7 1532.3,128.7 1532.3,128.8 1532.3,128.8 1532.3,128.9 
						1532.4,128.9 1532.4,129 1532.5,129 1532.5,129 1532.6,129 1532.6,129.1 1532.7,129.1 1532.7,129.2 1532.8,129.2 1532.8,129.3 
						1532.9,129.3 1532.9,129.4 1533,129.4 1533,129.5 1533,129.5 1533,129.6 1533.1,129.6 1533.1,129.7 1533.2,129.7 1533.2,129.7 
						1533.3,129.7 1533.3,129.8 1533.4,129.8 1533.4,129.9 1533.5,129.9 1533.5,130 1533.6,130 1533.6,130.1 1533.6,130.1 
						1533.6,130.2 1533.7,130.2 1533.7,130.3 1533.8,130.3 1533.8,130.3 1533.9,130.3 1533.9,130.4 1534,130.4 1534,130.5 
						1534.1,130.5 1534.1,130.6 1534.2,130.6 1534.2,130.7 1534.3,130.7 1534.3,130.8 1534.3,130.8 1534.3,130.9 1534.4,130.9 
						1534.4,131 1534.5,131 1534.5,131 1534.6,131 1534.6,131.1 1534.7,131.1 1534.7,131.2 1534.8,131.2 1534.8,131.3 1534.9,131.3 
						1534.9,131.4 1534.9,131.4 1534.9,131.5 1535,131.5 1535,131.6 1535.1,131.6 1535.1,131.6 1535.2,131.6 1535.2,131.7 
						1535.3,131.7 1535.3,131.8 1535.4,131.8 1535.4,131.9 1535.5,131.9 1535.5,132 1535.6,132 1535.6,132.1 1535.6,132.1 
						1535.6,132.2 1535.7,132.2 1535.7,132.2 1535.8,132.2 					"/>
					<linearGradient id="SVGID_8_" gradientUnits="userSpaceOnUse" x1="1433.1296" y1="398.5573" x2="1683.0527" y2="398.5573">
						<stop  offset="0" style="stop-color:#FFFFFF"/>
						<stop  offset="5.737391e-02" style="stop-color:#CDC3BE"/>
						<stop  offset="0.1329" style="stop-color:#8F796D"/>
						<stop  offset="0.1676" style="stop-color:#775C4D"/>
					</linearGradient>
					<polygon class="st11" points="1683.1,365.5 1683.1,440.3 1441.8,440.3 1441.8,440.2 1441.7,440.2 1441.7,440.1 1441.6,440.1 
						1441.6,440 1441.5,440 1441.5,440 1441.4,440 1441.4,439.9 1441.4,439.9 1441.4,439.8 1441.3,439.8 1441.3,439.7 1441.2,439.7 
						1441.2,439.6 1441.1,439.6 1441.1,439.5 1441,439.5 1441,439.4 1440.9,439.4 1440.9,439.3 1440.8,439.3 1440.8,439.3 
						1440.8,439.3 1440.8,439.2 1440.7,439.2 1440.7,439.1 1440.6,439.1 1440.6,439 1440.5,439 1440.5,438.9 1440.4,438.9 
						1440.4,438.8 1440.3,438.8 1440.3,438.7 1440.2,438.7 1440.2,438.7 1440.1,438.7 1440.1,438.6 1440.1,438.6 1440.1,438.5 
						1440,438.5 1440,438.4 1439.9,438.4 1439.9,438.3 1439.8,438.3 1439.8,438.2 1439.7,438.2 1439.7,438.1 1439.6,438.1 
						1439.6,438 1439.5,438 1439.5,438 1439.5,438 1439.5,437.9 1439.4,437.9 1439.4,437.8 1439.3,437.8 1439.3,437.7 1439.2,437.7 
						1439.2,437.6 1439.1,437.6 1439.1,437.5 1439,437.5 1439,437.4 1438.9,437.4 1438.9,437.4 1438.8,437.4 1438.8,437.3 
						1438.8,437.3 1438.8,437.2 1438.7,437.2 1438.7,437.1 1438.6,437.1 1438.6,437 1438.5,437 1438.5,436.9 1438.4,436.9 
						1438.4,436.8 1438.3,436.8 1438.3,436.7 1438.2,436.7 1438.2,436.7 1438.2,436.7 1438.2,436.6 1438.1,436.6 1438.1,436.5 
						1438,436.5 1438,436.4 1437.9,436.4 1437.9,436.3 1437.8,436.3 1437.8,436.2 1437.7,436.2 1437.7,436.1 1437.6,436.1 
						1437.6,436.1 1437.5,436.1 1437.5,436 1437.5,436 1437.5,435.9 1437.4,435.9 1437.4,435.8 1437.3,435.8 1437.3,435.7 
						1437.2,435.7 1437.2,435.6 1437.1,435.6 1437.1,435.5 1437,435.5 1437,435.4 1436.9,435.4 1436.9,435.4 1436.9,435.4 
						1436.9,435.3 1436.8,435.3 1436.8,435.2 1436.7,435.2 1436.7,435.1 1436.6,435.1 1436.6,435 1436.5,435 1436.5,434.9 
						1436.4,434.9 1436.4,434.8 1436.3,434.8 1436.3,434.8 1436.2,434.8 1436.2,434.7 1436.2,434.7 1436.2,434.6 1436.1,434.6 
						1436.1,434.5 1436,434.5 1436,434.4 1435.9,434.4 1435.9,434.3 1435.8,434.3 1435.8,434.2 1435.7,434.2 1435.7,434.1 
						1435.6,434.1 1435.6,434.1 1435.6,434.1 1435.6,434 1435.5,434 1435.5,433.9 1435.4,433.9 1435.4,433.8 1435.3,433.8 
						1435.3,433.7 1435.2,433.7 1435.2,433.6 1435.1,433.6 1435.1,433.5 1435,433.5 1435,433.5 1434.9,433.5 1434.9,433.4 
						1434.9,433.4 1434.9,433.3 1434.8,433.3 1434.8,433.2 1434.7,433.2 1434.7,433.1 1434.6,433.1 1434.6,433 1434.5,433 
						1434.5,432.9 1434.4,432.9 1434.4,432.8 1434.3,432.8 1434.3,432.8 1434.3,432.8 1434.3,432.7 1434.2,432.7 1434.2,432.6 
						1434.1,432.6 1434.1,432.5 1434,432.5 1434,432.4 1433.9,432.4 1433.9,432.3 1433.8,432.3 1433.8,432.2 1433.7,432.2 
						1433.7,432.2 1433.6,432.2 1433.6,432.1 1433.6,432.1 1433.6,432 1433.5,432 1433.5,431.9 1433.4,431.9 1433.4,431.8 
						1433.3,431.8 1433.3,431.7 1433.2,431.7 1433.2,431.6 1433.1,431.6 1433.1,431.6 1674.3,431.6 1674.3,356.8 1674.4,356.8 
						1674.4,356.9 1674.5,356.9 1674.5,357 1674.6,357 1674.6,357.1 1674.7,357.1 1674.7,357.2 1674.7,357.2 1674.7,357.3 
						1674.8,357.3 1674.8,357.3 1674.9,357.3 1674.9,357.4 1675,357.4 1675,357.5 1675.1,357.5 1675.1,357.6 1675.2,357.6 
						1675.2,357.7 1675.3,357.7 1675.3,357.8 1675.3,357.8 1675.3,357.9 1675.4,357.9 1675.4,357.9 1675.5,357.9 1675.5,358 
						1675.6,358 1675.6,358.1 1675.7,358.1 1675.7,358.2 1675.8,358.2 1675.8,358.3 1675.9,358.3 1675.9,358.4 1676,358.4 
						1676,358.5 1676,358.5 1676,358.5 1676.1,358.5 1676.1,358.6 1676.2,358.6 1676.2,358.7 1676.3,358.7 1676.3,358.8 
						1676.4,358.8 1676.4,358.9 1676.5,358.9 1676.5,359 1676.6,359 1676.6,359.1 1676.6,359.1 1676.6,359.2 1676.7,359.2 
						1676.7,359.2 1676.8,359.2 1676.8,359.3 1676.9,359.3 1676.9,359.4 1677,359.4 1677,359.5 1677.1,359.5 1677.1,359.6 
						1677.2,359.6 1677.2,359.7 1677.3,359.7 1677.3,359.8 1677.3,359.8 1677.3,359.8 1677.4,359.8 1677.4,359.9 1677.5,359.9 
						1677.5,360 1677.6,360 1677.6,360.1 1677.7,360.1 1677.7,360.2 1677.8,360.2 1677.8,360.3 1677.9,360.3 1677.9,360.4 
						1677.9,360.4 1677.9,360.5 1678,360.5 1678,360.5 1678.1,360.5 1678.1,360.6 1678.2,360.6 1678.2,360.7 1678.3,360.7 
						1678.3,360.8 1678.4,360.8 1678.4,360.9 1678.5,360.9 1678.5,361 1678.6,361 1678.6,361.1 1678.6,361.1 1678.6,361.1 
						1678.7,361.1 1678.7,361.2 1678.8,361.2 1678.8,361.3 1678.9,361.3 1678.9,361.4 1679,361.4 1679,361.5 1679.1,361.5 
						1679.1,361.6 1679.2,361.6 1679.2,361.7 1679.2,361.7 1679.2,361.7 1679.3,361.7 1679.3,361.8 1679.4,361.8 1679.4,361.9 
						1679.5,361.9 1679.5,362 1679.6,362 1679.6,362.1 1679.7,362.1 1679.7,362.2 1679.8,362.2 1679.8,362.3 1679.9,362.3 
						1679.9,362.3 1679.9,362.3 1679.9,362.4 1680,362.4 1680,362.5 1680.1,362.5 1680.1,362.6 1680.2,362.6 1680.2,362.7 
						1680.3,362.7 1680.3,362.8 1680.4,362.8 1680.4,362.9 1680.5,362.9 1680.5,363 1680.5,363 1680.5,363 1680.6,363 1680.6,363.1 
						1680.7,363.1 1680.7,363.2 1680.8,363.2 1680.8,363.3 1680.9,363.3 1680.9,363.4 1681,363.4 1681,363.5 1681.1,363.5 
						1681.1,363.6 1681.2,363.6 1681.2,363.6 1681.2,363.6 1681.2,363.7 1681.3,363.7 1681.3,363.8 1681.4,363.8 1681.4,363.9 
						1681.5,363.9 1681.5,364 1681.6,364 1681.6,364.1 1681.7,364.1 1681.7,364.2 1681.8,364.2 1681.8,364.3 1681.8,364.3 
						1681.8,364.3 1681.9,364.3 1681.9,364.4 1682,364.4 1682,364.5 1682.1,364.5 1682.1,364.6 1682.2,364.6 1682.2,364.7 
						1682.3,364.7 1682.3,364.8 1682.4,364.8 1682.4,364.9 1682.5,364.9 1682.5,364.9 1682.5,364.9 1682.5,365 1682.6,365 
						1682.6,365.1 1682.7,365.1 1682.7,365.2 1682.8,365.2 1682.8,365.3 1682.9,365.3 1682.9,365.4 1683,365.4 1683,365.5 					"/>
				</g>
				<polygon class="st4" points="1674.3,356.7 1674.3,431.6 1433,431.6 1433,123.5 1527.1,123.5 1527.1,356.7 				"/>
			</g>
		</g>
	</g>
</g>
</svg>
