<?xml version="1.0" encoding="utf-8"?>
<!-- Generator: Adobe Illustrator 24.0.2, SVG Export Plug-In . SVG Version: 6.00 Build 0)  -->
<svg version="1.1" id="Capa_1" xmlns="http://www.w3.org/2000/svg" xmlns:xlink="http://www.w3.org/1999/xlink" x="0px" y="0px"
	 viewBox="0 0 1800 637" style="enable-background:new 0 0 1800 637;" xml:space="preserve">
<style type="text/css">
	.st0{fill:#1259A2;}
</style>
<g>
	<path class="st0" d="M1448.2,420.6c0.5,0.2,0.9,0.4,1.4,0.7c12.1,7.6,24.6,14.7,38.6,17.8c7.3,1.6,14.7,2.5,22.2,2.2
		c12.3-0.5,23.2-4,32-12.3c9.2-8.6,8.7-23.1,3.3-31.1c-1.9-2.8-4.6-4.9-7.5-6.9c-6.5-4.4-12.7-9.6-20.1-12.4
		c-10.8-3.9-19.6-8.8-30.3-12.9c-7.2-2.7-13.9-6.3-19.8-11c-10.6-8.5-16.3-19.3-16.8-32.4c-0.4-9.3-0.6-17.1,4.6-25.2
		c4.9-7.7,11.8-13.4,19.9-18c9.6-5.4,20.1-8.4,31.2-9.9c8.7-1.2,17.5,0.6,26.2,1.1c9.6,0.5,19,2.1,28.2,4.3c1.2,0.3,1.7,0.8,1.7,2
		c0,10.2,0,18.4,0,28.6c0,0.2,0.1,0.5-0.4,0.7c-0.8-0.1-1.4-0.8-2.1-1.2c-4.1-2.8-8.3-5.5-12.7-7.9c-9-5.1-18.8-6.9-29.2-6.8
		c-7.3,0.1-14.5,1.1-21.2,4.1c-7,3.1-9.7,7.4-12.4,14.4c-3.7,9.4-1.8,18.7,6.5,25.5c4.5,3.7,9.7,6.5,15.1,8.9
		c10.6,4.7,18.6,8.6,29.5,12.8c9.5,3.7,15.8,7.7,24.2,13.3c8.8,6,15.5,13.5,17.7,23.6c4.7,21.6-1.6,39.8-20.4,53.6
		c-9.9,7.3-18.3,11.5-30.6,13.9c-12.8,2.5-25.8,2.6-38.7,1.7c-6.2-0.5-12.4-1.3-18.5-2.5c-4-0.8-7.7-2.3-11.5-3.4
		c-1.4-0.4-1.5-1.5-1.8-2.5c-2.9-9.9-5.7-19.8-8.6-29.7c-0.2-0.8-0.4-1.6-0.6-2.4c-0.2-0.4-0.2-0.8,0.1-1.1c0.2,0,0.3,0.1,0.5,0.2
		C1447.9,420.3,1448.1,420.5,1448.2,420.6z"/>
	<path class="st0" d="M1434.2,423.2c-0.7,0.5-1.4,0.9-2,1.4c-4,2.9-8.2,3.5-12.4,6.1c-6.9,4.2-14.4,6.1-22.5,6.5
		c-6.4,0.3-12.9,0.1-19.3,0.2c-9.7,0.2-19.3-1-28.9-2.4c-2.7-0.4-2.7-0.4-2.7-3.1c0-21,0-39.9,0-60.9c0-0.5,0-1,0-1.4
		c-0.1-1.1,0.4-1.6,1.6-1.5c8.3,0.2,23.7-0.3,32.1,0.5c7.1,0.7,8.3,3.1,12.9,8.5c0.3,0.4,0.5,1.1,1.4,0.7c0-7.6,0-16.7,0-24.8l0-7.7
		c0,0-1.6,1.6-4.5,2.5c-0.3,0-0.5,0-0.7,0c-13.5,0-27.1,0-40.6,0c-2.1,0-2.2,2-2.2,0.1c0-16.6,0-33.1,0-49.7c0-1.8,0.1-1.9,2-1.9
		c13.1,0,26.2,0,39.4,0c7.1,0,13.8,0.7,18.1,6.1c1.1,1.3,2.1,2.7,3.1,4c0.4,0.5,0.7,1,1.1,1.4c0.5-0.4,0.4-0.7,0.4-1
		c0-10.6,0-19.3,0-29.9c0-1.8,0-2.9-2.2-2.9c-32.3,0-65.7,0-98,0c-0.5,0-1.2-0.3-1.5,0.5c2,2.4,4.1,5.8,6.1,8.2
		c2,2.4,3.3,5.2,3.6,8.3c0.2,1.7,0.2,3.4,0.2,5c0,47.4,0,94.9,0.1,142.3c0,4.6-1.3,8.6-4.2,12.3c-1.8,2.3-3.8,4.3-6.2,5.9
		c-0.6,0.5-1.3,0.9-1.9,1.4c0.5,0.5,0.9,0.3,1.3,0.3c37.5,0,75.1,0,112.6,0c1.6,0,2.1-0.6,2.6-1.9c3.6-10.5,7.4-20.9,11-31.3
		C1434.1,424.5,1434.6,424,1434.2,423.2z"/>
	<path class="st0" d="M1281.3,343.6c-3-15.3-10-28.6-21.2-39.4c-14.5-14-29.8-23.7-49.5-27.7c-12.2-2.5-26.6-2.1-39-2.2
		c-20.5-0.2-37,0-57.4,0c-0.6,0-1.2-0.3-1.8,0.5c2.1,2.1,4.2,4.1,6.3,6.2c3.7,3.7,5.3,8.3,5.3,13.5c0,11.2-0.2,22.3-0.3,33.5
		c-0.2,23.2-0.1,46.4-0.5,69.6c-0.2,12.9-0.2,25.9-0.2,38.8c0,2.2-0.2,4.3-0.5,6.5c-0.6,3.2-1.6,6.2-3.7,8.8
		c-1.8,2.3-3.8,4.3-5.8,6.6c0.9,0,1.7,0,2.6,0c20.4,0,36.8,0,57.2,0c3.8,0,7.7-0.1,11.5-0.3c9.8-0.5,19.6-1.4,29.2-3.6
		c30-6.7,50.5-24.8,62.4-52.9C1283.9,382.9,1285.1,363.4,1281.3,343.6z M1247.3,396.1c-6.7,18.3-19.1,30.4-36.7,36.7
		c-7.7,2.8-15.7,4.2-23.8,4.9c-8,0.7-16.1,0.6-24.1-0.1c-3.3-0.3-6.6-0.9-9.9-1.4c-1.1-0.2-1.4-0.7-1.3-1.8c0-0.6,0-1.1,0-1.7
		c0-22.1,0-44.2,0-66.2c0-22.2,0-44.3,0-66.5c0-2.8,0-3.8,2.6-4.3c5.5-1.1,11.1-2.7,16.7-2.7c10.6-0.1,21.1-0.2,31.4,2.5
		c10.4,2.7,20.2,7,28.7,14c11.3,9.3,18.1,24.6,20.8,39.3C1254.5,364.9,1252.9,380.7,1247.3,396.1z"/>
	<path class="st0" d="M951.1,457.7c-16.2,0-31.8,0-47.4,0c-0.2-0.8,0.6-0.9,1-1.2c1.9-1.3,3.7-2.7,5.3-4.4c3.7-4.1,5.4-8.7,5.4-14.2
		c-0.1-48.3-0.1-96.6,0-144.9c0-4.3-1.4-8-4-11.3c-1.8-2.3-3.9-4.5-6-6.8c0.7-0.4,1.4-0.3,2-0.3c9.4,0,21.7,0,31.1,0
		c1.7,0,2.7,0.5,3.7,1.7c14.3,17.5,28.7,35,43.1,52.5c21.3,25.9,39.5,51.8,60.8,77.7c1.2,1.4,2.4,2.9,3.7,4.4
		c0.8-0.9,0.5-1.8,0.5-2.6c0-13.8,0-27.5,0-41.3c0-24.2-0.1-48.3,0.1-72.5c0-6-1.9-11.1-6.2-15.4c-1.3-1.4-2.6-2.8-4.2-4.4
		c14.5,0,28.5,0,42.5,0c0.3,0.7-0.4,1-0.7,1.4c-1.6,1.8-3.2,3.7-4.6,5.6c-2.6,3.5-3.8,7.4-3.9,11.7c0,0.7,0,1.4,0,2.2
		c0,55.4,0,110.9,0,166.3c0,1,0,3.9,0,4.8c-0.8,0.6-1.4-2-1.9-2.2c-6.4-3.1-12.4-4.7-18-9.1c-11.5-8.9-20.9-21.6-30-32.6
		c-20.2-24.5-40.5-49.1-60.7-73.6c-7.5-9.1-15.1-18.3-22.6-27.4c-0.4-0.5-0.8-1-1.3-1.5c-0.8,0.4-0.5,1-0.5,1.5
		c0,39.4,0,78.7,0,118.1c0,5.4,2.3,9.7,6.5,13.2C946.8,454.5,948.7,455.9,951.1,457.7z"/>
	<path class="st0" d="M883.2,452.8c-5.3-3.7-9.7-8.2-12.1-14.2c-14.7-36.3-29.2-72.6-43.9-108.9c-7-17.5-14.1-35-21.1-52.5
		c-1.1-2.6-0.7-2.3-3.2-2.3c-12,0-24,0-36,0c-0.7,0-1.4-0.3-2,0.3c0,0.8,0.5,1.2,0.8,1.7c1.3,2,2.4,4,3.5,6c1.3,2.7,1.8,5.4,1.1,8.4
		c-0.4,1.8-1.1,3.5-1.8,5.2c-19.5,47.2-38.9,94.4-58.4,141.6c-0.3,0.7-0.6,1.5-1,2.2c-5.3,8.2-7.3,10.1-15.9,15.2
		c-0.9,0.5-1.8,1-2.7,1.6c-0.4,0.3-1.1,0.3-1,1c17.2,0,34.3,0,51.9,0c-1.5-1.3-2.7-2.4-3.9-3.6c-4.2-4.3-5.6-9.4-3.5-15
		c6.4-17,13.1-34,19.6-51c0.5-1.3,1.1-1.8,2.6-1.8c21.2,0.1,42.4,0,63.6,0c1.9,0,2,0,2.7,1.9c3.4,8.8,6.8,17.6,10.1,26.4
		c3.1,8.1,6.2,16.3,9.4,24.4c2.1,5.4,1.1,10.2-2.9,14.3c-1.1,1.2-2.4,2.1-3.6,3.1c-0.4,0.3-1.1,0.4-1,1.2c7,0.5,55.7,0.3,57.4-0.3
		C888.9,456.1,885.9,454.7,883.2,452.8z M761.3,367.9c0.1-1.7,24.5-65.7,26.3-68.8c8.7,23,17.3,45.8,26,68.8
		C795.9,367.9,778.6,367.9,761.3,367.9z"/>
	<path class="st0" d="M624.6,458.1c0.1-0.9,0.7-1,1.1-1.4c1.3-1.1,2.7-2.2,4.1-3.3c4.9-4.2,6.9-9.7,6.9-15.9
		c0.1-37.3,0-74.5,0-111.8c0-10.8-0.1-21.6,0-32.4c0-3.9-1.2-7.4-3.4-10.5c-1.9-2.7-4.1-5.1-6.3-7.5c1.8-0.5,42.5-0.6,46.7-0.2
		c-1.1,1.2-2,2.2-3,3.2c-4.9,4.9-7.1,10.7-7.1,17.7c0.1,47.3,0,94.7,0,142c0,6.4,2.3,11.8,7.6,15.7c1.8,1.3,3.6,2.6,5.4,4
		C675,458.4,635.8,458.6,624.6,458.1z"/>
	<path class="st0" d="M463.9,458.1c-16.2,0-31.8,0-47.4,0c-0.2-0.8,0.6-0.9,1-1.2c1.9-1.3,3.7-2.7,5.3-4.4c3.7-4.1,5.4-8.7,5.4-14.2
		c-0.1-48.3-0.1-96.6,0-144.9c0-4.3-1.4-8-4-11.3c-1.8-2.3-3.9-4.5-6-6.8c0.7-0.4,1.4-0.3,2-0.3c9.4,0,21.7,0,31.1,0
		c1.7,0,2.7,0.5,3.7,1.7c14.3,17.5,28.7,35,43.1,52.5c21.3,25.9,39.5,51.8,60.8,77.7c1.2,1.4,2.4,2.9,3.7,4.4
		c0.8-0.9,0.5-1.8,0.5-2.6c0-13.8,0-27.5,0-41.3c0-24.2-0.1-48.3,0.1-72.5c0-6-1.9-11.1-6.2-15.4c-1.3-1.4-2.6-2.8-4.2-4.4
		c14.5,0,28.5,0,42.5,0c0.3,0.7-0.4,1-0.7,1.4c-1.6,1.8-3.2,3.7-4.6,5.6c-2.6,3.5-3.8,7.4-3.9,11.7c0,0.7,0,1.4,0,2.2
		c0,55.4,0,110.9,0,166.3c0,1,0,3.9,0,4.8c-0.8,0.6-1.4-2-1.9-2.2c-6.4-3.1-12.4-4.7-18-9.1c-11.5-8.9-20.9-21.6-30-32.6
		c-20.2-24.5-40.5-49.1-60.7-73.6c-7.5-9.1-15.1-18.3-22.6-27.4c-0.4-0.5-0.8-1-1.3-1.5c-0.8,0.4-0.5,1-0.5,1.5
		c0,39.4,0,78.7,0,118.1c0,5.4,2.3,9.7,6.5,13.2C459.5,454.9,461.5,456.3,463.9,458.1z"/>
	<path class="st0" d="M342,275c15.5,0,30.6,0,45.7,0c0.2,0.8-0.6,1.1-1,1.4c-2,1.9-4,3.8-5.6,6.1c-2.4,3.3-3.6,7-3.8,11.1
		c0,0.6,0,1.3,0,1.9c0,47.4,0,94.7,0,142.1c0,1.4,0,2.9,0.2,4.3c0.4,3.8,1.9,7,4.7,9.7c2.3,2.2,4.7,4.1,7.1,6.1
		c-0.4,0.8-1,0.4-1.5,0.4c-11.5,0-23,0-34.5,0c-0.2,0-0.5,0-0.7,0c-1.1,0.1-1.5-0.3-1.5-1.5c0.1-3,0-6.1,0-9.1c0-1.2,0-2.4,0-3.5
		c-0.8-0.2-1.1,0.4-1.5,0.7c-9.2,8.5-20.2,13.3-32.2,15.8c-8.7,1.8-17.5,2.3-26.4,1.8c-12.2-0.7-23.7-3.6-34.5-9.7
		c-8.4-4.7-14.9-11.4-19.7-19.9c-3.1-5.5-4.4-11.5-4.9-17.8c-0.6-7.3-0.6-14.7-0.7-22c0-32.4-0.1-64.8,0-97.2c0-7.3-2.5-13.2-7.8-18
		c-0.9-0.8-1.8-1.7-3-2.8c16.3,0,32.1,0,48.1,0c-0.2,0.9-0.8,1.2-1.3,1.7c-3.1,3-5.8,6.2-7.5,10.3c-1.2,2.7-1.6,5.5-1.6,8.4
		c0,33.7,0,67.4,0,101c0,6.4,0.7,12.7,2.7,18.9c1.8,5.5,4.9,10,9.2,13.5c6.7,5.5,14.4,8.8,22.7,10.4c10.4,1.9,20.7,1.8,30.8-1.6
		c15.2-5.1,23.8-16.1,26.6-32.1c0.7-4,0.9-8.1,0.9-12.2c0-32.5-0.1-65,0-97.4c0-7-2.2-12.8-6.6-17.9
		C343.9,277.1,343.1,276.2,342,275z"/>
	<g>
		<g>
			<path class="st0" d="M1533.7,170c4.9,0,9.4,0.7,13.4,2c4,1.3,7.5,3.2,10.3,5.7c2.9,2.5,5.1,5.6,6.7,9.2c1.6,3.6,2.4,7.8,2.4,12.4
				c0,4.5-0.8,8.5-2.4,12.1c-1.6,3.6-3.8,6.7-6.7,9.2c-2.9,2.5-6.4,4.5-10.4,5.9c-4,1.4-8.5,2.1-13.3,2.1h-21.5V170H1533.7z
				 M1518.4,224.3h15.1c3.8,0,7.4-0.5,10.7-1.6c3.3-1.1,7.1-3.6,9.5-5.7c2.4-2.1,4.3-4.6,5.6-7.5c1.4-3,2-6.4,2-10.2
				c0-3.8-0.7-7.3-2-10.3c-1.3-3-4.1-6.5-6.5-8.5c-2.4-2-5.2-3.6-8.5-4.6c-3.3-1.1-6.9-1.6-10.9-1.6h-15.1V224.3z"/>
			<path class="st0" d="M1400.7,169.9l27.1,58.7h-6.4l-6.9-15.6h-32.6l-7,15.6h-6.4l27.3-58.7H1400.7z M1384.1,207.8h28l-14-31.1
				L1384.1,207.8z"/>
			<path class="st0" d="M1258.6,170c4.9,0,9.4,0.7,13.4,2c4,1.3,7.5,3.2,10.3,5.7c2.9,2.5,5.1,5.6,6.7,9.2c1.6,3.6,2.4,7.8,2.4,12.4
				c0,4.5-0.8,8.5-2.4,12.1c-1.6,3.6-3.8,6.7-6.7,9.2c-2.9,2.5-6.4,4.5-10.4,5.9c-4,1.4-8.5,2.1-13.3,2.1h-21.5V170H1258.6z
				 M1243.2,224.3h15.1c3.8,0,7.4-0.5,10.7-1.6c3.3-1.1,7.1-3.6,9.5-5.7c2.4-2.1,4.3-4.6,5.6-7.5c1.4-3,2-6.4,2-10.2
				c0-3.8-0.7-7.3-2-10.3c-1.3-3-4.1-6.5-6.5-8.5c-2.4-2-5.2-3.6-8.5-4.6c-3.3-1.1-6.9-1.6-10.9-1.6h-15.1V224.3z"/>
			<path class="st0" d="M1143.7,170v58.5h-5.8V170H1143.7z"/>
			<path class="st0" d="M1006.6,220.6l2.6-4.1c4.8,4.2,11.8,6.8,18.2,6.8c9.9,0,16.2-4,16.2-10.1c0-6.4-6.7-9.3-16.1-11.8l-4.2-1.1
				c-8.7-2.2-16.1-5.8-16.1-14.7c0-9.3,8.5-15.5,21.3-15.5c8.4,0,13.5,1.4,18.3,5.5l-3,4c-4.4-3.7-8.7-4.8-15.4-4.8
				c-8.7,0-14.5,4-14.5,9.8c0,6.3,5.9,8.5,12.7,10.3l4.3,1.1c9,2.4,19.5,6.4,19.5,16.4c0,9.3-9,15.5-22.4,15.5
				C1019.9,228.2,1011.3,225.1,1006.6,220.6z"/>
			<path class="st0" d="M899.5,170c3.5,0,6.6,0.5,9.2,1.4s4.9,2.3,6.8,3.9c1.8,1.7,3.2,3.7,4.2,6c1,2.3,1.4,4.8,1.4,7.6
				c0,4.4-1.2,9.2-3.6,12.4c-2.4,3.2-5.8,5.4-10.3,6.6l15.4,20.6h-7.1l-14.5-19.7c-0.3,0.1-0.5-0.9-0.7-1c-0.2,0-0.4,1-0.7,1h-18.4
				v19.7h-5.8V170H899.5z M881.3,203.7h17.9c5.1,0,9.1-1.2,11.9-3.7c2.8-2.4,4.3-6.8,4.3-11c0-4.2-1.4-7.5-4.2-10
				c-2.8-2.5-6.8-3.7-12-3.7h-17.9V203.7z"/>
			<path class="st0" d="M785.8,170v5.2h-34v20.8h31v5.1h-31v22.1h35.5v5.2h-41V170H785.8z"/>
			<path class="st0" d="M612.5,170l21.7,51.8L656,170h6.4l-25.4,58.7h-5.5L606,170H612.5z"/>
			<path class="st0" d="M522,170v58.5h-5.8V170H522z"/>
			<path class="st0" d="M422.3,170v58.5h-5l-37.5-49.3v49.3h-5.4V170h5l37.5,49.3V170H422.3z"/>
			<path class="st0" d="M238.5,170v31.3c0,7.2,1.6,12.8,4.9,16.9c3.3,4.1,8.1,6.1,14.3,6.1c6.1,0,10.9-2,14.2-6c3.3-4,5-9.7,5-17
				V170h5.5v31.3c0,4.5-0.5,8.5-1.6,11.9c-1.1,3.5-2.7,6.4-4.8,8.9c-2.1,2.4-4.7,4.3-7.8,5.5c-3.1,1.3-6.5,1.9-10.4,1.9
				c-7.9,0-14-2.4-18.3-7.3c-4.3-4.9-6.5-11.8-6.5-20.9V170H238.5z"/>
		</g>
	</g>
</g>
</svg>
