<?xml version="1.0" encoding="utf-8"?>
<!-- Generator: Adobe Illustrator 24.0.2, SVG Export Plug-In . SVG Version: 6.00 Build 0)  -->
<svg version="1.1" id="Capa_1" xmlns="http://www.w3.org/2000/svg" xmlns:xlink="http://www.w3.org/1999/xlink" x="0px" y="0px"
	 viewBox="0 0 1800 1324.5" style="enable-background:new 0 0 1800 1324.5;" xml:space="preserve">
<style type="text/css">
	.st0{fill:#8587C2;}
</style>
<g>
	<path class="st0" d="M401,696.3h-74.7v195.6c0,27.8-6.9,49.2-20.7,64.3c-13.8,15.1-32.2,22.6-55.3,22.6c-22.2,0-40.1-7.4-53.8-22.1
		c-13.7-14.7-20.5-34.3-20.5-58.8V696.3h-74.9v199.6c0,50.2,13.1,88.7,39.4,115.5c26.3,26.8,63.1,40.2,110.6,40.2
		c48.1,0,85.1-13.2,110.9-39.7C388,985.4,401,946.6,401,895.4V696.3z"/>
	<polygon class="st0" points="570.3,822.3 735.8,1047 798.9,1047 798.9,696.3 724.2,696.3 724.2,910.7 564.1,696.3 495.6,696.3 
		495.6,1047 570.3,1047 	"/>
	<rect x="898.3" y="696.3" class="st0" width="74.7" height="350.8"/>
	<polygon class="st0" points="1342.1,696.3 1050.3,696.3 1050.3,760.5 1158.9,760.5 1158.9,1047 1233.5,1047 1233.5,760.5 
		1342.1,760.5 	"/>
	<polygon class="st0" points="1608.6,696.3 1539.2,806.5 1470,696.3 1379.5,696.3 1501.8,883.3 1501.8,1047 1576.5,1047 
		1576.5,883.4 1698.8,696.3 	"/>
	<path class="st0" d="M438.7,1216.1c-4.5-2.3-10.8-4.7-19.1-7.3c-9.7-3-16.1-5.5-19.4-7.7s-4.9-5-4.9-8.6c0-3.3,1.4-6.2,4.3-8.7
		c2.9-2.5,7-3.8,12.3-3.8c5.7,0,10.2,1.2,13.5,3.7c3.3,2.5,6,6.3,8,11.5l17.2-4.8c-5.5-15.8-18.1-23.7-37.9-23.7
		c-11.2,0-20.1,2.7-26.9,8c-6.7,5.3-10.1,11.9-10.1,19.7c0,5.1,1.5,9.7,4.5,13.7c3,4,6.7,7.1,11,9.1c4.3,2.1,11.3,4.6,21.1,7.5
		c9.2,2.8,15,5.5,17.3,8c2.3,2.5,3.5,5.2,3.5,8.1c0,4-1.7,7.3-5,10c-3.4,2.7-8.3,4.1-14.7,4.1c-13.2,0-21.4-6-24.6-18.1l-18,4.1
		c5.3,18.3,19.2,27.5,41.7,27.5c13,0,23.1-2.9,30.3-8.7c7.2-5.8,10.8-12.8,10.8-21.1c0-5.1-1.4-9.5-4.1-13.4
		C446.8,1221.5,443.2,1218.4,438.7,1216.1z"/>
	<polygon class="st0" points="548.7,1182.4 575.7,1182.4 575.7,1266.7 595.9,1266.7 595.9,1182.4 623,1182.4 623,1168.6 
		548.7,1168.6 	"/>
	<path class="st0" d="M761.6,1166.8c-14.3,0-25.1,4.3-32.6,12.9c-7.5,8.6-11.2,21.2-11.2,37.9c0,16.8,3.8,29.5,11.3,38.1
		c7.5,8.6,18.4,12.8,32.6,12.8c14.1,0,24.9-4.3,32.3-12.9c7.4-8.6,11.1-21.2,11.1-38c0-16.8-3.7-29.4-11.2-38
		C786.4,1171.1,775.6,1166.8,761.6,1166.8z M778.9,1245.3c-3.4,6.6-9.1,9.9-17.3,9.9c-8.7,0-14.6-3.4-17.9-10.2
		c-3.3-6.8-4.9-15.9-4.9-27.3c0-11.6,1.7-20.8,5-27.5c3.3-6.7,9.2-10.1,17.6-10.1c8.4,0,14.2,3.3,17.6,10c3.4,6.7,5,15.9,5,27.5
		C784,1229.5,782.3,1238.7,778.9,1245.3z"/>
	<path class="st0" d="M989.2,1196.7c0-9.1-3.2-16-9.4-20.8c-6.3-4.8-16.1-7.3-29.3-7.3h-36.6v98.1H934v-41h19l18.9,41h21.8
		l-23.1-44.3C983,1217.4,989.2,1208.8,989.2,1196.7z M964.6,1208.6c-3.2,3.1-8.3,4.6-15.2,4.6H934v-32h15.6
		c13.2,0,19.9,5.1,19.9,15.4C969.4,1201.5,967.8,1205.5,964.6,1208.6z"/>
	<polygon class="st0" points="1119.7,1222.7 1158.6,1222.7 1158.6,1209.7 1119.7,1209.7 1119.7,1181.6 1169.3,1181.6 1169.3,1168.6 
		1099.6,1168.6 1099.6,1266.7 1170.1,1266.7 1170.1,1253.4 1119.7,1253.4 	"/>
	<path class="st0" d="M1333.5,1216.1c-4.5-2.3-10.8-4.7-19.1-7.3c-9.7-3-16.1-5.5-19.4-7.7c-3.2-2.1-4.9-5-4.9-8.6
		c0-3.3,1.4-6.2,4.3-8.7c2.9-2.5,7-3.8,12.3-3.8c5.7,0,10.2,1.2,13.5,3.7c3.3,2.5,6,6.3,8,11.5l17.2-4.8
		c-5.5-15.8-18.1-23.7-37.9-23.7c-11.2,0-20.1,2.7-26.9,8c-6.7,5.3-10.1,11.9-10.1,19.7c0,5.1,1.5,9.7,4.5,13.7c3,4,6.7,7.1,11,9.1
		c4.3,2.1,11.3,4.6,21.1,7.5c9.2,2.8,15,5.5,17.3,8c2.3,2.5,3.5,5.2,3.5,8.1c0,4-1.7,7.3-5,10c-3.4,2.7-8.3,4.1-14.7,4.1
		c-13.2,0-21.4-6-24.6-18.1l-18,4.1c5.3,18.3,19.2,27.5,41.7,27.5c13,0,23.1-2.9,30.3-8.7c7.2-5.8,10.8-12.8,10.8-21.1
		c0-5.1-1.4-9.5-4.1-13.4C1341.5,1221.5,1337.9,1218.4,1333.5,1216.1z"/>
	
		<ellipse transform="matrix(0.9732 -0.2298 0.2298 0.9732 -4.4064 177.8917)" class="st0" cx="761.7" cy="107.9" rx="51.9" ry="51.9"/>
	
		<ellipse transform="matrix(0.9732 -0.2298 0.2298 0.9732 -45.2671 182.6492)" class="st0" cx="761.7" cy="285.7" rx="51.9" ry="51.9"/>
	
		<ellipse transform="matrix(0.9571 -0.2898 0.2898 0.9571 13.3541 305.9246)" class="st0" cx="1039.7" cy="107.9" rx="51.9" ry="51.9"/>
	
		<ellipse transform="matrix(0.9239 -0.3827 0.3827 0.9239 -30.1937 419.6352)" class="st0" cx="1039.7" cy="285.7" rx="51.9" ry="51.9"/>
	
		<ellipse transform="matrix(0.9732 -0.2298 0.2298 0.9732 -70.6385 218.3563)" class="st0" cx="902.4" cy="412.5" rx="51.9" ry="51.9"/>
</g>
</svg>
