<?xml version="1.0" encoding="utf-8"?>
<!-- Generator: Adobe Illustrator 24.0.2, SVG Export Plug-In . SVG Version: 6.00 Build 0)  -->
<svg version="1.1" id="Capa_1" xmlns="http://www.w3.org/2000/svg" xmlns:xlink="http://www.w3.org/1999/xlink" x="0px" y="0px"
	 viewBox="0 0 1800 760.2" style="enable-background:new 0 0 1800 760.2;" xml:space="preserve">
<path d="M1574.5,48.5v4.4h55.8l-89.7,179l-89.7-179h55v-4.4h-181.8h-9h-300.3h-7.3H826.3h-20.1H694.4v4.4h64.2v232.6l-151.3-237
	h-137h-4.6H338.5v4.4h64.2v255.9c0,34-17,59.7-51,76.9c-5.6,2.9-10.1,4.8-13.6,5.7c-10.3,3.8-20.8,5.7-31.7,5.7
	c-20.2,0-36.8-5.9-49.7-17.6c-14.4-12.9-21.5-30.9-21.5-54.1V52.9h55v-4.4H101v4.4h63.8v255c0,30.5,12.6,54.7,37.8,72.6
	c12.6,8.9,26.6,15.3,42.2,19.3c-23.3,0.5-42.9,8.1-59,23c-16.7,15.3-25,34.8-25,58.3c0,16.9,4.5,32.1,13.4,45.5
	c9,13.4,21.4,23.5,37.3,30.4l72.6,31.3c10.8,4.7,19.1,11.8,25,21.3c5.9,9.6,8.8,19.8,8.8,30.5c0,14.2-4.2,26.3-12.7,36.1
	c-9.5,11-23.2,17.9-41.1,20.6c-4.9,0.7-10.9,1.1-18.1,1.1c-28.4,0-50.5-8.8-66.1-26.5c-13.1-15-22.3-37.3-27.7-67h-3.5v79.6v13.9
	v3.7h10.9h8.7h19.6h58c30.2,0,56.7-8.6,79.5-25.8c24.8-18.4,37.2-41.7,37.2-69.9c0-15.2-4.6-29.1-13.8-41.8
	c-9.2-12.6-21.1-22.1-35.7-28.5l-72.2-31.3C207,489.5,190,470.4,190,446.8c0-11,4.4-20.4,13.1-28c7.9-7.1,18-11.8,30.3-14
	c5.4-1,10.5-1.5,15.4-1.5c42.5,0.2,66.4,23.4,71.8,69.6h4.2v-72.9c4.8-1.2,9.5-2.5,14.1-4.2c20.5-7,37-18.1,49.5-33.2
	c12.5-15.1,18.7-33.2,18.7-54.3V52.9h58.7h4.6h58.7v343h-63.3v0.1H345.5v104.9h3.5c0-28.4,8.7-52.3,26.1-71.8
	c17.4-19.5,39.8-29.2,67.2-29.2h10.8v299.6h-55.7v3.8h172.8v-3.8h-55.7V400.3h21.1c22.8,2.2,41.7,11.7,56.7,28.7
	c17.3,19.5,25.9,43.4,25.9,71.8h3.8V396h-24.4v-0.1h-64.2V52.5l220.3,344.4c-8.4,0.4-16.3,1.5-23.7,3.3c-32.3,7.9-59,26.2-80.1,54.9
	c-21.1,28.7-31.7,61.7-31.7,99.1c0,41.7,13.3,78.1,39.9,109.1c27.7,32.3,61.8,48.4,102.6,48.4c10.5,0,20.5-1.1,30-3.5
	c32.3-7.9,59-26.2,80.3-54.9c21.3-28.7,31.9-61.7,31.9-99.1c0-41.7-13.2-78-39.6-108.7c-20.2-23.7-43.9-38.8-71-45.2h137.4v299.2
	h-55.7v3.8H1047v-3.8h-55.7V550.1h53.4c24.6,0,36.9,12.2,36.9,36.5v54.9c0,18.2,6.4,33.7,19.2,46.5c4.7,4.7,9.8,8.6,15.2,11.5
	c2.7,1.5,5.6,2.8,8.5,3.8h281.3V590.8h-3.8c0,30.2-10.6,55.9-31.7,77c-21.1,21.1-46.7,31.7-76.6,31.7h-33.8V551.6h8.8
	c15.9,0,29.1,5.3,39.6,15.9s15.7,22.9,15.7,36.7h3.1V494h-3.1c0,14.3-5.2,26.9-15.7,37.6c-10.5,10.8-23.7,16.1-39.6,16.1h-8.8V400.3
	h45.5c21.6,2,40.3,10.9,56.3,26.7c18.2,18.1,27.3,39.9,27.3,65.5h3.5V396h-11.4v-0.1H1201v-343h12.3c31.4,0,56.9,11.1,76.7,33.4
	c19.8,22.3,29.7,49.7,29.7,82.2h4.4V52.9h54.8l94.1,187.3v155.7c0,2.6,0,5.2-0.1,7.8c-8,3.8-15.4,9-22.1,15.6
	c-15.9,15.6-23.8,35.5-23.8,59.5c0,17.3,4.3,32.7,12.8,46.3c8.6,13.6,20.4,24,35.6,30.9l69.4,31.9c10.3,4.8,18.2,12,23.8,21.8
	c5.6,9.8,8.5,20.1,8.5,31.1c0,14.5-4,26.8-12.1,36.8c-9.1,11.3-22.1,18.3-39.3,21c-4.7,0.7-10.4,1.1-17.3,1.1
	c-27.2,0-48.2-9-63.1-27c-12.5-15.3-21.3-38-26.4-68.3h-3.3v95.3v3.8h92.8c28.9,0,54.2-8.7,76-26.3c23.7-18.8,35.6-42.5,35.6-71.3
	c0-15.5-4.4-29.7-13.2-42.6c-8.8-12.9-20.2-22.6-34.1-29.1l-69-31.9c-32.5-15-48.8-34.5-48.8-58.5c0-11.3,4.2-20.8,12.5-28.5
	c7.6-7.2,17.2-12,29-14.2c5.1-1,10-1.5,14.7-1.5c40.6,0.3,63.5,23.9,68.6,70.9h4v-70.9h-2.9c-2,4.8-6.4,7.1-13.2,7.1
	c-5.1,0-10-1-14.7-3c-3.1-1.3-6.3-2.5-9.5-3.5c0-1.4,0-2.9,0-4.3V236.3l91.9-183.4h63.8v-4.4H1574.5z M169.2,308v-255h61.6v272.6
	c0,21.1,5.9,38.4,17.6,51.9c10.6,12.3,24.6,19.9,42.2,22.9h-4.4c-32,0-58.9-7.8-80.9-23.3C181.2,360,169.2,337,169.2,308z
	 M1135,52.9h61.6v343H1135V52.9z M1011.9,52.9h2.9h71.8c-38.4,11.4-63.3,37.8-74.8,79.1V52.9z M940.3,52.9h67.2v115.6h4
	c0-32.5,10-59.9,29.9-82.2c19.9-22.3,45.6-33.4,77-33.4h12.3v343H1086h-19.1H940.3V52.9z M874.3,52.9h61.6v343h-61.6V52.9z
	 M604.7,52.9l153.9,241v102l-219-343H604.7z M823.4,433.6c4.1,10.2,7.2,27.9,9.2,53c1.5,20,2.3,42.5,2.3,67.6s-0.8,47.6-2.3,67.6
	c-2.1,25.1-5.1,42.8-9.2,53c-6.2,15.1-17.2,25-33,29.6c-8.2,2.3-18,3.5-29.6,3.5c-11.8,0-21.8-1.1-30-3.5
	c-16.1-4.3-27.3-14.2-33.4-29.6c-3.8-10-6.8-27.7-8.8-53c-1.5-20-2.3-42.5-2.3-67.6s0.8-47.6,2.3-67.6c2.1-25.4,5-43,8.8-53
	c6.2-15.4,17.3-25.2,33.4-29.6c8.2-2.3,18.3-3.5,30.3-3.5c11.3,0,21,1.1,29.2,3.5C806.3,408.6,817.3,418.5,823.4,433.6z
	 M869.9,395.9H763v-343h43.2h20.1h43.6V395.9z M1031.2,545.8h-39.9V400.3h31c20.5,1.5,34.5,7.4,41.9,17.6
	c6.9,9.7,10.4,28.3,10.4,55.7c0,6.7-0.8,18.4-2.3,35.4c-0.8,9.7-5,18.3-12.7,25.7C1052,542.1,1042.5,545.8,1031.2,545.8z
	 M1198.3,699.5h-28.5c-2,0.5-4,0.8-6.1,0.8c-2.3,0-4.4-0.3-6.3-0.8c-3.2-0.8-6-2.3-8.4-4.4c-4-3.5-5.9-8-5.9-13.6v-56.1
	c0-51-29.2-77.2-87.6-78.7l-1.9-0.4l8.1-0.4c22.8-4.1,40.8-13.1,54.2-26.9c13.3-13.8,20-29.3,20-46.5c0-21-8.3-38.5-25-52.6
	c-11.1-9.2-24.8-15.7-41-19.5h16.2h112.4V699.5z M1319.7,133.4c-11.1-42.5-36.1-69.3-74.8-80.5h70.1h4.6V133.4z M1512.5,395.9h-2.9
	c-0.8,0-1.6,0-2.3,0h-29.8V239.4l-94.1-186.4h62.9l92.8,185.1v157.9h-23.2C1514.7,395.9,1513.6,395.9,1512.5,395.9z"/>
</svg>
