<?xml version="1.0" encoding="utf-8"?>
<!-- Generator: Adobe Illustrator 24.0.2, SVG Export Plug-In . SVG Version: 6.00 Build 0)  -->
<svg version="1.1" id="Capa_1" xmlns="http://www.w3.org/2000/svg" xmlns:xlink="http://www.w3.org/1999/xlink" x="0px" y="0px"
	 viewBox="0 0 1800 926.2" style="enable-background:new 0 0 1800 926.2;" xml:space="preserve">
<style type="text/css">
	.st0{fill:#0E70BB;}
	.st1{fill:#3BA934;}
	.st2{fill:#1070B9;}
	.st3{fill:url(#SVGID_1_);}
	.st4{fill:url(#SVGID_2_);}
	.st5{fill:#A7CDEC;}
	.st6{fill:url(#SVGID_3_);}
	.st7{fill:url(#SVGID_4_);}
	.st8{fill:url(#SVGID_5_);}
	.st9{fill:url(#SVGID_6_);}
	.st10{fill:url(#SVGID_7_);}
	.st11{fill:url(#SVGID_8_);}
</style>
<g>
	<g>
		<path class="st0" d="M733.8,865.1c0,5.6-3.6,8.4-10.9,8.4h-37.6c-7.2,0-10.7-2.8-10.7-8.4v-83.3h17.7v79.9h23.8v-79.9h17.7V865.1z
			"/>
		<path class="st0" d="M808.8,873.5h-15.5L765,815.8c0.8,2.8,1.1,5,1.1,6.6v51.1h-17.2v-91.7h15.5l28.3,56.5c-0.8-2.8-1.1-5-1.1-6.6
			v-49.9h17.2V873.5z"/>
		<path class="st0" d="M839.9,873.5h-17.7v-91.7h17.7V873.5z"/>
		<path class="st0" d="M912,865.1c0,5.6-3.6,8.4-10.7,8.4h-35.6c-7.1,0-10.7-2.8-10.7-8.4v-21.9h17.7v18.7h21.6v-18l-35.5-26
			c-2.6-1.9-3.9-4.4-3.9-7.3v-20.4c0-5.6,3.6-8.4,10.7-8.4h35.6c7.2,0,10.7,2.8,10.7,8.3v20.5h-17.7v-17.3h-21.6v16.6l35.4,25.9
			c2.6,1.9,3.9,4.4,3.9,7.4V865.1z"/>
		<path class="st0" d="M983.4,873.5h-17.8v-41.1h-24v41.1h-17.7v-91.7h17.7v37.8h24v-37.8h17.8V873.5z"/>
		<path class="st0" d="M1057,865.1c0,5.6-3.6,8.4-10.7,8.4h-38.4c-7,0-10.5-2.8-10.5-8.4v-74.9c0-5.6,3.5-8.4,10.5-8.4h38.4
			c7.2,0,10.7,2.8,10.7,8.4V865.1z M1039.3,861.7v-68.1H1015v68.1H1039.3z"/>
		<path class="st0" d="M1120.1,873.5H1071v-91.7h48.6v12.1h-30.9v26.8h26.6v11.9h-26.6v28.8h31.4V873.5z"/>
		<path class="st0" d="M1188.7,865.1c0,5.6-3.6,8.4-10.7,8.4h-35.6c-7.1,0-10.7-2.8-10.7-8.4v-21.9h17.7v18.7h21.6v-18l-35.5-26
			c-2.6-1.9-3.9-4.4-3.9-7.3v-20.4c0-5.6,3.6-8.4,10.7-8.4h35.6c7.2,0,10.7,2.8,10.7,8.3v20.5h-17.7v-17.3h-21.6v16.6l35.4,25.9
			c2.6,1.9,3.9,4.4,3.9,7.4V865.1z"/>
	</g>
	<g>
		<g>
			<g>
				<path class="st1" d="M947.3,301.6c0,11.6-5.9,17.5-17.6,17.5h-60.7c-11.6,0-17.3-5.8-17.3-17.5V128h28.6v166.5h38.5V128h28.6
					V301.6z"/>
				<path class="st1" d="M1055.3,319h-25l-45.8-120.2c1.2,5.9,1.8,10.5,1.8,13.8V319h-27.8V128h25l45.8,117.8
					c-1.2-5.9-1.8-10.5-1.8-13.8V128h27.8V319z"/>
				<path class="st1" d="M1093.6,319H1065V128h28.6V319z"/>
				<path class="st1" d="M1204.3,128l-36.6,191.3h-28.4L1102.8,128h28.7l21.4,131c0.2,3.7,0.4,9.2,0.7,16.4
					c-0.1-3.7,0.2-9.2,0.7-16.4l21.5-131H1204.3z"/>
				<path class="st1" d="M1288.9,319h-79.2V128h78.5v25.3h-49.9V209h43v24.8h-43v59.9h50.7V319z"/>
				<path class="st1" d="M1399.5,319h-29.8l-31.5-88.7v-17.2h28.1v-60.5h-36V319h-28.6V128h75.8c11.5,0,17.2,5.9,17.2,17.6V215
					c0,8.1-2.7,13.3-8.2,15.6c-2.9,1.2-9.1,1.8-18.6,1.8L1399.5,319z"/>
				<path class="st1" d="M1506.7,301.6c0,11.6-5.8,17.5-17.3,17.5h-57.5c-11.5,0-17.2-5.8-17.2-17.5V256h28.6V295h34.9v-37.5
					l-57.3-54.2c-4.2-4-6.2-9.1-6.2-15.3v-42.5c0-11.7,5.7-17.6,17.2-17.6h57.5c11.6,0,17.3,5.8,17.3,17.3V188h-28.6v-36h-34.9v34.5
					l57.3,54c4.2,3.9,6.2,9.1,6.2,15.5V301.6z"/>
				<path class="st1" d="M1624.5,319h-28.3l-5.7-36.3h-35.8l-5.7,36.3h-28.2v-0.5l37-190.8h30L1624.5,319z M1586.4,258.2l-13.9-86.2
					l-14,86.2H1586.4z"/>
				<path class="st1" d="M1716.8,319h-75.1V128h28.6v165.5h46.5V319z"/>
			</g>
			<g>
				<path class="st2" d="M1012.1,656.7c0,20-10.2,30-30.5,30h-101c-20.2,0-30.2-10-30.2-30v-78.3h50.2v67h61.3V581l-100.6-93.2
					c-7.3-6.9-10.9-15.6-10.9-26.2v-73c0-20.1,10.1-30.2,30.2-30.2h101c20.3,0,30.5,9.9,30.5,29.8v73.5h-50.2v-61.9h-61.3V459
					l100.6,92.8c7.3,6.7,10.9,15.6,10.9,26.7V656.7z"/>
				<path class="st2" d="M1195.1,686.3h-50.5V539.1h-67.8v147.1h-50.1v-328h50.1v135.2h67.8V358.3h50.5V686.3z"/>
				<path class="st2" d="M1376.1,656.3c0,20-9.9,30-29.8,30h-106.6c-19.5,0-29.2-10-29.2-30V388.4c0-20.1,9.7-30.2,29.2-30.2h106.6
					c19.9,0,29.8,10.1,29.8,30.2V656.3z M1326.9,644.1V400.4h-67.4v243.7H1326.9z"/>
				<path class="st2" d="M1537.5,686.3h-142.4v-328h141.1v43.4h-89.7v95.8h77.2V540h-77.2v102.9h91V686.3z"/>
				<path class="st2" d="M1708.1,656.3c0,20-10.2,30-30.5,30h-101.2c-20.2,0-30.3-10-30.3-30v-78.2h50.3V645h61.4v-64.3L1557,487.6
					c-7.3-6.8-11-15.6-11-26.2v-72.9c0-20.1,10.1-30.2,30.3-30.2h101.2c20.3,0,30.5,9.9,30.5,29.8v73.4h-50.3v-61.8h-61.4v59.3
					l100.8,92.6c7.3,6.7,11,15.6,11,26.6V656.3z"/>
			</g>
		</g>
		<g>
			<g>
				<radialGradient id="SVGID_1_" cx="278.5547" cy="215.664" r="179.8956" gradientUnits="userSpaceOnUse">
					<stop  offset="0.1489" style="stop-color:#32A6DF"/>
					<stop  offset="0.3107" style="stop-color:#329CD8"/>
					<stop  offset="0.5823" style="stop-color:#3182C4"/>
					<stop  offset="0.8687" style="stop-color:#3060AA"/>
				</radialGradient>
				<path class="st3" d="M473.9,63.8c-68.9-27.6-176-3.4-266,69.4C118.4,205.7,72.9,305.3,85.2,378.6c9-73.1,55.7-160.2,133.1-222.9
					C299.3,90.1,399.4,57.5,473.9,63.8z"/>
				<radialGradient id="SVGID_2_" cx="295.7849" cy="243.5714" r="196.1653" gradientUnits="userSpaceOnUse">
					<stop  offset="0" style="stop-color:#CFE7F6"/>
					<stop  offset="0.2766" style="stop-color:#C0DEF3"/>
					<stop  offset="0.807" style="stop-color:#99C5E9"/>
					<stop  offset="0.8296" style="stop-color:#97C4E9"/>
				</radialGradient>
				<path class="st4" d="M267.6,205.8C347.9,138.4,433.4,96,506.4,83.1c-9.5-8.1-20.4-14.5-32.5-19.3
					c-74.5-6.3-174.6,26.3-255.6,91.9C140.9,218.4,94.1,305.6,85.2,378.6c2.8,16.8,8.6,32.1,17.6,45.5
					C130.3,351.7,188.3,272.4,267.6,205.8z"/>
			</g>
			<g>
				<path class="st5" d="M477.7,468.6c-10.2,9.9-19.9,19.9-29.2,30c16.7-12.3,34-26.2,51.4-41.3c20.7-18,39.5-36.1,56-53.5
					C529.5,422.3,503.2,444,477.7,468.6z"/>
				<radialGradient id="SVGID_3_" cx="381.8688" cy="348.8586" r="283.733" gradientUnits="userSpaceOnUse">
					<stop  offset="0.1489" style="stop-color:#32A6DF"/>
					<stop  offset="0.3107" style="stop-color:#329CD8"/>
					<stop  offset="0.5823" style="stop-color:#3182C4"/>
					<stop  offset="0.8687" style="stop-color:#3060AA"/>
				</radialGradient>
				<path class="st6" d="M348.8,301.3c126.8-106.4,262.9-160,330-138.3c-2.1-14-8.3-27.4-19.1-40.3c-69.3-82.6-240-44.4-392.1,83.2
					S41.8,507.9,111.1,590.5c14,16.7,30.2,25.6,48.3,28.3C133,553.7,211.3,416.6,348.8,301.3z"/>
				
					<radialGradient id="SVGID_4_" cx="417.0666" cy="389.5254" r="247.5025" fx="658.4327" fy="334.754" gradientUnits="userSpaceOnUse">
					<stop  offset="0.1489" style="stop-color:#87CEE0"/>
					<stop  offset="0.3083" style="stop-color:#80CCDF"/>
					<stop  offset="0.5388" style="stop-color:#6DC8DC"/>
					<stop  offset="0.8113" style="stop-color:#4EC0D8"/>
					<stop  offset="0.8687" style="stop-color:#46BED7"/>
				</radialGradient>
				<path class="st7" d="M240.5,603.6c22.2-69.8,77.7-153.1,157.6-227.5c91.2-85,191.6-137.7,267.2-146.7
					c11.7-23.4,16.8-45.6,13.5-66.4c-31.3-10.1-77.5-3.8-130.8,16.5c-23.3,60.6-79.8,128-154.2,190.4
					C322.7,429.5,250.2,472.7,188,487c-30.3,54-41.4,101.7-28.2,132.7C183.5,623.6,210.5,617.4,240.5,603.6z"/>
			</g>
			<g>
				<radialGradient id="SVGID_5_" cx="506.1275" cy="490.4662" r="269.5254" gradientUnits="userSpaceOnUse">
					<stop  offset="0.1489" style="stop-color:#A8C73B"/>
					<stop  offset="0.2699" style="stop-color:#A1C53B"/>
					<stop  offset="0.4448" style="stop-color:#8EBE39"/>
					<stop  offset="0.6526" style="stop-color:#6EB437"/>
					<stop  offset="0.8687" style="stop-color:#46A734"/>
				</radialGradient>
				<path class="st8" d="M477.7,468.6c106.1-102.5,228.7-155,303.4-136.6c4.4-30.9-1.7-57.4-20-77c-59.9-64.2-222.4-10-363,121.1
					S192.1,665.5,252,729.8c17.9,19.1,44.3,25.8,76.5,22.3C322.3,676.4,378.4,564.5,477.7,468.6z"/>
				<radialGradient id="SVGID_6_" cx="554.5691" cy="540.2235" r="219.3392" gradientUnits="userSpaceOnUse">
					<stop  offset="0.1489" style="stop-color:#BDD368"/>
					<stop  offset="0.5167" style="stop-color:#BCD366"/>
					<stop  offset="0.6491" style="stop-color:#B9D15F"/>
					<stop  offset="0.7436" style="stop-color:#B3CE54"/>
					<stop  offset="0.8194" style="stop-color:#ABCB43"/>
					<stop  offset="0.8687" style="stop-color:#A3C733"/>
				</radialGradient>
				<path class="st9" d="M542.8,533.6c66.6-57.8,136.3-89.2,194.2-95.2c24.3-38.6,39.7-74.8,44.1-106.4
					c-30.2-7.4-68.2-3.3-109.8,11.1c-26.2,59.2-73.4,120.1-130.6,175.3c-61.4,59.3-127.1,104.7-189.3,124.9
					c-17.4,40-25.5,77.5-23,108.8c27.4-3,58.8-13.4,92.5-29.8C435.7,660.9,476.5,591.2,542.8,533.6z"/>
			</g>
			<g>
				<linearGradient id="SVGID_7_" gradientUnits="userSpaceOnUse" x1="544.0985" y1="576.0698" x2="754.3581" y2="733.7645">
					<stop  offset="0" style="stop-color:#CFE7F6"/>
					<stop  offset="0.1932" style="stop-color:#CCE5F5"/>
					<stop  offset="0.3402" style="stop-color:#C2DFF3"/>
					<stop  offset="0.4719" style="stop-color:#B2D5EF"/>
					<stop  offset="0.594" style="stop-color:#9BC7EA"/>
					<stop  offset="0.6126" style="stop-color:#97C4E9"/>
				</linearGradient>
				<path class="st10" d="M609.1,629.4c-18.7,15.7-37.4,29.7-55.6,41.7c-23.6,33.2-37.3,66.6-38.8,94.3
					c51.7-14.4,101.1-39.8,144.1-76c51.3-43.1,89.3-96.6,112.3-154.4c-27.1-0.1-59.9,9.4-93.7,27.4
					C658.8,584.3,635.6,607.2,609.1,629.4z"/>
				<radialGradient id="SVGID_8_" cx="576.2117" cy="561.4816" r="235.8922" gradientUnits="userSpaceOnUse">
					<stop  offset="0.1489" style="stop-color:#32A6DF"/>
					<stop  offset="0.3107" style="stop-color:#329CD8"/>
					<stop  offset="0.5823" style="stop-color:#3182C4"/>
					<stop  offset="0.8687" style="stop-color:#3060AA"/>
				</radialGradient>
				<path class="st11" d="M786,460c0-0.3,0-0.5,0-0.5l0,0c-0.7-9.1-4.5-16.4-11.3-19.7c-1.2-0.6-2.4-1-3.7-1.4l0,0
					c-7.7-2.9-26.8-1.1-38.4,0.4c-1.2,0.1-2.3,0.3-3.5,0.5c-1,0.1-2,0.3-2.8,0.4c-0.6,0.1-1.2,0.2-1.8,0.3c-0.9,0.1-1.4,0.2-1.4,0.2
					l0,0c-55,9.2-119,40-180.3,93.3c-67,58.2-107.9,128.6-122.3,190.5c-0.9,3.7-1.7,7.4-2.3,10.9c-2.8,17.4-1.1,32.6,6,37.5
					c1.6,1.1,3.4,1.8,5.3,2.2l0,0c0,0,0,0,0.1,0c0.5,0.1,1.1,0.2,1.6,0.3c1.1,0.1,2.3,0.2,3.4,0.1c8.9,0.5,28.9,0.6,57.1-4.7
					c7.6-1.3,15.2-2.9,22.8-5c2.1-45.2,40.9-109,94.4-155.4c53.9-46.8,117.8-75.8,162.4-75.3c4.8-12.3,8-24.6,10.2-37l0,0
					c3.8-16,4.3-28.2,4.3-34.1C786.1,462.4,786.1,461.2,786,460z"/>
			</g>
		</g>
	</g>
</g>
</svg>
