<?xml version="1.0" encoding="utf-8"?>
<!-- Generator: Adobe Illustrator 24.0.2, SVG Export Plug-In . SVG Version: 6.00 Build 0)  -->
<svg version="1.1" id="Capa_1" xmlns="http://www.w3.org/2000/svg" xmlns:xlink="http://www.w3.org/1999/xlink" x="0px" y="0px"
	 viewBox="0 0 1800 1590" style="enable-background:new 0 0 1800 1590;" xml:space="preserve">
<style type="text/css">
	.st0{fill:#F6F6F6;}
	.st1{opacity:0.7;}
	.st2{fill:#221E1F;}
	.st3{fill:#F6F4F5;}
	.st4{fill:#231F20;}
	.st5{fill:#8DC53F;}
</style>
<g>
	<g>
		<g>
			
				<image style="overflow:visible;opacity:0.7;" width="1067" height="824" xlink:href="D0892B11.png"  transform="matrix(1 0 0 1 115.481 680.481)">
			</image>
			<g>
				<path class="st0" d="M1159.4,1134c-2.3-53.6-41-72.7-76.5-72.7c-4.4,0-7.8,0.3-9.4,0.5c-19.8,1.3-43.5,7.2-70.5,17.6
					c-0.6-1.6-1.4-3.3-2.3-4.9c-8.2-15.1-24.7-24.2-48.8-27l-0.5-0.1c-0.5,0-1.9-0.2-4-0.2c-11.8,0-52.1,3.6-73.6,49.3l-45.7,97.1
					c2.9-10.5,4.1-20.1,4.4-28.4c0.8-24.7-6.4-42.4-8.2-46.4c-19-46.9-56.9-71.7-109.7-71.7c-56.1,0-111,28.5-115.9,31.1l0,0
					l-5.9,3.4l-0.4,1c-16.6,11.8-31.7,23.7-45.5,35.7l0-0.2l289.3-305.4c29.7-30.5,32-66.1,5.9-92.9c-11.2-11.5-27.5-17.8-45.9-17.8
					c-23.7,0-48.3,10.1-64.2,26.4L586.6,878.4c8.9-18.1,13.8-38.4,13.8-59.9c0-74.6-59.8-135.3-133.4-135.3
					c-63.9,0-117.4,45.8-130.4,106.7v-20.1c0-33.8-27.1-61.4-60.4-61.4h-18.7c-33.3,0-60.4,27.5-60.4,61.4v89.5
					c0,2.7,0.2,5.4,0.5,8.1c-1.2,82.3-8.9,241.7-47,398.4l-12.5,47.1c-2,5.4-10.9,31.2-13.7,57.1l-0.2,0l-0.1,2.6
					c-0.4,4.6-0.6,9.2-0.5,13.6l0,0.2c0,1-0.1,4.5,0.7,9.5c1.4,11.3,5.1,20.7,10.9,27.9c7.1,10.8,17,19.6,29.4,26.2
					c8.5,4.7,17.5,7,26.9,7c2.8,0,5.6-0.2,8.4-0.7c17.7-1,34.3-8.6,46.8-21.3l18.7-19.6l221.8-234.1c-3,3.9-6.4,8.5-9.9,13.6
					c-2.7,3.8-5.5,7.9-8.1,12.3c-25.7,41-52.3,103.2-34.2,168.1c0,0.4,0.1,0.8,0.1,1.1l4.3,40l8.5-8.3c9.6,15.9,23.5,29.3,41.1,39.4
					c23.1,13.3,51.5,20.3,82.1,20.3c17.6,0,35.6-2.3,53.5-6.9c7.7-1.7,81.1-19,116.5-78.6c2.9-4.2,5.3-8.4,7.2-12.3l1.6-2.7
					l-0.2-0.2c13.4-29.2,4.5-49.8,3.3-52.4l-0.7-1.5l-0.9-1.3c-5.3-7.6-12.8-12.8-21.6-15c-0.7-0.2-1.5-0.4-2.2-0.5
					c22.6-9.9,41.6-21.8,56.7-35.5c10.7-9.7,19.2-19.6,25.8-29.3l-42.7,90.8c-4,7.8-30,60.6-12.8,101c5.4,12.6,17.2,29.1,43.4,36.9
					c2.8,1.1,8.3,2.7,14.9,2.7c15.5,0,28.1-8.6,34.6-23.7l82.7-175.9l0.2-0.6c0.4-0.9,34.8-88.3,96.1-93
					c-3.5,10.3-11.2,28.5-27.9,59.6l-0.2,0.4l-50,104.7c-3.9,7.6-30.1,60.5-12.8,101.1c5.4,12.6,17.2,29.1,43.4,36.9
					c2.8,1.1,8.3,2.7,14.9,2.7c15.5,0,28.1-8.6,34.6-23.7l88-187.1l24.2-55.7C1143.9,1203.1,1161.1,1167.7,1159.4,1134z M337,848.4
					c13.5,60.2,66.7,105.3,130.1,105.3c21.9,0,42.7-5.4,60.9-15L319.9,1153C334.7,1037.5,337.1,916.1,337,848.4z M656.9,1325.4
					c-17.3,11.5-42.1,22.5-50.2,24.3c-12.9,2.3-23.2,3.4-31.6,3.4c-18.8,0-21.8-5.4-22.8-7.2c-2.5-4.7-2.8-11.3-0.9-19.2
					c10.9,0.9,21.6,1.4,32,1.4c0,0,0,0,0,0c29.4,0,57.7-3.7,84.4-10.9C664.2,1319.6,660.6,1322.4,656.9,1325.4z M706.3,1185.6
					c-9.6,6.5-23.2,12.5-40.2,18l-0.3,0.1l-0.3,0.1c-2,0.7-4,1.4-6,2.1l-1.7,0.6c-1.6,0.5-3.2,1-4.8,1.5l-1.4,0.4
					c-1.9,0.6-3.8,1.1-5.8,1.7l-2,0.5c-1.3,0.4-2.6,0.7-4,1.1c-0.8,0.2-1.5,0.4-2.3,0.6c-1.5,0.4-3,0.7-4.5,1.1
					c-1.1,0.3-2.3,0.5-3.4,0.7c-1,0.2-2.1,0.4-3.1,0.7c-1,0.2-2.1,0.4-3.1,0.6c-0.8,0.2-1.6,0.3-2.4,0.4c-2.3,0.4-4.6,0.8-6.9,1.2
					l-0.9,0.1c-1.3,0.2-2.6,0.4-3.8,0.6l-1.4,0.2c-2,0.3-4,0.5-6,0.7c0.8-0.8,1.5-1.5,2.3-2.3c0.5-0.5,0.9-0.9,1.4-1.4l0.5-0.5
					c0.9-0.8,1.7-1.7,2.6-2.5c0.7-0.6,1.3-1.2,2-1.8c0.9-0.8,1.8-1.6,2.7-2.4c0,0,1.4-1.3,1.9-1.6c1.5-1.3,3-2.5,4.5-3.7l1.3-1.1
					c1.2-1,2.4-1.9,3.6-2.8c0.6-0.5,1.3-1,1.9-1.4c1.1-0.9,2.3-1.7,3.4-2.5l1.8-1.3c1.7-1.2,3.5-2.4,5.2-3.6l0.7-0.4
					c1.6-1.1,3.2-2.1,4.8-3.2l1.8-1.1c1.4-0.9,2.7-1.7,4.1-2.5l1.7-1c1.8-1,3.6-2.1,5.4-3.1l0.2-0.1c9.3-4.6,35.7-15.8,53.8-15.8
					c2.5,0,8.5,0.3,9.6,2.7l0.6,1.4l0.4,0.6C721.8,1170.6,717.9,1177.8,706.3,1185.6z"/>
			</g>
		</g>
		<g>
			
				<image style="overflow:visible;opacity:0.7;" width="438" height="665" xlink:href="D0892B13.png"  transform="matrix(1 0 0 1 1078.481 835.481)">
			</image>
			<g>
				<path class="st0" d="M1149.9,1471.4c-3.8,0-7.4-0.6-10.7-1.6c-28.9-5.5-50.1-33.8-51.9-69.6c-0.9-17.3,2.2-24,9.5-35.2l0.8-1.2
					l135.9-285.7l-25.4-0.6c-0.8,0-1.6,0-2.4,0c-2.3,0-4.4-0.1-6.5-0.2l-8.4-0.2l0-0.9c-34.3-6.8-35.9-37.7-36.6-51.8
					c-1.6-32,17.8-55,50.2-61.2l0.8-3.6l51.8,4.6l-0.4-8.2l24.8,9.9c0.3-0.5,0.7-1.2,1.2-2.2l39.5-88.2l0.9,0.1l8.2-17.7l2.2,0.7
					c7.6-9.8,20-20.2,39-20.2c6.8,0,14,1.4,21.5,4.2l9.6,3.5c20.9,7.7,35.3,24.6,39.3,44.3l10.4,1.2l-11.1,24.7
					c-0.9,3.3-2,6.6-3.5,9.7c-1.2,2.7-2.7,5.4-4.4,7.9l-13.4,31.2l5-0.1l1.1,0c3.1,0,11.2,0.1,20.5,0.8l15.7,1.3l0.4,2.9
					c8.2,2.4,16.5,6.9,22.4,15.4c7.6,10.8,9.2,25.1,4.6,42.7c-1.7,8.9-12.1,55.1-50.1,57.7l-26.6,1.8l-47.4-2.6l-139.9,312.4
					c-3.6,9-29.5,69.8-73,73.9C1152.5,1471.3,1151.2,1471.4,1149.9,1471.4z"/>
			</g>
		</g>
		<g>
			
				<image style="overflow:visible;opacity:0.7;" width="398" height="477" xlink:href="D0892B16.png"  transform="matrix(1 0 0 1 1301.481 1026.481)">
			</image>
			<g>
				<path class="st0" d="M1438.6,1474.5c-19.3,0-37.8-4.6-55-13.6c-31.4-16.6-54-44.7-65.1-81.4c-17.4-57.1-5.9-129.7,31.5-199.1
					c23.7-43.9,55-81.5,90.5-108.7c36.8-28.2,75.5-43.1,111.9-43.1c20.2,0,39.3,4.6,56.6,13.8c29.1,15.3,49.9,41,60,74.1
					c17,55.7,3.6,130.4-36.7,205C1581.4,1415.9,1507.2,1474.5,1438.6,1474.5C1438.6,1474.5,1438.6,1474.5,1438.6,1474.5z
					 M1539.7,1153.4c-14.6,0-49.8,25.5-79,80.3c-24.9,46.5-30.3,86.6-24.9,104.2c1.1,3.6,2.6,6.1,4.2,6.9c0.3,0.1,1,0.5,2.7,0.5
					c14.6,0,49.8-25.5,79-80.3c24.9-46.5,30.3-86.6,24.9-104.2c-1.1-3.6-2.6-6.1-4.2-6.9C1542.2,1153.8,1541.5,1153.4,1539.7,1153.4
					z"/>
			</g>
		</g>
		<g>
			<g class="st1">
				<path d="M1267.3,1132.6"/>
			</g>
			<g>
				<path class="st0" d="M1260.1,1119.2"/>
			</g>
		</g>
		<path class="st2" d="M1260.1,1119.2"/>
		<g>
			<g class="st1">
				<path d="M1267.3,1132.6"/>
			</g>
			<g>
				<path class="st0" d="M1260.1,1119.2"/>
			</g>
		</g>
		<path class="st2" d="M1260.1,1119.2"/>
	</g>
	<g>
		<path class="st2" d="M1446.2,986.6L1446.2,986.6l-0.2-1.4c-10.7-0.9-19.8-0.8-19.8-0.8l-35.3,1l26.2-61.1c1.5-2.1,2.8-4.3,3.9-6.6
			c1.2-2.6,2.1-5.2,2.6-7.9l0.9-2l-0.5-0.1c2.9-18.1-7.9-36.4-27.2-43.5l-9.6-3.5c-22.2-8.2-34.9,1.2-45.3,20.8l-0.2-0.1l-6.9,14.9
			l-0.7-0.1l-33.6,75.1c-3.9,9-9.4,12.5-14,13.8l-7.7,0.3c-0.6-0.1-1-0.2-1-0.2l0,0.3l-57.3-5.1l-0.1,0.6c-0.8,0-1.6,0-2.4,0.1
			c-32,1.7-45.4,19.9-44.3,42.2c1.1,22.3,5.1,36.2,37.1,34.4c0,0,0-1.3,0-1.3l0,1.5l42,1c3.9,1.9,7.8,6.8,2.2,19.1l-140.4,295.2
			c-6.4,10-8.6,12-7.9,25.9c1.4,26.9,16.7,48.5,37.4,51.6c2,0.9,4.6,1.2,7.8,1c33.6-3.1,56.8-62,56.8-62l0,0l145.6-325.1l59.6,3.3
			l25.4-1.7c25.4-1.7,32.4-42.4,32.4-42.4C1479.6,994.2,1464,988.1,1446.2,986.6z"/>
		<path class="st2" d="M1142.9,1134.9c-2.6-62.4-64.6-53.7-64.6-53.7l0,0c-20.4,1.2-49.7,8.4-91.8,27.6c0,0,17.6-35.9-33.9-41.9
			c0,0-38.6-3.5-58.1,38.1L788,1331.1c0,0-48.1,91.3,19.6,110.8c0,0,17.5,7.9,25.3-10.5l82.5-175.5c0,0,45.1-117.7,132.9-104.7
			c5.1-0.2,12.4,9.9-29.2,87.5l-50,104.6c0,0-48.1,91.3,19.6,110.8c0,0,17.5,7.9,25.3-10.5l88-187.2l24.3-56
			C1126.4,1200.4,1144.5,1166,1142.9,1134.9z"/>
		<path class="st2" d="M806.4,1126.6c-44.9-112-195.5-32.8-197.9-31.4c0,0-0.1,0-0.1,0s0,0,0,0c-36.1,25.3-67.7,52.4-94,83.8l0,0
			c0,0-9.4,10.1-21.1,27.1c-2.1,2.9-4.7,6.7-7.4,11.3c-22.9,36.5-48.7,94.6-31.6,153.8c0.1,0.3,0.1,0.6,0.2,0.8
			c0.1,0.8,0.1,1.5,0.2,2.3l0.2-0.2c0.5,2.3,1.2,4.6,1.9,6.8c18.2,54.9,89.1,80.2,163.5,61c0,0,71.9-14.6,104.5-70l0,0
			c20.1-29.2,10.8-48.7,10.8-48.7c-2.8-4-6.3-6.3-10.4-7.3c-16.7-4.2-42,13.4-56.7,25.3c-18.7,12.7-46.5,25.4-58.2,27.7
			c-35.9,6.4-64.4,6.2-75.2-13.7c-7.1-13.2-5.5-30.5,3.1-49.4c48.1,5.8,97.1,3.3,145.1-13.9c40.9-12.2,69-28.1,88-45.3
			C835.6,1188.3,806.4,1126.6,806.4,1126.6z M717.2,1201.8c-10.2,6.9-24.7,13.8-45.1,20.4c-2.1,0.8-4.3,1.5-6.4,2.2
			c-0.6,0.2-1.2,0.4-1.8,0.6c-1.7,0.5-3.4,1.1-5,1.6c-0.5,0.2-1,0.3-1.6,0.5c-2,0.6-4.1,1.2-6.1,1.8c-0.7,0.2-1.4,0.4-2.1,0.6
			c-1.4,0.4-2.8,0.8-4.2,1.1c-0.8,0.2-1.7,0.4-2.5,0.6c-1.6,0.4-3.2,0.8-4.8,1.1c-1.2,0.3-2.4,0.5-3.6,0.8c-1.1,0.2-2.2,0.5-3.3,0.7
			c-1.1,0.2-2.2,0.4-3.3,0.7c-0.9,0.2-1.7,0.3-2.6,0.5c-2.5,0.5-5,0.9-7.4,1.3c-0.3,0-0.6,0.1-0.9,0.1c-1.4,0.2-2.8,0.4-4.2,0.6
			c-0.5,0.1-1,0.1-1.5,0.2c-4.6,0.6-9.1,1.1-13.6,1.4c-0.2,0-0.4,0-0.6,0c-12.3,1-24.3,1.1-35.8,0.3c4.6-7.2,9.8-14.3,15.7-21.2
			c0,0,0,0,0,0c0.6-0.7,1.3-1.5,1.9-2.2c0.7-0.8,1.4-1.6,2.2-2.5c0.7-0.8,1.4-1.5,2.1-2.3c0.7-0.8,1.5-1.6,2.3-2.4
			c0.7-0.7,1.4-1.5,2.1-2.2c1.3-1.3,2.6-2.6,3.9-3.9c0.7-0.7,1.4-1.4,2.1-2c0.9-0.9,1.9-1.8,2.9-2.7c0.7-0.7,1.4-1.3,2.2-2
			c1-0.9,1.9-1.7,2.9-2.6c0.7-0.6,1.4-1.2,2.1-1.8c1.6-1.4,3.2-2.7,4.9-4c0.5-0.4,1-0.8,1.4-1.1c1.3-1,2.6-2.1,3.9-3.1
			c0.7-0.5,1.4-1,2-1.5c1.2-0.9,2.5-1.8,3.7-2.7c0.6-0.5,1.3-0.9,1.9-1.4c1.8-1.3,3.7-2.6,5.6-3.9c0.2-0.2,0.5-0.3,0.7-0.5
			c1.7-1.2,3.5-2.3,5.2-3.4c0.6-0.4,1.3-0.8,1.9-1.2c1.5-0.9,2.9-1.8,4.4-2.7c0.6-0.4,1.2-0.8,1.9-1.1c2.1-1.2,4.1-2.4,6.3-3.6
			c0,0,0,0,0,0s0,0,0,0c1.2-0.6,75.3-37.7,90.4-3.8C737.3,1157,751.6,1178.7,717.2,1201.8z"/>
		<path class="st2" d="M1367.3,1189.8c-57.2,106-47.9,215.2,25.5,253.9c73.4,38.7,165.2-25.3,222.4-131.3
			c57.2-106,58.2-213.9-15.2-252.5C1526.5,1021.1,1424.5,1083.8,1367.3,1189.8z M1539,1274.2c-33.3,62.3-81.6,101.6-108,87.9
			s-20.8-75.3,12.5-137.6c33.3-62.3,81.6-101.6,108-87.9C1577.9,1150.4,1572.3,1212,1539,1274.2z"/>
		<path class="st2" d="M828.1,733.6L828.1,733.6c-20.3-20.8-61.8-12.2-82.1,8.6l-454.4,468c27.4-156.7,26.4-346.9,25.5-399.9v-40.5
			c0-23-18.4-41.9-40.9-41.9h-18.7c-22.5,0-40.9,18.8-40.9,41.9v89.5c0,2.3,0.2,4.6,0.6,6.9c-1.2,88.7-9.4,249-48.3,407.2l-0.1,0
			l-12,45.4c0,0-14.6,38.8-13.5,68.3l-0.1,0c0,0-0.1,2.3,0.5,6c0.9,7.6,3.1,14.3,7.3,19c4.5,7.2,11.7,14.6,23,20.6
			c5.4,3,11.3,4.7,17.6,4.7c2.1,0,4.3-0.2,6.3-0.6c12.7-0.5,25.3-5.6,34.9-15.5l18.5-19.4l570.8-602.6
			C842.4,778.6,848.4,754.4,828.1,733.6z"/>
		<ellipse class="st2" cx="467.1" cy="818.4" rx="115.2" ry="115.7"/>
	</g>
	<g>
		<g>
			
				<image style="overflow:visible;opacity:0.7;" width="591" height="606" xlink:href="D0892B17.png"  transform="matrix(1 0 0 1 897.1696 100.1696)">
			</image>
			<g>
				<g>
					<path class="st3" d="M1452.5,321.4l4.5,47.2c0.8,8.7,1.2,17.4,1.2,25.9c0,67.9-25.1,132.9-70.7,183.1
						c-45.3,49.8-107,81-173.7,87.8l-47,4.8L1452.5,321.4z"/>
					<path class="st4" d="M1211.7,646c127.5-12.9,226.9-120.5,226.9-251.4c0-8.1-0.4-16.2-1.1-24.1L1211.7,646z"/>
					<path class="st3" d="M1108.9,646.8c-19.3-6.1-38-14.3-55.5-24.6l-10.3-6l0.7-11.9c7-121.7,6.1-250.7,5-283.9l-0.6-35.7
						c-0.2-9.3-6.9-16.9-15.1-16.9l-16,0.3c-8.1,0.1-14.9,8.1-14.7,17.4l1.4,78.4c0,1,0.1,2,0.3,3l0.3,1.6l0,1.7
						c0.2,35.8-0.7,92.1-5.8,156.7l-4.5,57L962.6,536c-29-44.3-44.4-95.8-44.4-149c0-150.1,122.1-272.2,272.2-272.2
						c52,0,102.5,14.7,146.2,42.5c42.5,27.1,76.6,65.3,98.6,110.4l5.6,11.6l-319.8,371.3L1108.9,646.8z"/>
					<path class="st4" d="M984.6,370.2c-0.3-2-0.5-4-0.6-6l-1.4-78.4c-0.4-20.1,14.9-36.9,33.9-37.2l15.8-0.3
						c19-0.3,34.8,15.9,35.2,36l0.6,35.4c1.1,33,2,163.5-5,285.6c16.1,9.4,33.4,17.1,51.5,22.8l303-351.9
						c-41-84.1-127.4-142-227.2-142c-139.6,0-252.7,113.1-252.7,252.7c0,51,15.1,98.5,41.2,138.3C983.8,463.3,984.8,409,984.6,370.2
						z"/>
				</g>
			</g>
		</g>
		<circle class="st5" cx="1198.2" cy="324.6" r="97.2"/>
	</g>
</g>
</svg>
