<?xml version="1.0" encoding="utf-8"?>
<!-- Generator: Adobe Illustrator 24.0.2, SVG Export Plug-In . SVG Version: 6.00 Build 0)  -->
<svg version="1.1" id="Capa_1" xmlns="http://www.w3.org/2000/svg" xmlns:xlink="http://www.w3.org/1999/xlink" x="0px" y="0px"
	 viewBox="0 0 1800 828.1" style="enable-background:new 0 0 1800 828.1;" xml:space="preserve">
<style type="text/css">
	.st0{fill:#B31F23;}
	.st1{fill:url(#SVGID_1_);}
	.st2{fill:url(#SVGID_2_);}
	.st3{fill:url(#SVGID_3_);}
	.st4{fill:url(#SVGID_4_);}
	.st5{fill:url(#SVGID_5_);}
	.st6{fill:url(#SVGID_6_);}
	.st7{fill:url(#SVGID_7_);}
	.st8{fill:url(#SVGID_8_);}
	.st9{fill:url(#SVGID_9_);}
	.st10{fill:url(#SVGID_10_);}
	.st11{fill:url(#SVGID_11_);}
	.st12{fill:#B5B7B9;}
	.st13{fill:#A0A2A6;}
	.st14{fill:url(#SVGID_12_);}
	.st15{fill:url(#SVGID_13_);}
	.st16{fill:url(#SVGID_14_);}
	.st17{fill:url(#SVGID_15_);}
	.st18{fill:url(#SVGID_16_);}
</style>
<g>
	<g>
		<path class="st0" d="M1153.6,731v-2.9c0-4.5,3.6-8.1,8.1-8.1h34.7v0v-21.1h-21.1h-21.2c-11.6,0-21.1,9.4-21.1,21.1v32.1h41.3v7.1
			c0,4.5-3.6,8.1-8.1,8.1h-33.2V788h21.1h21.2c11.6,0,20.2-9.4,20.2-21.1v-36H1153.6z"/>
		<polygon class="st0" points="1265.1,720 1265.1,698.9 1225.9,698.9 1205.1,698.9 1205.1,720 1205.1,766.9 1205.1,788 1225.9,788 
			1264.5,788 1264.5,766.9 1225.9,766.9 1225.9,750 1256.8,750 1256.8,731 1225.9,731 1225.9,720 		"/>
		<path class="st0" d="M1658.2,698.9h-48.7V788h21.3v-34.2h28.4V788h20.3c0-2.5,0-5.1,0-7.9v-59.9
			C1679.5,708.5,1669.9,698.9,1658.2,698.9z M1630.8,734.5v-6.2V720h8.3h11.7c4.6,0,8.3,3.8,8.3,8.4v6.2H1630.8z"/>
		<rect x="1505.2" y="699.4" class="st0" width="20.9" height="89.2"/>
		<path class="st0" d="M1316.4,767.8H1295v-38.1c0-4.5,3.6-8.3,8-8.3h4.4h22.4h8h0v-22h-21.9h-16.4h-1.8c-12,0-21.9,10.1-21.9,22.5
			v21.5V765v22.5h21.9h18.2h21.9V765v-21.5v-1.2h-21.4V767.8z"/>
		<path class="st0" d="M1397,699.4h-0.7v8.1v52.2c0,4.4-3.6,8.1-8.1,8.1h-19.7v-68.3h-0.7h-12.1h-8.1v8.1v12.1v40.1v7.6v20.2h20.2
			h0.7h27.8h0.7c11.1,0,20.2-9.1,20.2-20.2v-47.7v-20.2H1397z"/>
		<path class="st0" d="M1485.7,762l-1.3-3.5l10.4-10v-6.2v-20.9v-9.3v-12.7h-46.3h-20.9v22v20.9V762v25.5h20.9V762h15.2l9.7,25.5h22
			L1485.7,762z M1476.3,730.8c0,5.6-4,10.2-9.3,11.2v0.2h-2.2h-16.3v-20.9h18.5h9.3V730.8z"/>
		<path class="st0" d="M1573.4,698.9h-16h-20.9v23.8v42.2v23.8h20.9h16c16,0,29.1-13.4,29.1-29.7v-30.4
			C1602.5,712.2,1589.4,698.9,1573.4,698.9z M1580.5,759.1c0,4.6-3.7,8.3-8.1,8.3h-15v-47.2h15c4.5,0,8.1,3.7,8.1,8.3V759.1z"/>
		<path class="st0" d="M1726.3,698.9h-16h-20.9v23.8v42.2v23.8h20.9h16c16,0,29.1-13.4,29.1-29.7v-30.4
			C1755.4,712.2,1742.3,698.9,1726.3,698.9z M1733.4,759.1c0,4.6-3.7,8.3-8.1,8.3h-15v-47.2h15c4.5,0,8.1,3.7,8.1,8.3V759.1z"/>
	</g>
	<g>
		<g>
			<linearGradient id="SVGID_1_" gradientUnits="userSpaceOnUse" x1="539.7212" y1="481.5325" x2="539.7212" y2="667.6523">
				<stop  offset="3.703704e-02" style="stop-color:#1E1E1C"/>
				<stop  offset="1" style="stop-color:#40403E"/>
			</linearGradient>
			<rect x="498" y="483.4" class="st1" width="83.4" height="190"/>
			<linearGradient id="SVGID_2_" gradientUnits="userSpaceOnUse" x1="539.7212" y1="328.7738" x2="539.7212" y2="482.5463">
				<stop  offset="3.703704e-02" style="stop-color:#565754"/>
				<stop  offset="1" style="stop-color:#393939"/>
			</linearGradient>
			<rect x="498" y="325.9" class="st2" width="83.4" height="157.5"/>
		</g>
		<g>
			<linearGradient id="SVGID_3_" gradientUnits="userSpaceOnUse" x1="1370.8527" y1="481.5325" x2="1370.8527" y2="667.6523">
				<stop  offset="3.703704e-02" style="stop-color:#1E1E1C"/>
				<stop  offset="1" style="stop-color:#40403E"/>
			</linearGradient>
			<path class="st3" d="M1410.2,532.9v27.5c0,17.4-14.1,31.5-31.5,31.5h-129.5v81h82.2h82.4c45.4,0,78.7-36.7,78.7-82V483.4h-243.3
				v49.5H1410.2z"/>
			<linearGradient id="SVGID_4_" gradientUnits="userSpaceOnUse" x1="1372.5902" y1="334.0414" x2="1372.5902" y2="485.0442">
				<stop  offset="3.703704e-02" style="stop-color:#565754"/>
				<stop  offset="1" style="stop-color:#393939"/>
			</linearGradient>
			<path class="st4" d="M1492.5,450.8h-163.3v-11.3c0-17.4,14.1-31.5,31.5-31.5H1496v-0.1v-82h-82.2h-82.4
				c-45.4,0-82.2,36.7-82.2,82v75.5h243.3V450.8z"/>
		</g>
		<g>
			<linearGradient id="SVGID_5_" gradientUnits="userSpaceOnUse" x1="1648.8617" y1="481.5325" x2="1648.8617" y2="667.6523">
				<stop  offset="3.703704e-02" style="stop-color:#1E1E1C"/>
				<stop  offset="1" style="stop-color:#40403E"/>
			</linearGradient>
			<polygon class="st5" points="1533,672.8 1614.1,672.8 1764.7,672.8 1764.7,590.7 1614.1,590.7 1614.1,524.8 1734.6,524.8 
				1734.6,483.4 1533,483.4 1533,590.7 			"/>
			<linearGradient id="SVGID_6_" gradientUnits="userSpaceOnUse" x1="1650.0201" y1="334.0414" x2="1650.0201" y2="485.0442">
				<stop  offset="3.703704e-02" style="stop-color:#565754"/>
				<stop  offset="1" style="stop-color:#393939"/>
			</linearGradient>
			<polygon class="st6" points="1734.6,450.8 1614.1,450.8 1614.1,408 1767,408 1767,325.9 1614.1,325.9 1533,325.9 1533,408 
				1533,483.4 1734.6,483.4 			"/>
		</g>
		<g>
			<linearGradient id="SVGID_7_" gradientUnits="userSpaceOnUse" x1="755.1783" y1="334.0414" x2="755.1783" y2="485.0442">
				<stop  offset="3.703704e-02" style="stop-color:#565754"/>
				<stop  offset="1" style="stop-color:#393939"/>
			</linearGradient>
			<polygon class="st7" points="696.1,440.5 709.9,451.3 756,486.1 802.1,451.3 814.3,441.8 814.3,483.4 897.7,483.4 897.7,376.6 
				897.7,325.9 825.9,325.9 814.3,335 756,380.5 696.1,333.7 686.1,325.9 612.7,325.9 612.7,375.3 612.7,483.4 696.1,483.4 			"/>
			<linearGradient id="SVGID_8_" gradientUnits="userSpaceOnUse" x1="855.9566" y1="481.5325" x2="855.9566" y2="667.6523">
				<stop  offset="3.703704e-02" style="stop-color:#1E1E1C"/>
				<stop  offset="1" style="stop-color:#40403E"/>
			</linearGradient>
			<rect x="814.3" y="483.4" class="st8" width="83.4" height="190"/>
			<linearGradient id="SVGID_9_" gradientUnits="userSpaceOnUse" x1="654.4" y1="481.5325" x2="654.4" y2="667.6523">
				<stop  offset="3.703704e-02" style="stop-color:#1E1E1C"/>
				<stop  offset="1" style="stop-color:#40403E"/>
			</linearGradient>
			<rect x="612.7" y="483.4" class="st9" width="83.4" height="190"/>
		</g>
		<g>
			<linearGradient id="SVGID_10_" gradientUnits="userSpaceOnUse" x1="1073.7303" y1="481.5325" x2="1073.7303" y2="667.6523">
				<stop  offset="3.703704e-02" style="stop-color:#1E1E1C"/>
				<stop  offset="1" style="stop-color:#40403E"/>
			</linearGradient>
			<path class="st10" d="M1019.9,672.8V539.6h111.2v133.2h79.8c0.1-9.6,0.1-19.9,0.1-30.8V483.4H936.5v189.4H1019.9z"/>
			<g>
				<linearGradient id="SVGID_11_" gradientUnits="userSpaceOnUse" x1="1071.0388" y1="323.1621" x2="1074.5504" y2="482.9442">
					<stop  offset="3.703704e-02" style="stop-color:#565754"/>
					<stop  offset="1" style="stop-color:#393939"/>
				</linearGradient>
				<path class="st11" d="M1127.5,325.3h-191v158.1H1211v-74.6C1211,362.9,1173.4,325.3,1127.5,325.3z M1131.1,464.3h-111.2v-24.1
					v-32.7h32.7h45.8c18.1,0,32.7,14.6,32.7,32.7V464.3z"/>
			</g>
		</g>
	</g>
	<g>
		<g>
			<g>
				<polygon class="st12" points="275.4,672.8 225.2,567.4 225.2,672.8 				"/>
				<polygon class="st13" points="225.2,672.8 225.2,567.4 175.1,672.8 				"/>
			</g>
			<g>
				<polygon class="st13" points="324.7,672.8 374.8,567.4 374.8,672.8 				"/>
				<polygon class="st12" points="374.8,672.8 374.8,567.4 425,672.8 				"/>
			</g>
			<g>
				<polygon class="st13" points="250.4,787.5 300.5,682.1 300.5,787.5 				"/>
				<polygon class="st12" points="300.5,787.5 300.5,682.1 350.7,787.5 				"/>
			</g>
		</g>
		<g>
			<g>
				<g>
					<g>
						<linearGradient id="SVGID_12_" gradientUnits="userSpaceOnUse" x1="93.1665" y1="37.3032" x2="93.1665" y2="288.3894">
							<stop  offset="3.703703e-02" style="stop-color:#A17F38"/>
							<stop  offset="0.5" style="stop-color:#E69D23"/>
							<stop  offset="1" style="stop-color:#A77C41"/>
						</linearGradient>
						<polygon class="st14" points="110.5,122.2 87.4,151.5 102.6,107.9 64.9,39.8 33,165.7 101.1,295 153.3,199.5 						"/>
						<linearGradient id="SVGID_13_" gradientUnits="userSpaceOnUse" x1="506.7892" y1="37.3032" x2="506.7892" y2="288.3894">
							<stop  offset="3.703703e-02" style="stop-color:#A17F38"/>
							<stop  offset="0.5" style="stop-color:#E69D23"/>
							<stop  offset="1" style="stop-color:#A77C41"/>
						</linearGradient>
						<polygon class="st15" points="567.1,165.4 535.1,39.5 497.4,107.7 512.7,151.5 489.4,122 446.5,199.5 498.8,295 						"/>
					</g>
					<linearGradient id="SVGID_14_" gradientUnits="userSpaceOnUse" x1="300.5567" y1="199.8001" x2="298.8008" y2="470.2006">
						<stop  offset="3.703704e-02" style="stop-color:#565754"/>
						<stop  offset="1" style="stop-color:#393939"/>
					</linearGradient>
					<polygon class="st16" points="498.8,295 446.5,199.5 299.9,464.3 153.3,199.5 101.1,295 200.2,483.4 399.6,483.4 					"/>
				</g>
				<linearGradient id="SVGID_15_" gradientUnits="userSpaceOnUse" x1="299.9372" y1="483.2761" x2="301.6931" y2="672.9075">
					<stop  offset="3.703704e-02" style="stop-color:#1E1E1C"/>
					<stop  offset="1" style="stop-color:#40403E"/>
				</linearGradient>
				<polygon class="st17" points="399.6,483.4 200.2,483.4 299.9,672.8 				"/>
			</g>
			<linearGradient id="SVGID_16_" gradientUnits="userSpaceOnUse" x1="277.9491" y1="333.4778" x2="360.4208" y2="330.6009">
				<stop  offset="0" style="stop-color:#393937"/>
				<stop  offset="0.2112" style="stop-color:#31312F"/>
				<stop  offset="1" style="stop-color:#161714"/>
			</linearGradient>
			<path class="st18" d="M378.1,287.1c35.9-45.2-39.4-51-39.4-51c-8.3-9.2-24.5-9.3-32.8-8.7c-3.9-1.8-12.6-4-30.9-1.7
				c0,0,2.7,0.8,4.7,5.1c-5.9,0.4-16.3,2.5-33.7,9.9c0,0,5.5,0.9,12.6,2.8c-6.6,1.6-15.6,3.8-26.5,6.5c0,0,3.4,3,7,7.7
				c-11,7.9-16.9,19.6-16.9,19.6c3.7-1,7.2-1.4,10.3-1.6c-4.8,8.2-7.5,18.6-9,28l77.4,137l0.3,0.5l0.4-0.7l41.3-73.1l-0.1,0.2
				c1.4-2.1,2.5-4.2,3.4-6.2c3.2-6.9,4-13.2,3.4-15.9c-0.1-0.4-0.2-0.8-0.3-1l0,0c-1.2-3.8-2.9-7.5-4.7-11c3.7,2.5,5.7,4.9,5.7,4.9
				c-0.4-9.7-9.2-18.8-14.5-23.5h4.1l-23.2-19.7c11.6-8.1,31.3-8.1,31.3-8.1c27.8,7,26.6,0,26.6,0c-8.1-9.3-30.1-15.1-30.1-15.1
				C378.1,254.6,378.1,287.1,378.1,287.1z"/>
		</g>
	</g>
</g>
</svg>
